ply
format ascii 1.0
comment Created by Blender 2.79 (sub 0) - www.blender.org, source file: ''
element vertex 560
property float x
property float y
property float z
property float nx
property float ny
property float nz
property uchar red
property uchar green
property uchar blue
element face 908
property list uchar uint vertex_indices
end_header
-0.024861 0.122913 0.024543 -0.163488 0.861171 0.481277 211 255 0
-0.029876 0.124252 0.020967 0.044771 0.896695 0.440321 211 255 0
-0.030720 0.117989 0.030617 -0.075686 0.729179 0.680074 234 255 0
-0.069870 0.168536 -0.031332 0.462142 0.808618 0.364055 0 33 255
-0.077145 0.167706 -0.029880 -0.779839 0.593310 0.199469 0 42 255
-0.070211 0.165303 -0.019466 0.220679 0.926023 0.306192 0 255 106
-0.042962 0.043024 -0.017629 -0.639241 0.574419 -0.511246 34 255 0
-0.042721 0.034356 -0.019130 -0.433546 -0.887997 -0.153142 0 255 128
-0.051293 0.034227 -0.012901 -0.696768 -0.434645 -0.570544 0 255 50
-0.028499 0.090492 -0.029085 -0.507584 0.360912 -0.782311 255 251 0
-0.031564 0.095933 -0.023680 -0.404340 0.361522 -0.840114 221 255 0
-0.029012 0.106719 -0.020748 -0.109012 0.474532 -0.873440 150 255 0
-0.017633 0.127605 0.017937 -0.223914 0.957335 0.182562 151 255 0
-0.019276 0.119853 0.032806 -0.285165 0.728416 0.622913 138 255 0
-0.014179 0.126270 0.026642 -0.338054 0.845302 0.413678 112 255 0
-0.029568 0.126072 0.014634 0.061220 0.990509 0.122990 194 255 0
-0.005907 0.127934 0.027462 -0.130894 0.896207 0.423872 78 255 0
-0.006185 0.122729 0.034787 -0.099948 0.715201 0.691702 77 255 0
-0.056250 0.135013 0.033046 0.760155 0.256935 0.596728 220 255 0
-0.047913 0.129301 0.026965 0.618030 0.542528 0.568896 172 255 0
-0.043539 0.130014 0.017533 0.602741 0.761650 0.237800 238 255 0
0.017440 0.127694 0.018535 0.429365 0.892422 0.138524 97 255 0
0.005822 0.128060 0.027902 0.099063 0.884213 0.456404 60 255 0
0.014434 0.127081 0.026297 0.367351 0.849727 0.378124 67 255 0
-0.027772 0.038256 0.032286 0.191260 -0.973296 0.126774 255 80 0
-0.033074 0.035522 0.029224 0.260079 -0.965453 -0.015412 238 255 0
-0.035244 0.035057 0.017826 0.267067 -0.963225 0.029328 207 255 0
-0.038891 0.123761 0.024978 0.284738 0.738151 0.611560 209 255 0
-0.006001 0.130398 0.017899 -0.140263 0.983337 0.115390 117 255 0
-0.089811 0.132401 0.007057 -0.902341 0.109714 -0.416791 116 255 0
-0.085027 0.146034 0.005860 -0.780725 0.453963 -0.429365 90 255 0
-0.085698 0.136903 0.001921 -0.794519 0.160619 -0.585589 110 255 0
-0.051632 0.145001 0.018480 0.843989 0.360393 0.397168 161 254 0
-0.056395 0.154565 0.016878 0.557085 0.804529 0.205786 58 255 0
-0.057352 0.144989 0.031520 0.756462 0.318857 0.571001 54 255 0
0.005955 0.131024 0.017825 0.112247 0.985412 0.127873 88 255 0
-0.078792 0.070777 0.006856 -0.774957 -0.621357 -0.115360 89 255 0
-0.078488 0.070528 0.017446 -0.754265 -0.646535 0.114170 89 255 0
-0.084526 0.080057 0.005307 -0.885586 -0.410962 -0.216315 109 255 0
-0.062285 0.162360 -0.039629 0.938261 0.077151 -0.337138 255 199 0
-0.068261 0.170398 -0.043699 0.600085 0.796472 -0.074221 0 133 255
-0.067493 0.128392 -0.008635 -0.075594 0.129002 -0.988739 188 255 0
-0.080391 0.129634 -0.004698 -0.560717 0.032411 -0.827357 89 255 0
-0.067968 0.142877 -0.007576 0.230781 -0.086276 -0.969146 180 255 0
0.005975 0.130858 0.005795 0.102542 0.983001 -0.152135 94 255 0
-0.068855 0.122052 0.051757 0.504959 -0.131413 0.853053 0 255 167
-0.070652 0.130630 0.050250 0.429060 0.468703 0.772118 22 255 0
-0.077978 0.132550 0.051349 -0.104678 0.360179 0.926969 0 255 61
-0.078061 0.120653 0.051400 -0.256630 -0.297586 0.919523 0 255 65
-0.066613 0.133021 0.044704 0.583087 0.330271 0.742210 157 255 0
-0.079789 0.143760 0.042699 -0.241493 0.663503 0.708090 6 255 0
-0.068301 0.144828 0.041369 0.288949 0.535295 0.793664 32 255 0
-0.084426 0.079771 0.018633 -0.890164 -0.416730 0.184118 105 255 0
-0.005931 0.130215 0.005954 -0.130467 0.982757 -0.130772 124 255 0
-0.014219 0.174013 -0.025981 -0.488968 -0.360698 -0.794214 0 255 136
-0.009671 0.173225 -0.026494 0.719565 -0.308176 -0.622272 0 244 255
-0.010666 0.167541 -0.019901 0.509629 -0.802606 0.309946 0 168 255
0.005698 0.105890 0.043551 0.111759 0.496292 0.860897 233 255 0
0.006786 0.115841 0.038808 0.138981 0.503098 0.852962 153 254 0
-0.005982 0.115409 0.040203 -0.031831 0.491104 0.870479 114 255 0
0.014788 0.090975 0.050966 0.339061 0.339824 0.877224 135 255 0
0.018544 0.094811 0.047759 0.335337 0.405225 0.850459 155 255 0
-0.017357 0.127613 0.005269 -0.177770 0.970733 -0.161351 155 255 0
-0.047309 0.145156 0.006885 0.982513 -0.172735 0.069247 93 255 0
-0.049353 0.139298 0.014795 0.933836 0.347972 0.082675 238 255 0
-0.091145 0.118816 0.029844 -0.939482 -0.296518 0.171545 101 255 0
-0.090486 0.118611 0.041215 -0.849574 -0.385418 0.360027 0 255 44
-0.091206 0.131415 0.029531 -0.991668 0.091128 0.090823 168 255 0
0.005179 0.093174 0.053587 0.197882 0.415693 0.887692 64 255 0
-0.088852 0.090972 0.017903 -0.963622 -0.156774 0.216376 28 255 0
-0.017513 0.162126 -0.014549 -0.366527 -0.377148 -0.850520 0 0 255
-0.017841 0.170484 -0.018114 -0.366527 -0.377148 -0.850520 255 150 0
-0.010666 0.167541 -0.019901 -0.366527 -0.377148 -0.850520 0 168 255
0.029727 0.042550 0.030498 0.471053 -0.675741 0.566973 191 255 0
0.043267 0.045829 0.027825 0.417188 -0.627033 0.657826 36 255 0
0.033664 0.054054 0.035084 0.550249 -0.286660 0.784234 209 255 0
-0.055677 0.093521 0.044207 -0.030671 0.094180 0.995056 110 255 0
-0.068686 0.092370 0.042198 -0.339122 0.024445 0.940397 104 255 0
-0.068308 0.080332 0.040711 -0.413862 -0.323466 0.850917 58 255 0
-0.067874 0.106952 0.040372 -0.260964 -0.153813 0.953001 255 164 0
-0.055496 0.103898 0.041141 0.038453 0.361827 0.931425 204 255 0
0.006398 0.043701 0.046826 0.208533 -0.473617 0.855647 137 255 0
0.003768 0.047755 0.050204 0.175268 -0.470351 0.864864 137 254 0
-0.006597 0.042728 0.046939 0.062990 -0.255257 0.964812 201 255 0
0.005294 0.055680 0.053288 0.215979 -0.308237 0.926450 99 255 0
-0.055894 0.079259 0.043534 -0.101962 -0.254646 0.961638 72 255 0
-0.005974 0.105897 0.044067 -0.066042 0.501602 0.862545 253 255 0
0.007087 0.067322 0.055337 0.240303 -0.120396 0.963195 127 255 0
0.007065 0.081192 0.055819 0.232887 0.083926 0.968841 115 255 0
-0.006072 0.067710 0.056450 -0.085971 -0.173009 0.981140 109 255 0
-0.031222 0.126304 0.005149 0.129093 0.977630 -0.165990 223 255 0
0.005960 0.122504 0.034627 0.128025 0.655629 0.744102 85 255 0
-0.005626 0.056504 0.053882 -0.135105 -0.319163 0.937986 99 255 0
-0.042538 0.155441 -0.007494 -0.075289 -0.653218 -0.753410 0 255 54
-0.037956 0.161954 -0.012802 -0.378979 -0.355205 -0.854488 0 255 79
-0.029483 0.158293 -0.006193 0.433210 -0.827448 0.357250 0 255 135
-0.088258 0.089869 0.006966 -0.961852 -0.165471 -0.217811 56 255 0
0.038180 0.105121 0.026695 0.822840 0.396954 0.406568 85 255 0
0.040087 0.105210 0.017342 0.899503 0.427869 0.088198 109 255 0
0.037043 0.110443 0.020723 0.796930 0.590106 0.128849 91 255 0
-0.078703 0.144274 -0.003891 -0.725852 0.067690 -0.684469 85 255 0
-0.017614 0.038606 -0.005845 0.017182 -0.999756 0.011933 231 255 0
-0.029913 0.038391 -0.005827 -0.077273 -0.937254 -0.339885 255 198 0
-0.017781 0.038255 -0.015450 -0.062960 -0.938444 0.339579 233 255 0
0.018870 0.119862 0.032409 0.366955 0.666280 0.649129 81 255 0
-0.042712 0.042165 0.042700 -0.184515 0.158116 0.970000 117 255 0
-0.056637 0.047018 0.030581 -0.448225 0.582232 0.678274 141 255 0
-0.057276 0.043243 0.042862 -0.255806 0.578814 0.774255 0 255 211
-0.043198 0.055578 0.039084 -0.353557 0.024873 0.935057 145 255 0
-0.053091 0.056740 0.029396 -0.820551 -0.292032 0.491287 255 221 0
0.017521 0.055211 -0.027276 0.412397 -0.219855 -0.884060 44 255 0
0.017565 0.067934 -0.028939 0.469863 -0.059877 -0.880673 145 255 0
0.031738 0.067998 -0.018353 0.682211 -0.093204 -0.725150 143 255 0
-0.043677 0.078916 0.042886 -0.025544 -0.140904 0.989685 178 255 0
-0.054531 0.071460 0.039704 -0.197424 -0.505936 0.839656 150 255 0
-0.043192 0.092115 0.043269 -0.006470 0.088229 0.996063 202 255 0
-0.044164 0.104918 0.040171 0.027131 0.389966 0.920408 178 255 0
-0.056185 0.111277 0.037371 -0.006226 0.382122 0.924070 255 175 0
-0.043459 0.117191 0.031704 0.212745 0.569750 0.793786 243 255 0
-0.053940 0.118566 0.035373 0.497665 0.255013 0.829005 255 189 0
0.042771 0.056035 0.031559 0.385418 -0.047365 0.921506 151 255 0
-0.043104 0.067439 0.040774 -0.174841 -0.207526 0.962462 202 255 0
-0.040984 0.110496 0.037088 0.080233 0.477798 0.874783 183 255 0
-0.031470 0.157066 0.000976 0.764092 -0.014679 0.644887 0 255 100
-0.044010 0.167035 0.002319 -0.039705 0.669393 0.741813 0 255 42
-0.036487 0.171225 0.000545 0.476577 0.471938 0.741691 0 255 111
-0.043642 0.169438 -0.005502 -0.625477 0.680898 -0.380902 0 213 255
-0.029624 0.054319 0.039895 -0.316630 0.227454 0.920835 255 0 0
-0.033181 0.045074 0.045115 -0.535112 0.284402 0.795434 149 255 0
-0.031292 0.079830 0.043494 -0.398053 -0.155461 0.904050 255 228 0
-0.029307 0.068073 0.041016 -0.330546 -0.180120 0.926420 255 125 0
-0.029863 0.094012 0.044480 -0.305429 0.266762 0.914060 226 255 0
-0.030180 0.106322 0.039974 -0.106601 0.467818 0.877346 204 255 0
-0.006000 0.079455 0.057801 -0.009827 0.055574 0.998383 104 255 0
-0.005981 0.094031 0.054264 -0.048067 0.462600 0.885250 78 255 0
0.040463 0.105142 0.006410 0.892697 0.444380 -0.074648 112 255 0
0.038734 0.102161 -0.004631 0.807550 0.349498 -0.475051 83 255 0
0.037011 0.110397 0.002653 0.793786 0.584002 -0.169683 110 255 0
-0.032006 0.110468 0.037044 0.030915 0.625965 0.779199 190 255 0
-0.031675 0.170395 -0.006350 0.413953 0.267891 0.869961 255 166 0
0.018854 0.106293 0.041690 0.250984 0.458663 0.852412 131 255 0
-0.029280 0.041775 0.051397 -0.532762 0.106265 0.839534 0 255 195
-0.044677 0.131204 0.005705 0.646260 0.723075 -0.243843 255 245 0
-0.050152 0.140326 0.002588 0.730979 -0.054445 -0.680197 155 255 0
0.041907 0.091639 -0.005569 0.891476 0.200690 -0.406110 94 255 0
0.035808 0.095859 -0.012033 0.726859 0.257363 -0.636677 130 255 0
0.033271 0.108498 -0.007432 0.704550 0.335765 -0.625141 55 255 0
-0.057447 0.152576 0.028451 0.671255 0.582354 0.458480 0 255 37
-0.054004 0.055543 0.017767 -0.913236 -0.374798 0.159703 255 0 0
-0.057350 0.043155 0.020023 -0.842067 0.533677 0.077822 255 84 0
-0.021412 0.054698 0.044641 -0.502701 0.078433 0.860866 255 126 0
-0.017732 0.042386 0.051684 0.355052 0.266518 0.896023 16 255 0
-0.018288 0.108329 0.041510 -0.192267 0.451888 0.871090 206 255 0
-0.019128 0.098595 0.045668 -0.257332 0.561113 0.786676 209 255 0
0.020596 0.087113 0.049233 0.478988 0.176641 0.859828 122 255 0
0.017942 0.079275 0.051886 0.452345 0.019623 0.891598 117 255 0
0.017210 0.127663 0.005126 0.421522 0.894162 -0.150853 94 255 0
-0.017319 0.043794 0.043270 0.304239 0.427137 0.851436 174 255 0
-0.067218 0.156155 0.017886 0.018555 0.998535 0.050325 94 255 0
-0.079569 0.152875 0.029931 -0.322794 0.882595 0.341716 31 255 0
-0.066633 0.153831 0.030870 0.137242 0.861751 0.488357 7 255 0
-0.088322 0.105757 0.017298 0.297220 0.954100 0.036500 103 255 0
-0.085423 0.105386 0.003395 0.297220 0.954100 0.036500 157 255 0
-0.088229 0.106066 0.008468 0.297220 0.954100 0.036500 146 255 0
-0.017513 0.162126 -0.014549 0.793695 -0.476272 -0.378399 0 0 255
-0.020614 0.159773 -0.007175 0.596728 -0.543901 0.589953 0 150 255
0.056738 0.054222 0.005125 0.912473 -0.257393 -0.317942 0 255 35
0.055420 0.068638 0.005897 0.705985 0.617450 -0.346812 43 255 0
0.057475 0.068222 0.017143 0.872219 0.452589 0.185308 0 255 78
0.058159 0.055002 0.018025 0.953246 -0.243660 0.178655 0 255 29
-0.014317 0.116971 0.037836 -0.270547 0.570421 0.775475 87 255 0
-0.055659 0.043287 -0.007588 -0.519242 0.282723 -0.806482 150 255 0
-0.055548 0.033682 -0.006190 -0.260598 -0.820856 -0.508133 0 255 55
-0.016149 0.057436 0.050904 -0.489273 -0.289773 0.822565 173 255 0
-0.029558 0.161783 -0.014337 -0.098972 -0.623829 -0.775262 105 255 0
-0.016920 0.068217 0.053150 -0.508530 -0.251686 0.823420 91 255 0
-0.018575 0.078970 0.055735 -0.423017 -0.053041 0.904538 2 255 0
-0.017288 0.092177 0.053621 -0.271523 0.446028 0.852809 59 255 0
0.005179 0.093174 0.053587 -0.246101 -0.594256 -0.765679 64 255 0
0.005698 0.105890 0.043551 -0.246101 -0.594256 -0.765679 233 255 0
0.007496 0.098350 0.048825 -0.246101 -0.594256 -0.765679 75 255 0
-0.042280 0.069994 -0.016146 -0.275979 -0.381237 -0.882290 243 255 0
-0.041251 0.079138 -0.019775 -0.199347 -0.281869 -0.938505 255 215 0
-0.032806 0.066464 -0.019522 -0.682485 -0.230323 -0.693625 255 128 0
0.025745 0.045914 0.038119 0.628285 -0.442152 0.640065 154 254 0
0.018422 0.042318 0.042477 0.490646 -0.441694 0.751091 22 255 0
-0.053091 0.056740 0.029396 -0.935514 0.348338 0.058382 255 221 0
-0.056637 0.047018 0.030581 -0.935514 0.348338 0.058382 141 255 0
-0.057276 0.043243 0.042862 -0.935514 0.348338 0.058382 0 255 211
0.053892 0.055755 0.026624 0.680288 -0.196753 0.706015 0 255 94
0.053458 0.065637 0.026434 0.569384 0.454604 0.684896 29 255 0
0.042372 0.067256 0.029580 0.659383 0.146916 0.737297 229 255 0
0.041823 0.067520 -0.005516 0.738090 0.129429 -0.662130 235 255 0
0.042272 0.079555 -0.005795 0.893918 -0.016205 -0.447859 157 255 0
0.047541 0.071217 0.005426 0.718345 0.467727 -0.514969 212 255 0
0.018642 0.053604 0.046215 0.465651 -0.281777 0.838893 171 255 0
0.030675 0.044512 -0.006180 0.460982 -0.638630 -0.616108 224 255 0
0.029824 0.035914 0.004890 0.277383 -0.936979 -0.212287 59 255 0
0.017479 0.035213 -0.005929 0.267861 -0.942930 -0.197699 44 255 0
-0.041678 0.042028 -0.009997 -0.664998 0.625660 -0.407788 255 0 0
-0.055028 0.056656 -0.005314 -0.674154 -0.372997 -0.637471 238 255 0
-0.023332 0.181239 -0.011289 0.584887 0.639668 0.498672 0 197 255
-0.029404 0.179030 -0.007880 -0.233039 0.727561 0.645192 0 124 255
0.014578 0.058577 0.050169 0.449477 -0.251411 0.857173 148 255 0
0.044705 0.092788 0.005076 0.969115 0.210273 -0.128758 115 255 0
0.043692 0.041197 0.017720 0.445967 -0.874020 0.192785 87 255 0
0.051287 0.046396 0.005805 0.666585 -0.694662 -0.270241 24 255 0
0.053250 0.047590 0.018190 0.703238 -0.679403 0.209326 15 255 0
-0.043446 0.156050 0.006158 0.658986 0.016114 0.751946 26 255 0
-0.066904 0.115717 0.047348 -0.185827 -0.599200 0.778710 0 255 6
-0.068855 0.122052 0.051757 -0.185827 -0.599200 0.778710 0 255 167
-0.067874 0.106952 0.040372 -0.185827 -0.599200 0.778710 255 164 0
-0.066904 0.115717 0.047348 0.806299 -0.176916 0.564379 0 255 6
0.029878 0.067994 0.041917 0.595630 -0.133091 0.792108 164 255 0
0.021052 0.068116 0.048435 0.551317 -0.162420 0.818323 168 255 0
0.045938 0.079631 0.005796 0.948332 0.219398 -0.229133 255 240 0
-0.017841 0.170484 -0.018114 0.690756 0.315470 0.650624 255 150 0
-0.019880 0.166404 -0.011270 0.721976 0.405438 0.560656 114 255 0
-0.059436 0.119905 0.039976 0.622089 -0.060610 0.780572 255 166 0
-0.067874 0.106952 0.040372 0.579699 -0.355205 0.733299 255 164 0
0.028623 0.056876 0.040764 0.584735 -0.231697 0.777398 179 255 0
-0.059511 0.128352 0.039963 0.680227 0.161931 0.714866 175 255 0
0.036725 0.091818 0.036625 0.757775 0.202124 0.620380 97 255 0
0.033051 0.107034 0.031954 0.681753 0.467971 0.562304 96 255 0
0.030014 0.093279 0.042148 0.568651 0.249763 0.783715 112 255 0
-0.056185 0.111277 0.037371 0.434431 -0.106326 0.894375 255 175 0
-0.020233 0.181846 -0.018327 0.564379 0.702292 -0.433821 0 255 64
0.052037 0.055073 -0.002482 0.642872 -0.187353 -0.742668 0 255 49
0.041463 0.045630 -0.003545 0.374065 -0.576617 -0.726310 75 255 0
0.042805 0.055329 -0.006047 0.428785 -0.179876 -0.885281 111 255 0
0.027238 0.103156 0.039706 0.493423 0.372600 0.785913 119 255 0
0.025003 0.110611 0.036846 0.461592 0.546587 0.698660 108 255 0
-0.056947 0.034942 0.042372 -0.149266 -0.675863 0.721702 0 255 155
-0.056830 0.146392 -0.002643 0.113681 0.265694 -0.957305 203 255 0
-0.046987 0.147434 -0.002225 0.551805 -0.512833 -0.657613 49 255 0
0.030684 0.079546 0.043151 0.631001 -0.021638 0.775475 146 255 0
0.037189 0.079248 0.036794 0.763207 -0.012452 0.646016 122 255 0
0.044262 0.093453 0.017642 0.960479 0.226997 0.161016 127 255 0
0.046032 0.079369 0.017769 0.904324 0.337352 0.261483 245 255 0
0.015029 0.067736 0.052067 0.439528 -0.143986 0.886593 136 255 0
-0.010726 0.179662 -0.027747 0.599506 0.459975 -0.654958 0 0 255
-0.026186 0.056884 -0.028269 -0.692373 -0.161992 -0.703085 107 255 0
-0.029902 0.042603 -0.028318 -0.293771 0.231086 -0.927488 66 255 0
-0.030739 0.056331 -0.018517 -0.879879 -0.114719 -0.461104 255 165 0
-0.041802 0.105934 -0.019869 -0.096927 0.313211 -0.944700 141 255 0
-0.090925 0.146050 0.019038 -0.896481 0.442701 -0.016541 17 255 0
-0.017841 0.170484 -0.018114 0.269753 0.074770 0.959990 255 150 0
-0.020233 0.181846 -0.018327 -0.584460 0.655354 0.478408 0 255 64
-0.055925 0.157606 0.006565 -0.267006 0.946013 0.183660 148 255 0
0.036836 0.067850 0.036641 0.708548 -0.111545 0.696768 190 255 0
-0.070233 0.154262 -0.031240 0.343730 -0.273782 -0.898251 55 255 0
-0.061862 0.158417 -0.029303 0.647389 0.669027 -0.365032 246 255 0
-0.068497 0.148194 -0.028726 -0.048860 -0.861415 -0.505509 164 255 0
0.041937 0.079591 0.029591 0.887112 0.065798 0.456801 188 255 0
0.041234 0.092173 0.028560 0.900845 0.194678 0.388012 113 255 0
0.046369 0.071513 0.021675 0.671865 0.419630 0.610309 224 255 0
0.033271 0.108498 -0.007432 0.637257 0.556597 -0.532975 55 255 0
-0.056185 0.111277 0.037371 0.168737 0.211890 0.962615 255 175 0
-0.053940 0.118566 0.035373 0.168737 0.211890 0.962615 255 189 0
-0.067874 0.106952 0.040372 0.168737 0.211890 0.962615 255 164 0
-0.067711 0.092892 -0.016881 -0.484359 0.276803 -0.829890 117 255 0
-0.075666 0.091182 -0.013697 -0.589953 0.052156 -0.805719 47 255 0
-0.079547 0.104194 -0.006203 -0.696188 0.151830 -0.701559 162 255 0
0.019135 0.042782 -0.019210 0.548692 -0.585345 -0.596881 45 255 0
0.022619 0.040605 -0.007935 0.527879 -0.708090 -0.468947 227 255 0
-0.088322 0.105757 0.017298 -0.978942 0.032807 0.201331 103 255 0
-0.088229 0.106066 0.008468 -0.971343 0.023652 -0.236488 146 255 0
-0.014752 0.181897 -0.026278 -0.171239 0.826838 -0.535691 0 97 255
0.043554 0.041110 0.005799 0.452345 -0.861568 -0.230323 57 255 0
-0.091451 0.134136 0.017103 -0.995666 0.078829 -0.049226 120 255 0
-0.055451 0.132420 -0.004854 0.409925 0.343883 -0.844783 251 255 0
0.027314 0.117965 0.028619 0.588214 0.644307 0.488723 85 255 0
-0.037704 0.167987 -0.013039 -0.562273 0.272774 -0.780633 68 255 0
-0.028473 0.038149 0.004419 0.019318 -0.999390 -0.028199 169 255 0
-0.076377 0.157221 -0.016889 -0.992828 0.099033 0.066561 0 255 32
-0.076426 0.161707 -0.029752 -0.881222 -0.305338 -0.360790 0 247 255
-0.041316 0.090692 -0.022588 -0.215125 0.008026 -0.976531 255 254 0
-0.035514 0.081801 -0.022689 -0.543290 -0.110416 -0.832240 255 101 0
-0.068096 0.156721 -0.042617 0.656270 -0.559465 -0.506211 0 255 114
-0.061862 0.158417 -0.029303 0.717368 -0.245460 0.651967 246 255 0
-0.070233 0.154262 -0.031240 0.461348 -0.881100 -0.103763 55 255 0
-0.042903 0.056190 -0.011304 -0.311533 -0.111148 -0.943693 255 249 0
-0.034669 0.057124 -0.011495 -0.503739 -0.149327 -0.850826 255 0 0
-0.089332 0.142745 0.029033 -0.892178 0.382366 0.240333 80 255 0
-0.088526 0.137839 0.039396 -0.832148 0.415418 0.367321 54 255 0
-0.089330 0.128309 0.042802 -0.863155 0.070772 0.499893 24 255 0
0.026038 0.047590 -0.016579 0.639424 -0.489975 -0.592456 124 255 0
-0.085423 0.105386 0.003395 -0.863491 0.013306 -0.504135 157 255 0
-0.082422 0.095112 0.031088 -0.812922 -0.018586 0.582049 74 255 0
-0.080603 0.081447 0.030652 -0.787286 -0.328349 0.521836 71 255 0
-0.042802 0.035157 0.041687 -0.010041 -0.759545 0.650349 0 255 3
-0.041940 0.034370 0.029967 0.090304 -0.994263 0.057222 195 255 0
-0.090687 0.120305 0.006680 -0.897122 -0.054781 -0.438307 40 255 0
0.005820 0.106226 -0.020897 0.117618 0.507645 -0.853481 206 255 0
-0.005971 0.106138 -0.022228 0.039979 0.568987 -0.821345 218 255 0
-0.005887 0.116622 -0.016005 -0.021241 0.583422 -0.811853 139 255 0
-0.069595 0.146412 -0.018032 -0.227332 -0.915220 -0.332591 10 255 0
-0.062509 0.149934 -0.015032 0.938108 -0.321757 0.127903 0 255 170
-0.093147 0.119067 0.017995 -0.992584 -0.119205 -0.023621 36 255 0
0.016214 0.035847 -0.016213 0.490310 -0.780480 -0.387829 0 255 27
-0.081872 0.107166 0.031016 0.672292 -0.698752 -0.244331 255 95 0
-0.088322 0.105757 0.017298 0.672292 -0.698752 -0.244331 103 255 0
-0.085586 0.106840 0.021729 0.672292 -0.698752 -0.244331 135 255 0
-0.081872 0.107166 0.031016 -0.763878 -0.343944 0.546037 255 95 0
-0.088322 0.105757 0.017298 -0.927335 -0.362072 0.094546 103 255 0
-0.086915 0.094416 0.002931 -0.933287 0.046754 -0.355998 95 255 0
0.038146 0.088106 -0.013868 0.743675 0.220893 -0.630970 73 255 0
0.031684 0.078509 -0.019208 0.647603 -0.045808 -0.760582 132 255 0
-0.088229 0.106066 0.008468 -0.949889 -0.168279 -0.263375 146 255 0
-0.086992 0.113518 0.004104 -0.577136 -0.435438 0.690817 204 255 0
0.005243 0.039134 -0.021947 0.200262 -0.606433 -0.769463 29 255 0
0.019325 0.035832 0.031321 0.320078 -0.919645 0.227485 31 255 0
-0.061796 0.155741 -0.020792 0.950011 0.169958 -0.261849 0 255 55
-0.064082 0.159391 -0.016910 0.815149 0.564989 0.127598 0 255 56
0.029518 0.056056 -0.017587 0.734642 -0.265664 -0.624256 149 255 0
0.021812 0.051587 -0.023649 0.683981 -0.249702 -0.685385 0 255 14
-0.070233 0.154262 -0.031240 0.473067 0.706351 0.526505 55 255 0
0.037945 0.081717 -0.014155 0.759941 -0.223273 -0.610370 66 255 0
0.034113 0.054178 -0.009483 0.561083 -0.418317 -0.714255 247 255 0
0.005600 0.034660 -0.017932 -0.606708 -0.746605 -0.272805 0 255 104
-0.056637 0.047018 0.030581 -0.761956 0.646718 -0.033448 141 255 0
-0.017873 0.038317 0.005995 0.017518 -0.999542 -0.024110 238 255 0
-0.068870 0.157773 -0.006876 0.469588 0.800531 0.372326 71 255 0
-0.031548 0.034302 -0.028408 -0.029145 -0.700095 -0.713401 0 197 255
-0.041784 0.035760 -0.026411 -0.666005 -0.366619 -0.649586 0 79 255
-0.038391 0.041922 -0.026404 -0.384716 0.633290 -0.671468 0 255 148
-0.066442 0.159957 -0.053371 -0.161657 -0.968627 -0.188665 0 196 254
-0.062004 0.167422 -0.052717 0.998505 0.031007 -0.044313 0 255 173
-0.068261 0.170398 -0.043699 0.834071 0.127049 0.536790 0 133 255
-0.068096 0.156721 -0.042617 0.986938 0.024476 0.159154 0 255 114
-0.066442 0.159957 -0.053371 0.986938 0.024476 0.159154 0 196 254
-0.068261 0.170398 -0.043699 0.986938 0.024476 0.159154 0 133 255
-0.065699 0.171007 -0.056644 -0.113987 0.628101 -0.769707 0 0 255
-0.067397 0.155256 0.005814 0.073397 0.977966 -0.195349 238 255 0
-0.076171 0.155559 -0.005927 -0.694418 0.715842 0.072756 6 255 0
-0.078994 0.153984 0.006519 -0.529954 0.829798 -0.174749 64 255 0
-0.070233 0.154262 -0.031240 -0.737907 -0.569384 0.362255 55 255 0
-0.070543 0.149897 -0.038732 0.775780 -0.558611 0.293344 255 129 0
-0.068096 0.156721 -0.042617 0.954253 -0.273812 0.120029 0 255 114
-0.081736 0.154390 0.017733 -0.459243 0.888241 -0.010071 29 255 0
-0.044096 0.127453 -0.003279 0.253548 0.834468 -0.489212 174 254 0
-0.030588 0.122384 -0.006358 0.090152 0.869106 -0.486282 163 254 0
-0.076398 0.171291 -0.041102 0.160131 0.972808 0.167302 0 255 203
-0.043642 0.169438 -0.005502 -0.528428 0.829341 0.181341 0 213 255
-0.068261 0.170398 -0.043699 0.583697 0.575549 0.572710 0 133 255
-0.076053 0.177651 -0.047146 -0.618732 0.722404 0.308603 0 7 255
-0.076398 0.171291 -0.041102 -0.526353 -0.312815 0.790613 0 255 203
0.030419 0.118572 0.018807 0.694266 0.707907 0.129704 101 255 0
-0.018401 0.122219 -0.007751 -0.145329 0.843379 -0.517258 163 255 0
0.030417 0.118495 0.005738 0.684408 0.719718 -0.116489 107 255 0
-0.071968 0.177848 -0.047460 0.283731 0.792505 0.539811 0 255 234
-0.069226 0.178922 -0.054274 0.276955 0.789483 -0.547685 0 0 255
-0.065699 0.171007 -0.056644 0.551042 -0.422620 -0.719504 0 0 255
-0.064427 0.041459 0.030448 -0.862270 0.483627 -0.150273 0 255 115
-0.064284 0.039642 0.039624 -0.789483 0.315012 0.526719 0 216 255
0.028574 0.116909 -0.003918 0.621082 0.653279 -0.432936 82 255 0
-0.025481 0.079870 0.051055 -0.592212 -0.493698 0.636769 104 255 0
-0.025420 0.088662 0.050383 -0.590442 0.184790 0.785607 87 255 0
-0.076027 0.175704 -0.050694 -0.845546 -0.013337 -0.533708 0 141 255
-0.023383 0.065642 0.045098 -0.671407 -0.209754 0.710746 255 221 0
-0.056116 0.065433 0.034198 -0.399853 -0.514695 0.758385 220 255 0
-0.048809 0.066013 0.037396 -0.406507 0.760216 0.506729 160 255 0
0.018975 0.121506 -0.006946 0.431715 0.708884 -0.557726 93 255 0
-0.066406 0.034365 -0.004167 -0.628986 -0.556078 -0.543260 0 175 255
-0.065679 0.040833 -0.004018 -0.672231 0.454573 -0.584307 0 255 214
-0.048004 0.056366 0.036266 -0.472671 -0.678396 0.562426 210 255 0
-0.076270 0.091224 0.038342 -0.602130 0.144993 0.785089 58 255 0
-0.084852 0.134078 0.047018 -0.614765 0.290750 0.733116 0 255 10
-0.083306 0.115643 0.046828 -0.461409 -0.539964 0.703909 0 255 32
-0.032229 0.044659 -0.016750 -0.293527 0.345927 -0.891140 255 106 0
-0.065054 0.035326 0.016224 -0.814905 -0.480605 0.323893 0 255 158
-0.067953 0.041859 0.006684 -0.871273 0.480972 0.097507 0 248 255
-0.067600 0.034030 0.005905 -0.719291 -0.691855 0.062868 0 255 161
-0.064768 0.035079 0.029448 -0.801202 -0.584368 -0.128605 0 255 217
-0.064320 0.035226 0.038791 -0.683462 -0.612171 0.397595 0 214 255
-0.063463 0.041432 0.014205 -0.661550 0.587207 0.466384 25 255 0
-0.029852 0.170905 -0.016561 -0.418806 0.081118 -0.904416 0 255 7
-0.084827 0.148987 0.032770 -0.690542 0.675771 0.257729 23 255 0
-0.059413 0.047138 0.006285 -0.763695 0.576678 0.290078 255 219 0
-0.052819 0.162649 0.002967 -0.632313 0.700583 0.330576 0 255 55
-0.029393 0.178536 -0.014556 -0.759423 0.525285 -0.383801 0 255 74
-0.017909 0.038590 0.029617 0.050417 -0.982086 0.181402 255 227 0
-0.017319 0.043794 0.043270 -0.040895 -0.956145 0.289987 174 255 0
-0.030973 0.079470 -0.031248 -0.765099 0.285012 -0.577349 41 255 0
-0.056628 0.054703 0.007446 -0.951811 -0.306558 0.007019 255 0 0
-0.068261 0.170398 -0.043699 -0.131657 -0.988617 -0.072542 0 133 255
-0.068261 0.170398 -0.043699 -0.980987 0.008545 -0.193732 0 133 255
-0.017789 0.115911 -0.015784 -0.077364 0.643391 -0.761589 168 255 0
-0.017795 0.106289 -0.021777 -0.043886 0.578875 -0.814203 195 255 0
-0.029399 0.115917 -0.014706 -0.001068 0.675954 -0.736930 157 255 0
-0.035514 0.081801 -0.022689 -0.679952 -0.261483 -0.684988 255 101 0
-0.068096 0.156721 -0.042617 -0.874874 -0.266640 -0.404279 0 255 114
-0.076398 0.171291 -0.041102 -0.839778 -0.446364 -0.308969 0 255 203
-0.068261 0.170398 -0.043699 -0.310923 -0.078677 -0.947142 0 133 255
-0.005791 0.128077 -0.002851 -0.100436 0.914151 -0.392712 104 255 0
0.006266 0.128047 -0.003171 0.103244 0.902524 -0.418073 87 255 0
-0.007625 0.123273 -0.009816 -0.094516 0.770012 -0.630940 121 255 0
-0.069870 0.168536 -0.031332 -0.548051 -0.558977 -0.622181 0 33 255
-0.000386 0.035146 0.013417 -0.312723 -0.949187 0.034394 128 255 0
0.005360 0.034596 0.017987 -0.213019 -0.958495 0.189367 83 255 0
-0.005898 0.038178 0.017706 -0.148381 -0.985321 0.084140 240 255 0
-0.070233 0.154262 -0.031240 -0.812922 -0.533219 -0.234077 55 255 0
-0.076398 0.171291 -0.041102 -0.172460 0.415571 -0.893033 0 255 203
0.007026 0.097842 -0.024605 -0.783563 -0.342082 0.518601 57 255 0
0.005820 0.106226 -0.020897 -0.783563 -0.342082 0.518601 206 255 0
0.005310 0.093313 -0.030185 -0.783563 -0.342082 0.518601 103 255 0
-0.029079 0.067426 -0.029052 -0.796075 -0.234901 -0.557695 190 255 0
-0.030973 0.079470 -0.031248 -0.781304 -0.231361 -0.579638 41 255 0
-0.030973 0.079470 -0.031248 -0.558061 0.676595 -0.480331 41 255 0
-0.041251 0.079138 -0.019775 -0.558061 0.676595 -0.480331 255 215 0
-0.035514 0.081801 -0.022689 -0.558061 0.676595 -0.480331 255 101 0
0.007534 0.035560 -0.006501 -0.319681 -0.942869 -0.093539 232 255 0
0.001035 0.037592 0.000952 -0.335124 -0.917905 -0.212317 255 250 0
0.004304 0.038402 -0.007175 -0.373424 -0.919370 -0.123661 255 134 0
-0.042962 0.043024 -0.017629 -0.105014 0.161931 0.981170 34 255 0
-0.032229 0.044659 -0.016750 -0.105014 0.161931 0.981170 255 106 0
-0.030739 0.056331 -0.018517 -0.105014 0.161931 0.981170 255 165 0
-0.079352 0.079856 -0.006406 -0.763726 -0.342814 -0.546922 65 255 0
-0.082427 0.092813 -0.005560 -0.835292 -0.011567 -0.549638 105 255 0
-0.068141 0.080123 -0.016428 -0.444594 -0.291971 -0.846797 35 255 0
-0.073582 0.077703 -0.012202 -0.655293 0.202643 -0.727653 49 255 0
-0.079352 0.079856 -0.006406 -0.655293 0.202643 -0.727653 65 255 0
-0.068141 0.080123 -0.016428 -0.655293 0.202643 -0.727653 35 255 0
-0.043642 0.169438 -0.005502 0.077120 -0.996368 -0.035981 0 213 255
-0.029852 0.170905 -0.016561 0.077120 -0.996368 -0.035981 0 255 7
-0.031675 0.170395 -0.006350 0.077120 -0.996368 -0.035981 255 166 0
0.015162 0.126104 -0.002664 0.359630 0.844234 -0.397351 82 255 0
0.005327 0.123661 -0.009971 0.086428 0.770837 -0.631092 86 255 0
-0.017761 0.034332 -0.025914 0.084140 -0.828364 -0.553789 0 213 255
0.016118 0.115630 -0.014545 0.463973 0.501572 -0.730155 98 255 0
0.007325 0.118243 -0.015301 0.118656 0.590075 -0.798547 71 255 0
0.020267 0.092861 -0.023736 0.432997 0.387646 -0.813746 173 255 0
0.016864 0.089935 -0.026910 0.410382 0.278848 -0.868221 145 255 0
0.017700 0.105983 -0.018614 0.343791 0.460311 -0.818445 205 255 0
-0.068763 0.068669 -0.006549 -0.516831 -0.672811 -0.529313 90 255 0
-0.077369 0.073257 -0.004098 -0.696799 -0.524308 -0.489395 61 255 0
-0.081131 0.117972 -0.003595 -0.630726 0.007721 -0.775933 161 255 0
-0.072374 0.110057 -0.009433 -0.469741 0.234596 -0.851039 191 255 0
-0.053255 0.157456 -0.002819 -0.692282 0.205237 -0.691794 64 255 0
-0.032229 0.044659 -0.016750 -0.681387 0.684622 -0.258736 255 106 0
-0.059413 0.047138 0.006285 -0.701315 0.638356 -0.317209 255 219 0
-0.073050 0.065420 0.005529 -0.587268 -0.789972 -0.176153 95 255 0
-0.067953 0.041859 0.006684 -0.176183 0.212348 -0.961150 0 248 255
-0.056628 0.054703 0.007446 -0.176183 0.212348 -0.961150 255 0 0
-0.059413 0.047138 0.006285 -0.176183 0.212348 -0.961150 255 219 0
0.005310 0.093313 -0.030185 0.245979 0.411206 -0.877712 103 255 0
-0.006321 0.093165 -0.032894 0.132267 0.498978 -0.856441 60 255 0
0.031014 0.093070 -0.017798 0.564745 0.281045 -0.775903 90 255 0
0.051487 0.063728 -0.001748 0.608936 0.336741 -0.718162 50 255 0
-0.014889 0.126068 -0.002521 -0.299173 0.885250 -0.356090 145 255 0
0.028578 0.105181 -0.014238 0.468795 0.525620 -0.709861 121 255 0
-0.027154 0.035161 0.050927 -0.337565 -0.665304 0.665883 0 255 207
-0.030783 0.034760 0.043296 -0.406415 -0.762993 0.502609 0 255 137
0.033271 0.108498 -0.007432 0.701346 0.323985 -0.634907 55 255 0
0.038734 0.102161 -0.004631 0.701346 0.323985 -0.634907 83 255 0
0.031014 0.093070 -0.017798 0.701346 0.323985 -0.634907 90 255 0
-0.014448 0.087927 -0.038030 0.156407 0.154332 -0.975524 23 255 0
-0.018412 0.094806 -0.030743 -0.194952 0.574389 -0.795007 74 255 0
-0.018412 0.094806 -0.030743 -0.919309 0.271645 -0.284646 74 255 0
-0.019333 0.097925 -0.024792 -0.919309 0.271645 -0.284646 255 247 0
-0.017795 0.106289 -0.021777 -0.919309 0.271645 -0.284646 195 255 0
-0.019304 0.081013 -0.038432 -0.114872 0.176336 -0.977569 16 255 0
-0.054945 0.106348 -0.018562 -0.198553 0.296213 -0.934233 139 255 0
-0.066462 0.104777 -0.014858 -0.421552 0.253395 -0.870632 173 254 0
-0.066435 0.117198 -0.009872 -0.289407 0.246498 -0.924894 229 255 0
-0.055219 0.117461 -0.013374 -0.286477 0.384655 -0.877468 169 255 0
-0.017841 0.170484 -0.018114 -0.695791 -0.478957 -0.535203 255 150 0
0.016192 0.080479 -0.029217 0.447768 0.105838 -0.887845 143 255 0
0.024914 0.082516 -0.024588 0.506974 0.049348 -0.860530 144 255 0
-0.017316 0.043267 -0.028291 -0.018769 -0.254128 -0.966979 130 254 0
-0.005189 0.043046 -0.027333 0.168798 -0.494400 -0.852657 142 255 0
-0.040957 0.117168 -0.014581 0.027009 0.570177 -0.821039 117 255 0
-0.055218 0.122506 -0.009465 0.040742 0.458296 -0.887845 183 255 0
-0.041252 0.123196 -0.009581 0.114689 0.745964 -0.655995 122 255 0
-0.024899 0.081500 -0.037108 -0.412336 0.449049 -0.792627 0 255 45
-0.056973 0.065163 -0.009582 -0.293222 -0.555925 -0.777764 186 255 0
-0.055586 0.072298 -0.016122 -0.138890 -0.519822 -0.842891 109 255 0
-0.054525 0.080848 -0.020171 -0.145116 -0.258614 -0.954985 76 255 0
-0.063788 0.071270 -0.013853 -0.368633 -0.572832 -0.732047 108 255 0
-0.055366 0.091983 -0.021178 -0.204566 0.050844 -0.977508 104 255 0
-0.067711 0.092892 -0.016881 -0.400220 0.194464 -0.895505 117 255 0
-0.075666 0.091182 -0.013697 -0.400220 0.194464 -0.895505 47 255 0
-0.066462 0.104777 -0.014858 -0.400220 0.194464 -0.895505 173 254 0
0.019135 0.042782 -0.019210 -0.274514 0.498123 0.822474 45 255 0
0.021812 0.051587 -0.023649 -0.274514 0.498123 0.822474 0 255 14
0.017521 0.055211 -0.027276 -0.274514 0.498123 0.822474 44 255 0
0.014325 0.047348 -0.025151 0.300180 -0.471297 -0.829279 114 255 0
0.021812 0.051587 -0.023649 0.409742 -0.440687 -0.798669 0 255 14
-0.020723 0.067279 -0.036553 -0.595141 -0.285745 -0.751061 0 255 26
0.006252 0.045962 -0.026378 0.205451 -0.462081 -0.862697 173 255 0
0.006041 0.055507 -0.030431 0.225929 -0.275277 -0.934416 163 255 0
0.005656 0.067624 -0.032920 0.267586 -0.141118 -0.953124 166 255 0
0.005686 0.079055 -0.033919 0.318033 0.087619 -0.943999 141 255 0
-0.067711 0.092892 -0.016881 -0.335978 0.054689 -0.940275 117 255 0
-0.026190 0.037759 0.017704 0.117893 -0.992676 0.025361 224 255 0
-0.006902 0.034640 -0.020217 0.105838 -0.990112 -0.091769 0 255 56
0.005600 0.034660 -0.017932 0.823634 -0.486648 0.291147 0 255 104
-0.006134 0.054637 -0.032635 0.085788 -0.303934 -0.948790 142 255 0
-0.006845 0.067974 -0.035941 0.158086 -0.209174 -0.964995 184 255 0
-0.003384 0.080451 -0.036723 0.252266 0.124607 -0.959593 116 255 0
-0.009537 0.079410 -0.037986 0.140751 0.093936 -0.985565 115 255 0
-0.019066 0.054669 -0.031865 -0.278024 -0.331248 -0.901608 72 255 0
-0.020723 0.067279 -0.036553 -0.250710 -0.309732 -0.917142 0 255 26
-0.017572 0.070547 -0.038226 -0.060518 -0.240608 -0.968719 14 255 0
-0.018062 0.035263 -0.019540 -0.012238 -0.927091 0.374615 0 255 0
-0.029079 0.067426 -0.029052 -0.631092 -0.341777 -0.696310 190 255 0
-0.020723 0.067279 -0.036553 -0.631092 -0.341777 -0.696310 0 255 26
-0.019066 0.054669 -0.031865 -0.631092 -0.341777 -0.696310 72 255 0
-0.024899 0.081500 -0.037108 -0.485672 -0.159764 -0.859401 0 255 45
-0.017841 0.170484 -0.018114 -0.132725 -0.238563 -0.962004 255 150 0
-0.019304 0.081013 -0.038432 -0.190283 -0.849757 -0.491592 16 255 0
-0.030973 0.079470 -0.031248 -0.190283 -0.849757 -0.491592 41 255 0
-0.024899 0.081500 -0.037108 -0.190283 -0.849757 -0.491592 0 255 45
0.001141 0.037661 0.022341 -0.281167 -0.912748 0.296335 226 254 0
-0.078418 0.110126 0.041789 -0.321268 -0.798547 0.508957 8 255 0
0.005833 0.035108 0.042091 0.148839 -0.646687 0.748070 0 255 50
0.015243 0.035612 0.041269 0.364208 -0.734275 0.572832 0 255 49
0.018922 0.035108 0.004998 0.056093 -0.998352 -0.010132 152 255 0
0.028662 0.035841 0.018750 0.227577 -0.962767 0.145756 114 255 0
0.019322 0.035181 0.019662 0.060091 -0.997406 0.039369 126 255 0
0.005501 0.038556 0.029661 -0.345134 -0.933348 0.098392 255 217 0
-0.005966 0.038895 0.029925 -0.026032 -0.990356 0.135990 255 57 0
-0.018341 0.035236 0.050794 0.548021 -0.607349 0.575121 0 255 204
-0.018083 0.034814 0.045877 0.282601 -0.853755 0.437239 0 255 109
0.019325 0.035832 0.031321 0.162633 0.242561 -0.956389 31 255 0
0.010025 0.035503 0.029656 -0.077090 -0.803674 -0.590014 117 255 0
-0.000947 0.035737 0.010347 -0.360149 -0.925321 -0.118442 150 255 0
-0.005847 0.038342 0.005908 -0.149052 -0.985137 -0.085208 251 255 0
-0.005939 0.038948 -0.005921 -0.014252 -0.999603 0.022980 255 153 0
0.005121 0.034840 0.005585 -0.216285 -0.967498 -0.130924 118 255 0
-0.017808 0.038196 0.017811 0.028016 -0.999481 0.015442 233 255 0
-0.006549 0.035037 0.045396 0.255470 -0.282723 0.924528 170 255 0
0.033412 0.037618 0.021008 0.308664 -0.888363 0.339885 110 255 0
-0.006020 0.038124 -0.014518 0.005097 -0.950743 0.309885 208 255 0
0.005243 0.039134 -0.021947 -0.286264 -0.354961 0.889950 29 255 0
-0.032229 0.044659 -0.016750 0.088473 -0.859493 0.503403 255 106 0
-0.006597 0.042728 0.046939 -0.167852 -0.963012 0.210700 201 255 0
-0.068497 0.148194 -0.028726 -0.964446 -0.208930 0.161626 164 255 0
-0.072989 0.065612 0.018169 -0.586657 -0.790429 0.176061 101 255 0
-0.077344 0.072723 0.026655 -0.674825 -0.597766 0.432691 85 255 0
-0.066051 0.061114 0.005855 -0.504898 -0.844508 -0.178411 102 255 0
-0.065540 0.060789 0.017571 -0.495041 -0.857753 0.138340 63 255 0
-0.068801 0.068573 0.030665 -0.503830 -0.675405 0.538438 99 255 0
-0.066904 0.115717 0.047348 -0.021912 -0.624348 0.780816 0 255 6
-0.055026 0.033620 0.005838 -0.028871 -0.999512 0.011780 255 237 0
-0.063538 0.071665 0.037946 -0.288064 -0.655965 0.697623 110 255 0
-0.056325 0.033676 0.017526 -0.189276 -0.981567 0.025178 0 255 17
-0.055430 0.034256 0.029795 -0.062288 -0.997436 0.034303 140 255 0
-0.043031 0.034139 -0.005660 0.311167 -0.923490 -0.224250 58 255 0
-0.042462 0.034314 0.005906 0.045320 -0.998962 0.003143 189 255 0
0.010025 0.035503 0.029656 0.038667 -0.999054 -0.018677 117 255 0
-0.031577 0.035849 -0.017967 -0.019715 -0.853145 0.521287 0 255 31
-0.041678 0.042028 -0.009997 0.587481 -0.793298 -0.159703 255 0 0
-0.031577 0.035849 -0.017967 0.358104 -0.461470 0.811640 0 255 31
-0.032229 0.044659 -0.016750 0.083834 0.142430 -0.986236 255 106 0
-0.031577 0.035849 -0.017967 0.083834 0.142430 -0.986236 0 255 31
-0.042721 0.034356 -0.019130 0.083834 0.142430 -0.986236 0 255 128
-0.035244 0.035057 0.017826 -0.084140 -0.990051 0.112644 207 255 0
-0.042462 0.034314 0.005906 -0.084140 -0.990051 0.112644 189 255 0
-0.034233 0.033759 0.007175 -0.084140 -0.990051 0.112644 168 255 0
3 0 1 2
3 3 4 5
3 6 7 8
3 9 10 11
3 12 13 14
3 12 15 1
3 16 13 17
3 18 19 20
3 21 22 23
3 24 25 26
3 1 20 27
3 28 12 14
3 16 14 13
3 29 30 31
3 32 33 34
3 35 16 22
3 36 37 38
3 39 40 3
3 41 42 43
3 44 28 35
3 45 46 47
3 48 45 47
3 47 49 50
3 49 51 50
3 37 52 38
3 53 12 28
3 22 16 17
3 54 55 56
3 57 58 59
3 1 0 12
3 60 61 57
3 62 15 12
3 63 32 64
3 65 66 67
3 68 60 57
3 52 69 38
3 70 71 72
3 73 74 75
3 76 77 78
3 76 79 77
3 76 80 79
3 81 82 83
3 81 84 82
3 85 76 78
3 62 12 53
3 86 57 59
3 87 88 89
3 62 90 15
3 58 91 17
3 82 84 92
3 83 82 92
3 93 94 95
3 69 96 38
3 13 0 2
3 97 98 99
3 42 100 43
3 101 102 103
3 91 58 104
3 12 0 13
3 105 106 107
3 108 109 106
3 110 111 112
3 113 85 114
3 113 115 76
3 85 113 76
3 116 80 76
3 115 116 76
3 116 117 80
3 116 118 119
3 117 116 119
3 74 120 75
3 105 108 106
3 44 53 28
3 114 121 113
3 116 122 118
3 93 95 123
3 124 125 126
3 127 108 105
3 128 127 105
3 127 121 108
3 129 113 121
3 130 129 121
3 129 131 115
3 113 129 115
3 131 116 115
3 131 132 116
3 116 2 122
3 122 2 118
3 133 88 134
3 130 121 127
3 135 136 137
3 138 2 116
3 132 138 116
3 125 139 126
3 35 28 16
3 28 14 16
3 88 133 89
3 59 58 17
3 140 58 57
3 132 2 138
3 141 127 128
3 142 143 63
3 144 145 146
3 33 147 34
3 109 148 149
3 150 127 141
3 151 150 141
3 152 132 131
3 153 152 131
3 13 2 132
3 152 13 132
3 154 60 155
3 35 21 156
3 151 157 150
3 158 159 160
3 161 162 163
3 22 17 91
3 44 35 156
3 95 164 165
3 166 167 168
3 169 166 168
3 21 35 22
3 170 13 152
3 61 140 57
3 84 87 89
3 171 6 172
3 92 84 89
3 157 173 150
3 174 164 95
3 151 83 157
3 83 92 173
3 157 83 173
3 92 89 175
3 173 92 175
3 89 133 176
3 175 89 176
3 134 177 176
3 133 134 176
3 86 59 152
3 59 170 152
3 17 13 170
3 59 17 170
3 178 179 180
3 181 182 183
3 184 185 73
3 88 68 134
3 186 187 188
3 189 190 191
3 120 189 191
3 192 193 194
3 81 185 195
3 196 197 198
3 199 171 200
3 201 202 139
3 195 203 84
3 144 136 204
3 205 206 207
3 63 208 32
3 155 60 88
3 209 210 211
3 49 46 45
3 169 189 207
3 49 45 212
3 213 214 195
3 144 204 215
3 216 139 217
3 142 63 64
3 218 212 219
3 218 49 212
3 184 75 220
3 218 221 49
3 139 125 124
3 222 223 224
3 225 218 219
3 18 49 221
3 34 51 49
3 18 34 49
3 226 201 139
3 227 228 229
3 225 119 218
3 140 230 231
3 105 107 232
3 226 202 201
3 216 217 165
3 218 119 221
3 119 18 221
3 233 234 143
3 220 195 185
3 154 61 60
3 195 84 81
3 216 226 139
3 206 166 169
3 224 61 154
3 207 206 169
3 223 104 231
3 224 154 155
3 224 230 140
3 235 224 155
3 236 222 235
3 119 19 18
3 204 237 238
3 193 144 215
3 222 224 235
3 239 155 88
3 204 136 135
3 224 223 230
3 165 139 95
3 87 239 88
3 118 19 119
3 240 56 55
3 241 242 243
3 84 203 239
3 10 244 11
3 220 213 195
3 245 30 29
3 135 98 237
3 168 190 189
3 169 168 189
3 246 56 247
3 208 248 32
3 249 236 213
3 250 251 252
3 73 75 184
3 253 254 222
3 236 253 222
3 239 87 84
3 238 253 255
3 222 254 223
3 253 236 249
3 215 204 238
3 136 256 137
3 74 189 120
3 203 195 239
3 257 258 259
3 191 249 75
3 254 97 223
3 191 253 249
3 120 191 75
3 56 240 247
3 239 214 155
3 260 261 262
3 263 264 198
3 236 235 213
3 223 231 230
3 265 266 96
3 217 139 165
3 247 240 267
3 255 253 191
3 140 104 58
3 193 215 194
3 268 197 228
3 60 68 88
3 269 245 29
3 231 104 140
3 184 220 185
3 270 143 142
3 235 155 214
3 139 124 208
3 165 164 216
3 195 214 239
3 249 213 220
3 75 249 220
3 224 140 61
3 271 104 223
3 95 208 123
3 95 139 208
3 227 166 206
3 228 227 206
3 94 272 174
3 213 235 214
3 79 80 117
3 101 273 102
3 69 265 96
3 208 234 93
3 274 4 275
3 276 277 182
3 278 279 280
3 39 3 279
3 281 181 282
3 50 283 284
3 39 279 278
3 66 285 67
3 286 196 264
3 96 266 287
3 288 52 289
3 25 290 291
3 269 29 292
3 293 294 295
3 43 296 297
3 298 269 292
3 20 142 64
3 299 263 198
3 300 301 302
3 303 65 304
3 305 96 287
3 31 100 42
3 306 144 193
3 112 192 229
3 192 307 193
3 287 308 309
3 310 263 299
3 298 65 269
3 144 146 136
3 65 67 269
3 311 73 185
3 204 135 237
3 67 283 269
3 312 313 297
3 314 315 110
3 192 112 307
3 296 312 297
3 269 283 245
3 278 40 39
3 316 313 312
3 308 304 292
3 252 251 296
3 304 298 292
3 307 317 193
3 317 306 193
3 251 316 312
3 251 312 296
3 314 112 318
3 310 299 319
3 309 308 292
3 320 109 149
3 321 273 101
3 5 4 274
3 314 318 196
3 93 123 208
3 313 322 43
3 297 313 43
3 323 324 325
3 286 314 196
3 112 229 318
3 237 254 253
3 238 237 253
3 237 98 254
3 98 97 254
3 32 34 18
3 326 327 328
3 263 286 264
3 329 330 331
3 327 332 328
3 8 172 6
3 326 332 327
3 20 64 32
3 333 334 335
3 33 160 147
3 51 34 160
3 248 33 32
3 5 322 313
3 168 191 190
3 168 255 191
3 336 337 338
3 168 238 255
3 194 168 167
3 339 245 159
3 159 245 283
3 215 238 168
3 194 215 168
3 147 160 34
3 142 90 340
3 20 90 142
3 33 158 160
3 15 90 20
3 340 90 341
3 20 32 18
3 40 342 3
3 15 20 1
3 5 313 316
3 3 5 316
3 202 343 139
3 335 339 158
3 344 345 346
3 27 19 118
3 322 5 274
3 51 159 50
3 160 159 51
3 99 347 223
3 348 90 62
3 98 347 99
3 20 19 27
3 335 30 339
3 30 245 339
3 135 349 98
3 349 347 98
3 350 344 351
3 347 271 223
3 2 27 118
3 1 27 2
3 137 349 135
3 350 345 344
3 351 344 352
3 256 349 137
3 335 158 333
3 158 339 159
3 353 320 149
3 333 158 33
3 21 271 347
3 21 104 271
3 57 134 68
3 333 33 248
3 322 334 333
3 156 21 347
3 349 156 347
3 350 351 345
3 21 23 104
3 354 107 353
3 156 349 355
3 23 91 104
3 86 153 134
3 134 153 177
3 23 22 91
3 223 97 99
3 356 357 129
3 345 351 358
3 234 208 63
3 150 175 359
3 360 121 361
3 355 362 156
3 94 93 126
3 171 363 364
3 177 131 357
3 322 274 334
3 150 173 175
3 129 176 356
3 356 176 177
3 126 272 94
3 127 150 130
3 150 359 130
3 49 47 46
3 365 121 360
3 109 365 360
3 77 366 78
3 367 47 50
3 368 48 66
3 175 176 129
3 48 285 66
3 177 153 131
3 109 108 365
3 78 366 289
3 357 131 129
3 282 243 369
3 48 47 367
3 285 48 367
3 356 177 357
3 369 281 282
3 370 371 372
3 354 353 373
3 52 288 69
3 374 354 373
3 359 175 129
3 94 174 95
3 86 134 57
3 367 50 284
3 375 371 370
3 366 77 288
3 272 376 174
3 377 159 283
3 130 359 129
3 375 378 371
3 365 108 121
3 288 77 303
3 208 379 248
3 375 149 378
3 380 226 376
3 381 382 24
3 50 377 283
3 9 383 277
3 233 270 43
3 149 375 370
3 149 384 378
3 367 284 285
3 289 366 288
3 379 208 124
3 149 148 384
3 352 358 351
3 385 346 352
3 352 346 358
3 358 346 345
3 326 386 332
3 387 388 389
3 182 390 183
3 391 392 393
3 394 395 396
3 391 397 392
3 398 399 400
3 401 275 391
3 391 275 397
3 275 4 402
3 397 275 402
3 380 202 226
3 403 404 405
3 6 324 7
3 6 325 324
3 243 183 406
3 241 243 406
3 183 390 407
3 406 183 407
3 408 409 410
3 394 396 348
3 296 274 401
3 401 274 275
3 285 284 283
3 411 412 413
3 369 6 281
3 67 285 283
3 276 244 10
3 9 276 10
3 295 294 387
3 414 415 416
3 417 418 261
3 419 417 261
3 418 262 261
3 420 421 422
3 43 100 274
3 296 43 274
3 100 334 274
3 423 424 425
3 343 202 376
3 426 362 427
3 395 426 427
3 272 126 376
3 428 323 242
3 277 276 9
3 362 429 430
3 427 362 430
3 431 432 433
3 3 316 279
3 434 435 417
3 436 437 262
3 438 126 93
3 439 243 242
3 440 171 364
3 440 384 171
3 384 200 171
3 441 36 435
3 434 441 435
3 36 38 417
3 435 36 417
3 38 96 418
3 417 38 418
3 96 305 418
3 305 287 418
3 287 262 418
3 287 436 262
3 287 292 436
3 292 29 436
3 29 42 436
3 29 31 42
3 31 30 100
3 30 335 100
3 335 334 100
3 248 379 438
3 379 124 126
3 438 379 126
3 353 107 320
3 442 443 444
3 181 183 243
3 282 181 243
3 287 309 292
3 69 288 303
3 270 233 143
3 294 445 446
3 447 306 307
3 448 167 227
3 371 440 364
3 449 394 348
3 294 293 445
3 362 433 429
3 145 144 447
3 450 256 447
3 451 141 452
3 256 450 433
3 453 454 455
3 242 325 6
3 156 362 426
3 395 427 396
3 256 362 355
3 433 450 447
3 44 156 395
3 146 145 447
3 333 43 322
3 90 348 341
3 333 233 43
3 362 256 433
3 233 333 248
3 446 456 457
3 438 233 248
3 458 459 460
3 456 461 457
3 348 396 387
3 462 463 464
3 465 462 464
3 389 388 11
3 466 54 56
3 432 447 467
3 429 433 430
3 430 433 293
3 53 395 394
3 348 387 389
3 341 348 389
3 447 468 467
3 62 449 348
3 469 470 428
3 294 388 387
3 396 295 387
3 323 325 242
3 426 395 156
3 144 306 447
3 465 471 472
3 396 427 295
3 439 242 6
3 340 473 472
3 270 340 472
3 471 244 465
3 244 462 465
3 53 394 449
3 457 9 11
3 448 229 192
3 62 53 449
3 340 270 142
3 473 471 472
3 388 457 11
3 376 202 380
3 167 166 227
3 349 256 355
3 53 44 395
3 447 431 433
3 3 402 4
3 171 172 363
3 427 430 295
3 433 432 445
3 293 433 445
3 294 446 388
3 448 192 194
3 167 448 194
3 227 229 448
3 26 25 291
3 446 457 388
3 341 473 340
3 473 341 471
3 341 389 471
3 11 244 471
3 389 11 471
3 474 9 457
3 475 476 181
3 228 196 229
3 196 318 229
3 182 477 276
3 438 93 234
3 478 476 475
3 434 478 475
3 478 419 476
3 434 475 200
3 479 462 244
3 437 436 464
3 181 477 182
3 432 431 447
3 447 307 468
3 228 206 268
3 198 264 196
3 263 315 314
3 286 263 314
3 467 307 112
3 111 467 112
3 307 467 468
3 199 281 6
3 480 481 482
3 434 419 478
3 42 41 464
3 463 262 437
3 363 371 364
3 483 484 485
3 263 486 487
3 487 486 110
3 233 438 234
3 436 42 464
3 306 317 307
3 472 465 464
3 488 241 406
3 310 489 486
3 263 310 486
3 486 489 110
3 489 490 110
3 490 491 111
3 110 490 111
3 492 467 111
3 491 492 111
3 492 445 467
3 445 432 467
3 475 181 281
3 200 475 281
3 260 262 463
3 463 437 464
3 261 493 419
3 41 43 270
3 152 153 86
3 321 494 273
3 200 281 199
3 181 476 477
3 41 270 472
3 495 470 310
3 496 495 310
3 470 489 310
3 489 470 490
3 470 497 490
3 497 498 491
3 490 497 491
3 498 499 492
3 491 498 492
3 446 445 492
3 499 446 492
3 430 293 295
3 464 41 472
3 79 303 77
3 498 500 499
3 500 446 499
3 463 462 479
3 493 463 479
3 303 265 69
3 461 456 446
3 500 461 446
3 267 240 55
3 54 267 55
3 469 501 497
3 470 469 497
3 497 501 498
3 501 502 498
3 502 503 498
3 503 461 500
3 498 503 500
3 419 479 477
3 477 479 276
3 419 493 479
3 372 371 363
3 419 477 476
3 452 290 25
3 247 267 54
3 466 247 54
3 276 479 244
3 495 504 428
3 199 6 171
3 373 353 149
3 417 419 434
3 373 149 370
3 428 242 469
3 241 501 469
3 241 488 501
3 505 506 507
3 508 461 503
3 502 508 503
3 376 509 164
3 509 376 226
3 457 461 474
3 268 206 205
3 164 174 376
3 242 241 469
3 110 112 314
3 407 508 502
3 406 407 502
3 510 511 512
3 383 9 474
3 151 141 451
3 513 400 399
3 303 79 514
3 185 81 515
3 516 185 515
3 517 518 519
3 513 520 400
3 520 521 400
3 522 151 451
3 197 518 517
3 26 494 24
3 522 451 523
3 197 517 198
3 524 525 520
3 304 65 298
3 198 411 299
3 377 50 159
3 526 398 400
3 527 321 528
3 198 529 411
3 518 311 519
3 413 527 528
3 518 73 311
3 311 525 399
3 523 451 452
3 311 185 516
3 399 520 513
3 381 24 530
3 519 311 399
3 531 83 151
3 205 73 532
3 151 522 523
3 413 528 533
3 319 411 534
3 303 514 65
3 65 514 66
3 534 413 533
3 205 532 518
3 143 234 63
3 533 101 103
3 228 197 196
3 527 530 321
3 66 514 368
3 74 73 205
3 103 102 535
3 299 411 319
3 495 496 533
3 521 536 382
3 504 495 103
3 337 537 336
3 452 128 105
3 441 538 36
3 36 538 37
3 37 539 52
3 52 539 289
3 521 530 400
3 514 48 368
3 441 540 538
3 540 541 538
3 517 529 198
3 434 540 441
3 542 289 539
3 538 539 37
3 529 526 527
3 538 542 539
3 543 514 79
3 514 543 48
3 74 207 189
3 83 531 515
3 411 529 412
3 200 384 434
3 434 384 540
3 528 321 101
3 311 516 515
3 542 78 289
3 530 494 321
3 495 533 103
3 525 520 399
3 541 542 538
3 452 105 290
3 384 148 540
3 540 148 541
3 544 372 363
3 172 544 363
3 542 545 78
3 207 74 205
3 544 370 372
3 109 541 148
3 109 542 541
3 546 370 544
3 532 73 518
3 109 360 542
3 413 412 527
3 252 296 401
3 428 470 495
3 7 172 8
3 105 232 290
3 360 114 542
3 542 114 545
3 545 114 78
3 547 373 370
3 546 547 370
3 529 399 398
3 114 85 78
3 526 529 398
3 548 172 7
3 527 526 400
3 549 544 172
3 548 549 172
3 83 515 81
3 452 141 128
3 311 515 550
3 534 411 413
3 323 7 324
3 547 374 373
3 528 101 533
3 530 24 494
3 232 374 547
3 268 518 197
3 521 382 381
3 531 151 523
3 551 7 323
3 374 232 354
3 552 548 7
3 553 552 7
3 232 107 354
3 554 555 556
3 535 552 553
3 552 102 548
3 543 45 48
3 361 114 360
3 121 114 361
3 102 552 535
3 205 518 268
3 496 534 533
3 291 232 547
3 291 290 232
3 400 530 527
3 412 529 527
3 504 551 323
3 428 504 323
3 103 535 551
3 504 103 551
3 521 381 530
3 557 558 559
