ply
format ascii 1.0
comment VCGLIB generated
element vertex 36
property float x
property float y
property float z
property uchar red
property uchar green
property uchar blue
property uchar alpha
element face 12
property list uchar int vertex_indices
end_header
1 -1 -1 107 118 178 255 
-1 1 -1 107 118 178 255 
1 1 -1 107 118 178 255 
-1 1 1 112 178 107 255 
0.999999 -1.000001 1 112 178 107 255 
1 0.999999 1 112 178 107 255 
1 0.999999 1 178 107 124 255 
1 -1 -1 178 107 124 255 
1 1 -1 178 107 124 255 
0.999999 -1.000001 1 178 175 107 255 
-1 -1 -1 178 175 107 255 
1 -1 -1 178 175 107 255 
-1 -1 -1 164 107 178 255 
-1 1 1 164 107 178 255 
-1 1 -1 164 107 178 255 
1 1 -1 107 178 169 255 
-1 1 1 107 178 169 255 
1 0.999999 1 107 178 169 255 
-1 -1 -1 178 141 107 255 
-1 -1 1 129 107 178 255 
1 0.999999 1 107 178 135 255 
0.999999 -1.000001 1 107 178 135 255 
1 -1 -1 107 178 135 255 
-1 -1 1 147 178 107 255 
-1 -1 1 178 107 158 255 
-1 1 -1 107 152 178 255 
1 -1 -1 178 141 107 255 
-1 1 -1 178 141 107 255 
-1 1 1 129 107 178 255 
0.999999 -1.000001 1 129 107 178 255 
0.999999 -1.000001 1 147 178 107 255 
-1 -1 -1 147 178 107 255 
-1 -1 -1 178 107 158 255 
-1 1 1 178 107 158 255 
1 1 -1 107 152 178 255 
-1 1 1 107 152 178 255 
3 0 1 2 
3 3 4 5 
3 6 7 8 
3 9 10 11 
3 12 13 14 
3 15 16 17 
3 26 18 27 
3 28 19 29 
3 20 21 22 
3 30 23 31 
3 32 24 33 
3 34 25 35 
