ply
format ascii 1.0
comment VCGLIB generated
comment TextureFile Textures//Combined_Texture//Texture_01_A.png
element vertex 369
property float x
property float y
property float z
property float nx
property float ny
property float nz
property uchar red
property uchar green
property uchar blue
property uchar alpha
property float texture_u
property float texture_v
element face 714
property list uchar int vertex_indices
end_header
-1.8498 -0.20455 -1.3871 0.1674119 -0.4830848 -0.8594198 255 255 255 255 0.459250 0.284505
-1.66645 0.31685 -1.4433 0.1662337 0.4408083 -0.8820739 255 255 255 255 0.459250 0.284505
-1.97235 0.36105 -1.26095 -0.1675814 0.6889742 -0.7051462 255 255 255 255 0.459250 0.284505
-2.96885 0.00545 -1.0457 -0.6914239 -0.09995548 -0.7155011 255 255 255 255 0.459250 0.284505
-2.71925 0.0357 -1.38625 -0.5031798 -0.08100171 -0.8603772 255 255 255 255 0.459250 0.284505
-1.97145 0.76355 -1.012 0.07989816 0.9066455 -0.4142586 255 255 255 255 0.459250 0.284505
-2.84565 0.5624 -0.87595 -0.5603977 0.4777974 -0.6765088 255 255 255 255 0.459250 0.284505
-1.4495 0.42945 -1.22145 0.4809048 0.6861439 -0.5458363 255 255 255 255 0.459250 0.284505
-2.9202 0.72595 -0.7157 -0.5731977 0.7804679 -0.2496282 255 255 255 255 0.459250 0.284505
-2.0518 -0.5027 -1.11985 0.00427884 -0.8390973 -0.5439646 255 255 255 255 0.459250 0.284505
-1.0519 -0.0228 -1.07425 0.7398555 -0.18078 -0.648022 255 255 255 255 0.459250 0.284505
-3.12655 0.4249 -0.44935 -0.6525486 0.7382488 -0.1707896 255 255 255 255 0.459250 0.284505
-3.44495 0.18235 -0.57585 -0.8659028 0.3293852 -0.3764542 255 255 255 255 0.459250 0.284505
-3.1925 -0.3279 -0.7361 -0.6398032 -0.6229656 -0.4500731 255 255 255 255 0.459250 0.284505
-2.36725 -0.5321 -0.73195 -0.3895185 -0.7815455 -0.4873008 255 255 255 255 0.459250 0.284505
-3.37755 -0.15455 -0.1988 -0.8829453 -0.4610422 -0.08858813 255 255 255 255 0.459250 0.284505
-1.22235 0.43925 -0.71155 0.4469711 0.7248998 -0.5241537 255 255 255 255 0.459250 0.284505
-2.4138 -0.7233 -0.48515 -0.1903579 -0.9448869 -0.2663696 255 255 255 255 0.459250 0.284505
-0.7096 0.47195 -0.24625 0.8416033 0.4966112 -0.212323 255 255 255 255 0.459250 0.284505
-2.7054 0.65155 -0.26655 -0.2467392 0.9557486 -0.1602016 255 255 255 255 0.459250 0.284505
-1.7696 0.67 -0.5274 0.1090677 0.9778814 -0.1784721 255 255 255 255 0.459250 0.284505
-3.05685 -0.42855 -0.088 -0.4680047 -0.8783839 -0.09702203 255 255 255 255 0.459250 0.284505
-2.48605 -0.63675 0.23745 -0.6829492 -0.7294551 -0.03841462 255 255 255 255 0.459250 0.284505
-1.31655 0.8430499 -0.2032 0.106219 0.9939244 0.02884246 255 255 255 255 0.459250 0.284505
-1.6626 0.74175 -0.0235 0.03049887 0.9984773 0.04596511 255 255 255 255 0.459250 0.284505
-1.07635 -0.5301 -0.24245 0.519657 -0.8257589 -0.2192694 255 255 255 255 0.459250 0.284505
-2.4653 0.8669 0.04 -0.1804738 0.9787151 -0.09770411 255 255 255 255 0.459250 0.284505
-3.3077 -0.466 0.5629 -0.5445594 -0.8152365 0.1970901 255 255 255 255 0.459250 0.284505
-1.68335 -0.8617 0.04035 0.4150232 -0.8491766 -0.3265803 255 255 255 255 0.459250 0.284505
-0.6709 -0.2745 0.4314 0.7752184 -0.6275347 0.07236448 255 255 255 255 0.459250 0.284505
-1.0418 0.7402 -0.3937 0.4578611 0.8139239 -0.3576187 255 255 255 255 0.459250 0.284505
-3.1342 0.48185 0.58815 -0.4987274 0.8655877 0.04504362 255 255 255 255 0.459250 0.284505
-3.42315 0.17325 0.08545 -0.9307923 0.3623568 -0.04820171 255 255 255 255 0.459250 0.284505
-3.45245 -0.2473 0.70675 -0.836729 -0.4525092 0.3084153 255 255 255 255 0.459250 0.284505
-2.51125 -0.71315 1.1302 -0.1808347 -0.8117976 0.5552329 255 255 255 255 0.459250 0.284505
-1.47515 -0.6671 0.10975 0.4223362 -0.9029567 -0.07938173 255 255 255 255 0.459250 0.284505
-0.52425 0.0239 0.29295 0.9965054 -0.07737625 -0.0314623 255 255 255 255 0.459250 0.284505
-0.7949 0.447 0.0948 0.6515749 0.7555946 0.06728338 255 255 255 255 0.459250 0.284505
-2.00695 0.763 0.55975 -0.09236939 0.9828663 0.159505 255 255 255 255 0.459250 0.284505
-1.24015 0.6524 0.18585 0.2886784 0.9551521 0.06594886 255 255 255 255 0.459250 0.284505
-2.6197 0.68675 0.64455 -0.1569564 0.9107111 0.3820602 255 255 255 255 0.459250 0.284505
-3.42655 0.30755 0.8652 -0.8058628 0.5500759 0.2190928 255 255 255 255 0.459250 0.284505
-2.8648 -0.5215 0.6985 -0.4023928 -0.9027396 0.1521227 255 255 255 255 0.459250 0.284505
-1.8623 -0.6759 1.07755 0.03017006 -0.9681302 0.2486236 255 255 255 255 0.459250 0.284505
-1.2981 -0.65685 1.0536 0.3612888 -0.9193056 0.1560372 255 255 255 255 0.459250 0.284505
-0.72545 0.492 0.485 0.7460693 0.6658638 0.002452309 255 255 255 255 0.459250 0.284505
-3.37925 0.0848 1.116 -0.7782581 -0.02866803 0.6272899 255 255 255 255 0.459250 0.284505
-1.49075 0.82815 0.70495 0.08015097 0.9965964 0.01927503 255 255 255 255 0.459250 0.284505
-3.15225 0.16715 1.23765 -0.7039975 0.3113064 0.6383384 255 255 255 255 0.459250 0.284505
-1.13545 0.35665 1.48615 0.2426206 0.860633 0.4477122 255 255 255 255 0.459250 0.284505
-1.0668 0.7492 0.96025 0.4016886 0.8562927 0.3246677 255 255 255 255 0.459250 0.284505
-1.9219 0.7028 1.1747 -0.2299749 0.9216082 0.3126498 255 255 255 255 0.459250 0.284505
-2.33105 0.4093 0.9536 -0.1987806 0.9306352 0.307253 255 255 255 255 0.459250 0.284505
-0.83925 -0.29185 1.0614 0.8342151 -0.5201086 0.1832272 255 255 255 255 0.459250 0.284505
-2.56205 0.43235 1.58455 -0.2493674 0.9394071 0.2352242 255 255 255 255 0.459250 0.284505
-2.97575 0.44335 1.0811 -0.3303974 0.880937 0.338803 255 255 255 255 0.459250 0.284505
-2.93165 -0.3942 1.26565 -0.6156887 -0.713943 0.3334859 255 255 255 255 0.459250 0.284505
-1.9078 -0.4521 1.82765 0.01184472 -0.7167338 0.6972463 255 255 255 255 0.459250 0.284505
-0.911 0.3005 1.5202 0.6595572 0.5392005 0.5236862 255 255 255 255 0.459250 0.284505
-2.87315 -0.2152 1.69035 -0.5900249 -0.5152659 0.6215882 255 255 255 255 0.459250 0.284505
-0.887 -0.15585 1.5678 0.7643729 -0.3169366 0.5615028 255 255 255 255 0.459250 0.284505
-2.83845 0.17395 1.84675 -0.5688593 0.2565601 0.7813937 255 255 255 255 0.459250 0.284505
-1.8131 0.1166 2.04955 0.16521 -0.0137081 0.9861632 255 255 255 255 0.459250 0.284505
-2.00545 0.5139 1.5935 -0.07060474 0.9855456 0.1539965 255 255 255 255 0.459250 0.284505
-1.89495 0.48335 1.95305 0.1043213 0.7416326 0.6626449 255 255 255 255 0.459250 0.284505
-1.3498 -0.27195 2.51345 0.6249892 -0.7658967 0.1509662 255 255 255 255 0.459250 0.284505
-1.1931 0.208 2.76295 0.8833126 0.2682266 0.384465 255 255 255 255 0.459250 0.284505
-1.1417 0.04335 2.14765 0.9636417 -0.03880369 -0.2643652 255 255 255 255 0.459250 0.284505
-1.4188 0.4696 2.5514 0.4352263 0.8949761 0.09795922 255 255 255 255 0.459250 0.284505
-1.51455 0.44755 1.97725 0.351792 0.8257698 -0.4408477 255 255 255 255 0.459250 0.284505
-1.4565 0.0091 3.08985 0.5851283 -0.195774 0.7869546 255 255 255 255 0.459250 0.284505
-1.55355 0.1292 1.6616 0.3736145 0.2347659 -0.8973836 255 255 255 255 0.459250 0.284505
-1.48085 -0.1696 1.8209 0.499304 -0.6256141 -0.5994185 255 255 255 255 0.459250 0.284505
-1.68895 -0.40115 2.2525 0.2523629 -0.9546276 -0.1581114 255 255 255 255 0.459250 0.284505
-1.7295 0.4535 2.61375 0.02214527 0.9868869 0.159887 255 255 255 255 0.459250 0.284505
-2.17235 0.4045 2.8795 0.09807437 0.9701317 0.2218692 255 255 255 255 0.459250 0.284505
-1.93705 -0.288 3.0089 0.1613107 -0.7814732 0.602726 255 255 255 255 0.459250 0.284505
-1.98945 0.53015 2.1805 0.01796419 0.9767964 -0.2134155 255 255 255 255 0.459250 0.284505
-2.22515 -0.25045 1.64985 -0.1466411 -0.5685271 -0.8094896 255 255 255 255 0.459250 0.284505
-2.0524 -0.4822 2.63405 0.1252198 -0.9746366 0.1854818 255 255 255 255 0.459250 0.284505
-2.61815 -0.3952 2.0663 -0.2965007 -0.8831837 -0.3634197 255 255 255 255 0.459250 0.284505
-1.9643 0.29885 3.2219 0.152416 0.5820539 0.7987381 255 255 255 255 0.459250 0.284505
-2.6711 -0.36225 2.77625 -0.2847067 -0.8901882 0.3556784 255 255 255 255 0.459250 0.284505
-2.45195 0.20255 1.7287 -0.233614 0.3622658 -0.9023237 255 255 255 255 0.459250 0.284505
-2.6355 0.4612 2.9179 -0.2393073 0.8736106 0.4237177 255 255 255 255 0.459250 0.284505
-2.97285 0.1984 2.96335 -0.6748818 0.403371 0.6179211 255 255 255 255 0.459250 0.284505
-2.7272 0.45425 2.01365 -0.417661 0.7867907 -0.4544443 255 255 255 255 0.459250 0.284505
-2.29195 0.03645 3.28615 -0.1474896 -0.1418764 0.978835 255 255 255 255 0.459250 0.284505
-3.07115 -0.2423 2.3604 -0.7486972 -0.6541644 -0.1073385 255 255 255 255 0.459250 0.284505
-2.89275 -0.19925 1.934 -0.5085984 -0.5832475 -0.6333641 255 255 255 255 0.459250 0.284505
-3.0024 -0.06885 2.9734 -0.703608 -0.3474701 0.619839 255 255 255 255 0.459250 0.284505
-2.95705 0.0562 1.88615 -0.6837579 0.1326073 -0.7175587 255 255 255 255 0.459250 0.284505
-3.14495 0.3055 2.3578 -0.846449 0.5187902 -0.1199204 255 255 255 255 0.459250 0.284505
2.85955 0.25035 -1.51255 0.8019786 0.5549091 -0.2211476 255 255 255 255 0.459250 0.284505
2.57315 -0.48335 -0.4598 0.7224365 -0.5953652 0.3516048 255 255 255 255 0.459250 0.284505
2.7253 0.15605 -0.4245 0.9949648 -0.06441326 0.07678518 255 255 255 255 0.459250 0.284505
2.60175 0.44685 -0.5729 0.8743736 0.468692 -0.1256926 255 255 255 255 0.459250 0.284505
2.7717 0.00945 -1.78025 0.6201455 -0.243001 -0.7459022 255 255 255 255 0.459250 0.284505
2.89155 0.03055 -1.4975 0.9516409 -0.2697089 -0.1470945 255 255 255 255 0.459250 0.284505
2.6014 0.33975 -1.66715 0.7295561 0.5523866 -0.403258 255 255 255 255 0.459250 0.284505
2.56795 -0.04305 -0.08440001 0.8066347 -0.4361658 0.3988733 255 255 255 255 0.459250 0.284505
2.7792 0.39025 -0.1532 0.9534528 0.1184755 0.2772931 255 255 255 255 0.459250 0.284505
2.69555 0.63045 -0.3003 0.6916137 0.7170855 -0.08636422 255 255 255 255 0.459250 0.284505
2.5053 0.8430499 -0.77475 0.8059044 0.5920354 -0.003505364 255 255 255 255 0.459250 0.284505
2.5037 -0.0082 -1.87355 0.6877449 -0.2295868 -0.6886922 255 255 255 255 0.459250 0.284505
2.29945 0.7734 -1.57935 0.6256 0.7719543 -0.1127442 255 255 255 255 0.459250 0.284505
2.3019 0.66555 -2.10655 0.5935962 0.4141619 -0.6900098 255 255 255 255 0.459250 0.284505
2.53745 -0.40245 -1.12135 0.6444669 -0.7373559 -0.2024073 255 255 255 255 0.459250 0.284505
2.43685 -0.65835 -0.6983 0.4753971 -0.8797626 0.003914818 255 255 255 255 0.459250 0.284505
2.1505 -0.4347 -2.21135 0.6077657 -0.3620528 -0.7067804 255 255 255 255 0.459250 0.284505
2.3134 0.74515 -0.3493 0.3213997 0.8708658 0.3718805 255 255 255 255 0.459250 0.284505
2.0203 0.8614 -2.09595 0.05943614 0.7783214 -0.6250466 255 255 255 255 0.459250 0.284505
2.1753 0.26215 -2.1347 0.6393222 0.09372755 -0.7632053 255 255 255 255 0.459250 0.284505
2.1326 -0.61215 -0.32165 0.3437615 -0.8708031 0.3514685 255 255 255 255 0.459250 0.284505
2.1105 -0.2342 0.49765 0.4790262 -0.6900386 0.5425686 255 255 255 255 0.459250 0.284505
2.20365 -0.0443 0.561 0.6358408 -0.01088842 0.7717435 255 255 255 255 0.459250 0.284505
2.46 0.53435 0.08285 0.4174578 0.6602198 0.6243708 255 255 255 255 0.459250 0.284505
2.28605 0.96185 -0.6154 0.2813236 0.9200755 0.2726136 255 255 255 255 0.459250 0.284505
1.7755 0.52855 -2.17805 0.09857547 0.7902121 -0.6048535 255 255 255 255 0.459250 0.284505
1.83625 0.4076 -2.7196 0.4453464 0.6465113 -0.619427 255 255 255 255 0.459250 0.284505
2.1666 -0.5642 -1.92235 0.5747344 -0.7831811 -0.2372927 255 255 255 255 0.459250 0.284505
2.05065 -0.68475 -1.09205 0.4940045 -0.8668033 -0.06790943 255 255 255 255 0.459250 0.284505
2.00705 0.91575 -1.20615 0.08889406 0.9910293 -0.09979431 255 255 255 255 0.459250 0.284505
1.502 -0.2129 -2.5401 0.2327536 -0.5918174 -0.771737 255 255 255 255 0.459250 0.284505
2.0763 -0.2126 -2.24045 0.5992966 -0.1115617 -0.7927154 255 255 255 255 0.459250 0.284505
1.7739 0.5469 0.28135 0.4634111 0.6786326 0.5698316 255 255 255 255 0.459250 0.284505
1.46995 0.905 -0.9359999 0.1331771 0.9897936 0.05071959 255 255 255 255 0.459250 0.284505
1.8434 0.1891 -2.7531 0.5450793 -0.2161436 -0.8100436 255 255 255 255 0.459250 0.284505
1.9111 -0.5706 -2.2633 0.2532765 -0.7132173 -0.6535841 255 255 255 255 0.459250 0.284505
1.7122 -0.72415 -1.69335 0.2040337 -0.8915243 -0.4044189 255 255 255 255 0.459250 0.284505
1.89465 -0.7753 -1.3705 0.5240189 -0.8344046 -0.1708017 255 255 255 255 0.459250 0.284505
1.65755 0.0849 0.68215 0.3418436 0.3933721 0.8534644 255 255 255 255 0.459250 0.284505
1.46995 0.8185501 -1.67635 0.08983066 0.9481099 -0.3049887 255 255 255 255 0.459250 0.284505
1.5277 0.2661 -2.8392 -0.1137292 0.2182304 -0.9692478 255 255 255 255 0.459250 0.284505
1.942 -0.06005 0.73545 0.3030938 0.0253241 0.9526242 255 255 255 255 0.459250 0.284505
1.3394 0.93195 0.4545 0.3999287 0.7829366 0.4765159 255 255 255 255 0.459250 0.284505
1.63645 0.8421 -0.44455 0.1474949 0.9764741 0.157301 255 255 255 255 0.459250 0.284505
1.14615 0.7939 -1.94485 0.1514122 0.8699509 -0.4693184 255 255 255 255 0.459250 0.284505
1.3138 0.4635 -2.449 -0.0211709 0.8327079 -0.5533078 255 255 255 255 0.459250 0.284505
1.30525 -0.5635 -2.1531 0.1257492 -0.8886805 -0.4409469 255 255 255 255 0.459250 0.284505
1.53605 -0.9548 -1.531 0.1531215 -0.8932531 -0.4226732 255 255 255 255 0.459250 0.284505
1.6959 -0.9406 -1.2684 0.3535975 -0.9351313 -0.0223231 255 255 255 255 0.459250 0.284505
1.24005 -0.80075 -0.2364 0.3096187 -0.8947689 0.3217529 255 255 255 255 0.459250 0.284505
1.5144 -0.0152 0.73145 0.162341 -0.3353298 0.9280083 255 255 255 255 0.459250 0.284505
1.46995 0.9563 0.0225 0.5314556 0.8442076 0.06977551 255 255 255 255 0.459250 0.284505
1.13675 -0.2139 -2.62165 0.1719663 0.1112098 -0.9788054 255 255 255 255 0.459250 0.284505
1.1505 -0.74315 -1.72165 0.02220548 -0.8999649 -0.4353966 255 255 255 255 0.459250 0.284505
1.55935 -0.4837 0.34725 0.2408375 -0.7802735 0.5772093 255 255 255 255 0.459250 0.284505
1.4044 0.3982 0.8264 0.5234939 0.2425046 0.8167898 255 255 255 255 0.459250 0.284505
1.14615 1.06355 0.0728 -0.05534351 0.9982733 0.01969195 255 255 255 255 0.459250 0.284505
1.14615 0.9379001 -0.66755 0.1420203 0.9768612 0.1599139 255 255 255 255 0.459250 0.284505
1.03935 1.0941 -1.42575 0.1625147 0.9546952 -0.249291 255 255 255 255 0.459250 0.284505
1.14965 0.20655 -2.64775 -0.1557336 0.3241855 -0.9330868 255 255 255 255 0.459250 0.284505
0.9059 -0.36785 -2.7438 0.2908102 -0.3759297 -0.8798331 255 255 255 255 0.459250 0.284505
1.33335 -0.9602 -1.209 0.07546205 -0.9951065 -0.06378467 255 255 255 255 0.459250 0.284505
1.15375 -0.6934 0.38415 0.226449 -0.7618027 0.6069412 255 255 255 255 0.459250 0.284505
0.97905 0.9339 -0.3973 -0.02790111 0.9995654 -0.00951797 255 255 255 255 0.459250 0.284505
1.20645 1.03865 -1.1555 0.3825424 0.9227164 0.04749522 255 255 255 255 0.459250 0.284505
0.87015 1.1356 -1.1623 -0.03312398 0.9986692 0.03953078 255 255 255 255 0.459250 0.284505
0.4619 0.6014 -2.36965 0.04954595 0.8873247 -0.4584759 255 255 255 255 0.459250 0.284505
0.79955 0.21075 -2.6878 0.2627563 0.3377493 -0.9038167 255 255 255 255 0.459250 0.284505
0.52435 -0.61135 -2.58515 -0.1118464 -0.8447998 -0.5232626 255 255 255 255 0.459250 0.284505
0.79275 -0.82985 -1.4867 0.04066517 -0.9204352 -0.3887743 255 255 255 255 0.459250 0.284505
1.0831 -1.1356 -0.73685 0.347843 -0.9370737 0.02997017 255 255 255 255 0.459250 0.284505
0.5727 -0.53275 0.58865 0.03248368 -0.7673784 0.6403711 255 255 255 255 0.459250 0.284505
1.0788 0.2738 0.9177501 0.07275575 -0.03463902 0.9967481 255 255 255 255 0.459250 0.284505
1.0943 0.58875 0.8496 0.02891408 0.5009013 0.8650213 255 255 255 255 0.459250 0.284505
1.0206 0.91375 0.5204 -0.2364231 0.8363773 0.4945475 255 255 255 255 0.459250 0.284505
0.6999 1.02795 -1.43245 -0.2342873 0.9403882 -0.2465349 255 255 255 255 0.459250 0.284505
0.63965 0.8068 -1.9735 -0.02892253 0.9024624 -0.4297967 255 255 255 255 0.459250 0.284505
0.67065 -0.0324 0.8654 0.1862649 -0.2592356 0.9476826 255 255 255 255 0.459250 0.284505
0.63965 0.8196 0.10145 -0.15593 0.9589082 0.2370251 255 255 255 255 0.459250 0.284505
0.4694 0.9611999 -0.66075 0.03512001 0.9917053 0.1236415 255 255 255 255 0.459250 0.284505
0.57885 0.4176 -2.6962 0.4644433 0.706964 -0.5333802 255 255 255 255 0.459250 0.284505
0.3674 -0.3316 -2.7938 -0.1949448 -0.4557182 -0.8685146 255 255 255 255 0.459250 0.284505
0.08815 -0.95785 -1.3816 -0.03912369 -0.9972516 -0.06291764 255 255 255 255 0.459250 0.284505
0.7773 -0.8687 -0.1831 -0.04355793 -0.871026 0.489302 255 255 255 255 0.459250 0.284505
0.37835 0.01545 0.98995 0.07196913 -0.03927825 0.9966332 255 255 255 255 0.459250 0.284505
0.4915 0.41465 0.7886 0.01065138 0.4333283 0.9011732 255 255 255 255 0.459250 0.284505
0.3002 0.9611 -0.9359999 -0.1042556 0.9944789 -0.01193838 255 255 255 255 0.459250 0.284505
0.3002 0.8636 -1.7275 -0.003615165 0.9585738 -0.2848217 255 255 255 255 0.459250 0.284505
0.31435 0.2584 -2.90365 0.163017 0.1410277 -0.976492 255 255 255 255 0.459250 0.284505
0.27475 -0.6824 -2.0476 -0.1005258 -0.9147732 -0.3912603 255 255 255 255 0.459250 0.284505
0.0882 -0.92435 -1.65005 0.09856481 -0.9446876 -0.3128104 255 255 255 255 0.459250 0.284505
0.90175 -1.1177 -0.4348 0.06048425 -0.9159583 0.3966888 255 255 255 255 0.459250 0.284505
0.17025 0.61435 0.7013 -0.08804087 0.7304818 0.6772335 255 255 255 255 0.459250 0.284505
0.67695 0.5568 0.68175 -0.2166435 0.789825 0.5737962 255 255 255 255 0.459250 0.284505
0.3002 0.8674001 0.0887 0.1233585 0.9259665 0.3568877 255 255 255 255 0.459250 0.284505
0.1331 0.77965 -1.94485 0.01154406 0.8749142 -0.4841404 255 255 255 255 0.459250 0.284505
-0.05725 0.44445 -2.88655 -0.3554291 0.515398 -0.779766 255 255 255 255 0.459250 0.284505
0.12375 -0.4706 -2.3487 -0.3293574 -0.7582176 -0.5626988 255 255 255 255 0.459250 0.284505
-0.33435 -0.9276 -1.6752 -0.5881268 -0.7278101 -0.352703 255 255 255 255 0.459250 0.284505
0.13655 -0.89005 -0.4849 -0.1183673 -0.9832959 0.1382694 255 255 255 255 0.459250 0.284505
0.1323 -0.84995 -0.22425 0.008388655 -0.9490216 0.3150994 255 255 255 255 0.459250 0.284505
0.15115 -0.64765 0.13465 -0.08552579 -0.8845263 0.4585833 255 255 255 255 0.459250 0.284505
-0.01985 0.7619 0.2831 -0.1446441 0.8568683 0.4948281 255 255 255 255 0.459250 0.284505
-0.1642 0.09335 -2.77285 -0.5559002 -0.2648953 -0.7879121 255 255 255 255 0.459250 0.284505
0.0257 0.9921001 -0.06385 0.06170387 0.9512678 0.3021294 255 255 255 255 0.459250 0.284505
0.0257 1.0445 -0.30725 -0.06747251 0.9968326 0.04209766 255 255 255 255 0.459250 0.284505
-0.3636 -0.1964 -2.44245 -0.315551 -0.4199611 -0.8509173 255 255 255 255 0.459250 0.284505
-0.38145 -0.87995 -0.8435 -0.1941209 -0.9809201 -0.01062813 255 255 255 255 0.459250 0.284505
-0.45 -0.8556 -0.12415 -0.3019912 -0.8520925 0.4274807 255 255 255 255 0.459250 0.284505
0.2286 -0.3664 0.77985 -0.1468745 -0.6371833 0.756588 255 255 255 255 0.459250 0.284505
-0.53795 1.0837 -1.4917 -0.1459161 0.9891058 0.01944831 255 255 255 255 0.459250 0.284505
-0.35815 0.19875 -2.5064 -0.6373427 0.2728187 -0.7206693 255 255 255 255 0.459250 0.284505
-0.4323 -0.5195 -2.23175 -0.175354 -0.7636598 -0.6213491 255 255 255 255 0.459250 0.284505
0.03715 0.0198 0.8929 -0.416909 -0.08324392 0.9051284 255 255 255 255 0.459250 0.284505
-0.16015 0.56665 0.6059 -0.3936132 0.6260873 0.6731147 255 255 255 255 0.459250 0.284505
-0.63575 0.6926 -0.09670001 -0.4902125 0.7950154 0.3572706 255 255 255 255 0.459250 0.284505
-0.34545 0.9662001 -0.01165 -0.441678 0.8242775 0.3542418 255 255 255 255 0.459250 0.284505
-0.28885 0.925 -0.34 -0.3236369 0.9456171 -0.03267349 255 255 255 255 0.459250 0.284505
-0.4941 0.88405 -0.9359999 -0.2806857 0.9433408 0.1769853 255 255 255 255 0.459250 0.284505
-0.53795 1.0346 -1.7197 -0.1652869 0.8818111 -0.4416893 255 255 255 255 0.459250 0.284505
-0.382 -0.5935 0.1262 -0.1667903 -0.8000041 0.5763458 255 255 255 255 0.459250 0.284505
-0.54035 -0.38855 0.45605 -0.3346701 -0.5865093 0.7375655 255 255 255 255 0.459250 0.284505
-0.8282501 0.77235 -1.84505 -0.6880349 0.44221 -0.5753767 255 255 255 255 0.459250 0.284505
-0.9013 0.5381 -1.81925 -0.6460429 0.6633818 -0.3775623 255 255 255 255 0.459250 0.284505
-0.1907 0.55215 -2.2553 -0.2666064 0.7980086 -0.5404659 255 255 255 255 0.459250 0.284505
-0.79095 -0.54455 -1.9929 -0.4146839 -0.8545755 -0.3126308 255 255 255 255 0.459250 0.284505
-0.36745 -0.6821 -1.7807 -0.3950774 -0.8168114 -0.4203962 255 255 255 255 0.459250 0.284505
-1.1214 -0.7099 -0.8433501 -0.4660619 -0.8486748 0.2500751 255 255 255 255 0.459250 0.284505
-0.64345 0.1875 0.48125 -0.3693851 0.2054112 0.9062896 255 255 255 255 0.459250 0.284505
-0.6359 0.3914 0.33645 -0.3852623 0.6856459 0.6176267 255 255 255 255 0.459250 0.284505
-0.63575 0.8121 -0.49475 -0.4289319 0.8926208 0.1387285 255 255 255 255 0.459250 0.284505
-0.8282501 0.9527 -1.447 -0.6806535 0.7324051 0.01714008 255 255 255 255 0.459250 0.284505
-1.233 0.3557 -2.05035 -0.6352254 0.7066957 -0.3115605 255 255 255 255 0.459250 0.284505
-0.98085 -0.29045 -2.2321 -0.5405641 -0.5086578 -0.6701177 255 255 255 255 0.459250 0.284505
-0.89415 -0.56735 -1.5803 -0.462174 -0.8404353 -0.2829553 255 255 255 255 0.459250 0.284505
-0.6863 -0.72795 -0.23875 -0.5314767 -0.7906451 0.3039951 255 255 255 255 0.459250 0.284505
-1.02675 0.4412 0.0061 -0.4487222 0.867776 0.2135727 255 255 255 255 0.459250 0.284505
-0.6926 -0.76115 -0.5836 -0.384296 -0.9130527 0.1365696 255 255 255 255 0.459250 0.284505
-1.04675 -0.10055 0.3853 -0.5864367 -0.3160703 0.7457826 255 255 255 255 0.459250 0.284505
-1.1093 0.36935 0.28465 -0.4626727 0.6340471 0.6196114 255 255 255 255 0.459250 0.284505
-1.0103 0.64235 -1.11535 -0.5677342 0.823142 0.01073412 255 255 255 255 0.459250 0.284505
-1.18515 0.20745 -2.21555 -0.5542054 0.2382268 -0.7975615 255 255 255 255 0.459250 0.284505
-1.3632 0.1004 -1.9875 -0.9557831 -0.05005844 -0.2897806 255 255 255 255 0.459250 0.284505
-1.3171 0.19575 -1.70025 -0.8855785 0.4122571 -0.2139971 255 255 255 255 0.459250 0.284505
-1.32355 -0.11425 -1.6499 -0.8621743 -0.4138294 -0.2922342 255 255 255 255 0.459250 0.284505
-1.31455 0.28775 0.0793 -0.8689398 0.4270286 0.2501807 255 255 255 255 0.459250 0.284505
-1.3092 0.4834 -0.9344 -0.4619862 0.8808702 0.1031332 255 255 255 255 0.459250 0.284505
-1.2115 0.482 -1.3546 -0.4808023 0.8361813 -0.263875 255 255 255 255 0.459250 0.284505
-1.3241 -0.5936 -1.0327 -0.7162206 -0.6932982 -0.07978592 255 255 255 255 0.459250 0.284505
-1.49605 0.20155 -0.6 -0.8326967 0.3456679 0.4325852 255 255 255 255 0.459250 0.284505
-1.3075 -0.4371 -0.76625 -0.7607054 -0.5525905 0.3405454 255 255 255 255 0.459250 0.284505
-1.4913 -0.02545 -0.5667 -0.9182202 -0.2312275 0.3215676 255 255 255 255 0.459250 0.284505
-1.5641 0.3524 -1.27805 -0.8120798 0.4704422 -0.3452688 255 255 255 255 0.459250 0.284505
-1.592 0.39245 -0.95465 -0.7450685 0.6483018 0.1567729 255 255 255 255 0.459250 0.284505
-1.622 0.13405 -0.9515499 -0.9895936 -0.1410203 0.02859835 255 255 255 255 0.459250 0.284505
1.7373 -0.20455 1.81515 0.8596855 -0.483054 0.1661318 255 255 255 255 0.459250 0.284505
1.79375 0.31685 1.9984 0.8823274 0.440796 0.1649163 255 255 255 255 0.459250 0.284505
1.611 0.36105 1.6928 0.7049028 0.6889704 -0.1686174 255 255 255 255 0.459250 0.284505
1.39425 0.00545 0.69665 0.7144415 -0.0999917 -0.6925136 255 255 255 255 0.459250 0.284505
1.73515 0.0357 0.9456999 0.8596134 -0.08102056 -0.5044804 255 255 255 255 0.459250 0.284505
1.362 0.76355 1.69405 0.4143478 0.9066597 0.0792729 255 255 255 255 0.459250 0.284505
1.22465 0.5624 0.82005 0.67562 0.4778376 -0.5614347 255 255 255 255 0.459250 0.284505
1.57225 0.42945 2.2157 0.5465891 0.686112 0.4800945 255 255 255 255 0.459250 0.284505
1.06425 0.72595 0.74575 0.2486964 0.7804971 -0.5735629 255 255 255 255 0.459250 0.284505
1.46975 -0.5027 1.6136 0.5439678 -0.8390989 0.003484597 255 255 255 255 0.459250 0.284505
1.4256 -0.0228 2.61355 0.6491277 -0.1807658 0.738889 255 255 255 255 0.459250 0.284505
0.7976 0.4249 0.5398 0.1697892 0.7382494 -0.652809 255 255 255 255 0.459250 0.284505
0.92365 0.18235 0.22125 0.3751709 0.329383 -0.8664604 255 255 255 255 0.459250 0.284505
1.0843 -0.3279 0.47345 0.4491196 -0.6229588 -0.6404794 255 255 255 255 0.459250 0.284505
1.08135 -0.5321 1.2987 0.4867166 -0.781561 -0.3902171 255 255 255 255 0.459250 0.284505
0.5467 -0.15455 0.2892 0.08728236 -0.4610492 -0.8830716 255 255 255 255 0.459250 0.284505
1.0627 0.43925 2.4436 0.5248196 0.7249099 0.4461727 255 255 255 255 0.459250 0.284505
0.8345001 -0.7233 1.25255 0.2660902 -0.9448875 -0.190745 255 255 255 255 0.459250 0.284505
0.5982 0.47195 2.95705 0.2136329 0.4965504 0.8413078 255 255 255 255 0.459250 0.284505
0.61545 0.65155 0.9612499 0.1598659 0.9557494 -0.2469536 255 255 255 255 0.459250 0.284505
0.8777 0.67 1.89665 0.1786436 0.9778805 0.1087944 255 255 255 255 0.459250 0.284505
0.43635 -0.42855 0.61005 0.09633171 -0.8783831 -0.4681489 255 255 255 255 0.459250 0.284505
0.1118 -0.63675 1.18135 0.03739009 -0.7295441 -0.6829109 255 255 255 255 0.459250 0.284505
0.5542 0.8430499 2.35015 -0.0286397 0.9939347 0.1061779 255 255 255 255 0.459250 0.284505
0.37395 0.74175 2.0044 -0.04592693 0.9984769 0.0305734 255 255 255 255 0.459250 0.284505
0.5938 -0.5301 2.59035 0.2200473 -0.8257501 0.5193418 255 255 255 255 0.459250 0.284505
0.3093 0.8669 1.2018 0.09745827 0.978712 -0.180623 255 255 255 255 0.459250 0.284505
-0.2149 -0.466 0.3602 -0.197912 -0.8152439 -0.5442502 255 255 255 255 0.459250 0.284505
0.3101 -0.8617 1.98375 0.3272111 -0.849169 0.4145418 255 255 255 255 0.459250 0.284505
-0.07945 -0.2745 2.9968 -0.07118861 -0.6274914 0.7753624 255 255 255 255 0.459250 0.284505
0.7451 0.7402 2.6247 0.3582936 0.8139161 0.4573471 255 255 255 255 0.459250 0.284505
-0.2399 0.48185 0.53375 -0.0458014 0.8655941 -0.4986473 255 255 255 255 0.459250 0.284505
0.26235 0.17325 0.244 0.04681164 0.3623466 -0.9308671 255 255 255 255 0.459250 0.284505
-0.35895 -0.2473 0.21565 -0.3096238 -0.4525153 -0.8362793 255 255 255 255 0.459250 0.284505
-0.781 -0.71315 1.1575 -0.5554656 -0.8118215 -0.1800106 255 255 255 255 0.459250 0.284505
0.241 -0.6671 2.19205 0.08001077 -0.902958 0.4222145 255 255 255 255 0.459250 0.284505
0.05925 0.0239 3.1432 0.03298462 -0.07735334 0.996458 255 255 255 255 0.459250 0.284505
0.257 0.447 2.8723 -0.06630827 0.7555425 0.6517353 255 255 255 255 0.459250 0.284505
-0.2098 0.763 1.6609 -0.1596778 0.9828609 -0.09212824 255 255 255 255 0.459250 0.284505
0.16525 0.6524 2.4272 -0.06551704 0.9551499 0.288784 255 255 255 255 0.459250 0.284505
-0.2955 0.68675 1.0483 -0.3822625 0.9107217 -0.1564012 255 255 255 255 0.459250 0.284505
-0.5174 0.30755 0.2418 -0.2202974 0.5501052 -0.8055144 255 255 255 255 0.459250 0.284505
-0.34985 -0.5215 0.8033 -0.1527202 -0.9027384 -0.4021692 255 255 255 255 0.459250 0.284505
-0.7274 -0.6759 1.80635 -0.2485921 -0.9681265 0.0305455 255 255 255 255 0.459250 0.284505
-0.70255 -0.65685 2.37055 -0.1554842 -0.9193028 0.3615343 255 255 255 255 0.459250 0.284505
-0.1331 0.492 2.9423 -0.001337671 0.6658599 0.7460756 255 255 255 255 0.459250 0.284505
-0.76815 0.0848 0.28945 -0.6284795 -0.02860701 -0.7772999 255 255 255 255 0.459250 0.284505
-0.3542 0.82815 2.17735 -0.0191494 0.9965978 0.08016313 255 255 255 255 0.459250 0.284505
-0.88945 0.16715 0.5167 -0.6394075 0.3113214 -0.70302 255 255 255 255 0.459250 0.284505
-1.1349 0.35665 2.5338 -0.4473438 0.8606364 0.2432871 255 255 255 255 0.459250 0.284505
-0.60885 0.7492 2.6017 -0.3240328 0.856281 0.4022258 255 255 255 255 0.459250 0.284505
-0.8246 0.70275 1.7469 -0.3129265 0.9216103 -0.2295898 255 255 255 255 0.459250 0.284505
-0.60415 0.4093 1.3374 -0.3075458 0.9306446 -0.1982832 255 255 255 255 0.459250 0.284505
-0.7097 -0.29185 2.8294 -0.1819826 -0.5201139 0.8344842 255 255 255 255 0.459250 0.284505
-1.23545 0.43235 1.10735 -0.2356036 0.9394031 -0.2490237 255 255 255 255 0.459250 0.284505
-0.73265 0.44335 0.69295 -0.339294 0.8809393 -0.3298872 255 255 255 255 0.459250 0.284505
-0.9171 -0.3942 0.7373 -0.3344347 -0.7139384 -0.6151792 255 255 255 255 0.459250 0.284505
-1.4775 -0.4521 1.762 -0.6972079 -0.7167529 0.01289973 255 255 255 255 0.459250 0.284505
-1.1686 0.3005 2.75835 -0.5226907 0.5391951 0.6603507 255 255 255 255 0.459250 0.284505
-1.3417 -0.2152 0.79645 -0.622472 -0.5152813 -0.5890788 255 255 255 255 0.459250 0.284505
-1.21615 -0.15585 2.7824 -0.5603626 -0.3169655 0.7651972 255 255 255 255 0.459250 0.284505
-1.49805 0.17395 0.83135 -0.7822359 0.2565278 -0.5677152 255 255 255 255 0.459250 0.284505
-1.6993 0.1166 1.85705 -0.9859084 -0.01374764 0.1667204 255 255 255 255 0.459250 0.284505
-1.24355 0.5139 1.664 -0.1540843 0.9855499 -0.07035304 255 255 255 255 0.459250 0.284505
-1.60295 0.48335 1.775 -0.6625111 0.7416145 0.1052953 255 255 255 255 0.459250 0.284505
2.3918 -0.27195 1.90465 0.07741974 -0.7658825 0.6383026 255 255 255 255 0.459250 0.284505
2.21295 0.208 2.13875 -0.05084528 0.2682333 0.9620113 255 255 255 255 0.459250 0.284505
2.8073 0.04335 1.9715 0.5850406 -0.03877441 0.8100766 255 255 255 255 0.459250 0.284505
2.3321 0.4696 1.8533 0.06069819 0.8949478 0.4420229 255 255 255 255 0.459250 0.284505
2.83635 0.44755 1.56255 0.5361221 0.8257716 0.175141 255 255 255 255 0.459250 0.284505
1.81455 0.0091 2.0065 -0.532212 -0.1958173 0.8236541 255 255 255 255 0.459250 0.284505
3.11835 0.1292 1.4155 0.9713945 0.2347705 0.03571586 255 255 255 255 0.459250 0.284505
2.9946 -0.1696 1.5394 0.7363141 -0.6256064 0.2577953 255 255 255 255 0.459250 0.284505
2.51745 -0.40115 1.4956 0.2364614 -0.9546311 0.1810121 255 255 255 255 0.459250 0.284505
2.16485 0.4535 1.5841 -0.1420157 0.9868851 0.07674136 255 255 255 255 0.459250 0.284505
1.76085 0.4045 1.2623 -0.1734674 0.9701356 0.1695464 255 255 255 255 0.459250 0.284505
1.7221 -0.288 1.52805 -0.5080475 -0.7814852 0.3621721 255 255 255 255 0.459250 0.284505
2.4797 0.53015 1.1889 0.2062141 0.9767917 -0.05791013 255 255 255 255 0.459250 0.284505
2.8942 -0.25045 0.7823 0.706892 -0.5685262 -0.4208108 255 255 255 255 0.459250 0.284505
2.0328 -0.4822 1.28875 -0.129899 -0.9746355 0.182241 255 255 255 255 0.459250 0.284505
2.36645 -0.3952 0.56 0.2365584 -0.8831953 -0.4049768 255 255 255 255 0.459250 0.284505
1.513 0.29885 1.57715 -0.6947889 0.582027 0.4225081 255 255 255 255 0.459250 0.284505
1.68295 -0.36225 0.759 -0.4328355 -0.8901981 -0.1421299 255 255 255 255 0.459250 0.284505
2.7409 0.20255 0.59745 0.7633923 0.3622529 -0.5347944 255 255 255 255 0.459250 0.284505
1.56275 0.4612 0.84195 -0.4806634 0.8736231 -0.07579889 255 255 255 255 0.459250 0.284505
1.40205 0.1984 0.5419 -0.8151095 0.4034152 -0.4157556 255 255 255 255 0.459250 0.284505
2.3776 0.45425 0.4394 0.2794106 0.7867954 -0.5503477 255 255 255 255 0.459250 0.284505
1.33805 0.03645 1.2927 -0.9685073 -0.1418703 0.2046128 255 255 255 255 0.459250 0.284505
1.93235 -0.2423 0.23865 -0.1616576 -0.6541631 -0.7388759 255 255 255 255 0.459250 0.284505
2.39425 -0.19925 0.25645 0.4151883 -0.5832736 -0.698148 255 255 255 255 0.459250 0.284505
1.38225 -0.06885 0.51775 -0.8270102 -0.3474367 -0.441975 255 255 255 255 0.459250 0.284505
2.41655 0.0562 0.17945 0.4326962 0.1325925 -0.8917361 255 255 255 255 0.459250 0.284505
1.90895 0.3055 0.1686 -0.1841061 0.5187804 -0.8348485 255 255 255 255 0.459250 0.284505
2.4165 -0.27195 -3.0572 -0.05933182 -0.7658863 -0.6402327 255 255 255 255 0.459250 0.284505
2.60185 0.208 -3.28615 0.07799537 0.268256 -0.9601851 255 255 255 255 0.459250 0.284505
2.00305 0.04335 -3.13575 -0.5619031 -0.03878957 -0.8262931 255 255 255 255 0.459250 0.284505
2.4747 0.4696 -3.00415 -0.04812504 0.8949757 -0.4435117 255 255 255 255 0.459250 0.284505
1.9624 0.44755 -2.7278 -0.5309935 0.8257478 -0.1902276 255 255 255 255 0.459250 0.284505
2.9964 0.0091 -3.1427 0.5553218 -0.1957816 -0.8082619 255 255 255 255 0.459250 0.284505
1.6764 0.1292 -2.5888 -0.9699959 0.2347611 -0.06320758 255 255 255 255 0.459250 0.284505
1.8036 -0.1696 -2.70915 -0.7287282 -0.6255918 -0.2785501 255 255 255 255 0.459250 0.284505
2.2793 -0.40115 -2.65185 -0.2312474 -0.9546309 -0.187629 255 255 255 255 0.459250 0.284505
2.63425 0.4535 -2.73035 0.1441307 0.9868857 -0.07268415 255 255 255 255 0.459250 0.284505
3.02895 0.4045 -2.39725 0.1781935 0.9701374 -0.1645615 255 255 255 255 0.459250 0.284505
3.07525 -0.288 -2.66175 0.5181072 -0.7814969 -0.3476027 255 255 255 255 0.459250 0.284505
2.30835 0.53015 -2.3442 -0.2077747 0.9767907 0.05205363 255 255 255 255 0.459250 0.284505
1.8825 -0.25045 -1.9495 -0.7185325 -0.5685166 0.4006244 255 255 255 255 0.459250 0.284505
2.7579 -0.4822 -2.43135 0.1350106 -0.9746357 -0.1784867 255 255 255 255 0.459250 0.284505
2.40375 -0.3952 -1.71235 -0.247918 -0.8831817 0.3981543 255 255 255 255 0.459250 0.284505
3.28565 0.29885 -2.70495 0.706488 0.5820282 -0.4026386 255 255 255 255 0.459250 0.284505
3.0926 -0.36225 -1.89195 0.4286472 -0.8901951 0.154319 255 255 255 255 0.459250 0.284505
2.0305 0.20255 -1.7604 -0.7782199 0.3622592 0.5129738 255 255 255 255 0.459250 0.284505
3.2151 0.4612 -1.97145 0.4783289 0.8736221 0.08936403 255 255 255 255 0.459250 0.284505
3.36725 0.1984 -1.66695 0.8030138 0.4034122 0.4386656 255 255 255 255 0.459250 0.284505
2.3892 0.45425 -1.59215 -0.2948472 0.7868598 0.542141 255 255 255 255 0.459250 0.284505
3.45245 0.03645 -2.41565 0.9739139 -0.141882 -0.177091 255 255 255 255 0.459250 0.284505
2.82855 -0.2423 -1.37885 0.1406322 -0.6541764 0.7431526 255 255 255 255 0.459250 0.284505
2.3674 -0.19925 -1.40975 -0.4347576 -0.5832875 0.6861206 255 255 255 255 0.459250 0.284505
3.38635 -0.06885 -1.64225 0.8141574 -0.3474528 0.4652144 255 255 255 255 0.459250 0.284505
2.3429 0.0562 -1.3334 -0.4578007 0.1325181 0.8791232 255 255 255 255 0.459250 0.284505
2.84995 0.3055 -1.30815 0.1603593 0.5187688 0.8397404 255 255 255 255 0.459250 0.284505
3 4 1 0 
3 1 4 2 
3 9 4 0 
3 3 4 9 
3 5 2 6 
3 2 4 6 
3 4 3 6 
3 0 1 10 
3 9 13 3 
3 1 7 10 
3 2 7 1 
3 2 5 7 
3 6 11 8 
3 6 3 11 
3 3 12 11 
3 3 13 12 
3 9 14 13 
3 9 0 10 
3 7 20 16 
3 7 5 20 
3 6 8 5 
3 13 15 12 
3 10 18 36 
3 10 16 18 
3 7 16 10 
3 5 8 20 
3 14 17 13 
3 10 25 9 
3 8 19 20 
3 8 11 19 
3 13 17 21 
3 9 25 35 
3 10 36 25 
3 18 16 30 
3 15 13 21 
3 14 9 17 
3 35 17 9 
3 16 20 30 
3 20 23 30 
3 19 11 26 
3 21 17 22 
3 19 26 20 
3 11 12 32 
3 12 15 32 
3 15 21 27 
3 20 24 23 
3 26 11 31 
3 22 27 21 
3 17 35 28 
3 24 20 26 
3 26 31 40 
3 11 32 31 
3 29 25 36 
3 23 39 30 
3 23 24 39 
3 38 24 26 
3 15 33 32 
3 15 27 33 
3 17 34 22 
3 17 28 34 
3 18 37 36 
3 30 37 18 
3 30 39 37 
3 24 38 39 
3 26 40 38 
3 31 32 41 
3 32 33 41 
3 27 22 42 
3 42 22 34 
3 35 25 53 
3 33 46 41 
3 33 27 42 
3 28 43 34 
3 28 35 43 
3 43 35 44 
3 53 44 35 
3 25 29 53 
3 45 37 39 
3 33 42 46 
3 36 37 45 
3 45 39 47 
3 39 38 47 
3 31 55 40 
3 56 46 42 
3 34 56 42 
3 38 40 52 
3 40 55 52 
3 31 41 55 
3 41 46 48 
3 48 46 56 
3 34 43 56 
3 47 50 45 
3 45 50 49 
3 47 38 51 
3 51 38 52 
3 55 41 48 
3 36 58 29 
3 45 58 36 
3 52 55 54 
3 56 43 57 
3 43 44 57 
3 53 29 58 
3 45 49 58 
3 48 61 55 
3 48 59 61 
3 56 59 48 
3 59 56 57 
3 47 49 50 
3 55 61 54 
3 53 58 60 
3 63 52 54 
3 53 60 44 
3 52 63 51 
3 47 51 63 
3 63 54 64 
3 59 62 61 
3 54 61 64 
3 59 57 62 
3 60 57 44 
3 58 62 60 
3 60 62 57 
3 49 47 63 
3 58 49 62 
3 49 63 64 
3 62 64 61 
3 62 49 64 
3 67 66 65 
3 68 66 69 
3 66 67 69 
3 65 66 70 
3 65 72 67 
3 66 81 70 
3 66 68 81 
3 69 67 71 
3 67 72 71 
3 81 68 74 
3 72 78 71 
3 70 81 87 
3 68 69 74 
3 65 73 72 
3 70 76 65 
3 70 87 76 
3 76 73 65 
3 69 71 77 
3 72 73 80 
3 69 77 74 
3 77 71 83 
3 80 78 72 
3 73 76 79 
3 75 74 77 
3 73 79 80 
3 74 75 81 
3 71 78 83 
3 79 82 80 
3 79 76 82 
3 87 82 76 
3 84 81 75 
3 78 80 83 
3 87 81 84 
3 75 77 84 
3 89 83 80 
3 77 83 86 
3 80 82 89 
3 84 77 92 
3 92 77 86 
3 84 85 87 
3 89 82 88 
3 83 89 91 
3 87 85 90 
3 92 86 83 
3 87 90 82 
3 89 92 91 
3 83 91 92 
3 89 88 92 
3 90 88 82 
3 85 92 90 
3 90 92 88 
3 85 84 92 
3 98 95 94 
3 95 93 96 
3 98 97 93 
3 107 98 94 
3 96 93 99 
3 99 93 97 
3 94 95 100 
3 100 95 101 
3 97 98 107 
3 99 97 104 
3 95 102 101 
3 95 96 102 
3 103 96 105 
3 96 99 105 
3 105 99 106 
3 99 104 106 
3 104 97 107 
3 107 94 108 
3 100 101 115 
3 104 112 106 
3 107 109 104 
3 107 108 121 
3 101 116 115 
3 101 102 116 
3 96 110 102 
3 96 103 110 
3 105 106 111 
3 104 124 112 
3 124 104 109 
3 107 120 109 
3 94 113 108 
3 94 100 113 
3 102 110 116 
3 110 103 117 
3 117 103 105 
3 106 118 111 
3 106 112 118 
3 112 119 118 
3 112 127 119 
3 112 124 127 
3 107 121 120 
3 108 113 121 
3 113 100 114 
3 114 100 115 
3 116 110 125 
3 110 136 125 
3 110 117 136 
3 105 111 122 
3 124 123 127 
3 109 128 124 
3 120 128 109 
3 114 115 134 
3 115 131 134 
3 115 125 131 
3 116 125 115 
3 117 105 122 
3 122 111 126 
3 124 128 123 
3 128 120 129 
3 121 130 120 
3 120 130 129 
3 114 147 113 
3 117 122 126 
3 111 132 126 
3 111 118 132 
3 119 127 133 
3 133 127 123 
3 128 129 139 
3 113 147 142 
3 114 134 147 
3 131 125 135 
3 136 117 126 
3 137 118 138 
3 118 119 138 
3 119 133 138 
3 123 128 139 
3 129 130 140 
3 121 141 130 
3 130 141 140 
3 121 113 141 
3 142 141 113 
3 134 131 143 
3 131 135 148 
3 135 125 144 
3 125 136 144 
3 136 149 144 
3 132 118 137 
3 133 123 145 
3 139 129 146 
3 129 140 146 
3 134 143 147 
3 135 144 149 
3 136 126 150 
3 132 151 157 
3 132 137 151 
3 138 133 152 
3 133 145 152 
3 145 123 153 
3 123 139 153 
3 153 139 161 
3 140 141 154 
3 154 141 142 
3 143 131 165 
3 131 148 165 
3 136 156 149 
3 136 150 156 
3 150 126 157 
3 126 132 157 
3 157 151 158 
3 137 138 159 
3 152 145 160 
3 160 145 153 
3 146 161 139 
3 146 140 162 
3 162 140 154 
3 154 142 163 
3 142 147 155 
3 155 147 164 
3 143 170 147 
3 143 165 170 
3 148 166 165 
3 135 166 148 
3 135 167 166 
3 149 167 135 
3 150 157 158 
3 158 151 168 
3 151 169 168 
3 137 169 151 
3 137 159 169 
3 152 160 138 
3 138 160 159 
3 146 162 161 
3 163 142 184 
3 164 147 170 
3 149 171 167 
3 149 156 171 
3 150 172 156 
3 172 150 158 
3 160 173 159 
3 153 174 160 
3 153 161 174 
3 154 175 162 
3 154 163 175 
3 142 176 184 
3 155 176 142 
3 164 170 177 
3 165 178 170 
3 166 178 165 
3 166 186 178 
3 167 186 166 
3 167 171 186 
3 156 172 171 
3 158 168 179 
3 179 168 180 
3 168 169 180 
3 159 173 189 
3 160 181 173 
3 173 181 189 
3 160 174 181 
3 161 162 182 
3 182 162 183 
3 162 175 183 
3 163 184 175 
3 176 155 194 
3 177 170 178 
3 186 185 178 
3 172 187 171 
3 171 187 186 
3 158 179 172 
3 180 169 188 
3 169 159 188 
3 174 196 181 
3 174 161 190 
3 190 161 182 
3 182 183 191 
3 175 191 183 
3 184 192 175 
3 175 192 191 
3 184 176 192 
3 192 176 193 
3 194 193 176 
3 155 164 194 
3 195 186 187 
3 189 181 196 
3 174 190 196 
3 164 214 194 
3 164 202 214 
3 164 177 202 
3 177 178 185 
3 195 187 197 
3 187 172 197 
3 197 172 198 
3 172 179 198 
3 159 217 188 
3 199 196 190 
3 191 219 182 
3 191 192 200 
3 200 192 201 
3 192 193 201 
3 193 194 201 
3 177 206 202 
3 177 185 206 
3 185 186 195 
3 179 180 203 
3 188 212 180 
3 180 212 203 
3 188 217 212 
3 159 189 217 
3 189 196 204 
3 204 196 199 
3 199 190 205 
3 182 205 190 
3 182 219 205 
3 191 200 219 
3 185 207 206 
3 195 207 185 
3 207 195 208 
3 197 209 195 
3 195 209 208 
3 198 179 210 
3 210 179 211 
3 211 179 203 
3 217 189 204 
3 200 201 230 
3 201 194 213 
3 194 214 213 
3 206 221 202 
3 207 221 206 
3 207 208 222 
3 197 210 209 
3 198 210 197 
3 212 217 215 
3 215 217 216 
3 199 205 226 
3 205 218 226 
3 219 218 205 
3 219 200 220 
3 200 230 220 
3 201 228 230 
3 201 213 228 
3 214 202 221 
3 207 222 221 
3 203 224 211 
3 203 212 224 
3 212 215 224 
3 204 225 217 
3 204 234 225 
3 204 226 234 
3 199 226 204 
3 218 219 227 
3 227 219 220 
3 213 214 228 
3 222 208 229 
3 210 208 209 
3 210 223 208 
3 210 211 223 
3 217 225 216 
3 226 218 227 
3 214 221 231 
3 221 222 232 
3 233 224 216 
3 224 215 216 
3 226 235 234 
3 241 220 243 
3 220 230 243 
3 214 231 228 
3 231 221 232 
3 232 222 229 
3 224 233 211 
3 226 227 237 
3 220 241 227 
3 230 228 243 
3 238 231 232 
3 223 211 233 
3 233 216 240 
3 234 235 225 
3 226 237 235 
3 208 223 229 
3 223 233 239 
3 233 240 239 
3 216 236 240 
3 216 225 236 
3 225 235 236 
3 227 241 237 
3 231 243 228 
3 238 244 231 
3 231 244 243 
3 238 232 229 
3 229 223 239 
3 236 235 237 
3 240 245 239 
3 240 236 245 
3 247 237 241 
3 238 229 244 
3 245 246 239 
3 241 243 247 
3 229 239 242 
3 242 239 246 
3 237 245 236 
3 237 247 245 
3 244 229 242 
3 245 247 246 
3 244 247 243 
3 244 242 247 
3 95 98 93 
3 247 242 246 
3 252 249 248 
3 249 252 250 
3 257 252 248 
3 251 252 257 
3 253 250 254 
3 250 252 254 
3 252 251 254 
3 248 249 258 
3 257 261 251 
3 249 255 258 
3 250 255 249 
3 250 253 255 
3 254 259 256 
3 254 251 259 
3 251 260 259 
3 251 261 260 
3 257 262 261 
3 257 248 258 
3 255 268 264 
3 255 253 268 
3 254 256 253 
3 261 263 260 
3 258 266 284 
3 258 264 266 
3 255 264 258 
3 253 256 268 
3 262 265 261 
3 258 273 257 
3 256 267 268 
3 256 259 267 
3 261 265 269 
3 257 273 283 
3 258 284 273 
3 266 264 278 
3 263 261 269 
3 262 257 265 
3 283 265 257 
3 264 268 278 
3 268 271 278 
3 267 259 274 
3 269 265 270 
3 267 274 268 
3 259 260 280 
3 260 263 280 
3 263 269 275 
3 268 272 271 
3 274 259 279 
3 270 275 269 
3 265 283 276 
3 272 268 274 
3 274 279 288 
3 259 280 279 
3 277 273 284 
3 271 287 278 
3 271 272 287 
3 286 272 274 
3 263 281 280 
3 263 275 281 
3 265 282 270 
3 265 276 282 
3 266 285 284 
3 278 285 266 
3 278 287 285 
3 272 286 287 
3 274 288 286 
3 279 280 289 
3 280 281 289 
3 275 270 290 
3 290 270 282 
3 283 273 301 
3 281 294 289 
3 281 275 290 
3 276 291 282 
3 276 283 291 
3 291 283 292 
3 301 292 283 
3 273 277 301 
3 293 285 287 
3 281 290 294 
3 284 285 293 
3 293 287 295 
3 287 286 295 
3 279 303 288 
3 304 294 290 
3 282 304 290 
3 286 288 300 
3 288 303 300 
3 279 289 303 
3 289 294 296 
3 296 294 304 
3 282 291 304 
3 295 298 293 
3 293 298 297 
3 295 286 299 
3 299 286 300 
3 303 289 296 
3 284 306 277 
3 293 306 284 
3 300 303 302 
3 304 291 305 
3 291 292 305 
3 301 277 306 
3 293 297 306 
3 296 309 303 
3 296 307 309 
3 304 307 296 
3 307 304 305 
3 295 297 298 
3 303 309 302 
3 301 306 308 
3 311 300 302 
3 301 308 292 
3 300 311 299 
3 295 299 311 
3 311 302 312 
3 307 310 309 
3 302 309 312 
3 307 305 310 
3 308 305 292 
3 306 310 308 
3 308 310 305 
3 297 295 311 
3 306 297 310 
3 297 311 312 
3 310 312 309 
3 310 297 312 
3 315 314 313 
3 316 314 317 
3 314 315 317 
3 313 314 318 
3 313 320 315 
3 314 329 318 
3 314 316 329 
3 317 315 319 
3 315 320 319 
3 329 316 322 
3 320 326 319 
3 318 329 335 
3 316 317 322 
3 313 321 320 
3 318 324 313 
3 318 335 324 
3 324 321 313 
3 317 319 325 
3 320 321 328 
3 317 325 322 
3 325 319 331 
3 328 326 320 
3 321 324 327 
3 323 322 325 
3 321 327 328 
3 322 323 329 
3 319 326 331 
3 327 330 328 
3 327 324 330 
3 335 330 324 
3 332 329 323 
3 326 328 331 
3 335 329 332 
3 323 325 332 
3 337 331 328 
3 325 331 334 
3 328 330 337 
3 332 325 340 
3 340 325 334 
3 332 333 335 
3 337 330 336 
3 331 337 339 
3 335 333 338 
3 340 334 331 
3 335 338 330 
3 337 340 339 
3 331 339 340 
3 337 336 340 
3 338 336 330 
3 333 340 338 
3 338 340 336 
3 333 332 340 
3 343 342 341 
3 344 342 345 
3 342 343 345 
3 341 342 346 
3 341 348 343 
3 342 357 346 
3 342 344 357 
3 345 343 347 
3 343 348 347 
3 357 344 350 
3 348 354 347 
3 346 357 363 
3 344 345 350 
3 341 349 348 
3 346 352 341 
3 346 363 352 
3 352 349 341 
3 345 347 353 
3 348 349 356 
3 345 353 350 
3 353 347 359 
3 356 354 348 
3 349 352 355 
3 351 350 353 
3 349 355 356 
3 350 351 357 
3 347 354 359 
3 355 358 356 
3 355 352 358 
3 363 358 352 
3 360 357 351 
3 354 356 359 
3 363 357 360 
3 351 353 360 
3 365 359 356 
3 353 359 362 
3 356 358 365 
3 360 353 368 
3 368 353 362 
3 360 361 363 
3 365 358 364 
3 359 365 367 
3 363 361 366 
3 368 362 359 
3 363 366 358 
3 365 368 367 
3 359 367 368 
3 365 364 368 
3 366 364 358 
3 361 368 366 
3 366 368 364 
3 361 360 368 
