ply
format ascii 1.0
comment VCGLIB generated
comment TextureFile Textures/Combined_Texture/Texture_01_A.png
element vertex 16
property float x
property float y
property float z
property float nx
property float ny
property float nz
property uchar red
property uchar green
property uchar blue
property uchar alpha
property float texture_u
property float texture_v
element face 28
property list uchar int vertex_indices
end_header
0.001013 -0 0.001433 0.4266992 0.03404741 0.9037526 255 255 255 255 0.470560 0.227824
-0.000721 0.001517 -0.000689 -0.4095981 0.7641901 -0.4982399 255 255 255 255 0.470560 0.227824
0.000407 0.001635 -0.000641 0.2339688 0.8938464 -0.3824882 255 255 255 255 0.470560 0.227824
-0.000614 0.001637 0.000917 -0.3611438 0.7952446 0.4869919 255 255 255 255 0.470560 0.227824
-0.001827 0 -0.000251 -0.9891555 0.14167 0.03874401 255 255 255 255 0.470560 0.227824
-0.001489 0 -0.001684 -0.417284 0.09973998 -0.9032862 255 255 255 255 0.470560 0.227824
0.001013 0 -0.001433 0.7097219 0.1986096 -0.6759061 255 255 255 255 0.470560 0.227824
0.001351 0 0 0.9982263 -0.03235322 0.04997423 255 255 255 255 0.470560 0.227824
-0.001014 -0 0.001433 -0.6336377 -0.0116955 0.7735415 255 255 255 255 0.470560 0.227824
0.000825 0.001635 0.000742 0.7458389 0.6425933 0.1754942 255 255 255 255 0.470560 0.227824
-0.00129 -0.000971 -0.001437 -0.6253358 -0.6035531 -0.4946502 255 255 255 255 0.470560 0.227824
0.000814 -0.000971 -0.001226 0.2152623 -0.8870907 -0.4083285 255 255 255 255 0.470560 0.227824
-0.000891 -0.000971 0.001186 -0.2373102 -0.7325225 0.6380397 255 255 255 255 0.470560 0.227824
-0.001575 -0.000971 -0.000231 -0.6993279 -0.6961902 0.1620482 255 255 255 255 0.470560 0.227824
0.001098 -0.000971 -2e-05 0.8510579 -0.5207648 -0.06711531 255 255 255 255 0.470560 0.227824
0.000814 -0.000971 0.001186 0.5209184 -0.7589943 0.3906043 255 255 255 255 0.470560 0.227824
3 9 3 0 
3 8 0 3 
3 8 3 4 
3 3 2 1 
3 4 3 1 
3 2 6 1 
3 5 1 6 
3 7 9 0 
3 7 6 9 
3 9 6 2 
3 9 2 3 
3 5 4 1 
3 5 6 11 
3 5 11 10 
3 8 4 13 
3 8 13 12 
3 6 7 14 
3 6 14 11 
3 0 8 12 
3 0 12 15 
3 7 0 15 
3 7 15 14 
3 4 5 10 
3 4 10 13 
3 11 14 15 
3 11 15 12 
3 11 12 13 
3 11 13 10 
