ply
format ascii 1.0
comment VCGLIB generated
comment TextureFile Textures/Combined_Texture/Texture_01_A.png
element vertex 38
property float x
property float y
property float z
property float nx
property float ny
property float nz
property uchar red
property uchar green
property uchar blue
property uchar alpha
property float texture_u
property float texture_v
element face 52
property list uchar int vertex_indices
end_header
-0.001824 -0.000523 0.000799 -0.07931877 0.722299 0.6870173 255 255 255 255 0.470560 0.227824
-0.001919 0.000832 -0.00076 0.1688226 0.7649216 0.6216059 255 255 255 255 0.470560 0.227824
-0.002287 0.000833 -0.003653 0.01574022 0.6697138 -0.7424525 255 255 255 255 0.470560 0.227824
-0.000808 0.000832 -0.002946 0.3173189 0.8708177 -0.3754802 255 255 255 255 0.470560 0.227824
-0.003191 0.000833 -0.001235 -0.3544109 0.8240041 0.4420524 255 255 255 255 0.470560 0.227824
-0.003878 0.000208 -0.003145 -0.7233218 0.5974067 -0.3462817 255 255 255 255 0.470560 0.227824
-0.003322 0.001042 -0.002839 -0.3400878 0.9349988 -0.1005864 255 255 255 255 0.470560 0.227824
-0.001971 -0.000523 -0.004531 0.06535863 0.5530329 -0.8305919 255 255 255 255 0.470560 0.227824
0.000309 -0.000523 -0.0034 0.6495723 0.637515 -0.4142832 255 255 255 255 0.470560 0.227824
-0.000381 0.000676 -0.001217 0.6895471 0.6869687 0.229344 255 255 255 255 0.470560 0.227824
-0.004723 -0.000523 -0.000904 -0.6699512 0.6829928 0.2910091 255 255 255 255 0.470560 0.227824
0.000422 -0.000523 -0.000638 0.5731643 0.6850284 0.4496872 255 255 255 255 0.470560 0.227824
-0.000945 0.001196 -0.001677 0.2448815 0.9693242 0.02106232 255 255 255 255 0.470560 0.227824
-0.004177 -0.000523 -0.003753 -0.5491905 0.5640358 -0.6166469 255 255 255 255 0.470560 0.227824
-0.000547 -0.000523 -0.002778 -0.7226287 0.5189641 0.4566005 255 255 255 255 0.470560 0.227824
0.001579 0.000472 -0.005027 0.5507584 0.7691034 -0.3242609 255 255 255 255 0.470560 0.227824
0.001588 0.000288 -0.003708 0.319579 0.6333635 0.7047837 255 255 255 255 0.470560 0.227824
-0.000388 0.00055 -0.004625 -0.5020084 0.851419 -0.151899 255 255 255 255 0.470560 0.227824
0.000529 -0.000523 -0.00611 -0.2209689 0.5795714 -0.7843914 255 255 255 255 0.470560 0.227824
0.002135 -0.000523 -0.005796 0.6356367 0.6620556 -0.3970497 255 255 255 255 0.470560 0.227824
0.002308 -0.000523 -0.003262 0.3195806 0.6333607 0.7047853 255 255 255 255 0.470560 0.227824
0.000937 -0.000523 -0.002684 0.3195785 0.6333601 0.7047868 255 255 255 255 0.470560 0.227824
-0.00089 -0.000523 -0.004797 -0.8530262 0.4432428 -0.2754671 255 255 255 255 0.470560 0.227824
-5.9e-05 0.000549 -0.003326 -0.2514793 0.7640957 0.5940673 255 255 255 255 0.470560 0.227824
0.000617 0.000511 -0.005365 -0.02559058 0.9505085 -0.3096429 255 255 255 255 0.470560 0.227824
0.000736 0.000288 -0.003278 0.3195791 0.6333611 0.7047857 255 255 255 255 0.470560 0.227824
0.001794 -0.000523 0.00329 -0.6636397 0.5563961 0.5000058 255 255 255 255 0.470560 0.227824
0.004211 0.000526 0.000248 0.5268376 0.7509363 -0.3981668 255 255 255 255 0.470560 0.227824
0.004365 0.000823 0.001898 0.3737153 0.5520977 0.7453355 255 255 255 255 0.470560 0.227824
0.001795 0.000824 0.000963 -0.5212924 0.8458294 -0.1132561 255 255 255 255 0.470560 0.227824
0.002782 -0.000523 -0.000994 -0.2792662 0.623088 -0.7305968 255 255 255 255 0.470560 0.227824
0.004824 -0.000523 -0.000773 0.5510399 0.724695 -0.4137295 255 255 255 255 0.470560 0.227824
0.005313 -0.000523 0.002377 0.373717 0.5520921 0.7453389 255 255 255 255 0.470560 0.227824
0.003661 -0.000523 0.003248 0.3737136 0.5520912 0.7453412 255 255 255 255 0.470560 0.227824
0.001148 -0.000523 0.000801 -0.8732654 0.4436742 -0.2013974 255 255 255 255 0.470560 0.227824
0.002346 0.000608 0.002552 -0.2324778 0.7428727 0.6277694 255 255 255 255 0.470560 0.227824
0.002972 0.000575 -7e-05 -0.01125912 0.9089012 -0.4168596 255 255 255 255 0.470560 0.227824
0.003345 0.000608 0.002526 0.373714 0.5520924 0.7453401 255 255 255 255 0.470560 0.227824
3 1 4 0 
3 10 0 4 
3 4 6 10 
3 10 6 5 
3 6 3 2 
3 5 6 2 
3 3 8 2 
3 7 2 8 
3 11 8 9 
3 9 1 11 
3 11 1 0 
3 9 12 1 
3 9 8 12 
3 12 8 3 
3 12 3 6 
3 1 12 4 
3 4 12 6 
3 13 10 5 
3 7 13 2 
3 2 13 5 
3 23 17 14 
3 22 14 17 
3 22 17 18 
3 24 16 15 
3 18 24 15 
3 16 20 15 
3 19 15 20 
3 21 23 14 
3 23 21 25 
3 23 25 17 
3 19 18 15 
3 18 17 24 
3 17 16 24 
3 25 21 20 
3 25 20 16 
3 17 25 16 
3 35 29 26 
3 34 26 29 
3 34 29 30 
3 36 28 27 
3 30 36 27 
3 28 32 27 
3 31 27 32 
3 33 35 26 
3 35 33 37 
3 35 37 29 
3 31 30 27 
3 30 29 36 
3 29 28 36 
3 37 33 32 
3 37 32 28 
3 29 37 28 
