ply
format ascii 1.0
comment VCGLIB generated
comment TextureFile Textures//Combined_Texture//Texture_01_A.png
element vertex 130
property float x
property float y
property float z
property float nx
property float ny
property float nz
property uchar red
property uchar green
property uchar blue
property uchar alpha
property float texture_u
property float texture_v
element face 226
property list uchar int vertex_indices
end_header
0.00501 0.005421 -0.005115 0.8069518 -0.4988853 -0.3161367 255 255 255 255 0.484484 0.226454
0.005773 0.006621 0.002519 0.879505 0.07903096 0.4692815 255 255 255 255 0.484484 0.226454
0.00561 0.008233 -0.005393 0.7483543 0.3512914 -0.562637 255 255 255 255 0.484484 0.226454
0.004493 0.009752 0.001468 0.3913043 0.8801178 0.2688376 255 255 255 255 0.484484 0.226454
0.002805 0.009193 0.004988 -0.1457441 0.8685958 0.4736032 255 255 255 255 0.484484 0.226454
0.001618 0.009653 -0.003983 -0.0519592 0.882309 -0.467794 255 255 255 255 0.484484 0.226454
5.9e-05 0.007891 0.004692 -0.3157671 0.787358 0.5294889 255 255 255 255 0.484484 0.226454
0.000372 0.010404 -0.00079 -0.03502222 0.9819505 0.1858673 255 255 255 255 0.484484 0.226454
0.001881 0.003773 -0.002357 -0.004586527 -0.9919379 -0.1266425 255 255 255 255 0.484484 0.226454
-0.004622 0.005263 -0.004256 -0.3428828 -0.7761423 -0.5291829 255 255 255 255 0.484484 0.226454
-0.004438 0.003943 0.002146 -0.4283437 -0.8889505 0.1621382 255 255 255 255 0.484484 0.226454
0.003821 0.004505 0.0035 0.309341 -0.9086167 0.2805779 255 255 255 255 0.484484 0.226454
-0.007014 0.006893 -0.001895 -0.9961746 -0.02560359 -0.08355048 255 255 255 255 0.484484 0.226454
-0.001633 0.003949 0.004655 -0.03439285 -0.8528769 0.5209782 255 255 255 255 0.484484 0.226454
0.007014 0.006401 0.000717 0.9815088 -0.1895623 0.02658176 255 255 255 255 0.484484 0.226454
0.005557 0.004586 -0.002384 0.822142 -0.5267562 -0.2158946 255 255 255 255 0.484484 0.226454
0.002487 0.008835 -0.006808 0.05986714 0.510379 -0.8578632 255 255 255 255 0.484484 0.226454
0.003003 0.005806 0.005867 0.2044393 -0.5562834 0.8054523 255 255 255 255 0.484484 0.226454
-0.003124 0.007448 0.005765 0.04551176 0.4729774 0.8798983 255 255 255 255 0.484484 0.226454
-0.005304 0.009249 -0.000664 -0.382861 0.9224473 -0.0500856 255 255 255 255 0.484484 0.226454
0.002117 0.005886 -0.006771 0.0275407 -0.6118294 -0.7905102 255 255 255 255 0.484484 0.226454
0.001962 0.007088 0.006425 -0.03714252 0.2471109 0.9682751 255 255 255 255 0.484484 0.226454
0.005792 0.009365 -0.000504 0.5403794 0.8214879 0.1820653 255 255 255 255 0.484484 0.226454
-0.006155 0.00847 0.002442 -0.6262589 0.7605749 0.1712474 255 255 255 255 0.484484 0.226454
0.004403 0.008202 0.004852 0.776266 0.3143249 0.5464531 255 255 255 255 0.484484 0.226454
0.000311 0.008571 -0.00572 -0.122762 0.8363253 -0.5343121 255 255 255 255 0.484484 0.226454
-0.003718 0.008373 0.003696 -0.03803721 0.8950441 0.4443526 255 255 255 255 0.484484 0.226454
0.003289 0.009957 -8.3e-05 0.03728904 0.9798601 0.1961727 255 255 255 255 0.484484 0.226454
0.004497 0.010068 -0.002674 0.2881742 0.9404665 -0.1802175 255 255 255 255 0.484484 0.226454
0.004255 0.008997 -0.00481 0.2696179 0.8836765 -0.3826514 255 255 255 255 0.484484 0.226454
-0.00151 0.008713 -0.004841 -0.127596 0.8996526 -0.4175458 255 255 255 255 0.484484 0.226454
-0.001566 0.009465 -0.003066 -0.2386995 0.9147907 -0.3258535 255 255 255 255 0.484484 0.226454
-0.001882 0.009741 -0.001236 -0.2537623 0.9669616 0.02428891 255 255 255 255 0.484484 0.226454
0.00244 0.009435 0.002482 -0.1705133 0.9615142 0.2154433 255 255 255 255 0.484484 0.226454
0.000804 0.009276 0.001863 -0.04449526 0.930214 0.3643106 255 255 255 255 0.484484 0.226454
-0.001356 0.008975 0.002627 0.03213051 0.8916584 0.4515671 255 255 255 255 0.484484 0.226454
0.005872 0.004845 0.00043 0.5368118 -0.838532 0.09325872 255 255 255 255 0.484484 0.226454
0.004387 0.004144 -0.00378 0.2607471 -0.8986267 -0.3528188 255 255 255 255 0.484484 0.226454
0.001232 0.004068 0.003549 0.1450496 -0.9645109 0.220634 255 255 255 255 0.484484 0.226454
-0.000367 0.004605 -0.004798 -0.07870747 -0.8647859 -0.4959341 255 255 255 255 0.484484 0.226454
-0.001536 0.004059 -0.003176 -0.1084593 -0.9733089 -0.2022533 255 255 255 255 0.484484 0.226454
-0.004439 0.00415 -0.001399 -0.2474957 -0.9528633 -0.1754922 255 255 255 255 0.484484 0.226454
-0.001554 0.0037 0.001653 -0.07173271 -0.9966028 -0.04046532 255 255 255 255 0.484484 0.226454
-0.00253 0.004022 0.003292 -0.1654018 -0.9680822 0.1883058 255 255 255 255 0.484484 0.226454
0.005996 0.006796 -0.003858 0.9240526 -0.2297213 -0.3055404 255 255 255 255 0.484484 0.226454
-0.001886 0.007596 -0.005951 -0.1192246 0.3312107 -0.9359941 255 255 255 255 0.484484 0.226454
-0.005664 0.006738 -0.004619 -0.5221889 -0.3481634 -0.778525 255 255 255 255 0.484484 0.226454
0.00576 0.005241 0.001708 0.7357414 -0.6217959 0.2684299 255 255 255 255 0.484484 0.226454
0.004661 0.006269 -0.006434 0.487893 -0.3068964 -0.817175 255 255 255 255 0.484484 0.226454
-0.001237 0.006015 -0.006025 -0.2509451 -0.4425779 -0.8609015 255 255 255 255 0.484484 0.226454
-0.005937 0.005963 -0.003007 -0.7180741 -0.5674295 -0.4029804 255 255 255 255 0.484484 0.226454
-0.0061 0.004935 -0.001355 -0.7128552 -0.6980194 -0.06787085 255 255 255 255 0.484484 0.226454
0.005632 0.008245 -0.004129 0.8082867 0.5194877 -0.2771375 255 255 255 255 0.484484 0.226454
0.001396 0.007337 -0.006886 -0.2388773 0.1407467 -0.9607955 255 255 255 255 0.484484 0.226454
-0.005682 0.007405 -0.003995 -0.7571342 0.4126449 -0.5064307 255 255 255 255 0.484484 0.226454
0.004816 0.00579 0.004146 0.6714029 -0.1694505 0.7214601 255 255 255 255 0.484484 0.226454
0.006498 0.007526 -0.002163 0.9897301 0.1299367 -0.05958817 255 255 255 255 0.484484 0.226454
-0.006181 0.007852 -0.001495 -0.6682966 0.7410882 -0.06456043 255 255 255 255 0.484484 0.226454
-0.006196 0.007881 0.001277 -0.7822924 0.6101928 0.1252332 255 255 255 255 0.484484 0.226454
-0.003387 0.004815 0.004861 -0.5250895 -0.5308836 0.6651644 255 255 255 255 0.484484 0.226454
0.003656 0.008287 -0.00634 0.4348623 0.5075352 -0.7438434 255 255 255 255 0.484484 0.226454
-0.004107 0.008519 -0.003554 -0.3554829 0.8916901 -0.2802157 255 255 255 255 0.484484 0.226454
-0.001265 0.007594 0.004337 0.1456173 0.6843189 0.7144952 255 255 255 255 0.484484 0.226454
-0.001122 0.006008 0.005421 -0.1017645 -0.1150578 0.9881324 255 255 255 255 0.484484 0.226454
0.006125 0.008105 0.001139 0.8703353 0.4329338 0.2347016 255 255 255 255 0.484484 0.226454
0.005199 0.008197 0.002931 0.6952206 0.5870254 0.4148126 255 255 255 255 0.484484 0.226454
0.003985 0.003869 -0.000654 0.2086053 -0.976032 0.06201197 255 255 255 255 0.484484 0.226454
-0.000107 0.003617 0.001814 0.06717607 -0.9943522 0.08216489 255 255 255 255 0.484484 0.226454
-0.003627 0.00824 -0.006169 -0.3735529 0.4909791 -0.7870184 255 255 255 255 0.484484 0.226454
-0.006219 0.005748 0.001253 -0.87123 -0.3694841 0.3231713 255 255 255 255 0.484484 0.226454
0.006162 0.005869 0.003281 0.7574919 -0.509603 0.4080576 255 255 255 255 0.484484 0.226454
-0.00599 0.008382 -0.003362 -0.5785268 0.7750874 -0.2540596 255 255 255 255 0.484484 0.226454
0.001188 0.004525 0.004932 0.09019791 -0.7148691 0.6934166 255 255 255 255 0.484484 0.226454
0.006375 0.007884 0.002356 0.8741119 0.2030065 0.4412673 255 255 255 255 0.484484 0.226454
0.00656 0.008908 -0.001357 0.8343705 0.5093753 -0.2106247 255 255 255 255 0.484484 0.226454
0.003195 0.008024 0.005837 0.5101897 0.08985668 0.8553551 255 255 255 255 0.484484 0.226454
0.003762 0.009023 0.003797 0.3912168 0.8743168 0.2872622 255 255 255 255 0.484484 0.226454
-0.005276 0.008012 0.004996 -0.7636913 -0.02497364 0.6450984 255 255 255 255 0.484484 0.226454
0.004578 0.010317 -0.00092 0.2524355 0.9545297 0.1585857 255 255 255 255 0.484484 0.226454
-0.000699 0.008754 -0.006004 -0.2535431 0.723453 -0.6421306 255 255 255 255 0.484484 0.226454
-0.002587 0.009365 -0.003908 -0.25651 0.887033 -0.3838946 255 255 255 255 0.484484 0.226454
0.002418 0.010636 -0.002767 -0.03066061 0.9702469 -0.2401686 255 255 255 255 0.484484 0.226454
-0.000566 0.010517 -0.002173 -0.1707128 0.9535855 -0.2480561 255 255 255 255 0.484484 0.226454
-0.002679 0.009323 0.001213 -0.2191849 0.9678455 0.1234227 255 255 255 255 0.484484 0.226454
-0.002438 0.009458 0.002687 -0.111324 0.9428259 0.3141438 255 255 255 255 0.484484 0.226454
0.001458 -0.002586 0.000717 0.4103816 0.1112545 0.9051019 255 255 255 255 0.495422 0.175340
0.001687 -0.002586 0.000413 0.4943698 -0.04166006 -0.8682528 255 255 255 255 0.495422 0.175340
0.001458 0.004281 0.000717 -0.3432755 -0.1360882 0.9293234 255 255 255 255 0.495422 0.175340
0.001687 0.004281 0.000413 0.9746743 -0.1908686 0.1165297 255 255 255 255 0.495422 0.175340
0.001184 0.004281 0.000413 -0.4824666 0.2573888 -0.8372437 255 255 255 255 0.495422 0.175340
0.001184 -0.002586 0.000413 -0.9726685 -0.05071607 0.2265918 255 255 255 255 0.495422 0.175340
0.000832 0.002221 -1.8e-05 -0.918377 0.00175519 -0.3957025 255 255 255 255 0.495422 0.175340
0.001107 0.002221 0.000285 0.03017236 -0.1047711 0.9940386 255 255 255 255 0.495422 0.175340
0.001335 0.002221 -1.8e-05 0.8896514 0.1092831 -0.4433707 255 255 255 255 0.495422 0.175340
-0.001934 -0.002586 9e-06 -0.9743683 -0.1928735 0.1157853 255 255 255 255 0.495422 0.175340
-0.001705 -0.002586 0.000313 0.6200411 -0.04035524 0.7835308 255 255 255 255 0.495422 0.175340
-0.003344 0.004281 0.001071 -0.7091093 -0.1456828 -0.6898845 255 255 255 255 0.495422 0.175340
-0.003114 0.004281 0.001374 -0.3791996 -0.1693615 0.9096836 255 255 255 255 0.495422 0.175340
-0.002936 0.004281 0.000944 0.9534035 0.2716531 -0.1312496 255 255 255 255 0.495422 0.175340
-0.001527 -0.002586 -0.000117 0.2104213 0.218078 -0.9529769 255 255 255 255 0.495422 0.175340
-0.002369 0.002221 0.000797 0.7194395 0.1941913 -0.6668558 255 255 255 255 0.495422 0.175340
-0.002777 0.002221 0.000923 -0.9350865 -0.1490739 -0.3215435 255 255 255 255 0.495422 0.175340
-0.002548 0.002221 0.001227 0.1378342 -0.07426338 0.9876673 255 255 255 255 0.495422 0.175340
0.000871 -0.002586 -0.001431 0.3421446 -0.1675995 -0.9245796 255 255 255 255 0.495422 0.175340
0.000474 -0.002586 -0.001366 -0.9474729 -0.0392292 0.3174211 255 255 255 255 0.495422 0.175340
0.000397 0.004281 -0.003042 0.9188408 -0.1346072 -0.3709615 255 255 255 255 0.495422 0.175340
0 0.004281 -0.002977 -0.6224016 -0.1709667 -0.7637975 255 255 255 255 0.495422 0.175340
0.000354 0.004281 -0.002651 -0.2017021 0.2528866 0.9462371 255 255 255 255 0.495422 0.175340
0.000828 -0.002586 -0.001039 0.7863367 0.2213008 0.5768021 255 255 255 255 0.495422 0.175340
0.000267 0.002221 -0.002119 0.3510847 0.181679 0.918549 255 255 255 255 0.495422 0.175340
0.00031 0.002221 -0.00251 0.6934363 -0.1254008 -0.7095216 255 255 255 255 0.495422 0.175340
-8.7e-05 0.002221 -0.002445 -0.9585994 -0.07585295 -0.2744696 255 255 255 255 0.495422 0.175340
0.000306 -0.002586 -0.000954 -0.1307403 0.1087244 0.985437 255 255 255 255 0.495422 0.175340
0.000677 -0.002586 -0.001099 0.8595392 -0.04855623 -0.5087579 255 255 255 255 0.495422 0.175340
0.000306 0.004281 -0.000954 -0.8015249 -0.1338481 0.5827885 255 255 255 255 0.495422 0.175340
0.000677 0.004281 -0.001099 0.7678111 -0.1774717 0.6156054 255 255 255 255 0.495422 0.175340
0.000251 0.004281 -0.001344 -0.01040215 0.2522535 -0.9676053 255 255 255 255 0.495422 0.175340
0.000251 -0.002586 -0.001344 -0.9293644 -0.04973759 -0.3657977 255 255 255 255 0.495422 0.175340
0.000205 0.002221 -0.00188 -0.5690686 0.001651742 -0.8222885 255 255 255 255 0.495422 0.175340
0.00026 0.002221 -0.00149 -0.5134918 -0.103133 0.8518743 255 255 255 255 0.495422 0.175340
0.000631 0.002221 -0.001636 0.9903557 0.1160702 0.0756527 255 255 255 255 0.495422 0.175340
0.003293 -0.002586 -0.001407 -0.9316539 0.09334964 0.3511508 255 255 255 255 0.495422 0.175340
0.003591 -0.002586 -0.001158 0.7732186 -0.125401 0.621617 255 255 255 255 0.495422 0.175340
0.003293 0.004281 -0.001407 -0.8475465 -0.1606808 -0.5058129 255 255 255 255 0.495422 0.175340
0.003591 0.004281 -0.001158 -0.1781341 0.03785889 0.9832777 255 255 255 255 0.495422 0.175340
0.003659 0.004281 -0.001613 0.9258308 0.115699 -0.3597929 255 255 255 255 0.495422 0.175340
0.003659 -0.002586 -0.001613 0.00401957 0.05180286 -0.9986492 255 255 255 255 0.495422 0.175340
0.004118 0.001234 -0.001413 0.5637817 -0.09530629 -0.8204066 255 255 255 255 0.495422 0.175340
0.003751 0.001234 -0.001207 -0.9961087 0.006680209 -0.08788073 255 255 255 255 0.495422 0.175340
0.004049 0.001234 -0.000958 0.3453941 0.07340307 0.9355826 255 255 255 255 0.495422 0.175340
3 37 66 8 
3 15 36 37 
3 37 36 66 
3 11 66 36 
3 8 66 67 
3 38 67 11 
3 11 67 66 
3 13 67 38 
3 8 39 37 
3 48 37 20 
3 20 37 39 
3 0 37 48 
3 9 40 41 
3 8 42 40 
3 10 41 42 
3 42 41 40 
3 10 42 43 
3 8 67 42 
3 13 43 67 
3 67 43 42 
3 8 40 39 
3 9 39 40 
3 37 44 15 
3 0 44 37 
3 45 49 68 
3 9 46 49 
3 49 46 68 
3 11 36 47 
3 15 14 36 
3 14 47 36 
3 9 49 39 
3 20 39 49 
3 9 41 50 
3 50 41 51 
3 10 51 41 
3 50 51 12 
3 12 51 69 
3 59 69 10 
3 10 69 51 
3 11 72 38 
3 13 38 72 
3 74 44 52 
3 0 48 44 
3 52 44 2 
3 2 44 48 
3 49 53 20 
3 20 53 16 
3 45 53 49 
3 12 54 50 
3 50 54 46 
3 68 46 54 
3 50 46 9 
3 11 17 72 
3 21 17 55 
3 17 11 55 
3 1 55 70 
3 47 70 11 
3 11 70 55 
3 14 1 47 
3 47 1 70 
3 14 44 56 
3 15 44 14 
3 74 56 44 
3 69 58 12 
3 12 58 57 
3 57 58 19 
3 10 43 59 
3 13 59 43 
3 20 16 48 
3 16 60 48 
3 2 48 60 
3 57 71 12 
3 12 71 54 
3 19 61 57 
3 57 61 71 
3 68 54 61 
3 61 54 71 
3 18 77 59 
3 69 59 77 
3 59 63 18 
3 18 63 62 
3 13 63 59 
3 6 62 63 
3 63 72 17 
3 63 13 72 
3 14 64 1 
3 1 64 73 
3 3 65 64 
3 64 65 73 
3 65 1 73 
3 3 64 22 
3 22 64 74 
3 14 56 64 
3 64 56 74 
3 19 58 83 
3 83 58 23 
3 69 23 58 
3 55 75 21 
3 1 24 55 
3 55 24 75 
3 4 75 24 
3 4 24 76 
3 1 65 24 
3 24 65 76 
3 3 76 65 
3 45 25 53 
3 53 25 16 
3 63 17 21 
3 6 63 21 
3 26 77 18 
3 26 23 77 
3 69 77 23 
3 7 27 28 
3 28 27 78 
3 3 22 27 
3 27 22 78 
3 74 28 22 
3 22 28 78 
3 52 29 74 
3 74 29 28 
3 2 29 52 
3 5 28 29 
3 5 29 25 
3 2 60 29 
3 25 29 16 
3 16 29 60 
3 68 30 45 
3 45 30 79 
3 5 25 30 
3 30 25 79 
3 45 79 25 
3 19 31 61 
3 61 31 80 
3 5 30 31 
3 31 30 80 
3 68 61 30 
3 30 61 80 
3 6 21 4 
3 4 21 75 
3 28 81 7 
3 7 81 5 
3 5 81 28 
3 19 32 31 
3 31 32 82 
3 5 82 7 
3 7 82 32 
3 31 82 5 
3 7 32 83 
3 19 83 32 
3 76 33 4 
3 3 33 76 
3 6 4 33 
3 3 27 33 
3 34 27 7 
3 6 33 34 
3 34 33 27 
3 18 35 26 
3 26 35 84 
3 84 35 83 
3 7 83 35 
3 26 84 23 
3 23 84 83 
3 34 35 6 
3 6 35 62 
3 7 35 34 
3 18 62 35 
3 92 93 88 
3 92 88 87 
3 89 88 93 
3 89 93 91 
3 91 92 87 
3 91 87 89 
3 90 85 92 
3 90 92 91 
3 85 86 93 
3 85 93 92 
3 91 93 86 
3 91 86 90 
3 101 102 97 
3 101 97 96 
3 98 97 102 
3 98 102 100 
3 100 101 96 
3 100 96 98 
3 99 94 101 
3 99 101 100 
3 94 95 102 
3 94 102 101 
3 100 102 95 
3 100 95 99 
3 110 111 106 
3 110 106 105 
3 107 106 111 
3 107 111 109 
3 109 110 105 
3 109 105 107 
3 108 103 110 
3 108 110 109 
3 103 104 111 
3 103 111 110 
3 109 111 104 
3 109 104 108 
3 119 120 115 
3 119 115 114 
3 116 115 120 
3 116 120 118 
3 118 119 114 
3 118 114 116 
3 117 112 119 
3 117 119 118 
3 112 113 120 
3 112 120 119 
3 118 120 113 
3 118 113 117 
3 128 129 124 
3 128 124 123 
3 125 124 129 
3 125 129 127 
3 127 128 123 
3 127 123 125 
3 126 121 128 
3 126 128 127 
3 121 122 129 
3 121 129 128 
3 127 129 122 
3 127 122 126 
