ply
format ascii 1.0
comment VCGLIB generated
comment TextureFile Textures//Combined_Texture//Texture_01_A.png
element vertex 117
property float x
property float y
property float z
property float nx
property float ny
property float nz
property uchar red
property uchar green
property uchar blue
property uchar alpha
property float texture_u
property float texture_v
element face 230
property list uchar int vertex_indices
end_header
0.049237 0.041837 -0.072901 0.8009067 0.4974861 -0.3332508 255 255 255 255 0.351704 0.187790
0.069727 0.006841 -0.074023 0.9884201 -0.1361407 -0.06701791 255 255 255 255 0.351704 0.187790
-0.033003 0.049797 0.043572 -0.9114441 0.3373013 0.2355792 255 255 255 255 0.351704 0.187790
0.016611 0.038937 -0.113249 0.2389087 0.2962685 -0.9247419 255 255 255 255 0.351704 0.187790
-0.000137 0.081265 0.057873 -0.5780195 0.5508157 0.602076 255 255 255 255 0.351704 0.187790
-0.010204 0.040029 0.072462 -0.2031256 0.5374148 0.8184897 255 255 255 255 0.351704 0.187790
0.022525 0.052166 -0.107026 0.5901227 0.4319973 -0.682007 255 255 255 255 0.351704 0.187790
0.023311 0.002789 0.042939 0.2203816 -0.9468627 0.234271 255 255 255 255 0.351704 0.187790
0.05623 0.035822 -0.014022 0.8472067 0.5307694 -0.02290631 255 255 255 255 0.351704 0.187790
-0.034046 0.041023 0.056824 -0.748459 0.2143167 0.6275966 255 255 255 255 0.351704 0.187790
0.046391 0.041879 0.025758 0.7143598 0.6260377 0.3126772 255 255 255 255 0.351704 0.187790
0.027448 0.072988 -0.06559 -0.3201892 0.8734872 -0.3667412 255 255 255 255 0.351704 0.187790
0.014683 0.071193 -0.053228 -0.1600639 0.9308096 -0.3285926 255 255 255 255 0.351704 0.187790
0.038124 0.082821 -0.029874 0.8644195 0.5000957 0.05180036 255 255 255 255 0.351704 0.187790
-0.040327 0.096035 -0.002891 -0.6970729 0.7017328 0.1471753 255 255 255 255 0.351704 0.187790
0.021591 0.032894 0.069134 0.6752706 0.04906163 0.7359366 255 255 255 255 0.351704 0.187790
-0.016735 0.084186 -0.045023 0.2531993 0.8805798 -0.4005863 255 255 255 255 0.351704 0.187790
-0.078069 0.010324 -0.079585 -0.9645732 0.1073593 -0.2409825 255 255 255 255 0.351704 0.187790
-0.037254 0.00479 0.057569 -0.6619454 -0.3843746 0.643494 255 255 255 255 0.351704 0.187790
-0.006467 0.108102 0.008429 -0.2054721 0.9632715 0.1728851 255 255 255 255 0.351704 0.187790
-0.041114 0.088485 -0.028546 -0.5340256 0.7771565 -0.332933 255 255 255 255 0.351704 0.187790
-0.055204 0.047002 -0.065662 -0.7742113 0.6161265 -0.1448621 255 255 255 255 0.351704 0.187790
0.023573 0.038132 0.055963 0.7883505 0.3337932 0.5168034 255 255 255 255 0.351704 0.187790
-0.052692 0.040866 0.01574 -0.7488645 0.5376498 0.387472 255 255 255 255 0.351704 0.187790
-0.081749 0.003123 -0.025207 -0.8238655 -0.5581337 -0.09865315 255 255 255 255 0.351704 0.187790
-0.066422 0.002517 -0.094525 -0.5047238 -0.3000194 -0.8094704 255 255 255 255 0.351704 0.187790
0.014729 0.001068 0.068211 0.2846774 -0.9142125 0.2883996 255 255 255 255 0.351704 0.187790
0.058533 0.000703 0.016645 0.6307488 -0.705537 0.323069 255 255 255 255 0.351704 0.187790
-0.009414 0.002569 0.071717 -0.2138567 -0.6380382 0.7397112 255 255 255 255 0.351704 0.187790
0.003152 0.105038 0.027773 0.3449748 0.8460764 0.4063831 255 255 255 255 0.351704 0.187790
-0.024091 0.0732 -0.065021 -0.4990816 0.734887 -0.4591936 255 255 255 255 0.351704 0.187790
-0.010308 0.061963 -0.102063 -0.1735631 0.7292553 -0.661863 255 255 255 255 0.351704 0.187790
-0.030992 0.001498 -0.111058 -0.2628315 -0.5890744 -0.7641407 255 255 255 255 0.351704 0.187790
0.036824 0.001844 -0.100737 0.4566686 -0.5814775 -0.6733036 255 255 255 255 0.351704 0.187790
-0.042079 0.054288 -0.084119 -0.5933158 0.6774907 -0.4347216 255 255 255 255 0.351704 0.187790
0.025613 0.041114 -0.097953 0.7414782 0.4663288 -0.4824392 255 255 255 255 0.351704 0.187790
-0.012075 0.000188 0.005227 0.002973657 -0.9999692 0.007259904 255 255 255 255 0.351704 0.187790
-0.036841 0.000894 0.050102 -0.2892734 -0.9289001 0.2312265 255 255 255 255 0.351704 0.187790
-0.047268 0.041369 0.02197 -0.8168312 0.3777786 0.4359705 255 255 255 255 0.351704 0.187790
-0.061497 0.003426 0.01561 -0.6542062 -0.5116037 0.5570241 255 255 255 255 0.351704 0.187790
0.009706 0.024564 0.074279 0.1924229 0.150056 0.9697714 255 255 255 255 0.351704 0.187790
0.001757 0.065395 -0.091789 0.1937818 0.8844962 -0.4243997 255 255 255 255 0.351704 0.187790
0.038059 0.067452 0.031806 0.9132213 0.3779264 0.1523108 255 255 255 255 0.351704 0.187790
0.031258 0.084865 0.008073 0.7625394 0.632242 0.137127 255 255 255 255 0.351704 0.187790
-0.038166 0.060347 -0.063774 -0.3360607 0.8122712 -0.4767376 255 255 255 255 0.351704 0.187790
0.019758 0.088497 0.010207 0.4753006 0.7897501 0.3877938 255 255 255 255 0.351704 0.187790
0.045857 0.05379 -0.042725 0.9491869 0.3021497 0.08803449 255 255 255 255 0.351704 0.187790
0.058404 0.020616 0.016517 0.9018502 0.1038357 0.4193858 255 255 255 255 0.351704 0.187790
0.058136 0.039544 0.015921 0.8475769 0.5019891 0.1721058 255 255 255 255 0.351704 0.187790
0.028092 0.012147 0.047122 0.5923129 -0.3585918 0.7215105 255 255 255 255 0.351704 0.187790
0.048474 0.012803 0.039988 0.7957246 0.02192498 0.6052616 255 255 255 255 0.351704 0.187790
0.067819 0.003408 -0.08397 0.8169869 -0.36622 -0.4454386 255 255 255 255 0.351704 0.187790
0.063004 0.001116 -0.083738 0.2987095 -0.9336358 -0.197729 255 255 255 255 0.351704 0.187790
-0.062536 0.039096 -0.068184 -0.7223568 0.6833438 -0.1060287 255 255 255 255 0.351704 0.187790
-0.011189 0.04413 0.061211 -0.251591 0.5286592 0.810692 255 255 255 255 0.351704 0.187790
-0.024203 0.072859 0.059295 -0.5568601 0.4066063 0.7242777 255 255 255 255 0.351704 0.187790
-0.01494 0.09779 0.011652 -0.465804 0.8314641 0.3028105 255 255 255 255 0.351704 0.187790
0.048295 0.034025 -0.085511 0.6171721 0.4834775 -0.6207643 255 255 255 255 0.351704 0.187790
0.000948 0.000877 -0.11459 -0.02943017 -0.6816507 -0.7310857 255 255 255 255 0.351704 0.187790
-0.076095 0.001152 -0.087302 -0.7107767 -0.5017539 -0.4929905 255 255 255 255 0.351704 0.187790
-0.052745 0.000655 0.012746 -0.1103102 -0.9913815 0.07067159 255 255 255 255 0.351704 0.187790
0.01851 0.018089 0.069618 0.8024728 0.161889 0.5743077 255 255 255 255 0.351704 0.187790
-0.075441 0.012726 -0.040514 -0.9612159 0.2499129 -0.1166515 255 255 255 255 0.351704 0.187790
0.06719 0.007136 0.002096 0.9662434 -0.2030007 0.1586328 255 255 255 255 0.351704 0.187790
-0.011441 0.025585 -0.112593 -0.1558506 0.1405319 -0.9777328 255 255 255 255 0.351704 0.187790
0.060056 0.022134 -4.1e-05 0.9121549 0.4016394 0.08160429 255 255 255 255 0.351704 0.187790
0.000881 0.041015 0.069635 -0.1301798 0.3912548 0.9110285 255 255 255 255 0.351704 0.187790
-0.028517 0.070808 0.048156 -0.9361311 0.2028095 0.287275 255 255 255 255 0.351704 0.187790
0.031697 0.088933 -0.032725 0.4198731 0.8948808 -0.1513109 255 255 255 255 0.351704 0.187790
0.013663 0.096653 -0.012094 0.3502317 0.84716 -0.3995718 255 255 255 255 0.351704 0.187790
-0.029407 0.089769 -0.040945 -0.2287566 0.8644769 -0.447605 255 255 255 255 0.351704 0.187790
0.007324 0.089131 0.066092 -0.22381 0.5655447 0.7937685 255 255 255 255 0.351704 0.187790
0.036397 0.077773 -0.06525 0.3560444 0.8045446 -0.4753319 255 255 255 255 0.351704 0.187790
-0.012513 0.073055 -0.080561 -0.1195741 0.9250543 -0.3605227 255 255 255 255 0.351704 0.187790
-0.027212 0.04522 -0.104176 -0.4581441 0.3680162 -0.8091156 255 255 255 255 0.351704 0.187790
0.038651 0.033059 0.050251 0.6712181 0.3141708 0.6713889 255 255 255 255 0.351704 0.187790
0.056775 0.027373 -0.081168 0.7649347 0.4355219 -0.4745479 255 255 255 255 0.351704 0.187790
0.003563 0.09102 0.046923 -0.00532913 0.9368711 0.3496344 255 255 255 255 0.351704 0.187790
0.020296 0.085737 0.047072 0.5432775 0.8392773 0.02152178 255 255 255 255 0.351704 0.187790
0.003114 0.080906 -0.028799 0.08244695 0.8441851 -0.5296735 255 255 255 255 0.351704 0.187790
-0.053397 0.078602 -0.019402 -0.9318272 0.3579144 0.05996128 255 255 255 255 0.351704 0.187790
-0.051248 0.058044 -0.009421 -0.8890348 0.4282949 0.1618045 255 255 255 255 0.351704 0.187790
-0.060863 0.045502 -0.034944 -0.8394569 0.5384136 -0.07364161 255 255 255 255 0.351704 0.187790
-0.048329 0.038993 -0.092589 -0.4730192 0.5067269 -0.7207501 255 255 255 255 0.351704 0.187790
0.055309 0.036334 -0.056031 0.9133929 0.404348 -0.04707527 255 255 255 255 0.351704 0.187790
0.0172 0.00229 -0.114566 0.2662348 -0.5588531 -0.7853675 255 255 255 255 0.351704 0.187790
0.025488 0.059956 -0.089645 0.5161411 0.6440394 -0.5646341 255 255 255 255 0.351704 0.187790
-0.071725 0.027146 -0.05811 -0.8784822 0.4777393 0.005846057 255 255 255 255 0.351704 0.187790
-0.014247 0.096847 0.02556 -0.4537578 0.8210666 0.346343 255 255 255 255 0.351704 0.187790
-0.047799 0.053836 -0.072838 -0.6175942 0.7093815 -0.33964 255 255 255 255 0.351704 0.187790
0.04756 0.002099 0.043416 0.5036325 -0.5426449 0.6722283 255 255 255 255 0.351704 0.187790
0.019445 0.007631 0.076274 0.5679996 -0.2654909 0.7790322 255 255 255 255 0.351704 0.187790
-0.061858 0.027637 0.008854 -0.735615 0.339194 0.58636 255 255 255 255 0.351704 0.187790
-0.061631 0.051588 -0.0104 -0.7780193 0.6097026 0.1514883 255 255 255 255 0.351704 0.187790
-0.002386 0.05661 -0.107132 0.01553718 0.5399143 -0.8415766 255 255 255 255 0.351704 0.187790
-0.039049 0.059515 0.018809 -0.8806173 0.2886334 0.375771 255 255 255 255 0.351704 0.187790
0.044761 0.065282 -0.057225 0.9387414 0.3297045 -0.1002976 255 255 255 255 0.351704 0.187790
0.009108 0.106667 -0.000738 0.4548567 0.8801487 -0.1358073 255 255 255 255 0.351704 0.187790
-0.015218 0.094428 -0.024821 0.1406668 0.8203093 -0.5543514 255 255 255 255 0.351704 0.187790
-0.024033 0.106828 -0.002891 -0.4295209 0.9020059 -0.04355719 255 255 255 255 0.351704 0.187790
-0.067537 0.033905 -0.082675 -0.6837334 0.6007761 -0.4142183 255 255 255 255 0.351704 0.187790
-0.050391 0.044263 0.010898 -0.7621641 0.4661857 0.4491958 255 255 255 255 0.351704 0.187790
-0.06731 0.028982 -0.00195 -0.5906953 0.768397 0.2462625 255 255 255 255 0.351704 0.187790
-0.050391 0.044263 0.010898 -0.7954179 0.4613331 0.3930422 255 255 255 255 0.351704 0.187790
-0.022625 0.008013 0.066101 -0.4708785 -0.07633679 0.8788892 255 255 255 255 0.351704 0.187790
0.02447 0.07295 0.052585 0.8409318 0.132851 0.5245802 255 255 255 255 0.351704 0.187790
-0.081146 0.001765 -0.002899 -0.7284513 -0.5963735 0.3371904 255 255 255 255 0.351704 0.187790
0.039584 0.049841 0.014696 0.8511078 0.5236228 -0.03787682 255 255 255 255 0.351704 0.187790
-0.052772 0.049791 0.001121 -0.7838265 0.4309094 0.4471387 255 255 255 255 0.351704 0.187790
0.036121 0.048419 0.052699 0.7025783 -0.1015719 0.7043203 255 255 255 255 0.351704 0.187790
-0.050391 0.044263 0.010898 -0.8222565 0.5484115 0.1521155 255 255 255 255 0.351704 0.187790
0.05215 0.018715 0.024358 0.9241392 -0.04235272 0.3797011 255 255 255 255 0.351704 0.187790
-0.080129 0.02636 -0.006614 -0.7615156 0.5948408 0.2574075 255 255 255 255 0.351704 0.187790
0.016853 0.089157 0.063317 0.4849671 0.6545009 0.5800306 255 255 255 255 0.351704 0.187790
-0.011543 0.104952 -0.011487 -0.0002177145 0.8849617 -0.4656638 255 255 255 255 0.351704 0.187790
-0.0128 0.073079 0.061956 -0.02488789 0.2766514 0.9606481 255 255 255 255 0.351704 0.187790
-0.035494 0.026055 -0.105098 -0.5037652 0.1806117 -0.8447485 255 255 255 255 0.351704 0.187790
3 77 71 113 
3 15 49 75 
3 54 4 115 
3 10 48 107 
3 112 106 92 
3 103 101 110 
3 30 73 44 
3 55 67 9 
3 103 108 101 
3 13 46 96 
3 88 19 56 
3 33 76 51 
3 48 8 107 
3 23 38 103 
3 93 102 108 
3 74 31 94 
3 58 36 59 
3 9 104 5 
3 54 9 5 
3 12 41 79 
3 55 29 88 
3 55 77 29 
3 23 103 110 
3 64 74 94 
3 22 105 15 
3 13 68 43 
3 97 45 43 
3 29 97 19 
3 43 69 97 
3 12 69 11 
3 14 95 67 
3 0 96 46 
3 2 38 9 
3 92 110 102 
3 24 112 62 
3 24 62 59 
3 91 7 49 
3 1 27 52 
3 32 59 25 
3 47 111 27 
3 113 71 54 
3 71 4 54 
3 61 49 15 
3 1 52 51 
3 87 102 53 
3 22 15 75 
3 35 0 57 
3 74 116 34 
3 19 99 56 
3 94 41 86 
3 36 27 7 
3 18 37 28 
3 105 113 15 
3 47 27 63 
3 38 39 18 
3 39 38 23 
3 86 41 11 
3 107 42 10 
3 107 43 42 
3 9 38 18 
3 62 87 17 
3 78 45 77 
3 79 69 12 
3 43 46 13 
3 67 95 2 
3 89 21 80 
3 116 83 34 
3 112 102 87 
3 47 8 48 
3 32 116 64 
3 28 26 91 
3 33 51 52 
3 82 53 102 
3 98 114 69 
3 108 81 93 
3 55 115 4 
3 99 19 97 
3 20 114 98 
3 14 114 20 
3 99 114 14 
3 14 81 108 
3 44 34 89 
3 93 81 82 
3 46 107 84 
3 102 112 92 
3 65 1 76 
3 32 25 83 
3 116 32 83 
3 27 111 90 
3 112 24 106 
3 59 32 58 
3 33 58 85 
3 33 52 58 
3 60 36 37 
3 39 60 37 
3 7 91 26 
3 27 90 7 
3 49 61 91 
3 49 7 90 
3 57 33 3 
3 3 33 85 
3 3 85 58 
3 59 62 17 
3 65 63 1 
3 62 112 87 
3 39 23 92 
3 111 47 48 
3 65 47 63 
3 35 57 3 
3 3 64 6 
3 3 58 64 
3 23 110 92 
3 8 47 65 
3 65 84 8 
3 65 76 84 
3 76 57 0 
3 76 0 84 
3 86 35 6 
3 100 17 87 
3 53 100 87 
3 110 101 102 
3 40 113 66 
3 10 109 22 
3 10 42 109 
3 55 9 115 
3 54 115 9 
3 96 72 13 
3 0 72 96 
3 42 113 105 
3 42 78 113 
3 70 30 44 
3 70 44 20 
3 14 80 81 
3 20 80 14 
3 72 11 69 
3 14 55 88 
3 14 67 55 
3 72 68 13 
3 72 69 68 
3 77 97 29 
3 45 78 43 
3 113 78 77 
3 16 70 98 
3 56 14 88 
3 69 114 97 
3 43 68 69 
3 72 0 86 
3 40 15 113 
3 66 113 54 
3 34 73 31 
3 21 53 82 
3 53 21 89 
3 17 100 25 
3 64 58 32 
3 76 1 51 
3 74 64 116 
3 34 83 89 
3 20 44 89 
3 31 41 94 
3 41 73 16 
3 31 73 41 
3 88 29 19 
3 79 98 69 
3 79 16 98 
3 98 70 20 
3 73 30 16 
3 79 41 16 
3 20 89 80 
3 81 21 82 
3 80 21 81 
3 109 105 22 
3 109 42 105 
3 94 86 6 
3 46 84 0 
3 102 93 82 
3 83 53 89 
3 100 83 25 
3 107 8 84 
3 5 40 66 
3 18 104 9 
3 48 50 111 
3 91 40 5 
3 91 61 40 
3 92 106 39 
3 28 91 5 
3 106 60 39 
3 60 24 59 
3 60 106 24 
3 59 36 60 
3 52 36 58 
3 25 59 17 
3 75 10 22 
3 28 5 104 
3 108 102 101 
3 103 38 2 
3 83 100 53 
3 30 70 16 
3 37 26 28 
3 36 26 37 
3 74 34 31 
3 4 71 77 
3 99 14 56 
3 11 41 12 
3 43 78 42 
3 9 67 2 
3 95 108 2 
3 108 103 2 
3 54 5 66 
3 44 73 34 
3 6 35 3 
3 111 50 90 
3 64 94 6 
3 63 27 1 
3 76 33 57 
3 14 108 95 
3 72 86 11 
3 61 15 40 
3 7 26 36 
3 50 49 90 
3 75 49 50 
3 86 0 35 
3 10 75 48 
3 75 50 48 
3 45 97 77 
3 114 99 97 
3 55 4 77 
3 18 28 104 
3 107 46 43 
3 52 27 36 
3 39 37 18 
