ply
format ascii 1.0
comment VCGLIB generated
comment TextureFile Textures//Combined_Texture//Texture_01_A.png
element vertex 328
property float x
property float y
property float z
property float nx
property float ny
property float nz
property uchar red
property uchar green
property uchar blue
property uchar alpha
property float texture_u
property float texture_v
element face 652
property list uchar int vertex_indices
end_header
0.013051 0.00271 0.028996 0.3823735 -0.2098548 0.8998619 255 255 255 255 0.351676 0.190036
-0.012102 0.007116 0.029546 -0.424 0.1163436 0.8981583 255 255 255 255 0.351676 0.190036
0.001652 0.0069 0.026821 0.5077063 0.08754286 0.8570709 255 255 255 255 0.351676 0.190036
0.00102 0.010881 0.026213 0.5007827 0.2582162 0.8261604 255 255 255 255 0.351676 0.190036
0.014267 0.011063 0.027211 0.4454369 0.0208823 0.8950698 255 255 255 255 0.351676 0.190036
0.001031 0.015246 0.027932 0.5329512 -0.2295892 0.8144027 255 255 255 255 0.351676 0.190036
0.018872 0.015096 0.019024 0.7678349 -0.0972202 0.6332282 255 255 255 255 0.351676 0.190036
-0.006898 0.019075 0.022801 -0.7893112 -0.03819116 0.6128045 255 255 255 255 0.351676 0.190036
0.002358 0.023757 0.026911 0.5786948 0.007317442 0.8155114 255 255 255 255 0.351676 0.190036
0.006348 0.023655 0.023867 -0.3011739 0.05879315 0.951755 255 255 255 255 0.351676 0.190036
-0.014441 0.036026 0.022559 -0.4022664 0.2641781 0.8765796 255 255 255 255 0.351676 0.190036
0.016346 0.027901 0.020163 0.7250292 0.02003158 0.6884268 255 255 255 255 0.351676 0.190036
0.015782 0.031718 0.020959 0.7117832 0.05353306 0.7003564 255 255 255 255 0.351676 0.190036
-0.002285 0.03905 0.025549 -0.05517606 0.8365591 0.5450913 255 255 255 255 0.351676 0.190036
-0.015895 0.039229 0.017508 -0.2382505 0.9376972 0.2529045 255 255 255 255 0.351676 0.190036
-0.003979 0.039809 0.022672 -0.1051604 0.9729933 0.2054881 255 255 255 255 0.351676 0.190036
0.009503 0.03984 0.020507 0.0572449 0.9963486 0.06334509 255 255 255 255 0.351676 0.190036
-0.022172 0.039517 0.007923 -0.2077203 0.9290743 0.3060608 255 255 255 255 0.351676 0.190036
-0.024261 0.039377 -0.007537 -0.2556043 0.9605915 -0.1092269 255 255 255 255 0.351676 0.190036
-0.012333 0.03984 -0.012719 -0.03000553 0.9994157 -0.01636964 255 255 255 255 0.351676 0.190036
0.01569 0.039798 -0.009905 0.04241755 0.9989887 -0.01491354 255 255 255 255 0.351676 0.190036
0.00749 0.040058 -0.018003 0.01031737 0.9998822 -0.01136453 255 255 255 255 0.351676 0.190036
0.006205 0.03998 -0.021267 0.06377406 0.9669858 -0.2467212 255 255 255 255 0.351676 0.190036
0.015325 0.038632 -0.018299 0.2695808 0.8340294 -0.4813743 255 255 255 255 0.351676 0.190036
-0.005558 0.036929 -0.022188 -0.1673913 0.6006662 -0.7817802 255 255 255 255 0.351676 0.190036
0.017571 0.033562 -0.021642 0.5408936 0.08011901 -0.8372664 255 255 255 255 0.351676 0.190036
0.002438 0.034987 -0.028276 -0.426091 0.03202922 -0.9041132 255 255 255 255 0.351676 0.190036
-0.004294 0.035274 -0.021797 -0.406021 -0.3572628 -0.8411363 255 255 255 255 0.351676 0.190036
-0.004356 0.026835 -0.024399 -0.4185569 -0.2118752 -0.8831303 255 255 255 255 0.351676 0.190036
-0.014663 0.027125 -0.026177 -0.2299568 -0.1121272 -0.9667199 255 255 255 255 0.351676 0.190036
0.018211 0.023287 -0.020908 0.5016099 0.1097386 -0.8581055 255 255 255 255 0.351676 0.190036
0.007192 0.021849 -0.029789 -0.1727365 0.1613331 -0.9716654 255 255 255 255 0.351676 0.190036
-0.002118 0.022212 -0.024022 -0.7249686 -0.1370201 -0.6750156 255 255 255 255 0.351676 0.190036
0.007653 0.010076 -0.029813 0.2670875 -0.4023845 -0.8756432 255 255 255 255 0.351676 0.190036
-0.017476 0.019747 -0.021579 -0.6344034 -0.05628941 -0.77095 255 255 255 255 0.351676 0.190036
-0.014911 0.014815 -0.025237 -0.312511 0.2827606 -0.9068535 255 255 255 255 0.351676 0.190036
-0.020659 0.014265 -0.016716 -0.8562042 0.1794197 -0.4844822 255 255 255 255 0.351676 0.190036
-0.003841 0.017442 -0.023303 -0.3317152 0.5365736 -0.7759212 255 255 255 255 0.351676 0.190036
-0.016317 0.011106 -0.025778 -0.4628838 -0.03161168 -0.8858552 255 255 255 255 0.351676 0.190036
0.004143 0.003142 -0.029179 0.2376101 0.3730569 -0.8968667 255 255 255 255 0.351676 0.190036
-0.015269 0.000841 -0.022574 -0.2396232 -0.8223649 -0.5160396 255 255 255 255 0.351676 0.190036
-0.024502 3.9e-05 0.000606 -0.03524974 -0.9989111 0.0305625 255 255 255 255 0.351676 0.190036
0.018051 5.3e-05 0.004408 0.01142738 -0.9999288 -0.003454945 255 255 255 255 0.351676 0.190036
0.02949 0.000975 0.008724 0.7733192 -0.5604444 0.2964451 255 255 255 255 0.351676 0.190036
-0.015802 0.000378 0.006132 -0.0544006 -0.9841631 0.1687113 255 255 255 255 0.351676 0.190036
-0.020298 0.001184 0.015042 -0.5883061 -0.7522308 -0.2967235 255 255 255 255 0.351676 0.190036
0.00896 0.000111 0.024041 -0.05781557 -0.9863701 0.1540498 255 255 255 255 0.351676 0.190036
0.000661 -0 0.021117 0.03256575 -0.9957749 0.08585988 255 255 255 255 0.351676 0.190036
0.028483 0.002112 -0.012096 0.8410841 -0.08852889 -0.5336106 255 255 255 255 0.351676 0.190036
0.02253 0.010625 -0.016984 0.7539115 -0.4210095 -0.5043496 255 255 255 255 0.351676 0.190036
0.02646 0.010083 -0.012386 0.7180291 -0.4430034 -0.5368259 255 255 255 255 0.351676 0.190036
0.02492 0.009317 -0.000772 0.9795268 -0.144158 -0.14052 255 255 255 255 0.351676 0.190036
0.021119 0.011063 0.013749 0.7752207 -0.2185582 0.5926763 255 255 255 255 0.351676 0.190036
0.025554 0.014696 -0.001476 0.9967963 0.02336447 -0.07649387 255 255 255 255 0.351676 0.190036
0.021687 0.023843 -0.016812 0.7317127 0.08011615 -0.6768885 255 255 255 255 0.351676 0.190036
0.029478 0.033393 0.009439 0.9201441 -0.02484615 0.3907909 255 255 255 255 0.351676 0.190036
-0.026366 0.003859 -0.001449 -0.7484344 0.6119112 -0.2557549 255 255 255 255 0.351676 0.190036
-0.020068 0.007658 0.012618 -0.8518929 0.08265574 0.5171524 255 255 255 255 0.351676 0.190036
-0.026371 0.009258 -0.002447 -0.8689855 -0.4831501 0.1069121 255 255 255 255 0.351676 0.190036
-0.021216 0.011457 0.012296 -0.7416992 -0.3418702 0.5770676 255 255 255 255 0.351676 0.190036
-0.029014 0.014584 -0.006693 -0.9182234 0.27089 -0.2889367 255 255 255 255 0.351676 0.190036
-0.022167 0.014584 -0.01406 -0.7980894 0.2639555 -0.5416465 255 255 255 255 0.351676 0.190036
-0.019427 0.01483 0.019276 -0.7258412 -0.03980442 0.6867097 255 255 255 255 0.351676 0.190036
-0.019597 0.021081 0.014174 -0.8692014 0.07154684 0.4892547 255 255 255 255 0.351676 0.190036
-0.028969 0.029473 -0.006393 -0.9266727 0.2698413 -0.2616552 255 255 255 255 0.351676 0.190036
-0.019478 0.032029 -0.019964 -0.9070748 -0.03257885 -0.419707 255 255 255 255 0.351676 0.190036
-0.018913 0.03737 0.01909 -0.7144923 0.5246174 0.4629011 255 255 255 255 0.351676 0.190036
-0.027874 0.031916 -0.004344 -0.9632133 0.2125329 -0.1644691 255 255 255 255 0.351676 0.190036
-0.026984 0.034372 0.004045 -0.9126312 0.3222644 0.2514957 255 255 255 255 0.351676 0.190036
-0.024519 0.035193 0.008387 -0.7994168 -0.1592166 0.5792951 255 255 255 255 0.351676 0.190036
-0.027821 0.036476 -0.003263 -0.9746212 0.2227472 -0.02229542 255 255 255 255 0.351676 0.190036
-0.025835 0.036878 0.008858 -0.8372605 -0.09973994 0.5376309 255 255 255 255 0.351676 0.190036
-0.020645 0.035466 -0.022024 -0.8423442 0.05132544 -0.5364905 255 255 255 255 0.351676 0.190036
0.014989 0.000249 0.023124 0.3192633 -0.9048084 0.2817673 255 255 255 255 0.351676 0.190036
0.021416 0.003543 -0.017147 0.7878224 0.4857543 -0.3786537 255 255 255 255 0.351676 0.190036
0.027385 0.001415 -0.005139 0.9747158 0.2201621 -0.0381805 255 255 255 255 0.351676 0.190036
0.023739 0.002176 -0.013338 0.4993598 -0.4878812 -0.7159691 255 255 255 255 0.351676 0.190036
0.023528 0.005629 -0.009668 0.81261 0.4308301 -0.3924925 255 255 255 255 0.351676 0.190036
0.029657 0.003463 0.008668 0.9421374 0.1393446 0.3048937 255 255 255 255 0.351676 0.190036
0.017648 0.007627 -0.013208 0.8381003 -0.1412832 -0.5269032 255 255 255 255 0.351676 0.190036
0.023124 0.005004 -0.000882 0.9783297 -0.05398425 -0.1998918 255 255 255 255 0.351676 0.190036
0.024382 0.006807 0.012023 0.7046936 0.2574141 0.6611695 255 255 255 255 0.351676 0.190036
0.021635 0.009146 -0.015163 0.5970082 -0.7940274 0.1144626 255 255 255 255 0.351676 0.190036
0.025374 0.013806 -0.01402 0.8024151 -0.1077087 -0.5869658 255 255 255 255 0.351676 0.190036
0.023792 0.007241 -0.009983 0.6532265 -0.51373 -0.5562163 255 255 255 255 0.351676 0.190036
0.029377 0.007446 0.006485 0.968946 0.2472709 0.0008914269 255 255 255 255 0.351676 0.190036
0.026849 0.009926 -0.006021 0.9450635 -0.3268551 0.00456154 255 255 255 255 0.351676 0.190036
0.018035 0.012293 0.018636 0.846829 -0.03863857 0.5304599 255 255 255 255 0.351676 0.190036
0.027773 0.02414 -0.005663 0.9943456 0.02639463 -0.1028604 255 255 255 255 0.351676 0.190036
0.028298 0.013524 0.010734 0.7886222 -0.5147151 0.3363682 255 255 255 255 0.351676 0.190036
0.029551 0.017216 0.010575 0.9448569 -0.1074858 0.3093416 255 255 255 255 0.351676 0.190036
0.017352 0.012293 -0.021948 0.1807333 -0.1047812 -0.9779348 255 255 255 255 0.351676 0.190036
0.022816 0.018187 -0.016355 0.7294226 0.04551643 -0.6825474 255 255 255 255 0.351676 0.190036
0.026572 0.027487 -0.011589 0.8676397 0.221851 -0.4449535 255 255 255 255 0.351676 0.190036
0.026246 0.031574 -0.001093 0.9885899 -0.02438561 -0.1486457 255 255 255 255 0.351676 0.190036
0.029557 0.02339 0.009365 0.9342918 0.1226419 0.3347504 255 255 255 255 0.351676 0.190036
0.029067 0.032299 0.006726 0.9914625 -0.1302671 0.005712813 255 255 255 255 0.351676 0.190036
0.020076 0.025125 0.016936 0.7298486 0.09655678 0.6767554 255 255 255 255 0.351676 0.190036
0.024375 0.027042 0.011579 0.6636139 0.1798532 0.7261332 255 255 255 255 0.351676 0.190036
0.020058 0.029237 -0.018135 0.7375639 -0.01774814 -0.6750441 255 255 255 255 0.351676 0.190036
0.02538 0.036703 -0.013465 0.91645 0.1501695 -0.3709024 255 255 255 255 0.351676 0.190036
0.021882 0.030099 0.014327 0.7968495 -0.1084853 0.5943584 255 255 255 255 0.351676 0.190036
0.026069 0.037297 0.004432 0.8829235 0.4656849 0.05986503 255 255 255 255 0.351676 0.190036
-0.029657 0.000851 -0.004007 -0.9712021 -0.1852771 -0.1497966 255 255 255 255 0.351676 0.190036
-0.022603 0.002914 -0.015526 -0.7033586 0.5767152 -0.4155554 255 255 255 255 0.351676 0.190036
-0.025623 0.002584 -0.009364 -0.6495554 0.7144049 -0.2601991 255 255 255 255 0.351676 0.190036
-0.027535 0.002899 0.007586 -0.8060698 -0.2981924 0.5112072 255 255 255 255 0.351676 0.190036
-0.023662 0.006226 0.010577 -0.5276663 -0.05128091 0.8479024 255 255 255 255 0.351676 0.190036
-0.021147 0.003647 0.011466 -0.6969947 -0.5252038 0.4882206 255 255 255 255 0.351676 0.190036
-0.019064 0.005605 -0.016897 -0.8317102 -0.01273849 -0.5550638 255 255 255 255 0.351676 0.190036
-0.023687 0.005525 -0.001931 -0.8755315 0.183777 -0.4468452 255 255 255 255 0.351676 0.190036
-0.026463 0.008294 -0.000178 -0.9886241 -0.03621061 -0.1459836 255 255 255 255 0.351676 0.190036
-0.021102 0.005288 0.016545 -0.968781 0.1447274 0.2012894 255 255 255 255 0.351676 0.190036
-0.022661 0.011063 -0.013344 -0.7877927 0.3654005 -0.4958481 255 255 255 255 0.351676 0.190036
-0.027951 0.008508 -0.008408 -0.8201995 -0.5061472 -0.2666228 255 255 255 255 0.351676 0.190036
-0.024648 0.009296 0.006329 -0.7810715 0.6236857 0.03071682 255 255 255 255 0.351676 0.190036
-0.029259 0.011063 -0.007018 -0.9702097 -0.1797697 -0.1624067 255 255 255 255 0.351676 0.190036
-0.023753 0.011444 0.009472 -0.9391063 -0.0032238 0.3436117 255 255 255 255 0.351676 0.190036
-0.018013 0.011108 0.017803 -0.8193753 -0.1105114 0.5625045 255 255 255 255 0.351676 0.190036
-0.023581 0.010832 0.004597 -0.9247559 0.2036542 0.3214835 255 255 255 255 0.351676 0.190036
-0.025762 0.014675 0.008727 -0.8771363 -0.333425 0.3456295 255 255 255 255 0.351676 0.190036
-0.026336 0.014318 0.002462 -0.9003373 -0.3579165 0.2475651 255 255 255 255 0.351676 0.190036
-0.028569 0.01958 -0.001081 -0.9987469 -0.0158721 0.0474641 255 255 255 255 0.351676 0.190036
-0.024167 0.019212 0.008576 -0.8568556 0.2305457 0.4611369 255 255 255 255 0.351676 0.190036
-0.024249 0.014923 0.012325 -0.9143354 -0.06694023 0.3993869 255 255 255 255 0.351676 0.190036
-0.023541 0.021675 0.009233 -0.7941418 -0.07438137 0.6031635 255 255 255 255 0.351676 0.190036
-0.018779 0.02011 0.016374 -0.7002844 0.3831181 0.6023474 255 255 255 255 0.351676 0.190036
-0.021072 0.021201 -0.012595 -0.8523798 -0.1985502 -0.4837629 255 255 255 255 0.351676 0.190036
-0.026073 0.024809 0.007755 -0.8417113 -0.1642134 0.5143502 255 255 255 255 0.351676 0.190036
-0.026099 0.027873 -0.010236 -0.7579291 0.2014146 -0.6204641 255 255 255 255 0.351676 0.190036
-0.026186 0.030339 0.008658 -0.823316 0.05994136 0.5644093 255 255 255 255 0.351676 0.190036
-0.021819 0.032991 -0.010889 -0.8651057 -0.1512759 -0.4782341 255 255 255 255 0.351676 0.190036
-0.025411 0.035077 -0.010203 -0.743073 -0.5602047 -0.3660782 255 255 255 255 0.351676 0.190036
-0.028188 0.034105 -0.002525 -0.9998251 -0.01835882 0.003561712 255 255 255 255 0.351676 0.190036
-0.023456 0.037356 0.010652 -0.5594516 0.386029 0.7334818 255 255 255 255 0.351676 0.190036
-0.025991 0.036456 -0.010868 -0.9005844 -0.07681236 -0.4278407 255 255 255 255 0.351676 0.190036
0.018932 0.007064 0.018811 0.7204642 -0.3212157 0.6146152 255 255 255 255 0.351676 0.190036
-0.013936 0.002697 0.024997 -0.7059274 -0.006910975 0.7082505 255 255 255 255 0.351676 0.190036
0.010445 0.00109 0.02915 -0.07644644 -0.4783733 0.8748228 255 255 255 255 0.351676 0.190036
-0.01792 0.006682 0.021104 -0.7740158 0.3347641 0.5374314 255 255 255 255 0.351676 0.190036
0.003695 0.002564 0.025647 -0.0562378 -0.2752365 0.9597303 255 255 255 255 0.351676 0.190036
0.003564 0.005979 0.024985 0.2334002 0.2311175 0.9445153 255 255 255 255 0.351676 0.190036
-0.012656 0.01075 0.024753 -0.5661838 0.5443343 0.6189799 255 255 255 255 0.351676 0.190036
0.003112 0.011977 0.023159 0.3202992 -0.1278222 0.9386533 255 255 255 255 0.351676 0.190036
0.005703 0.011103 0.023823 -0.2944022 0.01476735 0.9555675 255 255 255 255 0.351676 0.190036
0.013976 0.007066 0.028673 0.35863 0.1292952 0.9244822 255 255 255 255 0.351676 0.190036
0.005453 0.01492 0.024912 -0.2884018 -0.09111165 0.9531648 255 255 255 255 0.351676 0.190036
0.014178 0.014755 0.028497 0.3310623 0.1177265 0.9362362 255 255 255 255 0.351676 0.190036
-0.01424 0.014089 0.022704 -0.3260818 -0.1314833 0.9361532 255 255 255 255 0.351676 0.190036
0.003228 0.013825 0.024075 0.3040291 -0.3000695 0.9041707 255 255 255 255 0.351676 0.190036
0.002436 0.017397 0.02631 0.7332627 -0.04702194 0.6783177 255 255 255 255 0.351676 0.190036
0.014018 0.022488 0.021731 0.5181409 -0.3281914 0.789823 255 255 255 255 0.351676 0.190036
-0.010915 0.020127 0.021316 -0.464928 -0.2780225 0.8405626 255 255 255 255 0.351676 0.190036
-0.016026 0.022351 0.018858 -0.4249791 -0.6689388 0.6098473 255 255 255 255 0.351676 0.190036
-0.001529 0.026482 0.027962 0.07369998 0.05462094 0.9957836 255 255 255 255 0.351676 0.190036
-0.0142 0.023201 0.022099 -0.3868671 -0.463632 0.7971068 255 255 255 255 0.351676 0.190036
0.004217 0.020726 0.024898 0.5146164 0.08250231 0.853442 255 255 255 255 0.351676 0.190036
0.004187 0.027808 0.02398 0.6826516 0.09433952 0.7246288 255 255 255 255 0.351676 0.190036
0.008353 0.017217 0.025485 -0.2166359 0.2379286 0.9468151 255 255 255 255 0.351676 0.190036
0.003152 0.032094 0.024352 0.2213203 -0.2618542 0.9393879 255 255 255 255 0.351676 0.190036
-0.010404 0.03388 0.023682 -0.4706134 -0.2741904 0.8386552 255 255 255 255 0.351676 0.190036
-0.019146 0.033881 0.020082 -0.8111179 0.09425207 0.5772386 255 255 255 255 0.351676 0.190036
0.000837 0.036339 0.027662 0.2935578 0.2946151 0.9094096 255 255 255 255 0.351676 0.190036
0.009723 0.03294 0.02754 0.1764008 -0.1065554 0.978534 255 255 255 255 0.351676 0.190036
-0.005222 0.035223 0.028897 -0.2989222 0.2047914 0.932044 255 255 255 255 0.351676 0.190036
0.018493 0.034911 0.018102 0.612202 0.3722206 0.6976106 255 255 255 255 0.351676 0.190036
-0.01325 0.037856 0.021604 -0.2568938 0.8061139 0.533091 255 255 255 255 0.351676 0.190036
0.005269 0.036933 0.02521 -0.02061075 0.4472859 0.8941536 255 255 255 255 0.351676 0.190036
0.020889 0.034801 0.016373 0.5266925 0.4632965 0.712707 255 255 255 255 0.351676 0.190036
-0.010826 0.039841 0.016403 -0.06599133 0.9912194 0.1145828 255 255 255 255 0.351676 0.190036
0.02002 0.03895 0.013234 0.2426603 0.8852091 0.3968889 255 255 255 255 0.351676 0.190036
-0.020317 0.037286 0.012572 -0.714466 0.2625746 0.6485314 255 255 255 255 0.351676 0.190036
0.012974 0.039832 0.010725 0.04368629 0.9986931 0.02652723 255 255 255 255 0.351676 0.190036
0.025618 0.0388 0.011679 0.7147684 0.5851887 0.3829626 255 255 255 255 0.351676 0.190036
-0.004867 0.039852 0.012095 -0.01764217 0.99984 -0.002960135 255 255 255 255 0.351676 0.190036
-0.001494 0.039828 0.01837 0.001935242 0.9999938 -0.002946521 255 255 255 255 0.351676 0.190036
0.00044 0.039841 0.021324 0.008523968 0.9989246 0.04557411 255 255 255 255 0.351676 0.190036
-0.025666 0.037562 0.008424 -0.6969432 0.6470214 0.3092467 255 255 255 255 0.351676 0.190036
0.001896 0.039813 0.007955 0.001043034 0.9999989 -0.001056415 255 255 255 255 0.351676 0.190036
0.010433 0.039845 0.015974 0.0462374 0.9988467 0.01293786 255 255 255 255 0.351676 0.190036
-0.009366 0.039829 0.000289 0.002671197 0.9999949 -0.001751621 255 255 255 255 0.351676 0.190036
0.021645 0.039605 0.005769 0.1112365 0.9935385 0.02253386 255 255 255 255 0.351676 0.190036
0.01221 0.039816 0.000194 0.005248761 0.9999768 0.004343344 255 255 255 255 0.351676 0.190036
-0.027474 0.038159 -0.007435 -0.8681161 0.4465275 -0.2167664 255 255 255 255 0.351676 0.190036
-0.018236 0.039318 -0.019116 -0.3745447 0.8895963 -0.2614091 255 255 255 255 0.351676 0.190036
0.00508 0.039839 -0.00874 -0.002428087 0.9999653 0.007976945 255 255 255 255 0.351676 0.190036
0.019548 0.039853 -0.005742 0.1363659 0.9856305 -0.09968428 255 255 255 255 0.351676 0.190036
0.025897 0.038703 -0.003782 0.5944883 0.8025437 -0.05007366 255 255 255 255 0.351676 0.190036
-0.021406 0.037014 -0.017201 -0.613809 0.7047314 -0.3557979 255 255 255 255 0.351676 0.190036
-0.006163 0.039839 -0.019202 -0.01933985 0.9539695 -0.2992796 255 255 255 255 0.351676 0.190036
-0.001867 0.039837 -0.018693 0.004105926 0.9994373 -0.03328935 255 255 255 255 0.351676 0.190036
0.001581 0.039815 -0.019388 -0.03076719 0.9991958 -0.02571514 255 255 255 255 0.351676 0.190036
0.011143 0.039821 -0.019302 0.214161 0.933356 -0.2880652 255 255 255 255 0.351676 0.190036
-0.001857 0.039568 -0.022076 -0.1751931 0.9277672 -0.3294777 255 255 255 255 0.351676 0.190036
0.015836 0.034784 -0.021848 0.4306147 0.4662844 -0.7727547 255 255 255 255 0.351676 0.190036
-0.018779 0.03638 -0.022904 -0.4238812 0.5550955 -0.7156772 255 255 255 255 0.351676 0.190036
-0.009282 0.037279 -0.023236 0.1250478 0.4913094 -0.8619618 255 255 255 255 0.351676 0.190036
-0.002893 0.037918 -0.024773 -0.5095991 0.4896225 -0.7075158 255 255 255 255 0.351676 0.190036
0.007181 0.035041 -0.029014 0.2170945 0.1908568 -0.9573106 255 255 255 255 0.351676 0.190036
0.001874 0.034501 -0.026589 -0.5898988 -0.3394889 -0.7326436 255 255 255 255 0.351676 0.190036
-0.01822 0.03415 -0.024266 -0.4253025 -0.07431317 -0.9019952 255 255 255 255 0.351676 0.190036
-0.017218 0.032726 -0.024006 -0.3721618 -0.1559003 -0.9149812 255 255 255 255 0.351676 0.190036
-0.005697 0.03345 -0.021144 -0.1905248 0.06042214 -0.9798212 255 255 255 255 0.351676 0.190036
0.01626 0.028893 -0.020755 0.5834411 -0.05752222 -0.8101159 255 255 255 255 0.351676 0.190036
-0.000386 0.033417 -0.026071 -0.4341066 0.3584516 -0.8264768 255 255 255 255 0.351676 0.190036
0.007811 0.027551 -0.028753 0.2231182 0.260857 -0.9392401 255 255 255 255 0.351676 0.190036
-0.020899 0.02677 -0.016468 -0.8017584 -0.1176725 -0.5859494 255 255 255 255 0.351676 0.190036
0.01057 0.023412 -0.029808 0.4957023 0.2831043 -0.8210549 255 255 255 255 0.351676 0.190036
0.001138 0.02376 -0.027982 -0.4523374 0.02150475 -0.8915876 255 255 255 255 0.351676 0.190036
0.016249 0.020907 -0.021619 0.5385781 0.02340887 -0.8422503 255 255 255 255 0.351676 0.190036
-0.021051 0.024013 -0.015951 -0.8383512 -0.2200488 -0.4987443 255 255 255 255 0.351676 0.190036
-0.000759 0.016826 -0.026474 -0.6965822 0.1500144 -0.7016189 255 255 255 255 0.351676 0.190036
-0.018005 0.021836 -0.022474 -0.5986257 -0.2691675 -0.7544509 255 255 255 255 0.351676 0.190036
-0.013638 0.020443 -0.021513 0.1031471 0.1483096 -0.9835472 255 255 255 255 0.351676 0.190036
0.009365 0.017831 -0.030293 0.3526109 -0.09445796 -0.9309905 255 255 255 255 0.351676 0.190036
-0.006265 0.021565 -0.019252 -0.1848769 -0.02730549 -0.9823823 255 255 255 255 0.351676 0.190036
0.001755 0.019252 -0.02841 -0.4708815 0.04792908 -0.8808935 255 255 255 255 0.351676 0.190036
-0.00022 0.012284 -0.027927 -0.289097 0.1572404 -0.9442979 255 255 255 255 0.351676 0.190036
0.019184 0.01944 -0.020622 0.6059396 0.04635518 -0.794159 255 255 255 255 0.351676 0.190036
-0.009091 0.016177 -0.024895 -0.04210071 0.3833997 -0.9226225 255 255 255 255 0.351676 0.190036
-0.003597 0.009994 -0.027479 -0.4200187 -0.3069228 -0.8540391 255 255 255 255 0.351676 0.190036
-0.020899 0.011063 -0.017653 -0.8466516 0.1017732 -0.5223249 255 255 255 255 0.351676 0.190036
-0.006407 0.009218 -0.023824 -0.257154 -0.2644527 -0.9294819 255 255 255 255 0.351676 0.190036
-0.019021 0.007986 -0.020065 -0.75898 -0.3394034 -0.5556569 255 255 255 255 0.351676 0.190036
-0.014425 0.004931 -0.023922 -0.4900652 0.2369918 -0.838851 255 255 255 255 0.351676 0.190036
-0.015581 0.008016 -0.024811 -0.4140373 -0.3588007 -0.8365616 255 255 255 255 0.351676 0.190036
0.017137 0.008756 -0.020986 0.4614423 -0.5444986 -0.700423 255 255 255 255 0.351676 0.190036
0.014961 0.007152 -0.018685 0.7487395 -0.1280041 -0.6503876 255 255 255 255 0.351676 0.190036
0.002348 0.004665 -0.026516 0.04979006 0.8132526 -0.5797769 255 255 255 255 0.351676 0.190036
-0.004696 0.002789 -0.02673 -0.1635499 0.2763173 -0.9470482 255 255 255 255 0.351676 0.190036
0.013764 0.003227 -0.022264 -0.03372609 -0.1568298 -0.9870496 255 255 255 255 0.351676 0.190036
-0.004488 0.000653 -0.026285 -0.1620789 -0.7580806 -0.6316995 255 255 255 255 0.351676 0.190036
0.012083 0.000801 -0.021086 0.2133087 -0.5020825 -0.8381006 255 255 255 255 0.351676 0.190036
0.012083 0.000801 -0.021086 0.04838388 -0.9981193 -0.03764187 255 255 255 255 0.351676 0.190036
-0.013617 0.003253 -0.026053 -0.3218131 -0.03649123 -0.9460998 255 255 255 255 0.351676 0.190036
0.018237 0.001061 -0.024068 0.3720838 -0.3966237 -0.8391921 255 255 255 255 0.351676 0.190036
0.022586 0.001155 -0.014971 0.6371763 -0.755237 -0.153699 255 255 255 255 0.351676 0.190036
-0.004739 0.000153 -0.024004 -0.1122121 -0.9908848 -0.07453763 255 255 255 255 0.351676 0.190036
-0.010055 0.001117 -0.023408 -0.1644363 -0.9111049 -0.3779533 255 255 255 255 0.351676 0.190036
-0.01096 0.000134 -0.020809 -0.03218886 -0.9759315 -0.2156886 255 255 255 255 0.351676 0.190036
0.011757 0.000994 -0.00952 0.01229612 -0.9978586 -0.06424125 255 255 255 255 0.351676 0.190036
-0.001143 7.2e-05 -0.021248 0.02477577 -0.9988518 -0.04100319 255 255 255 255 0.351676 0.190036
0.026603 0.000319 -0.008288 0.3602913 -0.9242843 -0.1260504 255 255 255 255 0.351676 0.190036
-0.028332 0.000362 0.003605 -0.679635 -0.6868389 0.2575821 255 255 255 255 0.351676 0.190036
-0.023415 9.7e-05 -0.016085 -0.569055 -0.4934539 -0.6577839 255 255 255 255 0.351676 0.190036
-0.011475 2.4e-05 0.000661 -0.003563534 -0.9999198 0.01215849 255 255 255 255 0.351676 0.190036
0.000206 0.000106 0.016176 -0.03508179 -0.9992949 -0.01337975 255 255 255 255 0.351676 0.190036
-0.009165 0.00174 0.012739 -0.180021 -0.9710642 0.1569295 255 255 255 255 0.351676 0.190036
-0.016743 0.001799 0.013289 -0.05803166 -0.9886674 -0.1384525 255 255 255 255 0.351676 0.190036
-0.009985 9.2e-05 0.02128 -0.02111364 -0.9970856 -0.07331167 255 255 255 255 0.351676 0.190036
0.001132 0.000957 0.026729 0.3877067 -0.628435 0.6743538 255 255 255 255 0.351676 0.190036
-0.02037 0.000393 0.016963 -0.652009 -0.7578723 -0.02267145 255 255 255 255 0.351676 0.190036
0.003303 0.001464 0.0242 0.06348766 -0.9009526 0.4292479 255 255 255 255 0.351676 0.190036
-0.005679 0.00271 0.028666 0.1363895 0.09956515 0.9856393 255 255 255 255 0.351676 0.190036
-0.019316 0.005034 0.02023 -0.8017721 0.121781 0.5850905 255 255 255 255 0.351676 0.190036
0.005521 0.00722 0.024855 -0.2411937 0.3091962 0.919904 255 255 255 255 0.351676 0.190036
-0.003297 0.0111 0.027546 0.06631751 -0.01807308 0.9976349 255 255 255 255 0.351676 0.190036
-0.011014 0.014883 0.023523 -0.5008354 0.3216152 0.8035718 255 255 255 255 0.351676 0.190036
-0.004624 0.014756 0.028863 -0.3245482 -0.1511506 0.9337141 255 255 255 255 0.351676 0.190036
-0.017561 0.015451 0.020627 -0.5039925 0.2101498 0.8377522 255 255 255 255 0.351676 0.190036
-0.012553 0.017043 0.021098 -0.3949654 0.457201 0.7968498 255 255 255 255 0.351676 0.190036
0.019315 0.0214 0.018655 0.653744 0.04358568 0.7554595 255 255 255 255 0.351676 0.190036
-0.019162 0.023311 0.019713 -0.6819756 -0.5010086 0.5328224 255 255 255 255 0.351676 0.190036
-0.010937 0.025984 0.023659 -0.4818577 -0.08789089 0.8718305 255 255 255 255 0.351676 0.190036
0.011255 0.025418 0.02684 0.1779122 -0.1124797 0.9775968 255 255 255 255 0.351676 0.190036
0.005031 0.027313 0.023376 0.07993472 -0.03590661 0.9961532 255 255 255 255 0.351676 0.190036
-0.017641 0.025177 0.021222 -0.4983621 -0.1254745 0.8578411 255 255 255 255 0.351676 0.190036
0.012299 0.029178 0.026714 0.4240386 -0.008344932 0.9056057 255 255 255 255 0.351676 0.190036
-0.017246 0.03647 0.0211 -0.6648297 0.4336903 0.6082058 255 255 255 255 0.351676 0.190036
0.020483 0.032944 0.017725 0.6797599 0.1015696 0.7263678 255 255 255 255 0.351676 0.190036
0.009184 0.036873 0.027521 0.1400101 0.4294861 0.8921541 255 255 255 255 0.351676 0.190036
0.003974 0.034905 0.026102 0.02579582 -0.2430214 0.9696779 255 255 255 255 0.351676 0.190036
0.003248 0.03657 0.026748 0.4083602 0.3571997 0.84003 255 255 255 255 0.351676 0.190036
-0.016168 0.038135 0.020302 -0.3197189 0.7756284 0.5442246 255 255 255 255 0.351676 0.190036
0.010763 0.039328 0.024455 0.336684 0.7838356 0.5217716 255 255 255 255 0.351676 0.190036
-0.015957 0.039746 0.014569 -0.2375252 0.9698879 -0.05384501 255 255 255 255 0.351676 0.190036
-0.004792 0.039843 0.018532 -0.0004667008 0.9999909 0.004248691 255 255 255 255 0.351676 0.190036
-0.009428 0.03987 0.007983 -0.05206104 0.995179 0.08311681 255 255 255 255 0.351676 0.190036
-0.019249 0.039867 0.001275 -0.05055315 0.9987031 0.006043314 255 255 255 255 0.351676 0.190036
-0.010453 0.039893 -0.018032 -0.05092201 0.9967719 -0.06207169 255 255 255 255 0.351676 0.190036
-0.000531 0.039805 -0.01523 -0.001784799 0.9999906 -0.003955639 255 255 255 255 0.351676 0.190036
0.014913 0.039722 -0.014788 0.0994475 0.9881127 -0.1172325 255 255 255 255 0.351676 0.190036
0.022944 0.039331 -0.012219 0.3715218 0.9167438 -0.1468074 255 255 255 255 0.351676 0.190036
0.019263 0.038785 -0.017056 0.2250091 0.8393281 -0.494873 255 255 255 255 0.351676 0.190036
-0.015425 0.039055 -0.0226 -0.1473246 0.73346 -0.6635752 255 255 255 255 0.351676 0.190036
0.004834 0.037866 -0.026099 0.05871224 0.808792 -0.5851568 255 255 255 255 0.351676 0.190036
-0.009034 0.035968 -0.023508 0.1518919 -0.1790789 -0.9720389 255 255 255 255 0.351676 0.190036
-0.005223 0.036043 -0.022592 -0.2058482 -0.3425278 -0.9166794 255 255 255 255 0.351676 0.190036
0.008782 0.030116 -0.026501 0.5514402 0.1425497 -0.8219449 255 255 255 255 0.351676 0.190036
0.004641 0.031295 -0.028632 -0.07407317 0.000353104 -0.9972528 255 255 255 255 0.351676 0.190036
-0.004402 0.030224 -0.024794 -0.7354773 0.1140066 -0.6678889 255 255 255 255 0.351676 0.190036
-0.013322 0.023316 -0.02255 0.1786766 -0.5533379 -0.8135674 255 255 255 255 0.351676 0.190036
0.014306 0.010576 -0.020529 0.389807 0.2448999 -0.8877357 255 255 255 255 0.351676 0.190036
-0.000143 0.005949 -0.025509 -0.2254884 -0.207873 -0.9518108 255 255 255 255 0.351676 0.190036
-0.005736 0.005899 -0.023611 -0.1199872 0.2887751 -0.9498485 255 255 255 255 0.351676 0.190036
0.00775 0.005651 -0.02283 0.4215803 -0.06610043 -0.9043787 255 255 255 255 0.351676 0.190036
-0.024071 0.000727 -0.015404 -0.7313586 0.1717623 -0.6600094 255 255 255 255 0.351676 0.190036
-0.014981 0.003293 -0.024859 -0.6900246 0.03891273 -0.7227392 255 255 255 255 0.351676 0.190036
0.003721 0.000875 -0.028843 0.1449415 -0.6667268 -0.7310727 255 255 255 255 0.351676 0.190036
-0.026614 0.000236 -0.013195 -0.8122619 -0.2880417 -0.5072107 255 255 255 255 0.351676 0.190036
-0.020056 0.001767 0.009651 -0.2180311 -0.890187 0.400037 255 255 255 255 0.351676 0.190036
0.026003 0.000236 0.007531 0.1195782 -0.9922227 0.03457151 255 255 255 255 0.351676 0.190036
-0.018749 0.000236 0.020223 -0.5800011 -0.7086723 0.4017244 255 255 255 255 0.351676 0.190036
-0.010088 0.000249 0.030293 -0.29123 -0.3046037 0.9068636 255 255 255 255 0.351676 0.190036
0.01659 0.004432 -0.022616 0.2705791 0.6058152 -0.7481811 255 255 255 255 0.351676 0.190036
0.022158 0.003866 0.0149 0.7306336 -0.001587648 0.6827679 255 255 255 255 0.351676 0.190036
0.019658 0.000236 0.017303 0.5176018 -0.7472718 0.4167414 255 255 255 255 0.351676 0.190036
0.021272 0.010537 -0.013353 0.5563639 -0.809251 -0.1886055 255 255 255 255 0.351676 0.190036
0.026874 0.010498 0.006013 0.7908897 0.5686743 0.22606 255 255 255 255 0.351676 0.190036
0.02104 0.006907 0.016811 0.7988641 0.07895488 0.5963072 255 255 255 255 0.351676 0.190036
0.027557 0.011271 0.00372 0.9558997 -0.2899953 -0.04646103 255 255 255 255 0.351676 0.190036
0.021171 0.021796 0.016763 0.6717418 0.1353322 0.7283188 255 255 255 255 0.351676 0.190036
0.02087 0.015493 0.017142 0.646312 -0.1021616 0.7562036 255 255 255 255 0.351676 0.190036
0.022204 0.031563 -0.012242 0.8551655 0.002793956 -0.5183477 255 255 255 255 0.351676 0.190036
0.026751 0.032829 -0.007311 0.9815727 -0.02483126 -0.189469 255 255 255 255 0.351676 0.190036
0.022134 0.033452 -0.017124 0.8147487 -0.2867266 -0.5039568 255 255 255 255 0.351676 0.190036
0.027046 0.036833 -0.003119 0.9625302 0.264086 -0.06159814 255 255 255 255 0.351676 0.190036
0.023603 0.037445 -0.016223 0.6793844 0.434259 -0.5914863 255 255 255 255 0.351676 0.190036
0.025268 0.03594 0.012031 0.7925723 0.113322 0.5991555 255 255 255 255 0.351676 0.190036
-0.026546 0.007418 0.008682 -0.8330905 0.3054188 0.461172 255 255 255 255 0.351676 0.190036
-0.023169 0.005525 -0.007555 -0.9764724 -0.06269068 -0.206329 255 255 255 255 0.351676 0.190036
-0.015678 0.010952 0.020093 -0.7073909 0.1054789 0.6989079 255 255 255 255 0.351676 0.190036
-0.026403 0.011678 1.6e-05 -0.9192415 -0.1959453 0.3414684 255 255 255 255 0.351676 0.190036
-0.024242 0.014076 0.011385 -0.8665478 -0.3391182 0.366188 255 255 255 255 0.351676 0.190036
-0.023367 0.016916 -0.01027 -0.759814 0.3871129 -0.5223277 255 255 255 255 0.351676 0.190036
-0.028666 0.024546 -0.007348 -0.905499 -0.2384316 -0.3510299 255 255 255 255 0.351676 0.190036
-0.022329 0.029965 0.011374 -0.7359114 0.08646909 0.6715337 255 255 255 255 0.351676 0.190036
-0.020834 0.032656 0.012159 -0.8443596 0.08545379 0.5289183 255 255 255 255 0.351676 0.190036
3 1 137 253 
3 137 303 253 
3 303 250 253 
3 136 0 306 
3 137 254 302 
3 139 254 137 
3 1 139 137 
3 1 253 2 
3 250 2 253 
3 140 141 250 
3 250 141 2 
3 140 138 141 
3 141 138 255 
3 138 0 255 
3 145 255 0 
3 73 0 138 
3 136 145 0 
3 309 136 306 
3 1 142 139 
3 1 2 256 
3 3 256 2 
3 2 141 3 
3 3 141 143 
3 255 144 141 
3 141 144 143 
3 1 256 142 
3 255 145 144 
3 4 144 145 
3 4 145 136 
3 256 257 142 
3 321 142 257 
3 257 148 321 
3 259 321 148 
3 258 257 256 
3 5 258 256 
3 149 256 3 
3 5 256 149 
3 143 149 3 
3 144 149 143 
3 4 146 144 
3 144 146 149 
3 158 146 147 
3 147 146 4 
3 5 149 150 
3 257 259 148 
3 147 151 158 
3 6 151 147 
3 260 126 259 
3 62 259 126 
3 257 260 259 
3 152 126 260 
3 258 260 257 
3 152 260 7 
3 7 260 258 
3 6 261 151 
3 126 152 153 
3 7 258 263 
3 5 154 258 
3 154 160 258 
3 160 263 258 
3 312 261 6 
3 266 262 155 
3 262 153 155 
3 152 155 153 
3 263 155 7 
3 7 155 152 
3 149 156 150 
3 156 157 150 
3 8 150 157 
3 149 146 156 
3 265 146 9 
3 265 156 146 
3 146 158 9 
3 9 158 264 
3 151 264 158 
3 311 261 312 
3 5 150 154 
3 8 154 150 
3 156 265 157 
3 151 261 264 
3 11 264 261 
3 157 159 8 
3 8 159 154 
3 9 264 265 
3 159 265 267 
3 267 265 264 
3 157 265 159 
3 267 264 11 
3 262 266 161 
3 268 161 266 
3 160 266 263 
3 263 266 155 
3 10 266 160 
3 163 159 267 
3 154 159 162 
3 163 267 12 
3 267 11 12 
3 11 97 269 
3 12 11 269 
3 10 268 266 
3 163 12 270 
3 270 12 165 
3 269 165 12 
3 165 269 168 
3 168 269 318 
3 154 164 160 
3 160 164 10 
3 162 164 154 
3 159 271 162 
3 272 162 271 
3 159 163 271 
3 270 271 163 
3 164 166 10 
3 268 10 273 
3 273 10 166 
3 268 273 161 
3 161 273 66 
3 162 13 164 
3 164 13 166 
3 272 13 162 
3 270 167 271 
3 271 167 272 
3 13 272 167 
3 13 167 274 
3 165 274 270 
3 274 167 270 
3 170 165 168 
3 166 169 273 
3 14 273 169 
3 66 273 14 
3 15 169 166 
3 166 13 15 
3 15 13 274 
3 170 274 165 
3 15 274 176 
3 176 274 16 
3 16 274 170 
3 170 168 173 
3 168 318 173 
3 173 318 102 
3 14 275 66 
3 66 275 171 
3 169 275 14 
3 276 174 169 
3 169 174 275 
3 176 276 15 
3 15 276 169 
3 170 173 172 
3 181 172 173 
3 174 134 275 
3 175 174 276 
3 175 276 176 
3 178 175 176 
3 179 176 16 
3 178 176 179 
3 17 177 134 
3 17 134 277 
3 174 277 134 
3 178 174 175 
3 277 174 178 
3 16 170 179 
3 182 179 172 
3 178 179 182 
3 170 172 179 
3 180 277 178 
3 19 180 182 
3 178 182 180 
3 172 181 182 
3 186 182 181 
3 173 187 181 
3 183 177 17 
3 18 183 17 
3 181 187 186 
3 277 278 17 
3 277 180 278 
3 19 278 180 
3 18 278 19 
3 173 102 187 
3 17 278 18 
3 284 184 19 
3 18 19 184 
3 284 19 279 
3 182 186 185 
3 19 182 185 
3 185 279 19 
3 185 186 20 
3 282 20 187 
3 20 186 187 
3 184 188 18 
3 284 279 189 
3 279 185 280 
3 280 185 21 
3 20 21 185 
3 21 20 281 
3 282 281 20 
3 317 282 100 
3 183 188 135 
3 18 188 183 
3 279 280 190 
3 190 280 191 
3 279 190 189 
3 280 21 191 
3 191 21 22 
3 22 21 192 
3 21 281 192 
3 192 281 23 
3 23 281 283 
3 281 282 283 
3 282 317 283 
3 317 194 283 
3 23 283 194 
3 188 184 195 
3 184 284 195 
3 196 195 284 
3 284 189 196 
3 24 196 189 
3 190 193 189 
3 24 189 193 
3 193 191 22 
3 193 22 285 
3 23 198 192 
3 22 192 285 
3 285 192 198 
3 24 193 197 
3 190 191 193 
3 198 26 197 
3 193 285 197 
3 197 285 198 
3 23 194 198 
3 188 195 72 
3 196 286 195 
3 72 195 200 
3 200 195 286 
3 286 196 287 
3 24 287 196 
3 287 197 26 
3 24 197 287 
3 26 198 288 
3 194 288 198 
3 26 199 287 
3 286 27 200 
3 201 200 27 
3 65 200 201 
3 286 287 27 
3 201 27 202 
3 25 288 194 
3 28 29 202 
3 201 202 29 
3 27 290 202 
3 28 202 290 
3 199 27 287 
3 290 27 204 
3 199 204 27 
3 26 289 199 
3 289 204 199 
3 288 289 26 
3 25 203 288 
3 205 288 203 
3 29 65 201 
3 204 289 205 
3 288 205 289 
3 65 206 129 
3 29 206 65 
3 28 290 208 
3 208 207 31 
3 290 204 208 
3 208 204 207 
3 204 205 207 
3 203 209 205 
3 205 209 207 
3 29 210 206 
3 215 291 28 
3 28 291 29 
3 32 215 28 
3 28 208 32 
3 215 32 211 
3 212 210 29 
3 127 210 212 
3 213 34 212 
3 29 291 212 
3 215 213 291 
3 213 212 291 
3 207 214 31 
3 209 214 207 
3 213 219 34 
3 35 34 219 
3 215 219 213 
3 216 211 32 
3 32 208 216 
3 31 216 208 
3 211 216 217 
3 217 216 214 
3 31 214 216 
3 33 217 214 
3 214 292 33 
3 214 209 292 
3 292 209 91 
3 209 218 91 
3 30 218 209 
3 34 35 36 
3 37 219 215 
3 211 37 215 
3 211 217 37 
3 37 217 219 
3 33 220 217 
3 219 217 220 
3 36 38 221 
3 35 38 36 
3 38 35 222 
3 220 222 219 
3 35 219 222 
3 223 225 109 
3 109 225 224 
3 221 225 223 
3 294 224 225 
3 221 38 225 
3 295 293 33 
3 33 293 220 
3 33 226 295 
3 227 295 226 
3 33 292 226 
3 91 226 292 
3 225 222 294 
3 38 222 225 
3 220 293 222 
3 222 293 294 
3 293 228 294 
3 295 228 293 
3 228 295 230 
3 304 295 227 
3 294 234 224 
3 224 234 297 
3 104 224 297 
3 294 229 234 
3 39 298 229 
3 294 228 229 
3 229 228 39 
3 39 228 230 
3 304 230 295 
3 39 230 232 
3 232 230 235 
3 299 296 40 
3 104 297 296 
3 40 296 297 
3 40 297 234 
3 231 234 229 
3 229 298 231 
3 232 298 39 
3 298 232 233 
3 233 232 235 
3 298 233 231 
3 237 231 233 
3 233 241 237 
3 239 244 40 
3 299 40 244 
3 239 40 234 
3 233 235 236 
3 245 244 239 
3 234 238 239 
3 231 237 234 
3 234 237 238 
3 236 241 233 
3 237 241 238 
3 238 241 239 
3 236 240 241 
3 76 240 236 
3 241 240 245 
3 245 240 242 
3 76 242 240 
3 103 299 243 
3 41 243 299 
3 41 299 244 
3 241 245 239 
3 41 244 245 
3 41 245 44 
3 44 245 246 
3 41 44 243 
3 44 246 247 
3 249 247 246 
3 242 42 245 
3 43 301 242 
3 242 301 42 
3 108 300 248 
3 247 248 300 
3 243 44 300 
3 247 300 44 
3 249 248 247 
3 249 246 47 
3 245 42 246 
3 46 47 42 
3 42 47 246 
3 46 42 306 
3 42 301 306 
3 306 301 43 
3 45 249 251 
3 45 248 249 
3 251 249 302 
3 47 303 249 
3 302 249 303 
3 47 46 252 
3 252 250 47 
3 252 140 250 
3 250 303 47 
3 252 138 140 
3 46 138 252 
3 306 73 46 
3 46 73 138 
3 303 137 302 
3 0 73 306 
3 235 74 236 
3 43 242 75 
3 75 242 48 
3 48 242 76 
3 78 43 75 
3 79 74 304 
3 230 304 235 
3 235 304 74 
3 236 74 76 
3 74 79 76 
3 48 76 79 
3 80 48 77 
3 79 77 48 
3 78 75 80 
3 80 75 48 
3 43 305 306 
3 227 79 304 
3 78 80 85 
3 309 306 305 
3 84 77 79 
3 85 77 84 
3 85 80 77 
3 85 81 78 
3 309 305 81 
3 43 78 305 
3 81 305 78 
3 49 82 226 
3 226 82 227 
3 79 82 307 
3 307 82 83 
3 227 82 79 
3 83 82 49 
3 50 307 83 
3 50 84 307 
3 79 307 84 
3 51 85 84 
3 51 308 85 
3 52 85 308 
3 309 81 52 
3 52 81 85 
3 84 50 86 
3 51 84 86 
3 86 310 51 
3 51 310 308 
3 310 52 308 
3 87 309 52 
3 136 309 4 
3 4 309 87 
3 92 83 49 
3 93 83 92 
3 50 83 88 
3 93 88 83 
3 53 86 50 
3 310 86 53 
3 4 87 147 
3 6 147 87 
3 310 89 52 
3 53 89 310 
3 87 52 89 
3 89 312 87 
3 87 312 6 
3 53 50 88 
3 95 53 88 
3 95 90 53 
3 89 90 312 
3 312 90 311 
3 95 311 90 
3 226 91 49 
3 49 91 92 
3 218 92 91 
3 54 92 218 
3 54 93 92 
3 89 53 90 
3 203 30 209 
3 203 99 30 
3 218 30 54 
3 54 30 99 
3 95 88 94 
3 98 95 96 
3 94 96 95 
3 97 311 98 
3 95 98 311 
3 261 97 11 
3 311 97 261 
3 54 99 93 
3 88 93 94 
3 313 314 93 
3 314 94 93 
3 97 98 101 
3 101 98 96 
3 99 313 93 
3 315 313 99 
3 315 99 25 
3 203 25 99 
3 315 100 313 
3 100 314 313 
3 316 314 100 
3 94 316 96 
3 101 96 55 
3 55 96 316 
3 314 316 94 
3 269 97 101 
3 55 316 102 
3 187 102 316 
3 315 25 317 
3 194 317 25 
3 102 318 55 
3 269 101 318 
3 55 318 101 
3 317 100 315 
3 282 187 100 
3 100 187 316 
3 103 105 299 
3 104 296 105 
3 299 105 296 
3 105 103 56 
3 109 104 105 
3 109 224 104 
3 243 106 103 
3 111 56 106 
3 106 56 103 
3 111 106 319 
3 300 106 243 
3 108 106 300 
3 106 107 319 
3 108 107 106 
3 112 108 45 
3 45 108 248 
3 57 108 112 
3 57 107 108 
3 56 320 105 
3 105 320 109 
3 56 110 320 
3 58 114 320 
3 58 320 110 
3 110 56 111 
3 58 110 111 
3 45 251 112 
3 254 112 302 
3 302 112 251 
3 320 114 109 
3 109 114 223 
3 221 223 114 
3 221 114 113 
3 111 319 115 
3 319 107 117 
3 59 117 107 
3 57 59 107 
3 57 112 118 
3 321 118 254 
3 254 118 112 
3 254 139 321 
3 142 321 139 
3 114 116 113 
3 61 113 116 
3 58 116 114 
3 111 322 58 
3 111 115 322 
3 119 322 115 
3 119 115 117 
3 115 319 117 
3 57 118 59 
3 36 221 61 
3 61 221 113 
3 119 121 322 
3 121 119 323 
3 59 323 117 
3 117 323 119 
3 124 323 59 
3 61 116 60 
3 116 121 60 
3 58 322 116 
3 116 322 121 
3 121 323 120 
3 62 118 321 
3 59 118 124 
3 62 124 118 
3 62 321 259 
3 36 324 34 
3 34 324 127 
3 61 324 36 
3 122 127 324 
3 61 60 324 
3 122 324 60 
3 60 121 122 
3 122 121 120 
3 122 120 123 
3 124 123 323 
3 323 123 120 
3 125 123 63 
3 63 123 124 
3 62 126 124 
3 63 124 126 
3 34 127 212 
3 122 123 125 
3 126 153 63 
3 262 63 153 
3 128 325 122 
3 122 325 127 
3 210 127 325 
3 128 122 125 
3 326 125 63 
3 128 125 326 
3 325 129 210 
3 206 210 129 
3 64 129 325 
3 128 130 325 
3 64 325 130 
3 326 130 128 
3 63 262 326 
3 327 326 262 
3 129 131 65 
3 64 131 129 
3 67 130 68 
3 68 130 69 
3 64 130 67 
3 64 67 131 
3 130 326 69 
3 69 326 327 
3 161 327 262 
3 66 171 161 
3 161 171 327 
3 67 132 131 
3 131 132 200 
3 72 200 132 
3 131 200 65 
3 68 133 67 
3 69 70 68 
3 68 70 133 
3 71 70 69 
3 133 132 67 
3 70 132 133 
3 134 71 69 
3 134 69 327 
3 327 171 134 
3 132 135 72 
3 70 135 132 
3 72 135 188 
3 183 135 70 
3 71 177 70 
3 183 70 177 
3 177 71 134 
3 134 171 275 
