ply
format ascii 1.0
comment VCGLIB generated
comment TextureFile Textures//Combined_Texture//Texture_01_A.png
element vertex 73
property float x
property float y
property float z
property float nx
property float ny
property float nz
property uchar red
property uchar green
property uchar blue
property uchar alpha
property float texture_u
property float texture_v
element face 142
property list uchar int vertex_indices
end_header
-0.009132 0.00503 -0.004278 -0.903202 -0.2582372 -0.3428408 255 255 255 255 0.352943 0.189634
-0.008129 0.007514 -0.004452 -0.8076496 0.3998878 -0.4333497 255 255 255 255 0.352943 0.189634
-0.006613 0.010303 -0.004006 -0.7242588 0.5488276 -0.4174177 255 255 255 255 0.352943 0.189634
-0.006005 0.011619 -0.002942 -0.810403 0.4818795 -0.3332253 255 255 255 255 0.352943 0.189634
-0.005826 0.012011 0.001486 -0.7885333 0.5592796 0.2557763 255 255 255 255 0.352943 0.189634
-0.005843 0.011216 0.002613 -0.7723446 0.4349523 0.4629258 255 255 255 255 0.352943 0.189634
-0.007314 0.009061 0.001983 -0.8577663 0.3635493 0.363413 255 255 255 255 0.352943 0.189634
-0.007067 0.01004 -0.000503 -0.9001238 0.434583 0.03024497 255 255 255 255 0.352943 0.189634
-0.005735 0.012684 -0.001939 -0.8460788 0.5227902 -0.1041205 255 255 255 255 0.352943 0.189634
-0.00913 0.004565 0.001202 -0.8943152 -0.3484578 0.2806731 255 255 255 255 0.352943 0.189634
-0.003952 0.012275 0.004156 -0.814517 0.3623876 0.4530312 255 255 255 255 0.352943 0.189634
-0.008143 0.003875 -0.001151 -0.4915963 -0.8703747 -0.02794669 255 255 255 255 0.352943 0.189634
-0.001884 0.008807 -0.009542 -0.2364869 0.2745474 -0.9320395 255 255 255 255 0.352943 0.189634
-0.001551 0.017059 -0.005251 -0.3227459 0.5623558 -0.7613088 255 255 255 255 0.352943 0.189634
-0.002762 0.016665 -0.002827 -0.7750261 0.6132184 -0.1526365 255 255 255 255 0.352943 0.189634
-0.004348 0.003624 -0.00906 -0.5165455 -0.5414134 -0.6633644 255 255 255 255 0.352943 0.189634
-0.003923 0.006213 -0.009784 -0.4843929 0.1052486 -0.8684966 255 255 255 255 0.352943 0.189634
-0.003067 0.004051 0.008588 -0.4378935 -0.3717538 0.8185648 255 255 255 255 0.352943 0.189634
-0.003018 0.003062 0.007216 -0.2775589 -0.8442884 0.4584082 255 255 255 255 0.352943 0.189634
-0.002848 0.002603 -0.006889 -0.2144696 -0.9301016 -0.2981843 255 255 255 255 0.352943 0.189634
-0.001215 0.01045 -0.008998 -0.2538902 0.4046132 -0.8785374 255 255 255 255 0.352943 0.189634
-0.004838 0.002565 -0.001911 -0.4763489 -0.8789967 -0.02136717 255 255 255 255 0.352943 0.189634
-0.002151 0.008497 0.008238 -0.4871631 0.1911061 0.8521447 255 255 255 255 0.352943 0.189634
-0.000227 0.011445 -0.008736 0.2136547 0.4920133 -0.8439636 255 255 255 255 0.352943 0.189634
-0.002899 0.001616 0.003656 -0.7771174 -0.597279 0.1983594 255 255 255 255 0.352943 0.189634
-0.001371 0.003299 -0.0095 0.06135405 -0.6111801 -0.7891101 255 255 255 255 0.352943 0.189634
-0.000995 0.019004 -0.003754 -0.6719934 0.6320831 -0.3858701 255 255 255 255 0.352943 0.189634
-0.00178 0.019629 0.005296 -0.7580301 0.4327281 0.4879927 255 255 255 255 0.352943 0.189634
0.00098 -0 0.002077 0.001431889 -0.9873902 0.1582989 255 255 255 255 0.352943 0.189634
-0.002506 0.000789 -0.003012 -0.4152578 -0.8925647 -0.1757535 255 255 255 255 0.352943 0.189634
0.00035 0.022417 0.002937 -0.1426474 0.9810274 0.1312903 255 255 255 255 0.352943 0.189634
0.000202 0.016049 0.007102 -0.05400769 0.3533518 0.9339303 255 255 255 255 0.352943 0.189634
-0.000747 0.000373 -0.002608 -0.01947613 -0.9761124 -0.2163917 255 255 255 255 0.352943 0.189634
-0.000851 0.021053 0.005117 -0.2979335 0.7416406 0.6010032 255 255 255 255 0.352943 0.189634
0.001027 0.011611 0.008406 -0.03404919 0.3200981 0.9467723 255 255 255 255 0.352943 0.189634
0.00015 0.002602 0.006055 -0.00929693 -0.8450768 0.5345641 255 255 255 255 0.352943 0.189634
0.001305 0.014765 -0.004402 0.617551 0.3628953 -0.6978093 255 255 255 255 0.352943 0.189634
0.000322 0.019445 -0.004033 0.1521853 0.6539101 -0.7411082 255 255 255 255 0.352943 0.189634
0.006892 0.003717 -0.008358 0.5148641 -0.3489375 -0.7830437 255 255 255 255 0.352943 0.189634
2.5e-05 0.01016 -0.009227 0.3040736 0.249737 -0.9193317 255 255 255 255 0.352943 0.189634
0.002401 0.020703 -0.001036 0.6416246 0.6891786 -0.3366762 255 255 255 255 0.352943 0.189634
0.001468 0.021723 0.002992 0.6640815 0.666831 0.3381307 255 255 255 255 0.352943 0.189634
0.007378 0.011802 0.006652 0.6739002 0.5966085 0.4357944 255 255 255 255 0.352943 0.189634
0.003344 0.009653 0.00938 0.1296672 0.2872881 0.9490268 255 255 255 255 0.352943 0.189634
0.001507 0.001295 0.004811 0.05805349 -0.8284551 0.5570385 255 255 255 255 0.352943 0.189634
0.00234 0.017457 -0.003045 0.765905 0.2329004 -0.5992888 255 255 255 255 0.352943 0.189634
0.001932 0.016226 0.006659 0.5067577 0.4389345 0.7419792 255 255 255 255 0.352943 0.189634
0.004762 0.012344 0.006211 0.2720472 0.7639878 0.5850752 255 255 255 255 0.352943 0.189634
0.002952 0.004867 0.009784 0.133417 -0.4357427 0.8901282 255 255 255 255 0.352943 0.189634
0.003009 0.000548 0.002261 0.4468122 -0.8788189 0.1674406 255 255 255 255 0.352943 0.189634
0.001948 0.008452 -0.008244 0.4220328 0.2268317 -0.8777447 255 255 255 255 0.352943 0.189634
0.003684 0.010105 -0.006152 0.5507866 0.5728267 -0.6070451 255 255 255 255 0.352943 0.189634
0.004835 0.001798 -0.002919 0.4446913 -0.8943902 -0.04812299 255 255 255 255 0.352943 0.189634
0.008082 0.004134 -0.007139 0.855989 -0.259044 -0.4474138 255 255 255 255 0.352943 0.189634
0.002663 0.019765 0.002018 0.9193344 0.3601691 0.1584381 255 255 255 255 0.352943 0.189634
0.004072 0.01351 0.004789 0.7508632 0.6447305 0.1432727 255 255 255 255 0.352943 0.189634
0.008057 0.003992 -0.00346 0.8859547 -0.4595339 0.06255415 255 255 255 255 0.352943 0.189634
0.007108 0.007367 -0.006593 0.6295933 0.4441361 -0.6374601 255 255 255 255 0.352943 0.189634
0.003612 0.0131 -0.002731 0.7628704 0.4476759 -0.4664923 255 255 255 255 0.352943 0.189634
0.009132 0.005565 0.007082 0.8734215 -0.3530016 0.3354472 255 255 255 255 0.352943 0.189634
0.003265 0.0033 0.006348 0.3081946 -0.8435626 0.4397933 255 255 255 255 0.352943 0.189634
0.005566 0.003253 -0.000265 0.621931 -0.7755275 0.1084385 255 255 255 255 0.352943 0.189634
0.004115 0.014395 -0.000103 0.9073502 0.3988382 -0.1328292 255 255 255 255 0.352943 0.189634
0.007033 0.012168 0.004276 0.7412636 0.6470829 -0.1783594 255 255 255 255 0.352943 0.189634
0.007424 0.004713 0.004042 0.8224703 -0.5676032 -0.03700364 255 255 255 255 0.352943 0.189634
0.007296 0.009667 -0.003626 0.7055331 0.6316109 -0.3213888 255 255 255 255 0.352943 0.189634
0.00568 0.012222 -0.000515 0.8163439 0.5643612 -0.1227973 255 255 255 255 0.352943 0.189634
0.005574 0.012152 0.000622 0.8640556 0.490817 0.1118336 255 255 255 255 0.352943 0.189634
0.005927 0.012213 0.002833 0.4211611 0.8283843 -0.3693276 255 255 255 255 0.352943 0.189634
0.007907 0.005727 -0.002212 0.9891161 0.1296092 0.06964771 255 255 255 255 0.352943 0.189634
0.00561 0.011814 0.001661 0.7621645 0.6356936 -0.1224703 255 255 255 255 0.352943 0.189634
0.007015 0.009134 0.002454 0.9603201 0.06624688 -0.2709182 255 255 255 255 0.352943 0.189634
0.006466 0.010253 0.000326 0.9460185 0.3241084 -0.001688304 255 255 255 255 0.352943 0.189634
3 7 2 1 
3 7 3 2 
3 7 5 4 
3 3 7 8 
3 8 7 4 
3 5 7 6 
3 7 9 6 
3 7 0 9 
3 4 5 10 
3 9 0 11 
3 1 15 0 
3 1 2 15 
3 2 3 12 
3 3 8 13 
3 8 4 14 
3 14 4 10 
3 10 5 6 
3 21 11 15 
3 0 15 11 
3 15 2 16 
3 3 13 12 
3 8 14 13 
3 6 22 10 
3 22 6 17 
3 6 9 17 
3 17 9 18 
3 9 11 18 
3 18 11 21 
3 15 19 21 
3 16 2 12 
3 12 13 20 
3 14 10 27 
3 18 21 29 
3 21 19 29 
3 13 23 20 
3 13 14 27 
3 10 22 27 
3 18 29 24 
3 16 25 15 
3 16 12 25 
3 13 27 26 
3 24 29 28 
3 15 25 19 
3 26 27 30 
3 27 22 31 
3 29 19 32 
3 27 33 30 
3 27 31 33 
3 22 34 31 
3 22 17 34 
3 18 35 17 
3 18 24 35 
3 35 24 28 
3 13 36 23 
3 13 26 37 
3 37 26 30 
3 29 32 28 
3 32 19 38 
3 12 20 39 
3 20 23 39 
3 36 13 37 
3 30 40 37 
3 30 41 40 
3 30 33 41 
3 34 43 42 
3 34 17 43 
3 35 28 44 
3 19 25 38 
3 25 50 38 
3 12 39 25 
3 25 39 50 
3 37 40 45 
3 33 31 41 
3 41 31 46 
3 31 34 46 
3 46 34 47 
3 34 42 47 
3 17 48 43 
3 17 35 48 
3 35 44 60 
3 28 49 44 
3 28 32 49 
3 50 53 38 
3 39 23 51 
3 23 36 51 
3 37 45 36 
3 35 60 48 
3 32 38 52 
3 52 38 53 
3 53 50 57 
3 41 54 40 
3 41 46 55 
3 46 47 55 
3 42 43 59 
3 43 48 59 
3 32 52 49 
3 52 53 56 
3 39 51 50 
3 50 51 57 
3 51 36 58 
3 40 62 45 
3 40 54 62 
3 41 55 54 
3 55 47 42 
3 48 60 59 
3 49 52 61 
3 52 56 61 
3 51 66 57 
3 57 66 65 
3 36 45 58 
3 58 45 62 
3 62 54 55 
3 55 42 63 
3 42 59 63 
3 60 64 59 
3 44 64 60 
3 49 64 44 
3 49 61 64 
3 61 56 64 
3 57 65 53 
3 51 58 66 
3 58 62 66 
3 62 67 66 
3 62 55 67 
3 55 63 68 
3 64 56 69 
3 56 53 69 
3 53 65 69 
3 55 70 67 
3 55 68 70 
3 63 59 71 
3 59 64 71 
3 66 72 65 
3 63 72 68 
3 63 71 72 
3 64 72 71 
3 72 64 69 
3 65 72 69 
3 66 67 72 
3 67 70 72 
3 1 0 7 
3 70 68 72 
