ply
format ascii 1.0
comment VCGLIB generated
comment TextureFile T://3111_3D//2020//SAM//Textures//Combined_Texture//Texture_01_A.png
element vertex 173
property float x
property float y
property float z
property float nx
property float ny
property float nz
property uchar red
property uchar green
property uchar blue
property uchar alpha
property float texture_u
property float texture_v
element face 282
property list uchar int vertex_indices
end_header
-0.004194 0.005889 -1.4e-05 -0.01618447 0.9901968 -0.1387385 255 255 255 255 0.457791 0.258041
-0.001388 0.004698 -1.4e-05 0.813903 0.5626825 0.1447422 255 255 255 255 0.457791 0.258041
-5.4e-05 0.002215 0.000139 0.8245044 0.372952 0.4255578 255 255 255 255 0.457791 0.258041
-7.8e-05 0.002237 -1.4e-05 0.8704761 0.4592692 -0.1770402 255 255 255 255 0.457791 0.258041
0.001493 0.004721 -0.003498 0.1408083 -0.8164465 -0.5599895 255 255 255 255 0.457791 0.258041
0.000687 0.003719 -0.001439 0.2626677 -0.7301347 -0.6308004 255 255 255 255 0.457791 0.258041
0.00078 0.004606 -0.001676 -0.2420038 0.7478956 0.6181314 255 255 255 255 0.457791 0.258041
0.000171 0.00167 -0.000119 -0.645959 -0.5639968 -0.5144363 255 255 255 255 0.457791 0.258041
0.000128 0.001797 -9e-06 -0.36989 0.4849322 0.7924785 255 255 255 255 0.457791 0.258041
0.00091 0.005941 0.003413 0.59714 -0.6665757 0.446207 255 255 255 255 0.457791 0.258041
0.00122 0.005384 0.001603 0.4521206 -0.77766 0.4368431 255 255 255 255 0.457791 0.258041
0.000465 0.005832 0.001613 -0.1125625 0.6755673 -0.7286553 255 255 255 255 0.457791 0.258041
8.5e-05 0.00305 7.5e-05 0.4949317 -0.6389111 0.5889272 255 255 255 255 0.457791 0.258041
5.8e-05 0.00317 -3.4e-05 -0.2863273 0.4985901 -0.8181837 255 255 255 255 0.457791 0.258041
0.002628 0.006691 -0.002867 0.3486502 -0.8154759 -0.4619978 255 255 255 255 0.457791 0.258041
0.000578 0.0054 -0.001666 0.1914595 -0.6965421 -0.6915001 255 255 255 255 0.457791 0.258041
0.001258 0.006576 -0.00147 -0.4648695 0.7476773 0.47421 255 255 255 255 0.457791 0.258041
6e-06 0.003767 -0.000192 -0.5713747 0.4848554 0.6621526 255 255 255 255 0.457791 0.258041
-0.001267 0.006539 -0.000742 -0.5074224 -0.7479435 -0.4279054 255 255 255 255 0.457791 0.258041
-0.001467 0.007336 -0.000852 0.5846746 0.776157 0.2360846 255 255 255 255 0.457791 0.258041
-0.000151 0.004698 -0.000128 -0.6907949 -0.4977707 0.52443 255 255 255 255 0.457791 0.258041
-5.8e-05 0.004812 -7.7e-05 0.7960924 0.4983605 0.3433276 255 255 255 255 0.457791 0.258041
-0.002919 0.007708 -0.001649 0.1956442 0.9508209 -0.2401312 255 255 255 255 0.457791 0.258041
0.002793 0.008703 0.001353 0.1171149 0.9522235 0.2820539 255 255 255 255 0.457791 0.258041
0.001192 0.007561 0.000444 0.4123367 -0.8088037 0.4193029 255 255 255 255 0.457791 0.258041
0.002213 0.008484 0.00042 0.04694782 0.6081019 -0.7924696 255 255 255 255 0.457791 0.258041
0.001386 0.008339 0.000554 -0.6014116 0.7597576 -0.2471282 255 255 255 255 0.457791 0.258041
0.00011 0.005763 -0.000171 0.6982903 -0.4974082 -0.5147581 255 255 255 255 0.457791 0.258041
2e-05 0.005874 -0.000222 -0.7908996 0.4986345 -0.3547414 255 255 255 255 0.457791 0.258041
-0.000532 0.009585 0.001288 0.161515 0.6482621 -0.7440895 255 255 255 255 0.457791 0.258041
3.8e-05 0.00735 -2.9e-05 -0.04564775 -0.6671491 0.7435243 255 255 255 255 0.457791 0.258041
-6.9e-05 0.007365 -4.8e-05 0.0004478936 0.4962172 -0.8681983 255 255 255 255 0.457791 0.258041
-0.001039 0.009676 0.002748 -0.2838612 -0.5000735 0.8181378 255 255 255 255 0.457791 0.258040
0.000704 0.010994 -0.002906 -0.07786743 -0.01396893 -0.9968659 255 255 255 255 0.457791 0.258040
0.000516 0.010282 -0.00081 0.1589054 0.5685201 0.8071766 255 255 255 255 0.457791 0.258040
-8.1e-05 0.008625 2.4e-05 -0.03458324 -0.6672431 -0.7440368 255 255 255 255 0.457791 0.258041
2.9e-05 0.008641 3.1e-05 0.09807335 0.41739 0.9034197 255 255 255 255 0.457791 0.258041
-0.004322 0.00555 -1.4e-05 -0.6556058 -0.6905268 0.3055386 255 255 255 255 0.457791 0.258041
-0.000211 0.002094 -1.4e-05 -0.8223324 -0.5690073 -1.409026e-07 255 255 255 255 0.457791 0.258041
-0.001817 0.004415 -1.4e-05 -0.6999632 -0.7104536 0.07285049 255 255 255 255 0.457791 0.258041
-0.000134 0.002055 0.000254 -0.7041972 -0.4981175 0.50595 255 255 255 255 0.457791 0.258041
-0.001431 0.004291 -0.000721 0.6455552 0.4439396 -0.6214308 255 255 255 255 0.457791 0.258041
-0.002105 0.00542 -1.4e-05 0.495011 0.8686686 -0.01946735 255 255 255 255 0.457791 0.258041
0.000494 0.00477 -0.002587 -0.845524 0.5122806 -0.1505251 255 255 255 255 0.457791 0.258041
0.001608 0.00477 -0.002151 0.6331927 0.6220568 0.4605566 255 255 255 255 0.457791 0.258041
0.001238 0.00343 -0.001135 0.6407757 -0.6527868 -0.4040741 255 255 255 255 0.457791 0.258041
0.001731 0.004826 -0.00304 0.4394147 -0.7990351 -0.4104362 255 255 255 255 0.457791 0.258041
-2.2e-05 0.002587 -0.000882 -0.2494128 -0.626936 -0.7380682 255 255 255 255 0.457791 0.258041
0.001452 0.00502 -0.003393 -0.153494 0.9864063 -0.0586716 255 255 255 255 0.457791 0.258041
0.000289 0.00165 -5e-05 0.540871 -0.6217295 -0.5664901 255 255 255 255 0.457791 0.258041
0.001144 0.00361 -0.000894 0.2737828 0.4592671 0.8450543 255 255 255 255 0.457791 0.258041
0.001184 0.005988 0.002161 0.4622344 0.8569798 -0.2278705 255 255 255 255 0.457791 0.258041
0.000475 0.006041 0.003189 -0.1790484 -0.8344327 0.5212137 255 255 255 255 0.457791 0.258041
0.000884 0.006225 0.003309 0.06479258 0.9978759 -0.006760351 255 255 255 255 0.457791 0.258041
0.000243 0.004117 0.000717 -0.0341159 -0.5285226 0.8482335 255 255 255 255 0.457791 0.258041
-0.000244 0.004888 0.001207 -0.5307037 -0.6930864 0.4878369 255 255 255 255 0.457791 0.258041
0.001352 0.006741 -0.00242 -0.6750616 0.6624603 -0.3247124 255 255 255 255 0.457791 0.258041
0.002207 0.006741 -0.001583 0.6104742 0.3925068 0.6879387 255 255 255 255 0.457791 0.258041
0.000864 0.004557 -0.000413 0.7110375 -0.6827164 -0.1682976 255 255 255 255 0.457791 0.258041
0.002668 0.006796 -0.002353 0.5890642 -0.7519321 -0.2959754 255 255 255 255 0.457791 0.258041
0.002549 0.006991 -0.002787 -0.1181313 0.9863814 -0.1144416 255 255 255 255 0.457791 0.258041
-2.3e-05 0.00362 -0.000355 0.0768244 -0.6229335 -0.7784934 255 255 255 255 0.457791 0.258041
0.001288 0.00558 -0.000608 -0.08961602 0.4756143 0.8750771 255 255 255 255 0.457791 0.258041
8.8e-05 0.00364 -0.000276 0.7336982 -0.5643476 0.3784161 255 255 255 255 0.457791 0.258041
-0.001803 0.007064 -0.00034 -0.1939443 0.3855223 0.9020855 255 255 255 255 0.457791 0.258041
-0.002908 0.007533 -0.001246 -0.7851782 -0.6110172 0.1007625 255 255 255 255 0.457791 0.258041
-0.000706 0.005641 3.6e-05 -0.4932655 -0.4753089 0.7285401 255 255 255 255 0.457791 0.258041
-7.6e-05 0.00468 -0.000226 -0.6353801 -0.5888899 -0.4995005 255 255 255 255 0.457791 0.258041
-0.000729 0.006441 -0.001085 0.7413887 0.1524104 -0.6535395 255 255 255 255 0.457791 0.258041
0.001881 0.008223 0.001439 0.09391748 -0.5289227 0.8434574 255 255 255 255 0.457791 0.258041
0.000654 0.006684 -0.000323 0.7199881 -0.4462712 -0.5314689 255 255 255 255 0.457791 0.258041
0.000661 0.007465 0.000772 -0.3241077 -0.2493714 0.9125613 255 255 255 255 0.457791 0.258041
-0.000111 0.009152 0.001712 0.4071683 -0.7141437 0.5693969 255 255 255 255 0.457791 0.258041
-0.001125 0.009152 0.00136 -0.6549852 -0.7488309 0.101226 255 255 255 255 0.457791 0.258041
-0.000278 0.009715 0.001998 0.4641903 0.8793231 0.1063875 255 255 255 255 0.457791 0.258040
-0.000466 0.008884 0.001098 -0.2013118 -0.668601 0.7158535 255 255 255 255 0.457791 0.258041
-9.9e-05 0.007265 4e-05 -0.09031557 -0.6021198 0.7932811 255 255 255 255 0.457791 0.258041
-0.000121 0.01046 -0.001755 -0.3111995 -0.7180186 -0.6225787 255 255 255 255 0.457791 0.258040
0.000944 0.01046 -0.00151 0.7495913 -0.6414909 -0.1631021 255 255 255 255 0.457791 0.258040
0.000305 0.010187 -0.001172 0.1228832 -0.6686554 -0.7333483 255 255 255 255 0.457791 0.258040
5e-05 0.008539 -6.1e-05 0.003341768 -0.6020173 -0.7984761 255 255 255 255 0.457791 0.258041
4.8e-05 0.010816 -0.001445 -0.3994243 0.8230383 0.4038169 255 255 255 255 0.457791 0.258040
-0.002948 0.005606 -0.000692 0.2406886 0.6628931 -0.7089723 255 255 255 255 0.457791 0.258041
-0.001724 0.004087 -0.000721 -0.6257367 -0.6264484 -0.4647753 255 255 255 255 0.457791 0.258041
-0.002948 0.005606 0.000664 0.1067557 0.7862008 0.6086802 255 255 255 255 0.457791 0.258041
-0.003225 0.005269 0.000664 -0.5463352 -0.8213357 0.1640899 255 255 255 255 0.457791 0.258041
-0.003225 0.005269 -0.000692 -0.5424647 -0.798894 -0.2598084 255 255 255 255 0.457791 0.258041
-0.000726 0.003283 0.000505 0.1450666 -0.3066758 0.9406943 255 255 255 255 0.457791 0.258041
-0.000134 0.002055 -0.000282 -0.631736 -0.6172143 -0.4689949 255 255 255 255 0.457791 0.258041
-0.002311 0.004884 0.000865 0.4545372 0.3916295 0.800014 255 255 255 255 0.457791 0.258041
0.000583 0.004473 -0.002814 0.02772567 -0.7773029 -0.6285154 255 255 255 255 0.457791 0.258041
-1.8e-05 0.00361 -0.001349 -0.7614117 0.4756653 0.4404485 255 255 255 255 0.457791 0.258041
8.4e-05 0.005988 0.002434 -0.5252793 0.840236 -0.1344811 255 255 255 255 0.457791 0.258041
0.000609 0.004044 0.000388 0.3965313 0.4020854 -0.825282 255 255 255 255 0.457791 0.258041
-4.5e-05 0.003031 8.6e-05 -0.3600937 -0.5149815 0.7778988 255 255 255 255 0.457791 0.258041
0.001523 0.006443 -0.002594 0.008747451 -0.6432709 -0.7655886 255 255 255 255 0.457791 0.258041
0.000397 0.00558 -0.001482 -0.8832551 0.4588556 0.09649905 255 255 255 255 0.457791 0.258041
-0.001986 0.007216 -0.00175 -0.001160066 -0.4052663 -0.914198 255 255 255 255 0.457791 0.258041
0.002399 0.008223 0.000525 0.6119346 -0.7841117 0.1034646 255 255 255 255 0.457791 0.258041
3.5e-05 0.005745 -7.7e-05 0.7212201 -0.4892541 0.4903795 255 255 255 255 0.457791 0.258041
-0.001172 0.009715 0.001688 -0.4304989 0.8791673 -0.2042929 255 255 255 255 0.457791 0.258040
0.000125 0.008094 0.000497 0.7664372 0.459772 -0.4485353 255 255 255 255 0.457791 0.258041
-0.000607 0.00799 0.000399 -0.7812719 0.09346142 -0.6171541 255 255 255 255 0.457791 0.258041
0.000954 0.011033 -0.001847 0.3721671 0.8864581 0.2751068 255 255 255 255 0.457791 0.258040
-0.000227 0.009383 -0.000499 -0.6822199 0.4291231 0.5919708 255 255 255 255 0.457791 0.258041
0.000524 0.009276 -0.00048 0.8376008 -0.5140099 -0.184983 255 255 255 255 0.457791 0.258041
-9.2e-05 0.009873 -0.000106 -0.3278055 0.001931838 -0.9447433 255 255 255 255 0.437785 0.231888
9.2e-05 0.009873 -0.000106 0.9373387 0.001453051 -0.3484165 255 255 255 255 0.437785 0.231888
0.00028 -0.000825 -1.4e-05 0.985083 0.008696148 -0.17186 255 255 255 255 0.437785 0.231888
0.000294 0.01234 5.2e-05 0.9281644 0.1831277 0.3239988 255 255 255 255 0.459496 0.054037
0.000408 0.011852 -0.000462 0.894931 0.1365742 -0.4247893 255 255 255 255 0.459496 0.054037
0.000436 0.011125 0.000405 0.8212901 0.1426321 0.5523937 255 255 255 255 0.459496 0.054037
-0.000277 0.011467 0.000312 -0.578747 -1.224342e-08 0.8155071 255 255 255 255 0.459496 0.054037
0.000196 0.012051 -0.000334 0.4984976 0.5405421 -0.6777273 255 255 255 255 0.459496 0.054037
7.9e-05 0.012051 0.000337 0.29039 0.4189484 0.8603231 255 255 255 255 0.459496 0.054037
-0.000365 0.012051 -0.000256 -0.7741901 0.6072025 -0.1787035 255 255 255 255 0.459496 0.054037
0 -0.000825 0.000266 0.3768916 -0.05080231 0.9248632 255 255 255 255 0.437785 0.231888
-9.2e-05 0.009873 7.8e-05 -0.9649832 0.007018449 0.2622178 255 255 255 255 0.459496 0.054037
9.2e-05 0.009873 7.8e-05 0.29829 0.004567144 0.9544644 255 255 255 255 0.459496 0.054037
0 0.009873 0.000109 -0.3857459 0.004971365 0.9225917 255 255 255 255 0.459496 0.054037
0 0.009873 -0.000136 0.3613493 0.003350293 -0.9324245 255 255 255 255 0.437785 0.231888
0 -0.000825 -0.000294 -0.3316501 -0.01444913 -0.9432918 255 255 255 255 0.437785 0.231888
-0.00028 -0.000825 -1.4e-05 -0.9986899 0.007020059 -0.05068783 255 255 255 255 0.437785 0.231888
0.000122 0.009873 -1.4e-05 0.9316925 0.003223767 0.3632337 255 255 255 255 0.459496 0.054037
-0.000122 0.009873 -1.4e-05 -0.8961172 0.006297042 -0.4437729 255 255 255 255 0.459496 0.054037
-0.000287 0.010787 0.000306 -0.6398115 -0.166384 0.7503051 255 255 255 255 0.459496 0.054037
6e-06 0.010221 0.000395 0.1021733 -0.1928955 0.9758853 255 255 255 255 0.459496 0.054037
0.000312 0.010221 -0.00032 0.5294989 -0.207857 -0.8224514 255 255 255 255 0.459496 0.054037
0.000414 0.010221 -1.4e-05 0.9253317 -0.2706496 0.2655372 255 255 255 255 0.459496 0.054037
-0.000365 0.010787 -0.000256 -0.8629037 -0.2344756 -0.4476813 255 255 255 255 0.459496 0.054037
6e-06 0.010221 -0.000422 -0.2523005 -0.2689837 -0.9295119 255 255 255 255 0.459496 0.054037
-0.000403 0.010221 -1.4e-05 -0.9646519 -0.243462 0.1008617 255 255 255 255 0.459496 0.054037
-0.000459 0.011852 -0.000433 -0.5762414 0.003795295 -0.8172708 255 255 255 255 0.459496 0.054037
-0.00043 0.011852 0.000434 -0.7122953 0.1566713 0.6841707 255 255 255 255 0.459496 0.054037
-0.00043 0.011125 0.000434 -0.6481938 0.002134133 0.7614725 255 255 255 255 0.459496 0.054037
0.00028 0.011467 0.000217 0.6629262 0.1191787 0.7391382 255 255 255 255 0.459496 0.054037
0.000186 0.011467 -0.000339 0.4788518 0.1018232 -0.8719708 255 255 255 255 0.459496 0.054037
-0.000371 0.011467 -0.000245 -0.9614761 -6.190457e-09 -0.2748884 255 255 255 255 0.459496 0.054037
0.000274 0.010787 0.000228 0.7652895 -0.202902 0.6108705 255 255 255 255 0.459496 0.054037
0.000408 0.011125 -0.000462 0.7451332 -0.004565756 -0.6669 255 255 255 255 0.459496 0.054037
-0.000459 0.011125 -0.000433 -0.4794134 -0.02367686 -0.8772698 255 255 255 255 0.459496 0.054037
0.000249 0.01235 -0.000319 0.506362 0.1973317 -0.839439 255 255 255 255 0.459496 0.054037
6e-06 0.013042 -1.4e-05 -0.4858515 0.8359779 0.2551261 255 255 255 255 0.459496 0.054037
-0.000203 0.00222 0.000156 -0.8607724 0.01956797 0.5086138 255 255 255 255 0.437785 0.231888
0.000178 0.002108 0.000318 0.4747978 0.03227329 0.879503 255 255 255 255 0.437785 0.231888
0.00021 0.002025 -0.000124 0.9184673 0.01684201 -0.3951383 255 255 255 255 0.437785 0.231888
-2.6e-05 0.002133 0.000275 -0.6346245 0.01280868 0.7727145 255 255 255 255 0.437785 0.231888
7.5e-05 0.00212 0.000307 -0.3579867 0.03675318 0.9330031 255 255 255 255 0.437785 0.231888
0 0.002129 -0.00026 0.07572744 0.03614101 -0.9964734 255 255 255 255 0.437785 0.231888
-0.00013 0.002143 -0.000219 -0.3252774 0.01717908 -0.9454626 255 255 255 255 0.437785 0.231888
6.4e-05 0.002082 -0.000263 0.6515156 0.01431477 -0.7585002 255 255 255 255 0.437785 0.231888
0.000266 0.00197 0.000168 0.8587266 0.001103293 0.5124329 255 255 255 255 0.437785 0.231888
-0.000182 0.002159 -0.000155 -0.671752 0.005431205 -0.7407562 255 255 255 255 0.437785 0.231888
0.000124 0.005723 6.2e-05 0.9972886 0.01787041 -0.07138741 255 255 255 255 0.437785 0.231888
-0.000116 0.005709 8.9e-05 -0.3277698 0.0195666 0.944555 255 255 255 255 0.437785 0.231888
0.000115 0.00563 -0.000116 0.2077414 0.01797656 -0.9780186 255 255 255 255 0.437785 0.231888
0.000132 0.005653 -7.5e-05 0.6896206 0.0190709 -0.7239197 255 255 255 255 0.437785 0.231888
0.000101 0.005741 0.000101 0.9980135 0.01331313 0.0615777 255 255 255 255 0.437785 0.231888
-0.000105 0.005598 -0.00013 -0.9633226 0.01275772 -0.2680424 255 255 255 255 0.437785 0.231888
-0.000146 0.005618 -6.9e-05 -0.9957308 0.02145397 0.08977672 255 255 255 255 0.437785 0.231888
-5.9e-05 0.005719 0.000123 0.01584815 0.03908617 0.9991102 255 255 255 255 0.437785 0.231888
-0.000134 0.005686 4.8e-05 -0.6438495 0.02265167 0.7648168 255 255 255 255 0.437785 0.231888
7.6e-05 0.005614 -0.000139 -0.1200277 0.02350395 -0.9924923 255 255 255 255 0.437785 0.231888
5.9e-05 0.005745 0.000119 0.9135417 0.03984952 0.4047884 255 255 255 255 0.437785 0.231888
-3.7e-05 0.005596 -0.000167 -0.6847637 0.01781352 -0.7285474 255 255 255 255 0.437785 0.231888
9.2e-05 0.009873 -0.000106 0.9373387 0.001453051 -0.3484165 255 255 255 255 0.459496 0.054037
0 0.009873 -0.000136 0.3613493 0.003350293 -0.9324245 255 255 255 255 0.459496 0.054037
-9.2e-05 0.009873 -0.000106 -0.3278055 0.001931838 -0.9447433 255 255 255 255 0.459496 0.054037
0.000122 0.009873 -1.4e-05 0.9316925 0.003223767 0.3632337 255 255 255 255 0.437785 0.231888
9.2e-05 0.009873 7.8e-05 0.29829 0.004567144 0.9544644 255 255 255 255 0.437785 0.231888
-9.2e-05 0.009873 7.8e-05 -0.9649832 0.007018449 0.2622178 255 255 255 255 0.437785 0.231888
-0.000122 0.009873 -1.4e-05 -0.8961172 0.006297042 -0.4437729 255 255 255 255 0.437785 0.231888
0 0.009873 0.000109 -0.3857459 0.004971365 0.9225917 255 255 255 255 0.437785 0.231888
3 87 89 85 
3 89 84 85 
3 37 0 86 
3 86 0 82 
3 82 41 83 
3 86 82 83 
3 42 0 84 
3 82 0 42 
3 83 39 86 
3 86 39 85 
3 86 85 37 
3 85 39 87 
3 84 37 85 
3 0 37 84 
3 88 38 39 
3 88 39 83 
3 87 39 40 
3 39 38 40 
3 40 2 87 
3 2 3 87 
3 87 3 1 
3 1 3 41 
3 83 41 88 
3 41 3 88 
3 87 1 89 
3 89 1 42 
3 84 89 42 
3 42 1 41 
3 42 41 82 
3 47 43 90 
3 47 91 43 
3 4 48 46 
3 46 48 44 
3 44 50 45 
3 46 44 45 
3 44 48 6 
3 45 5 46 
3 4 46 90 
3 46 5 90 
3 90 5 47 
3 43 48 90 
3 90 48 4 
3 6 48 43 
3 45 49 5 
3 5 49 47 
3 49 7 47 
3 7 8 47 
3 47 8 91 
3 91 8 6 
3 6 8 50 
3 45 50 49 
3 50 8 49 
3 43 91 6 
3 6 50 44 
3 10 51 9 
3 9 53 52 
3 52 53 92 
3 52 92 55 
3 53 51 92 
3 11 92 51 
3 55 10 52 
3 52 10 9 
3 51 53 9 
3 94 12 54 
3 94 54 55 
3 55 54 10 
3 10 54 12 
3 12 13 93 
3 12 93 10 
3 93 13 11 
3 11 13 55 
3 55 13 94 
3 10 93 11 
3 10 11 51 
3 11 55 92 
3 15 56 95 
3 15 96 56 
3 14 60 59 
3 59 60 57 
3 57 62 58 
3 59 57 58 
3 57 60 16 
3 58 15 59 
3 14 59 95 
3 59 15 95 
3 56 60 95 
3 95 60 14 
3 16 60 56 
3 58 63 61 
3 58 61 15 
3 61 17 96 
3 61 96 15 
3 96 17 16 
3 16 17 62 
3 62 17 58 
3 58 17 63 
3 56 96 16 
3 16 62 57 
3 66 64 65 
3 19 22 65 
3 97 22 19 
3 68 18 97 
3 97 18 65 
3 97 65 22 
3 65 18 66 
3 68 67 18 
3 18 67 66 
3 66 67 20 
3 20 21 66 
3 66 21 19 
3 19 21 68 
3 68 21 67 
3 66 19 64 
3 64 19 65 
3 19 68 97 
3 70 25 98 
3 26 23 25 
3 69 23 26 
3 71 24 69 
3 23 69 98 
3 69 24 98 
3 98 24 70 
3 25 23 98 
3 99 27 70 
3 99 70 71 
3 71 70 24 
3 27 28 70 
3 70 28 26 
3 25 70 26 
3 26 28 71 
3 71 28 99 
3 26 71 69 
3 32 74 100 
3 29 100 74 
3 102 75 73 
3 73 75 72 
3 73 72 32 
3 100 73 32 
3 32 72 74 
3 72 75 30 
3 102 76 75 
3 75 76 30 
3 30 101 72 
3 30 31 101 
3 101 31 29 
3 72 101 29 
3 29 102 73 
3 29 31 102 
3 102 31 76 
3 72 29 74 
3 100 29 73 
3 33 81 103 
3 105 79 78 
3 103 78 33 
3 33 77 81 
3 33 78 77 
3 78 79 77 
3 77 79 35 
3 105 80 79 
3 79 80 35 
3 35 104 77 
3 35 36 104 
3 104 36 34 
3 104 34 81 
3 77 104 81 
3 34 105 78 
3 34 36 105 
3 105 36 80 
3 103 81 78 
3 81 34 78 
3 122 116 146 
3 122 146 143 
3 116 144 147 
3 116 147 146 
3 106 120 155 
3 106 155 162 
3 120 107 156 
3 120 156 155 
3 107 153 156 
3 116 108 151 
3 116 151 144 
3 108 145 153 
3 108 153 157 
3 108 157 163 
3 108 163 151 
3 121 122 152 
3 121 152 149 
3 122 143 159 
3 122 159 158 
3 122 158 164 
3 122 164 152 
3 119 126 117 
3 117 126 125 
3 119 118 126 
3 126 118 138 
3 123 128 118 
3 118 128 138 
3 123 165 128 
3 128 165 127 
3 166 130 165 
3 165 130 127 
3 166 167 130 
3 130 167 129 
3 124 131 167 
3 167 131 129 
3 124 117 131 
3 131 117 125 
3 133 135 114 
3 135 110 114 
3 114 110 113 
3 110 132 113 
3 113 132 115 
3 132 133 115 
3 115 133 114 
3 114 109 142 
3 141 115 142 
3 115 114 142 
3 134 111 135 
3 134 135 112 
3 135 111 136 
3 111 139 136 
3 139 140 136 
3 136 140 137 
3 140 134 137 
3 137 134 112 
3 125 138 134 
3 134 138 111 
3 127 139 138 
3 138 139 111 
3 129 140 127 
3 127 140 139 
3 125 134 129 
3 129 134 140 
3 126 138 125 
3 128 127 138 
3 127 130 129 
3 129 131 125 
3 136 110 135 
3 135 133 112 
3 112 133 137 
3 137 133 132 
3 137 132 136 
3 136 132 110 
3 113 141 114 
3 114 141 109 
3 113 115 141 
3 109 141 142 
3 143 146 161 
3 143 161 159 
3 147 144 160 
3 147 160 154 
3 146 147 154 
3 146 154 161 
3 149 148 121 
3 148 150 121 
3 150 145 108 
3 150 108 121 
3 144 151 163 
3 144 163 160 
3 149 152 164 
3 149 164 162 
3 162 155 148 
3 162 148 149 
3 155 156 150 
3 155 150 148 
3 156 153 145 
3 156 145 150 
3 157 153 107 
3 157 107 168 
3 163 157 168 
3 163 168 169 
3 158 159 170 
3 158 170 171 
3 164 158 171 
3 164 171 106 
3 159 161 170 
3 154 160 169 
3 154 169 172 
3 161 154 172 
3 161 172 170 
3 160 163 169 
3 162 164 106 
