ply
format ascii 1.0
comment VCGLIB generated
comment TextureFile Textures//Combined_Texture//Texture_01_A.png
element vertex 328
property float x
property float y
property float z
property float nx
property float ny
property float nz
property uchar red
property uchar green
property uchar blue
property uchar alpha
property float texture_u
property float texture_v
element face 652
property list uchar int vertex_indices
end_header
0.021433 0.00271 0.031447 0.07513274 -0.03741571 0.9964714 255 255 255 255 0.351676 0.190036
-0.017717 0.007116 0.034768 0.01197075 0.1819686 0.9832315 255 255 255 255 0.351676 0.190036
0.00369 0.0069 0.028061 0.5247849 0.1225328 0.8423696 255 255 255 255 0.351676 0.190036
0.002707 0.010881 0.027116 0.4621572 0.393827 0.7945507 255 255 255 255 0.351676 0.190036
0.023326 0.011063 0.028668 0.06754191 0.0362239 0.9970586 255 255 255 255 0.351676 0.190036
0.002724 0.015246 0.029792 0.5219304 -0.3031512 0.7973005 255 255 255 255 0.351676 0.190036
0.030494 0.015096 0.027853 0.4586644 -0.3079391 0.8335469 255 255 255 255 0.351676 0.190036
-0.009619 0.019075 0.031054 -0.5008031 -0.5044448 0.7033717 255 255 255 255 0.351676 0.190036
0.004788 0.023757 0.028202 0.5684513 0.03584007 0.8219359 255 255 255 255 0.351676 0.190036
0.010999 0.023655 0.023464 -0.3091021 0.083697 0.9473388 255 255 255 255 0.351676 0.190036
-0.021358 0.036026 0.033763 -0.2306742 0.3983635 0.8877476 255 255 255 255 0.351676 0.190036
0.026561 0.027901 0.028189 0.1814635 -0.06825387 0.9810262 255 255 255 255 0.351676 0.190036
0.025684 0.031718 0.028922 0.157692 0.02878057 0.9870689 255 255 255 255 0.351676 0.190036
-0.002438 0.03905 0.026081 0.05244304 0.9177952 0.3935757 255 255 255 255 0.351676 0.190036
-0.023622 0.039229 0.025902 -0.2182156 0.9724177 0.08237562 255 255 255 255 0.351676 0.190036
-0.005075 0.039809 0.021604 0.004825865 0.9958405 0.0909863 255 255 255 255 0.351676 0.190036
0.01591 0.03984 0.018234 0.03113219 0.9987808 0.03831033 255 255 255 255 0.351676 0.190036
-0.023281 0.039517 0.010982 -0.1317267 0.9699475 0.2045727 255 255 255 255 0.351676 0.190036
-0.031837 0.039377 -0.013184 -0.2336939 0.9717948 -0.03165385 255 255 255 255 0.351676 0.190036
-0.018077 0.03984 -0.010701 -0.02067779 0.9996961 -0.0134241 255 255 255 255 0.351676 0.190036
0.016776 0.039798 -0.016766 0.03760046 0.9992638 0.007628145 255 255 255 255 0.351676 0.190036
0.0107 0.040058 -0.016258 0.01592202 0.9994525 0.02900219 255 255 255 255 0.351676 0.190036
0.009812 0.03998 -0.018031 -0.03603048 0.9915411 -0.1246921 255 255 255 255 0.351676 0.190036
0.024972 0.038632 -0.029832 -0.01942674 0.9113442 -0.4111865 255 255 255 255 0.351676 0.190036
-0.007532 0.036929 -0.019465 -0.1274047 0.7580423 -0.6396405 255 255 255 255 0.351676 0.190036
0.028467 0.033562 -0.035035 0.4006993 0.0993683 -0.9108052 255 255 255 255 0.351676 0.190036
0.004914 0.034987 -0.02894 -0.5174875 0.109709 -0.8486287 255 255 255 255 0.351676 0.190036
-0.005565 0.035274 -0.018855 -0.4375841 -0.3568837 -0.8253207 255 255 255 255 0.351676 0.190036
-0.005662 0.026835 -0.022906 -0.4201745 -0.3150757 -0.8509881 255 255 255 255 0.351676 0.190036
-0.022266 0.027125 -0.028693 0.09544711 -0.09216482 -0.9911587 255 255 255 255 0.351676 0.190036
0.029465 0.023287 -0.033893 0.4908648 0.1680699 -0.854871 255 255 255 255 0.351676 0.190036
0.012313 0.021849 -0.031295 -0.1768148 0.2452108 -0.9532095 255 255 255 255 0.351676 0.190036
-0.002178 0.022212 -0.022319 -0.7176347 -0.1946387 -0.6686676 255 255 255 255 0.351676 0.190036
0.013031 0.010076 -0.031333 -0.2235366 -0.3023052 -0.9266299 255 255 255 255 0.351676 0.190036
-0.026644 0.019747 -0.021536 -0.3282894 0.2741136 -0.9039292 255 255 255 255 0.351676 0.190036
-0.022651 0.014815 -0.02723 0.1217918 0.4355693 -0.8918779 255 255 255 255 0.351676 0.190036
-0.031037 0.014265 -0.025908 -0.4567339 0.4786206 -0.7498777 255 255 255 255 0.351676 0.190036
-0.004859 0.017442 -0.0212 -0.3144355 0.6830712 -0.6591995 255 255 255 255 0.351676 0.190036
-0.02484 0.011106 -0.028071 -0.008159695 -0.1145931 -0.9933791 255 255 255 255 0.351676 0.190036
0.007568 0.003142 -0.030345 -0.2418814 0.4472583 -0.8610769 255 255 255 255 0.351676 0.190036
-0.023208 0.000841 -0.02853 0.05725528 -0.6663804 -0.7434103 255 255 255 255 0.351676 0.190036
-0.034611 3.9e-05 0.001183 -0.09477448 -0.9953907 0.01467548 255 255 255 255 0.351676 0.190036
0.020451 5.3e-05 0.005511 0.005940407 -0.9999778 -0.003026942 255 255 255 255 0.351676 0.190036
0.038256 0.000975 0.01223 0.8487762 -0.5199023 0.096336 255 255 255 255 0.351676 0.190036
-0.013366 0.000378 0.008195 -0.02629805 -0.9926685 0.1179729 255 255 255 255 0.351676 0.190036
-0.030475 0.001184 0.022063 -0.6391007 -0.6931354 -0.3333373 255 255 255 255 0.351676 0.190036
0.015065 0.000111 0.023734 -0.05537029 -0.9941969 0.09223201 255 255 255 255 0.351676 0.190036
0.002148 -0 0.019183 0.01753038 -0.9983725 0.05426869 255 255 255 255 0.351676 0.190036
0.036687 0.002112 -0.020176 0.9044929 -0.09012605 -0.4168572 255 255 255 255 0.351676 0.190036
0.033959 0.010625 -0.027785 0.8660387 -0.4943567 -0.07475556 255 255 255 255 0.351676 0.190036
0.03354 0.010083 -0.020627 0.7306281 -0.5071096 -0.4571897 255 255 255 255 0.351676 0.190036
0.031142 0.009317 -0.002552 0.9810345 -0.1198251 -0.1523591 255 255 255 255 0.351676 0.190036
0.032499 0.011063 0.020051 0.8995833 0.170379 0.4021452 255 255 255 255 0.351676 0.190036
0.032129 0.014696 -0.003647 0.9955509 0.04504538 -0.08276162 255 255 255 255 0.351676 0.190036
0.034874 0.023843 -0.027518 0.95013 0.1597095 -0.2678543 255 255 255 255 0.351676 0.190036
0.038238 0.033393 0.013343 0.99927 0.03414019 0.0171422 255 255 255 255 0.351676 0.190036
-0.029809 0.003859 -0.003605 -0.5545243 0.8141058 -0.1724371 255 255 255 255 0.351676 0.190036
-0.028179 0.007658 0.01829 -0.8291318 0.5304455 -0.1765447 255 255 255 255 0.351676 0.190036
-0.029816 0.009258 -0.005158 -0.6891288 -0.6927743 0.2125214 255 255 255 255 0.351676 0.190036
-0.024905 0.011457 0.017789 -0.996636 0.002836926 -0.08190675 255 255 255 255 0.351676 0.190036
-0.037531 0.014584 -0.012228 -0.9666347 0.2544781 -0.02929832 255 255 255 255 0.351676 0.190036
-0.033385 0.014584 -0.023162 -0.7084386 0.5140394 -0.4836096 255 255 255 255 0.351676 0.190036
-0.02912 0.01483 0.028654 -0.8795644 -0.06826268 0.4708575 255 255 255 255 0.351676 0.190036
-0.029343 0.021081 0.020713 -0.9944234 -0.1051161 -0.008525163 255 255 255 255 0.351676 0.190036
-0.037462 0.029473 -0.011761 -0.9655879 0.2596711 -0.01452427 255 255 255 255 0.351676 0.190036
-0.029199 0.032029 -0.022669 -0.7325619 0.1431407 -0.6654801 255 255 255 255 0.351676 0.190036
-0.02832 0.03737 0.028364 -0.7418706 0.5966102 0.3060789 255 255 255 255 0.351676 0.190036
-0.035757 0.031916 -0.008572 -0.9881144 0.1385435 0.06660175 255 255 255 255 0.351676 0.190036
-0.03077 0.034372 0.004947 -0.8677245 0.330007 0.3716846 255 255 255 255 0.351676 0.190036
-0.026933 0.035193 0.011705 -0.9613571 -0.1669085 0.2189387 255 255 255 255 0.351676 0.190036
-0.035675 0.036476 -0.00689 -0.8616521 0.4936852 0.1176041 255 255 255 255 0.351676 0.190036
-0.028982 0.036878 0.012439 -0.9144141 -0.1911741 0.3567904 255 255 255 255 0.351676 0.190036
-0.031015 0.035466 -0.02482 -0.6639119 -0.4429842 -0.6024833 255 255 255 255 0.351676 0.190036
0.024449 0.000249 0.029431 0.1930187 -0.7990931 0.5693804 255 255 255 255 0.351676 0.190036
0.034146 0.003543 -0.027563 0.9389519 0.2889963 -0.1866828 255 255 255 255 0.351676 0.190036
0.034979 0.001415 -0.009347 0.9613513 0.2716484 -0.04484239 255 255 255 255 0.351676 0.190036
0.033068 0.002176 -0.02211 0.8638228 -0.4475318 -0.2313556 255 255 255 255 0.351676 0.190036
0.028976 0.005629 -0.016398 0.890458 0.4206738 -0.1735453 255 255 255 255 0.351676 0.190036
0.038516 0.003463 0.012143 0.9999063 0.0136746 0.0006580791 255 255 255 255 0.351676 0.190036
0.02627 0.007627 -0.021908 0.9909298 -0.0318365 -0.1305548 255 255 255 255 0.351676 0.190036
0.028348 0.005004 -0.002722 0.9786602 -0.04173004 -0.2012037 255 255 255 255 0.351676 0.190036
0.037274 0.006807 0.017364 0.9054695 0.3431226 0.2497837 255 255 255 255 0.351676 0.190036
0.031177 0.009146 -0.024951 0.5914919 -0.7417068 0.3162411 255 255 255 255 0.351676 0.190036
0.031849 0.013806 -0.023172 0.9687079 -0.2335486 0.08402374 255 255 255 255 0.351676 0.190036
0.029386 0.007241 -0.016888 0.7078597 -0.6168724 -0.3440974 255 255 255 255 0.351676 0.190036
0.038079 0.007446 0.008744 0.9268657 0.2643951 -0.2664871 255 255 255 255 0.351676 0.190036
0.034145 0.009926 -0.010721 0.940311 -0.3402963 -0.003698964 255 255 255 255 0.351676 0.190036
0.02919 0.012293 0.025984 0.5848562 -0.2543242 0.7702354 255 255 255 255 0.351676 0.190036
0.035583 0.02414 -0.010163 0.9957363 0.04716963 -0.07927348 255 255 255 255 0.351676 0.190036
0.0364 0.013524 0.015358 0.8092788 -0.5781175 0.1041532 255 255 255 255 0.351676 0.190036
0.03835 0.017216 0.015111 0.9756826 -0.2067315 0.07283919 255 255 255 255 0.351676 0.190036
0.028127 0.012293 -0.035511 0.235197 -0.1848416 -0.9542096 255 255 255 255 0.351676 0.190036
0.035127 0.018187 -0.026806 0.989549 -0.1357221 -0.04870577 255 255 255 255 0.351676 0.190036
0.033713 0.027487 -0.019388 0.9768852 0.1938961 -0.08999841 255 255 255 255 0.351676 0.190036
0.033206 0.031574 -0.003051 0.9879424 -0.0192914 -0.1536155 255 255 255 255 0.351676 0.190036
0.03836 0.02339 0.013227 0.9959818 0.06115275 0.06542644 255 255 255 255 0.351676 0.190036
0.037598 0.032299 0.009119 0.9883702 -0.038715 -0.1470566 255 255 255 255 0.351676 0.190036
0.032367 0.025125 0.025011 0.7327464 0.1452153 0.6648273 255 255 255 255 0.351676 0.190036
0.03614 0.027042 0.016673 0.9400983 0.1133027 0.3215241 255 255 255 255 0.351676 0.190036
0.032339 0.029237 -0.029576 0.8735754 -0.01587887 -0.4864297 255 255 255 255 0.351676 0.190036
0.031859 0.036703 -0.022308 0.8788909 0.4225436 0.2213767 255 255 255 255 0.351676 0.190036
0.035169 0.030099 0.020951 0.9266708 -0.1202055 0.3561346 255 255 255 255 0.351676 0.190036
0.032931 0.037297 0.005549 0.7894484 0.6137581 0.008502278 255 255 255 255 0.351676 0.190036
-0.038516 0.000851 -0.006632 -0.9922523 -0.1071417 0.06289677 255 255 255 255 0.351676 0.190036
-0.031295 0.002914 -0.025515 -0.5466168 0.5563087 -0.6258839 255 255 255 255 0.351676 0.190036
-0.036387 0.002584 -0.015924 -0.8746401 0.4311205 -0.2216751 255 255 255 255 0.351676 0.190036
-0.031628 0.002899 0.010459 -0.8437244 -0.2768989 0.4598437 255 255 255 255 0.351676 0.190036
-0.028798 0.006226 0.015113 -0.889581 0.3610479 0.2798035 255 255 255 255 0.351676 0.190036
-0.029006 0.003647 0.016498 -0.8268298 -0.5580666 -0.07010134 255 255 255 255 0.351676 0.190036
-0.023939 0.00565 -0.022982 -0.6796659 0.02812262 -0.7329826 255 255 255 255 0.351676 0.190036
-0.025638 0.005525 -0.004355 -0.9521021 0.1746643 -0.2509862 255 255 255 255 0.351676 0.190036
-0.02996 0.008294 -0.001626 -0.9885327 -0.01545639 -0.1502138 255 255 255 255 0.351676 0.190036
-0.031727 0.005288 0.024403 -0.9726572 0.2252433 0.05659891 255 255 255 255 0.351676 0.190036
-0.034153 0.011063 -0.02212 -0.8314591 -0.3361388 -0.4423646 255 255 255 255 0.351676 0.190036
-0.035886 0.008508 -0.014437 -0.6489614 -0.7604192 -0.02473588 255 255 255 255 0.351676 0.190036
-0.027135 0.009296 0.008502 -0.6298571 0.7765035 0.0179576 255 255 255 255 0.351676 0.190036
-0.037913 0.011063 -0.012733 -0.9455884 -0.3090844 0.1016343 255 255 255 255 0.351676 0.190036
-0.025742 0.011444 0.013393 -0.9808259 0.1781647 0.07898057 255 255 255 255 0.351676 0.190036
-0.026919 0.011108 0.026361 -0.9586464 0.01261567 0.2843202 255 255 255 255 0.351676 0.190036
-0.025473 0.010832 0.005806 -0.9298508 0.1862585 0.3173095 255 255 255 255 0.351676 0.190036
-0.028869 0.014675 0.012235 -0.8312218 -0.3753132 0.4101345 255 255 255 255 0.351676 0.190036
-0.029761 0.014318 0.002483 -0.7024329 -0.6621795 0.260972 255 255 255 255 0.351676 0.190036
-0.03684 0.01958 -0.003493 -0.9663042 -0.04280696 0.2538185 255 255 255 255 0.351676 0.190036
-0.026386 0.019212 0.011999 -0.9316271 0.2655159 0.2481377 255 255 255 255 0.351676 0.190036
-0.027984 0.014923 0.017835 -0.8927294 -0.3651043 -0.2640704 255 255 255 255 0.351676 0.190036
-0.025411 0.021675 0.013022 -0.9966652 -0.0248609 0.07772031 255 255 255 255 0.351676 0.190036
-0.028111 0.02011 0.024136 -0.8514379 0.3438242 0.3960285 255 255 255 255 0.351676 0.190036
-0.03168 0.021201 -0.01782 -0.7600257 -0.3412779 -0.5530735 255 255 255 255 0.351676 0.190036
-0.029353 0.024809 0.010721 -0.8395675 -0.2960119 0.4555254 255 255 255 255 0.351676 0.190036
-0.035893 0.027873 -0.017282 -0.8929479 0.1681922 -0.417559 255 255 255 255 0.351676 0.190036
-0.029528 0.030339 0.012126 -0.9332311 0.180891 0.3104165 255 255 255 255 0.351676 0.190036
-0.032297 0.032991 -0.018268 -0.8461333 -0.03708622 -0.5316796 255 255 255 255 0.351676 0.190036
-0.034249 0.035077 -0.017231 -0.7589325 -0.6023153 -0.2474626 255 255 255 255 0.351676 0.190036
-0.036246 0.034105 -0.00574 -0.9589813 -0.1081056 0.2620461 255 255 255 255 0.351676 0.190036
-0.027864 0.037356 0.015231 -0.7895322 0.6131437 0.02634028 255 255 255 255 0.351676 0.190036
-0.035447 0.036456 -0.018266 -0.9464728 0.02945446 -0.3214369 255 255 255 255 0.351676 0.190036
0.030586 0.007064 0.027791 0.5302025 0.3439303 0.7749822 255 255 255 255 0.351676 0.190036
-0.020573 0.002697 0.034021 -0.1794214 -0.2813728 0.9426757 255 255 255 255 0.351676 0.190036
0.017376 0.00109 0.031687 -0.2174731 -0.3785941 0.8996511 255 255 255 255 0.351676 0.190036
-0.026774 0.006682 0.031499 -0.5861679 0.3618442 0.7248973 255 255 255 255 0.351676 0.190036
0.00687 0.002564 0.026234 -0.06347075 -0.3716612 0.9261962 255 255 255 255 0.351676 0.190036
0.006666 0.005979 0.025204 0.2226031 0.3481608 0.9106218 255 255 255 255 0.351676 0.190036
-0.01858 0.01075 0.032277 -0.2142319 0.1091282 0.9706677 255 255 255 255 0.351676 0.190036
0.005962 0.011977 0.022362 0.316934 -0.1371709 0.9384759 255 255 255 255 0.351676 0.190036
0.009995 0.011103 0.023395 -0.2920646 0.008195422 0.9563635 255 255 255 255 0.351676 0.190036
0.022873 0.007066 0.030944 0.0277179 0.2812932 0.9592215 255 255 255 255 0.351676 0.190036
0.009606 0.01492 0.02509 -0.2646832 -0.1419615 0.953829 255 255 255 255 0.351676 0.190036
0.023187 0.014755 0.030671 0.002954689 -0.1280634 0.9917616 255 255 255 255 0.351676 0.190036
-0.021045 0.014089 0.033568 -0.3103552 -0.1711212 0.9350921 255 255 255 255 0.351676 0.190036
0.006143 0.013825 0.023788 0.3158081 -0.4338489 0.8438249 255 255 255 255 0.351676 0.190036
0.004911 0.017397 0.027266 0.7294038 -0.08586854 0.6786728 255 255 255 255 0.351676 0.190036
0.022938 0.022488 0.028664 0.01082904 0.2323339 0.9725758 255 255 255 255 0.351676 0.190036
-0.01587 0.020127 0.031829 -0.0803571 -0.2378013 0.9679841 255 255 255 255 0.351676 0.190036
-0.023825 0.022351 0.028004 -0.3645953 -0.7625495 0.534405 255 255 255 255 0.351676 0.190036
-0.001261 0.026482 0.029838 0.3779525 0.0349382 0.9251655 255 255 255 255 0.351676 0.190036
-0.020984 0.023201 0.033048 -0.3040412 -0.5962021 0.7430357 255 255 255 255 0.351676 0.190036
0.007683 0.020726 0.025069 0.5040983 0.106552 0.8570482 255 255 255 255 0.351676 0.190036
0.007636 0.027808 0.023639 0.6733537 0.1416898 0.7256162 255 255 255 255 0.351676 0.190036
0.01412 0.017217 0.025983 -0.3695661 0.2202747 0.9027181 255 255 255 255 0.351676 0.190036
0.006025 0.032094 0.024219 0.281742 -0.09566288 0.9547095 255 255 255 255 0.351676 0.190036
-0.015075 0.03388 0.035511 0.09189505 0.3842053 0.918663 255 255 255 255 0.351676 0.190036
-0.028682 0.033881 0.029909 -0.8556263 0.1532736 0.4943793 255 255 255 255 0.351676 0.190036
0.002422 0.036339 0.029371 0.4744002 0.370902 0.7983584 255 255 255 255 0.351676 0.190036
0.016252 0.03294 0.029181 -0.2174652 -0.2681505 0.9385117 255 255 255 255 0.351676 0.190036
-0.00701 0.035223 0.031293 0.2726922 0.4510649 0.8498115 255 255 255 255 0.351676 0.190036
0.029903 0.034911 0.026827 0.3209145 0.6025702 0.7307005 255 255 255 255 0.351676 0.190036
-0.019504 0.037856 0.032277 0.02228453 0.8060793 0.591388 255 255 255 255 0.351676 0.190036
0.007569 0.038639 0.022874 -0.03960899 -0.2193835 0.9748344 255 255 255 255 0.351676 0.190036
0.03354 0.034801 0.024135 0.6228651 0.6099065 0.4899522 255 255 255 255 0.351676 0.190036
-0.015732 0.039841 0.024182 0.006096764 0.9906606 0.1362147 255 255 255 255 0.351676 0.190036
0.028195 0.03895 0.019249 0.1729027 0.955377 0.2394984 255 255 255 255 0.351676 0.190036
-0.027816 0.037286 0.018219 -0.7590415 0.6510422 -0.0003824156 255 255 255 255 0.351676 0.190036
0.021313 0.039832 0.0097 0.0328108 0.9990622 0.02825173 255 255 255 255 0.351676 0.190036
0.032229 0.0388 0.016829 0.3418329 0.927945 0.1485547 255 255 255 255 0.351676 0.190036
-0.006457 0.039852 0.013487 -0.01043604 0.9999444 0.001518613 255 255 255 255 0.351676 0.190036
-0.001207 0.039828 0.014908 0.001981965 0.9999977 -0.0007947196 255 255 255 255 0.351676 0.190036
0.001803 0.039841 0.019506 0.005726961 0.9995641 0.02896475 255 255 255 255 0.351676 0.190036
-0.028719 0.037562 0.011763 -0.5788301 0.7924108 0.1924601 255 255 255 255 0.351676 0.190036
0.005132 0.039813 0.007917 1.273123e-05 0.9999995 -0.001033066 255 255 255 255 0.351676 0.190036
0.017357 0.039845 0.011178 0.01729509 0.9997687 0.01278631 255 255 255 255 0.351676 0.190036
-0.012358 0.039829 0.004412 0.00411618 0.9999876 -0.002813882 255 255 255 255 0.351676 0.190036
0.026045 0.039605 0.00763 0.08571565 0.9962711 0.009838307 255 255 255 255 0.351676 0.190036
0.020124 0.039816 -0.001048 0.0109386 0.9999331 0.003781079 255 255 255 255 0.351676 0.190036
-0.035135 0.038159 -0.013383 -0.712989 0.6999656 -0.04116888 255 255 255 255 0.351676 0.190036
-0.027265 0.039318 -0.021683 -0.1490006 0.9581038 -0.2446139 255 255 255 255 0.351676 0.190036
-0.001242 0.039839 -0.008507 -0.0008017514 0.999999 0.001111299 255 255 255 255 0.351676 0.190036
0.022781 0.039853 -0.010287 0.08982273 0.993685 -0.06724592 255 255 255 255 0.351676 0.190036
0.032663 0.038703 -0.007236 0.4782549 0.877217 -0.04198509 255 255 255 255 0.351676 0.190036
-0.0322 0.037014 -0.023357 -0.6827888 0.5066682 -0.5263903 255 255 255 255 0.351676 0.190036
-0.008474 0.039839 -0.014817 -0.004256646 0.9776724 -0.2100919 255 255 255 255 0.351676 0.190036
-0.001787 0.039837 -0.014024 0.003009341 0.9998389 -0.01769473 255 255 255 255 0.351676 0.190036
0.003579 0.039815 -0.015106 -0.02979184 0.999111 -0.02982667 255 255 255 255 0.351676 0.190036
0.015391 0.039821 -0.021266 -0.05437688 0.9779017 -0.2018699 255 255 255 255 0.351676 0.190036
-0.001771 0.039568 -0.019291 -0.1284255 0.9655185 -0.2264527 255 255 255 255 0.351676 0.190036
0.025767 0.034784 -0.035355 -0.004384559 0.2956578 -0.9552839 255 255 255 255 0.351676 0.190036
-0.028672 0.03638 -0.026783 -0.205162 0.2203151 -0.9536089 255 255 255 255 0.351676 0.190036
-0.013329 0.037279 -0.021096 0.2609487 0.6277237 -0.7333954 255 255 255 255 0.351676 0.190036
-0.003385 0.037918 -0.023487 -0.5083085 0.5088024 -0.6947969 255 255 255 255 0.351676 0.190036
0.012297 0.035041 -0.030089 -0.1888216 0.5723339 -0.7979851 255 255 255 255 0.351676 0.190036
0.004036 0.034501 -0.026315 -0.5404847 -0.3670426 -0.7570708 255 255 255 255 0.351676 0.190036
-0.027802 0.03415 -0.025717 -0.1853084 -0.5051345 -0.8429115 255 255 255 255 0.351676 0.190036
-0.026241 0.032726 -0.025313 -0.159891 -0.003785957 -0.9871274 255 255 255 255 0.351676 0.190036
-0.007748 0.03345 -0.017839 -0.07492275 0.03542929 -0.9965597 255 255 255 255 0.351676 0.190036
0.026427 0.028893 -0.033655 0.0980901 -0.06073978 -0.9933223 255 255 255 255 0.351676 0.190036
0.000517 0.033417 -0.025508 -0.3893654 0.4899153 -0.7799857 255 255 255 255 0.351676 0.190036
0.013277 0.027551 -0.029682 -0.3071259 -0.1356919 -0.9419456 255 255 255 255 0.351676 0.190036
-0.03141 0.02677 -0.02643 -0.5711329 0.1050578 -0.8141069 255 255 255 255 0.351676 0.190036
0.017571 0.023412 -0.031324 -0.2926483 0.1164728 -0.9491001 255 255 255 255 0.351676 0.190036
0.002891 0.02376 -0.028482 -0.4504897 0.05591697 -0.8910288 255 255 255 255 0.351676 0.190036
0.02641 0.020907 -0.035 -0.02097628 0.08248673 -0.9963714 255 255 255 255 0.351676 0.190036
-0.031647 0.024013 -0.024831 -0.5301857 -0.603151 -0.5959129 255 255 255 255 0.351676 0.190036
-6.3e-05 0.016826 -0.026136 -0.6862358 0.2263838 -0.6912531 255 255 255 255 0.351676 0.190036
-0.026907 0.021836 -0.022247 -0.1602246 -0.6651339 -0.7293319 255 255 255 255 0.351676 0.190036
-0.02067 0.020443 -0.021434 0.1588485 0.02344643 -0.9870245 255 255 255 255 0.351676 0.190036
0.015695 0.017831 -0.03208 -0.2133709 0.03879012 -0.9762009 255 255 255 255 0.351676 0.190036
-0.008633 0.021565 -0.014895 -0.08580579 -0.03877044 -0.9955572 255 255 255 255 0.351676 0.190036
0.00385 0.019252 -0.029148 -0.4552161 0.06630559 -0.8879088 255 255 255 255 0.351676 0.190036
0.000777 0.012284 -0.028398 -0.3424317 0.09251339 -0.9349769 255 255 255 255 0.351676 0.190036
0.030979 0.01944 -0.033447 0.6620972 0.02523085 -0.7489932 255 255 255 255 0.351676 0.190036
-0.013032 0.016177 -0.023678 0.1116882 0.4902361 -0.864404 255 255 255 255 0.351676 0.190036
-0.00735 0.009388 -0.025989 -0.4845008 -0.5351174 -0.692032 255 255 255 255 0.351676 0.190036
-0.03141 0.011063 -0.02643 -0.5757386 -0.251369 -0.7780352 255 255 255 255 0.351676 0.190036
-0.008854 0.009218 -0.022011 -0.1956447 -0.4140813 -0.8889656 255 255 255 255 0.351676 0.190036
-0.028487 0.007986 -0.025504 -0.3477173 -0.7374685 -0.578993 255 255 255 255 0.351676 0.190036
-0.021895 0.004931 -0.025182 -0.1322221 0.4934884 -0.8596433 255 255 255 255 0.351676 0.190036
-0.023694 0.008016 -0.026566 -0.01633777 -0.5248791 -0.85102 255 255 255 255 0.351676 0.190036
0.027793 0.008756 -0.033969 0.2652186 -0.6973302 -0.6658751 255 255 255 255 0.351676 0.190036
0.024406 0.007152 -0.028856 0.4783035 -0.2271934 -0.8482977 255 255 255 255 0.351676 0.190036
0.004773 0.004665 -0.026201 -0.2179387 0.6585753 -0.7202647 255 255 255 255 0.351676 0.190036
-0.00619 0.002789 -0.026534 -0.062479 0.358465 -0.9314501 255 255 255 255 0.351676 0.190036
0.022542 0.004197 -0.033674 -0.03861922 0.5072647 -0.8609246 255 255 255 255 0.351676 0.190036
-0.005867 0.000653 -0.025841 -0.1027603 -0.8161532 -0.5686249 255 255 255 255 0.351676 0.190036
0.021565 0.001431 -0.033327 -0.06576985 -0.6335065 -0.770937 255 255 255 255 0.351676 0.190036
0.027452 0.000801 -0.030409 0.01922249 -0.9971558 -0.07287603 255 255 255 255 0.351676 0.190036
-0.020638 0.003253 -0.0285 0.3638152 0.1774725 -0.914408 255 255 255 255 0.351676 0.190036
0.030454 0.001061 -0.032323 0.427822 -0.6675225 -0.6094112 255 255 255 255 0.351676 0.190036
0.033489 0.001155 -0.024652 0.6883442 -0.7157589 0.1177776 255 255 255 255 0.351676 0.190036
-0.006258 0.000153 -0.02229 -0.08081226 -0.9961267 -0.03465593 255 255 255 255 0.351676 0.190036
-0.014532 0.001117 -0.021363 -0.07120444 -0.9764611 -0.203602 255 255 255 255 0.351676 0.190036
-0.01594 0.000134 -0.017319 0.02737815 -0.9938166 -0.1076059 255 255 255 255 0.351676 0.190036
0.019418 0.000994 -0.016168 0.01324765 -0.9993302 -0.03411296 255 255 255 255 0.351676 0.190036
-0.00066 7.2e-05 -0.018002 0.01136743 -0.9998979 -0.008660083 255 255 255 255 0.351676 0.190036
0.033762 0.000319 -0.014249 0.2685984 -0.960308 -0.07525576 255 255 255 255 0.351676 0.190036
-0.036453 0.000362 0.005216 -0.8705394 -0.2923725 0.3958275 255 255 255 255 0.351676 0.190036
-0.025215 9.7e-05 -0.022925 -0.0002493842 -0.9964755 -0.08388415 255 255 255 255 0.351676 0.190036
-0.00663 2.4e-05 -0.00032 -0.0006789255 -0.9999785 0.006527665 255 255 255 255 0.351676 0.190036
0.001439 0.000106 0.011493 -0.03225156 -0.9994533 0.007281498 255 255 255 255 0.351676 0.190036
-0.010254 0.00174 0.015808 -0.07732474 -0.9969956 0.004554689 255 255 255 255 0.351676 0.190036
-0.022987 0.001799 0.019335 -0.08948771 -0.9704375 -0.2241498 255 255 255 255 0.351676 0.190036
-0.005132 9.2e-05 0.023054 -0.04605283 -0.9976346 -0.05103183 255 255 255 255 0.351676 0.190036
0.00288 0.000957 0.027919 0.3546212 -0.6582604 0.6640309 255 255 255 255 0.351676 0.190036
-0.030587 0.000393 0.025053 -0.6666522 -0.7426626 0.06345979 255 255 255 255 0.351676 0.190036
0.006259 0.001464 0.023982 0.0393139 -0.9542613 0.2963779 255 255 255 255 0.351676 0.190036
-0.007721 0.00271 0.030933 0.2873599 -0.000671207 0.9578224 255 255 255 255 0.351676 0.190036
-0.028946 0.005034 0.030138 -0.7451223 0.1536553 0.648986 255 255 255 255 0.351676 0.190036
0.009712 0.00722 0.025001 -0.2256073 0.4603433 0.858595 255 255 255 255 0.351676 0.190036
-0.004014 0.0111 0.029191 0.3007992 -0.063157 0.951594 255 255 255 255 0.351676 0.190036
-0.016025 0.014883 0.034929 0.0638197 0.2095482 0.9757134 255 255 255 255 0.351676 0.190036
-0.006078 0.014756 0.03124 0.2182534 -0.151757 0.9640204 255 255 255 255 0.351676 0.190036
-0.026214 0.015451 0.030757 -0.4893149 0.2218504 0.8434176 255 255 255 255 0.351676 0.190036
-0.01842 0.017043 0.03149 -0.21889 0.5794805 0.785041 255 255 255 255 0.351676 0.190036
0.031182 0.0214 0.027687 0.4571472 0.1161047 0.8817801 255 255 255 255 0.351676 0.190036
-0.028707 0.023311 0.029334 -0.7317918 -0.538609 0.4175896 255 255 255 255 0.351676 0.190036
-0.015905 0.025984 0.035475 -0.02741318 -0.2101364 0.9772877 255 255 255 255 0.351676 0.190036
0.018636 0.025418 0.02809 -0.2803725 0.06394867 0.9577588 255 255 255 255 0.351676 0.190036
0.008949 0.027313 0.022699 0.07147036 -0.07368147 0.9947176 255 255 255 255 0.351676 0.190036
-0.02634 0.025177 0.031683 -0.4863748 -0.2041917 0.849556 255 255 255 255 0.351676 0.190036
0.020262 0.029178 0.027895 -0.157677 -0.164764 0.9736482 255 255 255 255 0.351676 0.190036
-0.025724 0.03647 0.031494 -0.591469 0.5319966 0.6059242 255 255 255 255 0.351676 0.190036
0.033001 0.032944 0.02624 0.6620054 0.1495947 0.7344185 255 255 255 255 0.351676 0.190036
0.015413 0.036873 0.029152 -0.1512962 0.4845937 0.8615558 255 255 255 255 0.351676 0.190036
0.005554 0.036611 0.024263 0.3965337 0.1966305 0.8967148 255 255 255 255 0.351676 0.190036
0.004423 0.038276 0.025269 0.4770862 0.6792943 0.5576271 255 255 255 255 0.351676 0.190036
-0.024046 0.038135 0.030251 -0.2576675 0.8697298 0.4209247 255 255 255 255 0.351676 0.190036
0.017872 0.039328 0.024379 0.07686386 0.9432373 0.3231027 255 255 255 255 0.351676 0.190036
-0.020891 0.039746 0.018498 -0.1607251 0.9763563 -0.1445539 255 255 255 255 0.351676 0.190036
-0.006036 0.039843 0.018499 0.001920742 0.9999883 0.004437578 255 255 255 255 0.351676 0.190036
-0.013555 0.03987 0.011076 -0.04304872 0.9902357 0.1325897 255 255 255 255 0.351676 0.190036
-0.018731 0.039867 0.000635 -0.02184148 0.999751 0.00457249 255 255 255 255 0.351676 0.190036
-0.015151 0.039893 -0.012995 -0.01662043 0.9994959 -0.02705146 255 255 255 255 0.351676 0.190036
0.000292 0.039805 -0.012183 -0.01133673 0.9999013 -0.008304018 255 255 255 255 0.351676 0.190036
0.020252 0.039722 -0.021873 0.02917282 0.99779 -0.05970035 255 255 255 255 0.351676 0.190036
0.028066 0.039331 -0.020368 0.2497865 0.9682039 -0.01370731 255 255 255 255 0.351676 0.190036
0.02944 0.038785 -0.027896 0.2461334 0.9184886 -0.3095111 255 255 255 255 0.351676 0.190036
-0.023451 0.039055 -0.023125 0.1132312 0.8638734 -0.4908172 255 255 255 255 0.351676 0.190036
0.008642 0.037866 -0.025551 -0.04073682 0.8925472 -0.4491103 255 255 255 255 0.351676 0.190036
-0.012943 0.035968 -0.021518 0.2907487 0.004990072 -0.9567865 255 255 255 255 0.351676 0.190036
-0.00701 0.036043 -0.020093 -0.2380429 -0.425153 -0.8732586 255 255 255 255 0.351676 0.190036
0.014788 0.030116 -0.031433 -0.2800015 -0.2198848 -0.9344784 255 255 255 255 0.351676 0.190036
0.008342 0.031295 -0.029494 -0.4399354 -0.380872 -0.813261 255 255 255 255 0.351676 0.190036
-0.005734 0.030224 -0.02352 -0.7278729 0.180645 -0.6614895 255 255 255 255 0.351676 0.190036
-0.020178 0.023316 -0.023047 0.1992371 -0.7034046 -0.6822951 255 255 255 255 0.351676 0.190036
0.023386 0.010576 -0.033302 -0.2409209 -0.1034882 -0.9650115 255 255 255 255 0.351676 0.190036
0.000897 0.005949 -0.024634 -0.2977909 -0.2726829 -0.9148577 255 255 255 255 0.351676 0.190036
-0.007809 0.005899 -0.02168 -0.0418454 0.3742201 -0.9263954 255 255 255 255 0.351676 0.190036
0.013871 0.005651 -0.028466 -0.2818407 0.1483877 -0.9479172 255 255 255 255 0.351676 0.190036
-0.031844 0.000727 -0.025326 -0.5711015 -0.5438257 -0.6148956 255 255 255 255 0.351676 0.190036
-0.02276 0.003293 -0.028833 -0.08153241 0.4717949 -0.8779305 255 255 255 255 0.351676 0.190036
0.006911 0.000875 -0.029823 -0.1624199 -0.7296487 -0.6642534 255 255 255 255 0.351676 0.190036
-0.033779 0.000236 -0.020933 -0.6025589 -0.7458496 -0.2839563 255 255 255 255 0.351676 0.190036
-0.019988 0.001767 0.013673 -0.07019302 -0.9898649 0.1234527 255 255 255 255 0.351676 0.190036
0.037168 0.000236 0.010872 0.347158 -0.9377195 -0.01279119 255 255 255 255 0.351676 0.190036
-0.028063 0.000236 0.030128 -0.4927413 -0.6930316 0.5262255 255 255 255 255 0.351676 0.190036
-0.014583 0.000249 0.033466 0.149018 -0.5736026 0.8054649 255 255 255 255 0.351676 0.190036
0.029904 0.004432 -0.033298 0.4063011 0.4463933 -0.7972782 255 255 255 255 0.351676 0.190036
0.035608 0.003866 0.021842 0.9001212 -0.1321513 0.4151119 255 255 255 255 0.351676 0.190036
0.03221 0.000236 0.026299 0.4974758 -0.6770889 0.5422808 255 255 255 255 0.351676 0.190036
0.029397 0.010537 -0.022133 0.6296138 -0.7756383 -0.04440513 255 255 255 255 0.351676 0.190036
0.034184 0.010498 0.008009 0.9926912 0.1204679 -0.007198742 255 255 255 255 0.351676 0.190036
0.033868 0.006907 0.024817 0.7723327 0.2874399 0.5664633 255 255 255 255 0.351676 0.190036
0.035248 0.011271 0.004441 0.9415858 -0.3186412 -0.1090136 255 255 255 255 0.351676 0.190036
0.034072 0.021796 0.024742 0.8187385 0.1616931 0.5509288 255 255 255 255 0.351676 0.190036
0.033602 0.015493 0.025332 0.7537873 -0.3712635 0.5421884 255 255 255 255 0.351676 0.190036
0.031596 0.031563 -0.020405 0.9876356 0.1308213 -0.08638166 255 255 255 255 0.351676 0.190036
0.033992 0.032829 -0.012729 0.9967034 0.001446612 -0.08111896 255 255 255 255 0.351676 0.190036
0.034649 0.033452 -0.028002 0.9813467 -0.0700132 -0.1790445 255 255 255 255 0.351676 0.190036
0.034451 0.036833 -0.006204 0.9450642 0.3230437 -0.04996349 255 255 255 255 0.351676 0.190036
0.033989 0.037445 -0.026601 0.8172671 0.5739226 -0.0518394 255 255 255 255 0.351676 0.190036
0.036787 0.03594 0.017377 0.8219966 0.5202554 0.2316376 255 255 255 255 0.351676 0.190036
-0.030088 0.007418 0.012165 -0.8312573 0.5010501 0.2407493 255 255 255 255 0.351676 0.190036
-0.028684 0.005525 -0.013103 -0.9899901 0.08529877 0.1124444 255 255 255 255 0.351676 0.190036
-0.023284 0.010952 0.029806 -0.5533528 0.03638241 0.8321521 255 255 255 255 0.351676 0.190036
-0.029865 0.011678 -0.001325 -0.8420863 -0.3818791 0.3808662 255 255 255 255 0.351676 0.190036
-0.026503 0.014076 0.016372 -0.8727522 -0.4683674 -0.1376068 255 255 255 255 0.351676 0.190036
-0.033764 0.016916 -0.017305 -0.7422086 0.5495579 -0.3835526 255 255 255 255 0.351676 0.190036
-0.03699 0.024546 -0.013247 -0.9373657 -0.3142228 -0.1503655 255 255 255 255 0.351676 0.190036
-0.02838 0.029965 0.016354 -0.9997017 -0.02175276 -0.01110305 255 255 255 255 0.351676 0.190036
-0.028722 0.032656 0.017576 -0.9917611 0.04703042 -0.1191557 255 255 255 255 0.351676 0.190036
3 1 137 253 
3 137 303 253 
3 303 250 253 
3 136 0 306 
3 137 254 302 
3 139 254 137 
3 1 139 137 
3 1 253 2 
3 250 2 253 
3 140 141 250 
3 250 141 2 
3 140 138 141 
3 141 138 255 
3 138 0 255 
3 145 255 0 
3 73 0 138 
3 136 145 0 
3 309 136 306 
3 1 142 139 
3 1 2 256 
3 3 256 2 
3 2 141 3 
3 3 141 143 
3 255 144 141 
3 141 144 143 
3 1 256 142 
3 255 145 144 
3 4 144 145 
3 4 145 136 
3 256 257 142 
3 321 142 257 
3 257 148 321 
3 259 321 148 
3 258 257 256 
3 5 258 256 
3 149 256 3 
3 5 256 149 
3 143 149 3 
3 144 149 143 
3 4 146 144 
3 144 146 149 
3 158 146 147 
3 147 146 4 
3 5 149 150 
3 257 259 148 
3 147 151 158 
3 6 151 147 
3 260 126 259 
3 62 259 126 
3 257 260 259 
3 152 126 260 
3 258 260 257 
3 152 260 7 
3 7 260 258 
3 6 261 151 
3 126 152 153 
3 7 258 263 
3 5 154 258 
3 154 160 258 
3 160 263 258 
3 312 261 6 
3 266 262 155 
3 262 153 155 
3 152 155 153 
3 263 155 7 
3 7 155 152 
3 149 156 150 
3 156 157 150 
3 8 150 157 
3 149 146 156 
3 265 146 9 
3 265 156 146 
3 146 158 9 
3 9 158 264 
3 151 264 158 
3 311 261 312 
3 5 150 154 
3 8 154 150 
3 156 265 157 
3 151 261 264 
3 11 264 261 
3 157 159 8 
3 8 159 154 
3 9 264 265 
3 159 265 267 
3 267 265 264 
3 157 265 159 
3 267 264 11 
3 262 266 161 
3 268 161 266 
3 160 266 263 
3 263 266 155 
3 10 266 160 
3 163 159 267 
3 154 159 162 
3 163 267 12 
3 267 11 12 
3 11 97 269 
3 12 11 269 
3 10 268 266 
3 163 12 270 
3 270 12 165 
3 269 165 12 
3 165 269 168 
3 168 269 318 
3 154 164 160 
3 160 164 10 
3 162 164 154 
3 159 271 162 
3 272 162 271 
3 159 163 271 
3 270 271 163 
3 164 166 10 
3 268 10 273 
3 273 10 166 
3 268 273 161 
3 161 273 66 
3 162 13 164 
3 164 13 166 
3 272 13 162 
3 270 167 271 
3 271 167 272 
3 13 272 167 
3 13 167 274 
3 165 274 270 
3 274 167 270 
3 170 165 168 
3 166 169 273 
3 14 273 169 
3 66 273 14 
3 15 169 166 
3 166 13 15 
3 15 13 274 
3 170 274 165 
3 15 274 176 
3 176 274 16 
3 16 274 170 
3 170 168 173 
3 168 318 173 
3 173 318 102 
3 14 275 66 
3 66 275 171 
3 169 275 14 
3 276 174 169 
3 169 174 275 
3 176 276 15 
3 15 276 169 
3 170 173 172 
3 181 172 173 
3 174 134 275 
3 175 174 276 
3 175 276 176 
3 178 175 176 
3 179 176 16 
3 178 176 179 
3 17 177 134 
3 17 134 277 
3 174 277 134 
3 178 174 175 
3 277 174 178 
3 16 170 179 
3 182 179 172 
3 178 179 182 
3 170 172 179 
3 180 277 178 
3 19 180 182 
3 178 182 180 
3 172 181 182 
3 186 182 181 
3 173 187 181 
3 183 177 17 
3 18 183 17 
3 181 187 186 
3 277 278 17 
3 277 180 278 
3 19 278 180 
3 18 278 19 
3 173 102 187 
3 17 278 18 
3 284 184 19 
3 18 19 184 
3 284 19 279 
3 182 186 185 
3 19 182 185 
3 185 279 19 
3 185 186 20 
3 282 20 187 
3 20 186 187 
3 184 188 18 
3 284 279 189 
3 279 185 280 
3 280 185 21 
3 20 21 185 
3 21 20 281 
3 282 281 20 
3 317 282 100 
3 183 188 135 
3 18 188 183 
3 279 280 190 
3 190 280 191 
3 279 190 189 
3 280 21 191 
3 191 21 22 
3 22 21 192 
3 21 281 192 
3 192 281 23 
3 23 281 283 
3 281 282 283 
3 282 317 283 
3 317 194 283 
3 23 283 194 
3 188 184 195 
3 184 284 195 
3 196 195 284 
3 284 189 196 
3 24 196 189 
3 190 193 189 
3 24 189 193 
3 193 191 22 
3 193 22 285 
3 23 198 192 
3 22 192 285 
3 285 192 198 
3 24 193 197 
3 190 191 193 
3 198 26 197 
3 193 285 197 
3 197 285 198 
3 23 194 198 
3 188 195 72 
3 196 286 195 
3 72 195 200 
3 200 195 286 
3 286 196 287 
3 24 287 196 
3 287 197 26 
3 24 197 287 
3 26 198 288 
3 194 288 198 
3 26 199 287 
3 286 27 200 
3 201 200 27 
3 65 200 201 
3 286 287 27 
3 201 27 202 
3 25 288 194 
3 28 29 202 
3 201 202 29 
3 27 290 202 
3 28 202 290 
3 199 27 287 
3 290 27 204 
3 199 204 27 
3 26 289 199 
3 289 204 199 
3 288 289 26 
3 25 203 288 
3 205 288 203 
3 29 65 201 
3 204 289 205 
3 288 205 289 
3 65 206 129 
3 29 206 65 
3 28 290 208 
3 208 207 31 
3 290 204 208 
3 208 204 207 
3 204 205 207 
3 203 209 205 
3 205 209 207 
3 29 210 206 
3 215 291 28 
3 28 291 29 
3 32 215 28 
3 28 208 32 
3 215 32 211 
3 212 210 29 
3 127 210 212 
3 213 34 212 
3 29 291 212 
3 215 213 291 
3 213 212 291 
3 207 214 31 
3 209 214 207 
3 213 219 34 
3 35 34 219 
3 215 219 213 
3 216 211 32 
3 32 208 216 
3 31 216 208 
3 211 216 217 
3 217 216 214 
3 31 214 216 
3 33 217 214 
3 214 292 33 
3 214 209 292 
3 292 209 91 
3 209 218 91 
3 30 218 209 
3 34 35 36 
3 37 219 215 
3 211 37 215 
3 211 217 37 
3 37 217 219 
3 33 220 217 
3 219 217 220 
3 36 38 221 
3 35 38 36 
3 38 35 222 
3 220 222 219 
3 35 219 222 
3 223 225 109 
3 109 225 224 
3 221 225 223 
3 294 224 225 
3 221 38 225 
3 295 293 33 
3 33 293 220 
3 33 226 295 
3 227 295 226 
3 33 292 226 
3 91 226 292 
3 225 222 294 
3 38 222 225 
3 220 293 222 
3 222 293 294 
3 293 228 294 
3 295 228 293 
3 228 295 230 
3 304 295 227 
3 294 234 224 
3 224 234 297 
3 104 224 297 
3 294 229 234 
3 39 298 229 
3 294 228 229 
3 229 228 39 
3 39 228 230 
3 304 230 295 
3 39 230 232 
3 232 230 235 
3 299 296 40 
3 104 297 296 
3 40 296 297 
3 40 297 234 
3 231 234 229 
3 229 298 231 
3 232 298 39 
3 298 232 233 
3 233 232 235 
3 298 233 231 
3 237 231 233 
3 233 241 237 
3 239 244 40 
3 299 40 244 
3 239 40 234 
3 233 235 236 
3 245 244 239 
3 234 238 239 
3 231 237 234 
3 234 237 238 
3 236 241 233 
3 237 241 238 
3 238 241 239 
3 236 240 241 
3 76 240 236 
3 241 240 245 
3 245 240 242 
3 76 242 240 
3 103 299 243 
3 41 243 299 
3 41 299 244 
3 241 245 239 
3 41 244 245 
3 41 245 44 
3 44 245 246 
3 41 44 243 
3 44 246 247 
3 249 247 246 
3 242 42 245 
3 43 301 242 
3 242 301 42 
3 108 300 248 
3 247 248 300 
3 243 44 300 
3 247 300 44 
3 249 248 247 
3 249 246 47 
3 245 42 246 
3 46 47 42 
3 42 47 246 
3 46 42 306 
3 42 301 306 
3 306 301 43 
3 45 249 251 
3 45 248 249 
3 251 249 302 
3 47 303 249 
3 302 249 303 
3 47 46 252 
3 252 250 47 
3 252 140 250 
3 250 303 47 
3 252 138 140 
3 46 138 252 
3 306 73 46 
3 46 73 138 
3 303 137 302 
3 0 73 306 
3 235 74 236 
3 43 242 75 
3 75 242 48 
3 48 242 76 
3 78 43 75 
3 79 74 304 
3 230 304 235 
3 235 304 74 
3 236 74 76 
3 74 79 76 
3 48 76 79 
3 80 48 77 
3 79 77 48 
3 78 75 80 
3 80 75 48 
3 43 305 306 
3 227 79 304 
3 78 80 85 
3 309 306 305 
3 84 77 79 
3 85 77 84 
3 85 80 77 
3 85 81 78 
3 309 305 81 
3 43 78 305 
3 81 305 78 
3 49 82 226 
3 226 82 227 
3 79 82 307 
3 307 82 83 
3 227 82 79 
3 83 82 49 
3 50 307 83 
3 50 84 307 
3 79 307 84 
3 51 85 84 
3 51 308 85 
3 52 85 308 
3 309 81 52 
3 52 81 85 
3 84 50 86 
3 51 84 86 
3 86 310 51 
3 51 310 308 
3 310 52 308 
3 87 309 52 
3 136 309 4 
3 4 309 87 
3 92 83 49 
3 93 83 92 
3 50 83 88 
3 93 88 83 
3 53 86 50 
3 310 86 53 
3 4 87 147 
3 6 147 87 
3 310 89 52 
3 53 89 310 
3 87 52 89 
3 89 312 87 
3 87 312 6 
3 53 50 88 
3 95 53 88 
3 95 90 53 
3 89 90 312 
3 312 90 311 
3 95 311 90 
3 226 91 49 
3 49 91 92 
3 218 92 91 
3 54 92 218 
3 54 93 92 
3 89 53 90 
3 203 30 209 
3 203 99 30 
3 218 30 54 
3 54 30 99 
3 95 88 94 
3 98 95 96 
3 94 96 95 
3 97 311 98 
3 95 98 311 
3 261 97 11 
3 311 97 261 
3 54 99 93 
3 88 93 94 
3 313 314 93 
3 314 94 93 
3 97 98 101 
3 101 98 96 
3 99 313 93 
3 315 313 99 
3 315 99 25 
3 203 25 99 
3 315 100 313 
3 100 314 313 
3 316 314 100 
3 94 316 96 
3 101 96 55 
3 55 96 316 
3 314 316 94 
3 269 97 101 
3 55 316 102 
3 187 102 316 
3 315 25 317 
3 194 317 25 
3 102 318 55 
3 269 101 318 
3 55 318 101 
3 317 100 315 
3 282 187 100 
3 100 187 316 
3 103 105 299 
3 104 296 105 
3 299 105 296 
3 105 103 56 
3 109 104 105 
3 109 224 104 
3 243 106 103 
3 111 56 106 
3 106 56 103 
3 111 106 319 
3 300 106 243 
3 108 106 300 
3 106 107 319 
3 108 107 106 
3 112 108 45 
3 45 108 248 
3 57 108 112 
3 57 107 108 
3 56 320 105 
3 105 320 109 
3 56 110 320 
3 58 114 320 
3 58 320 110 
3 110 56 111 
3 58 110 111 
3 45 251 112 
3 254 112 302 
3 302 112 251 
3 320 114 109 
3 109 114 223 
3 221 223 114 
3 221 114 113 
3 111 319 115 
3 319 107 117 
3 59 117 107 
3 57 59 107 
3 57 112 118 
3 321 118 254 
3 254 118 112 
3 254 139 321 
3 142 321 139 
3 114 116 113 
3 61 113 116 
3 58 116 114 
3 111 322 58 
3 111 115 322 
3 119 322 115 
3 119 115 117 
3 115 319 117 
3 57 118 59 
3 36 221 61 
3 61 221 113 
3 119 121 322 
3 121 119 323 
3 59 323 117 
3 117 323 119 
3 124 323 59 
3 61 116 60 
3 116 121 60 
3 58 322 116 
3 116 322 121 
3 121 323 120 
3 62 118 321 
3 59 118 124 
3 62 124 118 
3 62 321 259 
3 36 324 34 
3 34 324 127 
3 61 324 36 
3 122 127 324 
3 61 60 324 
3 122 324 60 
3 60 121 122 
3 122 121 120 
3 122 120 123 
3 124 123 323 
3 323 123 120 
3 125 123 63 
3 63 123 124 
3 62 126 124 
3 63 124 126 
3 34 127 212 
3 122 123 125 
3 126 153 63 
3 262 63 153 
3 128 325 122 
3 122 325 127 
3 210 127 325 
3 128 122 125 
3 326 125 63 
3 128 125 326 
3 325 129 210 
3 206 210 129 
3 64 129 325 
3 128 130 325 
3 64 325 130 
3 326 130 128 
3 63 262 326 
3 327 326 262 
3 129 131 65 
3 64 131 129 
3 67 130 68 
3 68 130 69 
3 64 130 67 
3 64 67 131 
3 130 326 69 
3 69 326 327 
3 161 327 262 
3 66 171 161 
3 161 171 327 
3 67 132 131 
3 131 132 200 
3 72 200 132 
3 131 200 65 
3 68 133 67 
3 69 70 68 
3 68 70 133 
3 71 70 69 
3 133 132 67 
3 70 132 133 
3 134 71 69 
3 134 69 327 
3 327 171 134 
3 132 135 72 
3 70 135 132 
3 72 135 188 
3 183 135 70 
3 71 177 70 
3 183 70 177 
3 177 71 134 
3 134 171 275 
