ply
format ascii 1.0
comment VCGLIB generated
comment TextureFile Textures//Combined_Texture//Texture_01_A.png
element vertex 240
property float x
property float y
property float z
property float nx
property float ny
property float nz
property uchar red
property uchar green
property uchar blue
property uchar alpha
property float texture_u
property float texture_v
element face 416
property list uchar int vertex_indices
end_header
0.000135 -0 0.000493 -0.8510985 0.05753539 0.5218439 255 255 255 255 0.446722 0.284448
0.00021 -0 0.000559 0.8098248 -0.2532783 0.5291823 255 255 255 255 0.446722 0.284448
0.005314 0.0037 0.00232 0.2998554 0.1368929 0.9441118 255 255 255 255 0.446722 0.284448
0.005237 0.003598 0.002336 -0.07972278 -0.3046603 0.9491187 255 255 255 255 0.446722 0.284448
0.005536 0.0037 0.001666 0.6965203 0.3154235 -0.6444901 255 255 255 255 0.446722 0.284448
0.005484 0.003598 0.001606 0.5777513 -0.487919 -0.654323 255 255 255 255 0.446722 0.284448
0.000322 0 -5.9e-05 -0.6123473 0.1382946 -0.7783993 255 255 255 255 0.446722 0.284448
0.000421 0 -6.5e-05 0.4005383 -0.1225312 -0.9080502 255 255 255 255 0.446722 0.284448
0.000112 -0 0.000178 -0.9563482 0.1928086 -0.2195973 255 255 255 255 0.446722 0.284448
0.005797 0.003545 0.002119 0.7924073 0.6037357 0.08714333 255 255 255 255 0.446722 0.284448
0.005713 0.00348 0.002091 -0.009876316 -0.9874702 0.1574965 255 255 255 255 0.446722 0.284448
0.000197 -0 0.000206 0.8938862 -0.203421 0.3994839 255 255 255 255 0.446722 0.284448
0.004635 0.00416 0.001224 0.3419506 0.7954966 -0.500255 255 255 255 255 0.446722 0.284448
0.004706 0.004027 0.001749 -0.00618689 0.9979171 0.06421297 255 255 255 255 0.446722 0.284448
0.00433 0.00416 0.002123 -0.007513397 0.8786597 0.4773894 255 255 255 255 0.446722 0.284448
0.004283 0.003997 0.002154 -0.3482594 -0.5628339 0.7496222 255 255 255 255 0.446722 0.284448
0.004671 0.003922 0.001737 -0.002622544 -0.998679 0.05131693 255 255 255 255 0.446722 0.284448
0.004617 0.003997 0.00117 0.2779433 -0.684083 -0.6743723 255 255 255 255 0.446722 0.284448
0.00208 0.003424 0.000244 -0.2674623 0.7220561 -0.6380431 255 255 255 255 0.446723 0.284448
0.00194 0.003302 0.000811 -0.5025362 0.8356681 -0.2216219 255 255 255 255 0.446722 0.284448
0.001706 0.003424 0.001347 -0.6542017 0.6512035 0.3846482 255 255 255 255 0.446722 0.284448
0.00173 0.003226 0.001409 -0.1238174 -0.49397 0.8606178 255 255 255 255 0.446722 0.284448
0.001977 0.003099 0.000823 0.5299832 -0.8361294 0.1414406 255 255 255 255 0.446723 0.284448
0.002137 0.003226 0.000209 0.6194932 -0.4087555 -0.6701844 255 255 255 255 0.446723 0.284448
0.000642 0.001455 -8.1e-05 -0.4952044 0.3276032 -0.804642 255 255 255 255 0.446723 0.284448
0.000423 0.001504 0.000297 -0.8363414 0.4304354 -0.3394974 255 255 255 255 0.446722 0.284448
0.000367 0.001455 0.00073 -0.8893974 0.2589052 0.3767497 255 255 255 255 0.446722 0.284448
0.000444 0.001408 0.000804 0.1371874 -0.4249495 0.8947612 255 255 255 255 0.446722 0.284448
0.000506 0.001435 0.000325 0.8639315 -0.4432096 0.2391396 255 255 255 255 0.446723 0.284448
0.000748 0.001408 -9.3e-05 0.7812412 -0.2428708 -0.5750444 255 255 255 255 0.446723 0.284448
0.000418 -0 0.00015 0.5274841 0.07340439 0.8463879 255 255 255 255 0.446722 0.284448
0.000494 -0 6.3e-05 0.5363603 -0.2619008 -0.8023252 255 255 255 255 0.446722 0.284448
0.003046 0.004126 -0.005861 0.9806716 0.1462956 -0.1299265 255 255 255 255 0.446722 0.284448
0.003047 0.004011 -0.005771 0.924367 -0.3148014 0.2155126 255 255 255 255 0.446722 0.284448
0.002457 0.004126 -0.006114 -0.6432898 0.3076313 -0.7010999 255 255 255 255 0.446722 0.284448
0.002391 0.004011 -0.006054 -0.667631 -0.4694335 -0.5778417 255 255 255 255 0.446722 0.284448
-7.8e-05 0 -6.3e-05 -0.8655775 0.1373855 0.4815609 255 255 255 255 0.446722 0.284448
-6.7e-05 0 -0.000178 -0.830119 -0.1423171 -0.539118 255 255 255 255 0.446722 0.284448
0.000112 -0 0.000178 -0.266654 0.2092331 0.9408066 255 255 255 255 0.446722 0.284448
0.002937 0.003952 -0.006418 0.1065007 0.6587401 -0.7447947 255 255 255 255 0.446722 0.284448
0.002895 0.003879 -0.006321 0.1570338 -0.9856464 0.06198067 255 255 255 255 0.446722 0.284448
0.000154 -0 8e-05 0.4901395 -0.2178562 -0.8439799 255 255 255 255 0.446722 0.284448
0.001878 0.004642 -0.005069 -0.4705947 0.785041 -0.4028044 255 255 255 255 0.446722 0.284448
0.002394 0.004493 -0.005155 0.07296191 0.9972679 0.01154385 255 255 255 255 0.446722 0.284448
0.002686 0.004642 -0.004722 0.4765589 0.8778592 0.04748372 255 255 255 255 0.446722 0.284448
0.002708 0.004459 -0.004668 0.7288299 -0.5778201 0.3673295 255 255 255 255 0.446722 0.284448
0.002376 0.004375 -0.005113 0.06445899 -0.9979197 0.001109953 255 255 255 255 0.446722 0.284448
0.001823 0.004459 -0.005048 -0.6492015 -0.6831912 -0.3343461 255 255 255 255 0.446722 0.284448
0.000298 0.003885 -0.002177 -0.6611723 0.7202399 0.2100134 255 255 255 255 0.446723 0.284448
0.001016 0.003696 -0.001957 -0.254576 0.8453385 0.4696743 255 255 255 255 0.446722 0.284448
0.00167 0.003885 -0.001587 0.3457549 0.6589172 0.6680431 255 255 255 255 0.446722 0.284448
0.001759 0.003578 -0.001626 0.8400573 -0.5090191 0.1876255 255 255 255 255 0.446722 0.284448
0.001042 0.00338 -0.002016 0.1761911 -0.847262 -0.5011025 255 255 255 255 0.446723 0.284448
0.000265 0.003578 -0.002269 -0.6100473 -0.4340446 -0.6629086 255 255 255 255 0.446723 0.284448
-6.5e-05 0.001604 -0.000443 -0.8577673 0.3249406 0.3983076 255 255 255 255 0.446723 0.284448
0.000259 0.001658 -0.000191 -0.4201911 0.4490822 0.7885206 255 255 255 255 0.446722 0.284448
0.000665 0.001604 -0.000129 0.3454139 0.2460113 0.9056311 255 255 255 255 0.446722 0.284448
0.000749 0.001551 -0.000218 0.8944115 -0.4417104 -0.07014356 255 255 255 255 0.446722 0.284448
0.000301 0.001581 -0.000288 0.2807699 -0.4756912 -0.8335983 255 255 255 255 0.446723 0.284448
-5.8e-05 0.001551 -0.000565 -0.4963721 -0.3107818 -0.8105735 255 255 255 255 0.446723 0.284448
-9.7e-05 0 -0.00025 0.8567554 0.1105867 -0.503727 255 255 255 255 0.446722 0.284448
-0.000184 0 -0.00033 -0.7660804 -0.3309057 -0.5510194 255 255 255 255 0.446722 0.284448
-0.006278 0.003726 -0.002642 -0.2459848 0.1177768 -0.9620916 255 255 255 255 0.446722 0.284448
-0.006185 0.003623 -0.002656 0.1041079 -0.3122998 -0.9442618 255 255 255 255 0.446722 0.284448
-0.006566 0.003726 -0.001882 -0.7012606 0.3309146 0.63145 255 255 255 255 0.446722 0.284448
-0.006506 0.003623 -0.001809 -0.5945684 -0.5151306 0.6173565 255 255 255 255 0.446722 0.284448
-0.00034 -0 0.000391 0.5725645 0.1864688 0.7983729 255 255 255 255 0.446722 0.284448
-0.000459 -0 0.000394 -0.4226105 -0.1670615 0.890781 255 255 255 255 0.446722 0.284448
-8.2e-05 -0 0.000123 0.9309527 0.269528 0.2463367 255 255 255 255 0.446722 0.284448
-0.00686 0.00357 -0.002428 -0.7747819 0.6241562 -0.1007078 255 255 255 255 0.446722 0.284448
-0.006761 0.003505 -0.00239 -0.01355726 -0.9876588 -0.1560332 255 255 255 255 0.446722 0.284448
-0.000181 -0 8.5e-05 -0.8612138 -0.2794351 -0.4245313 255 255 255 255 0.446722 0.284448
-0.005508 0.004189 -0.001318 -0.412006 0.7992994 0.4374605 255 255 255 255 0.446722 0.284448
-0.005574 0.004055 -0.00194 -0.01663627 0.9980294 -0.06050318 255 255 255 255 0.446722 0.284448
-0.005112 0.004189 -0.002363 0.006046597 0.8776691 -0.4792291 255 255 255 255 0.446722 0.284448
-0.005055 0.004024 -0.002398 0.333329 -0.5619106 -0.7570655 255 255 255 255 0.446722 0.284448
-0.005532 0.00395 -0.001925 0.01236395 -0.999216 -0.0376095 255 255 255 255 0.446722 0.284448
-0.005488 0.004024 -0.001254 -0.346318 -0.6886534 0.6370403 255 255 255 255 0.446722 0.284448
-0.003131 0.003762 0.00025 0.1915981 0.7557406 0.6262159 255 255 255 255 0.446723 0.284448
-0.00286 0.003585 -0.000705 0.4053732 0.8951506 0.1854132 255 255 255 255 0.446722 0.284448
-0.00243 0.003762 -0.001599 0.5720907 0.7249005 -0.3837076 255 255 255 255 0.446722 0.284448
-0.002469 0.003475 -0.001707 0.1901309 -0.5160027 -0.8352194 255 255 255 255 0.446722 0.284448
-0.002923 0.003289 -0.000729 -0.4327772 -0.8909115 -0.1377701 255 255 255 255 0.446723 0.284448
-0.003231 0.003475 0.000305 -0.6366076 -0.4544548 0.6230583 255 255 255 255 0.446723 0.284448
-0.000797 0.001464 0.000409 0.4550717 0.3794162 0.8055763 255 255 255 255 0.446723 0.284448
-0.000521 0.001513 -2.6e-05 0.7731608 0.5238741 0.3574612 255 255 255 255 0.446722 0.284448
-0.00044 0.001464 -0.000534 0.8771388 0.3267733 -0.3519188 255 255 255 255 0.446722 0.284448
-0.000528 0.001417 -0.000624 -0.03180304 -0.4797241 -0.8768429 255 255 255 255 0.446722 0.284448
-0.00062 0.001444 -6.3e-05 -0.7988936 -0.5510743 -0.2410105 255 255 255 255 0.446723 0.284448
-0.000923 0.001417 0.000418 -0.711764 -0.3699444 0.597104 255 255 255 255 0.446723 0.284448
-0.000156 -0 4.4e-05 -0.010883 0.0807623 -0.996674 255 255 255 255 0.446722 0.284448
-0.000254 -0 7.5e-05 -0.8678518 -0.289039 0.4040913 255 255 255 255 0.446722 0.284448
-0.004811 0.00355 0.003581 -0.9357049 0.1347658 -0.3260285 255 255 255 255 0.446722 0.284448
-0.004776 0.003452 0.003507 -0.7270788 -0.3135086 -0.6107937 255 255 255 255 0.446722 0.284448
-0.004419 0.00355 0.004087 0.1979023 0.3150015 0.9282289 255 255 255 255 0.446722 0.284448
-0.004339 0.003452 0.004072 0.2615329 -0.4898509 0.8316529 255 255 255 255 0.446722 0.284448
0.000175 -0 0.000471 0.986026 0.1620406 -0.03867134 255 255 255 255 0.446722 0.284448
0.00012 -0 0.000558 0.5004691 -0.1402678 0.8543159 255 255 255 255 0.446722 0.284448
0.000112 -0 0.000178 0.6956606 0.2300292 -0.6805461 255 255 255 255 0.446722 0.284448
-0.004943 0.003402 0.004088 -0.4736919 0.6403913 0.6045784 255 255 255 255 0.446722 0.284448
-0.004869 0.00334 0.004031 -0.1249161 -0.9870284 -0.1008507 255 255 255 255 0.446722 0.284448
3.8e-05 -0 0.000236 -0.8261075 -0.241601 0.5090926 255 255 255 255 0.446722 0.284448
-0.003512 0.00399 0.003537 0.2097494 0.7911806 0.5744899 255 255 255 255 0.446722 0.284448
-0.003979 0.003863 0.003342 -0.05013936 0.9980102 -0.03823161 255 255 255 255 0.446722 0.284448
-0.004051 0.00399 0.002841 -0.3963513 0.8775533 -0.2698255 255 255 255 255 0.446722 0.284448
-0.004047 0.003833 0.002786 -0.4766906 -0.5715647 -0.6678922 255 255 255 255 0.446722 0.284448
-0.003948 0.003763 0.003318 -0.05162632 -0.9983727 -0.0242245 255 255 255 255 0.446722 0.284448
-0.003458 0.003833 0.003547 0.3906537 -0.6868514 0.6128823 255 255 255 255 0.446722 0.284448
-0.001006 0.003352 0.002013 0.6773292 0.7230403 0.1357856 255 255 255 255 0.446723 0.284448
-0.001536 0.003186 0.001449 0.4347034 0.8542756 -0.2850369 255 255 255 255 0.446722 0.284448
-0.001949 0.003352 0.000795 0.01583388 0.6740971 -0.7384731 255 255 255 255 0.446722 0.284448
-0.002042 0.003082 0.000781 -0.6250539 -0.5223035 -0.580092 255 255 255 255 0.446722 0.284448
-0.001583 0.002908 0.001486 -0.3892109 -0.8561895 0.3397858 255 255 255 255 0.446723 0.284448
-0.001016 0.003082 0.002106 0.2149318 -0.4379957 0.8729056 255 255 255 255 0.446723 0.284448
-2e-05 0.001403 0.000779 0.9392594 0.3405134 0.04292559 255 255 255 255 0.446723 0.284448
-0.000191 0.001449 0.000409 0.7382566 0.4660464 -0.4876249 255 255 255 255 0.446722 0.284448
-0.000506 0.001403 0.000151 0.1712854 0.2590496 -0.950555 255 255 255 255 0.446722 0.284448
-0.000613 0.001358 0.00018 -0.7907426 -0.4627643 -0.4007187 255 255 255 255 0.446722 0.284448
-0.000265 0.001383 0.000466 -0.6468346 -0.4935914 0.5813542 255 255 255 255 0.446723 0.284448
-7.5e-05 0.001358 0.000875 0.08041669 -0.3268729 0.9416407 255 255 255 255 0.446723 0.284448
-0.000167 -0 0.000413 -0.922272 0.0654688 -0.380957 255 255 255 255 0.446722 0.284448
-0.000178 -0 0.00053 0.03966982 -0.2749239 0.9606473 255 255 255 255 0.446722 0.284448
0.001612 0.004256 0.006746 -0.6128352 0.1357943 0.7784554 255 255 255 255 0.446722 0.284448
0.001545 0.004137 0.00668 -0.8257165 -0.3069156 0.4732812 255 255 255 255 0.446722 0.284448
0.002373 0.004256 0.006522 0.9317353 0.3127355 0.1845694 255 255 255 255 0.446722 0.284448
0.002393 0.004137 0.006431 0.8674508 -0.4904478 0.08360595 255 255 255 255 0.446722 0.284448
0.000475 -0 0.000224 0.2977057 0.1537077 -0.9422024 255 255 255 255 0.446722 0.284448
0.000547 -0 0.000317 0.9750003 -0.1279361 -0.1816777 255 255 255 255 0.446722 0.284448
0.000112 -0 0.000178 -0.3728998 0.2119295 -0.9033448 255 255 255 255 0.446722 0.284448
0.002125 0.004076 0.007083 0.3869866 0.6138225 0.6880867 255 255 255 255 0.446722 0.284448
0.002095 0.004001 0.006982 -0.1357189 -0.9874419 0.08086322 255 255 255 255 0.446722 0.284448
0.000142 -0 0.00028 0.1828175 -0.2241987 0.9572423 255 255 255 255 0.446722 0.284448
0.00218 0.00479 0.00534 0.6153712 0.7865335 0.05180142 255 255 255 255 0.446722 0.284448
0.001737 0.004635 0.005764 -0.04464187 0.9971541 0.06075205 255 255 255 255 0.446722 0.284448
0.001135 0.00479 0.005647 -0.3876733 0.8741813 0.2924323 255 255 255 255 0.446722 0.284448
0.001073 0.0046 0.005622 -0.8092307 -0.5683944 0.1485715 255 255 255 255 0.446722 0.284448
0.001724 0.004514 0.005721 -0.0477974 -0.9988559 0.001525075 255 255 255 255 0.446722 0.284448
0.002218 0.0046 0.005286 0.7095801 -0.6896318 -0.1445829 255 255 255 255 0.446722 0.284448
0.00173 0.004188 0.002056 0.3655083 0.7109319 -0.6008158 255 255 255 255 0.446723 0.284448
0.00092 0.004005 0.002373 -0.1108068 0.8456728 -0.5220723 255 255 255 255 0.446722 0.284448
6.7e-05 0.004188 0.002545 -0.6935286 0.6526449 -0.3050783 255 255 255 255 0.446722 0.284448
1.2e-05 0.003891 0.00263 -0.7800709 -0.5038413 0.3709897 255 255 255 255 0.446722 0.284448
0.000937 0.003699 0.002432 0.1830993 -0.8423686 0.506843 255 255 255 255 0.446723 0.284448
0.001822 0.003891 0.002098 0.8960524 -0.4158312 0.1554815 255 255 255 255 0.446723 0.284448
0.000714 0.001649 0.000541 0.3561362 0.3074074 -0.8824215 255 255 255 255 0.446723 0.284448
0.000213 0.001706 0.00058 -0.1987793 0.4234562 -0.8838391 255 255 255 255 0.446722 0.284448
-0.00023 0.001649 0.000818 -0.820134 0.2545086 -0.5124505 255 255 255 255 0.446722 0.284448
-0.000247 0.001594 0.000943 -0.6527318 -0.4168834 0.6325736 255 255 255 255 0.446722 0.284448
0.000243 0.001626 0.000681 0.3061077 -0.4446784 0.8417596 255 255 255 255 0.446723 0.284448
0.000796 0.001594 0.000636 0.9141654 -0.3137765 0.2566049 255 255 255 255 0.446723 0.284448
-0.000193 -0 0.000627 -0.6245942 0.1514827 -0.7661169 255 255 255 255 0.446722 0.284448
-0.000255 -0 0.000718 -0.4388758 -0.433242 0.7872036 255 255 255 255 0.446722 0.284448
-0.001923 0.002644 0.00675 -0.9615925 0.09874021 0.2561058 255 255 255 255 0.446722 0.284448
-0.001939 0.002573 0.006664 -0.9482484 -0.3155105 -0.03574988 255 255 255 255 0.446722 0.284448
-0.001287 0.002644 0.006925 0.7347287 0.3500878 0.5810441 255 255 255 255 0.446722 0.284448
-0.00123 0.002573 0.006859 0.672766 -0.5528822 0.4916374 255 255 255 255 0.446722 0.284448
0.000343 -0 0.000774 0.7646694 0.2596802 -0.5897856 255 255 255 255 0.446722 0.284448
0.00035 -0 0.000885 0.9042919 -0.2032804 0.3754106 255 255 255 255 0.446722 0.284448
0.000112 -0 0.000566 0.1361271 0.3663403 -0.9204695 255 255 255 255 0.446722 0.284448
-0.001724 0.002537 0.007268 0.01398203 0.6811274 0.7320315 255 255 255 255 0.446722 0.284448
-0.001697 0.002491 0.007171 -0.1518676 -0.9873645 0.04525115 255 255 255 255 0.446722 0.284448
8.5e-05 -0 0.000664 -0.3436036 -0.3796006 0.8589761 255 255 255 255 0.446722 0.284448
-0.000868 0.002963 0.005864 0.5120167 0.8285143 0.2267221 255 255 255 255 0.446722 0.284448
-0.001376 0.002871 0.006003 -0.0360717 0.9984681 -0.04195588 255 255 255 255 0.446722 0.284448
-0.001741 0.002963 0.005623 -0.4457982 0.8945788 -0.03151066 255 255 255 255 0.446722 0.284448
-0.001772 0.002849 0.005574 -0.8142661 -0.5452345 -0.1992239 255 255 255 255 0.446722 0.284448
-0.001364 0.002798 0.005962 -0.05627655 -0.9971812 0.04962471 255 255 255 255 0.446722 0.284448
-0.000816 0.002849 0.005837 0.6800136 -0.6830736 0.2664432 255 255 255 255 0.446722 0.284448
2.1e-05 0.002266 0.002983 0.5754468 0.7980402 -0.1788659 255 255 255 255 0.446723 0.284448
-0.000693 0.002156 0.002862 0.1318965 0.9251356 -0.355988 255 255 255 255 0.446722 0.284448
-0.001368 0.002266 0.002601 -0.4343871 0.7742732 -0.460227 255 255 255 255 0.446722 0.284448
-0.001446 0.002088 0.002645 -0.8269694 -0.5447201 -0.1392895 255 255 255 255 0.446722 0.284448
-0.000708 0.001973 0.002918 -0.07603224 -0.9305602 0.3581578 255 255 255 255 0.446723 0.284448
6.5e-05 0.002088 0.003061 0.7546269 -0.4820514 0.4451571 255 255 255 255 0.446723 0.284448
0.000361 0.001087 0.001236 0.7706277 0.4937876 -0.4028731 255 255 255 255 0.446723 0.284448
-7e-06 0.00112 0.001032 0.2640373 0.6552948 -0.7077239 255 255 255 255 0.446722 0.284448
-0.000427 0.001087 0.001019 -0.4617263 0.3764647 -0.8031708 255 255 255 255 0.446722 0.284448
-0.000498 0.001054 0.001113 -0.8179469 -0.5751969 0.010562 255 255 255 255 0.446722 0.284448
-3.4e-05 0.001072 0.00113 -0.1336945 -0.677799 0.7229898 255 255 255 255 0.446723 0.284448
0.000373 0.001054 0.001353 0.6317301 -0.3696545 0.6813756 255 255 255 255 0.446723 0.284448
0.000717 -0 0.000452 -0.3075069 0.109498 0.9452247 255 255 255 255 0.446722 0.284448
0.000832 -0 0.000454 0.9029305 -0.4212935 -0.08501954 255 255 255 255 0.446722 0.284448
0.006604 0.002644 -0.001852 0.841399 0.08441612 0.5337805 255 255 255 255 0.446722 0.284448
0.00655 0.002573 -0.001778 0.6041455 -0.3001189 0.7381984 255 255 255 255 0.446722 0.284448
0.006288 0.002644 -0.002627 0.07518651 0.3823806 -0.9209408 255 255 255 255 0.446722 0.284448
0.006197 0.002573 -0.002642 0.05161119 -0.5841315 -0.8100165 255 255 255 255 0.446722 0.284448
0.00045 0 -0.000202 -0.9509735 0.2562002 -0.1732368 255 255 255 255 0.446722 0.284448
0.00053 0 -0.000284 -0.333773 -0.1689902 -0.9273823 255 255 255 255 0.446722 0.284448
0.000455 -0 0.000178 -0.8346608 0.3342755 0.4377228 255 255 255 255 0.446722 0.284448
0.00686 0.002537 -0.002409 0.6276425 0.632213 -0.4542815 255 255 255 255 0.446722 0.284448
0.006766 0.002491 -0.00237 0.1462498 -0.9871569 0.06428265 255 255 255 255 0.446722 0.284448
0.000549 -0 0.000139 0.8941923 -0.3515795 -0.2771497 255 255 255 255 0.446722 0.284448
0.005179 0.002963 -0.002342 -0.07074718 0.8442199 -0.5313075 255 255 255 255 0.446722 0.284448
0.005645 0.002871 -0.001912 0.02225953 0.9993582 0.02806675 255 255 255 255 0.446722 0.284448
0.005613 0.002963 -0.001279 0.2742972 0.8982099 0.3434822 255 255 255 255 0.446722 0.284448
0.005598 0.002849 -0.001213 0.3242166 -0.5210171 0.7895726 255 255 255 255 0.446722 0.284448
0.005606 0.002798 -0.001896 0.02521894 -0.9994764 0.02027267 255 255 255 255 0.446722 0.284448
0.005122 0.002849 -0.002378 -0.1877542 -0.680894 -0.7079067 255 255 255 255 0.446722 0.284448
0.002148 0.002488 -0.001487 -0.5297312 0.785312 -0.3204217 255 255 255 255 0.446723 0.284448
0.002568 0.002377 -0.000654 -0.3732347 0.9189419 0.1274432 255 255 255 255 0.446722 0.284448
0.002852 0.002488 0.000236 -0.13641 0.773654 0.6187503 255 255 255 255 0.446722 0.284448
0.002943 0.002307 0.000288 0.3594356 -0.5346164 0.7648473 255 255 255 255 0.446722 0.284448
0.002623 0.00219 -0.000676 0.3525893 -0.9215257 -0.1626999 255 255 255 255 0.446723 0.284448
0.002176 0.002307 -0.001588 -0.05424615 -0.4481124 -0.8923299 255 255 255 255 0.446723 0.284448
0.000768 0.001087 -0.000479 -0.8477261 0.4495137 -0.2815988 255 255 255 255 0.446723 0.284448
0.000873 0.00112 3.8e-05 -0.7610819 0.596319 0.255261 255 255 255 255 0.446722 0.284448
0.00116 0.001087 0.000481 -0.4249654 0.3619098 0.8297143 255 255 255 255 0.446722 0.284448
0.001283 0.001054 0.00049 0.5292737 -0.5563262 0.6406018 255 255 255 255 0.446722 0.284448
0.000966 0.001072 -0 0.70834 -0.616908 -0.3430438 255 255 255 255 0.446723 0.284448
0.000849 0.001054 -0.000572 0.07635259 -0.3770593 -0.9230366 255 255 255 255 0.446723 0.284448
0.000419 0 -0.000504 0.935058 0.1267159 0.3310735 255 255 255 255 0.446722 0.284448
0.000425 0 -0.00061 -0.07591867 -0.4204573 -0.9041305 255 255 255 255 0.446722 0.284448
-0.001746 0.002621 -0.005892 0.4893897 0.08936509 -0.8674743 255 255 255 255 0.446722 0.284448
-0.001674 0.002551 -0.005845 0.7183283 -0.2960057 -0.6295912 255 255 255 255 0.446722 0.284448
-0.002518 0.002621 -0.005568 -0.9206817 0.3779126 -0.09760787 255 255 255 255 0.446722 0.284448
-0.002534 0.002551 -0.005484 -0.8099925 -0.582272 -0.06979611 255 255 255 255 0.446722 0.284448
-0.000231 0 -0.000231 -0.1394298 0.2595748 0.9556047 255 255 255 255 0.446722 0.284448
-0.00031 0 -0.000301 -0.911072 -0.1602886 0.3798097 255 255 255 255 0.446722 0.284448
0.000144 0 -0.00025 0.4395186 0.3363643 0.832876 255 255 255 255 0.446722 0.284448
-0.00229 0.002515 -0.006106 -0.4569238 0.6095334 -0.6478346 255 255 255 255 0.446722 0.284448
-0.002254 0.002471 -0.006022 0.05870684 -0.9868593 -0.1505396 255 255 255 255 0.446722 0.284448
0.000108 0 -0.000335 -0.2921332 -0.3527942 -0.8889288 255 255 255 255 0.446722 0.284448
-0.002261 0.002938 -0.004553 -0.5374518 0.8411567 0.06000774 255 255 255 255 0.446722 0.284448
-0.001826 0.002846 -0.005002 0.02722625 0.9993628 -0.02308228 255 255 255 255 0.446722 0.284448
-0.001201 0.002938 -0.004997 0.3346588 0.8968772 -0.2891624 255 255 255 255 0.446722 0.284448
-0.001137 0.002825 -0.004986 0.7839152 -0.5184686 -0.341566 255 255 255 255 0.446722 0.284448
-0.001811 0.002774 -0.004966 0.01874569 -0.9994276 -0.02816125 255 255 255 255 0.446722 0.284448
-0.002297 0.002825 -0.004499 -0.7100159 -0.6803225 0.1817658 255 255 255 255 0.446722 0.284448
-0.001516 0.002473 -0.001763 -0.2996356 0.7747628 0.5567415 255 255 255 255 0.446723 0.284448
-0.00065 0.002358 -0.002203 0.1408811 0.9080468 0.3944662 255 255 255 255 0.446722 0.284448
0.00027 0.002473 -0.002513 0.6261096 0.7650772 0.1504777 255 255 255 255 0.446722 0.284448
0.000325 0.002287 -0.002603 0.7596759 -0.5390506 -0.3637542 255 255 255 255 0.446722 0.284448
-0.000672 0.002166 -0.002255 -0.1753111 -0.9107604 -0.3738737 255 255 255 255 0.446723 0.284448
-0.001618 0.002287 -0.001787 -0.8965514 -0.4408896 0.04256644 255 255 255 255 0.446723 0.284448
-0.000517 0.001079 -0.000543 -0.2433035 0.4348221 0.8670255 255 255 255 255 0.446723 0.284448
-4e-06 0.001112 -0.00066 0.2705511 0.57953 0.7687309 255 255 255 255 0.446722 0.284448
0.000439 0.001079 -0.000944 0.8203881 0.3544566 0.4486913 255 255 255 255 0.446722 0.284448
0.000451 0.001046 -0.001057 0.6489368 -0.5484334 -0.5273536 255 255 255 255 0.446722 0.284448
-3.9e-05 0.001065 -0.000745 -0.3507404 -0.6029509 -0.7165412 255 255 255 255 0.446723 0.284448
-0.000606 0.001046 -0.000613 -0.9221899 -0.3844143 -0.04232485 255 255 255 255 0.446723 0.284448
3 14 15 3 
3 14 3 2 
3 9 10 5 
3 9 5 4 
3 4 5 17 
3 4 17 12 
3 10 16 17 
3 10 17 5 
3 12 13 9 
3 12 9 4 
3 9 13 14 
3 9 14 2 
3 2 3 10 
3 2 10 9 
3 15 16 10 
3 15 10 3 
3 18 19 13 
3 18 13 12 
3 14 13 19 
3 14 19 20 
3 20 21 15 
3 20 15 14 
3 21 22 16 
3 21 16 15 
3 17 16 22 
3 17 22 23 
3 12 17 23 
3 12 23 18 
3 24 25 19 
3 24 19 18 
3 20 19 25 
3 20 25 26 
3 26 27 21 
3 26 21 20 
3 27 28 22 
3 27 22 21 
3 23 22 28 
3 23 28 29 
3 18 23 29 
3 18 29 24 
3 6 8 25 
3 6 25 24 
3 26 25 8 
3 26 8 0 
3 0 1 27 
3 0 27 26 
3 1 11 28 
3 1 28 27 
3 29 28 11 
3 29 11 7 
3 24 29 7 
3 24 7 6 
3 44 45 33 
3 44 33 32 
3 39 40 35 
3 39 35 34 
3 34 35 47 
3 34 47 42 
3 40 46 47 
3 40 47 35 
3 42 43 39 
3 42 39 34 
3 39 43 44 
3 39 44 32 
3 32 33 40 
3 32 40 39 
3 45 46 40 
3 45 40 33 
3 48 49 43 
3 48 43 42 
3 44 43 49 
3 44 49 50 
3 50 51 45 
3 50 45 44 
3 51 52 46 
3 51 46 45 
3 47 46 52 
3 47 52 53 
3 42 47 53 
3 42 53 48 
3 54 55 49 
3 54 49 48 
3 50 49 55 
3 50 55 56 
3 56 57 51 
3 56 51 50 
3 57 58 52 
3 57 52 51 
3 53 52 58 
3 53 58 59 
3 48 53 59 
3 48 59 54 
3 36 38 55 
3 36 55 54 
3 56 55 38 
3 56 38 30 
3 30 31 57 
3 30 57 56 
3 31 41 58 
3 31 58 57 
3 59 58 41 
3 59 41 37 
3 54 59 37 
3 54 37 36 
3 74 75 63 
3 74 63 62 
3 69 70 65 
3 69 65 64 
3 64 65 77 
3 64 77 72 
3 70 76 77 
3 70 77 65 
3 72 73 69 
3 72 69 64 
3 69 73 74 
3 69 74 62 
3 62 63 70 
3 62 70 69 
3 75 76 70 
3 75 70 63 
3 78 79 73 
3 78 73 72 
3 74 73 79 
3 74 79 80 
3 80 81 75 
3 80 75 74 
3 81 82 76 
3 81 76 75 
3 77 76 82 
3 77 82 83 
3 72 77 83 
3 72 83 78 
3 84 85 79 
3 84 79 78 
3 80 79 85 
3 80 85 86 
3 86 87 81 
3 86 81 80 
3 87 88 82 
3 87 82 81 
3 83 82 88 
3 83 88 89 
3 78 83 89 
3 78 89 84 
3 66 68 85 
3 66 85 84 
3 86 85 68 
3 86 68 60 
3 60 61 87 
3 60 87 86 
3 61 71 88 
3 61 88 87 
3 89 88 71 
3 89 71 67 
3 84 89 67 
3 84 67 66 
3 104 105 93 
3 104 93 92 
3 99 100 95 
3 99 95 94 
3 94 95 107 
3 94 107 102 
3 100 106 107 
3 100 107 95 
3 102 103 99 
3 102 99 94 
3 99 103 104 
3 99 104 92 
3 92 93 100 
3 92 100 99 
3 105 106 100 
3 105 100 93 
3 108 109 103 
3 108 103 102 
3 104 103 109 
3 104 109 110 
3 110 111 105 
3 110 105 104 
3 111 112 106 
3 111 106 105 
3 107 106 112 
3 107 112 113 
3 102 107 113 
3 102 113 108 
3 114 115 109 
3 114 109 108 
3 110 109 115 
3 110 115 116 
3 116 117 111 
3 116 111 110 
3 117 118 112 
3 117 112 111 
3 113 112 118 
3 113 118 119 
3 108 113 119 
3 108 119 114 
3 96 98 115 
3 96 115 114 
3 116 115 98 
3 116 98 90 
3 90 91 117 
3 90 117 116 
3 91 101 118 
3 91 118 117 
3 119 118 101 
3 119 101 97 
3 114 119 97 
3 114 97 96 
3 134 135 123 
3 134 123 122 
3 129 130 125 
3 129 125 124 
3 124 125 137 
3 124 137 132 
3 130 136 137 
3 130 137 125 
3 132 133 129 
3 132 129 124 
3 129 133 134 
3 129 134 122 
3 122 123 130 
3 122 130 129 
3 135 136 130 
3 135 130 123 
3 138 139 133 
3 138 133 132 
3 134 133 139 
3 134 139 140 
3 140 141 135 
3 140 135 134 
3 141 142 136 
3 141 136 135 
3 137 136 142 
3 137 142 143 
3 132 137 143 
3 132 143 138 
3 144 145 139 
3 144 139 138 
3 140 139 145 
3 140 145 146 
3 146 147 141 
3 146 141 140 
3 147 148 142 
3 147 142 141 
3 143 142 148 
3 143 148 149 
3 138 143 149 
3 138 149 144 
3 126 128 145 
3 126 145 144 
3 146 145 128 
3 146 128 120 
3 120 121 147 
3 120 147 146 
3 121 131 148 
3 121 148 147 
3 149 148 131 
3 149 131 127 
3 144 149 127 
3 144 127 126 
3 164 165 153 
3 164 153 152 
3 159 160 155 
3 159 155 154 
3 154 155 167 
3 154 167 162 
3 160 166 167 
3 160 167 155 
3 162 163 159 
3 162 159 154 
3 159 163 164 
3 159 164 152 
3 152 153 160 
3 152 160 159 
3 165 166 160 
3 165 160 153 
3 168 169 163 
3 168 163 162 
3 164 163 169 
3 164 169 170 
3 170 171 165 
3 170 165 164 
3 171 172 166 
3 171 166 165 
3 167 166 172 
3 167 172 173 
3 162 167 173 
3 162 173 168 
3 174 175 169 
3 174 169 168 
3 170 169 175 
3 170 175 176 
3 176 177 171 
3 176 171 170 
3 177 178 172 
3 177 172 171 
3 173 172 178 
3 173 178 179 
3 168 173 179 
3 168 179 174 
3 156 158 175 
3 156 175 174 
3 176 175 158 
3 176 158 150 
3 150 151 177 
3 150 177 176 
3 151 161 178 
3 151 178 177 
3 179 178 161 
3 179 161 157 
3 174 179 157 
3 174 157 156 
3 194 195 183 
3 194 183 182 
3 189 190 185 
3 189 185 184 
3 184 185 197 
3 184 197 192 
3 190 196 197 
3 190 197 185 
3 192 193 189 
3 192 189 184 
3 189 193 194 
3 189 194 182 
3 182 183 190 
3 182 190 189 
3 195 196 190 
3 195 190 183 
3 198 199 193 
3 198 193 192 
3 194 193 199 
3 194 199 200 
3 200 201 195 
3 200 195 194 
3 201 202 196 
3 201 196 195 
3 197 196 202 
3 197 202 203 
3 192 197 203 
3 192 203 198 
3 204 205 199 
3 204 199 198 
3 200 199 205 
3 200 205 206 
3 206 207 201 
3 206 201 200 
3 207 208 202 
3 207 202 201 
3 203 202 208 
3 203 208 209 
3 198 203 209 
3 198 209 204 
3 186 188 205 
3 186 205 204 
3 206 205 188 
3 206 188 180 
3 180 181 207 
3 180 207 206 
3 181 191 208 
3 181 208 207 
3 209 208 191 
3 209 191 187 
3 204 209 187 
3 204 187 186 
3 224 225 213 
3 224 213 212 
3 219 220 215 
3 219 215 214 
3 214 215 227 
3 214 227 222 
3 220 226 227 
3 220 227 215 
3 222 223 219 
3 222 219 214 
3 219 223 224 
3 219 224 212 
3 212 213 220 
3 212 220 219 
3 225 226 220 
3 225 220 213 
3 228 229 223 
3 228 223 222 
3 224 223 229 
3 224 229 230 
3 230 231 225 
3 230 225 224 
3 231 232 226 
3 231 226 225 
3 227 226 232 
3 227 232 233 
3 222 227 233 
3 222 233 228 
3 234 235 229 
3 234 229 228 
3 230 229 235 
3 230 235 236 
3 236 237 231 
3 236 231 230 
3 237 238 232 
3 237 232 231 
3 233 232 238 
3 233 238 239 
3 228 233 239 
3 228 239 234 
3 216 218 235 
3 216 235 234 
3 236 235 218 
3 236 218 210 
3 210 211 237 
3 210 237 236 
3 211 221 238 
3 211 238 237 
3 239 238 221 
3 239 221 217 
3 234 239 217 
3 234 217 216 
