ply
format ascii 1.0
comment VCGLIB generated
comment TextureFile Textures//Combined_Texture//Texture_01_A.png
element vertex 162
property float x
property float y
property float z
property float nx
property float ny
property float nz
property uchar red
property uchar green
property uchar blue
property uchar alpha
property float texture_u
property float texture_v
element face 216
property list uchar int vertex_indices
end_header
-0.001115 0.002172 0.008134 -0.7944474 -0.241444 0.5572776 255 255 255 255 0.436026 0.282301
0.001875 0.002104 0.007908 0.8434798 -0.3280734 0.4253347 255 255 255 255 0.436026 0.282301
-0.001096 0.00237 0.008247 -0.5303382 0.6083866 0.5904296 255 255 255 255 0.436026 0.282301
0.001895 0.002301 0.008021 0.6511583 0.5600818 0.5121537 255 255 255 255 0.436026 0.282301
-0.000441 0.003536 0.003323 0.7107213 0.2971924 -0.6376143 255 255 255 255 0.436026 0.282301
0.000638 0.003511 0.003242 -0.7692325 0.3718376 -0.5196328 255 255 255 255 0.436026 0.282301
-0.00046 0.003339 0.00321 0.3391048 0.443258 -0.8297772 255 255 255 255 0.436026 0.282301
0.000619 0.003314 0.003129 -0.4315097 0.4791958 -0.7643107 255 255 255 255 0.436026 0.282301
-0.0025 0.002986 0.00501 -0.9900477 0.1283651 -0.05768952 255 255 255 255 0.436026 0.282301
-0.002481 0.003184 0.005123 -0.6095476 0.7363291 0.2937195 255 255 255 255 0.436026 0.282301
0.002881 0.003061 0.004719 0.8956863 0.444102 0.02279478 255 255 255 255 0.436026 0.282301
0.002862 0.002863 0.004606 0.9943991 -0.04318754 -0.096464 255 255 255 255 0.436026 0.282301
0.000149 0.002768 0.004496 -0.03997748 0.5000618 -0.8650665 255 255 255 255 0.436026 0.282301
0.000168 0.002965 0.004609 0.0558379 0.9975466 0.04222511 255 255 255 255 0.436026 0.282301
0.000266 0.002578 0.006191 0.02655808 0.9760176 0.2160657 255 255 255 255 0.436026 0.282301
0.000482 0.00201 0.009461 0.07086001 0.1489794 0.9862981 255 255 255 255 0.436026 0.282301
0.000462 0.001813 0.009348 0.04652544 -0.5009237 0.8642401 255 255 255 255 0.436026 0.282301
0.002073 0.003488 0.003095 0.1840248 0.8699927 -0.4574358 255 255 255 255 0.436026 0.282301
-0.00188 0.003578 0.003393 -0.4916694 0.671066 -0.5549159 255 255 255 255 0.436026 0.282301
-0.001899 0.003381 0.00328 -0.5777507 0.4470599 -0.6828921 255 255 255 255 0.436026 0.282301
0.002053 0.00329 0.002982 0.679314 0.3125301 -0.6639711 255 255 255 255 0.436026 0.282301
-0.000136 -0.000771 0.000407 0.02074345 -0.7745013 0.6322321 255 255 255 255 0.435511 0.257762
0.000329 -0.000771 1.2e-05 0.5540291 0.6520137 -0.5176194 255 255 255 255 0.435511 0.257762
5.3e-05 0.002764 0.004767 -0.6802709 -0.5524448 0.4817014 255 255 255 255 0.435511 0.257762
0.000304 0.002805 0.004554 0.8309559 -0.4388405 0.3419524 255 255 255 255 0.435511 0.257762
-1.6e-05 0.002831 0.004501 -0.387069 0.7362033 -0.5551418 255 255 255 255 0.435511 0.257762
-0.000265 -0.000771 -8.6e-05 -0.9796075 0.1800816 -0.08910559 255 255 255 255 0.435511 0.257762
0.007324 0.002608 -0.000624 0.6427936 -0.06748295 0.7630613 255 255 255 255 0.436026 0.282301
0.006777 0.002506 -0.002903 0.2253965 -0.241494 -0.9438629 255 255 255 255 0.436026 0.282301
0.00739 0.002813 -0.000661 0.5368533 0.7153916 0.4472176 255 255 255 255 0.436026 0.282301
0.006842 0.002711 -0.00294 0.2738661 0.6262552 -0.7299328 255 255 255 255 0.436026 0.282301
0.002275 0.003531 -0.000282 -0.7578615 0.1274558 -0.6398445 255 255 255 255 0.436026 0.282301
0.002077 0.003494 -0.001104 -0.3849712 0.2807975 0.8791758 255 255 255 255 0.436026 0.282301
0.002209 0.003325 -0.000245 -0.9406707 0.2617504 -0.2159289 255 255 255 255 0.436026 0.282301
0.002012 0.003289 -0.001067 -0.7379246 0.3392971 0.5833908 255 255 255 255 0.436026 0.282301
0.00427 0.003145 0.001013 0.1243409 0.1391451 0.9824347 255 255 255 255 0.436026 0.282301
0.004335 0.00335 0.000976 0.298444 0.7820823 0.5470635 255 255 255 255 0.436026 0.282301
0.003354 0.003168 -0.00311 -0.167473 0.4012997 -0.9005062 255 255 255 255 0.436026 0.282301
0.003288 0.002963 -0.003073 -0.250074 -0.0940249 -0.9636505 255 255 255 255 0.436026 0.282301
0.003513 0.002871 -0.000947 -0.924368 0.3315654 0.1887014 255 255 255 255 0.436026 0.282301
0.003579 0.003076 -0.000984 -0.02560993 0.9966697 -0.07741886 255 255 255 255 0.436026 0.282301
0.005189 0.002831 -0.001345 0.1170615 0.9914769 -0.05718543 255 255 255 255 0.436026 0.282301
0.008467 0.002557 -0.002103 0.893299 0.3907036 -0.2221884 255 255 255 255 0.436026 0.282301
0.008402 0.002351 -0.002066 0.9238424 -0.3289252 -0.1957639 255 255 255 255 0.436026 0.282301
0.001775 0.003451 -0.00219 -0.5972933 0.7956449 -0.1009454 255 255 255 255 0.436026 0.282301
0.002498 0.003585 0.000821 -0.5335127 0.5845144 0.611316 255 255 255 255 0.436026 0.282301
0.002433 0.00338 0.000859 -0.6149223 0.3271454 0.717528 255 255 255 255 0.436026 0.282301
0.00171 0.003246 -0.002153 -0.7823018 0.1394772 -0.6070832 255 255 255 255 0.436026 0.282301
6.6e-05 -0.000771 4.1e-05 0.6507515 -0.7210804 -0.2378351 255 255 255 255 0.435511 0.257762
-0.000388 -0.000771 -0.000249 -0.6336249 0.548542 -0.5455467 255 255 255 255 0.435511 0.257762
0.003788 0.002891 -0.000922 0.6147895 -0.4529881 0.6456282 255 255 255 255 0.435511 0.257762
0.003544 0.002912 -0.001078 0.09401209 -0.3174988 -0.9435869 255 255 255 255 0.435511 0.257762
0.003524 0.002934 -0.00082 -0.557108 0.7157302 0.4211425 255 255 255 255 0.435511 0.257762
-0.000425 -0.000771 0.00023 0.006549757 0.2667941 0.9637313 255 255 255 255 0.435511 0.257762
0.002399 0.002406 -0.007851 0.9562061 -0.0654993 -0.2852714 255 255 255 255 0.436026 0.282301
9.7e-05 0.002219 -0.008218 -0.7523456 -0.3806289 -0.5376782 255 255 255 255 0.436026 0.282301
0.002379 0.002604 -0.007964 0.6020802 0.7041941 -0.3763113 255 255 255 255 0.436026 0.282301
7.7e-05 0.002417 -0.00833 -0.59188 0.5345483 -0.6032712 255 255 255 255 0.436026 0.282301
0.000664 0.003658 -0.003277 -0.8924737 0.1507335 0.4251707 255 255 255 255 0.436026 0.282301
-0.000166 0.00359 -0.00341 0.6312147 0.4310545 0.6447946 255 255 255 255 0.436026 0.282301
0.000684 0.00346 -0.003165 -0.5737274 0.359297 0.7360317 255 255 255 255 0.436026 0.282301
-0.000146 0.003393 -0.003298 0.231588 0.4990414 0.8350597 255 255 255 255 0.436026 0.282301
0.002663 0.003218 -0.004525 0.9378535 0.2380482 0.252515 255 255 255 255 0.436026 0.282301
0.002643 0.003416 -0.004637 0.5833664 0.8023865 -0.1259349 255 255 255 255 0.436026 0.282301
-0.001484 0.00308 -0.005295 -0.9161324 0.3268532 -0.2320959 255 255 255 255 0.436026 0.282301
-0.001464 0.002882 -0.005182 -0.9751731 -0.1752523 -0.1353662 255 255 255 255 0.436026 0.282301
0.000581 0.00289 -0.004545 -0.2216246 0.46501 0.8571162 255 255 255 255 0.436026 0.282301
0.000561 0.003087 -0.004657 -0.1107793 0.9895823 -0.09195013 255 255 255 255 0.436026 0.282301
0.00088 0.002724 -0.006222 -0.03103055 0.9769644 -0.2111343 255 255 255 255 0.436026 0.282301
0.001496 0.002206 -0.009461 0.1571339 0.2596876 -0.9528228 255 255 255 255 0.436026 0.282301
0.001516 0.002008 -0.009349 0.2038392 -0.4670112 -0.8604361 255 255 255 255 0.436026 0.282301
-0.00128 0.003509 -0.003548 -0.3361644 0.8469122 0.411987 255 255 255 255 0.436026 0.282301
0.001762 0.003756 -0.003063 0.3193793 0.7045026 0.6337768 255 255 255 255 0.436026 0.282301
0.001782 0.003559 -0.002951 0.397005 0.4828419 0.7805452 255 255 255 255 0.436026 0.282301
-0.00126 0.003311 -0.003435 -0.872772 0.172124 0.456774 255 255 255 255 0.436026 0.282301
0.000275 -0.000771 -0.000519 0.07412752 -0.758821 -0.6470671 255 255 255 255 0.435511 0.257762
-0.000172 -0.000771 -0.000225 -0.7432666 0.559065 0.3674252 255 255 255 255 0.435511 0.257762
0.000712 0.002894 -0.00479 0.861432 -0.4246748 -0.2785431 255 255 255 255 0.435511 0.257762
0.000471 0.002922 -0.004631 -0.8090036 -0.3907521 -0.4391195 255 255 255 255 0.435511 0.257762
0.000698 0.002959 -0.004517 0.1726266 0.7520831 0.636059 255 255 255 255 0.435511 0.257762
0.00025 -0.000771 -1.2e-05 0.8711625 0.3329471 0.3608631 255 255 255 255 0.435511 0.257762
-0.003156 0.003883 -0.005855 0.3526852 -0.06061595 -0.9337767 255 255 255 255 0.436026 0.282301
-0.004734 0.003875 -0.004431 -0.9641174 -0.07447903 0.2548148 255 255 255 255 0.436026 0.282301
-0.003184 0.004149 -0.005883 0.1858884 0.7415165 -0.6446697 255 255 255 255 0.436026 0.282301
-0.004762 0.004142 -0.004459 -0.6668353 0.7350072 0.1228623 255 255 255 255 0.436026 0.282301
-0.000557 0.004441 -0.001952 -0.1787564 0.0837254 0.9803246 255 255 255 255 0.436026 0.282301
-0.001126 0.004438 -0.001439 0.9924249 0.09604107 -0.07660955 255 255 255 255 0.436026 0.282301
-0.000528 0.004174 -0.001924 0.2931163 0.1306105 0.9471134 255 255 255 255 0.436026 0.282301
-0.001098 0.004171 -0.001411 0.9112924 0.1363122 0.3885422 255 255 255 255 0.436026 0.282301
-0.000455 0.00408 -0.004118 0.8129925 0.02575826 -0.5817042 255 255 255 255 0.436026 0.282301
-0.000484 0.004347 -0.004146 0.4006075 0.7677802 -0.5000272 255 255 255 255 0.436026 0.282301
-0.003314 0.004334 -0.001592 -0.6530423 0.4825824 0.5836524 255 255 255 255 0.436026 0.282301
-0.003286 0.004067 -0.001564 -0.7309055 -0.005080219 0.6824597 255 255 255 255 0.436026 0.282301
-0.001716 0.003808 -0.002673 0.6617859 0.144641 0.7356075 255 255 255 255 0.436026 0.282301
-0.001744 0.004075 -0.002701 0.02057007 0.9947195 0.1005487 255 255 255 255 0.436026 0.282301
-0.002765 0.003979 -0.003833 -0.01039108 0.9992166 -0.03818712 255 255 255 255 0.436026 0.282301
-0.00483 0.004065 -0.006121 -0.5669463 0.5356916 -0.6257846 255 255 255 255 0.436026 0.282301
-0.004802 0.003799 -0.006093 -0.6621757 -0.1469036 -0.734808 255 255 255 255 0.436026 0.282301
-0.001859 0.004437 -0.000726 0.3045359 0.7257195 0.6169191 255 255 255 255 0.436026 0.282301
0.000227 0.004447 -0.002609 0.8818825 0.4193952 0.2153853 255 255 255 255 0.436026 0.282301
0.000255 0.00418 -0.002581 0.9691898 0.125669 0.2118453 255 255 255 255 0.436026 0.282301
-0.001831 0.00417 -0.000698 -0.1368912 0.0891049 0.9865704 255 255 255 255 0.436026 0.282301
0.00018 -0.000771 -0.00046 -0.6796609 -0.5482427 -0.4873306 255 255 255 255 0.435511 0.257762
0.000153 -0.000771 2.8e-05 -0.1539932 0.4410086 0.8841931 255 255 255 255 0.435511 0.257762
-0.001813 0.003862 -0.002902 0.2088642 -0.3835538 -0.89959 255 255 255 255 0.435511 0.257762
-0.001827 0.003873 -0.002638 -0.9022194 -0.1546599 0.4025921 255 255 255 255 0.435511 0.257762
-0.001611 0.003879 -0.002734 0.7159595 0.5630746 0.4127336 255 255 255 255 0.435511 0.257762
0.000554 -0.000771 -0.000149 0.8872703 0.1759748 -0.4263618 255 255 255 255 0.435511 0.257762
-0.007536 0.001811 0.00048 -0.7065483 -0.3506214 -0.6146984 255 255 255 255 0.436026 0.282301
-0.006648 0.001977 0.003197 -0.2063883 -0.1310632 0.9696527 255 255 255 255 0.436026 0.282301
-0.007639 0.002011 0.000485 -0.7063755 0.5518664 -0.4432574 255 255 255 255 0.436026 0.282301
-0.006751 0.002177 0.003202 -0.3140275 0.6712226 0.6714513 255 255 255 255 0.436026 0.282301
-0.002705 0.003103 -0.000316 0.7739834 0.3880278 0.500384 255 255 255 255 0.436026 0.282301
-0.002385 0.003163 0.000664 0.3245398 0.1919164 -0.9261976 255 255 255 255 0.436026 0.282301
-0.002602 0.002903 -0.000321 0.8855146 0.456032 0.0888744 255 255 255 255 0.436026 0.282301
-0.002281 0.002963 0.000659 0.6599411 0.3596601 -0.659638 255 255 255 255 0.436026 0.282301
-0.004808 0.002434 -0.001704 -0.1799451 -0.06871445 -0.9812737 255 255 255 255 0.436026 0.282301
-0.004912 0.002633 -0.001699 -0.441635 0.6541467 -0.6140445 255 255 255 255 0.436026 0.282301
-0.003319 0.002931 0.003174 0.1771097 0.585128 0.7913643 255 255 255 255 0.436026 0.282301
-0.003216 0.002731 0.003169 0.321748 0.1430892 0.9359507 255 255 255 255 0.436026 0.282301
-0.003718 0.002416 0.000661 0.8343018 0.4400207 -0.3321482 255 255 255 255 0.436026 0.282301
-0.003822 0.002616 0.000666 -0.03283796 0.9990582 -0.02836248 255 255 255 255 0.436026 0.282301
-0.005337 0.002278 0.00121 -0.1999054 0.9797763 -0.008730926 255 255 255 255 0.436026 0.282301
-0.008467 0.00181 0.0023 -0.9257325 0.2236055 0.3049919 255 255 255 255 0.436026 0.282301
-0.008363 0.00161 0.002295 -0.8387004 -0.4419817 0.318173 255 255 255 255 0.436026 0.282301
-0.001921 0.003251 0.001957 0.4898487 0.8717246 -0.01202179 255 255 255 255 0.436026 0.282301
-0.003095 0.003032 -0.001635 0.4448894 0.5573377 -0.7010337 255 255 255 255 0.436026 0.282301
-0.002991 0.002832 -0.00164 0.5411272 0.2997769 -0.7856941 255 255 255 255 0.436026 0.282301
-0.001817 0.003051 0.001952 0.7915552 0.3988744 0.4629684 255 255 255 255 0.436026 0.282301
0.000167 -0.000771 -0.000112 -0.566824 -0.7892269 0.2362867 255 255 255 255 0.435511 0.257762
0.000655 -0.000771 0.000208 0.5772973 0.7005329 0.4195015 255 255 255 255 0.435511 0.257762
-0.004002 0.002411 0.000637 -0.5937661 -0.6631625 -0.4556943 255 255 255 255 0.435511 0.257762
-0.003739 0.002467 0.000809 -0.1278036 -0.3557677 0.9257946 255 255 255 255 0.435511 0.257762
-0.00376 0.002466 0.000497 0.4362557 0.7288288 -0.5277211 255 255 255 255 0.435511 0.257762
0.000617 -0.000771 -0.000372 -0.1717665 0.02703926 -0.9847665 255 255 255 255 0.435511 0.257762
0.004953 0.004022 0.005514 -0.09591892 -0.1339939 0.9863291 255 255 255 255 0.436026 0.282301
0.006248 0.00398 0.003448 0.836844 -0.2040086 -0.5080085 255 255 255 255 0.436026 0.282301
0.005056 0.00432 0.005565 0.06037955 0.698156 0.7133951 255 255 255 255 0.436026 0.282301
0.006351 0.004278 0.003498 0.6935923 0.6628712 -0.2820135 255 255 255 255 0.436026 0.282301
0.001052 0.005151 0.002094 -0.07208544 0.1886129 -0.9794023 255 255 255 255 0.436026 0.282301
0.001519 0.005136 0.001349 -0.9020699 0.2504629 0.3514799 255 255 255 255 0.436026 0.282301
0.000949 0.004852 0.002044 -0.4999956 0.3076167 -0.8095533 255 255 255 255 0.436026 0.282301
0.001417 0.004837 0.001299 -0.9349048 0.3383863 -0.106994 255 255 255 255 0.436026 0.282301
0.001514 0.004598 0.004473 -0.6185227 0.08193765 0.7814831 255 255 255 255 0.436026 0.282301
0.001617 0.004896 0.004523 -0.1785621 0.7666319 0.6167585 255 255 255 255 0.436026 0.282301
0.003939 0.00482 0.000818 0.5153973 0.4559276 -0.7256003 255 255 255 255 0.436026 0.282301
0.003836 0.004522 0.000768 0.5160707 -0.03483721 -0.8558373 255 255 255 255 0.436026 0.282301
0.002391 0.004283 0.002456 -0.7851995 0.3533145 -0.5085574 255 255 255 255 0.436026 0.282301
0.002494 0.004582 0.002506 0.04470927 0.9976709 -0.05151568 255 255 255 255 0.436026 0.282301
0.003934 0.004307 0.003422 0.1093837 0.9912978 0.07323892 255 255 255 255 0.436026 0.282301
0.006912 0.004068 0.0053 0.7889469 0.3684162 0.4917645 255 255 255 255 0.436026 0.282301
0.006809 0.00377 0.00525 0.7854375 -0.3575038 0.5052515 255 255 255 255 0.436026 0.282301
0.002107 0.005122 0.000333 -0.3555611 0.8206075 -0.4474143 255 255 255 255 0.436026 0.282301
0.000395 0.005178 0.003065 -0.8147362 0.5769612 0.05762598 255 255 255 255 0.436026 0.282301
0.000292 0.004879 0.003015 -0.9465453 0.3135633 0.07569737 255 255 255 255 0.436026 0.282301
0.002004 0.004823 0.000283 -0.1118157 0.2008114 -0.9732276 255 255 255 255 0.436026 0.282301
0.00034 -0.000771 0.000285 0.7799377 -0.4393401 0.4457324 255 255 255 255 0.435511 0.257762
0.000329 -0.000771 -0.000267 0.02337237 0.3485284 -0.9370068 255 255 255 255 0.435511 0.257762
0.00235 0.004638 0.002127 -0.1162252 -0.2796777 0.9530331 255 255 255 255 0.435511 0.257762
0.002343 0.004675 0.001829 0.8568128 -0.127766 -0.4995475 255 255 255 255 0.435511 0.257762
0.002119 0.004713 0.001969 -0.7984651 0.4621407 -0.3858491 255 255 255 255 0.435511 0.257762
-8.7e-05 -0.000771 -7e-06 -0.8622162 0.1761852 0.4749128 255 255 255 255 0.435511 0.257762
3 15 16 1 
3 15 1 3 
3 17 13 14 
3 17 14 10 
3 12 13 5 
3 12 5 7 
3 10 11 20 
3 10 20 17 
3 18 19 8 
3 18 8 9 
3 9 8 0 
3 9 0 2 
3 14 15 3 
3 14 3 10 
3 1 11 10 
3 1 10 3 
3 4 13 12 
3 4 12 6 
3 9 14 13 
3 9 13 18 
3 2 15 14 
3 2 14 9 
3 0 16 15 
3 0 15 2 
3 13 17 5 
3 18 13 4 
3 6 19 18 
3 6 18 4 
3 17 20 7 
3 17 7 5 
3 21 22 24 
3 21 24 23 
3 25 24 22 
3 25 22 26 
3 26 21 23 
3 26 23 25 
3 42 43 28 
3 42 28 30 
3 44 40 41 
3 44 41 37 
3 39 40 32 
3 39 32 34 
3 37 38 47 
3 37 47 44 
3 45 46 35 
3 45 35 36 
3 36 35 27 
3 36 27 29 
3 41 42 30 
3 41 30 37 
3 28 38 37 
3 28 37 30 
3 31 40 39 
3 31 39 33 
3 36 41 40 
3 36 40 45 
3 29 42 41 
3 29 41 36 
3 27 43 42 
3 27 42 29 
3 40 44 32 
3 45 40 31 
3 33 46 45 
3 33 45 31 
3 44 47 34 
3 44 34 32 
3 48 49 51 
3 48 51 50 
3 52 51 49 
3 52 49 53 
3 53 48 50 
3 53 50 52 
3 69 70 55 
3 69 55 57 
3 71 67 68 
3 71 68 64 
3 66 67 59 
3 66 59 61 
3 64 65 74 
3 64 74 71 
3 72 73 62 
3 72 62 63 
3 63 62 54 
3 63 54 56 
3 68 69 57 
3 68 57 64 
3 55 65 64 
3 55 64 57 
3 58 67 66 
3 58 66 60 
3 63 68 67 
3 63 67 72 
3 56 69 68 
3 56 68 63 
3 54 70 69 
3 54 69 56 
3 67 71 59 
3 72 67 58 
3 60 73 72 
3 60 72 58 
3 71 74 61 
3 71 61 59 
3 75 76 78 
3 75 78 77 
3 79 78 76 
3 79 76 80 
3 80 75 77 
3 80 77 79 
3 96 97 82 
3 96 82 84 
3 98 94 95 
3 98 95 91 
3 93 94 86 
3 93 86 88 
3 91 92 101 
3 91 101 98 
3 99 100 89 
3 99 89 90 
3 90 89 81 
3 90 81 83 
3 95 96 84 
3 95 84 91 
3 82 92 91 
3 82 91 84 
3 85 94 93 
3 85 93 87 
3 90 95 94 
3 90 94 99 
3 83 96 95 
3 83 95 90 
3 81 97 96 
3 81 96 83 
3 94 98 86 
3 99 94 85 
3 87 100 99 
3 87 99 85 
3 98 101 88 
3 98 88 86 
3 102 103 105 
3 102 105 104 
3 106 105 103 
3 106 103 107 
3 107 102 104 
3 107 104 106 
3 123 124 109 
3 123 109 111 
3 125 121 122 
3 125 122 118 
3 120 121 113 
3 120 113 115 
3 118 119 128 
3 118 128 125 
3 126 127 116 
3 126 116 117 
3 117 116 108 
3 117 108 110 
3 122 123 111 
3 122 111 118 
3 109 119 118 
3 109 118 111 
3 112 121 120 
3 112 120 114 
3 117 122 121 
3 117 121 126 
3 110 123 122 
3 110 122 117 
3 108 124 123 
3 108 123 110 
3 121 125 113 
3 126 121 112 
3 114 127 126 
3 114 126 112 
3 125 128 115 
3 125 115 113 
3 129 130 132 
3 129 132 131 
3 133 132 130 
3 133 130 134 
3 134 129 131 
3 134 131 133 
3 150 151 136 
3 150 136 138 
3 152 148 149 
3 152 149 145 
3 147 148 140 
3 147 140 142 
3 145 146 155 
3 145 155 152 
3 153 154 143 
3 153 143 144 
3 144 143 135 
3 144 135 137 
3 149 150 138 
3 149 138 145 
3 136 146 145 
3 136 145 138 
3 139 148 147 
3 139 147 141 
3 144 149 148 
3 144 148 153 
3 137 150 149 
3 137 149 144 
3 135 151 150 
3 135 150 137 
3 148 152 140 
3 153 148 139 
3 141 154 153 
3 141 153 139 
3 152 155 142 
3 152 142 140 
3 156 157 159 
3 156 159 158 
3 160 159 157 
3 160 157 161 
3 161 156 158 
3 161 158 160 
