ply
format ascii 1.0
comment VCGLIB generated
comment TextureFile Textures//Combined_Texture//Texture_01_A.png
element vertex 328
property float x
property float y
property float z
property float nx
property float ny
property float nz
property uchar red
property uchar green
property uchar blue
property uchar alpha
property float texture_u
property float texture_v
element face 652
property list uchar int vertex_indices
end_header
0.013131 0.003522 0.028304 0.3978999 -0.1468326 0.9056025 255 255 255 255 0.351676 0.190036
-0.011984 0.009134 0.028762 -0.4283985 0.1720122 0.8870662 255 255 255 255 0.351676 0.190036
0.001718 0.008501 0.025655 0.5178534 0.1658087 0.8392469 255 255 255 255 0.351676 0.190036
0.001089 0.014246 0.023942 0.5615489 0.3127639 0.7660559 255 255 255 255 0.351676 0.190036
0.013793 0.014337 0.0253 0.4056465 0.2583362 0.876763 255 255 255 255 0.351676 0.190036
0.001089 0.021435 0.024133 0.6036989 0.04204116 0.7961031 255 255 255 255 0.351676 0.190036
0.016613 0.021736 0.015558 0.8453923 0.1730119 0.5053502 255 255 255 255 0.351676 0.190036
-0.005408 0.028359 0.017505 -0.8113993 0.1380454 0.5679565 255 255 255 255 0.351676 0.190036
0.002047 0.036788 0.018795 0.639351 0.2274016 0.7345195 255 255 255 255 0.351676 0.190036
0.004877 0.037295 0.015812 -0.5587218 0.2377076 0.7945597 255 255 255 255 0.351676 0.190036
-0.006317 0.054389 0.008716 -0.3317919 0.4829496 0.8103541 255 255 255 255 0.351676 0.190036
0.010543 0.044393 0.010928 0.7969259 0.3884404 0.4626264 255 255 255 255 0.351676 0.190036
0.008775 0.049546 0.00921 0.7448575 0.4418378 0.4999666 255 255 255 255 0.351676 0.190036
-0.000369 0.058136 0.008328 -0.06756677 0.7453457 0.6632454 255 255 255 255 0.351676 0.190036
-0.005902 0.058334 0.005016 -0.4545054 0.8517184 0.2607693 255 255 255 255 0.351676 0.190036
-0.001004 0.059014 0.006852 -0.1812919 0.9021295 0.39153 255 255 255 255 0.351676 0.190036
0.004134 0.059242 0.005451 0.1422771 0.9771527 0.1578917 255 255 255 255 0.351676 0.190036
-0.007668 0.058918 0.000762 -0.3559357 0.7872872 0.5034765 255 255 255 255 0.351676 0.190036
-0.008447 0.058779 -0.004998 -0.4667127 0.8685151 -0.1669157 255 255 255 255 0.351676 0.190036
-0.004002 0.059242 -0.006928 -0.07981867 0.9958729 -0.04320052 255 255 255 255 0.351676 0.190036
0.006439 0.0592 -0.00588 0.1121656 0.9928767 -0.04018423 255 255 255 255 0.351676 0.190036
0.003383 0.05946 -0.008897 0.02723664 0.9991702 -0.03028208 255 255 255 255 0.351676 0.190036
0.002905 0.059382 -0.010113 0.09953489 0.8757035 -0.4724788 255 255 255 255 0.351676 0.190036
0.006303 0.058033 -0.009007 0.3475144 0.6053827 -0.7160625 255 255 255 255 0.351676 0.190036
-0.00165 0.056114 -0.010991 -0.1199516 0.357685 -0.9261064 255 255 255 255 0.351676 0.190036
0.008186 0.052345 -0.011456 0.4323649 0.3475324 -0.8320348 255 255 255 255 0.351676 0.190036
0.001543 0.054161 -0.013395 -0.488057 0.05842096 -0.8708544 255 255 255 255 0.351676 0.190036
-0.001181 0.054374 -0.010969 -0.2675619 -0.09755208 -0.9585897 255 255 255 255 0.351676 0.190036
-0.002219 0.043264 -0.016338 -0.2434426 0.2436915 -0.9388025 255 255 255 255 0.351676 0.190036
-0.008345 0.043518 -0.017283 -0.2846512 0.3114406 -0.9066303 255 255 255 255 0.351676 0.190036
0.013031 0.036929 -0.015999 0.3841449 0.3809865 -0.8410006 255 255 255 255 0.351676 0.190036
0.00552 0.034863 -0.02295 -0.283444 0.3297486 -0.9005139 255 255 255 255 0.351676 0.190036
-0.001143 0.035929 -0.018118 -0.7058196 0.1585342 -0.6904243 255 255 255 255 0.351676 0.190036
0.007241 0.014925 -0.028534 0.301129 -0.08839135 -0.9494779 255 255 255 255 0.351676 0.190036
-0.013172 0.030911 -0.017839 -0.5487986 0.3124864 -0.7753531 255 255 255 255 0.351676 0.190036
-0.012701 0.021446 -0.022835 -0.3301488 0.3436066 -0.8791679 255 255 255 255 0.351676 0.190036
-0.017836 0.021438 -0.015577 -0.7702352 0.3444042 -0.5367714 255 255 255 255 0.351676 0.190036
-0.00281 0.026913 -0.019724 -0.2951505 0.4395157 -0.8483585 255 255 255 255 0.351676 0.190036
-0.014981 0.015132 -0.024754 -0.4294355 0.1605746 -0.8887075 255 255 255 255 0.351676 0.190036
0.00419 0.004909 -0.029601 0.2084715 0.4657641 -0.860002 255 255 255 255 0.351676 0.190036
-0.015189 0.001221 -0.023266 -0.3477462 -0.7969256 -0.4939455 255 255 255 255 0.351676 0.190036
-0.024407 0.001803 -8.7e-05 -0.2592936 -0.965202 -0.03394111 255 255 255 255 0.351676 0.190036
0.018131 5.3e-05 0.003716 0.06419974 -0.9978836 0.01032888 255 255 255 255 0.351676 0.190036
0.02957 0.00338 0.008033 0.856285 -0.4000129 0.3267503 255 255 255 255 0.351676 0.190036
-0.015644 0.000458 0.0054 -0.1510834 -0.9755635 0.1595298 255 255 255 255 0.351676 0.190036
-0.020118 0.002897 0.014268 -0.7005072 -0.6769469 -0.2259039 255 255 255 255 0.351676 0.190036
0.00904 0.000111 0.023349 -0.03694044 -0.9752964 0.2177895 255 255 255 255 0.351676 0.190036
0.000741 -0 0.020425 0.02173496 -0.9904543 0.1361171 255 255 255 255 0.351676 0.190036
0.028545 0.002485 -0.012781 0.8426164 -0.06465573 -0.5346188 255 255 255 255 0.351676 0.190036
0.021159 0.013479 -0.016701 0.8501642 -0.1887885 -0.4915077 255 255 255 255 0.351676 0.190036
0.025061 0.012424 -0.0125 0.7520275 -0.2428393 -0.6127673 255 255 255 255 0.351676 0.190036
0.023366 0.013065 -0.001573 0.9898853 -0.1116265 -0.08755966 255 255 255 255 0.351676 0.190036
0.019341 0.015425 0.011581 0.808927 -0.002786654 0.5879026 255 255 255 255 0.351676 0.190036
0.021891 0.022237 -0.002306 0.9638425 0.2436854 -0.1078202 255 255 255 255 0.351676 0.190036
0.015382 0.037638 -0.013091 0.7114643 0.355999 -0.6058739 255 255 255 255 0.351676 0.190036
0.013658 0.052077 0.002187 0.7682133 0.4176595 0.4851896 255 255 255 255 0.351676 0.190036
-0.025998 0.006831 -0.002151 -0.6452062 0.7521863 -0.1338833 255 255 255 255 0.351676 0.190036
-0.018656 0.010514 0.010969 -0.8286648 0.3033575 0.4704136 255 255 255 255 0.351676 0.190036
-0.02484 0.013972 -0.003135 -0.9752823 -0.1682014 0.1432927 255 255 255 255 0.351676 0.190036
-0.018514 0.01655 0.009857 -0.8299192 0.01543568 0.5576701 255 255 255 255 0.351676 0.190036
-0.025645 0.023125 -0.00691 -0.8904767 0.3988258 -0.2190643 255 255 255 255 0.351676 0.190036
-0.019194 0.022426 -0.013282 -0.6650284 0.4135768 -0.6218452 255 255 255 255 0.351676 0.190036
-0.01656 0.021646 0.015602 -0.7709765 0.1831495 0.6099603 255 255 255 255 0.351676 0.190036
-0.013506 0.033592 0.008606 -0.8749257 0.3069631 0.3745381 255 255 255 255 0.351676 0.190036
-0.015777 0.046695 -0.005321 -0.8255091 0.5360677 -0.1765397 255 255 255 255 0.351676 0.190036
-0.008347 0.050597 -0.011085 -0.8205215 0.3878048 -0.4199428 255 255 255 255 0.351676 0.190036
-0.008339 0.055839 0.006975 -0.7518631 0.5345512 0.3859493 255 255 255 255 0.351676 0.190036
-0.013189 0.050102 -0.00404 -0.8743877 0.4612399 -0.1506781 255 255 255 255 0.351676 0.190036
-0.011788 0.053056 -0.000144 -0.7675752 0.4146618 0.4887576 255 255 255 255 0.351676 0.190036
-0.008904 0.054482 0.001089 -0.7402977 0.1657484 0.6515265 255 255 255 255 0.351676 0.190036
-0.011337 0.055383 -0.003453 -0.8971614 0.437415 -0.0613985 255 255 255 255 0.351676 0.190036
-0.009339 0.056195 0.00124 -0.7106493 -0.02922594 0.7029392 255 255 255 255 0.351676 0.190036
-0.008028 0.054444 -0.011245 -0.7783244 0.2208661 -0.5877324 255 255 255 255 0.351676 0.190036
0.015069 0.000881 0.022433 0.3453057 -0.8620437 0.3710048 255 255 255 255 0.351676 0.190036
0.021356 0.003869 -0.017739 0.824859 0.4458563 -0.3475915 255 255 255 255 0.351676 0.190036
0.027428 0.001641 -0.005826 0.9888314 0.144136 -0.03791231 255 255 255 255 0.351676 0.190036
0.023773 0.00221 -0.014008 0.5114406 -0.5070941 -0.6937465 255 255 255 255 0.351676 0.190036
0.023057 0.006548 -0.010183 0.783587 0.5387848 -0.3093579 255 255 255 255 0.351676 0.190036
0.029578 0.006117 0.007915 0.9214369 0.2503815 0.2970912 255 255 255 255 0.351676 0.190036
0.016928 0.009854 -0.013386 0.8456519 -0.1197291 -0.5201325 255 255 255 255 0.351676 0.190036
0.022681 0.006692 -0.001609 0.980597 -0.01917618 -0.1950946 255 255 255 255 0.351676 0.190036
0.02361 0.009066 0.01081 0.6510894 0.3506295 0.6731579 255 255 255 255 0.351676 0.190036
0.020569 0.011302 -0.015152 0.7245389 -0.6806415 0.1084921 255 255 255 255 0.351676 0.190036
0.022716 0.018571 -0.013415 0.8225955 0.1923139 -0.5351187 255 255 255 255 0.351676 0.190036
0.02299 0.008669 -0.010383 0.7438775 -0.230975 -0.6271338 255 255 255 255 0.351676 0.190036
0.028522 0.010753 0.005503 0.9366036 0.3486154 0.0352301 255 255 255 255 0.351676 0.190036
0.025098 0.01315 -0.006457 0.9842767 -0.15755 0.07985946 255 255 255 255 0.351676 0.190036
0.016551 0.016879 0.016036 0.8700001 0.1485367 0.4701454 255 255 255 255 0.351676 0.190036
0.018825 0.03861 -0.005257 0.9278206 0.3358733 -0.1622906 255 255 255 255 0.351676 0.190036
0.025244 0.020016 0.008546 0.9181441 -0.1068365 0.3815722 255 255 255 255 0.351676 0.190036
0.024853 0.026247 0.007729 0.9324703 0.2290517 0.2793468 255 255 255 255 0.351676 0.190036
0.015833 0.01753 -0.020749 0.1666071 0.1383469 -0.9762696 255 255 255 255 0.351676 0.190036
0.018741 0.026893 -0.014409 0.7554969 0.2716153 -0.5961959 255 255 255 255 0.351676 0.190036
0.016242 0.043732 -0.008562 0.8152595 0.4643159 -0.3460676 255 255 255 255 0.351676 0.190036
0.012483 0.050179 -0.002489 0.9277166 0.3231782 -0.1868095 255 255 255 255 0.351676 0.190036
0.021308 0.03701 0.005267 0.8572544 0.4294924 0.2839917 255 255 255 255 0.351676 0.190036
0.014535 0.050644 0.00132 0.9337471 0.3447709 0.09617477 255 255 255 255 0.351676 0.190036
0.013403 0.040495 0.009469 0.7817998 0.4242617 0.4569367 255 255 255 255 0.351676 0.190036
0.014149 0.043998 0.004777 0.5718434 0.4547659 0.682776 255 255 255 255 0.351676 0.190036
0.011176 0.046634 -0.011491 0.5984736 0.4270484 -0.677834 255 255 255 255 0.351676 0.190036
0.010553 0.055918 -0.007434 0.9298732 0.2999085 -0.2130513 255 255 255 255 0.351676 0.190036
0.011241 0.048298 0.005129 0.8031961 0.353942 0.479167 255 255 255 255 0.351676 0.190036
0.011241 0.056368 -0.000286 0.8958608 0.4376971 0.07651635 255 255 255 255 0.351676 0.190036
-0.029577 0.005233 -0.004699 -0.9879987 0.105949 -0.1123989 255 255 255 255 0.351676 0.190036
-0.022455 0.005659 -0.016179 -0.595471 0.62119 -0.5094482 255 255 255 255 0.351676 0.190036
-0.02548 0.007119 -0.010039 -0.5466854 0.7992325 -0.249725 255 255 255 255 0.351676 0.190036
-0.027171 0.005346 0.006795 -0.8208553 -0.1377443 0.5542772 255 255 255 255 0.351676 0.190036
-0.022516 0.008683 0.00932 -0.4780615 0.1288011 0.8688311 255 255 255 255 0.351676 0.190036
-0.020587 0.00507 0.010472 -0.7730063 -0.3540791 0.5263928 255 255 255 255 0.351676 0.190036
-0.01856 0.007776 -0.017279 -0.7954236 0.2080988 -0.5692067 255 255 255 255 0.351676 0.190036
-0.022985 0.008335 -0.002634 -0.8104297 0.4113319 -0.4171448 255 255 255 255 0.351676 0.190036
-0.025021 0.01231 -0.00098 -0.9823568 0.1580299 -0.1000085 255 255 255 255 0.351676 0.190036
-0.020432 0.00814 0.015343 -0.948833 0.2709665 0.1621513 255 255 255 255 0.351676 0.190036
-0.020859 0.016927 -0.013232 -0.7050592 0.432388 -0.5620784 255 255 255 255 0.351676 0.190036
-0.026806 0.014709 -0.008877 -0.9375971 -0.2140795 -0.2740104 255 255 255 255 0.351676 0.190036
-0.022494 0.013097 0.004927 -0.7632887 0.6432896 0.05973992 255 255 255 255 0.351676 0.190036
-0.027353 0.01807 -0.007428 -0.9826437 0.1214953 -0.1401798 255 255 255 255 0.351676 0.190036
-0.020804 0.016515 0.007395 -0.9058478 0.2483428 0.3431699 255 255 255 255 0.351676 0.190036
-0.016183 0.015509 0.015235 -0.8664183 0.1492341 0.4764962 255 255 255 255 0.351676 0.190036
-0.020896 0.015486 0.00316 -0.8451899 0.3883487 0.3672048 255 255 255 255 0.351676 0.190036
-0.02138 0.022098 0.006237 -0.9225803 -0.01270925 0.3855957 255 255 255 255 0.351676 0.190036
-0.022344 0.021537 0.001072 -0.9368241 0.007826101 0.3497134 255 255 255 255 0.351676 0.190036
-0.022851 0.030383 -0.002023 -0.9377983 0.3408241 0.06613173 255 255 255 255 0.351676 0.190036
-0.017673 0.03049 0.00507 -0.7570428 0.403081 0.51421 255 255 255 255 0.351676 0.190036
-0.020002 0.022547 0.009188 -0.9373866 0.2070267 0.2800826 255 255 255 255 0.351676 0.190036
-0.015642 0.035131 0.004812 -0.7216941 0.3275575 0.6098064 255 255 255 255 0.351676 0.190036
-0.013723 0.03132 0.010918 -0.7378779 0.4094267 0.5365688 255 255 255 255 0.351676 0.190036
-0.015434 0.03428 -0.010695 -0.8369417 0.1391356 -0.5293108 255 255 255 255 0.351676 0.190036
-0.015562 0.040318 0.003129 -0.6773216 0.3655527 0.638441 255 255 255 255 0.351676 0.190036
-0.014735 0.044741 -0.007638 -0.645025 0.4543263 -0.6144351 255 255 255 255 0.351676 0.190036
-0.011589 0.048775 0.002028 -0.665498 0.3497964 0.6593596 255 255 255 255 0.351676 0.190036
-0.009271 0.051724 -0.006898 -0.8090679 0.2403819 -0.5363075 255 255 255 255 0.351676 0.190036
-0.009896 0.054111 -0.006295 -0.8626791 0.004425732 -0.5057325 255 255 255 255 0.351676 0.190036
-0.012781 0.052533 -0.003144 -0.9526829 0.2910276 -0.08774026 255 255 255 255 0.351676 0.190036
-0.008146 0.056758 0.00178 -0.5297999 0.3599692 0.7679416 255 255 255 255 0.351676 0.190036
-0.00994 0.055573 -0.006507 -0.8788566 0.1595931 -0.4496012 255 255 255 255 0.351676 0.190036
0.018509 0.008469 0.017531 0.7825925 -0.1158479 0.6116603 255 255 255 255 0.351676 0.190036
-0.013856 0.003313 0.024305 -0.711078 0.1096777 0.6945063 255 255 255 255 0.351676 0.190036
0.010525 0.001598 0.028459 -0.04974008 -0.4638086 0.884538 255 255 255 255 0.351676 0.190036
-0.017343 0.008856 0.019788 -0.7460816 0.391837 0.538355 255 255 255 255 0.351676 0.190036
0.003775 0.00318 0.024955 -0.072691 -0.171635 0.9824752 255 255 255 255 0.351676 0.190036
0.003607 0.007195 0.023929 0.2450633 0.2841005 0.9269471 255 255 255 255 0.351676 0.190036
-0.012018 0.013689 0.022937 -0.577044 0.5697443 0.5851595 255 255 255 255 0.351676 0.190036
0.003006 0.016226 0.020401 0.3252866 0.07481647 0.9426512 255 255 255 255 0.351676 0.190036
0.005465 0.014789 0.021426 -0.326793 0.1949631 0.924768 255 255 255 255 0.351676 0.190036
0.013949 0.008748 0.027729 0.365355 0.194746 0.9102691 255 255 255 255 0.351676 0.190036
0.005007 0.021276 0.021128 -0.3720852 0.160634 0.9141933 255 255 255 255 0.351676 0.190036
0.013253 0.020149 0.025482 0.3354819 0.2225888 0.9153721 255 255 255 255 0.351676 0.190036
-0.012705 0.019556 0.019587 -0.4216017 0.03455354 0.9061226 255 255 255 255 0.351676 0.190036
0.003058 0.019345 0.020641 0.3137797 0.004379933 0.9494857 255 255 255 255 0.351676 0.190036
0.002278 0.025454 0.021406 0.7784916 0.1615237 0.6065154 255 255 255 255 0.351676 0.190036
0.010813 0.03545 0.015037 0.5262662 -0.1049289 0.843821 255 255 255 255 0.351676 0.190036
-0.008471 0.030014 0.015848 -0.587817 0.05864631 0.8068655 255 255 255 255 0.351676 0.190036
-0.011464 0.034596 0.012513 -0.75156 -0.4261396 0.5035501 255 255 255 255 0.351676 0.190036
-0.000734 0.041109 0.018022 0.01486199 0.4409961 0.897386 255 255 255 255 0.351676 0.190036
-0.010602 0.035074 0.015672 -0.5750423 -0.1003407 0.8119472 255 255 255 255 0.351676 0.190036
0.00358 0.031804 0.018456 0.5054507 0.3477637 0.7896708 255 255 255 255 0.351676 0.190036
0.002943 0.044197 0.012925 0.6312532 0.3990897 0.6650164 255 255 255 255 0.351676 0.190036
0.007329 0.025211 0.020711 -0.272276 0.3775409 0.8850586 255 255 255 255 0.351676 0.190036
0.002035 0.05032 0.009953 0.1862358 0.1954978 0.9628587 255 255 255 255 0.351676 0.190036
-0.004795 0.051872 0.010146 -0.6101277 0.1540397 0.7771847 255 255 255 255 0.351676 0.190036
-0.009588 0.051788 0.008723 -0.8853195 0.3566805 0.2983094 255 255 255 255 0.351676 0.190036
0.000906 0.054923 0.010523 0.4445374 0.4342287 0.7834743 255 255 255 255 0.351676 0.190036
0.005587 0.050663 0.012682 0.04543282 0.3644467 0.9301153 255 255 255 255 0.351676 0.190036
-0.002398 0.052743 0.013992 -0.2180933 0.4174761 0.8821276 255 255 255 255 0.351676 0.190036
0.008524 0.053774 0.005763 0.7544857 0.4447044 0.4826896 255 255 255 255 0.351676 0.190036
-0.005093 0.056752 0.007137 -0.2405234 0.7395201 0.628696 255 255 255 255 0.351676 0.190036
0.002849 0.055725 0.009018 -0.05544167 0.5540228 0.8306534 255 255 255 255 0.351676 0.190036
0.009194 0.053812 0.004676 0.6685663 0.4687543 0.5773115 255 255 255 255 0.351676 0.190036
-0.003441 0.059243 0.003922 -0.1525748 0.970567 0.186335 255 255 255 255 0.351676 0.190036
0.008052 0.058352 0.002741 0.376415 0.780271 0.4994888 255 255 255 255 0.351676 0.190036
-0.007297 0.056603 0.002721 -0.8149821 0.4900633 0.3092609 255 255 255 255 0.351676 0.190036
0.005427 0.059234 0.001806 0.1141401 0.9910764 0.0688447 255 255 255 255 0.351676 0.190036
0.010138 0.058201 0.002162 0.6367093 0.6219817 0.4557849 255 255 255 255 0.351676 0.190036
-0.001221 0.059254 0.002317 -0.03793935 0.9992458 -0.008278404 255 255 255 255 0.351676 0.190036
3.6e-05 0.05923 0.004655 0.005195452 0.9999552 -0.007907786 255 255 255 255 0.351676 0.190036
0.000757 0.059243 0.005756 0.007991044 0.9904605 0.1375654 255 255 255 255 0.351676 0.190036
-0.009291 0.056879 0.00108 -0.7335417 0.4178748 0.5360011 255 255 255 255 0.351676 0.190036
0.001299 0.059215 0.000774 0.002799223 0.9999921 -0.002834731 255 255 255 255 0.351676 0.190036
0.00448 0.059247 0.003762 0.1211242 0.9920568 0.0339448 255 255 255 255 0.351676 0.190036
-0.002897 0.059231 -0.002082 0.007168797 0.9999633 -0.004699626 255 255 255 255 0.351676 0.190036
0.008658 0.059007 -4e-05 0.2764125 0.9591184 0.06072871 255 255 255 255 0.351676 0.190036
0.005142 0.059218 -0.002117 0.01407611 0.9998331 0.01164857 255 255 255 255 0.351676 0.190036
-0.010098 0.057425 -0.005041 -0.7784853 0.5799857 -0.2399526 255 255 255 255 0.351676 0.190036
-0.006202 0.05872 -0.009312 -0.4435233 0.8161067 -0.3704822 255 255 255 255 0.351676 0.190036
0.002486 0.059241 -0.005446 -0.006510252 0.9997499 0.02139555 255 255 255 255 0.351676 0.190036
0.007876 0.059255 -0.004329 0.3052247 0.9293957 -0.2075123 255 255 255 255 0.351676 0.190036
0.010242 0.058105 -0.003598 0.7473643 0.65874 -0.08665055 255 255 255 255 0.351676 0.190036
-0.007942 0.056209 -0.008971 -0.7193912 0.5273502 -0.4520819 255 255 255 255 0.351676 0.190036
-0.001858 0.059097 -0.009715 -0.03020189 0.8254782 -0.5636255 255 255 255 255 0.351676 0.190036
-0.000103 0.059239 -0.009154 0.00240585 0.9955588 -0.09411138 255 255 255 255 0.351676 0.190036
0.001182 0.059216 -0.009413 -0.08201654 0.9942761 -0.06847175 255 255 255 255 0.351676 0.190036
0.004745 0.059222 -0.009381 0.3692365 0.8134138 -0.4494691 255 255 255 255 0.351676 0.190036
-9.9e-05 0.05897 -0.010415 -0.1724574 0.7951754 -0.5813385 255 255 255 255 0.351676 0.190036
0.007087 0.053818 -0.011099 0.4184556 0.4088191 -0.8110253 255 255 255 255 0.351676 0.190036
-0.006908 0.055554 -0.01125 -0.4494826 0.4828829 -0.7515248 255 255 255 255 0.351676 0.190036
-0.003285 0.056396 -0.011712 0.1327587 0.365103 -0.9214526 255 255 255 255 0.351676 0.190036
-0.00054 0.057196 -0.011752 -0.4779592 0.4491108 -0.754887 255 255 255 255 0.351676 0.190036
0.003467 0.054158 -0.013829 0.1928349 0.3315811 -0.9235089 255 255 255 255 0.351676 0.190036
0.00132 0.053675 -0.012754 -0.6638109 -0.004722406 -0.7478856 255 255 255 255 0.351676 0.190036
-0.00719 0.05303 -0.012373 -0.447526 0.166586 -0.878618 255 255 255 255 0.351676 0.190036
-0.00706 0.051433 -0.012617 -0.3646127 0.3256647 -0.8723533 255 255 255 255 0.351676 0.190036
-0.001999 0.052205 -0.011418 -0.2809437 0.3706505 -0.885262 255 255 255 255 0.351676 0.190036
0.008955 0.046419 -0.012663 0.4875958 0.3610294 -0.7949266 255 255 255 255 0.351676 0.190036
0.000376 0.052313 -0.013344 -0.295023 0.4887627 -0.8210192 255 255 255 255 0.351676 0.190036
0.004773 0.044635 -0.017688 0.5414692 0.5540264 -0.6323496 255 255 255 255 0.351676 0.190036
-0.012217 0.043319 -0.011582 -0.7308637 0.4050354 -0.5493492 255 255 255 255 0.351676 0.190036
0.007838 0.037358 -0.022594 0.3914258 0.4863383 -0.7811919 255 255 255 255 0.351676 0.190036
0.001108 0.038461 -0.019853 -0.4871733 0.2810508 -0.826845 255 255 255 255 0.351676 0.190036
0.012446 0.032913 -0.017472 0.5598049 0.2970827 -0.7735376 255 255 255 255 0.351676 0.190036
-0.014044 0.0388 -0.012346 -0.786624 0.2889487 -0.5456476 255 255 255 255 0.351676 0.190036
-0.00037 0.025757 -0.022444 -0.6896296 0.2452919 -0.6813538 255 255 255 255 0.351676 0.190036
-0.012912 0.03455 -0.017815 -0.4954458 0.144354 -0.8565603 255 255 255 255 0.351676 0.190036
-0.009787 0.032596 -0.017215 0.1413594 0.2639126 -0.9541319 255 255 255 255 0.351676 0.190036
0.007886 0.027797 -0.025896 0.3316048 0.2322191 -0.9143919 255 255 255 255 0.351676 0.190036
-0.004209 0.034819 -0.015239 -0.2063761 0.1706954 -0.9634687 255 255 255 255 0.351676 0.190036
0.001615 0.030226 -0.022996 -0.520842 0.257253 -0.8139684 255 255 255 255 0.351676 0.190036
-2.3e-05 0.017496 -0.025752 -0.260169 0.3118615 -0.9138132 255 255 255 255 0.351676 0.190036
0.015349 0.029812 -0.017426 0.563122 0.2828829 -0.7764476 255 255 255 255 0.351676 0.190036
-0.007389 0.02416 -0.0219 -0.02479763 0.4068792 -0.9131454 255 255 255 255 0.351676 0.190036
-0.003205 0.013559 -0.026394 -0.4601542 -0.06806661 -0.8852261 255 255 255 255 0.351676 0.190036
-0.019157 0.015971 -0.017176 -0.7912312 0.2775821 -0.5448865 255 255 255 255 0.351676 0.190036
-0.0059 0.012287 -0.023247 -0.2627251 -0.01625408 -0.9647338 255 255 255 255 0.351676 0.190036
-0.018119 0.010755 -0.020024 -0.8083131 -0.1122837 -0.5779465 255 255 255 255 0.351676 0.190036
-0.014093 0.005951 -0.024256 -0.4450515 0.4066717 -0.7978392 255 255 255 255 0.351676 0.190036
-0.014826 0.010335 -0.024579 -0.4499583 -0.07626311 -0.8897874 255 255 255 255 0.351676 0.190036
0.016346 0.011873 -0.020685 0.5507739 -0.360176 -0.7529418 255 255 255 255 0.351676 0.190036
0.014425 0.009874 -0.018667 0.7387016 -0.1245112 -0.6624326 255 255 255 255 0.351676 0.190036
0.00239 0.006069 -0.026614 -0.01221699 0.826674 -0.5625485 255 255 255 255 0.351676 0.190036
-0.004583 0.003719 -0.027274 -0.162239 0.3086446 -0.9372391 255 255 255 255 0.351676 0.190036
0.013728 0.005563 -0.022778 -0.03685476 -0.05849132 -0.9976074 255 255 255 255 0.351676 0.190036
-0.004405 0.001292 -0.026962 -0.1188792 -0.7106645 -0.6934146 255 255 255 255 0.351676 0.190036
0.012147 0.002982 -0.021752 0.2194389 -0.4255795 -0.8779116 255 255 255 255 0.351676 0.190036
0.012147 0.002982 -0.021752 0.1153325 -0.9083641 -0.4019615 255 255 255 255 0.351676 0.190036
-0.013458 0.004077 -0.026614 -0.3413441 0.0193398 -0.9397394 255 255 255 255 0.351676 0.190036
0.018317 0.002731 -0.024759 0.3621674 -0.3415671 -0.8672755 255 255 255 255 0.351676 0.190036
0.022665 0.001155 -0.015662 0.6313452 -0.7490969 -0.2006416 255 255 255 255 0.351676 0.190036
-0.00466 0.000507 -0.024695 -0.06456272 -0.9736264 -0.2188226 255 255 255 255 0.351676 0.190036
-0.009966 0.001278 -0.024081 -0.1842579 -0.8532172 -0.4879235 255 255 255 255 0.351676 0.190036
-0.01088 0.000134 -0.021501 -0.1077463 -0.9677671 -0.2276351 255 255 255 255 0.351676 0.190036
0.011814 0.001028 -0.010198 0.01119614 -0.997766 -0.06586156 255 255 255 255 0.351676 0.190036
-0.00106 9.6e-05 -0.021914 0.09123882 -0.9765493 -0.1950054 255 255 255 255 0.351676 0.190036
0.026683 0.000319 -0.008979 0.4079766 -0.9050267 -0.12034 255 255 255 255 0.351676 0.190036
-0.028252 0.002984 0.002914 -0.7726395 -0.5938358 0.2244713 255 255 255 255 0.351676 0.190036
-0.023335 0.002895 -0.016776 -0.6147631 -0.5425639 -0.5724429 255 255 255 255 0.351676 0.190036
-0.011384 3.9e-05 -3.3e-05 -0.06745067 -0.9976606 -0.01112841 255 255 255 255 0.351676 0.190036
0.000285 0.000106 0.015485 -0.03700401 -0.999214 -0.01421921 255 255 255 255 0.351676 0.190036
-0.009034 0.001827 0.01197 -0.2320196 -0.9568654 0.1748586 255 255 255 255 0.351676 0.190036
-0.016507 0.002839 0.012457 -0.2040093 -0.9783198 -0.03564746 255 255 255 255 0.351676 0.190036
-0.009906 9.2e-05 0.020588 -0.1013339 -0.9948488 -0.002706862 255 255 255 255 0.351676 0.190036
0.001211 0.001513 0.026038 0.3711295 -0.5837095 0.7221816 255 255 255 255 0.351676 0.190036
-0.020272 0.002456 0.016254 -0.7958774 -0.6033935 0.04995521 255 255 255 255 0.351676 0.190036
0.003382 0.001784 0.023509 0.04696713 -0.8526819 0.5203151 255 255 255 255 0.351676 0.190036
-0.0056 0.004036 0.027974 0.1411558 0.1173895 0.983003 255 255 255 255 0.351676 0.190036
-0.018902 0.007125 0.019163 -0.7978556 0.2096156 0.5652326 255 255 255 255 0.351676 0.190036
0.0055 0.008723 0.023583 -0.2511356 0.3461191 0.9039539 255 255 255 255 0.351676 0.190036
-0.003017 0.014774 0.025392 0.08810794 0.2532181 0.9633886 255 255 255 255 0.351676 0.190036
-0.009754 0.020644 0.020245 -0.5176537 0.3715572 0.7707009 255 255 255 255 0.351676 0.190036
-0.004098 0.020707 0.025607 -0.2927061 0.146852 0.9448586 255 255 255 255 0.351676 0.190036
-0.014963 0.022348 0.016783 -0.5455225 0.3748802 0.74958 255 255 255 255 0.351676 0.190036
-0.010488 0.024475 0.016919 -0.4210732 0.5120332 0.7486784 255 255 255 255 0.351676 0.190036
0.01498 0.033475 0.012941 0.698891 0.282752 0.6569647 255 255 255 255 0.351676 0.190036
-0.013599 0.036146 0.012956 -0.9096853 -0.2013972 0.3631967 255 255 255 255 0.351676 0.190036
-0.007398 0.039906 0.015302 -0.3171742 0.3694438 0.8734483 255 255 255 255 0.351676 0.190036
0.008417 0.039472 0.017979 0.1573472 0.3146042 0.9360908 255 255 255 255 0.351676 0.190036
0.003512 0.043472 0.01291 -0.02288493 0.3862053 0.922129 255 255 255 255 0.351676 0.190036
-0.012315 0.038801 0.01382 -0.6589557 0.3120018 0.6844212 255 255 255 255 0.351676 0.190036
0.008019 0.045554 0.014973 0.2727794 0.4581034 0.8460099 255 255 255 255 0.351676 0.190036
-0.007892 0.054685 0.008351 -0.5841373 0.5839759 0.5636984 255 255 255 255 0.351676 0.190036
0.009886 0.051495 0.006114 0.7886186 0.4072273 0.4607024 255 255 255 255 0.351676 0.190036
0.004756 0.055365 0.010716 0.1407545 0.5619864 0.8150825 255 255 255 255 0.351676 0.190036
0.002356 0.053401 0.010085 -0.1087042 0.1515866 0.9824485 255 255 255 255 0.351676 0.190036
0.001976 0.055267 0.00985 0.4464374 0.4222922 0.7888999 255 255 255 255 0.351676 0.190036
-0.006585 0.056878 0.006916 -0.2453815 0.7231747 0.6456054 255 255 255 255 0.351676 0.190036
0.004841 0.058523 0.007563 0.3622907 0.7460607 0.558694 255 255 255 255 0.351676 0.190036
-0.004769 0.059148 0.002562 -0.3124678 0.8468208 -0.4304165 255 255 255 255 0.351676 0.190036
-0.001193 0.059245 0.004715 -0.01853048 0.9984174 0.05309794 255 255 255 255 0.351676 0.190036
-0.00292 0.059272 0.000785 -0.1233422 0.9715586 0.2021399 255 255 255 255 0.351676 0.190036
-0.006579 0.059269 -0.001714 -0.1324223 0.9910604 0.01623744 255 255 255 255 0.351676 0.190036
-0.003302 0.059295 -0.008908 -0.1308939 0.979233 -0.1548209 255 255 255 255 0.351676 0.190036
0.000395 0.059207 -0.007864 -0.004703833 0.9999312 -0.01074822 255 255 255 255 0.351676 0.190036
0.006149 0.059124 -0.007699 0.2354784 0.9361007 -0.2612766 255 255 255 255 0.351676 0.190036
0.009141 0.058733 -0.006742 0.5221179 0.8325257 -0.1851861 255 255 255 255 0.351676 0.190036
0.008168 0.058024 -0.00886 0.3058105 0.6530316 -0.6928418 255 255 255 255 0.351676 0.190036
-0.005154 0.058457 -0.01061 -0.2417311 0.7075403 -0.6640428 255 255 255 255 0.351676 0.190036
0.002394 0.057267 -0.011913 0.1167069 0.5817968 -0.8049175 255 255 255 255 0.351676 0.190036
-0.003327 0.054965 -0.012135 0.1908624 -0.0380086 -0.9808807 255 255 255 255 0.351676 0.190036
-0.00155 0.055163 -0.011267 -0.05732446 -0.03446407 -0.9977606 255 255 255 255 0.351676 0.190036
0.004731 0.048379 -0.014685 0.4714443 0.4322111 -0.7687222 255 255 255 255 0.351676 0.190036
0.002608 0.049941 -0.014822 0.08640271 0.434758 -0.8963928 255 255 255 255 0.351676 0.190036
-0.001819 0.048065 -0.014738 -0.6747137 0.336392 -0.6569641 255 255 255 255 0.351676 0.190036
-0.008646 0.037749 -0.016687 0.2687201 -0.07974698 -0.9599114 255 255 255 255 0.351676 0.190036
0.013256 0.015284 -0.019701 0.3372058 0.3022392 -0.8915962 255 255 255 255 0.351676 0.190036
-2.8e-05 0.007485 -0.025361 -0.1749378 0.08855863 -0.9805887 255 255 255 255 0.351676 0.190036
-0.005477 0.007401 -0.023724 -0.1006348 0.3659441 -0.9251798 255 255 255 255 0.351676 0.190036
0.007573 0.008129 -0.022764 0.3834327 0.06121151 -0.9215381 255 255 255 255 0.351676 0.190036
-0.023991 0.003863 -0.016096 -0.822677 -0.5437385 -0.1659852 255 255 255 255 0.351676 0.190036
-0.014805 0.004097 -0.025415 -0.6787888 0.09888199 -0.7276457 255 255 255 255 0.351676 0.190036
0.003797 0.002256 -0.029498 0.1932453 -0.6171032 -0.7627844 255 255 255 255 0.351676 0.190036
-0.026534 0.004701 -0.013886 -0.813939 0.06605667 -0.5771827 255 255 255 255 0.351676 0.190036
-0.019752 0.002476 0.00883 -0.3499599 -0.8156234 0.4607456 255 255 255 255 0.351676 0.190036
0.026083 0.001454 0.006839 0.3332611 -0.9387279 0.08790314 255 255 255 255 0.351676 0.190036
-0.018669 0.001528 0.019531 -0.6712648 -0.6648715 0.3276426 255 255 255 255 0.351676 0.190036
-0.010008 0.001598 0.029601 -0.3262893 -0.2144191 0.9206301 255 255 255 255 0.351676 0.190036
0.016479 0.006356 -0.023064 0.3263386 0.6145274 -0.7182334 255 255 255 255 0.351676 0.190036
0.022008 0.004499 0.014022 0.6918164 0.1191478 0.7121754 255 255 255 255 0.351676 0.190036
0.019738 0.000236 0.016611 0.5548941 -0.7178613 0.4204375 255 255 255 255 0.351676 0.190036
0.019763 0.013644 -0.013193 0.751998 -0.6073688 -0.2561294 255 255 255 255 0.351676 0.190036
0.02496 0.014703 0.004678 0.8139486 0.5334986 0.2299279 255 255 255 255 0.351676 0.190036
0.020485 0.008342 0.015516 0.7913139 0.168502 0.5877326 255 255 255 255 0.351676 0.190036
0.025474 0.015944 0.002535 0.9971956 -0.07450864 0.007029767 255 255 255 255 0.351676 0.190036
0.015856 0.034643 0.010995 0.656514 0.4005927 0.6391517 255 255 255 255 0.351676 0.190036
0.017995 0.022744 0.013573 0.6659691 0.1999381 0.7186863 255 255 255 255 0.351676 0.190036
0.010706 0.050121 -0.007599 0.8628846 0.305822 -0.4023719 255 255 255 255 0.351676 0.190036
0.012331 0.051581 -0.00525 0.9167777 0.3301398 -0.2247808 255 255 255 255 0.351676 0.190036
0.010619 0.052064 -0.009799 0.8754795 0.1975631 -0.4410265 255 255 255 255 0.351676 0.190036
0.010864 0.056169 -0.003357 0.9407539 0.3141724 -0.1275853 255 255 255 255 0.351676 0.190036
0.010001 0.056619 -0.008607 0.7241808 0.43337 -0.5364258 255 255 255 255 0.351676 0.190036
0.010305 0.055229 0.002469 0.7866235 0.3118296 0.5329032 255 255 255 255 0.351676 0.190036
-0.025099 0.010729 0.007438 -0.7499422 0.431551 0.5013487 255 255 255 255 0.351676 0.190036
-0.022586 0.009343 -0.008138 -0.975422 0.1505604 -0.1608833 255 255 255 255 0.351676 0.190036
-0.014336 0.014927 0.017682 -0.7408041 0.30586 0.5980459 255 255 255 255 0.351676 0.190036
-0.02377 0.017311 -0.000901 -0.871234 0.1238606 0.4749841 255 255 255 255 0.351676 0.190036
-0.020282 0.021062 0.008561 -0.896497 0.002608496 0.4430424 255 255 255 255 0.351676 0.190036
-0.019015 0.026916 -0.009569 -0.7223922 0.42934 -0.5420486 255 255 255 255 0.351676 0.190036
-0.019728 0.039152 -0.006549 -0.9018396 0.3130351 -0.2978161 255 255 255 255 0.351676 0.190036
-0.009582 0.048489 0.003151 -0.7258387 0.3989897 0.5603262 255 255 255 255 0.351676 0.190036
-0.008065 0.051711 0.002942 -0.916441 0.2733248 0.2922834 255 255 255 255 0.351676 0.190036
3 1 137 253 
3 137 303 253 
3 303 250 253 
3 136 0 306 
3 137 254 302 
3 139 254 137 
3 1 139 137 
3 1 253 2 
3 250 2 253 
3 140 141 250 
3 250 141 2 
3 140 138 141 
3 141 138 255 
3 138 0 255 
3 145 255 0 
3 73 0 138 
3 136 145 0 
3 309 136 306 
3 1 142 139 
3 1 2 256 
3 3 256 2 
3 2 141 3 
3 3 141 143 
3 255 144 141 
3 141 144 143 
3 1 256 142 
3 255 145 144 
3 4 144 145 
3 4 145 136 
3 256 257 142 
3 321 142 257 
3 257 148 321 
3 259 321 148 
3 258 257 256 
3 5 258 256 
3 149 256 3 
3 5 256 149 
3 143 149 3 
3 144 149 143 
3 4 146 144 
3 144 146 149 
3 158 146 147 
3 147 146 4 
3 5 149 150 
3 257 259 148 
3 147 151 158 
3 6 151 147 
3 260 126 259 
3 62 259 126 
3 257 260 259 
3 152 126 260 
3 258 260 257 
3 152 260 7 
3 7 260 258 
3 6 261 151 
3 126 152 153 
3 7 258 263 
3 5 154 258 
3 154 160 258 
3 160 263 258 
3 312 261 6 
3 266 262 155 
3 262 153 155 
3 152 155 153 
3 263 155 7 
3 7 155 152 
3 149 156 150 
3 156 157 150 
3 8 150 157 
3 149 146 156 
3 265 146 9 
3 265 156 146 
3 146 158 9 
3 9 158 264 
3 151 264 158 
3 311 261 312 
3 5 150 154 
3 8 154 150 
3 156 265 157 
3 151 261 264 
3 11 264 261 
3 157 159 8 
3 8 159 154 
3 9 264 265 
3 159 265 267 
3 267 265 264 
3 157 265 159 
3 267 264 11 
3 262 266 161 
3 268 161 266 
3 160 266 263 
3 263 266 155 
3 10 266 160 
3 163 159 267 
3 154 159 162 
3 163 267 12 
3 267 11 12 
3 11 97 269 
3 12 11 269 
3 10 268 266 
3 163 12 270 
3 270 12 165 
3 269 165 12 
3 165 269 168 
3 168 269 318 
3 154 164 160 
3 160 164 10 
3 162 164 154 
3 159 271 162 
3 272 162 271 
3 159 163 271 
3 270 271 163 
3 164 166 10 
3 268 10 273 
3 273 10 166 
3 268 273 161 
3 161 273 66 
3 162 13 164 
3 164 13 166 
3 272 13 162 
3 270 167 271 
3 271 167 272 
3 13 272 167 
3 13 167 274 
3 165 274 270 
3 274 167 270 
3 170 165 168 
3 166 169 273 
3 14 273 169 
3 66 273 14 
3 15 169 166 
3 166 13 15 
3 15 13 274 
3 170 274 165 
3 15 274 176 
3 176 274 16 
3 16 274 170 
3 170 168 173 
3 168 318 173 
3 173 318 102 
3 14 275 66 
3 66 275 171 
3 169 275 14 
3 276 174 169 
3 169 174 275 
3 176 276 15 
3 15 276 169 
3 170 173 172 
3 181 172 173 
3 174 134 275 
3 175 174 276 
3 175 276 176 
3 178 175 176 
3 179 176 16 
3 178 176 179 
3 17 177 134 
3 17 134 277 
3 174 277 134 
3 178 174 175 
3 277 174 178 
3 16 170 179 
3 182 179 172 
3 178 179 182 
3 170 172 179 
3 180 277 178 
3 19 180 182 
3 178 182 180 
3 172 181 182 
3 186 182 181 
3 173 187 181 
3 183 177 17 
3 18 183 17 
3 181 187 186 
3 277 278 17 
3 277 180 278 
3 19 278 180 
3 18 278 19 
3 173 102 187 
3 17 278 18 
3 284 184 19 
3 18 19 184 
3 284 19 279 
3 182 186 185 
3 19 182 185 
3 185 279 19 
3 185 186 20 
3 282 20 187 
3 20 186 187 
3 184 188 18 
3 284 279 189 
3 279 185 280 
3 280 185 21 
3 20 21 185 
3 21 20 281 
3 282 281 20 
3 317 282 100 
3 183 188 135 
3 18 188 183 
3 279 280 190 
3 190 280 191 
3 279 190 189 
3 280 21 191 
3 191 21 22 
3 22 21 192 
3 21 281 192 
3 192 281 23 
3 23 281 283 
3 281 282 283 
3 282 317 283 
3 317 194 283 
3 23 283 194 
3 188 184 195 
3 184 284 195 
3 196 195 284 
3 284 189 196 
3 24 196 189 
3 190 193 189 
3 24 189 193 
3 193 191 22 
3 193 22 285 
3 23 198 192 
3 22 192 285 
3 285 192 198 
3 24 193 197 
3 190 191 193 
3 198 26 197 
3 193 285 197 
3 197 285 198 
3 23 194 198 
3 188 195 72 
3 196 286 195 
3 72 195 200 
3 200 195 286 
3 286 196 287 
3 24 287 196 
3 287 197 26 
3 24 197 287 
3 26 198 288 
3 194 288 198 
3 26 199 287 
3 286 27 200 
3 201 200 27 
3 65 200 201 
3 286 287 27 
3 201 27 202 
3 25 288 194 
3 28 29 202 
3 201 202 29 
3 27 290 202 
3 28 202 290 
3 199 27 287 
3 290 27 204 
3 199 204 27 
3 26 289 199 
3 289 204 199 
3 288 289 26 
3 25 203 288 
3 205 288 203 
3 29 65 201 
3 204 289 205 
3 288 205 289 
3 65 206 129 
3 29 206 65 
3 28 290 208 
3 208 207 31 
3 290 204 208 
3 208 204 207 
3 204 205 207 
3 203 209 205 
3 205 209 207 
3 29 210 206 
3 215 291 28 
3 28 291 29 
3 32 215 28 
3 28 208 32 
3 215 32 211 
3 212 210 29 
3 127 210 212 
3 213 34 212 
3 29 291 212 
3 215 213 291 
3 213 212 291 
3 207 214 31 
3 209 214 207 
3 213 219 34 
3 35 34 219 
3 215 219 213 
3 216 211 32 
3 32 208 216 
3 31 216 208 
3 211 216 217 
3 217 216 214 
3 31 214 216 
3 33 217 214 
3 214 292 33 
3 214 209 292 
3 292 209 91 
3 209 218 91 
3 30 218 209 
3 34 35 36 
3 37 219 215 
3 211 37 215 
3 211 217 37 
3 37 217 219 
3 33 220 217 
3 219 217 220 
3 36 38 221 
3 35 38 36 
3 38 35 222 
3 220 222 219 
3 35 219 222 
3 223 225 109 
3 109 225 224 
3 221 225 223 
3 294 224 225 
3 221 38 225 
3 295 293 33 
3 33 293 220 
3 33 226 295 
3 227 295 226 
3 33 292 226 
3 91 226 292 
3 225 222 294 
3 38 222 225 
3 220 293 222 
3 222 293 294 
3 293 228 294 
3 295 228 293 
3 228 295 230 
3 304 295 227 
3 294 234 224 
3 224 234 297 
3 104 224 297 
3 294 229 234 
3 39 298 229 
3 294 228 229 
3 229 228 39 
3 39 228 230 
3 304 230 295 
3 39 230 232 
3 232 230 235 
3 299 296 40 
3 104 297 296 
3 40 296 297 
3 40 297 234 
3 231 234 229 
3 229 298 231 
3 232 298 39 
3 298 232 233 
3 233 232 235 
3 298 233 231 
3 237 231 233 
3 233 241 237 
3 239 244 40 
3 299 40 244 
3 239 40 234 
3 233 235 236 
3 245 244 239 
3 234 238 239 
3 231 237 234 
3 234 237 238 
3 236 241 233 
3 237 241 238 
3 238 241 239 
3 236 240 241 
3 76 240 236 
3 241 240 245 
3 245 240 242 
3 76 242 240 
3 103 299 243 
3 41 243 299 
3 41 299 244 
3 241 245 239 
3 41 244 245 
3 41 245 44 
3 44 245 246 
3 41 44 243 
3 44 246 247 
3 249 247 246 
3 242 42 245 
3 43 301 242 
3 242 301 42 
3 108 300 248 
3 247 248 300 
3 243 44 300 
3 247 300 44 
3 249 248 247 
3 249 246 47 
3 245 42 246 
3 46 47 42 
3 42 47 246 
3 46 42 306 
3 42 301 306 
3 306 301 43 
3 45 249 251 
3 45 248 249 
3 251 249 302 
3 47 303 249 
3 302 249 303 
3 47 46 252 
3 252 250 47 
3 252 140 250 
3 250 303 47 
3 252 138 140 
3 46 138 252 
3 306 73 46 
3 46 73 138 
3 303 137 302 
3 0 73 306 
3 235 74 236 
3 43 242 75 
3 75 242 48 
3 48 242 76 
3 78 43 75 
3 79 74 304 
3 230 304 235 
3 235 304 74 
3 236 74 76 
3 74 79 76 
3 48 76 79 
3 80 48 77 
3 79 77 48 
3 78 75 80 
3 80 75 48 
3 43 305 306 
3 227 79 304 
3 78 80 85 
3 309 306 305 
3 84 77 79 
3 85 77 84 
3 85 80 77 
3 85 81 78 
3 309 305 81 
3 43 78 305 
3 81 305 78 
3 49 82 226 
3 226 82 227 
3 79 82 307 
3 307 82 83 
3 227 82 79 
3 83 82 49 
3 50 307 83 
3 50 84 307 
3 79 307 84 
3 51 85 84 
3 51 308 85 
3 52 85 308 
3 309 81 52 
3 52 81 85 
3 84 50 86 
3 51 84 86 
3 86 310 51 
3 51 310 308 
3 310 52 308 
3 87 309 52 
3 136 309 4 
3 4 309 87 
3 92 83 49 
3 93 83 92 
3 50 83 88 
3 93 88 83 
3 53 86 50 
3 310 86 53 
3 4 87 147 
3 6 147 87 
3 310 89 52 
3 53 89 310 
3 87 52 89 
3 89 312 87 
3 87 312 6 
3 53 50 88 
3 95 53 88 
3 95 90 53 
3 89 90 312 
3 312 90 311 
3 95 311 90 
3 226 91 49 
3 49 91 92 
3 218 92 91 
3 54 92 218 
3 54 93 92 
3 89 53 90 
3 203 30 209 
3 203 99 30 
3 218 30 54 
3 54 30 99 
3 95 88 94 
3 98 95 96 
3 94 96 95 
3 97 311 98 
3 95 98 311 
3 261 97 11 
3 311 97 261 
3 54 99 93 
3 88 93 94 
3 313 314 93 
3 314 94 93 
3 97 98 101 
3 101 98 96 
3 99 313 93 
3 315 313 99 
3 315 99 25 
3 203 25 99 
3 315 100 313 
3 100 314 313 
3 316 314 100 
3 94 316 96 
3 101 96 55 
3 55 96 316 
3 314 316 94 
3 269 97 101 
3 55 316 102 
3 187 102 316 
3 315 25 317 
3 194 317 25 
3 102 318 55 
3 269 101 318 
3 55 318 101 
3 317 100 315 
3 282 187 100 
3 100 187 316 
3 103 105 299 
3 104 296 105 
3 299 105 296 
3 105 103 56 
3 109 104 105 
3 109 224 104 
3 243 106 103 
3 111 56 106 
3 106 56 103 
3 111 106 319 
3 300 106 243 
3 108 106 300 
3 106 107 319 
3 108 107 106 
3 112 108 45 
3 45 108 248 
3 57 108 112 
3 57 107 108 
3 56 320 105 
3 105 320 109 
3 56 110 320 
3 58 114 320 
3 58 320 110 
3 110 56 111 
3 58 110 111 
3 45 251 112 
3 254 112 302 
3 302 112 251 
3 320 114 109 
3 109 114 223 
3 221 223 114 
3 221 114 113 
3 111 319 115 
3 319 107 117 
3 59 117 107 
3 57 59 107 
3 57 112 118 
3 321 118 254 
3 254 118 112 
3 254 139 321 
3 142 321 139 
3 114 116 113 
3 61 113 116 
3 58 116 114 
3 111 322 58 
3 111 115 322 
3 119 322 115 
3 119 115 117 
3 115 319 117 
3 57 118 59 
3 36 221 61 
3 61 221 113 
3 119 121 322 
3 121 119 323 
3 59 323 117 
3 117 323 119 
3 124 323 59 
3 61 116 60 
3 116 121 60 
3 58 322 116 
3 116 322 121 
3 121 323 120 
3 62 118 321 
3 59 118 124 
3 62 124 118 
3 62 321 259 
3 36 324 34 
3 34 324 127 
3 61 324 36 
3 122 127 324 
3 61 60 324 
3 122 324 60 
3 60 121 122 
3 122 121 120 
3 122 120 123 
3 124 123 323 
3 323 123 120 
3 125 123 63 
3 63 123 124 
3 62 126 124 
3 63 124 126 
3 34 127 212 
3 122 123 125 
3 126 153 63 
3 262 63 153 
3 128 325 122 
3 122 325 127 
3 210 127 325 
3 128 122 125 
3 326 125 63 
3 128 125 326 
3 325 129 210 
3 206 210 129 
3 64 129 325 
3 128 130 325 
3 64 325 130 
3 326 130 128 
3 63 262 326 
3 327 326 262 
3 129 131 65 
3 64 131 129 
3 67 130 68 
3 68 130 69 
3 64 130 67 
3 64 67 131 
3 130 326 69 
3 69 326 327 
3 161 327 262 
3 66 171 161 
3 161 171 327 
3 67 132 131 
3 131 132 200 
3 72 200 132 
3 131 200 65 
3 68 133 67 
3 69 70 68 
3 68 70 133 
3 71 70 69 
3 133 132 67 
3 70 132 133 
3 134 71 69 
3 134 69 327 
3 327 171 134 
3 132 135 72 
3 70 135 132 
3 72 135 188 
3 183 135 70 
3 71 177 70 
3 183 70 177 
3 177 71 134 
3 134 171 275 
