ply
format ascii 1.0
comment VCGLIB generated
comment TextureFile Textures//Combined_Texture//Texture_01_A.png
element vertex 144
property float x
property float y
property float z
property float nx
property float ny
property float nz
property uchar red
property uchar green
property uchar blue
property uchar alpha
property float texture_u
property float texture_v
element face 200
property list uchar int vertex_indices
end_header
-0.016603 -0.000523 0.01074 0.02217424 0.7222772 0.6912482 255 255 255 255 0.470560 0.227824
-0.016925 0.000832 0.009212 0.2580018 0.7649002 0.5902227 255 255 255 255 0.470560 0.227824
-0.017713 0.000833 0.006404 -0.09330507 0.6693717 -0.7370453 255 255 255 255 0.470560 0.227824
-0.016146 0.000832 0.006886 0.2588561 0.8708311 -0.4179077 255 255 255 255 0.470560 0.227824
-0.018253 0.000833 0.008928 -0.2858295 0.82398 0.4892427 255 255 255 255 0.470560 0.227824
-0.019212 0.000208 0.007139 -0.7663854 0.5971404 -0.2368053 255 255 255 255 0.470560 0.227824
-0.018618 0.001042 0.007361 -0.3511709 0.9349901 -0.0497249 255 255 255 255 0.470560 0.227824
-0.017529 -0.000523 0.00549 -0.05723218 0.5526589 -0.8314401 255 255 255 255 0.470560 0.227824
-0.015108 -0.000523 0.006274 0.5819006 0.6374379 -0.5050394 255 255 255 255 0.470560 0.227824
-0.015471 0.000676 0.008535 0.7156524 0.6870473 0.1257289 255 255 255 255 0.470560 0.227824
-0.01972 -0.000523 0.00948 -0.6201185 0.6829772 0.385999 255 255 255 255 0.470560 0.227824
-0.014591 -0.000523 0.008989 0.6327987 0.6850985 0.3608404 255 255 255 255 0.470560 0.227824
-0.016096 0.001196 0.008162 0.2454104 0.9693038 -0.01495977 255 255 255 255 0.470560 0.227824
-0.019597 -0.000523 0.006583 -0.633697 0.5636932 -0.5297906 255 255 255 255 0.470560 0.227824
-0.020252 -0.000523 0.006066 -0.40093 0.7223538 0.5634359 255 255 255 255 0.470560 0.227824
-0.019754 0.000485 0.005016 -0.1518477 0.7650858 0.6257684 255 255 255 255 0.470560 0.227824
-0.018955 0.000486 0.002999 0.3719829 0.6694875 -0.6429738 255 255 255 255 0.470560 0.227824
-0.018245 0.000485 0.00399 0.4589313 0.8710153 -0.1752555 255 255 255 255 0.470560 0.227824
-0.020412 0.000486 0.00425 -0.5236014 0.8241041 0.2160882 255 255 255 255 0.470560 0.227824
-0.020174 2.1e-05 0.002759 -0.466545 0.5973037 -0.6523528 255 255 255 255 0.470560 0.227824
-0.019922 0.000641 0.003158 -0.2493574 0.9350505 -0.251995 255 255 255 255 0.470560 0.227824
-0.018434 -0.000523 0.002541 0.4580036 0.5525728 -0.6963447 255 255 255 255 0.470560 0.227824
-0.017355 -0.000523 0.004095 0.7689427 0.6374042 -0.0494274 255 255 255 255 0.470560 0.227824
-0.018588 0.000369 0.00527 0.493434 0.6872393 0.5331277 255 255 255 255 0.470560 0.227824
-0.021529 -0.000523 0.003916 -0.7272819 0.6829206 -0.06841379 255 255 255 255 0.470560 0.227824
-0.018272 -0.000523 0.005936 0.285106 0.6852502 0.6701842 255 255 255 255 0.470560 0.227824
-0.01879 0.000755 0.004768 0.2044458 0.9692976 0.1366167 255 255 255 255 0.470560 0.227824
-0.020151 -0.000523 0.002256 -0.183444 0.5636213 -0.8054063 255 255 255 255 0.470560 0.227824
-0.014489 -0.000523 -0.019386 -0.6189215 0.7225851 -0.3079074 255 255 255 255 0.470560 0.227824
-0.013286 0.000564 -0.019032 -0.641861 0.7650247 -0.05245598 255 255 255 255 0.470560 0.227824
-0.011003 0.000565 -0.018521 0.6930614 0.6695578 0.2671298 255 255 255 255 0.470560 0.227824
-0.011939 0.000564 -0.017598 0.2452127 0.8708349 0.4260485 255 255 255 255 0.470560 0.227824
-0.012581 0.000565 -0.019862 -0.2953724 0.824053 -0.4834168 255 255 255 255 0.470560 0.227824
-0.010952 6.4e-05 -0.01986 0.5715594 0.5973849 -0.56254 255 255 255 255 0.470560 0.227824
-0.011335 0.000733 -0.019524 0.2099317 0.9350764 -0.2855888 255 255 255 255 0.470560 0.227824
-0.010427 -0.000523 -0.018043 0.7591044 0.5528624 0.3436624 255 255 255 255 0.470560 0.227824
-0.011901 -0.000523 -0.016631 0.1689368 0.637654 0.7515702 255 255 255 255 0.470560 0.227824
-0.013361 0.000439 -0.017747 -0.4497178 0.6872022 0.5705323 255 255 255 255 0.470560 0.227824
-0.012413 -0.000523 -0.021109 -0.04602391 0.6830921 -0.7288806 255 255 255 255 0.470560 0.227824
-0.014017 -0.000523 -0.017298 -0.6174119 0.685371 0.3860949 255 255 255 255 0.470560 0.227824
-0.01286 0.000856 -0.018047 -0.1030485 0.9692894 0.2232915 255 255 255 255 0.470560 0.227824
-0.010412 -0.000523 -0.01992 0.766811 0.5637913 -0.3068229 255 255 255 255 0.470560 0.227824
-0.006682 -0.000523 -0.011985 -0.6658868 0.5451676 0.5093006 255 255 255 255 0.470560 0.227824
-0.004746 0.000221 -0.01442 0.4884684 0.7965314 -0.3562813 255 255 255 255 0.470560 0.227824
-0.004623 0.000298 -0.0131 0.4493812 0.5827837 0.677067 255 255 255 255 0.470560 0.227824
-0.006681 0.000387 -0.013848 -0.491086 0.8540437 -0.1715924 255 255 255 255 0.470560 0.227824
-0.005891 -0.000523 -0.015415 -0.2653698 0.6590466 -0.7037304 255 255 255 255 0.470560 0.227824
-0.004256 -0.000523 -0.015238 0.5152153 0.764744 -0.3869364 255 255 255 255 0.470560 0.227824
-0.003864 -0.000523 -0.012716 0.4493822 0.5827802 0.6770694 255 255 255 255 0.470560 0.227824
-0.005187 -0.000523 -0.012019 0.4493802 0.5827795 0.6770712 255 255 255 255 0.470560 0.227824
-0.007198 -0.000523 -0.013977 -0.8409094 0.5052376 -0.1939241 255 255 255 255 0.470560 0.227824
-0.006239 0.000554 -0.012576 -0.3187374 0.7187138 0.6179459 255 255 255 255 0.470560 0.227824
-0.005739 0.000348 -0.014675 -0.01549149 0.9450155 -0.3266586 255 255 255 255 0.470560 0.227824
-0.00544 0.000554 -0.012597 0.449381 0.5827806 0.6770698 255 255 255 255 0.470560 0.227824
-0.006595 -0.000523 -0.016563 -0.6856056 0.72232 -0.09054815 255 255 255 255 0.470560 0.227824
-0.004795 0.00104 -0.016643 -0.6241444 0.765047 0.1585776 255 255 255 255 0.470560 0.227824
-0.001451 0.001041 -0.017014 0.7419733 0.6698515 0.02783059 255 255 255 255 0.470560 0.227824
-0.002295 0.00104 -0.015321 0.3699287 0.8709654 0.3233763 255 255 255 255 0.470560 0.227824
-0.004223 0.001041 -0.018102 -0.4363048 0.824003 -0.3614652 255 255 255 255 0.470560 0.227824
-0.002007 0.00032 -0.018857 0.3578649 0.5975478 -0.7175441 255 255 255 255 0.470560 0.227824
-0.002372 0.001282 -0.018223 0.1061407 0.9350032 -0.3383833 255 255 255 255 0.470560 0.227824
-0.000445 -0.000523 -0.016632 0.8295509 0.5528395 0.07882899 255 255 255 255 0.470560 0.227824
-0.001792 -0.000523 -0.014025 0.4036808 0.6375177 0.6562111 255 255 255 255 0.470560 0.227824
-0.004297 0.00086 -0.014861 -0.2400582 0.687216 0.6856429 255 255 255 255 0.470560 0.227824
-0.004576 -0.000523 -0.019875 -0.2799557 0.6830825 -0.674554 255 255 255 255 0.470560 0.227824
-0.00498 -0.000523 -0.013945 -0.4587836 0.685185 0.5657201 255 255 255 255 0.470560 0.227824
-0.003756 0.001459 -0.015503 -0.02503079 0.969324 0.2445087 255 255 255 255 0.470560 0.227824
-0.001301 -0.000523 -0.019192 0.6254278 0.5642183 -0.5389785 255 255 255 255 0.470560 0.227824
0.013688 -0.000523 -0.005185 -0.07941829 0.7223507 0.6869514 255 255 255 255 0.470560 0.227824
0.013593 0.000832 -0.006744 0.1687875 0.764908 0.6216321 255 255 255 255 0.470560 0.227824
0.013225 0.000833 -0.009638 0.01564757 0.6696029 -0.7425544 255 255 255 255 0.470560 0.227824
0.014704 0.000832 -0.008931 0.3172868 0.8709131 -0.3752858 255 255 255 255 0.470560 0.227824
0.012321 0.000833 -0.00722 -0.3545229 0.8239459 0.442071 255 255 255 255 0.470560 0.227824
0.011635 0.000208 -0.00913 -0.7233218 0.5974066 -0.3462817 255 255 255 255 0.470560 0.227824
0.01219 0.001042 -0.008823 -0.3400925 0.9349869 -0.1006814 255 255 255 255 0.470560 0.227824
0.013541 -0.000523 -0.010515 0.06519789 0.5525841 -0.8309032 255 255 255 255 0.470560 0.227824
0.015821 -0.000523 -0.009385 0.6496177 0.6374654 -0.4142884 255 255 255 255 0.470560 0.227824
0.015131 0.000676 -0.007201 0.6896166 0.686896 0.2293532 255 255 255 255 0.470560 0.227824
0.010789 -0.000523 -0.006889 -0.6699424 0.683055 0.2908832 255 255 255 255 0.470560 0.227824
0.015934 -0.000523 -0.006623 0.5732934 0.684914 0.4496972 255 255 255 255 0.470560 0.227824
0.014567 0.001196 -0.007661 0.2449435 0.9693087 0.02105743 255 255 255 255 0.470560 0.227824
0.011335 -0.000523 -0.009737 -0.5492045 0.5639792 -0.6166862 255 255 255 255 0.470560 0.227824
0.018219 -0.000523 -0.002167 -0.7226284 0.5189645 0.4566005 255 255 255 255 0.470560 0.227824
0.020345 0.000472 -0.004416 0.5507684 0.7691274 -0.3241871 255 255 255 255 0.470560 0.227824
0.020354 0.000288 -0.003097 0.3192428 0.6335799 0.7047414 255 255 255 255 0.470560 0.227824
0.018378 0.00055 -0.004014 -0.5021109 0.85136 -0.1518909 255 255 255 255 0.470560 0.227824
0.019295 -0.000523 -0.0055 -0.22091 0.5798768 -0.7841821 255 255 255 255 0.470560 0.227824
0.020901 -0.000523 -0.005185 0.6357172 0.6620316 -0.3969609 255 255 255 255 0.470560 0.227824
0.021074 -0.000523 -0.002651 0.3192444 0.6335772 0.7047431 255 255 255 255 0.470560 0.227824
0.019703 -0.000523 -0.002073 0.3192423 0.6335766 0.7047447 255 255 255 255 0.470560 0.227824
0.017876 -0.000523 -0.004186 -0.8530502 0.4432433 -0.2753921 255 255 255 255 0.470560 0.227824
0.018707 0.000549 -0.002715 -0.2511738 0.7642792 0.5939603 255 255 255 255 0.470560 0.227824
0.019383 0.000511 -0.004754 -0.02556746 0.9505439 -0.3095361 255 255 255 255 0.470560 0.227824
0.019502 0.000288 -0.002668 0.3192429 0.6335775 0.7047436 255 255 255 255 0.470560 0.227824
0.013943 -0.000523 0.018553 0.7804695 0.5643427 0.2690439 255 255 255 255 0.470560 0.227824
0.011001 0.000256 0.01831 -0.6146535 0.7547504 -0.2292443 255 255 255 255 0.470560 0.227824
0.011978 0.00033 0.017517 0.3365964 0.5650679 -0.7532603 255 255 255 255 0.470560 0.227824
0.012474 0.000386 0.019534 0.1850186 0.8386184 0.5123352 255 255 255 255 0.470560 0.227824
0.010821 -0.000523 0.019738 -0.4607064 0.6154356 0.6395222 255 255 255 255 0.470560 0.227824
0.010098 -0.000523 0.018355 -0.6428028 0.7320982 -0.2254703 255 255 255 255 0.470560 0.227824
0.011881 -0.000523 0.016716 0.3365974 0.5650648 -0.7532622 255 255 255 255 0.470560 0.227824
0.013128 -0.000523 0.017391 0.3365998 0.5650643 -0.7532616 255 255 255 255 0.470560 0.227824
0.012644 -0.000523 0.020011 0.310019 0.4865854 0.8167759 255 255 255 255 0.470560 0.227824
0.013244 0.000385 0.018516 0.6942801 0.713935 -0.09095092 255 255 255 255 0.470560 0.227824
0.011324 0.000463 0.019228 -0.2666977 0.938023 0.2213258 255 255 255 255 0.470560 0.227824
0.012806 0.000499 0.017896 0.3365987 0.5650652 -0.7532614 255 255 255 255 0.470560 0.227824
0.005159 -0.000523 0.016105 -0.6551328 0.5534343 0.514307 255 255 255 255 0.470560 0.227824
0.008027 0.00085 0.01235 0.5347928 0.7409546 -0.406181 255 255 255 255 0.470560 0.227824
0.008253 0.000968 0.014352 0.4025298 0.5721592 0.7145654 255 255 255 255 0.470560 0.227824
0.005106 0.001115 0.013276 -0.5370167 0.8388921 -0.08873124 255 255 255 255 0.470560 0.227824
0.00626 -0.000523 0.010873 -0.2990583 0.5909191 -0.7492523 255 255 255 255 0.470560 0.227824
0.008748 -0.000523 0.011094 0.5635332 0.6988655 -0.4404739 255 255 255 255 0.470560 0.227824
0.009417 -0.000523 0.014912 0.4025329 0.5721515 0.7145698 255 255 255 255 0.470560 0.227824
0.007429 -0.000523 0.01601 0.402528 0.5721502 0.7145736 255 255 255 255 0.470560 0.227824
0.004316 -0.000523 0.013095 -0.8771042 0.4434192 -0.1845742 255 255 255 255 0.470560 0.227824
0.005814 0.000873 0.015195 -0.2249652 0.7396448 0.634284 255 255 255 255 0.470560 0.227824
0.006512 0.001055 0.011992 -0.0353663 0.9257461 -0.3764881 255 255 255 255 0.470560 0.227824
0.007028 0.000873 0.01514 0.4025288 0.5721521 0.7145717 255 255 255 255 0.470560 0.227824
0.003568 -0.000523 0.018847 -0.5336016 0.722362 0.4398437 255 255 255 255 0.470560 0.227824
0.004381 0.000564 0.017893 -0.3091815 0.7651431 0.564768 255 255 255 255 0.470560 0.227824
0.005779 0.000565 0.016015 0.5263295 0.6696644 -0.5239532 255 255 255 255 0.470560 0.227824
0.00624 0.000564 0.017247 0.4890172 0.8708242 -0.05027432 255 255 255 255 0.470560 0.227824
0.00391 0.000565 0.01691 -0.5618878 0.824017 0.07265129 255 255 255 255 0.470560 0.227824
0.004577 6.4e-05 0.015424 -0.2810243 0.5973157 -0.7511587 255 255 255 255 0.470560 0.227824
0.004727 0.000733 0.01591 -0.1752059 0.9350154 -0.3083005 255 255 255 255 0.470560 0.227824
0.00645 -0.000523 0.015684 0.6232263 0.5526871 -0.5532866 255 255 255 255 0.470560 0.227824
0.007138 -0.000523 0.017606 0.755355 0.6374335 0.1520438 255 255 255 255 0.470560 0.227824
0.005525 0.000439 0.018484 0.3378791 0.6871651 0.64315 255 255 255 255 0.470560 0.227824
0.002841 -0.000523 0.016249 -0.6845415 0.6828367 -0.2552198 255 255 255 255 0.470560 0.227824
0.005667 -0.000523 0.019266 0.1012193 0.6851569 0.7213284 255 255 255 255 0.470560 0.227824
0.005455 0.000856 0.017904 0.1617773 0.9693279 0.185018 255 255 255 255 0.470560 0.227824
0.004741 -0.000523 0.014906 0.03191682 0.5639378 -0.8252003 255 255 255 255 0.470560 0.227824
0.002483 -0.000523 0.01259 -0.6635491 0.5562034 0.5003403 255 255 255 255 0.470560 0.227824
0.0049 0.000526 0.009548 0.5267215 0.7510062 -0.3981888 255 255 255 255 0.470560 0.227824
0.005054 0.000823 0.011198 0.3737154 0.5520977 0.7453355 255 255 255 255 0.470560 0.227824
0.002483 0.000824 0.010264 -0.5214052 0.8457679 -0.1131957 255 255 255 255 0.470560 0.227824
0.003471 -0.000523 0.008306 -0.2794963 0.6229584 -0.7306193 255 255 255 255 0.470560 0.227824
0.005513 -0.000523 0.008527 0.55104 0.724695 -0.4137296 255 255 255 255 0.470560 0.227824
0.006002 -0.000523 0.011677 0.3737171 0.552092 0.7453389 255 255 255 255 0.470560 0.227824
0.00435 -0.000523 0.012548 0.3737137 0.5520911 0.7453412 255 255 255 255 0.470560 0.227824
0.001837 -0.000523 0.010102 -0.8735165 0.4431532 -0.2014552 255 255 255 255 0.470560 0.227824
0.003035 0.000608 0.011852 -0.2323134 0.7427702 0.6279514 255 255 255 255 0.470560 0.227824
0.00366 0.000575 0.00923 -0.01140386 0.9089296 -0.4167936 255 255 255 255 0.470560 0.227824
0.004034 0.000608 0.011826 0.3737141 0.5520923 0.7453402 255 255 255 255 0.470560 0.227824
3 1 4 0 
3 10 0 4 
3 4 6 10 
3 10 6 5 
3 6 3 2 
3 5 6 2 
3 3 8 2 
3 7 2 8 
3 11 8 9 
3 9 1 11 
3 11 1 0 
3 9 12 1 
3 9 8 12 
3 12 8 3 
3 12 3 6 
3 1 12 4 
3 4 12 6 
3 13 10 5 
3 7 13 2 
3 2 13 5 
3 15 18 14 
3 24 14 18 
3 18 20 24 
3 24 20 19 
3 20 17 16 
3 19 20 16 
3 17 22 16 
3 21 16 22 
3 25 22 23 
3 23 15 25 
3 25 15 14 
3 23 26 15 
3 23 22 26 
3 26 22 17 
3 26 17 20 
3 15 26 18 
3 18 26 20 
3 27 24 19 
3 21 27 16 
3 16 27 19 
3 29 32 28 
3 38 28 32 
3 32 34 38 
3 38 34 33 
3 34 31 30 
3 33 34 30 
3 31 36 30 
3 35 30 36 
3 39 36 37 
3 37 29 39 
3 39 29 28 
3 37 40 29 
3 37 36 40 
3 40 36 31 
3 40 31 34 
3 29 40 32 
3 32 40 34 
3 41 38 33 
3 35 41 30 
3 30 41 33 
3 51 45 42 
3 50 42 45 
3 50 45 46 
3 52 44 43 
3 46 52 43 
3 44 48 43 
3 47 43 48 
3 49 51 42 
3 51 49 53 
3 51 53 45 
3 47 46 43 
3 46 45 52 
3 45 44 52 
3 53 49 48 
3 53 48 44 
3 45 53 44 
3 55 58 54 
3 64 54 58 
3 58 60 64 
3 64 60 59 
3 60 57 56 
3 59 60 56 
3 57 62 56 
3 61 56 62 
3 65 62 63 
3 63 55 65 
3 65 55 54 
3 63 66 55 
3 63 62 66 
3 66 62 57 
3 66 57 60 
3 55 66 58 
3 58 66 60 
3 67 64 59 
3 61 67 56 
3 56 67 59 
3 69 72 68 
3 78 68 72 
3 72 74 78 
3 78 74 73 
3 74 71 70 
3 73 74 70 
3 71 76 70 
3 75 70 76 
3 79 76 77 
3 77 69 79 
3 79 69 68 
3 77 80 69 
3 77 76 80 
3 80 76 71 
3 80 71 74 
3 69 80 72 
3 72 80 74 
3 81 78 73 
3 75 81 70 
3 70 81 73 
3 91 85 82 
3 90 82 85 
3 90 85 86 
3 92 84 83 
3 86 92 83 
3 84 88 83 
3 87 83 88 
3 89 91 82 
3 91 89 93 
3 91 93 85 
3 87 86 83 
3 86 85 92 
3 85 84 92 
3 93 89 88 
3 93 88 84 
3 85 93 84 
3 103 97 94 
3 102 94 97 
3 102 97 98 
3 104 96 95 
3 98 104 95 
3 96 100 95 
3 99 95 100 
3 101 103 94 
3 103 101 105 
3 103 105 97 
3 99 98 95 
3 98 97 104 
3 97 96 104 
3 105 101 100 
3 105 100 96 
3 97 105 96 
3 115 109 106 
3 114 106 109 
3 114 109 110 
3 116 108 107 
3 110 116 107 
3 108 112 107 
3 111 107 112 
3 113 115 106 
3 115 113 117 
3 115 117 109 
3 111 110 107 
3 110 109 116 
3 109 108 116 
3 117 113 112 
3 117 112 108 
3 109 117 108 
3 119 122 118 
3 128 118 122 
3 122 124 128 
3 128 124 123 
3 124 121 120 
3 123 124 120 
3 121 126 120 
3 125 120 126 
3 129 126 127 
3 127 119 129 
3 129 119 118 
3 127 130 119 
3 127 126 130 
3 130 126 121 
3 130 121 124 
3 119 130 122 
3 122 130 124 
3 131 128 123 
3 125 131 120 
3 120 131 123 
3 141 135 132 
3 140 132 135 
3 140 135 136 
3 142 134 133 
3 136 142 133 
3 134 138 133 
3 137 133 138 
3 139 141 132 
3 141 139 143 
3 141 143 135 
3 137 136 133 
3 136 135 142 
3 135 134 142 
3 143 139 138 
3 143 138 134 
3 135 143 134 
