ply
format ascii 1.0
comment VCGLIB generated
comment TextureFile Textures//Combined_Texture//Texture_01_A.png
element vertex 311
property float x
property float y
property float z
property float nx
property float ny
property float nz
property uchar red
property uchar green
property uchar blue
property uchar alpha
property float texture_u
property float texture_v
element face 400
property list uchar int vertex_indices
end_header
-0.000209 0.008898 0.000621 -0.4227313 -0.02685932 0.905857 255 255 255 255 0.436934 0.212909
0.00064 0.025795 -0.002483 0.2150778 0.212058 0.9532958 255 255 255 255 0.436934 0.212909
-0.000297 0.025384 -0.002708 -0.216083 -0.2677956 -0.9389322 255 255 255 255 0.458868 0.255713
0.000695 0.025674 -0.002896 0.002689405 -0.2501032 -0.9682155 255 255 255 255 0.458868 0.255713
0.00069 0.033271 -0.004688 0.011018 -0.2057436 -0.9785439 255 255 255 255 0.458868 0.255713
-0.002109 0.035804 -0.004996 -0.3913324 -0.1323622 -0.9106806 255 255 255 255 0.458868 0.231928
-6.6e-05 0.037596 -0.005563 0.1462348 0.4353215 0.888319 255 255 255 255 0.458868 0.231928
-2e-05 0.035745 -0.005263 -0.154011 -0.2203131 -0.9631941 255 255 255 255 0.458868 0.231928
0.000381 0.01955 -0.000792 0.4475204 0.1886719 0.8741444 255 255 255 255 0.436934 0.212909
-0.000101 0.016032 -0.000485 -0.5524055 -0.1217575 -0.8246353 255 255 255 255 0.436934 0.212909
0.000326 0.012385 0.000234 0.4197246 0.1074745 0.9012661 255 255 255 255 0.436934 0.212909
0.002308 0.033532 -0.004679 0.8532977 0.5115628 -0.1009284 255 255 255 255 0.458868 0.231928
-0.002286 0.03003 -0.003445 -0.8486682 0.4978893 -0.1785175 255 255 255 255 0.458868 0.231928
0.009962 0.017206 0.006869 -0.81896 0.1423218 0.5559219 255 255 255 255 0.436934 0.212909
0.010389 0.016766 0.006527 0.7777094 -0.1346961 -0.6140237 255 255 255 255 0.436934 0.212909
0.013371 0.017466 0.012041 -0.8755093 0.1132223 0.4697491 255 255 255 255 0.458868 0.231928
0.01373 0.019761 0.01055 0.8799801 0.05290638 -0.472055 255 255 255 255 0.458868 0.231928
0.01511 0.018556 0.015026 0.8038224 -0.07979043 0.5894939 255 255 255 255 0.458868 0.231928
0.013418 0.015766 0.012156 -0.6355437 -0.5364895 0.5552147 255 255 255 255 0.458868 0.231928
0.000518 0.008328 0.000517 -0.090041 0.1322433 0.9871192 255 255 255 255 0.436934 0.212909
0.007837 0.022829 -0.001651 0.1685332 -0.02207682 0.9854487 255 255 255 255 0.436934 0.212909
0.007181 0.023046 -0.001989 -0.3098427 0.08622804 -0.9468697 255 255 255 255 0.436934 0.212909
0.003696 0.018386 -0.000604 -0.7764271 0.4903949 0.3958203 255 255 255 255 0.436934 0.212909
0.000933 0.008275 0.00029 0.3814099 -0.2837727 -0.8797725 255 255 255 255 0.436934 0.212909
0.011038 0.025722 -0.002368 0.03697962 0.1971878 0.9796681 255 255 255 255 0.458868 0.255713
0.00418 0.024449 0.002906 -0.2945947 -0.1295458 0.9468009 255 255 255 255 0.458868 0.255713
0.004722 0.023722 0.002782 0.2225655 -0.3814042 0.8972154 255 255 255 255 0.436934 0.212909
0.004361 0.024513 0.0025 -0.04111663 0.2174197 -0.9752119 255 255 255 255 0.458868 0.255713
0.000313 0.008881 0.000403 -0.3962672 0.1493236 -0.905911 255 255 255 255 0.436934 0.212909
0.007507 0.033816 0.004645 -0.06630741 0.3768738 -0.9238883 255 255 255 255 0.458868 0.231928
0.010855 0.034587 0.005688 0.8381985 0.4346186 -0.3294387 255 255 255 255 0.458868 0.231928
0.008013 0.031463 0.004259 0.1164011 0.2193556 -0.9686764 255 255 255 255 0.458868 0.231928
-0.008843 0.017516 -0.002402 0.6293569 0.09813713 -0.770895 255 255 255 255 0.436934 0.212909
-0.00896 0.017922 -0.00178 -0.5847405 -0.007701281 0.8111839 255 255 255 255 0.436934 0.212909
-0.016107 0.017833 -0.007685 -0.05774127 -0.5997615 -0.7980928 255 255 255 255 0.458868 0.231928
-0.014147 0.018436 -0.00574 -0.6348317 -0.1582447 0.756272 255 255 255 255 0.458868 0.231928
-0.003162 0.011023 0.000551 -0.5968373 -0.3110776 0.7396052 255 255 255 255 0.436934 0.212909
-0.001175 0.00811 0.000581 0.8999178 0.4344114 0.0378769 255 255 255 255 0.436934 0.212909
-0.005287 0.021532 0.002175 0.6845219 0.5264809 -0.5042298 255 255 255 255 0.436934 0.212909
-0.006343 0.021413 0.002282 -0.3488468 -0.0689061 -0.9346432 255 255 255 255 0.436934 0.212909
-0.005663 0.021719 0.002564 0.4665529 0.1014728 0.8786533 255 255 255 255 0.436934 0.212909
-0.015124 0.026659 0.005547 -0.9486567 0.1052128 0.2982965 255 255 255 255 0.458868 0.231928
-0.013622 0.025188 0.004873 -0.3605141 -0.008901279 -0.9327114 255 255 255 255 0.458868 0.231928
-0.013499 0.025214 0.005255 0.2834832 0.01488854 0.9588616 255 255 255 255 0.458868 0.231928
-0.003169 0.017479 0.001428 0.08073159 -0.1440764 0.9862679 255 255 255 255 0.436934 0.212909
-0.00291 0.017744 0.001284 0.8916932 0.4339231 -0.1288178 255 255 255 255 0.436934 0.212909
-0.000762 0.008393 0.000331 0.01185184 0.05471927 -0.9984314 255 255 255 255 0.436934 0.212909
-0.000183 0.008829 0.000575 0.5902011 -0.03289386 -0.8065858 255 255 255 255 0.436934 0.212909
-0.003384 0.023546 -0.0007 0.3569587 0.02706261 -0.9337281 255 255 255 255 0.458868 0.255713
-0.003571 0.023546 -0.00029 -0.04585638 0.06691117 0.9967046 255 255 255 255 0.436934 0.212909
-0.006757 0.032703 -0.001685 0.699574 0.3922124 -0.5972986 255 255 255 255 0.458868 0.231928
-0.008079 0.032086 -0.002408 0.3771772 0.03280602 -0.9255599 255 255 255 255 0.458868 0.255713
-0.006909 0.029928 -0.001401 -0.3336627 0.03144914 0.9421678 255 255 255 255 0.458868 0.231928
-0.000578 0.011772 0.000494 0.4821434 0.1402663 0.8647908 255 255 255 255 0.436934 0.212909
-0.000899 0.00069 0.001769 -0.7421358 -0.4987426 0.4477615 255 255 255 255 0.497530 0.181198
-0.000564 0.004643 0.001209 -0.8652827 0.03827723 0.4998207 255 255 255 255 0.497530 0.181198
-0.000552 0.005453 6.2e-05 -0.6923408 0.006714001 -0.7215395 255 255 255 255 0.497530 0.181198
0.000868 0.00069 -0.001136 0.742222 -0.4991812 -0.4471295 255 255 255 255 0.497530 0.181198
-0.001239 0.008454 0.001155 -0.1525013 0.1211808 0.9808459 255 255 255 255 0.495766 0.205941
-0.00098 0.009328 0.000587 -0.1883406 0.8558879 0.4816469 255 255 255 255 0.495766 0.205941
-0.000586 0.03359 -0.004244 -0.01090779 0.2748937 0.9614128 255 255 255 255 0.458868 0.255713
-0.000594 0.029846 -0.003759 -0.2372121 -0.2323778 -0.9432555 255 255 255 255 0.458868 0.231928
-0.002358 0.027206 -0.002736 -0.9733421 -0.2216507 -0.05895948 255 255 255 255 0.458868 0.231928
0.002707 0.028 -0.0035 0.9478238 -0.2489328 0.199155 255 255 255 255 0.458868 0.231928
-0.000215 0.012359 0.000291 -0.5440212 0.1131603 0.8314058 255 255 255 255 0.436934 0.212909
0.000394 0.015652 -0.000512 0.4877709 -0.1181069 -0.8649452 255 255 255 255 0.436934 0.212909
-0.000187 0.012331 -7e-06 -0.3719783 -0.1330799 -0.9186522 255 255 255 255 0.436934 0.212909
0.000362 0.00891 0.000458 0.4337564 -0.1865991 -0.8814965 255 255 255 255 0.436934 0.212909
-0.00063 0.029932 -0.003348 -0.02700678 0.2371626 0.9710945 255 255 255 255 0.458868 0.255713
0.000903 0.034068 -0.004425 0.7734114 0.3880794 0.5012278 255 255 255 255 0.458868 0.231928
0.007991 0.016509 0.004743 -0.6925571 0.6598964 0.2913786 255 255 255 255 0.436934 0.212909
0.008342 0.01602 0.004627 0.5979757 -0.7595297 -0.2560073 255 255 255 255 0.436934 0.212909
0.001203 0.008394 0.0002 0.01700615 -0.4555323 0.8900568 255 255 255 255 0.436934 0.212909
0.006468 0.014747 0.003226 0.7449864 -0.4546155 -0.4881804 255 255 255 255 0.436934 0.212909
0.009726 0.016535 0.006075 -0.4118095 -0.8440627 0.3434692 255 255 255 255 0.436934 0.212909
0.006082 0.015161 0.003295 -0.6396837 0.7598912 -0.1156303 255 255 255 255 0.436934 0.212909
0.009863 0.017724 0.005983 0.08636253 0.7520766 -0.6533929 255 255 255 255 0.436934 0.212909
0.012131 0.01761 0.009876 -0.8469239 0.1398747 0.5129863 255 255 255 255 0.458868 0.255713
0.01267 0.017499 0.009657 0.8222306 -0.1692262 -0.5434147 255 255 255 255 0.458868 0.231928
0.013957 0.01779 0.011832 0.8912486 -0.2208351 -0.3961158 255 255 255 255 0.458868 0.231928
0.011129 0.015288 0.008153 0.287731 -0.947582 -0.1389215 255 255 255 255 0.458868 0.231928
0.011818 0.019712 0.00806 -0.481546 0.8761274 -0.02267734 255 255 255 255 0.458868 0.255713
0.001116 0.008693 0.000111 -0.05702003 0.3872153 -0.9202245 255 255 255 255 0.436934 0.212909
0.004782 0.012722 0.002103 0.7652749 -0.6435695 -0.01314368 255 255 255 255 0.436934 0.212909
0.013832 0.016934 0.012377 0.8990743 -0.3600719 -0.2490256 255 255 255 255 0.458868 0.231928
0.007874 0.022428 -0.002154 -0.2457869 0.003838416 -0.9693163 255 255 255 255 0.436934 0.212909
0.005532 0.020472 -0.00152 -0.3784542 0.003965801 -0.9256116 255 255 255 255 0.436934 0.212909
0.003982 0.018163 -0.001006 -0.1198967 -0.09742118 -0.9879949 255 255 255 255 0.436934 0.212909
0.007256 0.021789 -0.001857 0.356554 -0.6030063 0.7136194 255 255 255 255 0.436934 0.212909
0.014299 0.027148 -0.002685 0.1268022 -0.004009776 0.9919199 255 255 255 255 0.458868 0.255713
0.011031 0.025721 -0.00281 -0.2249265 0.1102346 -0.9681201 255 255 255 255 0.458868 0.255713
0.01451 0.026763 -0.003197 -0.07864227 -0.02262338 -0.9966462 255 255 255 255 0.458868 0.231928
0.007951 0.025783 -0.001889 -0.6467386 0.5538949 -0.5243374 255 255 255 255 0.458868 0.231928
0.010717 0.027244 -0.002443 0.1538725 0.2164309 0.9640959 255 255 255 255 0.458868 0.231928
0.018129 0.029062 -0.003064 0.2067287 0.3543713 0.9119673 255 255 255 255 0.458868 0.231928
0.014046 0.024136 -0.002898 0.3933251 -0.4202671 0.817723 255 255 255 255 0.458868 0.231928
0.016573 0.027546 -0.003281 0.08756781 -0.1303329 -0.9875957 255 255 255 255 0.458868 0.231928
0.010847 0.022278 -0.003002 -0.07461367 -0.1465605 -0.9863837 255 255 255 255 0.458868 0.231928
0.01701 0.026418 -0.003094 0.2811719 -0.2014353 0.9382783 255 255 255 255 0.458868 0.231928
0.015422 0.028615 -0.003601 -0.1025552 0.2175912 -0.9706372 255 255 255 255 0.458868 0.231928
0.002455 0.014932 -0.000463 -0.9235631 0.244 -0.2957959 255 255 255 255 0.436934 0.212909
0.004008 0.017751 -0.000699 0.4835888 -0.08461554 0.8711958 255 255 255 255 0.436934 0.212909
0.002835 0.014806 -0.000568 0.1883123 -0.1844981 -0.9646237 255 255 255 255 0.436934 0.212909
0.012776 0.02825 -0.002722 -0.4741412 0.8668556 0.1541153 255 255 255 255 0.458868 0.231928
0.006399 0.028061 0.003886 -0.1207558 -0.1965652 0.9730263 255 255 255 255 0.458868 0.255713
0.003734 0.021468 0.001979 0.4606624 -0.02979759 -0.8870751 255 255 255 255 0.458868 0.255713
0.004907 0.023788 0.002376 0.3992058 -0.1071883 -0.9105742 255 255 255 255 0.458868 0.255713
0.001381 0.015163 0.001265 -0.8326278 0.2557989 -0.4912208 255 255 255 255 0.436934 0.212909
0.003355 0.021602 0.001981 -0.6181061 0.2474737 -0.7461243 255 255 255 255 0.458868 0.255713
0.008086 0.026839 0.003454 0.4258125 0.009011817 -0.9047665 255 255 255 255 0.458868 0.231928
0.005978 0.025903 0.002836 0.07201052 0.2147118 -0.9740192 255 255 255 255 0.458868 0.255713
0.003807 0.02737 0.003248 -0.3566336 0.3134799 -0.8800812 255 255 255 255 0.458868 0.231928
0.0091 0.034949 0.005603 -0.1842674 -0.07292305 0.9801673 255 255 255 255 0.458868 0.231928
0.009741 0.033236 0.004974 0.2517484 0.2074057 -0.9453072 255 255 255 255 0.458868 0.231928
0.006851 0.024655 0.002859 0.8526962 -0.4951747 0.1664671 255 255 255 255 0.458868 0.231928
0.002791 0.018381 0.001528 0.5202516 -0.03273731 -0.8533853 255 255 255 255 0.436934 0.212909
0.000617 0.008998 0.000583 0.8586567 -0.275181 0.4324166 255 255 255 255 0.436934 0.212909
0.005869 0.025731 0.003228 0.08158238 -0.3246139 0.9423217 255 255 255 255 0.458868 0.231928
-0.008244 0.017909 -0.001523 0.7176044 0.6289862 -0.2990324 255 255 255 255 0.436934 0.212909
-0.009043 0.017096 -0.00195 -0.601272 -0.2146165 0.7696829 255 255 255 255 0.436934 0.212909
-0.006978 0.016203 -0.000615 -0.6330078 -0.5742819 0.5191354 255 255 255 255 0.436934 0.212909
-0.005223 0.015212 0.000399 -0.06268056 0.2446371 0.9675866 255 255 255 255 0.436934 0.212909
-0.001344 0.007757 0.000601 -0.6965356 -0.4806041 -0.5327832 255 255 255 255 0.436934 0.212909
-0.005378 0.014876 0.000286 -0.7484792 -0.6618108 -0.04225477 255 255 255 255 0.436934 0.212909
-0.008384 0.016796 -0.001768 0.2722018 -0.8369073 -0.4748604 255 255 255 255 0.436934 0.212909
-0.00502 0.015259 0.000104 0.6953718 0.4489822 -0.5611355 255 255 255 255 0.436934 0.212909
-0.010263 0.020038 -0.002783 0.5970642 0.5696442 -0.5648185 255 255 255 255 0.458868 0.255713
-0.015161 0.020354 -0.006444 -0.5893797 0.2296203 0.7745361 255 255 255 255 0.458868 0.231928
-0.016672 0.020163 -0.007778 -0.8759449 0.4331946 -0.2122804 255 255 255 255 0.458868 0.231928
-0.010551 0.015887 -0.003548 0.2805682 -0.7426471 -0.6080764 255 255 255 255 0.458868 0.231928
-0.004004 0.012812 3.8e-05 -0.08632699 -0.1069718 -0.9905073 255 255 255 255 0.436934 0.212909
-0.014452 0.018077 -0.006371 0.2485913 -0.7041693 -0.6650925 255 255 255 255 0.458868 0.231928
-0.003282 0.017045 0.001112 -0.5821224 -0.1165777 -0.8047007 255 255 255 255 0.436934 0.212909
-0.004492 0.019452 0.001633 -0.7316698 -0.4343978 -0.525317 255 255 255 255 0.436934 0.212909
-0.006206 0.021043 0.002805 0.3242267 -0.07147887 0.9432751 255 255 255 255 0.436934 0.212909
-0.004371 0.019478 0.001986 0.2258193 -0.1689229 0.9594117 255 255 255 255 0.436934 0.212909
-0.005763 0.02048 0.002418 -0.4781085 -0.8273364 -0.2948336 255 255 255 255 0.436934 0.212909
-0.009378 0.023415 0.003357 -0.3171242 0.02115407 -0.9481481 255 255 255 255 0.458868 0.255713
-0.008562 0.020556 0.003535 0.1034525 -0.402601 0.9095109 255 255 255 255 0.458868 0.231928
-0.008691 0.0238 0.003702 0.3478732 0.06448875 0.935321 255 255 255 255 0.458868 0.255713
-0.006371 0.024238 0.002562 0.7306631 0.6278235 0.2682707 255 255 255 255 0.458868 0.231928
-0.013608 0.024134 0.005014 -0.5007984 -0.2980079 -0.8126453 255 255 255 255 0.458868 0.231928
-0.008594 0.025287 0.003359 -0.3144711 0.2374267 -0.9190955 255 255 255 255 0.458868 0.231928
-0.000935 0.008029 0.000596 -0.7198992 -0.2628319 0.6423898 255 255 255 255 0.436934 0.212909
-0.002289 0.014367 0.001064 0.1929722 -0.03904251 0.9804272 255 255 255 255 0.436934 0.212909
-0.00069 0.008633 0.000575 0.7536352 0.113191 0.6474733 255 255 255 255 0.436934 0.212909
-0.010369 0.026066 0.003928 0.5069026 0.4612717 0.7282021 255 255 255 255 0.458868 0.231928
-0.008833 0.023772 0.003284 -0.2203694 0.2083807 -0.9528982 255 255 255 255 0.458868 0.255713
-0.002529 0.020825 -0.000423 0.8219122 0.1097747 -0.5589364 255 255 255 255 0.436934 0.212909
-0.009504 0.032822 -0.002842 0.02975703 -0.0995603 -0.9945865 255 255 255 255 0.458868 0.255713
-0.003026 0.020621 -0.00016 -0.6567792 -0.1315391 0.7425217 255 255 255 255 0.436934 0.212909
-0.000764 0.00842 0.000579 -0.6731342 -0.6443483 -0.3629128 255 255 255 255 0.436934 0.212909
-0.003902 0.022278 -0.00061 -0.7996661 -0.5828542 0.1442745 255 255 255 255 0.436934 0.212909
-0.003584 0.027012 -0.000647 0.5155152 0.07483137 -0.8536067 255 255 255 255 0.458868 0.231928
-0.004756 0.024633 -0.001164 0.2674826 -0.0488392 -0.9623242 255 255 255 255 0.458868 0.255713
-0.006729 0.025259 -0.00159 -0.8157339 -0.3179074 0.4832321 255 255 255 255 0.458868 0.231928
-0.004974 0.024642 -0.000679 -0.3228737 -0.01053546 0.9463835 255 255 255 255 0.458868 0.255713
-0.008468 0.031522 -0.002144 -0.5001534 -0.01739274 0.8657622 255 255 255 255 0.458868 0.231928
-0.00563 0.023249 -0.001161 -0.7890092 -0.5082223 -0.3452168 255 255 255 255 0.458868 0.231928
-0.001079 0.01474 9.4e-05 0.7069393 0.07429148 -0.7033616 255 255 255 255 0.436934 0.212909
-0.001773 0.017868 -0.00018 0.04742415 -0.0601385 -0.9970629 255 255 255 255 0.436934 0.212909
-0.001606 0.014639 0.00031 -0.8574584 -0.1582075 0.4896281 255 255 255 255 0.436934 0.212909
-0.000722 0.009476 0.000426 -0.4900448 -0.145367 -0.8594909 255 255 255 255 0.436934 0.212909
-0.004937 0.024092 -0.000915 -0.7902458 -0.5058883 -0.3458158 255 255 255 255 0.458868 0.231928
0.000524 0.004675 0.001127 0.3720356 0.03689232 0.927485 255 255 255 255 0.497530 0.181198
0.001074 0.009434 0.000318 0.114833 0.8524241 -0.5100847 255 255 255 255 0.495766 0.205941
0.001091 0.00069 0.00148 0.4911603 -0.5191389 0.6994686 255 255 255 255 0.497530 0.181198
-0.001124 0.00069 -0.000848 -0.4911636 -0.5188314 -0.6996945 255 255 255 255 0.497530 0.181198
0.001636 0.006907 0.000387 0.9741635 -0.2179744 -0.05909813 255 255 255 255 0.495766 0.205941
0.000537 0.005484 -1.6e-05 0.5069108 0.08699405 -0.8575975 255 255 255 255 0.497530 0.181198
-0.001611 0.006783 0.000705 -0.9775212 -0.192263 -0.08652868 255 255 255 255 0.495766 0.205941
-0.001214 0.008446 0.000102 -0.3351921 0.1251445 -0.9338014 255 255 255 255 0.495766 0.205941
0.00128 0.008566 0.000864 0.3570421 0.1839251 0.9158016 255 255 255 255 0.495766 0.205941
0.001314 0.00856 -0.00018 0.2363809 0.08717594 -0.967742 255 255 255 255 0.495766 0.205941
0.000405 0.02258 -0.00165 0.5188627 0.1927608 0.8328414 255 255 255 255 0.436934 0.212909
4.9e-05 0.030365 -0.004015 -0.09085824 -0.2362709 -0.9674301 255 255 255 255 0.458868 0.255713
0.000457 0.022477 -0.002002 0.01004515 -0.292915 -0.9560858 255 255 255 255 0.458868 0.255713
0.000429 0.019665 -0.000993 0.3532563 -0.192578 -0.915491 255 255 255 255 0.436934 0.212909
0.000856 0.024891 -0.002508 0.952813 -0.2294848 0.1987065 255 255 255 255 0.436934 0.212909
-0.000481 0.024804 -0.002323 -0.9046766 -0.426092 0.002410439 255 255 255 255 0.436934 0.212909
0.000665 0.033393 -0.004281 0.1343678 0.2367819 0.9622264 255 255 255 255 0.458868 0.255713
-0.000351 0.025501 -0.002293 0.007900168 0.2231935 0.9747422 255 255 255 255 0.436934 0.212909
-0.000137 0.022496 -0.001743 -0.5903066 -0.2367739 -0.7716711 255 255 255 255 0.436934 0.212909
-8e-05 0.019529 -0.000725 -0.4566071 0.1481637 0.8772443 255 255 255 255 0.436934 0.212909
0.002798 0.030958 -0.004167 0.7899375 -0.1188706 -0.6015551 255 255 255 255 0.458868 0.231928
-0.002221 0.032045 -0.003973 -0.9692444 -0.104343 0.2228856 255 255 255 255 0.458868 0.231928
0.00097 0.035062 -0.005491 0.6199863 -0.05004142 -0.7830153 255 255 255 255 0.458868 0.231928
0.007983 0.016087 0.004809 -0.3659201 -0.4697429 0.8033954 255 255 255 255 0.436934 0.212909
0.008351 0.016442 0.004561 0.4893149 0.2538723 -0.8343379 255 255 255 255 0.436934 0.212909
0.014659 0.01933 0.01357 -0.6989446 0.5101844 0.501187 255 255 255 255 0.458868 0.231928
0.014319 0.016211 0.014268 -0.7674572 -0.31094 0.5606475 255 255 255 255 0.458868 0.231928
0.004612 0.013005 0.001929 0.04071636 0.4256284 -0.9039816 255 255 255 255 0.436934 0.212909
0.004336 0.012932 0.002219 -0.5043976 -0.1029462 0.8573128 255 255 255 255 0.436934 0.212909
0.006621 0.022789 -0.001657 -0.5570926 0.4293783 0.710832 255 255 255 255 0.436934 0.212909
0.005551 0.020471 -0.001183 0.465574 -0.1881444 0.8647789 255 255 255 255 0.436934 0.212909
0.003204 0.021548 0.002329 -0.406795 -0.05645238 0.9117736 255 255 255 255 0.436934 0.212909
0.003581 0.021413 0.002327 0.6565937 -0.3449967 0.6707175 255 255 255 255 0.436934 0.212909
0.005535 0.030826 0.004177 -0.8890094 0.3553558 0.2887638 255 255 255 255 0.458868 0.255713
0.010565 0.031756 0.005118 0.06968711 -0.2810364 0.9571636 255 255 255 255 0.458868 0.231928
0.001789 0.015091 0.001424 0.09380301 -0.1703321 0.9809119 255 255 255 255 0.436934 0.212909
-0.006884 0.016602 -0.000513 -0.3036232 0.2817272 0.9101883 255 255 255 255 0.436934 0.212909
-0.006764 0.016251 -0.000938 0.4426703 -0.202697 -0.8734741 255 255 255 255 0.436934 0.212909
-0.013835 0.018889 -0.006103 0.5937275 0.128957 -0.7942656 255 255 255 255 0.458868 0.255713
-0.00388 0.013025 0.000435 0.686156 0.3901255 0.6139967 255 255 255 255 0.436934 0.212909
-0.004273 0.019803 0.001514 -0.006090206 0.2391538 -0.9709626 255 255 255 255 0.436934 0.212909
-0.013293 0.027408 0.004861 -0.2684786 0.2793636 -0.9218868 255 255 255 255 0.458868 0.231928
-0.00196 0.014542 0.000895 0.7077239 0.2340489 -0.6665943 255 255 255 255 0.436934 0.212909
-0.002866 0.020621 -0.00051 -0.3637118 -0.203529 -0.9090047 255 255 255 255 0.436934 0.212909
-0.004737 0.029777 -0.00096 -0.1525606 0.09285619 0.9839222 255 255 255 255 0.458868 0.231928
-0.008179 0.033854 -0.002255 -0.3289536 0.2553106 0.9091788 255 255 255 255 0.458868 0.231928
-0.001924 0.018278 0.000135 0.3736567 0.1589497 0.9138467 255 255 255 255 0.436934 0.212909
-0.000297 0.008827 0.00079 -0.2203624 0.006250798 0.9753981 255 255 255 255 0.436934 0.212909
-0.000639 -0.000457 -0.000338 -0.8233069 -0.4817805 -0.3000889 255 255 255 255 0.497530 0.181198
0.00048 -0.000457 -0.0005 0.2888255 -0.5372556 -0.7924244 255 255 255 255 0.497530 0.181198
-0.000512 -0.000457 0.001132 -0.2885243 -0.537262 0.7925298 255 255 255 255 0.497530 0.181198
0.000605 -0.000457 0.00097 0.8228755 -0.4822195 0.3005667 255 255 255 255 0.497530 0.181198
-0.000351 0.025501 -0.002293 0.007900168 0.2231935 0.9747422 255 255 255 255 0.458868 0.255713
0.00064 0.025795 -0.002483 0.2150778 0.212058 0.9532958 255 255 255 255 0.458868 0.255713
-0.000297 0.025384 -0.002708 -0.216083 -0.2677956 -0.9389322 255 255 255 255 0.436934 0.212909
0.000457 0.022477 -0.002002 0.01004515 -0.292915 -0.9560858 255 255 255 255 0.436934 0.212909
0.000695 0.025674 -0.002896 0.002689405 -0.2501032 -0.9682155 255 255 255 255 0.436934 0.212909
-0.000297 0.025384 -0.002708 -0.216083 -0.2677956 -0.9389322 255 255 255 255 0.458868 0.231928
4.9e-05 0.030365 -0.004015 -0.09085824 -0.2362709 -0.9674301 255 255 255 255 0.458868 0.231928
-2e-05 0.035745 -0.005263 -0.154011 -0.2203131 -0.9631941 255 255 255 255 0.458868 0.255713
-0.000586 0.03359 -0.004244 -0.01090779 0.2748937 0.9614128 255 255 255 255 0.458868 0.231928
0.00069 0.033271 -0.004688 0.011018 -0.2057436 -0.9785439 255 255 255 255 0.458868 0.231928
0.000856 0.024891 -0.002508 0.952813 -0.2294848 0.1987065 255 255 255 255 0.458868 0.231928
0.00064 0.025795 -0.002483 0.2150778 0.212058 0.9532958 255 255 255 255 0.458868 0.231928
0.000695 0.025674 -0.002896 0.002689405 -0.2501032 -0.9682155 255 255 255 255 0.458868 0.231928
0.000665 0.033393 -0.004281 0.1343678 0.2367819 0.9622264 255 255 255 255 0.458868 0.231928
-0.000481 0.024804 -0.002323 -0.9046766 -0.426092 0.002410439 255 255 255 255 0.458868 0.231928
-0.000351 0.025501 -0.002293 0.007900168 0.2231935 0.9747422 255 255 255 255 0.458868 0.231928
-0.00063 0.029932 -0.003348 -0.02700678 0.2371626 0.9710945 255 255 255 255 0.458868 0.231928
-6.6e-05 0.037596 -0.005563 0.1462348 0.4353215 0.888319 255 255 255 255 0.458868 0.255713
0.009962 0.017206 0.006869 -0.81896 0.1423218 0.5559219 255 255 255 255 0.458868 0.231928
0.009726 0.016535 0.006075 -0.4118095 -0.8440627 0.3434692 255 255 255 255 0.458868 0.231928
0.010389 0.016766 0.006527 0.7777094 -0.1346961 -0.6140237 255 255 255 255 0.458868 0.231928
0.010389 0.016766 0.006527 0.7777094 -0.1346961 -0.6140237 255 255 255 255 0.458868 0.255713
0.009863 0.017724 0.005983 0.08636253 0.7520766 -0.6533929 255 255 255 255 0.458868 0.255713
0.009962 0.017206 0.006869 -0.81896 0.1423218 0.5559219 255 255 255 255 0.458868 0.255713
0.011818 0.019712 0.00806 -0.481546 0.8761274 -0.02267734 255 255 255 255 0.458868 0.231928
0.012131 0.01761 0.009876 -0.8469239 0.1398747 0.5129863 255 255 255 255 0.458868 0.231928
0.01267 0.017499 0.009657 0.8222306 -0.1692262 -0.5434147 255 255 255 255 0.458868 0.255713
0.007837 0.022829 -0.001651 0.1685332 -0.02207682 0.9854487 255 255 255 255 0.458868 0.255713
0.007181 0.023046 -0.001989 -0.3098427 0.08622804 -0.9468697 255 255 255 255 0.458868 0.255713
0.007874 0.022428 -0.002154 -0.2457869 0.003838416 -0.9693163 255 255 255 255 0.458868 0.255713
0.007837 0.022829 -0.001651 0.1685332 -0.02207682 0.9854487 255 255 255 255 0.458868 0.231928
0.007256 0.021789 -0.001857 0.356554 -0.6030063 0.7136194 255 255 255 255 0.458868 0.231928
0.007874 0.022428 -0.002154 -0.2457869 0.003838416 -0.9693163 255 255 255 255 0.458868 0.231928
0.011031 0.025721 -0.00281 -0.2249265 0.1102346 -0.9681201 255 255 255 255 0.458868 0.231928
0.014299 0.027148 -0.002685 0.1268022 -0.004009776 0.9919199 255 255 255 255 0.458868 0.231928
0.007181 0.023046 -0.001989 -0.3098427 0.08622804 -0.9468697 255 255 255 255 0.458868 0.231928
0.006621 0.022789 -0.001657 -0.5570926 0.4293783 0.710832 255 255 255 255 0.458868 0.231928
0.011038 0.025722 -0.002368 0.03697962 0.1971878 0.9796681 255 255 255 255 0.458868 0.231928
0.003204 0.021548 0.002329 -0.406795 -0.05645238 0.9117736 255 255 255 255 0.458868 0.255713
0.004722 0.023722 0.002782 0.2225655 -0.3814042 0.8972154 255 255 255 255 0.458868 0.255713
0.003734 0.021468 0.001979 0.4606624 -0.02979759 -0.8870751 255 255 255 255 0.436934 0.212909
0.003355 0.021602 0.001981 -0.6181061 0.2474737 -0.7461243 255 255 255 255 0.436934 0.212909
0.004907 0.023788 0.002376 0.3992058 -0.1071883 -0.9105742 255 255 255 255 0.436934 0.212909
0.003355 0.021602 0.001981 -0.6181061 0.2474737 -0.7461243 255 255 255 255 0.458868 0.231928
0.003204 0.021548 0.002329 -0.406795 -0.05645238 0.9117736 255 255 255 255 0.458868 0.231928
0.00418 0.024449 0.002906 -0.2945947 -0.1295458 0.9468009 255 255 255 255 0.458868 0.231928
0.004722 0.023722 0.002782 0.2225655 -0.3814042 0.8972154 255 255 255 255 0.458868 0.231928
0.006399 0.028061 0.003886 -0.1207558 -0.1965652 0.9730263 255 255 255 255 0.458868 0.231928
0.005535 0.030826 0.004177 -0.8890094 0.3553558 0.2887638 255 255 255 255 0.458868 0.231928
0.004907 0.023788 0.002376 0.3992058 -0.1071883 -0.9105742 255 255 255 255 0.458868 0.231928
0.005978 0.025903 0.002836 0.07201052 0.2147118 -0.9740192 255 255 255 255 0.458868 0.231928
0.004361 0.024513 0.0025 -0.04111663 0.2174197 -0.9752119 255 255 255 255 0.458868 0.231928
-0.008843 0.017516 -0.002402 0.6293569 0.09813713 -0.770895 255 255 255 255 0.458868 0.255713
-0.009043 0.017096 -0.00195 -0.601272 -0.2146165 0.7696829 255 255 255 255 0.458868 0.231928
-0.009043 0.017096 -0.00195 -0.601272 -0.2146165 0.7696829 255 255 255 255 0.458868 0.255713
-0.00896 0.017922 -0.00178 -0.5847405 -0.007701281 0.8111839 255 255 255 255 0.458868 0.255713
-0.014147 0.018436 -0.00574 -0.6348317 -0.1582447 0.756272 255 255 255 255 0.458868 0.255713
-0.013835 0.018889 -0.006103 0.5937275 0.128957 -0.7942656 255 255 255 255 0.458868 0.231928
-0.008384 0.016796 -0.001768 0.2722018 -0.8369073 -0.4748604 255 255 255 255 0.458868 0.231928
-0.008244 0.017909 -0.001523 0.7176044 0.6289862 -0.2990324 255 255 255 255 0.458868 0.255713
-0.008244 0.017909 -0.001523 0.7176044 0.6289862 -0.2990324 255 255 255 255 0.458868 0.231928
-0.010263 0.020038 -0.002783 0.5970642 0.5696442 -0.5648185 255 255 255 255 0.458868 0.231928
-0.00896 0.017922 -0.00178 -0.5847405 -0.007701281 0.8111839 255 255 255 255 0.458868 0.231928
-0.008843 0.017516 -0.002402 0.6293569 0.09813713 -0.770895 255 255 255 255 0.458868 0.231928
-0.006343 0.021413 0.002282 -0.3488468 -0.0689061 -0.9346432 255 255 255 255 0.458868 0.255713
-0.005663 0.021719 0.002564 0.4665529 0.1014728 0.8786533 255 255 255 255 0.458868 0.255713
-0.006206 0.021043 0.002805 0.3242267 -0.07147887 0.9432751 255 255 255 255 0.458868 0.255713
-0.009378 0.023415 0.003357 -0.3171242 0.02115407 -0.9481481 255 255 255 255 0.458868 0.231928
-0.006343 0.021413 0.002282 -0.3488468 -0.0689061 -0.9346432 255 255 255 255 0.458868 0.231928
-0.005763 0.02048 0.002418 -0.4781085 -0.8273364 -0.2948336 255 255 255 255 0.458868 0.231928
-0.006206 0.021043 0.002805 0.3242267 -0.07147887 0.9432751 255 255 255 255 0.458868 0.231928
-0.008691 0.0238 0.003702 0.3478732 0.06448875 0.935321 255 255 255 255 0.458868 0.231928
-0.005287 0.021532 0.002175 0.6845219 0.5264809 -0.5042298 255 255 255 255 0.458868 0.231928
-0.005663 0.021719 0.002564 0.4665529 0.1014728 0.8786533 255 255 255 255 0.458868 0.231928
-0.008833 0.023772 0.003284 -0.2203694 0.2083807 -0.9528982 255 255 255 255 0.458868 0.231928
-0.013608 0.024134 0.005014 -0.5007984 -0.2980079 -0.8126453 255 255 255 255 0.458868 0.255713
-0.002529 0.020825 -0.000423 0.8219122 0.1097747 -0.5589364 255 255 255 255 0.458868 0.255713
-0.003384 0.023546 -0.0007 0.3569587 0.02706261 -0.9337281 255 255 255 255 0.458868 0.231928
-0.004756 0.024633 -0.001164 0.2674826 -0.0488392 -0.9623242 255 255 255 255 0.458868 0.231928
-0.003902 0.022278 -0.00061 -0.7996661 -0.5828542 0.1442745 255 255 255 255 0.458868 0.255713
-0.008079 0.032086 -0.002408 0.3771772 0.03280602 -0.9255599 255 255 255 255 0.458868 0.231928
-0.003571 0.023546 -0.00029 -0.04585638 0.06691117 0.9967046 255 255 255 255 0.458868 0.255713
-0.009504 0.032822 -0.002842 0.02975703 -0.0995603 -0.9945865 255 255 255 255 0.458868 0.231928
-0.004974 0.024642 -0.000679 -0.3228737 -0.01053546 0.9463835 255 255 255 255 0.458868 0.231928
-0.003902 0.022278 -0.00061 -0.7996661 -0.5828542 0.1442745 255 255 255 255 0.458868 0.231928
-0.002529 0.020825 -0.000423 0.8219122 0.1097747 -0.5589364 255 255 255 255 0.458868 0.231928
-0.003571 0.023546 -0.00029 -0.04585638 0.06691117 0.9967046 255 255 255 255 0.458868 0.231928
-0.004737 0.029777 -0.00096 -0.1525606 0.09285619 0.9839222 255 255 255 255 0.458868 0.255713
-0.006909 0.029928 -0.001401 -0.3336627 0.03144914 0.9421678 255 255 255 255 0.458868 0.255713
-0.008468 0.031522 -0.002144 -0.5001534 -0.01739274 0.8657622 255 255 255 255 0.458868 0.255713
-0.008179 0.033854 -0.002255 -0.3289536 0.2553106 0.9091788 255 255 255 255 0.458868 0.255713
-0.000564 0.004643 0.001209 -0.8652827 0.03827723 0.4998207 255 255 255 255 0.495766 0.205941
0.000524 0.004675 0.001127 0.3720356 0.03689232 0.927485 255 255 255 255 0.495766 0.205941
0.000537 0.005484 -1.6e-05 0.5069108 0.08699405 -0.8575975 255 255 255 255 0.495766 0.205941
-0.000552 0.005453 6.2e-05 -0.6923408 0.006714001 -0.7215395 255 255 255 255 0.495766 0.205941
3 183 8 181 
3 181 8 174 
3 174 1 181 
3 216 217 180 
3 186 6 69 
3 175 176 2 
3 218 219 182 
3 175 3 176 
3 219 177 182 
3 182 177 9 
3 8 177 174 
3 174 177 219 
3 178 219 220 
3 219 178 174 
3 174 178 1 
3 9 183 182 
3 182 183 181 
3 182 181 179 
3 182 179 218 
3 216 180 68 
3 68 180 60 
3 221 61 222 
3 5 7 222 
3 4 175 223 
3 5 224 6 
3 225 7 186 
3 186 7 6 
3 226 63 227 
3 226 228 63 
3 63 228 184 
3 227 63 184 
3 227 184 229 
3 229 184 11 
3 230 231 62 
3 230 62 221 
3 231 232 62 
3 62 232 12 
3 12 61 62 
3 62 61 221 
3 233 60 180 
3 6 229 69 
3 6 7 5 
3 64 10 183 
3 183 10 8 
3 10 67 65 
3 10 65 8 
3 8 65 177 
3 177 65 9 
3 65 67 66 
3 65 66 9 
3 0 64 66 
3 66 64 9 
3 64 183 9 
3 64 0 10 
3 10 0 67 
3 66 67 0 
3 228 222 184 
3 222 225 184 
3 184 225 11 
3 232 224 185 
3 185 224 5 
3 222 185 5 
3 222 61 185 
3 225 69 11 
3 69 229 11 
3 12 232 61 
3 232 185 61 
3 186 69 225 
3 192 187 75 
3 75 187 70 
3 187 13 70 
3 188 14 71 
3 188 71 73 
3 192 73 187 
3 187 73 71 
3 187 71 74 
3 74 71 14 
3 187 74 13 
3 75 188 73 
3 75 70 188 
3 188 70 76 
3 76 70 13 
3 188 76 14 
3 189 15 17 
3 84 79 17 
3 84 17 190 
3 234 235 80 
3 235 236 80 
3 237 238 81 
3 238 239 81 
3 239 77 81 
3 240 241 189 
3 241 15 189 
3 240 189 16 
3 78 16 79 
3 237 81 242 
3 78 240 16 
3 79 16 189 
3 17 15 190 
3 189 17 79 
3 192 83 73 
3 191 73 83 
3 191 83 82 
3 82 192 191 
3 192 75 191 
3 191 75 73 
3 82 72 192 
3 72 83 192 
3 82 83 72 
3 234 80 241 
3 15 241 18 
3 18 241 80 
3 236 78 80 
3 78 79 80 
3 84 15 18 
3 84 18 79 
3 79 18 80 
3 15 84 190 
3 101 194 22 
3 22 194 193 
3 194 20 193 
3 85 86 21 
3 21 86 193 
3 193 86 22 
3 22 86 87 
3 101 87 194 
3 194 87 86 
3 194 86 88 
3 88 86 85 
3 194 88 20 
3 24 243 89 
3 244 90 245 
3 95 91 96 
3 91 99 96 
3 95 96 98 
3 98 96 94 
3 246 247 95 
3 247 248 97 
3 247 97 95 
3 248 249 97 
3 249 91 97 
3 97 91 95 
3 250 95 98 
3 246 95 250 
3 251 252 92 
3 252 246 92 
3 92 246 93 
3 246 253 93 
3 92 249 251 
3 93 249 92 
3 103 94 99 
3 94 250 98 
3 94 96 99 
3 100 19 101 
3 19 23 101 
3 101 22 100 
3 101 23 102 
3 101 102 87 
3 22 87 100 
3 100 87 102 
3 102 23 100 
3 23 19 100 
3 253 250 103 
3 103 250 94 
3 249 103 91 
3 91 103 99 
3 249 253 103 
3 253 249 93 
3 107 199 195 
3 195 199 196 
3 196 26 195 
3 254 255 104 
3 25 254 104 
3 30 112 198 
3 27 105 108 
3 27 106 105 
3 256 115 257 
3 257 115 107 
3 199 115 196 
3 196 115 256 
3 196 256 258 
3 196 258 26 
3 107 195 257 
3 259 260 261 
3 262 117 263 
3 117 109 198 
3 106 27 110 
3 25 104 197 
3 264 263 112 
3 29 264 112 
3 198 113 30 
3 262 265 114 
3 266 31 109 
3 109 31 113 
3 109 113 198 
3 262 114 117 
3 259 111 267 
3 259 261 111 
3 111 261 264 
3 266 264 31 
3 31 264 29 
3 267 111 266 
3 266 111 264 
3 112 263 198 
3 30 113 112 
3 112 113 31 
3 112 31 29 
3 28 116 199 
3 28 199 107 
3 199 116 115 
3 115 116 28 
3 115 28 107 
3 263 117 198 
3 265 266 114 
3 266 117 114 
3 117 266 109 
3 125 201 118 
3 201 124 32 
3 118 201 32 
3 33 119 200 
3 200 119 120 
3 200 120 121 
3 121 120 123 
3 123 201 125 
3 201 123 120 
3 201 120 124 
3 124 120 119 
3 121 125 200 
3 200 125 118 
3 200 118 33 
3 126 268 202 
3 129 269 35 
3 270 271 272 
3 127 273 128 
3 273 34 128 
3 34 35 128 
3 274 269 129 
3 275 268 126 
3 276 277 278 
3 277 273 127 
3 278 277 127 
3 127 35 278 
3 128 35 127 
3 37 130 203 
3 130 125 203 
3 36 123 130 
3 130 123 125 
3 121 123 203 
3 203 123 36 
3 37 203 36 
3 121 203 125 
3 122 130 37 
3 122 36 130 
3 37 36 122 
3 274 129 279 
3 279 129 273 
3 129 35 131 
3 131 273 129 
3 273 131 34 
3 34 131 35 
3 132 204 45 
3 132 133 204 
3 133 39 204 
3 38 204 39 
3 134 135 40 
3 40 135 38 
3 38 135 45 
3 45 135 44 
3 133 132 135 
3 132 44 135 
3 136 135 134 
3 135 136 133 
3 133 136 39 
3 45 204 38 
3 280 137 147 
3 281 139 282 
3 283 42 205 
3 205 42 41 
3 141 43 41 
3 284 285 138 
3 285 286 138 
3 286 287 138 
3 287 43 138 
3 138 43 141 
3 284 138 141 
3 288 284 140 
3 288 140 289 
3 290 142 284 
3 284 142 140 
3 142 287 140 
3 140 287 289 
3 42 283 141 
3 291 137 280 
3 41 42 141 
3 41 43 205 
3 143 132 46 
3 46 132 206 
3 206 132 45 
3 132 143 144 
3 132 144 44 
3 45 44 206 
3 206 44 144 
3 145 144 143 
3 206 144 46 
3 46 144 145 
3 145 143 46 
3 290 283 146 
3 146 283 205 
3 287 146 43 
3 43 146 205 
3 290 146 287 
3 142 290 287 
3 160 207 148 
3 207 152 148 
3 49 152 150 
3 49 150 210 
3 161 207 160 
3 161 150 207 
3 207 150 152 
3 160 148 210 
3 210 148 49 
3 292 154 48 
3 293 294 153 
3 295 154 292 
3 149 51 154 
3 296 153 294 
3 297 156 295 
3 153 50 208 
3 153 296 50 
3 50 296 209 
3 298 157 209 
3 299 52 155 
3 155 52 157 
3 155 157 298 
3 300 158 294 
3 301 293 153 
3 301 153 302 
3 302 153 208 
3 156 303 304 
3 52 208 50 
3 156 297 303 
3 209 296 298 
3 305 304 306 
3 209 52 50 
3 159 162 160 
3 162 161 160 
3 210 150 161 
3 210 161 53 
3 47 159 53 
3 53 159 210 
3 159 160 210 
3 151 162 47 
3 162 159 47 
3 53 161 211 
3 211 161 162 
3 211 162 151 
3 151 47 211 
3 211 47 53 
3 294 155 298 
3 299 158 300 
3 299 163 158 
3 158 163 294 
3 163 299 155 
3 163 155 294 
3 54 166 164 
3 212 213 214 
3 214 213 215 
3 54 164 55 
3 167 55 56 
3 167 54 55 
3 169 57 167 
3 169 167 56 
3 166 169 164 
3 57 169 166 
3 307 308 58 
3 308 309 168 
3 309 173 168 
3 308 168 172 
3 309 310 171 
3 310 307 170 
3 307 58 170 
3 310 170 171 
3 168 173 172 
3 165 171 59 
3 59 171 58 
3 170 58 171 
3 59 172 165 
3 165 172 173 
3 308 172 58 
3 59 58 172 
3 173 309 171 
3 165 173 171 
3 167 57 213 
3 167 213 212 
3 54 167 212 
3 54 212 214 
3 57 166 215 
3 57 215 213 
3 166 54 214 
3 166 214 215 
