ply
format ascii 1.0
comment VCGLIB generated
comment TextureFile Textures/Combined_Texture/Texture_01_A.png
element vertex 201
property float x
property float y
property float z
property float nx
property float ny
property float nz
property uchar red
property uchar green
property uchar blue
property uchar alpha
property float texture_u
property float texture_v
element face 392
property list uchar int vertex_indices
end_header
-0.005648 -0 0.004941 -0.6430484 0.2567698 0.7214971 255 255 255 255 0.330143 0.161783
0.005648 -0 0.004941 0.8191737 0.2721563 0.5048619 255 255 255 255 0.330143 0.161783
-0.003192 0.028024 0.002793 -0.5709774 0.0182458 0.8207631 255 255 255 255 0.330143 0.161783
0.003192 0.032041 0.002793 0.7398521 -0.1348125 0.659124 255 255 255 255 0.330143 0.161783
-0.003192 0.028024 -0.002793 -0.6916234 -0.03816009 -0.7212495 255 255 255 255 0.330143 0.161783
0.003192 0.032041 -0.002793 0.5922679 0.09529588 -0.800086 255 255 255 255 0.330143 0.161783
-0.005648 0 -0.004941 -0.8132555 0.2998943 -0.4986772 255 255 255 255 0.330143 0.161783
0.005648 0 -0.004941 0.7147442 0.375963 -0.5897394 255 255 255 255 0.330143 0.161783
0 0.033755 -0.003146 -0.1402975 0.3111349 -0.939953 255 255 255 255 0.330143 0.161783
0 0.033755 0.003146 0.06676792 0.1998971 0.9775394 255 255 255 255 0.330143 0.161783
0 -0 0.00785 0.1640668 0.2669286 0.949648 255 255 255 255 0.330143 0.161783
0 0 -0.00785 -0.005846268 0.3859807 -0.9224883 255 255 255 255 0.330143 0.161783
-0.007131 0 0 -0.9524901 0.2888159 0.09668559 255 255 255 255 0.330143 0.161783
-0.00403 0.027294 0 -0.9920371 -0.09980468 0.0768209 255 255 255 255 0.330143 0.161783
0 0.036032 0 -0.2196441 0.9742191 -0.05151291 255 255 255 255 0.330143 0.161783
0.00403 0.031312 0 0.9878972 -0.1139445 -0.1052424 255 255 255 255 0.330143 0.161783
0.007131 0 0 0.9507658 0.2927257 -0.1017656 255 255 255 255 0.330143 0.161783
-0.00457 0.034204 4.2e-05 -0.9883187 -0.1285387 -0.08187812 255 255 255 255 0.330143 0.161783
-0.001503 0.037094 4.2e-05 0.8564427 0.5008654 0.1250588 255 255 255 255 0.330143 0.161783
-0.001897 0.036401 -0.001746 0.4592179 0.3999336 -0.7932037 255 255 255 255 0.330143 0.161783
-0.003818 0.034575 -0.001939 -0.5605941 0.02458997 -0.8277256 255 255 255 255 0.330143 0.161783
-0.003818 0.034575 0.002024 -0.652727 -0.05715652 0.755434 255 255 255 255 0.330143 0.161783
-0.001897 0.036401 0.00183 0.3500656 0.2607055 0.8997148 255 255 255 255 0.330143 0.161783
0.002139 0.038143 -0.000954 -0.3820102 0.4874798 -0.7851316 255 255 255 255 0.330143 0.161783
0.001107 0.038143 0.001057 -0.8676803 0.4914556 0.07484902 255 255 255 255 0.330143 0.161783
0.004957 0.03691 0.001057 0.9583642 -0.2733562 -0.08254959 255 255 255 255 0.330143 0.161783
0.004118 0.03691 -0.000793 0.5790065 0.05130524 -0.8137071 255 255 255 255 0.330143 0.161783
0.002139 0.038143 0.003068 -0.4436429 0.1343026 0.8860834 255 255 255 255 0.330143 0.161783
0.004118 0.03691 0.002907 0.5863678 -0.272526 0.7628253 255 255 255 255 0.330143 0.161783
-0.000521 0.018628 -0.002962 -0.03462389 0.01677154 -0.9992597 255 255 255 255 0.330143 0.161783
0.001804 0.020828 -0.002239 0.7152447 -0.004132368 -0.698862 255 255 255 255 0.330143 0.161783
0.002691 0.020828 -0.000473 0.9997187 0.01543294 0.01801202 255 255 255 255 0.330143 0.161783
0.002459 0.018381 0.00149 0.7307275 -0.007288291 0.6826304 255 255 255 255 0.330143 0.161783
0.000521 0.018628 0.002962 -0.03343907 0.05189812 0.9980924 255 255 255 255 0.330143 0.161783
-0.001804 0.016642 0.002239 -0.7149389 0.01372095 0.6990524 255 255 255 255 0.330143 0.161783
-0.002691 0.016642 0.000473 -0.9993511 0.01966494 -0.03017877 255 255 255 255 0.330143 0.161783
-0.002459 0.018381 -0.00149 -0.7647 -0.01557155 -0.6441984 255 255 255 255 0.330143 0.161783
0.000555 0.007224 -0.004111 -0.03983823 0.3034889 -0.9520018 255 255 255 255 0.330143 0.161783
-0.0028 0.007138 -0.002383 -0.7466843 0.3244351 -0.5806932 255 255 255 255 0.330143 0.161783
-0.004236 0.005574 1e-06 -0.9354606 0.3528971 0.01942047 255 255 255 255 0.330143 0.161783
-0.003355 0.005574 0.002936 -0.6937608 0.3685998 0.6187328 255 255 255 255 0.330143 0.161783
-0.000314 0.008131 0.004126 0.02738057 0.3138529 0.9490768 255 255 255 255 0.330143 0.161783
0.003041 0.008046 0.002397 0.7547397 0.2797974 0.5933645 255 255 255 255 0.330143 0.161783
0.004236 0.005574 1e-06 0.9542853 0.2959514 -0.04186163 255 255 255 255 0.330143 0.161783
0.003355 0.005574 -0.002935 0.6965646 0.3325424 -0.6357777 255 255 255 255 0.330143 0.161783
0.004958 0.003041 -0.003773 0.6747895 0.4247844 -0.6035043 255 255 255 255 0.330143 0.161783
0.006761 0.001349 0 0.9179084 0.3966918 0.0089359 255 255 255 255 0.330143 0.161783
0.005355 0.001349 0.004685 0.7296111 0.3716047 0.5740885 255 255 255 255 0.330143 0.161783
0 0.001396 0.007443 -0.007548736 0.3719025 0.9282411 255 255 255 255 0.330143 0.161783
-0.004844 0.002873 0.004685 -0.7093378 0.4120607 0.5718791 255 255 255 255 0.330143 0.161783
-0.006249 0.002873 0 -0.8990777 0.4376405 -0.01140902 255 255 255 255 0.330143 0.161783
-0.005355 0.001349 -0.004685 -0.6899152 0.4282813 -0.5836027 255 255 255 255 0.330143 0.161783
-0.000397 0.003088 -0.006531 -0.09139722 0.475248 -0.8750919 255 255 255 255 0.330143 0.161783
0.006098 0.04655 0.000914 -0.667616 0.3513791 -0.6563702 255 255 255 255 0.330143 0.161783
0.005834 0.046828 0.003006 -0.8741251 0.3525134 0.3341251 255 255 255 255 0.330143 0.161783
0.009181 0.046028 0.001854 0.8986979 -0.2816659 -0.3361643 255 255 255 255 0.330143 0.161783
0.007901 0.046253 0.000454 0.2882566 0.01581273 -0.9574227 255 255 255 255 0.330143 0.161783
0.007329 0.04655 0.004492 -0.1754059 0.03241541 0.9839624 255 255 255 255 0.330143 0.161783
0.009033 0.046253 0.003745 0.749765 -0.3139122 0.5825046 255 255 255 255 0.330143 0.161783
-0.007446 0.049451 0.000122 -0.8691397 -0.2775137 -0.4093683 255 255 255 255 0.330143 0.161783
-0.004319 0.050031 0.001478 0.872934 0.2846721 0.3961667 255 255 255 255 0.330143 0.161783
-0.00423 0.04982 -0.000132 0.8670549 0.1713475 -0.4678202 255 255 255 255 0.330143 0.161783
-0.006129 0.049451 -0.001133 -0.1045311 -0.1211773 -0.9871116 255 255 255 255 0.330143 0.161783
-0.007463 0.049451 0.001942 -0.8211933 -0.1437134 0.5522572 255 255 255 255 0.330143 0.161783
-0.005433 0.04982 0.002643 0.1759216 0.1685594 0.9698656 255 255 255 255 0.330143 0.161783
-0.010607 0.061919 -0.004197 -0.7191229 -0.2414336 -0.6515919 255 255 255 255 0.330143 0.161783
-0.00871 0.062473 -0.001361 0.716729 0.2699926 0.6429646 255 255 255 255 0.330143 0.161783
-0.007769 0.062351 -0.002681 0.9558585 0.1867093 -0.2268791 255 255 255 255 0.330143 0.161783
-0.008826 0.062007 -0.004555 0.1731866 -0.09898908 -0.9799019 255 255 255 255 0.330143 0.161783
-0.01159 0.061821 -0.002669 -0.9452744 -0.1563052 0.2864 255 255 255 255 0.330143 0.161783
-0.010263 0.062183 -0.000979 -0.1426477 0.1348327 0.9805467 255 255 255 255 0.330143 0.161783
0.007965 0.05406 0.0026 -0.8362203 0.3073674 -0.4541595 255 255 255 255 0.330143 0.161783
0.00851 0.054292 0.00428 -0.7367195 0.3630933 0.5704452 255 255 255 255 0.330143 0.161783
0.010638 0.053623 0.002214 0.7701561 -0.3217405 -0.5507655 255 255 255 255 0.330143 0.161783
0.009169 0.053811 0.001609 -0.01154285 -0.0524848 -0.998555 255 255 255 255 0.330143 0.161783
0.010173 0.05406 0.004874 0.1664612 0.05930348 0.9842631 255 255 255 255 0.330143 0.161783
0.011199 0.053811 0.003701 0.9047919 -0.3144967 0.2871297 255 255 255 255 0.330143 0.161783
0.010352 0.059784 0.000499 -0.9763176 0.0527015 -0.209825 255 255 255 255 0.330143 0.161783
0.011151 0.061768 0.001868 -0.5069777 0.5681282 0.6482314 255 255 255 255 0.330143 0.161783
0.013165 0.061135 -8.6e-05 0.5485312 -0.1082031 -0.8290994 255 255 255 255 0.330143 0.161783
0.01149 0.059549 -0.000438 -0.1359275 -0.3669412 -0.9202597 255 255 255 255 0.330143 0.161783
0.012495 0.059784 0.002707 0.3089953 0.07249421 0.9482967 255 255 255 255 0.330143 0.161783
0.013467 0.059549 0.001597 0.9591556 -0.2705436 0.08262432 255 255 255 255 0.330143 0.161783
-0.012 0.072405 -0.004079 -0.8790466 0.2643458 -0.3967347 255 255 255 255 0.330143 0.161783
-0.00942 0.07278 -0.002511 0.796346 0.2498233 0.550837 255 255 255 255 0.330143 0.161783
-0.009071 0.070796 -0.003993 0.9676492 -0.1464428 -0.2054494 255 255 255 255 0.330143 0.161783
-0.010617 0.070565 -0.005102 0.06621027 -0.02054886 -0.9975941 255 255 255 255 0.330143 0.161783
-0.012143 0.070405 -0.002554 -0.9136533 -0.2216374 0.3407559 255 255 255 255 0.330143 0.161783
-0.010448 0.070652 -0.001693 0.07822301 -0.1588836 0.9841937 255 255 255 255 0.330143 0.161783
-0.012011 0.075517 0.00017 -0.8652388 -0.3078617 0.3957058 255 255 255 255 0.330143 0.161783
-0.010824 0.075457 0.000767 0.1814215 -0.1741842 0.9678565 255 255 255 255 0.330143 0.161783
-0.010215 0.075909 -0.000192 0.9297171 0.3509395 -0.1116588 255 255 255 255 0.330143 0.161783
-0.012051 0.076081 -0.001343 -0.3878306 0.2631531 -0.8833674 255 255 255 255 0.330143 0.161783
-0.013979 0.078624 0.000285 -0.8609172 -0.5087299 0.003919106 255 255 255 255 0.330143 0.161783
-0.012878 0.0784 0.000992 0.05560066 -0.3153462 0.9473465 255 255 255 255 0.330143 0.161783
-0.012179 0.079047 0.000331 0.8217446 0.5527152 0.138715 255 255 255 255 0.330143 0.161783
-0.013328 0.079251 -0.000364 -0.1135741 0.3518024 -0.9291588 255 255 255 255 0.330143 0.161783
-0.016258 0.082182 0.002419 -0.9537556 -0.175535 -0.2440036 255 255 255 255 0.330143 0.161783
-0.015556 0.082032 0.003535 -0.1431366 -0.3775284 0.9148684 255 255 255 255 0.330143 0.161783
-0.014556 0.082424 0.0031 0.9450234 0.2143678 0.246936 255 255 255 255 0.330143 0.161783
-0.01531 0.082562 0.001977 0.1005961 0.4161591 -0.9037102 255 255 255 255 0.330143 0.161783
-0.016834 0.086533 0.002894 -0.9964588 -0.04051049 -0.07368124 255 255 255 255 0.330143 0.161783
-0.016301 0.086419 0.003743 -0.2679628 -0.2599165 0.9277065 255 255 255 255 0.330143 0.161783
-0.01554 0.086717 0.003412 0.9690207 0.2420335 0.0491803 255 255 255 255 0.330143 0.161783
-0.016113 0.086822 0.002558 0.3248992 -0.05137047 -0.9443525 255 255 255 255 0.330143 0.161783
-0.009033 0.076952 -0.005297 -0.9070734 0.4143997 0.07409946 255 255 255 255 0.330143 0.161783
-0.007585 0.07632 -0.003871 0.2148841 0.04410908 0.975643 255 255 255 255 0.330143 0.161783
-0.006617 0.076352 -0.00529 0.9316052 -0.3257359 -0.1612698 255 255 255 255 0.330143 0.161783
-0.008031 0.077109 -0.006663 -0.09707767 0.06676017 -0.9930353 255 255 255 255 0.330143 0.161783
-0.006762 0.080888 -0.004407 -0.8018498 0.5631579 0.1997251 255 255 255 255 0.330143 0.161783
-0.0057 0.080065 -0.003493 0.2304908 -0.0213763 0.9728397 255 255 255 255 0.330143 0.161783
-0.005292 0.079717 -0.00469 0.8821363 -0.4214316 -0.2103115 255 255 255 255 0.330143 0.161783
-0.006284 0.080619 -0.005585 -0.1417213 0.2246101 -0.9640878 255 255 255 255 0.330143 0.161783
-0.005176 0.083012 -0.005124 -0.9091939 0.3515295 0.2231446 255 255 255 255 0.330143 0.161783
-0.004299 0.083229 -0.00443 0.2762933 0.09200063 0.9566598 255 255 255 255 0.330143 0.161783
-0.003862 0.083203 -0.005239 0.9399352 -0.2542529 -0.227766 255 255 255 255 0.330143 0.161783
-0.004748 0.08306 -0.005927 -0.2409665 0.009972317 -0.9704822 255 255 255 255 0.330143 0.161783
-0.00431 0.088528 -0.004593 -0.9561238 -0.1846525 0.2274443 255 255 255 255 0.330143 0.161783
-0.003386 0.088756 -0.003862 0.3881125 0.06509335 0.9193104 255 255 255 255 0.330143 0.161783
-0.002926 0.088728 -0.004715 0.9570029 -0.2059453 -0.2042842 255 255 255 255 0.330143 0.161783
-0.00386 0.088578 -0.005439 -0.4090779 0.04600019 -0.9113393 255 255 255 255 0.330143 0.161783
0.009666 0.063601 -0.000868 -0.9961415 -0.08067845 0.03454202 255 255 255 255 0.330143 0.161783
0.01079 0.063821 0.000193 0.02490177 0.5370699 0.8431701 255 255 255 255 0.330143 0.161783
0.011786 0.063187 -0.001079 0.9453604 0.1204226 -0.3029721 255 255 255 255 0.330143 0.161783
0.010666 0.063365 -0.001951 -0.1636588 -0.4331415 -0.8863432 255 255 255 255 0.330143 0.161783
0.013401 0.065508 0.001833 -0.9002313 0.4016526 0.1681037 255 255 255 255 0.330143 0.161783
0.014395 0.064874 0.000564 0.09340581 0.2039612 -0.9745128 255 255 255 255 0.330143 0.161783
0.014699 0.065288 0.002671 0.1871362 -0.213 0.9589636 255 255 255 255 0.330143 0.161783
0.015511 0.065053 0.00144 0.9353367 -0.3355016 -0.1121786 255 255 255 255 0.330143 0.161783
0.009195 0.067155 -0.002952 -0.9747075 -0.0966696 0.2014955 255 255 255 255 0.330143 0.161783
0.010454 0.067375 -0.002056 0.2208086 0.4607095 0.8596455 255 255 255 255 0.330143 0.161783
0.011266 0.066741 -0.003453 0.9360223 0.08122741 -0.3424388 255 255 255 255 0.330143 0.161783
0.010038 0.066919 -0.004163 -0.2452173 -0.4112875 -0.8779016 255 255 255 255 0.330143 0.161783
0.008169 0.076662 -0.005355 -0.9517206 -0.06735694 0.2994845 255 255 255 255 0.330143 0.161783
0.008872 0.076763 -0.005023 0.3282274 0.1378955 0.9344793 255 255 255 255 0.330143 0.161783
0.009147 0.076432 -0.005781 0.9076623 0.07726555 -0.4125279 255 255 255 255 0.330143 0.161783
0.008478 0.076531 -0.006026 -0.3379429 -0.112259 -0.9344477 255 255 255 255 0.330143 0.161783
0.008155 0.082403 -0.005373 -0.8242674 0.1202564 0.5532827 255 255 255 255 0.330143 0.161783
0.00903 0.082529 -0.004959 0.3136279 -0.1819063 0.9319591 255 255 255 255 0.330143 0.161783
0.009372 0.082116 -0.005904 0.798758 0.01513436 -0.6014621 255 255 255 255 0.330143 0.161783
0.008539 0.08224 -0.006209 -0.3934216 -0.1537335 -0.9064136 255 255 255 255 0.330143 0.161783
0.017191 0.07217 0.00403 -0.8750863 0.39564 0.2787347 255 255 255 255 0.330143 0.161783
0.018001 0.071536 0.002637 -0.1811666 0.1076568 -0.9775422 255 255 255 255 0.330143 0.161783
0.018591 0.07195 0.004682 0.3045142 -0.1068592 0.9464947 255 255 255 255 0.330143 0.161783
0.019226 0.071715 0.003351 0.8968315 -0.3246709 -0.30047 255 255 255 255 0.330143 0.161783
0.018113 0.077933 0.003524 -0.9142883 0.08177207 0.3967243 255 255 255 255 0.330143 0.161783
0.018525 0.077434 0.002384 -0.3490745 0.06073991 -0.9351244 255 255 255 255 0.330143 0.161783
0.01924 0.07775 0.003828 0.4537869 -0.001630217 0.8911088 255 255 255 255 0.330143 0.161783
0.019535 0.077555 0.002754 0.9126459 -0.02139203 -0.408191 255 255 255 255 0.330143 0.161783
0.018808 0.084175 0.004167 -0.893785 0.003311666 0.4484835 255 255 255 255 0.330143 0.161783
0.01916 0.083748 0.003194 -0.5855497 0.1527916 -0.796107 255 255 255 255 0.330143 0.161783
0.019771 0.084019 0.004427 0.6836121 -0.002247408 0.7298421 255 255 255 255 0.330143 0.161783
0.020023 0.083852 0.00351 0.8809149 -0.2600477 -0.395429 255 255 255 255 0.330143 0.161783
-0.002489 0.092088 -0.00484 -0.5273097 0.1097817 -0.8425512 255 255 255 255 0.330143 0.161783
-0.002147 0.092216 -0.003699 -0.08989065 0.1992722 0.9758126 255 255 255 255 0.330143 0.161783
-0.001814 0.092196 -0.004316 0.9521095 -0.2324267 -0.1986589 255 255 255 255 0.330143 0.161783
-0.017409 0.092076 0.005324 -0.7790188 0.02458371 -0.6265185 255 255 255 255 0.330143 0.161783
-0.017023 0.091993 0.005938 -0.2762996 -0.2558454 0.9263918 255 255 255 255 0.330143 0.161783
-0.016472 0.092209 0.005699 0.9847329 0.1697802 -0.03841738 255 255 255 255 0.330143 0.161783
0.020822 0.087293 0.002885 0.1344215 0.4350464 0.8903176 255 255 255 255 0.330143 0.161783
0.02038 0.087098 0.001993 -0.7318051 -0.2096122 -0.6484782 255 255 255 255 0.330143 0.161783
0.021004 0.087173 0.002222 0.8805433 -0.2347141 -0.4117679 255 255 255 255 0.330143 0.161783
0.008526 0.087266 -0.007276 0.9642748 0.2539347 -0.07544152 255 255 255 255 0.330143 0.161783
0.007645 0.087473 -0.006893 -0.6927121 -0.07862692 0.7169154 255 255 255 255 0.330143 0.161783
0.007923 0.087355 -0.007497 -0.398232 -0.1603726 -0.9031566 255 255 255 255 0.330143 0.161783
-0.001549 0.101311 -0.006028 0.2211362 -0.146665 -0.9641516 255 255 255 255 0.330143 0.161783
-0.0013 0.101404 -0.005198 -0.6991777 0.1774205 0.692584 255 255 255 255 0.330143 0.161783
-0.001058 0.101389 -0.005646 0.9945396 -0.07068411 0.07677809 255 255 255 255 0.330143 0.161783
-0.020608 0.100822 0.006466 -0.1089922 0.08935629 -0.9900183 255 255 255 255 0.330143 0.161783
-0.020327 0.100762 0.006913 -0.5333019 -0.2892922 0.7949209 255 255 255 255 0.330143 0.161783
-0.019927 0.100919 0.006738 0.744512 0.2200406 0.6303048 255 255 255 255 0.330143 0.161783
0.020646 0.096305 0.000835 -0.5935478 0.1675005 0.7871751 255 255 255 255 0.330143 0.161783
0.020325 0.096163 0.000186 -0.1281761 -0.1946913 -0.9724537 255 255 255 255 0.330143 0.161783
0.020779 0.096218 0.000352 0.9839875 -0.01224811 -0.1778161 255 255 255 255 0.330143 0.161783
0.007164 0.096378 -0.006885 0.7868356 0.0914188 0.6103544 255 255 255 255 0.330143 0.161783
0.006524 0.096528 -0.006607 -0.9888917 -0.1249727 0.08046832 255 255 255 255 0.330143 0.161783
0.006726 0.096443 -0.007046 -0.08848408 0.03776719 -0.9953614 255 255 255 255 0.330143 0.161783
0.008926 0.085216 -0.004742 -0.9904401 0.1377634 -0.007050727 255 255 255 255 0.330143 0.161783
0.009802 0.085343 -0.004328 0.3367534 -0.2304339 0.9129608 255 255 255 255 0.330143 0.161783
0.010144 0.08493 -0.005272 0.7462218 0.03518511 -0.6647669 255 255 255 255 0.330143 0.161783
-0.017437 0.089815 0.00181 -0.9959345 -0.08808821 0.01884219 255 255 255 255 0.330143 0.161783
-0.016142 0.089999 0.002328 0.778492 0.1324281 0.6135251 255 255 255 255 0.330143 0.161783
-0.016716 0.090104 0.001474 0.2852686 -0.098123 -0.9534116 255 255 255 255 0.330143 0.161783
0.018163 0.090812 0.0044 -0.8903227 -0.06621386 0.4504901 255 255 255 255 0.330143 0.161783
0.018515 0.090385 0.003426 -0.008722876 0.2277956 -0.9736699 255 255 255 255 0.330143 0.161783
0.019125 0.090655 0.004659 0.7667313 -0.1019276 0.6338249 255 255 255 255 0.330143 0.161783
-0.005721 0.090665 -0.004599 -0.8767514 -0.4267132 0.2218623 255 255 255 255 0.330143 0.161783
-0.004797 0.090893 -0.003868 0.5662655 0.09748366 0.8184378 255 255 255 255 0.330143 0.161783
-0.00527 0.090716 -0.005445 0.004527304 0.2339439 -0.9722396 255 255 255 255 0.330143 0.161783
0.009394 0.093162 -0.002427 -0.7311441 0.2301466 -0.6422312 255 255 255 255 0.330143 0.161783
0.009949 0.093242 -0.002164 0.06225755 -0.2647399 0.9623081 255 255 255 255 0.330143 0.161783
0.010166 0.09298 -0.002763 0.9958524 0.02457328 -0.08760183 255 255 255 255 0.330143 0.161783
-0.015785 0.0979 0.001521 -0.8133891 0.1461087 -0.5630724 255 255 255 255 0.330143 0.161783
-0.014963 0.098016 0.00185 0.03618091 0.05417636 0.9978757 255 255 255 255 0.330143 0.161783
-0.015327 0.098083 0.001308 0.5016341 -0.1051912 -0.8586606 255 255 255 255 0.330143 0.161783
0.019636 0.09868 0.006069 -0.983586 0.173968 0.04789482 255 255 255 255 0.330143 0.161783
0.019859 0.098409 0.005452 0.5789617 0.1070985 -0.8082903 255 255 255 255 0.330143 0.161783
0.020246 0.098581 0.006234 0.2205146 -0.2199481 0.9502611 255 255 255 255 0.330143 0.161783
-0.0076 0.098537 -0.003577 -0.9724775 -0.2236089 -0.06547239 255 255 255 255 0.330143 0.161783
-0.007013 0.098681 -0.003113 -0.1713805 -0.1432186 0.9747396 255 255 255 255 0.330143 0.161783
-0.007314 0.098569 -0.004113 0.6307055 0.286394 -0.7212414 255 255 255 255 0.330143 0.161783
3 32 33 41 
3 32 41 42 
3 189 190 191 
3 44 37 29 
3 44 29 30 
3 30 31 43 
3 30 43 44 
3 38 39 35 
3 38 35 36 
3 165 166 167 
3 40 41 33 
3 40 33 34 
3 36 29 37 
3 36 37 38 
3 34 35 39 
3 34 39 40 
3 192 193 194 
3 196 195 197 
3 42 43 31 
3 42 31 32 
3 14 8 19 
3 14 19 18 
3 8 4 20 
3 8 20 19 
3 4 13 17 
3 4 17 20 
3 2 9 22 
3 2 22 21 
3 9 14 18 
3 9 18 22 
3 13 2 21 
3 13 21 17 
3 8 14 24 
3 8 24 23 
3 15 5 26 
3 15 26 25 
3 5 8 23 
3 5 23 26 
3 14 9 27 
3 14 27 24 
3 9 3 28 
3 9 28 27 
3 3 15 25 
3 3 25 28 
3 30 29 8 
3 30 8 5 
3 15 31 30 
3 15 30 5 
3 32 31 15 
3 32 15 3 
3 9 33 32 
3 9 32 3 
3 34 33 9 
3 34 9 2 
3 13 35 34 
3 13 34 2 
3 36 35 13 
3 36 13 4 
3 4 8 29 
3 4 29 36 
3 51 52 11 
3 51 11 6 
3 6 12 50 
3 6 50 51 
3 49 50 12 
3 49 12 0 
3 0 10 48 
3 0 48 49 
3 47 48 10 
3 47 10 1 
3 1 16 46 
3 1 46 47 
3 45 46 16 
3 45 16 7 
3 11 52 45 
3 11 45 7 
3 44 43 46 
3 44 46 45 
3 47 46 43 
3 47 43 42 
3 42 41 48 
3 42 48 47 
3 49 48 41 
3 49 41 40 
3 40 39 50 
3 40 50 49 
3 51 50 39 
3 51 39 38 
3 38 37 52 
3 38 52 51 
3 45 52 37 
3 45 37 44 
3 23 24 54 
3 23 54 53 
3 25 26 56 
3 25 56 55 
3 26 23 53 
3 26 53 56 
3 24 27 57 
3 24 57 54 
3 27 28 58 
3 27 58 57 
3 28 25 55 
3 28 55 58 
3 18 19 61 
3 18 61 60 
3 19 20 62 
3 19 62 61 
3 20 17 59 
3 20 59 62 
3 21 22 64 
3 21 64 63 
3 22 18 60 
3 22 60 64 
3 17 21 63 
3 17 63 59 
3 60 61 67 
3 60 67 66 
3 61 62 68 
3 61 68 67 
3 62 59 65 
3 62 65 68 
3 63 64 70 
3 63 70 69 
3 64 60 66 
3 64 66 70 
3 59 63 69 
3 59 69 65 
3 53 54 72 
3 53 72 71 
3 55 56 74 
3 55 74 73 
3 56 53 71 
3 56 71 74 
3 54 57 75 
3 54 75 72 
3 57 58 76 
3 57 76 75 
3 58 55 73 
3 58 73 76 
3 71 72 78 
3 71 78 77 
3 73 74 80 
3 73 80 79 
3 74 71 77 
3 74 77 80 
3 72 75 81 
3 72 81 78 
3 75 76 82 
3 75 82 81 
3 76 73 79 
3 76 79 82 
3 66 67 85 
3 66 85 84 
3 67 68 86 
3 67 86 85 
3 68 65 83 
3 68 83 86 
3 69 70 88 
3 69 88 87 
3 70 66 84 
3 70 84 88 
3 65 69 87 
3 65 87 83 
3 87 88 90 
3 87 90 89 
3 88 84 91 
3 88 91 90 
3 84 83 92 
3 84 92 91 
3 83 87 89 
3 83 89 92 
3 89 90 94 
3 89 94 93 
3 90 91 95 
3 90 95 94 
3 91 92 96 
3 91 96 95 
3 92 89 93 
3 92 93 96 
3 93 94 98 
3 93 98 97 
3 94 95 99 
3 94 99 98 
3 95 96 100 
3 95 100 99 
3 96 93 97 
3 96 97 100 
3 97 98 102 
3 97 102 101 
3 98 99 103 
3 98 103 102 
3 99 100 104 
3 99 104 103 
3 100 97 101 
3 100 101 104 
3 83 84 106 
3 83 106 105 
3 84 85 107 
3 84 107 106 
3 85 86 108 
3 85 108 107 
3 86 83 105 
3 86 105 108 
3 105 106 110 
3 105 110 109 
3 106 107 111 
3 106 111 110 
3 107 108 112 
3 107 112 111 
3 108 105 109 
3 108 109 112 
3 109 110 114 
3 109 114 113 
3 110 111 115 
3 110 115 114 
3 111 112 116 
3 111 116 115 
3 112 109 113 
3 112 113 116 
3 113 114 118 
3 113 118 117 
3 114 115 119 
3 114 119 118 
3 115 116 120 
3 115 120 119 
3 116 113 117 
3 116 117 120 
3 77 78 122 
3 77 122 121 
3 78 79 123 
3 78 123 122 
3 79 80 124 
3 79 124 123 
3 80 77 121 
3 80 121 124 
3 79 78 125 
3 79 125 126 
3 78 81 127 
3 78 127 125 
3 81 82 128 
3 81 128 127 
3 82 79 126 
3 82 126 128 
3 121 122 130 
3 121 130 129 
3 122 123 131 
3 122 131 130 
3 123 124 132 
3 123 132 131 
3 124 121 129 
3 124 129 132 
3 129 130 134 
3 129 134 133 
3 130 131 135 
3 130 135 134 
3 131 132 136 
3 131 136 135 
3 132 129 133 
3 132 133 136 
3 133 134 138 
3 133 138 137 
3 134 135 139 
3 134 139 138 
3 135 136 140 
3 135 140 139 
3 136 133 137 
3 136 137 140 
3 126 125 141 
3 126 141 142 
3 125 127 143 
3 125 143 141 
3 127 128 144 
3 127 144 143 
3 128 126 142 
3 128 142 144 
3 142 141 145 
3 142 145 146 
3 141 143 147 
3 141 147 145 
3 143 144 148 
3 143 148 147 
3 144 142 146 
3 144 146 148 
3 146 145 149 
3 146 149 150 
3 145 147 151 
3 145 151 149 
3 147 148 152 
3 147 152 151 
3 148 146 150 
3 148 150 152 
3 198 199 200 
3 168 169 170 
3 172 171 173 
3 175 174 176 
3 120 118 154 
3 120 154 153 
3 118 119 155 
3 118 155 154 
3 119 120 153 
3 119 153 155 
3 101 102 157 
3 101 157 156 
3 102 103 158 
3 102 158 157 
3 103 101 156 
3 103 156 158 
3 150 151 159 
3 150 159 160 
3 151 152 161 
3 151 161 159 
3 152 150 160 
3 152 160 161 
3 137 139 162 
3 137 162 163 
3 139 140 164 
3 139 164 162 
3 140 137 163 
3 140 163 164 
3 153 154 166 
3 153 166 165 
3 154 155 167 
3 154 167 166 
3 155 153 165 
3 155 165 167 
3 156 157 169 
3 156 169 168 
3 157 158 170 
3 157 170 169 
3 158 156 168 
3 158 168 170 
3 160 159 171 
3 160 171 172 
3 159 161 173 
3 159 173 171 
3 161 160 172 
3 161 172 173 
3 163 162 174 
3 163 174 175 
3 162 164 176 
3 162 176 174 
3 164 163 175 
3 164 175 176 
3 137 138 178 
3 137 178 177 
3 138 139 179 
3 138 179 178 
3 139 137 177 
3 139 177 179 
3 101 103 181 
3 101 181 180 
3 103 104 182 
3 103 182 181 
3 104 101 180 
3 104 180 182 
3 150 149 183 
3 150 183 184 
3 149 151 185 
3 149 185 183 
3 151 150 184 
3 151 184 185 
3 117 118 187 
3 117 187 186 
3 118 120 188 
3 118 188 187 
3 120 117 186 
3 120 186 188 
3 177 178 190 
3 177 190 189 
3 178 179 191 
3 178 191 190 
3 179 177 189 
3 179 189 191 
3 180 181 193 
3 180 193 192 
3 181 182 194 
3 181 194 193 
3 182 180 192 
3 182 192 194 
3 184 183 195 
3 184 195 196 
3 183 185 197 
3 183 197 195 
3 185 184 196 
3 185 196 197 
3 186 187 199 
3 186 199 198 
3 187 188 200 
3 187 200 199 
3 188 186 198 
3 188 198 200 
