ply
format ascii 1.0
comment VCGLIB generated
comment TextureFile T://3111_3D//2020//SAM//Textures//Combined_Texture//Texture_01_A.png
element vertex 73
property float x
property float y
property float z
property float nx
property float ny
property float nz
property uchar red
property uchar green
property uchar blue
property uchar alpha
property float texture_u
property float texture_v
element face 142
property list uchar int vertex_indices
end_header
0.004576 0 -0.000342 0.2253197 -0.9739246 -0.0264943 255 255 255 255 0.352943 0.189634
0.004269 0 -0.001082 0.1907976 -0.970269 -0.1489109 255 255 255 255 0.352943 0.189634
0.003146 1e-05 -0.002205 0.1047859 -0.9796156 -0.1713859 255 255 255 255 0.352943 0.189634
0.001611 0 -0.002616 0.04295881 -0.9789916 -0.1993236 255 255 255 255 0.352943 0.189634
-0.001457 1e-06 0.000452 -0.2766114 -0.9609005 -0.01250615 255 255 255 255 0.352943 0.189634
-0.001046 3e-06 0.001987 -0.2045767 -0.8501054 0.4852517 255 255 255 255 0.352943 0.189634
0.001074 5e-06 0.002457 -0.08893627 -0.9832374 0.1591682 255 255 255 255 0.352943 0.189634
0.001611 -0 0.000452 -0.0001325078 -1 0.0002138056 255 255 255 255 0.352943 0.189634
-0.000393 0 -0.00302 -0.1190163 -0.9728856 -0.198315 255 255 255 255 0.352943 0.189634
0.003146 -0 0.00311 0.08295666 -0.9775441 0.1937154 255 255 255 255 0.352943 0.189634
-0.003502 0.001093 0.001971 -0.3249868 -0.9314761 0.1635115 255 255 255 255 0.352943 0.189634
0.005084 0.000299 0.002457 0.3572087 -0.9135939 0.194289 255 255 255 255 0.352943 0.189634
0.008204 0.001934 -0.005944 0.7110511 -0.5459157 -0.4431506 255 255 255 255 0.352943 0.189634
-0.001845 0.002387 -0.008799 0.06195925 -0.4292309 -0.9010671 255 255 255 255 0.352943 0.189634
-0.003019 0.001578 -0.006516 -0.2818959 -0.8926138 -0.3518172 255 255 255 255 0.352943 0.189634
0.008688 0.001831 -0.00178 0.678801 -0.7343128 -0.003748875 255 255 255 255 0.352943 0.189634
0.008287 0.001474 -0.003802 0.5948057 -0.7973576 -0.1021132 255 255 255 255 0.352943 0.189634
0.000331 0.0019 0.008885 -0.258231 -0.4747718 0.841373 255 255 255 255 0.352943 0.189634
0.002249 0.0019 0.009137 0.06076421 -0.4501009 0.8909079 255 255 255 255 0.352943 0.189634
0.009357 0.002791 0.000452 0.8684428 -0.4917756 -0.06295852 255 255 255 255 0.352943 0.189634
0.00705 0.002201 -0.007122 0.3295749 -0.6534576 -0.6814497 255 255 255 255 0.352943 0.189634
0.007399 0.001905 0.003277 0.3794764 -0.9110744 0.1610627 255 255 255 255 0.352943 0.189634
-0.001757 0.002097 0.007541 -0.5095708 -0.5757209 0.6394397 255 255 255 255 0.352943 0.189634
0.005533 0.003234 -0.007929 0.2022512 0.1328875 -0.970276 255 255 255 255 0.352943 0.189634
0.00619 0.002535 0.00794 0.2635235 -0.6730813 0.691026 255 255 255 255 0.352943 0.189634
0.00947 0.003358 -0.001756 0.9856374 -0.0910913 -0.1422021 255 255 255 255 0.352943 0.189634
-0.004256 0.003018 -0.008686 -0.3227496 -0.6474626 -0.6903803 255 255 255 255 0.352943 0.189634
-0.009992 0.002387 -0.001643 -0.6264746 -0.7639867 0.1544471 255 255 255 255 0.352943 0.189634
0.009817 0.004582 0.007855 0.6929993 -0.03080849 0.7202797 255 255 255 255 0.352943 0.189634
0.010472 0.002766 0.004345 0.6397461 -0.7665162 0.05637224 255 255 255 255 0.352943 0.189634
-0.010804 0.004647 -0.005122 -0.885599 -0.08309297 -0.4569574 255 255 255 255 0.352943 0.189634
-0.007987 0.004177 0.001932 -0.8019418 -0.05505465 0.5948599 255 255 255 255 0.352943 0.189634
0.011003 0.003605 0.004932 0.9681339 -0.171681 0.1823252 255 255 255 255 0.352943 0.189634
-0.011003 0.003395 -0.002583 -0.9671769 -0.2466243 0.06119879 255 255 255 255 0.352943 0.189634
-0.004059 0.004727 0.006123 -0.6643932 0.0915035 0.7417606 255 255 255 255 0.352943 0.189634
0.003831 0.004059 0.008486 0.06327537 0.2504666 0.9660552 255 255 255 255 0.352943 0.189634
-0.000304 0.005194 -0.006705 0.1817328 0.6249307 -0.7592331 255 255 255 255 0.352943 0.189634
-0.004385 0.004356 -0.009137 -0.1035357 0.1790225 -0.9783821 255 255 255 255 0.352943 0.189634
0.008768 0.008718 -0.001465 0.7566963 0.5585276 -0.3397906 255 255 255 255 0.352943 0.189634
0.007515 0.003363 -0.007105 0.6409333 0.2378652 -0.7298114 255 255 255 255 0.352943 0.189634
-0.007014 0.006543 -0.007351 -0.3361795 0.6758294 -0.6559253 255 255 255 255 0.352943 0.189634
-0.010206 0.005723 -0.004654 -0.7021992 0.7064144 -0.08885425 255 255 255 255 0.352943 0.189634
-0.002398 0.010525 0.004462 -0.4682114 0.8154554 0.3403097 255 255 255 255 0.352943 0.189634
-0.002093 0.006791 0.006868 -0.4423607 0.3602009 0.8213236 255 255 255 255 0.352943 0.189634
0.006714 0.004961 0.008413 0.07667059 0.2195018 0.9725947 255 255 255 255 0.352943 0.189634
-0.003212 0.006265 -0.007143 0.188176 0.7718986 -0.6072581 255 255 255 255 0.352943 0.189634
-0.007782 0.005909 0.001508 -0.744832 0.5383512 0.3942123 255 255 255 255 0.352943 0.189634
-0.003898 0.008478 0.003633 -0.7748384 0.5579034 0.2972697 255 255 255 255 0.352943 0.189634
-0.000258 0.006257 0.007706 -0.1404998 0.3796955 0.9143802 255 255 255 255 0.352943 0.189634
0.009063 0.005904 0.007409 0.469372 0.6838678 0.5585828 255 255 255 255 0.352943 0.189634
0.00759 0.005306 -0.004953 0.7004004 0.4662693 -0.5404003 255 255 255 255 0.352943 0.189634
0.005367 0.007067 -0.004804 0.1564753 0.6916686 -0.7050604 255 255 255 255 0.352943 0.189634
0.009336 0.007201 0.003372 0.6521123 0.7193027 0.2394852 255 255 255 255 0.352943 0.189634
0.007757 0.009562 -0.001194 0.4138673 0.8899875 -0.1914058 255 255 255 255 0.352943 0.189634
-0.00798 0.006787 -0.004304 -0.3359437 0.9403037 -0.05450444 255 255 255 255 0.352943 0.189634
-0.004371 0.007861 0.001578 -0.4724073 0.8695673 -0.1438198 255 255 255 255 0.352943 0.189634
0.006554 0.009562 0.000954 0.2357164 0.9367943 0.2585621 255 255 255 255 0.352943 0.189634
0.006522 0.009347 -0.002383 0.2059387 0.796207 -0.5688969 255 255 255 255 0.352943 0.189634
0.000348 0.007358 -0.004263 0.02061679 0.8350506 -0.5497867 255 255 255 255 0.352943 0.189634
0.000348 0.010525 0.005168 0.1689444 0.8837124 0.436475 255 255 255 255 0.352943 0.189634
0.003427 0.006324 0.007187 0.08114231 0.5938726 0.8004569 255 255 255 255 0.352943 0.189634
0.00629 0.007857 0.003391 0.3247944 0.8539352 0.4065752 255 255 255 255 0.352943 0.189634
-0.002296 0.007926 -0.002929 -0.1350175 0.9536294 -0.2690005 255 255 255 255 0.352943 0.189634
-0.001861 0.010451 0.002457 -0.2538088 0.9010622 -0.3516648 255 255 255 255 0.352943 0.189634
0.002649 0.009278 0.004325 0.3655934 0.8780545 0.3088071 255 255 255 255 0.352943 0.189634
0.003781 0.00972 -0.001718 -0.1301992 0.8463296 -0.516502 255 255 255 255 0.352943 0.189634
0.000574 0.009103 -0.001345 -0.1334339 0.9421507 -0.3074858 255 255 255 255 0.352943 0.189634
-0.000186 0.009103 -0.000585 -0.2102194 0.9680604 -0.1366269 255 255 255 255 0.352943 0.189634
-0.001353 0.009521 0.001247 -0.2828273 0.6892384 -0.6670526 255 255 255 255 0.352943 0.189634
0.003616 0.009649 -8.5e-05 -0.06973276 0.9964927 0.04625521 255 255 255 255 0.352943 0.189634
-0.000464 0.009146 0.000452 -0.2036546 0.9229843 -0.3265345 255 255 255 255 0.352943 0.189634
0.001611 0.009622 0.002528 0.3847167 0.9115884 -0.1449125 255 255 255 255 0.352943 0.189634
0.001611 0.0093 0.000452 -0.05197341 0.9950396 -0.08482344 255 255 255 255 0.352943 0.189634
3 7 2 1 
3 7 3 2 
3 7 5 4 
3 3 7 8 
3 8 7 4 
3 5 7 6 
3 7 9 6 
3 7 0 9 
3 4 5 10 
3 9 0 11 
3 1 15 0 
3 1 2 15 
3 2 3 12 
3 3 8 13 
3 8 4 14 
3 14 4 10 
3 10 5 6 
3 21 11 15 
3 0 15 11 
3 15 2 16 
3 3 13 12 
3 8 14 13 
3 6 22 10 
3 22 6 17 
3 6 9 17 
3 17 9 18 
3 9 11 18 
3 18 11 21 
3 15 19 21 
3 16 2 12 
3 12 13 20 
3 14 10 27 
3 18 21 29 
3 21 19 29 
3 13 23 20 
3 13 14 27 
3 10 22 27 
3 18 29 24 
3 16 25 15 
3 16 12 25 
3 13 27 26 
3 24 29 28 
3 15 25 19 
3 26 27 30 
3 27 22 31 
3 29 19 32 
3 27 33 30 
3 27 31 33 
3 22 34 31 
3 22 17 34 
3 18 35 17 
3 18 24 35 
3 35 24 28 
3 13 36 23 
3 13 26 37 
3 37 26 30 
3 29 32 28 
3 32 19 38 
3 12 20 39 
3 20 23 39 
3 36 13 37 
3 30 40 37 
3 30 41 40 
3 30 33 41 
3 34 43 42 
3 34 17 43 
3 35 28 44 
3 19 25 38 
3 25 50 38 
3 12 39 25 
3 25 39 50 
3 37 40 45 
3 33 31 41 
3 41 31 46 
3 31 34 46 
3 46 34 47 
3 34 42 47 
3 17 48 43 
3 17 35 48 
3 35 44 60 
3 28 49 44 
3 28 32 49 
3 50 53 38 
3 39 23 51 
3 23 36 51 
3 37 45 36 
3 35 60 48 
3 32 38 52 
3 52 38 53 
3 53 50 57 
3 41 54 40 
3 41 46 55 
3 46 47 55 
3 42 43 59 
3 43 48 59 
3 32 52 49 
3 52 53 56 
3 39 51 50 
3 50 51 57 
3 51 36 58 
3 40 62 45 
3 40 54 62 
3 41 55 54 
3 55 47 42 
3 48 60 59 
3 49 52 61 
3 52 56 61 
3 51 66 57 
3 57 66 65 
3 36 45 58 
3 58 45 62 
3 62 54 55 
3 55 42 63 
3 42 59 63 
3 60 64 59 
3 44 64 60 
3 49 64 44 
3 49 61 64 
3 61 56 64 
3 57 65 53 
3 51 58 66 
3 58 62 66 
3 62 67 66 
3 62 55 67 
3 55 63 68 
3 64 56 69 
3 56 53 69 
3 53 65 69 
3 55 70 67 
3 55 68 70 
3 63 59 71 
3 59 64 71 
3 66 72 65 
3 63 72 68 
3 63 71 72 
3 64 72 71 
3 72 64 69 
3 65 72 69 
3 66 67 72 
3 67 70 72 
3 1 0 7 
3 70 68 72 
