ply
format ascii 1.0
comment VCGLIB generated
comment TextureFile Textures//Combined_Texture//Texture_01_A.png
element vertex 119
property float x
property float y
property float z
property float nx
property float ny
property float nz
property uchar red
property uchar green
property uchar blue
property uchar alpha
property float texture_u
property float texture_v
element face 234
property list uchar int vertex_indices
end_header
-0.003155 0.002074 0.005682 -0.1123144 -0.4304931 0.8955787 255 255 255 255 0.351565 0.190773
0.004114 0.005416 0.006492 -0.08231001 0.4458058 0.8913374 255 255 255 255 0.351565 0.190773
-0.006438 0.005607 0.006009 -0.0363353 0.4748316 0.8793262 255 255 255 255 0.351565 0.190773
0.006762 0.008426 0.005439 -0.4098007 0.04120967 0.9112437 255 255 255 255 0.351565 0.190773
0.005958 0.012035 0.003925 -0.5212769 0.6956478 0.4943123 255 255 255 255 0.351565 0.190773
-0.004965 0.010651 0.003143 -0.272354 0.777629 0.5666714 255 255 255 255 0.351565 0.190773
0.002557 0.012134 0.003105 0.02958203 0.8681896 0.49535 255 255 255 255 0.351565 0.190773
0.003584 0.012079 -0.004089 0.09368385 0.9246579 -0.3690952 255 255 255 255 0.351565 0.190773
0.005914 0.011913 -0.00325 -0.0810753 0.9516352 -0.2963398 255 255 255 255 0.351565 0.190773
-0.007362 0.006582 -0.00502 -0.2779514 0.4608292 -0.8428401 255 255 255 255 0.351565 0.190773
0.003786 0.006772 -0.005506 0.1141895 0.6762089 -0.7278066 255 255 255 255 0.351565 0.190773
-0.011483 0.005274 -0.004151 -0.7343058 0.5417449 -0.4090322 255 255 255 255 0.351565 0.190773
-0.01115 0.00224 -0.005958 -0.4495027 -0.500589 -0.7398365 255 255 255 255 0.351565 0.190773
-0.00321 0.003244 -0.007139 -0.1511019 -0.01173055 -0.9884486 255 255 255 255 0.351565 0.190773
-0.006056 0.001658 -0.003184 -0.1347331 -0.9906473 -0.02156493 255 255 255 255 0.351565 0.190773
0.006626 0.000734 -0.00633 0.1725537 -0.9330139 -0.3157692 255 255 255 255 0.351565 0.190773
0.004136 0.000734 0.006392 -0.1538597 -0.8417438 0.5174887 255 255 255 255 0.351565 0.190773
0.006805 0.000671 0.007716 -0.1860779 -0.4274778 0.8846682 255 255 255 255 0.351565 0.190773
-0.012044 0.002335 0.005132 -0.7253193 -0.4546714 0.5169003 255 255 255 255 0.351565 0.190773
0.011076 0.005335 -0.007584 0.451022 0.4354874 -0.7790571 255 255 255 255 0.351565 0.190773
0.011225 0.006461 0.004512 0.9368294 0.256896 0.2373923 255 255 255 255 0.351565 0.190773
0.011918 0.012463 -0.004083 0.643618 0.6653215 -0.3782899 255 255 255 255 0.351565 0.190773
-0.009713 0.008088 -0.003003 -0.6790563 0.1995867 -0.7064331 255 255 255 255 0.351565 0.190773
0.012079 0.001266 0.006665 0.8491715 0.04267649 0.5263903 255 255 255 255 0.351565 0.190773
0.012099 0.002866 -0.005932 0.9531526 -0.04743468 -0.2987475 255 255 255 255 0.351565 0.190773
0.011225 0.005352 0.007339 0.3611514 0.3687937 0.8564817 255 255 255 255 0.351565 0.190773
0.012351 0.005427 -0.002627 0.941467 0.3341659 -0.04441975 255 255 255 255 0.351565 0.190773
0.010902 0.006852 -0.004518 0.6936504 0.3204331 -0.6451139 255 255 255 255 0.351565 0.190773
0.011916 0.012516 0.003793 0.6599014 0.6903458 0.2965685 255 255 255 255 0.351565 0.190773
0.012409 0.01065 0.001217 0.9956589 0.09153165 0.01689376 255 255 255 255 0.351565 0.190773
-0.012134 0.002798 -0.004191 -0.9343645 -0.1643655 -0.3161439 255 255 255 255 0.351565 0.190773
-0.012336 0.005253 0.004218 -0.8647956 0.4150849 0.2825476 255 255 255 255 0.351565 0.190773
-0.010588 0.007989 -0.000953 -0.9803739 -0.1732818 -0.09402331 255 255 255 255 0.351565 0.190773
-0.010567 0.008129 0.001966 -0.941474 -0.2116116 0.2623877 255 255 255 255 0.351565 0.190773
-0.010479 0.010325 0.001217 -0.8356789 0.5428533 0.08337339 255 255 255 255 0.351565 0.190773
0.010463 8e-06 0.007415 0.2309761 -0.6417025 0.7313466 255 255 255 255 0.351565 0.190773
0.003993 0.00232 0.006541 -0.2620777 0.1671913 0.9504538 255 255 255 255 0.351565 0.190773
0.005624 0.002009 0.007272 -0.2678819 0.02803671 0.9630437 255 255 255 255 0.351565 0.190773
0.008989 0.001898 0.007555 0.05679147 0.03296178 0.9978418 255 255 255 255 0.351565 0.190773
0.000382 0.004382 0.006447 -0.1600615 0.1324396 0.9781821 255 255 255 255 0.351565 0.190773
-0.00782 0.002135 0.005989 -0.06405118 -0.5317253 0.8444914 255 255 255 255 0.351565 0.190773
-0.011483 0.005274 0.005327 -0.4808748 0.4639551 0.7439793 255 255 255 255 0.351565 0.190773
-0.009547 0.006735 0.003133 -0.5273292 0.6190021 0.5820312 255 255 255 255 0.351565 0.190773
0.005831 0.006868 0.004619 -0.2236621 0.4693059 0.8542408 255 255 255 255 0.351565 0.190773
-0.004908 0.007851 0.003786 -0.01511716 0.2287892 0.9733586 255 255 255 255 0.351565 0.190773
-0.001309 0.006614 0.004033 -0.1708404 0.6009979 0.7807785 255 255 255 255 0.351565 0.190773
0.009922 0.006855 0.006444 0.197319 0.5779776 0.7918379 255 255 255 255 0.351565 0.190773
-0.001201 0.008066 0.003432 -0.1952054 0.2097199 0.9580775 255 255 255 255 0.351565 0.190773
0.000743 0.008702 0.004227 -0.2554421 0.2178811 0.941954 255 255 255 255 0.351565 0.190773
-0.004611 0.009854 0.003911 0.03511278 0.3425799 0.9388323 255 255 255 255 0.351565 0.190773
0.00771 0.010625 0.005527 -0.1679016 0.1831914 0.9686331 255 255 255 255 0.351565 0.190773
-0.002771 0.010061 0.003377 -0.05300756 0.3986324 0.9155777 255 255 255 255 0.351565 0.190773
0.000359 0.01153 0.004 -0.1357337 0.6891927 0.7117512 255 255 255 255 0.351565 0.190773
0.00468 0.010891 0.003138 -0.1307206 0.4297947 0.8934141 255 255 255 255 0.351565 0.190773
0.011225 0.008377 0.005088 0.4563944 0.1877709 0.8697392 255 255 255 255 0.351565 0.190773
-0.004512 0.010896 0.002066 -0.09987241 0.9703292 0.2201973 255 255 255 255 0.351565 0.190773
0.004686 0.011943 0.00116 -0.05524477 0.9957233 -0.07404807 255 255 255 255 0.351565 0.190773
0.006199 0.01234 0.002331 -0.1823462 0.9781377 0.09998254 255 255 255 255 0.351565 0.190773
0.010936 0.012509 -0.004585 0.09466968 0.6818212 -0.7253672 255 255 255 255 0.351565 0.190773
-0.009933 0.010498 0.002983 -0.5037906 0.6017109 0.6197896 255 255 255 255 0.351565 0.190773
0.000853 0.011903 0.002953 -0.1160141 0.9481848 0.2957808 255 255 255 255 0.351565 0.190773
0.012001 0.011943 0.000678 0.8803589 0.4727386 -0.0385554 255 255 255 255 0.351565 0.190773
-0.004825 0.011042 -0.00348 -0.3273133 0.7695909 -0.5482663 255 255 255 255 0.351565 0.190773
-0.007549 0.009932 -0.002683 -0.1064858 0.5847214 -0.8042149 255 255 255 255 0.351565 0.190773
-0.006834 0.010878 -0.001385 -0.1864434 0.9783276 -0.09007765 255 255 255 255 0.351565 0.190773
0.008366 0.012455 -0.0037 -0.16426 0.8228989 -0.5439267 255 255 255 255 0.351565 0.190773
-0.010259 0.010561 -0.002228 -0.6951019 0.635314 -0.3364663 255 255 255 255 0.351565 0.190773
0.005586 0.010865 -0.004582 0.1307719 0.2660513 -0.9550474 255 255 255 255 0.351565 0.190773
0.002872 0.011677 -0.004724 0.004525146 0.4967217 -0.8678981 255 255 255 255 0.351565 0.190773
-0.009417 0.010574 -0.002964 -0.1814648 0.6360564 -0.7500018 255 255 255 255 0.351565 0.190773
-0.003239 0.008063 -0.005484 -0.1098509 0.5272913 -0.8425537 255 255 255 255 0.351565 0.190773
-0.001771 0.011583 -0.004201 -0.120211 0.8004525 -0.5872181 255 255 255 255 0.351565 0.190773
0.011467 0.008377 -0.004679 0.4127606 -0.08478408 -0.906885 255 255 255 255 0.351565 0.190773
0.006705 0.00823 -0.004192 0.02727773 0.2601754 -0.965176 255 255 255 255 0.351565 0.190773
0.003048 0.008267 -0.004804 0.09153144 0.2802302 -0.955559 255 255 255 255 0.351565 0.190773
0.006094 0.006816 -0.004966 0.08371367 0.6468925 -0.7579723 255 255 255 255 0.351565 0.190773
-0.003994 0.006831 -0.00651 -0.189308 0.4890328 -0.8514748 255 255 255 255 0.351565 0.190773
0.003053 0.005402 -0.00767 0.04908869 0.4456021 -0.8938843 255 255 255 255 0.351565 0.190773
0.006705 0.005416 -0.007053 0.02658263 0.5004662 -0.8653479 255 255 255 255 0.351565 0.190773
-0.004976 0.005122 -0.00669 -0.3147978 0.1555381 -0.9363281 255 255 255 255 0.351565 0.190773
-0.00986 0.00532 -0.005912 -0.2310007 0.4369211 -0.8693323 255 255 255 255 0.351565 0.190773
0.006816 0.001213 -0.007095 0.1111685 -0.5467591 -0.8298772 255 255 255 255 0.351565 0.190773
0.011172 0.002033 -0.007291 0.460408 -0.35515 -0.8135681 255 255 255 255 0.351565 0.190773
0.004009 0.000995 -0.007715 0.0570343 -0.5381451 -0.8409203 255 255 255 255 0.351565 0.190773
-0.005064 0.001781 -0.006652 -0.302551 -0.609551 -0.7327418 255 255 255 255 0.351565 0.190773
-0.003772 0.001129 -0.005064 -0.18261 -0.9749457 -0.1270214 255 255 255 255 0.351565 0.190773
0.003607 0.000437 -0.006515 -0.01869627 -0.9708944 -0.2387773 255 255 255 255 0.351565 0.190773
0.010936 8e-06 -0.00514 0.2061779 -0.8991779 -0.385966 255 255 255 255 0.351565 0.190773
0.011998 9e-06 -0.003993 0.6941113 -0.7085214 -0.1273063 255 255 255 255 0.351565 0.190773
-0.012338 0.001976 -0.001333 -0.8228368 -0.5681618 -0.01147632 255 255 255 255 0.351565 0.190773
0.00676 6.2e-05 0.006267 -0.1577454 -0.9745314 0.1593897 255 255 255 255 0.351565 0.190773
-0.009735 0.001892 0.005226 -0.1302847 -0.9300146 0.3436551 255 255 255 255 0.351565 0.190773
0.000455 0.00075 0.006048 -0.1818835 -0.711536 0.678701 255 255 255 255 0.351565 0.190773
0.006764 0.005332 0.007184 -0.164012 0.4492219 0.8782368 255 255 255 255 0.351565 0.190773
-0.001133 0.005457 0.005672 -0.1712654 0.4972714 0.8505229 255 255 255 255 0.351565 0.190773
-0.005691 0.006688 0.004414 -0.07406175 0.7181951 0.6918892 255 255 255 255 0.351565 0.190773
0.001487 0.00676 0.005607 -0.1065242 0.5462145 0.8308444 255 255 255 255 0.351565 0.190773
-0.009665 0.007773 0.003051 -0.5051566 -0.0111913 0.8629552 255 255 255 255 0.351565 0.190773
0.001619 0.010501 0.004321 0.0299962 0.31525 0.9485345 255 255 255 255 0.351565 0.190773
-0.006129 0.010683 0.001913 -0.08965982 0.9780275 0.1882112 255 255 255 255 0.351565 0.190773
-0.004274 0.011263 -0.00207 -0.154517 0.9879475 -0.009178074 255 255 255 255 0.351565 0.190773
-0.009822 0.010616 0.001103 -0.2032764 0.9787408 0.0273 255 255 255 255 0.351565 0.190773
-0.009383 0.006762 -0.003763 -0.5465675 0.5893521 -0.5949187 255 255 255 255 0.351565 0.190773
-0.00777 0.001992 -0.005516 -0.137495 -0.7210354 -0.6791193 255 255 255 255 0.351565 0.190773
0.008249 6.2e-05 -0.003515 -0.1557804 -0.9841417 -0.08483851 255 255 255 255 0.351565 0.190773
0.001875 0.000495 0.00434 -0.02928699 -0.9985666 0.04480024 255 255 255 255 0.351565 0.190773
0.011916 -0 0.006045 0.6300955 -0.7402399 0.2345731 255 255 255 255 0.351565 0.190773
-0.003323 0.001658 0.005053 -0.1592517 -0.9395552 0.3031088 255 255 255 255 0.351565 0.190773
0.012408 0.000612 0.001218 0.9934615 0.08568101 -0.07545229 255 255 255 255 0.351565 0.190773
0.011865 0.001906 0.005365 0.9959885 0.06888256 0.05711534 255 255 255 255 0.351565 0.190773
0.011143 0.002798 0.007419 0.3935531 -0.1254227 0.9107059 255 255 255 255 0.351565 0.190773
0.012079 0.002783 0.006666 0.8071182 -0.37067 0.4595259 255 255 255 255 0.351565 0.190773
0.01216 0.005232 0.006552 0.8515464 0.3532906 0.3873686 255 255 255 255 0.351565 0.190773
0.012198 0.008312 -0.003876 0.905749 -0.2694351 -0.3271447 255 255 255 255 0.351565 0.190773
0.01216 0.008518 0.0043 0.9080385 -0.1195647 0.4014603 255 255 255 255 0.351565 0.190773
0.010463 0.012509 0.005163 0.2138858 0.678431 0.7028402 255 255 255 255 0.351565 0.190773
-0.011879 0.003096 0.004528 -0.9937001 0.09029251 0.06638812 255 255 255 255 0.351565 0.190773
-0.012409 0.005247 -0.001392 -0.8932904 0.4444709 -0.0669177 255 255 255 255 0.351565 0.190773
-0.010063 0.006633 -0.002713 -0.8068666 0.5261286 -0.2686171 255 255 255 255 0.351565 0.190773
3 16 92 105 
3 16 37 92 
3 40 107 0 
3 92 0 107 
3 16 17 37 
3 37 17 38 
3 90 35 17 
3 17 35 38 
3 35 23 38 
3 92 37 36 
3 92 36 0 
3 38 23 110 
3 36 37 1 
3 0 2 40 
3 39 0 36 
3 37 93 1 
3 93 37 38 
3 31 116 41 
3 41 116 18 
3 110 111 25 
3 112 25 111 
3 18 40 41 
3 2 41 40 
3 2 0 94 
3 0 39 94 
3 39 36 1 
3 39 96 94 
3 93 38 25 
3 38 110 25 
3 2 95 41 
3 41 95 42 
3 45 94 96 
3 96 39 1 
3 31 41 42 
3 45 95 2 
3 94 45 2 
3 93 46 43 
3 25 46 93 
3 45 44 95 
3 93 43 1 
3 1 43 96 
3 45 96 47 
3 43 46 3 
3 42 95 44 
3 96 48 47 
3 96 43 48 
3 46 54 3 
3 46 114 54 
3 42 44 97 
3 44 49 97 
3 45 47 44 
3 47 48 52 
3 43 3 53 
3 4 53 3 
3 3 50 4 
3 50 3 115 
3 115 4 50 
3 54 115 3 
3 97 49 59 
3 52 51 47 
3 48 98 52 
3 60 51 52 
3 44 47 51 
3 44 51 49 
3 5 49 51 
3 5 51 55 
3 52 98 60 
3 6 60 98 
3 43 98 48 
3 98 43 53 
3 98 53 6 
3 7 6 56 
3 49 99 59 
3 55 99 5 
3 5 99 49 
3 69 99 55 
3 53 57 6 
3 6 57 56 
3 4 57 53 
3 57 115 28 
3 57 28 58 
3 60 55 51 
3 60 6 7 
3 57 4 115 
3 59 101 34 
3 66 34 101 
3 69 101 99 
3 99 101 59 
3 8 56 57 
3 8 7 56 
3 55 100 64 
3 60 100 55 
3 60 7 100 
3 28 61 58 
3 21 58 61 
3 64 100 62 
3 100 71 62 
3 64 69 55 
3 57 65 8 
3 58 65 57 
3 69 66 101 
3 100 7 71 
3 7 8 67 
3 67 8 65 
3 68 71 7 
3 66 69 22 
3 7 67 68 
3 73 68 67 
3 73 67 65 
3 62 71 70 
3 74 71 68 
3 63 22 69 
3 22 63 9 
3 64 63 69 
3 64 62 63 
3 63 62 70 
3 70 71 74 
3 74 68 73 
3 73 65 58 
3 58 72 73 
3 63 70 9 
3 73 10 74 
3 118 22 102 
3 22 9 102 
3 70 76 9 
3 74 10 70 
3 73 72 75 
3 27 75 72 
3 76 70 10 
3 10 73 75 
3 102 80 11 
3 76 10 77 
3 10 78 77 
3 10 75 78 
3 78 75 19 
3 75 27 19 
3 80 102 9 
3 76 79 9 
3 9 79 103 
3 77 78 83 
3 11 80 12 
3 79 76 13 
3 19 81 78 
3 19 82 81 
3 13 76 77 
3 78 81 83 
3 79 84 103 
3 80 9 103 
3 13 77 83 
3 79 13 84 
3 13 83 84 
3 80 103 12 
3 12 103 14 
3 14 103 84 
3 84 85 14 
3 84 83 85 
3 87 81 82 
3 83 81 86 
3 15 86 81 
3 104 81 87 
3 85 83 86 
3 81 104 15 
3 12 89 30 
3 87 88 104 
3 90 15 104 
3 14 89 12 
3 85 86 105 
3 105 86 15 
3 88 106 104 
3 89 91 18 
3 14 91 89 
3 85 105 92 
3 92 14 85 
3 16 105 15 
3 15 90 16 
3 107 14 92 
3 104 35 90 
3 35 104 106 
3 18 91 40 
3 14 107 91 
3 17 16 90 
3 40 91 107 
3 106 23 35 
3 87 82 88 
3 88 108 106 
3 106 108 23 
3 88 109 108 
3 23 108 109 
3 23 109 110 
3 88 82 24 
3 24 109 88 
3 111 109 24 
3 109 111 110 
3 19 26 24 
3 111 24 112 
3 112 24 26 
3 19 24 82 
3 19 27 26 
3 20 112 26 
3 112 46 25 
3 20 46 112 
3 26 27 20 
3 113 27 72 
3 46 20 114 
3 21 113 72 
3 27 113 20 
3 20 113 114 
3 113 29 114 
3 114 29 28 
3 28 115 114 
3 113 21 29 
3 28 29 61 
3 61 29 21 
3 72 58 21 
3 114 115 54 
3 18 30 89 
3 18 116 30 
3 30 116 31 
3 30 11 12 
3 30 117 11 
3 30 31 117 
3 11 117 118 
3 102 11 118 
3 117 31 118 
3 42 118 31 
3 118 42 32 
3 32 22 118 
3 42 33 32 
3 33 42 97 
3 33 34 32 
3 32 34 66 
3 22 32 66 
3 33 59 34 
3 97 59 33 
