ply
format ascii 1.0
comment VCGLIB generated
comment TextureFile Textures//Combined_Texture//Texture_01_A.png
element vertex 277
property float x
property float y
property float z
property float nx
property float ny
property float nz
property uchar red
property uchar green
property uchar blue
property uchar alpha
property float texture_u
property float texture_v
element face 550
property list uchar int vertex_indices
end_header
0.047563 0.215764 -0.009825 0.5736172 0.7866242 -0.228442 255 255 255 255 0.351899 0.185976
0.01383 0.02806 -0.128968 0.01073842 0.1722772 -0.98499 255 255 255 255 0.351899 0.185976
0.044149 0.162424 -0.037915 0.4178665 0.271642 -0.8669477 255 255 255 255 0.351899 0.185976
0.083983 0.013204 0.152086 0.3231588 0.2512674 0.9123777 255 255 255 255 0.351899 0.185976
-0.03401 0.185841 -0.002863 -0.7576317 0.4815079 -0.4406182 255 255 255 255 0.351899 0.185976
0.011167 0.046871 0.14452 -0.03141121 0.511582 0.8586602 255 255 255 255 0.351899 0.185976
0.085232 0.002066 -0.083565 0.2125549 -0.9591727 -0.1865693 255 255 255 255 0.351899 0.185976
-0.165197 0.004958 0.061946 -0.7881451 -0.3306322 0.5191433 255 255 255 255 0.351899 0.185976
0.077391 0.074575 0.088101 0.5717407 0.2802338 0.7710912 255 255 255 255 0.351899 0.185976
-0.141704 0.055512 -0.035319 -0.7568407 0.6428009 -0.1183183 255 255 255 255 0.351899 0.185976
0.023972 0.059321 -0.11733 0.07372508 0.827852 -0.5560807 255 255 255 255 0.351899 0.185976
0.115266 0.057004 0.027741 0.3927382 0.9162586 0.07891031 255 255 255 255 0.351899 0.185976
0.039426 0.089788 -0.062762 0.1745542 0.4068089 -0.8966813 255 255 255 255 0.351899 0.185976
-0.020533 0.115864 0.084032 -0.07484277 0.2866918 0.955095 255 255 255 255 0.351899 0.185976
0.032898 0.066964 -0.082362 0.1802672 0.8920445 -0.4144397 255 255 255 255 0.351899 0.185976
0.090962 0.034339 -0.099121 0.574248 -0.1003271 -0.8125108 255 255 255 255 0.351899 0.185976
0.150276 0.00371 0.026664 0.724839 -0.5969031 0.3439698 255 255 255 255 0.351899 0.185976
-0.07399 0.135209 0.013425 -0.7533298 0.6466424 -0.1197828 255 255 255 255 0.351899 0.185976
-0.148952 0.036759 0.041144 -0.747763 0.6496799 0.1369911 255 255 255 255 0.351899 0.185976
-0.047464 0.005088 0.122379 -0.4876683 -0.7057555 0.5138958 255 255 255 255 0.351899 0.185976
0.160574 0.015152 -0.040072 0.8425322 0.08561148 -0.531799 255 255 255 255 0.351899 0.185976
-0.071089 0.057769 0.072626 -0.3301619 0.5993145 0.7292566 255 255 255 255 0.351899 0.185976
-0.066993 0.044991 0.098062 -0.5120722 0.5650884 0.6468827 255 255 255 255 0.351899 0.185976
0.103661 0.034254 0.105354 0.6811624 0.6222565 0.385765 255 255 255 255 0.351899 0.185976
-0.041871 0.105057 0.082444 -0.6319332 0.2152185 0.7445412 255 255 255 255 0.351899 0.185976
0.087111 0.130554 0.039296 0.9085953 0.3696113 0.1945306 255 255 255 255 0.351899 0.185976
-0.097551 0.053485 -0.069941 -0.5686676 -0.1457568 -0.8095506 255 255 255 255 0.351899 0.185976
-0.010945 0.008511 0.153509 -0.3078985 -0.3523499 0.8837693 255 255 255 255 0.351899 0.185976
0.042754 0.123045 0.08516 0.06869201 0.5830539 0.8095242 255 255 255 255 0.351899 0.185976
-0.006776 0.186465 -0.027976 -0.5714435 0.2269804 -0.7886268 255 255 255 255 0.351899 0.185976
-0.004359 0.196091 0.019823 0.02402149 0.8478917 0.529625 255 255 255 255 0.351899 0.185976
0.000392 0.155177 0.079825 0.01857385 0.523028 0.8521131 255 255 255 255 0.351899 0.185976
0.025455 0.216729 0.008705 -0.03104314 0.8663635 0.4984482 255 255 255 255 0.351899 0.185976
0.070598 0.15189 -0.015413 0.8306484 0.4069129 -0.3800594 255 255 255 255 0.351899 0.185976
-0.060389 0.160166 0.015656 -0.8097857 0.5859139 -0.03085544 255 255 255 255 0.351899 0.185976
0.047551 0.215626 0.007938 0.4597657 0.7873495 0.4107267 255 255 255 255 0.351899 0.185976
0.101569 0.06715 0.012341 0.7281386 0.6853617 0.009670092 255 255 255 255 0.351899 0.185976
0.040815 0.080056 0.102997 0.3623513 0.6651952 0.652853 255 255 255 255 0.351899 0.185976
-0.012219 0.05928 0.131812 -0.1819632 0.7501834 0.6356999 255 255 255 255 0.351899 0.185976
-0.063516 0.085822 -0.078399 -0.3187251 0.8149414 -0.4840299 255 255 255 255 0.351899 0.185976
-0.063754 0.032811 -0.093374 -0.2406079 0.3543063 -0.9036453 255 255 255 255 0.351899 0.185976
-0.156014 0.020694 -0.040801 -0.7698359 -0.09533846 -0.6310811 255 255 255 255 0.351899 0.185976
0.075463 0.003565 0.154352 0.1235762 -0.4335209 0.8926301 255 255 255 255 0.351899 0.185976
-0.163931 0.02788 0.015234 -0.7548615 0.6542705 -0.04598022 255 255 255 255 0.351899 0.185976
-0.032042 0.01852 -0.123393 -0.2976145 0.3377256 -0.8929542 255 255 255 255 0.351899 0.185976
0.0546 0.046199 -0.128753 0.2539355 -0.03260669 -0.9666714 255 255 255 255 0.351899 0.185976
0.164842 0.030598 -0.013578 0.9197866 0.3916452 0.02463205 255 255 255 255 0.351899 0.185976
-0.164722 0.003317 -0.005332 -0.9588457 0.277096 -0.06190984 255 255 255 255 0.351899 0.185976
-0.132482 0.002673 -0.072894 -0.673416 -0.6046228 -0.425373 255 255 255 255 0.351899 0.185976
0.146594 0.001427 -0.041585 0.1080191 -0.9900519 -0.09016266 255 255 255 255 0.351899 0.185976
-0.171292 0.005038 0.025239 -0.9894623 -0.1208083 -0.07981195 255 255 255 255 0.351899 0.185976
-0.089447 0.041945 -0.083871 -0.4533909 0.4765069 -0.7532449 255 255 255 255 0.351899 0.185976
-0.094721 0.087016 0.055387 -0.3811906 0.4194496 0.8238664 255 255 255 255 0.351899 0.185976
-0.052014 0.15537 0.057851 -0.7689162 0.4124494 0.4885217 255 255 255 255 0.351899 0.185976
-0.010737 0.151586 0.079055 -0.1119302 0.4451436 0.8884361 255 255 255 255 0.351899 0.185976
-0.150125 0.043602 -0.018773 -0.9390833 0.3436778 -0.002863839 255 255 255 255 0.351899 0.185976
-0.06478 0.143106 0.003032 -0.6240008 0.4991278 -0.6012442 255 255 255 255 0.351899 0.185976
-0.138163 0.061616 0.02111 -0.8425556 0.5384392 -0.0135421 255 255 255 255 0.351899 0.185976
0.149156 0.051995 0.007376 0.7832244 0.6180677 -0.06746823 255 255 255 255 0.351899 0.185976
0.055158 0.006685 -0.124194 0.5725498 -0.3964766 -0.7176302 255 255 255 255 0.351899 0.185976
0.039066 0.195306 0.020931 0.05297735 0.5175512 0.8540106 255 255 255 255 0.351899 0.185976
0.143006 0.002229 -0.055246 0.3008851 -0.7911739 -0.5324585 255 255 255 255 0.351899 0.185976
0.059348 0.042368 0.148665 0.08681617 0.5082481 0.8568237 255 255 255 255 0.351899 0.185976
0.047877 0.055236 0.131284 0.3779892 0.8007834 0.4646184 255 255 255 255 0.351899 0.185976
-0.027136 0.09001 -0.088486 -0.3624874 0.7247678 -0.5859305 255 255 255 255 0.351899 0.185976
0.045604 0.173711 -0.031868 0.7140434 0.2675058 -0.6469796 255 255 255 255 0.351899 0.185976
0.036114 0.000199 0.08968 0.006759129 -0.9999249 0.01022807 255 255 255 255 0.351899 0.185976
0.0785 0.110619 0.080694 0.6984769 0.2424607 0.6733074 255 255 255 255 0.351899 0.185976
0.097452 0.000447 0.034155 0.03380889 -0.9993311 0.01393764 255 255 255 255 0.351899 0.185976
0.02363 0.145426 -0.046517 -0.1187635 0.2402255 -0.9634246 255 255 255 255 0.351899 0.185976
-0.062178 0.149534 0.033634 -0.7836117 0.5979778 0.16845 255 255 255 255 0.351899 0.185976
0.022167 0.182495 0.026818 0.0689129 0.6886242 0.7218364 255 255 255 255 0.351899 0.185976
0.106211 0.0649 -0.025458 0.5019212 0.8587702 -0.1029026 255 255 255 255 0.351899 0.185976
-0.042142 0.02089 0.141875 -0.5627021 -0.2164701 0.797814 255 255 255 255 0.351899 0.185976
0.124593 0.029373 -0.073609 0.6679689 0.08578706 -0.7392281 255 255 255 255 0.351899 0.185976
-0.026873 0.006593 0.138156 -0.456949 -0.5732854 0.6801041 255 255 255 255 0.351899 0.185976
0.093383 0.052528 -0.096296 0.7073127 0.1431154 -0.6922621 255 255 255 255 0.351899 0.185976
0.025198 0.01319 0.154062 0.008624777 0.08109872 0.9966688 255 255 255 255 0.351899 0.185976
-0.015936 0.086896 -0.100337 -0.1384897 0.6512964 -0.7460789 255 255 255 255 0.351899 0.185976
-0.017793 0.195982 0.024782 -0.3117702 0.8564197 0.4115152 255 255 255 255 0.351899 0.185976
0.026635 0.215577 -0.030746 0.232941 0.8107489 -0.5370519 255 255 255 255 0.351899 0.185976
0.089344 0.102597 -0.010529 0.9501301 0.2353757 -0.2045755 255 255 255 255 0.351899 0.185976
0.089675 0.070985 -0.035281 0.6511326 0.6659564 -0.3640446 255 255 255 255 0.351899 0.185976
0.054225 0.110065 0.094331 0.1319989 0.3403554 0.9309858 255 255 255 255 0.351899 0.185976
-0.021168 0.057073 0.136651 -0.02854446 0.7433431 0.6683011 255 255 255 255 0.351899 0.185976
-0.021169 0.057073 0.136651 -0.3703256 0.6848769 0.627537 255 255 255 255 0.351899 0.185976
-0.049869 0.065619 0.078977 -0.5998895 0.4398279 0.6683443 255 255 255 255 0.351899 0.185976
-0.084442 0.070074 -0.083913 -0.4960485 0.3534979 -0.7930796 255 255 255 255 0.351899 0.185976
-0.056976 0.081853 -0.091085 -0.1233709 0.5196635 -0.8454168 255 255 255 255 0.351899 0.185976
0.104406 0.058666 0.042266 0.6108621 0.7120559 0.3461559 255 255 255 255 0.351899 0.185976
0.119418 0.047689 0.053427 0.5005312 0.6780697 0.5382287 255 255 255 255 0.351899 0.185976
0.101907 0.039019 0.076179 0.605364 0.7178888 0.3437589 255 255 255 255 0.351899 0.185976
0.151777 0.039654 -0.039145 0.6950966 0.6206704 -0.3627795 255 255 255 255 0.351899 0.185976
0.069133 0.051515 -0.113723 0.6048139 -0.2853644 -0.7434832 255 255 255 255 0.351899 0.185976
0.015838 0.001192 0.150061 -0.03498539 -0.9703345 0.2392215 255 255 255 255 0.351899 0.185976
0.102571 0.011135 -0.084867 0.5124834 -0.5180787 -0.6848031 255 255 255 255 0.351899 0.185976
0.118248 0.010366 -0.072049 -0.2487563 -0.9336768 0.2576197 255 255 255 255 0.351899 0.185976
-0.156202 0.037452 -0.038715 -0.8724867 0.4556963 -0.1763745 255 255 255 255 0.351899 0.185976
0.040129 0.061982 -0.106634 0.0426532 0.986616 -0.1573838 255 255 255 255 0.351899 0.185976
-0.006371 0.140056 -0.036759 -0.4357004 0.353269 -0.8278685 255 255 255 255 0.351899 0.185976
0.093782 0.025852 0.116484 0.5584646 0.5412679 0.6286068 255 255 255 255 0.351899 0.185976
0.161453 0.001618 -0.008785 0.3576613 -0.9338152 0.008219419 255 255 255 255 0.351899 0.185976
0.163742 0.004907 -0.033363 0.7986692 -0.5278623 -0.2889448 255 255 255 255 0.351899 0.185976
0.024604 0.111479 0.082978 -0.1476277 0.3063716 0.9403949 255 255 255 255 0.351899 0.185976
0.036369 0.099358 0.093737 -0.2686324 0.2567918 0.9283828 255 255 255 255 0.351899 0.185976
0.083267 0.149831 0.016157 0.8472012 0.5311841 0.00968211 255 255 255 255 0.351899 0.185976
-0.028989 0.131405 -0.026353 -0.5210773 0.4544546 -0.7224607 255 255 255 255 0.351899 0.185976
0.036377 0.200252 -0.034448 0.5702606 0.3578359 -0.7394297 255 255 255 255 0.351899 0.185976
0.028823 0.089993 0.091746 -0.009475355 0.5728566 0.8196009 255 255 255 255 0.351899 0.185976
-0.060453 0.136952 0.048014 -0.6959279 0.3302747 0.6376544 255 255 255 255 0.351899 0.185976
-0.110174 0.069977 -0.065165 -0.558129 0.2858725 -0.7789537 255 255 255 255 0.351899 0.185976
-0.139506 0.061649 0.003509 -0.4888186 0.8713346 -0.04280798 255 255 255 255 0.351899 0.185976
-0.14942 0.054792 0.010765 -0.8520488 0.5136415 0.1009222 255 255 255 255 0.351899 0.185976
-0.160425 0.02734 0.049426 -0.7741082 0.5920687 0.2240786 255 255 255 255 0.351899 0.185976
0.106966 0.059504 -0.079259 0.5314197 0.7441774 -0.4047136 255 255 255 255 0.351899 0.185976
0.110773 0.01065 0.092931 0.9174583 -0.250347 0.3091871 255 255 255 255 0.351899 0.185976
0.144577 0.028442 0.035985 0.8826021 0.2268222 0.411783 255 255 255 255 0.351899 0.185976
-0.165471 0.016205 0.019804 -0.9792135 0.1946053 -0.057183 255 255 255 255 0.351899 0.185976
-0.006208 0.000931 -0.130053 -0.2331087 -0.7325281 -0.6395802 255 255 255 255 0.351899 0.185976
-0.165473 0.001134 -0.016906 -0.8382844 -0.5299041 -0.128378 255 255 255 255 0.351899 0.185976
-0.110547 0.000671 0.042681 -0.01865173 -0.9992194 0.03482616 255 255 255 255 0.351899 0.185976
0.13894 0.007958 0.053992 0.7683018 -0.3297604 0.5486078 255 255 255 255 0.351899 0.185976
-0.000402 0.003821 0.153769 -0.1276059 -0.6385223 0.7589506 255 255 255 255 0.351899 0.185976
0.102879 0.015406 0.122151 0.8620002 0.307983 0.4026192 255 255 255 255 0.351899 0.185976
0.094604 0.013289 0.14627 0.7822053 0.3034792 0.5441095 255 255 255 255 0.351899 0.185976
0.101786 0.004281 0.123827 0.7463176 -0.6127422 0.2599176 255 255 255 255 0.351899 0.185976
0.165263 0.004787 -0.000627 0.8702154 -0.4157299 0.2643745 255 255 255 255 0.351899 0.185976
-0.009314 0.023933 -0.127463 -0.2817577 0.3633903 -0.8880091 255 255 255 255 0.351899 0.185976
-0.148384 0.029353 0.065046 -0.7024216 0.4401218 0.5593718 255 255 255 255 0.351899 0.185976
-0.064817 0.016949 0.104504 -0.6479493 0.1867929 0.738424 255 255 255 255 0.351899 0.185976
-0.098198 0.031958 0.08469 -0.3683912 0.06144365 0.9276382 255 255 255 255 0.351899 0.185976
-0.104124 0.010195 0.082861 -0.4325123 -0.09242291 0.8968785 255 255 255 255 0.351899 0.185976
-0.120284 0.031527 0.080718 -0.2471397 0.2144928 0.9449417 255 255 255 255 0.351899 0.185976
0.045475 0.046287 -0.126538 -0.07310109 0.0788694 -0.9942011 255 255 255 255 0.351899 0.185976
0.043735 0.003959 -0.129075 0.2651823 -0.5417258 -0.7976288 255 255 255 255 0.351899 0.185976
-0.019789 0.036887 -0.113931 -0.3786465 0.4570459 -0.8048205 255 255 255 255 0.351899 0.185976
-0.13723 0.032537 0.073288 -0.4812755 0.3467152 0.8050854 255 255 255 255 0.351899 0.185976
-0.125475 0.043475 0.073022 -0.2931317 0.6977916 0.6535754 255 255 255 255 0.351899 0.185976
0.133329 0.047558 -0.051522 0.6041517 0.7190171 -0.3435334 255 255 255 255 0.351899 0.185976
0.07942 0.059098 -0.110762 0.4805498 0.535979 -0.694117 255 255 255 255 0.351899 0.185976
0.044998 0.058747 -0.125048 -0.1486887 0.6925475 -0.7058822 255 255 255 255 0.351899 0.185976
-0.063448 0.025689 -0.097523 -0.2480952 0.6502949 -0.7180288 255 255 255 255 0.351899 0.185976
-0.156642 0.028832 -0.009737 -0.9097958 0.4144052 -0.0232355 255 255 255 255 0.351899 0.185976
-0.151946 0.030736 0.013531 -0.7470419 0.6643029 0.02510291 255 255 255 255 0.351899 0.185976
0.041561 0.047018 0.146148 0.1851268 0.4507516 0.8732417 255 255 255 255 0.351899 0.185976
0.066271 0.051404 0.130357 0.4799855 0.7274173 0.4903855 255 255 255 255 0.351899 0.185976
0.095858 0.0405 0.092554 0.6527947 0.6961234 0.2987834 255 255 255 255 0.351899 0.185976
0.141339 0.051944 0.023238 0.5892457 0.734741 0.3360731 255 255 255 255 0.351899 0.185976
0.119667 0.056433 -0.002884 0.2558466 0.9548312 0.1511288 255 255 255 255 0.351899 0.185976
0.016635 0.042514 0.15261 -0.005980734 0.4766068 0.8790963 255 255 255 255 0.351899 0.185976
0.100623 0.05909 0.053664 0.93108 0.307402 0.1964538 255 255 255 255 0.351899 0.185976
0.019781 0.080201 -0.06518 0.27925 0.6108809 -0.7408401 255 255 255 255 0.351899 0.185976
-0.064122 0.086755 0.06592 -0.309069 0.3268693 0.8931029 255 255 255 255 0.351899 0.185976
-0.039133 0.061982 0.094314 -0.8432156 0.08709393 0.5304736 255 255 255 255 0.351899 0.185976
-0.011266 0.109233 0.088401 0.006020696 0.6251595 0.7804738 255 255 255 255 0.351899 0.185976
-0.003776 0.0695 0.130502 -0.4116506 0.6436397 0.6451913 255 255 255 255 0.351899 0.185976
0.020745 0.056347 0.144239 0.08678902 0.4423233 0.8926465 255 255 255 255 0.351899 0.185976
0.033259 0.055561 0.145089 0.17062 0.5416974 0.8230752 255 255 255 255 0.351899 0.185976
-0.136928 0.06401 0.045447 -0.7909475 0.3578575 0.4963267 255 255 255 255 0.351899 0.185976
0.011586 0.104522 0.09059 0.191997 0.6560364 0.7298997 255 255 255 255 0.351899 0.185976
0.096798 0.074417 0.030735 0.9196915 0.3912179 0.03340898 255 255 255 255 0.351899 0.185976
0.084283 0.123867 0.065669 0.7908946 0.486209 0.3716001 255 255 255 255 0.351899 0.185976
0.073926 0.124367 -0.039914 0.6840163 0.3308607 -0.6501176 255 255 255 255 0.351899 0.185976
-0.095123 0.08484 -0.002822 -0.6454883 0.6766917 -0.3541657 255 255 255 255 0.351899 0.185976
0.031494 0.135125 -0.048077 0.1159022 0.2691427 -0.9561009 255 255 255 255 0.351899 0.185976
0.025614 0.144837 0.079892 0.4087121 0.4387007 0.80031 255 255 255 255 0.351899 0.185976
0.06439 0.15884 0.029777 0.3512476 0.8572122 0.3765797 255 255 255 255 0.351899 0.185976
0.060871 0.187149 -0.012077 0.8460563 0.3292391 -0.4192735 255 255 255 255 0.351899 0.185976
-0.054213 0.138549 -0.00409 -0.4154133 0.4700469 -0.7787733 255 255 255 255 0.351899 0.185976
0.029612 0.16919 0.043212 0.3424747 0.6974073 0.6295509 255 255 255 255 0.351899 0.185976
0.040434 0.161539 0.040335 0.4920664 0.6013663 0.6294674 255 255 255 255 0.351899 0.185976
-0.005854 0.190569 0.036743 0.05462403 0.8298529 0.5553021 255 255 255 255 0.351899 0.185976
-0.027459 0.197643 -0.002866 -0.8211915 0.5179057 -0.2396212 255 255 255 255 0.351899 0.185976
0.025063 0.205387 -0.038701 0.06528978 0.3968855 -0.9155431 255 255 255 255 0.351899 0.185976
0.076308 0.063487 -0.056247 0.2974495 0.8233246 -0.4833845 255 255 255 255 0.351899 0.185976
0.077682 0.063862 0.093459 0.4681818 0.5682044 0.6767197 255 255 255 255 0.351899 0.185976
0.057501 0.06111 0.104878 0.3856386 0.7834731 0.4872914 255 255 255 255 0.351899 0.185976
-0.000798 0.103319 -0.074237 0.44679 0.7137268 -0.5394191 255 255 255 255 0.351899 0.185976
-0.041223 0.08614 -0.087263 -0.1453908 0.5663791 -0.811219 255 255 255 255 0.351899 0.185976
0.111223 0.033944 0.079926 0.7516044 0.5523576 0.360544 255 255 255 255 0.351899 0.185976
0.006331 0.074905 -0.091826 0.5511935 0.7492342 -0.3671973 255 255 255 255 0.351899 0.185976
0.094714 0.06219 -0.091282 0.4730287 0.8026399 -0.363336 255 255 255 255 0.351899 0.185976
0.135104 0.028614 0.050923 0.6839556 0.3317923 0.6497065 255 255 255 255 0.351899 0.185976
-0.165371 0.001383 0.011549 -0.6864728 -0.7207549 -0.09626811 255 255 255 255 0.351899 0.185976
-0.04535 0.047467 -0.093315 -0.3402977 0.3070077 -0.8887878 255 255 255 255 0.351899 0.185976
-0.13714 0.051703 -0.04716 -0.6433733 0.3578577 -0.6767635 255 255 255 255 0.351899 0.185976
-0.017854 0.205448 0.005075 -0.4867494 0.7986187 0.3539537 255 255 255 255 0.351899 0.185976
-0.011494 0.124219 -0.043655 -0.3947466 0.668709 -0.630082 255 255 255 255 0.351899 0.185976
0.075696 0.127482 0.072057 0.4380057 0.672852 0.5961722 255 255 255 255 0.351899 0.185976
-0.004513 0.111438 -0.065909 0.02916658 0.6875701 -0.725532 255 255 255 255 0.351899 0.185976
-0.120142 0.077074 -0.040166 -0.619319 0.7848694 0.02058967 255 255 255 255 0.351899 0.185976
-0.0641 0.108031 -0.040185 -0.4082687 0.8456423 -0.3438108 255 255 255 255 0.351899 0.185976
-0.136549 0.074568 0.021985 -0.8573518 0.4239751 -0.2918786 255 255 255 255 0.351899 0.185976
-0.121841 0.082347 0.012601 -0.561042 0.3688845 -0.7410507 255 255 255 255 0.351899 0.185976
-0.147628 0.041022 -0.040573 -0.5687464 0.7334964 -0.3721702 255 255 255 255 0.351899 0.185976
-0.121014 0.010295 -0.090126 -0.6038851 -0.1310802 -0.7862194 255 255 255 255 0.351899 0.185976
-0.107099 0.037801 -0.085862 -0.2691725 0.728174 -0.6303245 255 255 255 255 0.351899 0.185976
-0.034703 0.032179 0.146213 -0.515494 0.1888886 0.8358153 255 255 255 255 0.351899 0.185976
-0.092209 0.030875 -0.089866 -0.1459826 0.4702884 -0.8703551 255 255 255 255 0.351899 0.185976
-0.06637 0.015207 -0.109892 -0.2844397 0.5389978 -0.7928276 255 255 255 255 0.351899 0.185976
0.049194 0.001805 0.154105 0.005085083 -0.672685 0.7399116 255 255 255 255 0.351899 0.185976
-0.169458 0.001874 0.043419 -0.8383232 -0.5209752 0.1606212 255 255 255 255 0.351899 0.185976
0.105046 0.001893 0.083948 0.2546007 -0.9538518 0.1592023 255 255 255 255 0.351899 0.185976
-0.004404 0.000343 -0.1198 0.00529454 -0.9993067 -0.0368524 255 255 255 255 0.351899 0.185976
0.002904 0.007761 -0.13745 -0.1794821 -0.1292625 -0.9752319 255 255 255 255 0.351899 0.185976
0.073645 0.160125 0.014583 0.7783834 0.5989596 0.1880604 255 255 255 255 0.351899 0.185976
0.009803 0.193655 0.02084 0.1329964 0.6412664 0.7557046 255 255 255 255 0.351899 0.185976
0.132314 0.048072 -0.022033 0.4266151 0.8904526 -0.1584099 255 255 255 255 0.351899 0.185976
-0.09624 0.040068 -0.068809 -0.5603601 0.6031173 -0.5676672 255 255 255 255 0.351899 0.185976
-0.052549 0.03219 0.12435 -0.7727842 0.301481 0.5584924 255 255 255 255 0.351899 0.185976
0.023799 0.065149 -0.093293 0.2688804 0.9244173 -0.2704737 255 255 255 255 0.351899 0.185976
0.097664 0.066812 0.063708 0.9242212 0.2338679 0.3018628 255 255 255 255 0.351899 0.185976
0.116074 0.000586 -0.045111 0.06392458 -0.9893796 -0.1305439 255 255 255 255 0.351899 0.185976
-0.113214 0.00364 0.075645 -0.1870639 -0.857356 0.4795288 255 255 255 255 0.351899 0.185976
-0.140181 0.045777 0.045033 -0.7749465 0.4210254 0.4713762 255 255 255 255 0.351899 0.185976
0.083383 0.036557 0.121804 0.7165424 0.554419 0.4233043 255 255 255 255 0.351899 0.185976
-0.116252 0.077019 -0.054541 -0.6044205 0.6581725 -0.4488707 255 255 255 255 0.351899 0.185976
0.028526 0.045266 -0.128767 -0.0545913 0.2214776 -0.9736362 255 255 255 255 0.351899 0.185976
0.124691 0.002229 0.067817 0.5904829 -0.6924505 0.4145386 255 255 255 255 0.351899 0.185976
0.065969 0.001959 -0.108757 0.4284309 -0.7783086 -0.459002 255 255 255 255 0.351899 0.185976
0.060618 0.060133 -0.128669 0.3494141 0.5254927 -0.7757366 255 255 255 255 0.351899 0.185976
-0.039133 0.061982 0.094314 -0.473267 0.7570255 0.4504784 255 255 255 255 0.351899 0.185976
-0.018015 0.082872 0.105091 -0.2910279 0.6024836 0.7431799 255 255 255 255 0.351899 0.185976
-0.112585 0.064943 0.058061 -0.3728267 0.3895688 0.8421618 255 255 255 255 0.351899 0.185976
-0.037496 0.081281 0.095371 -0.7471001 0.2498151 0.6159822 255 255 255 255 0.351899 0.185976
-0.048206 0.170055 0.007198 -0.7290062 0.6369537 -0.2506792 255 255 255 255 0.351899 0.185976
0.010824 0.21573 -0.027536 -0.3185912 0.7911902 -0.5220323 255 255 255 255 0.351899 0.185976
-0.02633 0.176719 0.05149 -0.2188595 0.8176453 0.5325004 255 255 255 255 0.351899 0.185976
0.059539 0.20065 0.006177 0.8249865 0.5257007 0.2074514 255 255 255 255 0.351899 0.185976
0.042804 0.030494 0.147507 -0.01840301 0.2267183 0.9737865 255 255 255 255 0.351899 0.185976
-0.146703 0.058536 -0.020895 -0.4584222 0.8392792 -0.2923345 255 255 255 255 0.351899 0.185976
-0.043232 0.146971 0.074515 -0.5968083 0.36586 0.7141193 255 255 255 255 0.351899 0.185976
-0.053377 0.145293 0.052515 -0.5617896 -0.2031394 0.8019519 255 255 255 255 0.351899 0.185976
-0.025147 0.04402 0.146144 -0.3782775 0.4582852 0.804289 255 255 255 255 0.351899 0.185976
-0.127111 0.038272 -0.068732 -0.5244036 0.7053962 -0.4768828 255 255 255 255 0.351899 0.185976
0.075031 0.024755 0.148548 0.4400478 0.3980417 0.8049353 255 255 255 255 0.351899 0.185976
-0.14856 0.013102 0.072038 -0.4290756 -0.04434812 0.9021792 255 255 255 255 0.351899 0.185976
0.007562 0.062668 0.144166 -0.06267904 0.5175004 0.8533843 255 255 255 255 0.351899 0.185976
-0.125333 0.047012 0.063843 -0.2684651 0.9161058 0.2977863 255 255 255 255 0.351899 0.185976
-0.132561 0.040119 -0.052931 -0.3352361 0.7466808 -0.5745299 255 255 255 255 0.351899 0.185976
-0.146867 0.048663 -0.037356 -0.8422281 0.4270103 -0.329111 255 255 255 255 0.351899 0.185976
-0.024568 0.154999 -0.01708 -0.5862729 0.2629333 -0.7662573 255 255 255 255 0.351899 0.185976
-0.067975 0.108131 -0.019192 -0.6462009 0.6979265 -0.3087442 255 255 255 255 0.351899 0.185976
0.088295 0.133723 0.018413 0.9701256 0.2357897 -0.05709338 255 255 255 255 0.351899 0.185976
-0.118875 0.050438 0.061613 -0.3766319 0.6293518 0.6797535 255 255 255 255 0.351899 0.185976
-0.001455 0.053172 0.143985 -0.1656631 0.3529245 0.9208692 255 255 255 255 0.351899 0.185976
-0.027979 0.073906 0.111027 -0.6337805 0.4881901 0.5999939 255 255 255 255 0.351899 0.185976
-0.047318 0.04395 0.117388 -0.5408257 0.6814897 0.4930309 255 255 255 255 0.351899 0.185976
-0.143417 0.044986 0.060048 -0.5387187 0.8298426 0.1454082 255 255 255 255 0.351899 0.185976
0.027246 0.002432 -0.134088 0.1998124 -0.5501255 -0.8108249 255 255 255 255 0.351899 0.185976
-0.081507 0.009406 -0.107795 -0.3945687 0.1332152 -0.9091586 255 255 255 255 0.351899 0.185976
0.090728 0.00361 0.14894 0.5572758 -0.5861865 0.5880723 255 255 255 255 0.351899 0.185976
0.081284 0.001817 0.150443 0.1528896 -0.9216052 0.3567473 255 255 255 255 0.351899 0.185976
-0.044255 0.000949 0.11233 -0.1068232 -0.9802681 0.1663229 255 255 255 255 0.351899 0.185976
-0.099067 0.004676 -0.098981 -0.3721642 -0.4319797 -0.8215154 255 255 255 255 0.351899 0.185976
0.131011 0.003144 0.050755 0.2383878 -0.9651244 0.1081954 255 255 255 255 0.351899 0.185976
-0.152398 0.003125 -0.037855 -0.5655975 -0.6868963 -0.4563693 255 255 255 255 0.351899 0.185976
0.07688 0.042278 0.144214 0.6327876 0.6257005 0.4561565 255 255 255 255 0.351899 0.185976
0.097517 0.075664 -0.008964 0.8790914 0.4684127 -0.08824858 255 255 255 255 0.351899 0.185976
-0.042811 0.172079 0.042269 -0.5276772 0.8245822 0.2040121 255 255 255 255 0.351899 0.185976
-0.051367 0.124908 -0.01579 -0.4374857 0.6447001 -0.6268717 255 255 255 255 0.351899 0.185976
0.008079 0.216697 -0.001948 -0.1844203 0.9709567 0.1524215 255 255 255 255 0.351899 0.185976
-0.152567 0.038447 -0.046044 -0.6526456 0.5186457 -0.5523226 255 255 255 255 0.351899 0.185976
0.062451 0.070223 0.093886 0.3544425 0.4118964 0.8394712 255 255 255 255 0.351899 0.185976
-0.026752 0.142231 0.081998 -0.1367769 0.2943342 0.9458644 255 255 255 255 0.351899 0.185976
-0.12051 0.073189 0.009969 -0.584975 0.607802 -0.5370112 255 255 255 255 0.351899 0.185976
0.057538 0.046634 0.143031 0.2216538 0.8325016 0.5077505 255 255 255 255 0.351899 0.185976
-0.044109 0.003336 -0.121302 -0.2953439 -0.5120907 -0.8065576 255 255 255 255 0.351899 0.185976
-0.156982 0.003465 0.065547 -0.2642123 -0.7542711 0.601055 255 255 255 255 0.351899 0.185976
-0.13922 0.05551 -0.021776 -0.2533868 0.9561656 -0.1467741 255 255 255 255 0.351899 0.185976
-0.111043 0.001289 -0.084387 -0.1583994 -0.9586278 -0.2365216 255 255 255 255 0.351899 0.185976
0.150504 0.04499 0.008908 0.9159147 0.3591974 0.1791022 255 255 255 255 0.351899 0.185976
-0.016097 0.209479 -0.008258 -0.5998581 0.7530554 -0.2703292 255 255 255 255 0.351899 0.185976
0.03149 0.133191 0.080388 0.2614611 0.4215776 0.8682802 255 255 255 255 0.351899 0.185976
0.052318 0.019816 0.153654 -0.01579633 0.1999437 0.9796801 255 255 255 255 0.351899 0.185976
0.065097 0.000265 -0.007557 0.004069865 -0.9999776 -0.005308166 255 255 255 255 0.351899 0.185976
-0.139736 0.000461 -0.031448 -0.0653545 -0.9965467 -0.05122003 255 255 255 255 0.351899 0.185976
3 213 253 19 
3 6 212 275 
3 3 235 274 
3 94 122 19 
3 0 32 35 
3 60 170 35 
3 273 28 166 
3 23 123 179 
3 42 251 3 
3 198 254 196 
3 159 103 154 
3 8 83 263 
3 227 54 79 
3 17 70 259 
3 215 266 257 
3 7 236 128 
3 43 117 7 
3 249 134 219 
3 42 252 251 
3 219 93 15 
3 3 124 235 
3 215 23 146 
3 52 223 152 
3 13 224 246 
3 2 12 164 
3 64 178 177 
3 127 135 217 
3 219 15 95 
3 66 94 253 
3 7 201 268 
3 239 185 208 
3 137 22 238 
3 58 207 72 
3 60 206 71 
3 37 237 156 
3 159 237 108 
3 64 177 78 
3 90 89 91 
3 66 203 275 
3 120 201 276 
3 120 213 201 
3 229 274 62 
3 239 194 185 
3 5 233 149 
3 51 196 208 
3 177 151 180 
3 160 25 150 
3 57 193 265 
3 151 189 69 
3 178 187 189 
3 187 191 260 
3 189 187 69 
3 69 187 99 
3 103 165 31 
3 87 26 110 
3 51 208 87 
3 64 78 184 
3 127 118 44 
3 276 183 119 
3 121 182 218 
3 181 114 76 
3 199 44 267 
3 210 10 180 
3 240 55 230 
3 266 145 63 
3 36 72 258 
3 87 39 88 
3 52 152 109 
3 29 226 173 
3 29 172 272 
3 0 35 167 
3 165 169 71 
3 53 231 227 
3 56 225 168 
3 29 99 241 
3 227 225 259 
3 151 69 164 
3 53 232 231 
3 238 244 214 
3 266 63 144 
3 13 222 154 
3 175 145 215 
3 22 209 247 
3 98 140 210 
3 210 140 10 
3 181 14 114 
3 181 139 14 
3 236 136 128 
3 220 133 140 
3 45 134 133 
3 215 257 235 
3 137 132 130 
3 45 59 134 
3 59 93 219 
3 77 122 200 
3 16 121 255 
3 125 251 202 
3 66 253 276 
3 276 119 256 
3 61 49 96 
3 16 101 126 
3 43 47 117 
3 271 116 16 
3 202 218 115 
3 87 110 39 
3 39 216 191 
3 57 214 192 
3 53 109 232 
3 187 106 241 
3 168 106 260 
3 30 32 186 
3 162 33 105 
3 20 46 102 
3 148 58 72 
3 57 112 214 
3 28 104 83 
3 203 270 118 
3 66 252 94 
3 102 46 126 
3 256 119 41 
3 98 14 139 
3 9 269 190 
3 24 86 224 
3 85 84 246 
3 38 84 245 
3 188 28 83 
3 269 111 163 
3 35 170 205 
3 173 0 107 
3 30 186 79 
3 269 9 240 
3 274 229 77 
3 181 76 139 
3 22 129 209 
3 165 71 31 
3 81 243 160 
3 131 129 130 
3 66 68 202 
3 188 67 161 
3 188 83 67 
3 161 67 8 
3 94 19 253 
3 255 68 49 
3 202 68 255 
3 271 126 46 
3 130 22 137 
3 130 129 22 
3 274 235 62 
3 138 207 271 
3 92 138 271 
3 24 13 264 
3 160 243 25 
3 70 17 192 
3 263 175 8 
3 209 129 73 
3 73 129 19 
3 139 76 15 
3 133 220 45 
3 269 240 230 
3 191 178 39 
3 79 172 227 
3 79 186 172 
3 0 80 32 
3 170 273 166 
3 205 170 166 
3 69 99 173 
3 13 24 224 
3 189 177 178 
3 81 82 162 
3 105 81 162 
3 243 81 105 
3 111 265 163 
3 111 57 265 
3 84 85 233 
3 245 233 5 
3 245 84 233 
3 246 222 13 
3 222 84 38 
3 246 84 222 
3 87 40 51 
3 88 40 87 
3 221 86 21 
3 91 146 23 
3 43 143 142 
3 239 196 234 
3 3 274 42 
3 90 115 218 
3 197 75 27 
3 93 59 45 
3 195 196 254 
3 200 252 42 
3 200 94 252 
3 118 270 267 
3 61 95 74 
3 95 96 6 
3 61 96 95 
3 219 95 6 
3 7 113 43 
3 173 99 29 
3 261 226 272 
3 261 32 226 
3 100 23 215 
3 100 123 23 
3 102 49 61 
3 101 49 102 
3 126 101 102 
3 204 118 127 
3 103 104 273 
3 104 108 37 
3 108 104 103 
3 263 83 104 
3 176 37 63 
3 37 263 104 
3 176 263 37 
3 186 261 272 
3 186 32 261 
3 34 225 56 
3 260 106 187 
3 241 168 4 
3 241 106 168 
3 231 264 54 
3 2 107 65 
3 2 173 107 
3 259 53 227 
3 108 103 159 
3 190 216 9 
3 191 216 190 
3 216 110 9 
3 39 110 216 
3 12 14 151 
3 57 111 112 
3 112 111 230 
3 72 114 82 
3 207 58 271 
3 257 144 62 
3 144 257 266 
3 62 235 257 
3 74 138 92 
3 74 114 138 
3 250 254 198 
3 199 198 141 
3 271 16 126 
3 268 236 7 
3 16 116 121 
3 117 183 50 
3 117 47 183 
3 276 270 203 
3 270 256 48 
3 256 270 276 
3 219 118 249 
3 118 219 203 
3 96 212 6 
3 96 49 212 
3 254 270 48 
3 254 267 270 
3 195 254 48 
3 213 120 253 
3 276 253 120 
3 202 251 252 
3 255 218 202 
3 255 121 218 
3 267 254 250 
3 200 122 94 
3 123 251 125 
3 251 124 3 
3 123 124 251 
3 123 125 115 
3 134 249 1 
3 249 204 1 
3 1 204 127 
3 195 48 234 
3 119 47 41 
3 92 46 20 
3 92 20 74 
3 20 61 74 
3 44 118 267 
3 47 43 142 
3 19 131 213 
3 19 129 131 
3 131 132 236 
3 130 132 131 
3 147 90 182 
3 147 271 58 
3 46 92 271 
3 220 139 93 
3 133 134 1 
3 217 133 1 
3 140 133 217 
3 140 217 10 
3 127 217 1 
3 199 135 44 
3 43 113 143 
3 132 136 236 
3 136 137 248 
3 132 137 136 
3 128 136 248 
3 113 128 18 
3 128 248 18 
3 98 139 220 
3 140 98 220 
3 142 97 41 
3 97 143 55 
3 97 142 143 
3 18 112 143 
3 55 143 112 
3 77 229 149 
3 239 234 262 
3 248 238 18 
3 247 197 233 
3 197 209 73 
3 247 209 197 
3 221 247 233 
3 247 21 22 
3 221 21 247 
3 62 144 229 
3 215 145 266 
3 89 147 11 
3 138 72 207 
3 198 40 141 
3 149 229 144 
3 146 150 211 
3 150 89 160 
3 174 114 14 
3 174 82 114 
3 21 152 244 
3 86 152 21 
3 85 221 233 
3 221 153 86 
3 85 153 221 
3 155 222 38 
3 154 222 155 
3 237 245 5 
3 245 155 38 
3 237 155 245 
3 144 63 157 
3 37 157 63 
3 214 244 158 
3 158 223 52 
3 223 158 244 
3 237 159 155 
3 160 258 81 
3 258 160 36 
3 82 174 162 
3 162 174 12 
3 191 242 260 
3 163 242 269 
3 242 56 260 
3 242 163 56 
3 162 12 2 
3 231 232 24 
3 162 2 65 
3 164 173 2 
3 164 69 173 
3 170 165 273 
3 166 188 205 
3 205 105 33 
3 167 107 0 
3 167 65 107 
3 259 225 34 
3 259 34 17 
3 167 205 33 
3 241 99 187 
3 168 225 4 
3 56 168 260 
3 227 231 54 
3 167 33 65 
3 169 170 60 
3 165 170 169 
3 71 169 60 
3 167 228 205 
3 167 35 228 
3 172 241 4 
3 241 172 29 
3 272 172 186 
3 172 4 227 
3 173 226 80 
3 109 86 232 
3 109 152 86 
3 232 86 24 
3 103 54 13 
3 12 174 14 
3 148 72 36 
3 175 146 8 
3 215 146 175 
3 176 145 175 
3 63 145 176 
3 40 184 141 
3 184 178 64 
3 40 178 184 
3 179 91 23 
3 90 91 179 
3 97 262 41 
3 180 78 177 
3 78 10 217 
3 180 10 78 
3 135 78 217 
3 262 256 41 
3 256 234 48 
3 262 234 256 
3 45 220 93 
3 142 41 47 
3 218 182 90 
3 119 183 47 
3 76 74 15 
3 76 114 74 
3 184 135 141 
3 184 78 135 
3 87 208 26 
3 110 185 9 
3 110 26 185 
3 159 154 155 
3 17 34 56 
3 191 187 178 
3 65 33 162 
3 188 105 205 
3 105 188 25 
3 231 24 264 
3 264 13 54 
3 189 151 177 
3 67 83 8 
3 191 190 242 
3 242 190 269 
3 192 193 57 
3 193 17 56 
3 192 17 193 
3 265 56 163 
3 265 193 56 
3 111 269 230 
3 211 25 161 
3 150 25 211 
3 146 211 8 
3 210 151 14 
3 180 151 210 
3 208 196 239 
3 55 112 230 
3 185 240 9 
3 240 194 55 
3 185 194 240 
3 196 195 234 
3 77 149 233 
3 233 197 27 
3 77 233 27 
3 213 236 268 
3 131 236 213 
3 198 199 250 
3 274 200 42 
3 77 200 274 
3 201 213 268 
3 276 201 183 
3 276 203 66 
3 275 219 6 
3 275 203 219 
3 118 204 249 
3 91 150 146 
3 91 89 150 
3 108 237 37 
3 156 237 5 
3 211 161 8 
3 228 35 205 
3 32 206 60 
3 71 171 31 
3 71 206 171 
3 112 18 214 
3 122 77 27 
3 206 30 171 
3 32 30 206 
3 214 18 238 
3 267 250 199 
3 238 22 21 
3 72 138 114 
3 262 194 239 
3 194 262 55 
3 198 196 51 
3 35 32 60 
3 103 273 165 
3 208 185 26 
3 183 201 50 
3 95 15 74 
3 97 55 262 
3 88 178 40 
3 36 11 148 
3 273 104 28 
3 54 31 171 
3 4 225 227 
3 164 12 151 
3 25 188 161 
3 11 36 160 
3 144 156 5 
3 156 157 37 
3 144 157 156 
3 246 153 85 
3 153 224 86 
3 246 224 153 
3 152 223 244 
3 244 238 21 
3 89 11 160 
3 149 144 5 
3 178 88 39 
3 113 18 143 
3 135 199 141 
3 238 248 137 
3 147 116 271 
3 116 182 121 
3 147 182 116 
3 44 135 127 
3 102 61 20 
3 128 113 7 
3 202 115 125 
3 235 124 123 
3 15 93 139 
3 219 134 59 
3 255 101 16 
3 101 255 49 
3 201 117 50 
3 7 117 201 
3 70 109 53 
3 109 70 52 
3 70 158 52 
3 158 192 214 
3 70 192 158 
3 259 70 53 
3 79 171 30 
3 79 54 171 
3 103 31 54 
3 154 103 13 
3 11 58 148 
3 11 147 58 
3 235 100 215 
3 123 100 235 
3 75 73 19 
3 75 197 73 
3 202 252 66 
3 179 115 90 
3 179 123 115 
3 89 90 147 
3 40 198 51 
3 166 28 188 
3 80 226 32 
3 80 0 173 
3 272 226 29 
3 98 210 14 
3 75 122 27 
3 19 122 75 
3 82 258 72 
3 82 81 258 
3 176 175 263 
3 243 105 25 
3 275 68 66 
3 68 212 49 
3 275 212 68 
