ply
format ascii 1.0
comment VCGLIB generated
comment TextureFile Textures//Combined_Texture//Texture_01_A.png
element vertex 243
property float x
property float y
property float z
property float nx
property float ny
property float nz
property uchar red
property uchar green
property uchar blue
property uchar alpha
property float texture_u
property float texture_v
element face 482
property list uchar int vertex_indices
end_header
-0.0192 0.020899 -0.01456 -0.5274222 -0.02319925 -0.8492865 255 255 255 255 0.352623 0.189374
-0.012998 0.028603 0.014483 0.1152018 0.7159359 0.6885958 255 255 255 255 0.352623 0.189374
0.018416 0.031607 0.008168 0.609286 0.1976877 0.7679129 255 255 255 255 0.352622 0.189374
0.01839 0.009156 0.01158 0.890158 -0.2110938 -0.4038046 255 255 255 255 0.352622 0.189374
-0.021042 0.02172 -0.0058 -0.9535515 0.01849503 0.3006619 255 255 255 255 0.352623 0.189374
-0.021882 0.020795 -0.007227 -0.8477557 0.5233009 0.0864085 255 255 255 255 0.352623 0.189374
-0.020871 0.009346 -0.021837 -0.2821249 -0.07018001 -0.9568074 255 255 255 255 0.352623 0.189374
0.015638 0.007734 0.021454 0.2056682 -0.1652879 0.9645624 255 255 255 255 0.352622 0.189374
-0.003724 0.004057 0.020652 -0.04902697 -0.5916356 0.8047135 255 255 255 255 0.352623 0.189374
-0.013854 0.02183 0.018959 0.1522287 0.4173607 0.8958998 255 255 255 255 0.352623 0.189374
4.3e-05 0.035258 0.010588 0.4534708 0.2070957 0.866877 255 255 255 255 0.352623 0.189374
-0.001641 0.038433 0.012911 0.503595 0.03045598 0.8634029 255 255 255 255 0.352623 0.189374
-0.0014 0.051488 0.002887 0.2729053 0.9103295 0.3111638 255 255 255 255 0.352623 0.189373
0.007147 0.041148 -0.000848 0.5630538 0.8218991 0.08632731 255 255 255 255 0.352622 0.189373
-0.003129 0.051771 -0.00373 0.1058983 0.9837353 -0.145088 255 255 255 255 0.352623 0.189373
-0.003783 0.025105 -0.01426 0.07105979 0.01571693 -0.9973483 255 255 255 255 0.352623 0.189374
-0.013186 0.018454 -0.0182 -0.1731346 0.9103867 -0.3757932 255 255 255 255 0.352623 0.189374
-0.001441 0.001764 -0.0215 0.3749144 -0.6694322 -0.6413265 255 255 255 255 0.352623 0.189374
0.023428 0.006239 -0.019971 0.6521664 -0.2587728 -0.7125417 255 255 255 255 0.352622 0.189374
-0.016259 0.003804 0.002676 0.0722285 -0.995589 -0.05988074 255 255 255 255 0.352623 0.189374
-0.022695 0.002621 0.005565 -0.6388565 -0.7686241 -0.03285626 255 255 255 255 0.352623 0.189374
0.018379 0.003649 0.016397 0.2531234 -0.9601547 0.1184551 255 255 255 255 0.352622 0.189374
0.024738 0.010857 -0.001262 0.9751739 -0.009230013 0.2212481 255 255 255 255 0.352622 0.189374
0.024316 0.007935 -0.000816 0.9141324 -0.3113786 0.2596252 255 255 255 255 0.352622 0.189374
0.021189 0.002945 -0.001325 0.5325853 -0.8204752 0.2077822 255 255 255 255 0.352622 0.189374
0.021758 0.007141 0.014466 0.9308428 -0.1557598 -0.330561 255 255 255 255 0.352622 0.189374
0.020501 0.010472 0.008469 0.8572689 -0.2659445 0.4408668 255 255 255 255 0.352622 0.189374
0.021363 0.016994 0.01635 0.9041059 0.2331739 0.3580817 255 255 255 255 0.352622 0.189374
0.020129 0.02743 -0.011501 0.7726743 0.5725771 -0.2740983 255 255 255 255 0.352622 0.189374
0.024127 0.019088 -0.017405 0.8039734 0.1182607 -0.5827875 255 255 255 255 0.352622 0.189374
-0.022566 0.001608 -0.001442 -0.9206536 -0.3796362 -0.09095794 255 255 255 255 0.352623 0.189374
-0.018948 0.020498 -0.002729 -0.9953207 0.09661331 0.001575175 255 255 255 255 0.352623 0.189374
-0.018394 0.029325 0.001042 -0.9856507 0.009465341 0.1685323 255 255 255 255 0.352623 0.189374
-0.01519 0.006398 -0.022205 -0.05490109 -0.130048 -0.9899866 255 255 255 255 0.352623 0.189374
-0.01936 0.021262 -0.010684 -0.9476111 0.1780325 -0.2652127 255 255 255 255 0.352623 0.189374
-0.023525 0.017095 -0.011689 -0.9502762 0.3111804 0.01191586 255 255 255 255 0.352623 0.189374
-0.022279 0.026301 0.008264 -0.9295008 0.357208 -0.09181971 255 255 255 255 0.352623 0.189374
0.006965 0.003992 0.020827 0.02672552 -0.6769831 0.7355132 255 255 255 255 0.352622 0.189374
0.005218 0.011748 0.022205 -0.007392728 -0.02529539 0.9996527 255 255 255 255 0.352622 0.189374
0.019858 0.011374 0.020238 0.499887 0.1812382 0.8469154 255 255 255 255 0.352622 0.189374
-0.009747 0.026643 0.01386 0.06757876 0.4153642 0.9071415 255 255 255 255 0.352623 0.189374
0.011979 0.029216 0.01804 0.283317 0.8645608 0.4150496 255 255 255 255 0.352622 0.189374
0.015911 0.026222 0.017496 0.704702 0.5266188 0.4754658 255 255 255 255 0.352622 0.189374
-0.021805 0.028132 0.013301 -0.6703368 0.6741025 0.3102167 255 255 255 255 0.352623 0.189374
0.019875 0.021531 0.015956 0.7110611 0.3550502 0.6069033 255 255 255 255 0.352622 0.189374
-0.006734 0.029393 0.01437 -0.3743727 0.3972605 0.8378718 255 255 255 255 0.352623 0.189374
0.006412 0.029138 0.010141 0.2141282 0.713708 0.6669108 255 255 255 255 0.352622 0.189374
0.01108 0.039006 0.010358 0.1434803 0.5600023 0.8159723 255 255 255 255 0.352622 0.189374
-0.016155 0.02928 0.010971 -0.2689826 0.888054 0.3728385 255 255 255 255 0.352623 0.189374
-0.009184 0.05085 0.001718 -0.3175108 0.7288464 0.6066051 255 255 255 255 0.352623 0.189373
0.001142 0.046479 0.007307 0.5499392 0.5971084 0.5839765 255 255 255 255 0.352623 0.189373
0.015547 0.039369 -0.005293 -0.05125405 0.8012933 -0.5960723 255 255 255 255 0.352622 0.189374
0.009653 0.035236 -0.005881 0.5284089 0.7396739 -0.4167334 255 255 255 255 0.352622 0.189374
0.013666 0.034688 -0.006276 -0.4848851 0.8129693 -0.3224398 255 255 255 255 0.352622 0.189374
0.018053 0.032725 -0.012485 0.4474495 0.5334722 -0.7177718 255 255 255 255 0.352622 0.189374
-0.015252 0.042931 -0.011436 -0.4583983 -0.03315023 -0.8881284 255 255 255 255 0.352623 0.189373
-0.012394 0.050966 -0.009431 -0.05652016 0.7323977 -0.6785272 255 255 255 255 0.352623 0.189373
0.018365 0.026855 -0.014576 0.4087726 0.6251141 -0.6649341 255 255 255 255 0.352622 0.189374
-0.017386 0.040144 -0.015704 -0.1895462 0.6830671 -0.7053308 255 255 255 255 0.352623 0.189373
-0.01192 0.038784 -0.016197 0.09109943 0.4573553 -0.8846056 255 255 255 255 0.352623 0.189374
-0.017764 0.026415 -0.017277 -0.1600123 -0.2164114 -0.9631003 255 255 255 255 0.352623 0.189374
0.000992 0.031125 -0.015895 0.2527741 0.145271 -0.9565572 255 255 255 255 0.352623 0.189374
0.004245 0.011347 -0.018718 0.03673038 0.07293523 -0.9966601 255 255 255 255 0.352623 0.189374
-0.01114 0.023576 -0.013985 -0.07025483 -0.1174312 -0.9905928 255 255 255 255 0.352623 0.189374
-0.010055 0.019945 -0.016915 -0.2549025 0.7154509 -0.6505034 255 255 255 255 0.352623 0.189374
-0.017489 0.01577 -0.021633 -0.1434648 0.4515621 -0.8806302 255 255 255 255 0.352623 0.189374
0.001661 0.003884 -0.018498 0.5740557 -0.6972217 -0.4293506 255 255 255 255 0.352623 0.189374
-0.001761 0.001156 -0.014558 0.4859949 -0.8693016 0.09013178 255 255 255 255 0.352623 0.189374
-0.020468 0.000231 -0.00207 -0.1146554 -0.9655497 0.2335977 255 255 255 255 0.352623 0.189374
-0.005964 0.000961 -0.005923 0.3778044 -0.8260183 0.4182793 255 255 255 255 0.352623 0.189374
0.016881 0.002482 -0.000301 0.0371628 -0.960119 0.2771111 255 255 255 255 0.352622 0.189374
0.001848 0.002335 -0.004464 -0.2658371 -0.9317428 0.2473583 255 255 255 255 0.352623 0.189374
0.012141 0.005045 0.003739 0.1560604 -0.9871684 -0.03381967 255 255 255 255 0.352622 0.189374
0.019163 0.004294 0.003369 0.2954064 -0.8389149 0.4571179 255 255 255 255 0.352622 0.189374
-0.020078 0.002665 0.014748 -0.1721318 -0.9202781 0.3513672 255 255 255 255 0.352623 0.189374
-0.008142 0.013704 0.018847 0.2152288 0.3094939 0.9262236 255 255 255 255 0.352623 0.189374
0.005286 0.028339 0.020119 0.07333085 0.4598668 0.8849549 255 255 255 255 0.352622 0.189374
0.00262 0.030972 0.012472 0.2514417 0.5614402 0.7883921 255 255 255 255 0.352623 0.189374
-0.010609 0.031325 0.010665 -0.4629221 0.3696892 0.8056259 255 255 255 255 0.352623 0.189374
-0.005576 0.044463 0.01134 -0.1280518 0.8683165 0.4791963 255 255 255 255 0.352623 0.189373
-0.011915 0.04511 0.00317 -0.3261132 0.7868676 0.5239174 255 255 255 255 0.352623 0.189373
-0.01728 0.032092 0.005537 -0.8121874 0.1475256 0.5644358 255 255 255 255 0.352623 0.189374
0.016844 0.039208 0.006796 0.4146124 0.785018 0.4602645 255 255 255 255 0.352622 0.189374
0.01168 0.033806 -0.009135 -0.3812725 0.7989931 -0.4650175 255 255 255 255 0.352622 0.189374
0.006873 0.001514 -0.005714 -0.03978838 -0.9936331 0.105405 255 255 255 255 0.352622 0.189374
0.019638 0.032852 -0.010065 0.8651049 0.3929386 -0.3117576 255 255 255 255 0.352622 0.189374
0.015522 0.024271 -0.020266 0.04311551 0.5971496 -0.8009703 255 255 255 255 0.352622 0.189374
0.020261 0.022483 0.014168 0.9041016 0.4156673 -0.0991015 255 255 255 255 0.352622 0.189374
-0.018433 0.030888 0.003492 -0.9668522 0.2271208 0.1166747 255 255 255 255 0.352623 0.189374
-0.02156 0.028832 -0.004392 -0.9560654 0.02549961 0.2920423 255 255 255 255 0.352623 0.189374
-0.024005 0.008699 0.01896 -0.7424859 -0.09518175 0.663065 255 255 255 255 0.352623 0.189374
-0.024355 0.006208 0.016612 -0.8316352 -0.4392661 0.3397473 255 255 255 255 0.352623 0.189374
-0.017994 0.014063 0.021032 -0.2483903 0.2720917 0.9296604 255 255 255 255 0.352623 0.189374
0.001555 0.005742 0.021458 -0.08145493 -0.2018191 0.9760298 255 255 255 255 0.352623 0.189374
0.016073 0.014546 0.01968 0.3268862 0.3822278 0.864319 255 255 255 255 0.352622 0.189374
-0.003875 0.015642 0.021259 -0.4203098 -0.0172977 0.9072158 255 255 255 255 0.352623 0.189374
-0.013477 0.008603 0.021569 -0.0190561 -0.08327187 0.9963447 255 255 255 255 0.352623 0.189374
0.01329 0.012873 0.021837 0.1922944 0.2617001 0.9457991 255 255 255 255 0.352622 0.189374
-0.00106 0.017331 0.021893 -0.139954 0.08775529 0.9862616 255 255 255 255 0.352623 0.189374
-0.008363 0.005695 0.020977 0.06703088 -0.07934275 0.9945912 255 255 255 255 0.352623 0.189374
-0.006693 0.01298 0.019131 -0.273672 0.1311637 0.9528378 255 255 255 255 0.352623 0.189374
-0.022736 0.015292 0.017931 -0.7543033 0.2761482 0.5956247 255 255 255 255 0.352623 0.189374
0.006978 0.016 0.021755 0.1117295 0.1525477 0.9819602 255 255 255 255 0.352622 0.189374
-0.020656 0.026731 0.015198 -0.3903228 0.5074099 0.768234 255 255 255 255 0.352623 0.189374
-0.014166 0.015915 0.021214 0.07083689 0.2667665 0.9611545 255 255 255 255 0.352623 0.189374
0.011459 0.029237 0.010912 0.154494 0.9879771 -0.005747768 255 255 255 255 0.352622 0.189374
0.016572 0.025986 0.010287 0.779213 0.4386342 0.4476909 255 255 255 255 0.352622 0.189374
0.008698 0.029238 0.019 0.1204564 0.8021848 0.5847989 255 255 255 255 0.352622 0.189374
0.013796 0.028606 0.015666 0.4538226 0.8874214 0.08079818 255 255 255 255 0.352622 0.189374
-0.005243 0.026302 0.017596 -0.6567819 0.3491676 0.6683708 255 255 255 255 0.352623 0.189374
-0.000578 0.028775 0.019618 -0.1810855 0.732486 0.6562563 255 255 255 255 0.352623 0.189374
-0.007999 0.023708 0.014898 -0.4050485 0.2985569 0.8641757 255 255 255 255 0.352623 0.189374
0.005036 0.028732 0.014142 0.1085583 0.9809706 0.1609715 255 255 255 255 0.352622 0.189374
0.000274 0.043685 0.010896 0.650071 0.336175 0.6814646 255 255 255 255 0.352623 0.189373
0.002243 0.040894 0.007291 0.6483647 0.443739 0.6186429 255 255 255 255 0.352623 0.189373
0.008824 0.029732 0.009999 -0.009480439 0.3893779 0.9210294 255 255 255 255 0.352622 0.189374
-0.006264 0.033842 0.014234 -0.1935425 0.07424555 0.9782786 255 255 255 255 0.352623 0.189374
0.014941 0.028158 0.009943 0.3967485 0.639734 0.6582789 255 255 255 255 0.352622 0.189374
0.021165 0.023591 0.006982 0.885807 0.1319232 0.444907 255 255 255 255 0.352622 0.189374
-0.013897 0.051245 -0.002197 -0.5320884 0.7460796 0.4003089 255 255 255 255 0.352623 0.189373
-0.016527 0.043535 0.006119 -0.6244988 0.5763147 0.5271267 255 255 255 255 0.352623 0.189373
-0.00245 0.050851 0.004508 -0.04024629 0.7162859 0.6966453 255 255 255 255 0.352623 0.189373
-0.00274 0.043924 0.012061 0.131978 0.6392557 0.7575843 255 255 255 255 0.352623 0.189373
-0.007153 0.044969 0.004837 -0.2093414 0.7946332 0.5698547 255 255 255 255 0.352623 0.189373
0.004434 0.044613 -0.000419 0.8310508 0.4202684 0.3643199 255 255 255 255 0.352623 0.189373
0.012776 0.035621 -0.004301 -0.2271399 0.6475318 -0.7273996 255 255 255 255 0.352622 0.189374
0.001915 0.051104 -0.001928 0.2966902 0.711822 -0.6366195 255 255 255 255 0.352623 0.189373
-0.012003 0.04664 -0.011202 0.04056619 0.2114186 -0.9765534 255 255 255 255 0.352623 0.189373
-0.004218 0.050837 -0.006999 0.2594739 0.7625681 -0.5925903 255 255 255 255 0.352623 0.189373
-0.014771 0.05148 -0.007422 -0.5106418 0.8178188 -0.2653628 255 255 255 255 0.352623 0.189373
0.006592 0.043188 -0.00687 0.7433243 0.4269685 -0.5149436 255 255 255 255 0.352622 0.189373
0.01108 0.040569 -0.001658 -0.04834242 0.8909717 -0.4514782 255 255 255 255 0.352622 0.189373
0.015277 0.036159 -0.009322 -0.2584803 0.8041623 -0.5352672 255 255 255 255 0.352622 0.189374
0.010411 0.034584 -0.007564 0.3543624 0.8161786 -0.456377 255 255 255 255 0.352622 0.189374
-0.014367 0.040705 -0.011343 -0.1600031 0.6993706 -0.6966203 255 255 255 255 0.352623 0.189373
0.006723 0.038711 -0.007486 0.6448673 0.4665694 -0.6053588 255 255 255 255 0.352622 0.189374
0.013383 0.025522 -0.016511 -0.01929057 0.6892634 -0.724254 255 255 255 255 0.352622 0.189374
-0.000671 0.038822 -0.013493 0.2996321 0.654425 -0.6942252 255 255 255 255 0.352623 0.189374
-0.001034 0.039923 -0.011548 0.1882607 0.9656285 -0.1792192 255 255 255 255 0.352623 0.189373
0.008566 0.039803 -0.003868 0.8140596 0.5392681 -0.2156313 255 255 255 255 0.352622 0.189373
0.012337 0.030094 -0.014578 -0.2172052 0.5866905 -0.7801386 255 255 255 255 0.352622 0.189374
-0.000498 0.044718 -0.009478 0.2423875 0.05235373 -0.9687659 255 255 255 255 0.352623 0.189373
0.005674 0.042107 -0.007704 0.3831707 0.1329212 -0.9140636 255 255 255 255 0.352622 0.189373
0.00699 0.036294 -0.010728 0.5839471 0.5215255 -0.622107 255 255 255 255 0.352622 0.189374
-0.020967 0.02846 -0.015797 -0.7458452 -0.003933222 -0.6661078 255 255 255 255 0.352623 0.189374
0.005954 0.03232 -0.013357 0.5581398 0.2251274 -0.7986224 255 255 255 255 0.352622 0.189374
0.008887 0.024999 -0.01719 -0.6088917 0.6534142 -0.4497787 255 255 255 255 0.352622 0.189374
0.009965 0.022701 -0.019376 -0.3520449 0.4373921 -0.8274978 255 255 255 255 0.352622 0.189374
0.001844 0.028683 -0.015708 0.2892645 -0.2901453 -0.912218 255 255 255 255 0.352623 0.189374
0.004353 0.01727 -0.01734 -0.02750601 0.367669 -0.9295499 255 255 255 255 0.352623 0.189374
-0.000386 0.020804 -0.019416 0.3159187 0.6643794 -0.6773443 255 255 255 255 0.352623 0.189374
-0.016354 0.018083 -0.0136 0.008775542 0.6446555 -0.7644229 255 255 255 255 0.352623 0.189374
0.009041 0.010345 -0.021556 -0.3127828 0.04012068 -0.948977 255 255 255 255 0.352622 0.189374
-0.005149 0.02053 -0.017271 -0.2251515 0.7619778 -0.607204 255 255 255 255 0.352623 0.189374
0.019958 0.016474 -0.020284 0.3262486 0.109639 -0.9389043 255 255 255 255 0.352622 0.189374
-0.000421 0.011432 -0.021894 0.3202338 0.07718264 -0.9441892 255 255 255 255 0.352623 0.189374
-0.001316 0.017905 -0.021025 0.2574011 0.334336 -0.9066224 255 255 255 255 0.352623 0.189374
-0.001414 0.004688 -0.022094 0.3452588 -0.1316585 -0.9292268 255 255 255 255 0.352623 0.189374
0.004823 0.004319 -0.018363 -0.2494333 -0.661745 -0.7070196 255 255 255 255 0.352623 0.189374
0.012594 0.01009 -0.022032 -0.02587715 0.09895311 -0.9947556 255 255 255 255 0.352622 0.189374
0.019475 0.009658 -0.021307 0.2420785 0.01064292 -0.9701983 255 255 255 255 0.352622 0.189374
0.01113 0.005039 -0.02144 -0.1232155 -0.4094874 -0.9039569 255 255 255 255 0.352622 0.189374
-0.010479 0.001206 -0.019484 -0.07437301 -0.8754493 -0.4775533 255 255 255 255 0.352623 0.189374
-0.005007 0.001146 -0.019319 0.05175739 -0.9838626 -0.1712761 255 255 255 255 0.352623 0.189374
-0.021969 0.001444 -0.016796 -0.3981378 -0.8608397 -0.3169249 255 255 255 255 0.352623 0.189374
0.010194 0.00274 -0.019143 -0.1009644 -0.8821058 -0.4601039 255 255 255 255 0.352622 0.189374
-0.013884 0.000124 -0.014298 -0.02776458 -0.9925949 -0.1182564 255 255 255 255 0.352623 0.189374
-0.021012 0 -0.006033 -0.2754756 -0.9612992 0.004132907 255 255 255 255 0.352623 0.189374
-0.002175 0.00393 -0.006768 0.1308721 -0.9707902 0.2010942 255 255 255 255 0.352623 0.189374
-0.02259 0.001817 0.001847 -0.5709114 -0.7895284 0.2251777 255 255 255 255 0.352623 0.189374
-0.005926 0.000372 -0.01043 0.1574888 -0.9863308 0.04846511 255 255 255 255 0.352623 0.189374
0.019704 0.002342 -0.008477 0.2644508 -0.9634967 -0.04171167 255 255 255 255 0.352622 0.189374
0.00609 0.004513 0.001376 0.05073991 -0.9946275 -0.0902307 255 255 255 255 0.352622 0.189374
0.004042 0.001808 -0.009472 -0.2252509 -0.9639489 -0.1416496 255 255 255 255 0.352623 0.189374
-0.004123 0.004837 -0.004182 0.1677238 -0.9224994 0.3476544 255 255 255 255 0.352623 0.189374
-0.006802 0.004087 0.000379 -0.01365886 -0.9443057 -0.3287859 255 255 255 255 0.352623 0.189374
0.002385 0.001456 0.005199 0.05374043 -0.9882459 -0.1431153 255 255 255 255 0.352623 0.189374
0.002188 0.001994 0.003426 0.08573077 -0.8645224 -0.4952285 255 255 255 255 0.352623 0.189374
-0.013339 0.002053 0.004705 -0.06734858 -0.9418666 -0.3291678 255 255 255 255 0.352623 0.189374
0.008814 0.001744 0.008945 0.1217421 -0.9920487 -0.03190913 255 255 255 255 0.352622 0.189374
0.012221 0.002781 0.006743 0.3638011 -0.8563203 -0.3665574 255 255 255 255 0.352622 0.189374
0.018817 0.004021 0.011653 0.6482228 -0.6304747 -0.4269764 255 255 255 255 0.352622 0.189374
-0.018179 0.0053 0.020344 -0.2361779 -0.5503902 0.8008063 255 255 255 255 0.352623 0.189374
0.017201 0.004283 0.020005 0.3071536 -0.6797659 0.6660143 255 255 255 255 0.352622 0.189374
0.019777 0.007011 0.006669 0.5743046 -0.5298157 0.6240751 255 255 255 255 0.352622 0.189374
0.023871 0.005025 -0.017854 0.7437291 -0.6273143 -0.2309628 255 255 255 255 0.352622 0.189374
0.021796 0.022749 0.00094 0.9599085 0.2049383 0.1912486 255 255 255 255 0.352622 0.189374
0.021842 0.025567 -0.004813 0.6512001 0.735127 0.1884859 255 255 255 255 0.352622 0.189374
0.024544 0.024966 -0.006828 0.810718 0.5633581 0.1592606 255 255 255 255 0.352622 0.189374
0.020521 0.030443 -6.6e-05 0.986041 0.1661557 -0.01074394 255 255 255 255 0.352622 0.189374
0.024589 0.007292 -0.01627 0.9852031 -0.1298367 -0.1118806 255 255 255 255 0.352622 0.189374
0.015656 0.00568 0.007089 0.5488078 -0.830438 -0.0958274 255 255 255 255 0.352622 0.189374
0.020867 0.004541 0.016189 0.7286912 -0.6721452 0.1312633 255 255 255 255 0.352622 0.189374
0.02024 0.004243 -0.020097 0.2303986 -0.7138642 -0.6612975 255 255 255 255 0.352622 0.189374
0.021501 0.008649 0.019022 0.8208883 -0.1423107 0.5530732 255 255 255 255 0.352622 0.189374
0.016625 0.039728 -0.00343 0.4877943 0.8494926 -0.2010449 255 255 255 255 0.352622 0.189373
0.020712 0.021764 -0.019138 0.4393934 0.388041 -0.810159 255 255 255 255 0.352622 0.189374
0.024586 0.023826 -0.015001 0.7923827 0.4865322 -0.3679894 255 255 255 255 0.352622 0.189374
0.018582 0.0143 0.010983 0.9982892 0.05819916 -0.005612128 255 255 255 255 0.352622 0.189374
0.018568 0.039198 0.00438 0.6955059 0.6896891 0.2014958 255 255 255 255 0.352622 0.189374
-0.023016 0.013631 5.3e-05 -0.8885052 0.1031138 -0.4471309 255 255 255 255 0.352623 0.189374
-0.022946 0.003251 0.013885 -0.6486087 -0.7260722 0.2283112 255 255 255 255 0.352623 0.189374
-0.021232 0.001798 0.010328 -0.280919 -0.9583187 0.05205709 255 255 255 255 0.352623 0.189374
-0.02091 0.003849 -0.020349 -0.3332838 -0.5192745 -0.7869408 255 255 255 255 0.352623 0.189374
-0.020189 0.009557 -0.004653 -0.8942739 0.1458177 0.4230974 255 255 255 255 0.352623 0.189374
-0.02283 0.013716 -0.007711 -0.9263191 0.07525579 0.369147 255 255 255 255 0.352623 0.189374
-0.021269 0.019732 -0.000445 -0.8053508 0.2552499 -0.5350305 255 255 255 255 0.352623 0.189374
-0.023206 0.012454 -0.020773 -0.6375474 0.1921834 -0.7460556 255 255 255 255 0.352623 0.189374
-0.022262 0.000816 -0.004921 -0.8264178 -0.5441048 0.1448572 255 255 255 255 0.352623 0.189374
-0.024142 0.002619 -0.009967 -0.8978034 -0.4327989 0.08144992 255 255 255 255 0.352623 0.189374
-0.020529 0.01853 -0.015864 -0.3426794 0.8430195 -0.4145951 255 255 255 255 0.352623 0.189374
-0.024413 0.003768 -0.01746 -0.8601965 -0.3974151 -0.3195673 255 255 255 255 0.352623 0.189374
-0.01577 0.040129 -0.010177 -0.8653326 0.4914711 -0.09826309 255 255 255 255 0.352623 0.189373
-0.019083 0.034082 -0.00161 -0.9957461 0.07045623 0.05937651 255 255 255 255 0.352623 0.189374
-0.021801 0.029445 -0.012816 -0.9901184 0.05627451 -0.1284478 255 255 255 255 0.352623 0.189374
-0.023466 0.014853 -0.019147 -0.7714371 0.4659039 -0.4333802 255 255 255 255 0.352623 0.189374
-0.021262 0.025919 -0.014098 -0.9260138 -0.244499 -0.2876087 255 255 255 255 0.352623 0.189374
-0.021171 0.032851 -0.007178 -0.9223306 0.3576797 0.1461905 255 255 255 255 0.352623 0.189374
-0.017991 0.040977 0.004787 -0.9018975 0.2940729 0.3163891 255 255 255 255 0.352623 0.189373
-0.019846 0.036898 0.000408 -0.9967453 0.02572861 0.0764002 255 255 255 255 0.352623 0.189374
-0.024738 0.00935 0.01492 -0.9970637 0.04962325 0.05832353 255 255 255 255 0.352623 0.189374
-0.023487 0.005797 0.001151 -0.9837787 -0.07806435 -0.1615102 255 255 255 255 0.352623 0.189374
-0.017884 0.017966 -0.01918 -0.1501044 0.8811554 -0.448368 255 255 255 255 0.352623 0.189374
-0.016335 0.046744 -0.010252 -0.7099986 0.3068617 -0.633828 255 255 255 255 0.352623 0.189373
-0.018759 0.041242 -0.005325 -0.9613986 0.05319744 -0.2699681 255 255 255 255 0.352623 0.189373
-0.017261 0.044591 0.000749 -0.7617714 0.5777572 0.2930886 255 255 255 255 0.352623 0.189373
-0.015838 0.050424 -0.004973 -0.8242913 0.5573255 0.09966063 255 255 255 255 0.352623 0.189373
-0.019018 0.0292 0.006605 -0.5665501 0.7922729 0.2265497 255 255 255 255 0.352623 0.189374
-0.005001 0.022329 0.01976 -0.5865989 0.2052012 0.7834502 255 255 255 255 0.352623 0.189374
0.013939 0.025562 0.019041 0.3256439 0.2262374 0.9180265 255 255 255 255 0.352622 0.189374
-0.001172 0.030703 0.012462 0.09765871 0.5267178 0.8444118 255 255 255 255 0.352623 0.189374
-0.004846 0.043334 0.012448 -0.1535217 0.3931676 0.9065596 255 255 255 255 0.352623 0.189373
0.003088 0.036287 0.009243 0.08981302 0.3363827 0.9374328 255 255 255 255 0.352623 0.189374
-0.015954 0.031168 0.008959 -0.4194449 0.7856774 0.4547274 255 255 255 255 0.352623 0.189374
0.001915 0.051632 -0.001928 -0.09087551 0.9026187 -0.4207388 255 255 255 255 0.352623 0.189373
0.007313 0.027641 -0.012861 -0.02483319 0.3595874 -0.9327809 255 255 255 255 0.352622 0.189374
0.007045 0.002515 0.016828 0.03076607 -0.9734596 0.2267817 255 255 255 255 0.352622 0.189374
0.022284 0.012893 0.004137 0.9301462 -0.01770816 0.3667623 255 255 255 255 0.352622 0.189374
0.020596 0.02723 -0.00197 0.9720385 0.2311703 -0.04124944 255 255 255 255 0.352622 0.189374
-0.024255 0.008427 -0.019581 -0.8734492 -0.0782198 -0.4805916 255 255 255 255 0.352623 0.189374
-0.021574 0.026648 0.004937 -0.8868449 0.3666032 -0.2812617 255 255 255 255 0.352623 0.189374
-0.017994 0.014063 0.021032 -0.4914832 0.2258713 0.8410864 255 255 255 255 0.352623 0.189374
-0.0194 0.040093 -0.014527 -0.6759823 0.6885424 -0.2625974 255 255 255 255 0.352623 0.189373
3 92 90 182 
3 90 91 182 
3 93 8 37 
3 39 7 183 
3 7 37 183 
3 93 37 7 
3 7 38 93 
3 98 93 38 
3 44 94 27 
3 94 39 27 
3 194 27 39 
3 8 93 100 
3 8 99 182 
3 99 96 182 
3 228 95 98 
3 93 98 95 
3 92 182 96 
3 8 100 99 
3 99 100 75 
3 102 97 94 
3 94 97 39 
3 39 97 7 
3 38 97 102 
3 7 97 38 
3 102 98 38 
3 76 98 102 
3 100 93 95 
3 96 99 104 
3 75 104 99 
3 96 104 92 
3 9 40 1 
3 98 110 228 
3 100 95 228 
3 109 111 228 
3 111 100 228 
3 241 92 101 
3 92 104 101 
3 40 9 75 
3 104 75 9 
3 94 107 102 
3 102 107 76 
3 42 108 41 
3 94 42 229 
3 42 41 229 
3 44 42 94 
3 43 103 1 
3 1 103 9 
3 103 104 9 
3 103 101 104 
3 46 112 105 
3 108 117 105 
3 87 108 44 
3 117 108 106 
3 87 106 108 
3 94 229 107 
3 229 41 107 
3 107 41 112 
3 108 112 41 
3 112 108 105 
3 42 44 108 
3 78 40 45 
3 45 40 111 
3 112 110 107 
3 76 107 110 
3 76 110 98 
3 110 109 228 
3 100 111 75 
3 75 111 40 
3 45 110 112 
3 109 110 45 
3 10 11 45 
3 116 45 11 
3 109 45 111 
3 230 10 45 
3 45 112 230 
3 122 79 231 
3 116 122 231 
3 11 113 122 
3 122 116 11 
3 11 10 114 
3 46 232 77 
3 114 10 232 
3 77 232 10 
3 11 114 113 
3 115 232 46 
3 46 77 112 
3 112 77 230 
3 10 230 77 
3 117 115 105 
3 46 105 115 
3 115 47 232 
3 114 232 47 
3 233 48 78 
3 48 1 78 
3 40 78 1 
3 227 43 48 
3 233 227 48 
3 43 1 48 
3 45 116 78 
3 233 78 81 
3 120 81 116 
3 78 116 81 
3 120 116 231 
3 114 50 113 
3 47 115 2 
3 2 115 117 
3 2 117 106 
3 199 2 118 
3 199 82 2 
3 47 2 82 
3 119 226 80 
3 49 12 119 
3 119 80 49 
3 218 81 120 
3 120 231 79 
3 80 225 79 
3 120 79 225 
3 121 49 123 
3 12 49 121 
3 79 123 80 
3 123 49 80 
3 12 121 50 
3 123 79 122 
3 50 123 122 
3 121 123 50 
3 113 50 122 
3 50 114 124 
3 124 114 13 
3 114 199 131 
3 114 47 199 
3 82 199 47 
3 129 14 56 
3 124 13 139 
3 125 139 13 
3 13 131 125 
3 114 131 13 
3 124 234 50 
3 129 12 14 
3 12 126 14 
3 126 124 139 
3 50 126 12 
3 124 126 234 
3 50 234 126 
3 14 128 56 
3 128 126 130 
3 14 126 128 
3 130 126 139 
3 131 195 51 
3 131 51 125 
3 125 51 53 
3 125 53 52 
3 52 139 125 
3 139 52 135 
3 51 132 53 
3 133 135 52 
3 83 133 53 
3 52 53 133 
3 140 132 54 
3 132 140 83 
3 132 83 53 
3 54 132 51 
3 142 134 127 
3 127 134 55 
3 135 134 142 
3 141 130 142 
3 141 56 128 
3 141 128 130 
3 141 127 56 
3 140 54 136 
3 57 136 54 
3 142 127 141 
3 58 138 137 
3 138 58 134 
3 135 130 139 
3 135 142 130 
3 145 133 235 
3 83 235 133 
3 140 235 83 
3 133 143 135 
3 138 134 135 
3 143 138 135 
3 58 144 242 
3 58 59 60 
3 59 61 60 
3 61 145 148 
3 148 145 235 
3 143 133 145 
3 59 137 61 
3 61 137 145 
3 58 137 59 
3 145 137 143 
3 143 137 138 
3 147 149 146 
3 140 136 146 
3 86 147 136 
3 136 57 86 
3 57 196 86 
3 147 146 136 
3 140 146 149 
3 140 149 235 
3 60 61 148 
3 15 148 235 
3 63 60 15 
3 148 15 60 
3 15 149 150 
3 235 149 15 
3 144 58 60 
3 60 63 0 
3 147 152 149 
3 152 62 149 
3 64 15 153 
3 64 63 15 
3 150 153 15 
3 151 16 222 
3 64 151 63 
3 153 16 64 
3 151 64 16 
3 154 152 86 
3 147 86 152 
3 155 156 150 
3 156 16 150 
3 153 150 16 
3 149 62 150 
3 16 156 65 
3 155 65 156 
3 222 16 65 
3 215 222 65 
3 33 6 157 
3 155 157 65 
3 6 65 157 
3 154 159 152 
3 158 62 152 
3 161 152 159 
3 150 62 155 
3 17 203 33 
3 17 33 157 
3 62 157 155 
3 66 157 62 
3 158 152 161 
3 158 66 62 
3 29 18 160 
3 18 193 160 
3 161 159 160 
3 161 160 193 
3 17 162 203 
3 161 193 165 
3 158 161 165 
3 157 66 17 
3 17 163 162 
3 164 162 166 
3 164 203 162 
3 193 171 165 
3 170 166 163 
3 166 162 163 
3 166 167 164 
3 68 167 166 
3 68 166 170 
3 163 17 67 
3 67 170 163 
3 66 67 17 
3 69 67 168 
3 66 168 67 
3 71 168 173 
3 173 168 158 
3 165 173 158 
3 66 158 168 
3 24 171 185 
3 185 171 193 
3 165 84 173 
3 68 170 69 
3 68 69 169 
3 170 67 69 
3 169 19 20 
3 70 71 84 
3 71 173 84 
3 174 71 172 
3 84 171 70 
3 84 165 171 
3 73 72 70 
3 70 72 71 
3 71 72 172 
3 172 180 177 
3 174 168 71 
3 175 19 174 
3 19 169 69 
3 168 174 69 
3 19 69 174 
3 172 175 174 
3 70 171 24 
3 24 73 70 
3 19 175 20 
3 175 178 20 
3 172 177 175 
3 175 177 178 
3 202 176 179 
3 178 176 202 
3 176 178 177 
3 37 74 236 
3 202 236 74 
3 177 180 176 
3 179 176 180 
3 180 72 191 
3 172 72 180 
3 181 180 191 
3 202 179 236 
3 180 181 21 
3 21 181 192 
3 179 180 21 
3 91 201 182 
3 37 8 74 
3 182 74 8 
3 182 201 74 
3 21 183 236 
3 192 183 21 
3 179 21 236 
3 183 37 236 
3 190 22 23 
3 184 23 237 
3 237 23 22 
3 190 23 185 
3 24 185 23 
3 184 73 24 
3 184 24 23 
3 187 238 186 
3 28 187 188 
3 189 118 186 
3 186 238 189 
3 28 188 197 
3 237 22 186 
3 186 22 188 
3 22 197 188 
3 186 188 187 
3 190 197 22 
3 237 118 26 
3 237 186 118 
3 72 73 191 
3 3 191 26 
3 3 25 181 
3 3 181 191 
3 73 184 191 
3 26 191 184 
3 181 25 192 
3 18 185 193 
3 3 26 198 
3 28 238 187 
3 238 85 189 
3 199 189 85 
3 25 198 87 
3 237 26 184 
3 118 198 26 
3 39 183 194 
3 194 183 192 
3 25 194 192 
3 25 27 194 
3 87 27 25 
3 3 198 25 
3 44 27 87 
3 238 28 85 
3 85 28 57 
3 28 197 57 
3 199 85 195 
3 85 51 195 
3 85 54 51 
3 29 160 154 
3 159 154 160 
3 190 185 18 
3 196 197 29 
3 18 29 190 
3 190 29 197 
3 85 57 54 
3 197 196 57 
3 154 196 29 
3 154 86 196 
3 118 2 106 
3 198 118 106 
3 198 106 87 
3 118 189 199 
3 131 199 195 
3 30 208 167 
3 169 221 30 
3 167 169 30 
3 169 167 68 
3 31 30 200 
3 221 200 30 
3 204 208 30 
3 74 201 202 
3 221 20 201 
3 20 202 201 
3 178 202 20 
3 221 169 20 
3 201 91 221 
3 208 164 167 
3 209 211 208 
3 208 211 164 
3 164 211 203 
3 215 239 35 
3 239 215 207 
3 209 35 239 
3 209 239 211 
3 207 6 239 
3 239 6 203 
3 6 33 203 
3 204 30 31 
3 4 204 31 
3 209 205 35 
3 205 4 5 
3 205 208 4 
3 4 208 204 
3 209 208 205 
3 200 240 206 
3 206 240 88 
3 88 240 36 
3 36 240 220 
3 240 200 220 
3 32 89 31 
3 31 89 4 
3 89 32 213 
3 31 206 88 
3 88 32 31 
3 31 200 206 
3 211 239 203 
3 207 65 6 
3 0 34 216 
3 5 34 210 
3 34 0 210 
3 214 216 4 
3 34 4 216 
3 34 5 4 
3 35 205 5 
3 5 210 215 
3 222 215 210 
3 5 215 35 
3 216 214 144 
3 214 242 144 
3 89 214 4 
3 213 88 219 
3 233 81 88 
3 218 88 81 
3 218 219 88 
3 217 213 212 
3 213 32 88 
3 89 217 214 
3 89 213 217 
3 242 214 217 
3 207 215 65 
3 134 212 55 
3 213 224 55 
3 213 55 212 
3 213 219 224 
3 212 242 217 
3 224 219 225 
3 120 225 219 
3 223 55 224 
3 220 221 91 
3 220 200 221 
3 36 220 90 
3 101 90 241 
3 36 90 101 
3 212 134 242 
3 92 241 90 
3 220 91 90 
3 222 210 151 
3 0 151 210 
3 144 0 216 
3 144 60 0 
3 151 0 63 
3 101 103 43 
3 36 101 43 
3 242 134 58 
3 56 127 223 
3 55 223 127 
3 223 129 56 
3 223 224 129 
3 226 129 224 
3 80 226 225 
3 225 226 224 
3 233 88 227 
3 43 227 36 
3 88 36 227 
3 219 218 120 
3 129 119 12 
3 226 119 129 
