ply
format ascii 1.0
comment VCGLIB generated
comment TextureFile Textures//Combined_Texture//Texture_01_A.png
element vertex 278
property float x
property float y
property float z
property float nx
property float ny
property float nz
property uchar red
property uchar green
property uchar blue
property uchar alpha
property float texture_u
property float texture_v
element face 552
property list uchar int vertex_indices
end_header
0.051021 0.084199 -0.117871 0.6106526 0.317075 -0.7256494 255 255 255 255 0.351704 0.187790
0.106181 0.010732 -0.112057 0.8944487 0.2065004 -0.3966349 255 255 255 255 0.351704 0.187790
-0.036108 0.078113 0.104247 -0.7644047 0.5059093 0.3996764 255 255 255 255 0.351704 0.187790
-0.077301 0.005374 0.05953 -0.4631755 -0.6089175 0.6439627 255 255 255 255 0.351704 0.187790
-0.092533 0.061166 -0.120136 -0.3150133 0.4769652 -0.8205308 255 255 255 255 0.351704 0.187790
0.004697 0.041442 -0.157392 0.05808753 0.09780729 -0.9935088 255 255 255 255 0.351704 0.187790
0.029523 0.127475 0.111235 -0.4676123 0.5742798 0.6719683 255 255 255 255 0.351704 0.187790
0.030393 0.134284 -0.085321 -0.5953391 0.7448332 -0.3013219 255 255 255 255 0.351704 0.187790
0.047419 0.029267 0.14681 0.1280725 0.2871218 0.9492937 255 255 255 255 0.351704 0.187790
-0.027359 0.165889 -0.000933 -0.4312117 0.8985236 -0.0819255 255 255 255 255 0.351704 0.187790
-0.02214 0.069119 -0.144898 -0.1367608 0.1973806 -0.9707407 255 255 255 255 0.351704 0.187790
-0.099931 0.082729 -0.094596 -0.6086338 0.7837147 0.123921 255 255 255 255 0.351704 0.187790
0.087771 0.004375 0.080617 0.5071369 -0.8120027 0.2889012 255 255 255 255 0.351704 0.187790
0.047368 0.05117 -0.144723 0.3385148 0.3175426 -0.8857621 255 255 255 255 0.351704 0.187790
0.100076 0.056191 -0.049928 0.7037796 0.6763648 -0.217313 255 255 255 255 0.351704 0.187790
-0.015378 0.065015 0.131654 -0.1768546 0.3439274 0.9221911 255 255 255 255 0.351704 0.187790
0.10372 0.065693 0.025463 0.5794412 0.8044056 -0.1310712 255 255 255 255 0.351704 0.187790
0.026666 0.114491 -0.107943 -0.4273688 0.72133 -0.5450129 255 255 255 255 0.351704 0.187790
0.012407 0.111676 -0.089206 -0.2169655 0.9231781 -0.3172827 255 255 255 255 0.351704 0.187790
-0.015972 0.114289 0.126354 -0.4456247 0.5183312 0.7298982 255 255 255 255 0.351704 0.187790
0.056731 0.129916 -0.071453 0.8147368 0.5444709 -0.1993875 255 255 255 255 0.351704 0.187790
-0.051932 0.139697 0.018479 -0.8954918 0.3668301 0.2520518 255 255 255 255 0.351704 0.187790
0.074068 0.114432 0.088414 0.937825 0.2631315 0.2263761 255 255 255 255 0.351704 0.187790
-0.03796 0.047542 0.116186 -0.8653843 -0.09061298 0.4928481 255 255 255 255 0.351704 0.187790
0.129905 0.011194 -0.029397 0.9187422 -0.1812322 -0.3508103 255 255 255 255 0.351704 0.187790
-0.049946 0.030001 -0.148491 -0.183879 0.04394852 -0.9819659 255 255 255 255 0.351704 0.187790
0.080275 0.051599 0.121555 0.8496389 0.1247388 0.5124002 255 255 255 255 0.351704 0.187790
-0.027262 0.132056 -0.076465 0.1893479 0.834083 -0.5181244 255 255 255 255 0.351704 0.187790
-0.029713 0.111072 0.107149 -0.8585804 0.1792876 0.4803078 255 255 255 255 0.351704 0.187790
-0.140334 0.016194 -0.073509 -0.9792081 0.1910594 0.06817591 255 255 255 255 0.351704 0.187790
0.108457 0.015729 0.075414 0.6576609 -0.04728756 0.7518285 255 255 255 255 0.351704 0.187790
-0.039454 0.026287 0.105874 -0.9416592 -0.08593626 0.325412 255 255 255 255 0.351704 0.187790
-0.046113 0.089142 -0.138636 -0.4586099 0.4245424 -0.7806669 255 255 255 255 0.351704 0.187790
-0.007687 0.167005 0.009084 -0.2693965 0.9372994 0.2211233 255 255 255 255 0.351704 0.187790
0.051114 0.140796 -0.022113 0.6322476 0.7413246 -0.2251684 255 255 255 255 0.351704 0.187790
0.045662 0.13882 0.009188 0.5449979 0.7783539 0.3116772 255 255 255 255 0.351704 0.187790
-0.058618 0.138801 -0.037212 -0.7423099 0.6700119 0.007749487 255 255 255 255 0.351704 0.187790
0.07745 0.120547 0.055958 0.8063119 0.5847936 0.0887556 255 255 255 255 0.351704 0.187790
0.06496 0.139855 0.112947 0.6109997 0.7063667 0.3573871 255 255 255 255 0.351704 0.187790
-0.099063 0.073729 -0.08552 -0.4520281 0.8731036 0.1826493 255 255 255 255 0.351704 0.187790
-0.071899 0.058733 -0.134309 -0.6621512 0.2784079 -0.6957332 255 255 255 255 0.351704 0.187790
0.080546 0.059815 0.09621 0.8510142 0.3698651 0.372793 255 255 255 255 0.351704 0.187790
-0.137967 0.022374 -0.084893 -0.9709107 0.2103605 -0.1143717 255 255 255 255 0.351704 0.187790
-0.07513 0.064104 0.056119 -0.7239953 0.5970442 0.3454982 255 255 255 255 0.351704 0.187790
-0.126343 0.044086 0.018824 -0.5656887 0.8190804 -0.09541298 255 255 255 255 0.351704 0.187790
-0.131969 0.0049 -0.001684 -0.9484066 -0.3141966 -0.04249048 255 255 255 255 0.351704 0.187790
-0.126787 0.003948 -0.111323 -0.6140871 -0.6104059 -0.5003017 255 255 255 255 0.351704 0.187790
-0.086765 0.013891 -0.136755 -0.4100088 0.05078425 -0.9106666 255 255 255 255 0.351704 0.187790
0.073043 0.001676 0.126726 0.2497898 -0.9515383 0.1793876 255 255 255 255 0.351704 0.187790
0.121759 0.001102 0.001768 0.1860015 -0.9808061 0.05850531 255 255 255 255 0.351704 0.187790
0.017878 0.001761 0.140474 -0.04177365 -0.9751178 0.2177162 255 255 255 255 0.351704 0.187790
0.125782 0.006368 0.044565 0.9553834 -0.2700725 0.1195974 255 255 255 255 0.351704 0.187790
-0.096172 0.019351 0.051189 -0.3533159 0.09590212 0.9305755 255 255 255 255 0.351704 0.187790
0.115106 0.03472 -0.029848 0.6537707 0.7474791 -0.1177234 255 255 255 255 0.351704 0.187790
-0.061223 0.116425 -0.06837 -0.4870995 0.7044141 -0.5162702 255 255 255 255 0.351704 0.187790
-0.04071 0.149304 0.029448 -0.551471 0.7803719 0.294787 255 255 255 255 0.351704 0.187790
0.022469 0.164766 0.051511 0.4214573 0.8658057 0.2697298 255 255 255 255 0.351704 0.187790
0.132595 0.006326 -0.005099 0.9247053 -0.2900607 0.2465462 255 255 255 255 0.351704 0.187790
-0.047235 0.111572 -0.097999 -0.6367438 0.6949947 -0.3339755 255 255 255 255 0.351704 0.187790
-0.037469 0.097197 -0.137985 -0.1919016 0.6449209 -0.739764 255 255 255 255 0.351704 0.187790
-0.124069 0.019962 -0.02426 -0.8915054 0.4368846 0.1197921 255 255 255 255 0.351704 0.187790
-0.129998 0.041349 0.025777 -0.7919681 0.5719779 0.2136067 255 255 255 255 0.351704 0.187790
-0.052511 0.004927 -0.147973 -0.1685893 -0.3847405 -0.9074979 255 255 255 255 0.351704 0.187790
0.039394 0.045037 0.136452 0.1942714 0.2790202 0.9404289 255 255 255 255 0.351704 0.187790
-0.051906 0.143855 0.003844 -0.8532414 0.4996911 -0.1492917 255 255 255 255 0.351704 0.187790
0.08042 0.056995 -0.096028 0.5433111 0.813888 -0.2059116 255 255 255 255 0.351704 0.187790
0.119865 0.06203 0.00066 0.803671 0.5851203 -0.1083846 255 255 255 255 0.351704 0.187790
0.038827 0.009494 -0.149683 0.45518 -0.05185961 -0.8888879 255 255 255 255 0.351704 0.187790
-0.077029 0.04087 -0.133664 -0.523006 0.2175526 -0.8240969 255 255 255 255 0.351704 0.187790
-0.088329 0.083394 -0.115134 -0.2900065 0.6432979 -0.7085649 255 255 255 255 0.351704 0.187790
0.111508 0.003292 -0.0925 0.7555755 -0.6246138 -0.197391 255 255 255 255 0.351704 0.187790
0.071617 0.054991 -0.120965 0.6678276 0.5845212 -0.4608049 255 255 255 255 0.351704 0.187790
0.007331 0.081829 -0.148991 0.3560027 0.5007662 -0.7889838 255 255 255 255 0.351704 0.187790
0.020161 0.064492 -0.135492 0.5575562 0.600319 -0.5733657 255 255 255 255 0.351704 0.187790
0.031158 0.000294 0.058395 0.006806319 -0.9999471 0.007713548 255 255 255 255 0.351704 0.187790
-0.068282 0.046439 -0.140598 -0.5204618 0.1034407 -0.8475963 255 255 255 255 0.351704 0.187790
-0.03089 0.001402 0.127294 -0.297762 -0.9213299 0.2499782 255 255 255 255 0.351704 0.187790
-0.063979 0.064893 0.067933 -0.8239474 0.3387652 0.4542564 255 255 255 255 0.351704 0.187790
-0.059017 0.026375 0.067006 -0.6062425 0.3348466 0.7213514 255 255 255 255 0.351704 0.187790
0.060864 0.038532 0.138562 0.3686131 0.3198989 0.8728054 255 255 255 255 0.351704 0.187790
0.120984 0.032339 0.001636 0.9255414 0.3158428 0.2088456 255 255 255 255 0.351704 0.187790
-0.003031 0.10512 -0.127254 0.05282088 0.7782049 -0.6257851 255 255 255 255 0.351704 0.187790
0.004621 0.126912 -0.057059 -0.00284211 0.8330638 -0.5531695 255 255 255 255 0.351704 0.187790
0.089475 0.105808 0.041506 0.8741181 0.4696289 -0.1239607 255 255 255 255 0.351704 0.187790
0.059448 0.135727 0.007574 0.2520276 0.9657787 -0.06126684 255 255 255 255 0.351704 0.187790
0.069658 0.132208 0.017517 0.6601827 0.7446308 -0.09840719 255 255 255 255 0.351704 0.187790
-0.033085 0.007514 0.137747 -0.6039961 -0.3461516 0.7178912 255 255 255 255 0.351704 0.187790
-0.039454 0.026287 0.105874 -0.8452784 0.3608947 0.3940298 255 255 255 255 0.351704 0.187790
-0.057928 0.058538 -0.142617 -0.3429868 0.2012787 -0.9175221 255 255 255 255 0.351704 0.187790
-0.063717 0.094662 -0.086136 -0.4148065 0.7623565 -0.4967375 255 255 255 255 0.351704 0.187790
0.001647 0.167947 0.036344 -0.5567222 0.8222261 0.1183415 255 255 255 255 0.351704 0.187790
-0.020699 0.157233 0.012443 -0.2900081 0.8135346 0.5040405 255 255 255 255 0.351704 0.187790
0.025525 0.167321 -0.006954 0.2579549 0.9621813 -0.0875579 255 255 255 255 0.351704 0.187790
0.047984 0.135352 0.079025 0.2191853 0.9701732 -0.1035458 255 255 255 255 0.351704 0.187790
0.046305 0.13473 0.032018 0.3972337 0.9144697 0.07714136 255 255 255 255 0.351704 0.187790
-0.019921 0.111616 0.117382 -0.7648529 0.4176442 0.4904828 255 255 255 255 0.351704 0.187790
-0.062921 0.089747 -0.004383 -0.7643633 0.573033 -0.2956045 255 255 255 255 0.351704 0.187790
-0.033112 0.114597 -0.11552 -0.1107118 0.8803024 -0.461314 255 255 255 255 0.351704 0.187790
0.071435 0.108241 -0.00946 0.9160738 0.3339294 -0.222036 255 255 255 255 0.351704 0.187790
-0.039058 0.102851 0.077616 -0.9564379 0.1011972 0.273835 255 255 255 255 0.351704 0.187790
-0.02592 0.095747 0.114698 -0.8448892 0.1580416 0.5110629 255 255 255 255 0.351704 0.187790
0.102118 0.066869 0.042026 0.9198913 0.3668881 0.1385395 255 255 255 255 0.351704 0.187790
0.104342 0.051857 0.076202 0.7669637 0.4750892 0.4313431 255 255 255 255 0.351704 0.187790
0.105869 0.037977 -0.025763 0.8034481 0.5945763 -0.03082488 255 255 255 255 0.351704 0.187790
0.10856 0.061843 -0.012545 0.6685666 0.6608282 -0.3410642 255 255 255 255 0.351704 0.187790
0.094295 0.033497 0.078292 0.7923867 -0.07671504 0.6051761 255 255 255 255 0.351704 0.187790
0.11138 0.028913 0.063118 0.8215799 0.07265107 0.5654452 255 255 255 255 0.351704 0.187790
-0.067661 0.00235 -0.142218 -0.2448804 -0.7170233 -0.6526188 255 255 255 255 0.351704 0.187790
0.098408 0.005345 -0.125972 0.6472146 -0.3593564 -0.6722919 255 255 255 255 0.351704 0.187790
0.090438 0.00175 -0.122728 0.1605777 -0.9613833 -0.2235107 255 255 255 255 0.351704 0.187790
-0.123283 0.007323 0.045452 -0.5200531 -0.3640459 0.7726678 255 255 255 255 0.351704 0.187790
-0.110771 0.064396 -0.06793 -0.7544888 0.6369213 0.1583602 255 255 255 255 0.351704 0.187790
0.020637 0.167353 0.005046 0.3627554 0.9161557 0.1704914 255 255 255 255 0.351704 0.187790
-0.064429 0.091001 0.01628 -0.8075618 0.5629824 0.1757693 255 255 255 255 0.351704 0.187790
0.129341 0.002389 -0.010397 0.5659789 -0.8217455 -0.0663495 255 255 255 255 0.351704 0.187790
-0.01222 0.118971 0.116664 -0.2576875 0.790227 0.5560021 255 255 255 255 0.351704 0.187790
0.03655 0.095364 0.124187 -0.02875872 0.1532057 0.9877758 255 255 255 255 0.351704 0.187790
0.016499 0.137793 0.100127 -0.0448147 0.7940581 0.6061876 255 255 255 255 0.351704 0.187790
-0.006127 0.153397 0.028396 -0.4918377 0.8426492 0.2191761 255 255 255 255 0.351704 0.187790
0.028087 0.151614 -0.031078 0.2012777 0.8900207 -0.409085 255 255 255 255 0.351704 0.187790
0.081389 0.062185 -0.051896 0.633121 0.7529377 -0.1795627 255 255 255 255 0.351704 0.187790
0.058225 0.053373 -0.139176 0.6465215 0.3935258 -0.6535652 255 255 255 255 0.351704 0.187790
-0.098164 0.045462 0.027652 -0.4966004 0.8323436 -0.2461547 255 255 255 255 0.351704 0.187790
0.121234 0.002497 0.013407 0.7387524 -0.6398216 0.2118331 255 255 255 255 0.351704 0.187790
-0.055809 0.000441 -0.043839 -0.006414582 -0.9999646 -0.005445816 255 255 255 255 0.351704 0.187790
-0.010634 0.001375 -0.153047 -0.1250889 -0.766455 -0.6299997 255 255 255 255 0.351704 0.187790
-0.085727 0.001544 -0.127658 0.4937184 -0.6835111 0.5376381 255 255 255 255 0.351704 0.187790
-0.139439 0.001807 -0.086387 -0.7397554 -0.6499497 -0.1741477 255 255 255 255 0.351704 0.187790
-0.057284 0.001027 0.054751 -0.08379716 -0.9929288 0.08408628 255 255 255 255 0.351704 0.187790
0.086186 0.006323 0.120081 0.842819 -0.4814024 0.2406408 255 255 255 255 0.351704 0.187790
-0.118005 0.015206 -0.123065 -0.5811322 -0.0528463 -0.8120915 255 255 255 255 0.351704 0.187790
0.093479 0.019054 0.081234 0.7510726 -0.05113244 0.6582367 255 255 255 255 0.351704 0.187790
0.077871 0.028374 0.125349 0.8567501 0.2372254 0.457934 255 255 255 255 0.351704 0.187790
-0.003411 0.011462 -0.155739 -0.1931294 -0.03514604 -0.9805437 255 255 255 255 0.351704 0.187790
0.114272 0.016347 -0.075784 0.8988956 0.3586212 -0.2517489 255 255 255 255 0.351704 0.187790
-0.031653 0.071556 -0.145038 -0.06080153 0.1481831 -0.9870892 255 255 255 255 0.351704 0.187790
-0.03106 0.045708 -0.149767 -0.1421383 0.1454767 -0.9790982 255 255 255 255 0.351704 0.187790
-0.127552 0.012684 -0.012851 -0.9041948 0.4250167 -0.04233761 255 255 255 255 0.351704 0.187790
-0.055366 0.016056 0.08111 -0.8160143 0.25408 0.5191955 255 255 255 255 0.351704 0.187790
-0.070677 0.028656 0.061003 -0.4966347 0.1090115 0.8610868 255 255 255 255 0.351704 0.187790
0.116936 0.048266 0.032315 0.9561042 0.2787525 0.09034314 255 255 255 255 0.351704 0.187790
0.131944 0.032121 -0.013668 0.7730335 0.6343629 0.001745631 255 255 255 255 0.351704 0.187790
0.001644 0.061078 -0.156663 0.1240493 0.2087146 -0.9700773 255 255 255 255 0.351704 0.187790
-0.043225 0.040134 -0.149527 -0.1756456 0.1063348 -0.9786938 255 255 255 255 0.351704 0.187790
-0.082816 0.027376 0.056318 -0.4494428 0.1319044 0.8835171 255 255 255 255 0.351704 0.187790
0.099113 0.027231 -0.089413 0.7945939 0.5264334 -0.3024706 255 255 255 255 0.351704 0.187790
0.060453 0.065627 -0.121555 0.5665089 0.5710974 -0.5940669 255 255 255 255 0.351704 0.187790
0.061345 0.036126 -0.13653 0.688292 0.139775 -0.7118406 255 255 255 255 0.351704 0.187790
-0.09953 0.045395 0.005722 -0.6269888 0.7721373 0.103388 255 255 255 255 0.351704 0.187790
0.040002 0.064338 0.134336 0.188529 0.5485141 0.8146098 255 255 255 255 0.351704 0.187790
-0.050312 0.069281 0.101157 -0.8366596 0.3700172 0.4038415 255 255 255 255 0.351704 0.187790
0.114007 0.061814 0.01142 0.6784896 0.7127265 0.1779687 255 255 255 255 0.351704 0.187790
0.013625 0.069224 0.126873 -0.06435018 0.5989439 0.7982013 255 255 255 255 0.351704 0.187790
0.018698 0.062791 0.145408 0.04418195 0.5380723 0.84174 255 255 255 255 0.351704 0.187790
0.09758 0.090442 0.065972 0.9372239 0.3227124 0.1321671 255 255 255 255 0.351704 0.187790
-0.026736 0.07068 0.12488 -0.4735508 0.5368115 0.6982716 255 255 255 255 0.351704 0.187790
0.028337 0.100237 0.122055 -0.1511767 0.1973983 0.9685967 255 255 255 255 0.351704 0.187790
0.063642 0.105039 -0.07251 0.9674247 0.1871516 -0.1704812 255 255 255 255 0.351704 0.187790
0.039975 0.121997 -0.115494 0.09058003 0.5865104 -0.8048608 255 255 255 255 0.351704 0.187790
-0.054504 0.117261 -0.076171 -0.7552524 0.5132677 -0.4076152 255 255 255 255 0.351704 0.187790
0.041187 0.133209 -0.10061 0.1590179 0.8355926 -0.525831 255 255 255 255 0.351704 0.187790
-0.035821 0.118204 0.083958 -0.9208049 0.248877 0.3002978 255 255 255 255 0.351704 0.187790
0.043912 0.139503 -0.075492 0.2906523 0.9261313 -0.2404208 255 255 255 255 0.351704 0.187790
0.02527 0.143014 -0.049639 -0.5006927 0.7787327 -0.3779979 255 255 255 255 0.351704 0.187790
0.024482 0.162296 0.018822 0.5267602 0.8400117 -0.1300153 255 255 255 255 0.351704 0.187790
0.064256 0.133122 -0.000588 0.7781118 0.6225049 -0.08384349 255 255 255 255 0.351704 0.187790
0.037927 0.165412 -0.007858 0.4252469 0.8990033 0.1046818 255 255 255 255 0.351704 0.187790
-0.046863 0.140814 -0.065332 -0.5030359 0.7974936 -0.333105 255 255 255 255 0.351704 0.187790
-0.048076 0.150645 0.012084 -0.672816 0.727746 0.133058 255 255 255 255 0.351704 0.187790
-0.006585 0.151918 0.055659 -0.2775053 0.9146837 0.2938445 255 255 255 255 0.351704 0.187790
-0.018509 0.166846 -0.000989 -0.1568812 0.9790166 0.1300569 255 255 255 255 0.351704 0.187790
0.019172 0.154408 -0.026352 0.04485612 0.823523 -0.5655066 255 255 255 255 0.351704 0.187790
0.038732 0.139671 0.11946 -0.4620458 0.7008101 0.5434878 255 255 255 255 0.351704 0.187790
0.001617 0.138263 0.096668 -0.2583389 0.8493843 0.4602254 255 255 255 255 0.351704 0.187790
0.035151 0.102147 -0.11826 0.0578423 0.3174581 -0.9465066 255 255 255 255 0.351704 0.187790
0.084332 0.078183 0.007781 0.8169398 0.513503 -0.2625341 255 255 255 255 0.351704 0.187790
-0.05186 0.098762 -0.123354 -0.6177879 0.6586739 -0.4295194 255 255 255 255 0.351704 0.187790
-0.062032 0.070934 -0.137069 -0.5479718 0.3829419 -0.7436951 255 255 255 255 0.351704 0.187790
-0.113216 0.061328 -0.083208 -0.488395 0.8423449 -0.2278715 255 255 255 255 0.351704 0.187790
0.101057 0.05439 0.067884 0.6163656 0.7523215 0.232607 255 255 255 255 0.351704 0.187790
-0.028852 0.088801 -0.14313 -0.05684549 0.3799234 -0.9232696 255 255 255 255 0.351704 0.187790
-0.025356 0.015576 -0.150823 -0.2982558 -0.148374 -0.9428832 255 255 255 255 0.351704 0.187790
0.067837 0.016122 -0.137173 0.3239678 0.0852609 -0.9422184 255 255 255 255 0.351704 0.187790
0.075755 0.042939 -0.128547 0.5005151 0.4031462 -0.7661317 255 255 255 255 0.351704 0.187790
0.118408 0.020083 0.051385 0.9335063 0.2533333 0.2537485 255 255 255 255 0.351704 0.187790
-0.127853 0.001675 -0.026536 -0.1906085 -0.9811996 0.03026182 255 255 255 255 0.351704 0.187790
0.084152 0.026851 -0.127742 0.6347564 0.3552625 -0.6862018 255 255 255 255 0.351704 0.187790
-0.019489 0.018666 -0.155645 -0.2088999 -0.05969459 -0.9761134 255 255 255 255 0.351704 0.187790
-0.102698 0.058196 -0.09893 -0.6149622 0.6957549 -0.3711422 255 255 255 255 0.351704 0.187790
0.030995 0.142777 0.088298 0.1958465 0.9503775 0.2417163 255 255 255 255 0.351704 0.187790
0.063213 0.13449 0.079972 0.3282538 0.9383036 -0.1087925 255 255 255 255 0.351704 0.187790
-0.023356 0.131015 0.102272 -0.4203773 0.7115675 0.5629873 255 255 255 255 0.351704 0.187790
-0.010157 0.119602 -0.079708 0.3349506 0.8514518 -0.4035318 255 255 255 255 0.351704 0.187790
-0.016307 0.102581 -0.125358 0.02952671 0.8446425 -0.5345159 255 255 255 255 0.351704 0.187790
0.048085 0.139814 0.123183 0.0547832 0.6690886 0.7411608 255 255 255 255 0.351704 0.187790
-0.077532 0.090903 -0.078 -0.89477 0.3268699 0.3042082 255 255 255 255 0.351704 0.187790
-0.064524 0.083814 -0.018831 -0.4974343 0.8657985 -0.05433327 255 255 255 255 0.351704 0.187790
-0.068239 0.09105 0.004739 -0.565722 0.8219371 -0.0661663 255 255 255 255 0.351704 0.187790
-0.083824 0.080308 -0.063613 -0.332372 0.9427717 -0.02665506 255 255 255 255 0.351704 0.187790
-0.094457 0.086453 -0.045994 -0.4471932 0.894386 -0.009587914 255 255 255 255 0.351704 0.187790
-0.128045 0.053184 -0.102328 -0.7272974 0.5866487 -0.3562048 255 255 255 255 0.351704 0.187790
-0.106734 0.055829 -0.120635 -0.3596063 0.6277441 -0.6903773 255 255 255 255 0.351704 0.187790
0.090316 0.056188 -0.083635 0.6442681 0.7229738 -0.2494544 255 255 255 255 0.351704 0.187790
-0.11758 0.04188 -0.011942 -0.6368448 0.7690243 -0.05504939 255 255 255 255 0.351704 0.187790
-0.059756 0.03418 -0.145287 -0.3593147 0.1502529 -0.9210413 255 255 255 255 0.351704 0.187790
0.072694 0.019501 0.14229 0.54616 0.2485423 0.79996 255 255 255 255 0.351704 0.187790
-0.136968 0.003499 -0.051631 -0.8480358 -0.5064844 0.1559129 255 255 255 255 0.351704 0.187790
0.015992 0.003592 -0.1609 0.1267364 -0.5378075 -0.8334872 255 255 255 255 0.351704 0.187790
0.021886 0.033458 0.147018 0.06851348 0.126094 0.9896496 255 255 255 255 0.351704 0.187790
0.01718 0.094049 -0.125816 0.3561797 0.4943574 -0.7929355 255 255 255 255 0.351704 0.187790
0.089842 0.104558 0.066363 0.7621863 0.6137479 0.2058774 255 255 255 255 0.351704 0.187790
-0.091081 0.054291 0.030512 -0.7063086 0.6418812 0.2985242 255 255 255 255 0.351704 0.187790
-0.123461 0.042582 -0.053026 -0.8319923 0.4853574 0.2687323 255 255 255 255 0.351704 0.187790
-0.056496 0.006123 0.081899 -0.7559975 -0.4897743 0.4342683 255 255 255 255 0.351704 0.187790
0.066619 0.062441 0.132257 0.4099978 0.2328848 0.8818541 255 255 255 255 0.351704 0.187790
-0.018629 0.145536 0.078114 -0.08621778 0.9040816 0.4185724 255 255 255 255 0.351704 0.187790
-0.085964 0.084448 -0.096049 -0.3885594 0.9204462 0.04243192 255 255 255 255 0.351704 0.187790
-0.08396 0.088175 0.000159 -0.5273978 0.8494073 0.01894517 255 255 255 255 0.351704 0.187790
0.119015 0.003292 0.058379 0.6336791 -0.6665389 0.3926534 255 255 255 255 0.351704 0.187790
0.047755 0.002893 -0.143119 0.3103473 -0.6867597 -0.6573018 255 255 255 255 0.351704 0.187790
0.065929 0.005266 0.144466 0.2740829 -0.5913072 0.7584421 255 255 255 255 0.351704 0.187790
-0.089065 0.043352 0.046298 -0.5660759 0.4562217 0.6866002 255 255 255 255 0.351704 0.187790
-0.081196 0.086537 0.017719 -0.4119258 0.7286971 0.5470994 255 255 255 255 0.351704 0.187790
-0.077311 0.085158 -0.110798 -0.1849177 0.8139917 -0.5506569 255 255 255 255 0.351704 0.187790
0.064047 0.084377 -0.083277 0.9158426 0.3323496 -0.2253356 255 255 255 255 0.351704 0.187790
-0.013342 0.09366 -0.136644 0.08734184 0.7386764 -0.6683776 255 255 255 255 0.351704 0.187790
-0.045717 0.093358 0.054584 -0.8881226 0.2167104 0.4053085 255 255 255 255 0.351704 0.187790
0.057059 0.102404 -0.102738 0.8840782 0.223576 -0.4103894 255 255 255 255 0.351704 0.187790
-0.049589 0.141948 -0.012856 -0.7087973 0.7025959 -0.06297059 255 255 255 255 0.351704 0.187790
0.031855 0.156492 0.01276 0.7140395 0.6999508 0.01471186 255 255 255 255 0.351704 0.187790
-0.017165 0.148124 -0.042354 -0.0225302 0.9090194 -0.4161444 255 255 255 255 0.351704 0.187790
-0.005098 0.167074 -0.008358 -0.04807502 0.9898139 -0.1340044 255 255 255 255 0.351704 0.187790
-0.066227 0.087545 -0.114224 -0.543197 0.719044 -0.4334892 255 255 255 255 0.351704 0.187790
-0.10348 0.078128 -0.075695 -0.5106968 0.8285176 -0.229668 255 255 255 255 0.351704 0.187790
-0.12587 0.056783 -0.093543 -0.5594693 0.8029012 -0.2057761 255 255 255 255 0.351704 0.187790
-0.067401 0.069433 0.044735 -0.6208798 0.6569083 0.4277614 255 255 255 255 0.351704 0.187790
-0.045457 0.118407 0.051673 -0.9037533 0.2409459 0.3538009 255 255 255 255 0.351704 0.187790
0.099521 0.062643 0.058283 0.939647 0.23207 0.25141 255 255 255 255 0.351704 0.187790
-0.069503 0.078103 0.026154 -0.6005086 0.5520999 0.5784247 255 255 255 255 0.351704 0.187790
-0.08542 0.068632 0.023534 -0.7180004 0.4287402 0.5483222 255 255 255 255 0.351704 0.187790
0.019429 0.106987 0.120217 0.275958 0.2032624 0.9394315 255 255 255 255 0.351704 0.187790
-0.02304 0.047527 0.132085 -0.4761206 0.1081555 0.8727037 255 255 255 255 0.351704 0.187790
-0.087669 0.000991 0.031412 -0.04661854 -0.9949755 0.08860279 255 255 255 255 0.351704 0.187790
-0.067401 0.069433 0.044735 -0.5896365 0.767839 0.2505037 255 255 255 255 0.351704 0.187790
-0.00343 0.012569 0.146273 -0.2126908 -0.1138904 0.9704595 255 255 255 255 0.351704 0.187790
0.076528 0.0833 0.098744 0.9477876 0.1617345 0.2748468 255 255 255 255 0.351704 0.187790
-0.006116 0.164632 -0.018344 -0.1888165 0.8642625 -0.4662602 255 255 255 255 0.351704 0.187790
-0.129474 0.002768 0.033378 -0.7063785 -0.649129 0.282243 255 255 255 255 0.351704 0.187790
-0.130922 0.053943 -0.084331 -0.845353 0.5341921 -0.004147133 255 255 255 255 0.351704 0.187790
0.095954 0.065732 -0.005302 0.4244873 0.9038787 -0.05304651 255 255 255 255 0.351704 0.187790
-0.056851 0.081564 0.042241 -0.7834471 0.4217347 0.4564543 255 255 255 255 0.351704 0.187790
-0.019375 0.080961 0.1258 -0.3364102 0.2149282 0.916861 255 255 255 255 0.351704 0.187790
0.097762 0.075952 0.082509 0.8782099 0.0125976 0.4781095 255 255 255 255 0.351704 0.187790
-0.033268 0.06435 0.129539 -0.5583419 0.2860391 0.77874 255 255 255 255 0.351704 0.187790
-0.093054 0.080923 0.008643 -0.8521903 0.5022239 0.1467751 255 255 255 255 0.351704 0.187790
0.019842 0.06075 -0.145474 0.4719386 0.532335 -0.7027755 255 255 255 255 0.351704 0.187790
-0.067401 0.069433 0.044735 -0.7655161 0.6398978 0.06720105 255 255 255 255 0.351704 0.187790
0.115338 0.029357 0.01968 0.9890963 0.1235017 0.0802227 255 255 255 255 0.351704 0.187790
-0.119734 0.040379 0.037019 -0.438345 0.6371205 0.6339805 255 255 255 255 0.351704 0.187790
-0.100608 0.006907 -0.129555 -0.3868537 -0.4334378 -0.8139263 255 255 255 255 0.351704 0.187790
-0.034258 0.031305 -0.150822 -0.1794799 0.007637192 -0.983732 255 255 255 255 0.351704 0.187790
-0.133394 0.017846 -0.100003 -0.8952469 0.05985266 -0.4415321 255 255 255 255 0.351704 0.187790
-0.080865 0.017563 -0.138128 -0.3767872 0.1244474 -0.9179021 255 255 255 255 0.351704 0.187790
0.080448 0.01197 0.136549 0.8127549 -0.141275 0.5652176 255 255 255 255 0.351704 0.187790
0.078285 0.001996 0.085632 0.1505591 -0.9877021 0.04214879 255 255 255 255 0.351704 0.187790
-0.048577 0.140343 -0.044658 -0.4043407 0.8976748 -0.1751817 255 255 255 255 0.351704 0.187790
0.004991 0.169573 0.018199 -0.1320534 0.9880924 0.07896425 255 255 255 255 0.351704 0.187790
-0.097108 0.057365 -0.008918 -0.9173719 0.376087 0.1303355 255 255 255 255 0.351704 0.187790
0.066576 0.101507 0.119834 0.3672469 0.1621269 0.9158846 255 255 255 255 0.351704 0.187790
-0.01514 0.15454 -0.017996 -0.5846277 0.707769 -0.3965772 255 255 255 255 0.351704 0.187790
0.026876 0.068774 0.130913 -0.03193358 0.6675561 0.7438744 255 255 255 255 0.351704 0.187790
-0.066778 0.013706 -0.147125 -0.4406616 -0.2961745 -0.8474067 255 255 255 255 0.351704 0.187790
0.084485 0.071721 -0.015133 0.7240247 0.6665268 -0.1775679 255 255 255 255 0.351704 0.187790
-0.095081 0.005511 0.049315 -0.2344265 -0.7132086 0.660589 255 255 255 255 0.351704 0.187790
0.007301 0.114634 0.125596 0.138309 0.4067369 0.9030148 255 255 255 255 0.351704 0.187790
-0.070836 0.090357 -0.09657 -0.3995084 0.9078543 -0.1272543 255 255 255 255 0.351704 0.187790
0.025646 0.004029 0.148088 0.004904937 -0.5995515 0.8003212 255 255 255 255 0.351704 0.187790
-0.083088 0.059901 -0.118895 -0.2460478 0.4418232 -0.8627009 255 255 255 255 0.351704 0.187790
3 224 98 272 
3 166 92 35 
3 189 172 38 
3 102 140 179 
3 26 105 102 
3 220 263 205 
3 8 208 276 
3 4 259 201 
3 152 240 274 
3 16 151 249 
3 12 49 123 
3 207 67 219 
3 258 110 52 
3 57 114 24 
3 25 143 260 
3 243 235 256 
3 58 176 89 
3 19 100 251 
3 270 116 152 
3 243 250 235 
3 20 98 157 
3 169 266 118 
3 16 249 175 
3 248 111 234 
3 219 182 108 
3 110 247 273 
3 58 89 159 
3 82 192 27 
3 104 14 272 
3 15 241 244 
3 43 77 243 
3 62 262 271 
3 3 273 242 
3 222 239 238 
3 156 240 152 
3 88 32 180 
3 133 207 125 
3 125 74 124 
3 68 262 47 
3 15 244 153 
3 152 15 153 
3 154 210 252 
3 18 81 192 
3 117 56 169 
3 117 189 56 
3 265 54 36 
3 136 187 260 
3 43 243 256 
3 39 178 233 
3 143 88 135 
3 41 245 26 
3 69 275 223 
3 6 117 173 
3 20 162 34 
3 166 35 165 
3 56 164 266 
3 246 269 9 
3 34 119 166 
3 18 163 17 
3 55 236 161 
3 20 158 160 
3 196 96 228 
3 0 174 158 
3 0 227 224 
3 235 250 238 
3 101 154 237 
3 2 150 155 
3 150 23 253 
3 201 200 188 
3 208 149 153 
3 208 63 149 
3 186 183 145 
3 221 256 211 
3 5 133 142 
3 72 142 10 
3 72 5 142 
3 65 202 71 
3 102 184 140 
3 139 144 3 
3 139 138 78 
3 86 138 213 
3 45 44 137 
3 24 134 53 
3 45 137 206 
3 46 261 130 
3 129 12 131 
3 259 47 107 
3 259 126 46 
3 70 49 109 
3 126 127 46 
3 126 107 127 
3 80 257 123 
3 222 197 217 
3 55 21 236 
3 230 269 246 
3 20 34 165 
3 268 194 116 
3 172 6 156 
3 132 105 26 
3 172 156 194 
3 70 109 108 
3 50 48 276 
3 127 29 42 
3 102 106 184 
3 68 204 271 
3 30 105 131 
3 212 148 111 
3 44 148 203 
3 41 26 179 
3 73 146 121 
3 73 0 146 
3 40 277 223 
3 39 198 216 
3 115 95 19 
3 171 166 119 
3 33 170 91 
3 54 89 216 
3 23 31 86 
3 150 77 23 
3 28 95 191 
3 225 81 209 
3 139 78 77 
3 74 49 264 
3 86 76 50 
3 22 38 26 
3 206 185 45 
3 206 127 185 
3 26 38 268 
3 264 49 12 
3 80 57 141 
3 80 123 57 
3 77 78 31 
3 139 77 43 
3 103 80 53 
3 209 81 17 
3 95 115 191 
3 175 83 16 
3 83 165 85 
3 175 165 83 
3 84 85 165 
3 56 266 90 
3 23 77 31 
3 108 1 70 
3 60 212 29 
3 86 31 87 
3 208 8 63 
3 198 233 199 
3 198 39 233 
3 216 89 275 
3 93 94 189 
3 35 94 84 
3 82 163 18 
3 163 82 171 
3 100 95 28 
3 19 95 100 
3 96 196 197 
3 97 59 176 
3 165 98 20 
3 83 37 22 
3 152 251 15 
3 100 99 2 
3 99 100 28 
3 195 198 196 
3 216 198 195 
3 277 4 69 
3 223 277 69 
3 179 26 102 
3 203 148 212 
3 111 148 267 
3 103 14 104 
3 104 66 80 
3 131 105 132 
3 220 205 8 
3 271 25 62 
3 271 204 25 
3 184 106 30 
3 247 110 61 
3 67 13 147 
3 130 201 259 
3 276 48 220 
3 125 107 62 
3 219 108 109 
3 61 110 258 
3 199 111 267 
3 194 156 116 
3 265 36 228 
3 230 246 171 
3 231 112 92 
3 238 113 222 
3 272 249 104 
3 114 49 70 
3 133 187 136 
3 133 125 187 
3 24 141 57 
3 173 115 274 
3 173 274 6 
3 115 173 169 
3 33 91 266 
3 118 266 91 
3 170 112 231 
3 170 33 112 
3 228 269 230 
3 64 269 228 
3 9 269 64 
3 119 163 171 
3 7 163 119 
3 6 240 156 
3 21 113 238 
3 216 11 39 
3 216 69 11 
3 275 69 216 
3 113 197 222 
3 217 197 199 
3 224 120 65 
3 272 120 224 
3 211 258 221 
3 122 258 211 
3 79 214 149 
3 1 145 53 
3 145 1 186 
3 47 259 4 
3 68 47 4 
3 12 218 30 
3 123 257 51 
3 61 45 247 
3 124 107 125 
3 127 107 124 
3 219 125 207 
3 123 114 57 
3 123 49 114 
3 219 109 125 
3 107 126 259 
3 46 130 259 
3 74 128 242 
3 128 74 76 
3 242 213 3 
3 213 128 76 
3 242 128 213 
3 264 129 48 
3 12 129 264 
3 123 218 12 
3 218 123 51 
3 107 262 62 
3 107 47 262 
3 131 263 129 
3 263 132 205 
3 131 132 263 
3 131 12 30 
3 219 67 147 
3 13 67 5 
3 5 67 207 
3 5 207 133 
3 130 261 200 
3 29 137 60 
3 206 137 29 
3 53 141 24 
3 53 134 1 
3 1 134 70 
3 181 125 62 
3 60 203 212 
3 203 137 44 
3 60 137 203 
3 52 144 221 
3 3 138 139 
3 213 138 3 
3 78 87 31 
3 87 138 86 
3 78 138 87 
3 139 43 144 
3 3 144 52 
3 257 80 66 
3 53 80 141 
3 13 121 147 
3 255 13 5 
3 142 136 10 
3 142 133 136 
3 258 44 61 
3 44 122 148 
3 258 122 44 
3 144 43 221 
3 43 256 221 
3 104 249 66 
3 14 103 53 
3 145 202 14 
3 202 183 71 
3 145 183 202 
3 145 14 53 
3 255 121 13 
3 182 147 146 
3 146 147 121 
3 183 146 71 
3 183 182 146 
3 255 73 121 
3 72 73 255 
3 209 73 72 
3 248 42 212 
3 111 248 212 
3 239 254 148 
3 267 148 254 
3 211 239 148 
3 188 200 234 
3 256 235 211 
3 253 241 15 
3 253 23 241 
3 155 253 15 
3 155 150 253 
3 214 268 270 
3 101 151 16 
3 71 224 65 
3 277 68 4 
3 68 40 75 
3 277 40 68 
3 153 149 270 
3 237 252 41 
3 237 154 252 
3 83 101 16 
3 154 101 83 
3 251 155 15 
3 19 251 274 
3 152 274 251 
3 227 158 20 
3 0 158 227 
3 238 226 236 
3 238 250 226 
3 274 240 6 
3 157 227 20 
3 224 227 157 
3 37 38 22 
3 37 190 38 
3 158 174 17 
3 167 58 159 
3 167 159 265 
3 64 96 197 
3 228 96 64 
3 160 17 7 
3 160 158 17 
3 55 191 215 
3 191 161 28 
3 55 161 191 
3 160 162 20 
3 162 7 119 
3 160 7 162 
3 17 163 7 
3 189 164 56 
3 229 35 112 
3 38 190 93 
3 94 190 84 
3 94 93 190 
3 38 93 189 
3 27 167 230 
3 165 34 166 
3 64 168 9 
3 169 55 215 
3 168 55 169 
3 168 118 91 
3 118 168 169 
3 266 169 90 
3 266 164 229 
3 9 170 246 
3 246 170 231 
3 170 9 91 
3 171 246 92 
3 34 162 119 
3 99 226 2 
3 236 226 99 
3 99 161 236 
3 161 99 28 
3 173 117 169 
3 174 0 209 
3 223 275 232 
3 165 175 272 
3 26 245 22 
3 214 26 268 
3 270 268 116 
3 59 32 176 
3 232 176 32 
3 177 32 88 
3 40 88 75 
3 40 177 88 
3 135 180 10 
3 135 88 180 
3 199 178 111 
3 233 178 199 
3 178 39 11 
3 42 248 234 
3 225 180 59 
3 225 72 180 
3 42 200 261 
3 25 181 62 
3 182 183 186 
3 212 42 29 
3 186 1 108 
3 51 184 30 
3 185 247 45 
3 186 108 182 
3 260 181 25 
3 181 187 125 
3 260 187 181 
3 80 103 104 
3 88 143 75 
3 11 4 188 
3 69 4 11 
3 36 54 216 
3 115 19 274 
3 59 193 225 
3 193 97 27 
3 59 97 193 
3 169 56 90 
3 82 230 171 
3 82 27 230 
3 21 168 64 
3 230 167 265 
3 228 230 265 
3 58 97 176 
3 97 58 27 
3 84 190 85 
3 215 115 169 
3 191 115 215 
3 192 193 27 
3 193 81 225 
3 192 81 193 
3 18 192 82 
3 38 194 268 
3 195 36 216 
3 228 195 196 
3 36 195 228 
3 113 21 64 
3 197 113 64 
3 197 198 199 
3 196 198 197 
3 83 210 154 
3 210 83 22 
3 252 245 41 
3 245 210 22 
3 252 210 245 
3 225 209 72 
3 188 4 201 
3 224 146 0 
3 224 71 146 
3 270 149 214 
3 217 254 222 
3 267 217 199 
3 267 254 217 
3 188 178 11 
3 200 201 130 
3 120 202 65 
3 120 14 202 
3 8 79 63 
3 63 79 149 
3 208 153 244 
3 86 244 241 
3 204 68 75 
3 151 257 66 
3 257 140 184 
3 151 140 257 
3 205 79 8 
3 205 132 79 
3 52 110 273 
3 52 273 3 
3 206 29 127 
3 276 220 8 
3 247 242 273 
3 242 185 127 
3 242 247 185 
3 124 242 127 
3 124 74 242 
3 109 74 125 
3 261 127 42 
3 127 261 46 
3 211 235 239 
3 179 237 41 
3 237 179 101 
3 180 32 59 
3 35 84 165 
3 112 33 266 
3 276 208 244 
3 238 239 235 
3 271 262 68 
3 243 150 2 
3 243 77 150 
3 200 42 234 
3 272 14 120 
3 188 234 178 
3 58 167 27 
3 112 266 229 
3 159 54 265 
3 159 89 54 
3 221 258 52 
3 218 51 30 
3 76 48 50 
3 74 48 76 
3 10 180 72 
3 234 111 178 
3 223 177 40 
3 177 232 32 
3 223 232 177 
3 272 175 249 
3 6 172 189 
3 9 168 91 
3 17 81 18 
3 85 190 37 
3 157 98 224 
3 152 116 156 
3 155 100 2 
3 251 100 155 
3 226 250 2 
3 250 243 2 
3 152 153 270 
3 275 176 232 
3 89 176 275 
3 239 222 254 
3 122 211 148 
3 143 204 75 
3 204 143 25 
3 72 255 5 
3 257 184 51 
3 260 143 136 
3 136 135 10 
3 135 136 143 
3 134 114 70 
3 24 114 134 
3 182 219 147 
3 129 220 48 
3 263 220 129 
3 44 45 61 
3 132 214 79 
3 21 238 236 
3 168 21 55 
3 174 209 17 
3 249 151 66 
3 132 26 214 
3 86 241 23 
3 264 48 74 
3 106 105 30 
3 102 105 106 
3 209 0 73 
3 101 179 151 
3 179 140 151 
3 38 172 194 
3 83 85 37 
3 229 94 35 
3 94 164 189 
3 229 164 94 
3 246 231 92 
3 92 166 171 
3 35 92 112 
3 117 6 189 
3 86 276 244 
3 50 276 86 
3 272 98 165 
3 109 49 74 
3 213 76 86 
