ply
format ascii 1.0
comment VCGLIB generated
comment TextureFile Textures//Combined_Texture//Texture_01_A.png
element vertex 130
property float x
property float y
property float z
property float nx
property float ny
property float nz
property uchar red
property uchar green
property uchar blue
property uchar alpha
property float texture_u
property float texture_v
element face 180
property list uchar int vertex_indices
end_header
0.010737 -0.000523 -0.015465 -0.8085462 0.5191489 -0.2770154 255 255 255 255 0.470560 0.227824
0.013822 0.000472 -0.015217 0.597606 0.7692789 0.2260025 255 255 255 255 0.470560 0.227824
0.012799 0.000288 -0.014383 -0.3493208 0.6331599 0.6907123 255 255 255 255 0.470560 0.227824
0.012276 0.00055 -0.016497 -0.1961882 0.8514137 -0.4864206 255 255 255 255 0.470560 0.227824
0.014008 -0.000523 -0.016714 0.4726216 0.5799588 -0.6635334 255 255 255 255 0.470560 0.227824
0.01477 -0.000523 -0.015265 0.7075596 0.6622431 0.2465636 255 255 255 255 0.470560 0.227824
0.012903 -0.000523 -0.013543 -0.3493212 0.6331573 0.6907146 255 255 255 255 0.470560 0.227824
0.011594 -0.000523 -0.014249 -0.3493237 0.6331567 0.6907139 255 255 255 255 0.470560 0.227824
0.012096 -0.000523 -0.016997 -0.3196751 0.4437468 -0.8371957 255 255 255 255 0.470560 0.227824
0.01147 0.000549 -0.015427 -0.6205159 0.7640837 0.1764546 255 255 255 255 0.470560 0.227824
0.013482 0.000511 -0.016178 0.225106 0.9505513 -0.2139616 255 255 255 255 0.470560 0.227824
0.011931 0.000288 -0.014778 -0.3493225 0.6331575 0.6907137 255 255 255 255 0.470560 0.227824
-0.005068 -0.000523 -0.0104 -0.6660864 0.5449554 0.5092666 255 255 255 255 0.470560 0.227824
-0.003132 0.000221 -0.012835 0.4885882 0.7964301 -0.3563437 255 255 255 255 0.470560 0.227824
-0.003009 0.000298 -0.011515 0.4495709 0.5826448 0.6770605 255 255 255 255 0.470560 0.227824
-0.005067 0.000387 -0.012263 -0.4910975 0.8540087 -0.1717336 255 255 255 255 0.470560 0.227824
-0.004277 -0.000523 -0.013829 -0.2654576 0.6587623 -0.7039635 255 255 255 255 0.470560 0.227824
-0.002642 -0.000523 -0.013653 0.5152454 0.7647364 -0.3869115 255 255 255 255 0.470560 0.227824
-0.002251 -0.000523 -0.011131 0.449572 0.5826413 0.6770628 255 255 255 255 0.470560 0.227824
-0.003573 -0.000523 -0.010434 0.4495701 0.5826407 0.6770647 255 255 255 255 0.470560 0.227824
-0.005584 -0.000523 -0.012392 -0.8408967 0.5052381 -0.1939775 255 255 255 255 0.470560 0.227824
-0.004626 0.000554 -0.010991 -0.3187374 0.7187138 0.6179459 255 255 255 255 0.470560 0.227824
-0.004125 0.000348 -0.01309 -0.01552675 0.9449775 -0.3267668 255 255 255 255 0.470560 0.227824
-0.003826 0.000554 -0.011012 0.4495708 0.5826418 0.6770633 255 255 255 255 0.470560 0.227824
-0.00905 -0.000523 -0.007885 -0.6856056 0.72232 -0.09054806 255 255 255 255 0.470560 0.227824
-0.00725 0.00104 -0.007965 -0.6241444 0.765047 0.1585777 255 255 255 255 0.470560 0.227824
-0.003907 0.001041 -0.008336 0.742047 0.6697717 0.02778786 255 255 255 255 0.470560 0.227824
-0.00475 0.00104 -0.006643 0.370058 0.8709237 0.3233405 255 255 255 255 0.470560 0.227824
-0.006678 0.001041 -0.009424 -0.4363048 0.8240031 -0.3614651 255 255 255 255 0.470560 0.227824
-0.004462 0.00032 -0.010179 0.3580303 0.5974479 -0.7175446 255 255 255 255 0.470560 0.227824
-0.004827 0.001282 -0.009545 0.1061604 0.9349918 -0.3384083 255 255 255 255 0.470560 0.227824
-0.0029 -0.000523 -0.007955 0.8293591 0.5531526 0.07865027 255 255 255 255 0.470560 0.227824
-0.004247 -0.000523 -0.005347 0.4037603 0.6375625 0.6561187 255 255 255 255 0.470560 0.227824
-0.006752 0.00086 -0.006183 -0.240058 0.6872162 0.6856428 255 255 255 255 0.470560 0.227824
-0.007031 -0.000523 -0.011197 -0.2799764 0.6830735 -0.6745546 255 255 255 255 0.470560 0.227824
-0.007435 -0.000523 -0.005267 -0.4587835 0.685185 0.5657201 255 255 255 255 0.470560 0.227824
-0.006211 0.001459 -0.006825 -0.02503074 0.969324 0.2445087 255 255 255 255 0.470560 0.227824
-0.003757 -0.000523 -0.010514 0.6254006 0.5642197 -0.5390086 255 255 255 255 0.470560 0.227824
-0.004806 -0.000523 0.001046 -0.4010577 0.7223011 0.5634128 255 255 255 255 0.470560 0.227824
-0.004308 0.000485 -4e-06 -0.1518667 0.7650319 0.6258296 255 255 255 255 0.470560 0.227824
-0.00351 0.000486 -0.002021 0.3720481 0.6694878 -0.6429358 255 255 255 255 0.470560 0.227824
-0.0028 0.000485 -0.00103 0.4589311 0.8710154 -0.1752554 255 255 255 255 0.470560 0.227824
-0.004966 0.000486 -0.00077 -0.5237721 0.8239958 0.2160874 255 255 255 255 0.470560 0.227824
-0.004728 2.1e-05 -0.002261 -0.4664881 0.5973154 -0.6523827 255 255 255 255 0.470560 0.227824
-0.004476 0.000641 -0.001862 -0.2493967 0.9350381 -0.2520018 255 255 255 255 0.470560 0.227824
-0.002989 -0.000523 -0.002479 0.4580036 0.5525727 -0.6963449 255 255 255 255 0.470560 0.227824
-0.001909 -0.000523 -0.000925 0.7687156 0.6376573 -0.04969461 255 255 255 255 0.470560 0.227824
-0.003142 0.000369 0.00025 0.4934239 0.6874186 0.5329058 255 255 255 255 0.470560 0.227824
-0.006083 -0.000523 -0.001105 -0.7272751 0.6829281 -0.06841311 255 255 255 255 0.470560 0.227824
-0.002826 -0.000523 0.000916 0.2851061 0.6852499 0.6701844 255 255 255 255 0.470560 0.227824
-0.003345 0.000755 -0.000252 0.2044768 0.9693114 0.136472 255 255 255 255 0.470560 0.227824
-0.004705 -0.000523 -0.002764 -0.1833932 0.5636524 -0.8053962 255 255 255 255 0.470560 0.227824
-0.006239 -0.000523 0.015612 0.7806047 0.5641337 0.2690905 255 255 255 255 0.470560 0.227824
-0.009181 0.000256 0.01537 -0.6146535 0.7547505 -0.229244 255 255 255 255 0.470560 0.227824
-0.008204 0.00033 0.014576 0.3370112 0.5647516 -0.7533122 255 255 255 255 0.470560 0.227824
-0.007708 0.000386 0.016594 0.1850188 0.8386183 0.5123353 255 255 255 255 0.470560 0.227824
-0.009361 -0.000523 0.016797 -0.4608345 0.6151547 0.6397001 255 255 255 255 0.470560 0.227824
-0.010084 -0.000523 0.015414 -0.6426663 0.7322327 -0.2254222 255 255 255 255 0.470560 0.227824
-0.008301 -0.000523 0.013775 0.3370122 0.5647485 -0.753314 255 255 255 255 0.470560 0.227824
-0.007054 -0.000523 0.014451 0.3370146 0.5647479 -0.7533133 255 255 255 255 0.470560 0.227824
-0.007538 -0.000523 0.01707 0.310155 0.4858977 0.8171336 255 255 255 255 0.470560 0.227824
-0.006938 0.000385 0.015575 0.69428 0.713935 -0.09095097 255 255 255 255 0.470560 0.227824
-0.008858 0.000463 0.016287 -0.2666977 0.938023 0.2213258 255 255 255 255 0.470560 0.227824
-0.007376 0.000499 0.014955 0.3370135 0.5647488 -0.7533132 255 255 255 255 0.470560 0.227824
-0.004174 -0.000523 0.016902 -0.07930258 0.7223327 0.6869837 255 255 255 255 0.470560 0.227824
-0.004268 0.000832 0.015343 0.1688318 0.7649261 0.6215978 255 255 255 255 0.470560 0.227824
-0.004636 0.000833 0.01245 0.015853 0.6696789 -0.7424816 255 255 255 255 0.470560 0.227824
-0.003157 0.000832 0.013157 0.3173564 0.870859 -0.3753526 255 255 255 255 0.470560 0.227824
-0.00554 0.000833 0.014868 -0.3543495 0.8240145 0.4420822 255 255 255 255 0.470560 0.227824
-0.006227 0.000208 0.012957 -0.7232189 0.5974413 -0.3464368 255 255 255 255 0.470560 0.227824
-0.005672 0.001042 0.013264 -0.3401111 0.9349879 -0.1006087 255 255 255 255 0.470560 0.227824
-0.00432 -0.000523 0.011572 0.06535848 0.5530333 -0.8305916 255 255 255 255 0.470560 0.227824
-0.002041 -0.000523 0.012703 0.6496419 0.6375027 -0.4141929 255 255 255 255 0.470560 0.227824
-0.002731 0.000676 0.014886 0.6895156 0.6871229 0.2289771 255 255 255 255 0.470560 0.227824
-0.007073 -0.000523 0.015199 -0.6698253 0.683162 0.2909016 255 255 255 255 0.470560 0.227824
-0.001927 -0.000523 0.015465 0.5731112 0.6851768 0.449529 255 255 255 255 0.470560 0.227824
-0.003295 0.001196 0.014426 0.2449307 0.9693097 0.02116071 255 255 255 255 0.470560 0.227824
-0.006527 -0.000523 0.01235 -0.5489431 0.5642324 -0.6166873 255 255 255 255 0.470560 0.227824
0.005782 -0.000523 0.004832 -0.3728612 0.7223189 0.5824346 255 255 255 255 0.470560 0.227824
0.006382 0.000832 0.00339 -0.1212058 0.7649683 0.6325605 255 255 255 255 0.470560 0.227824
0.007321 0.000833 0.000629 0.3402003 0.6696512 -0.6601751 255 255 255 255 0.470560 0.227824
0.008339 0.000832 0.001913 0.4499097 0.8708379 -0.1980472 255 255 255 255 0.470560 0.227824
0.005447 0.000833 0.002404 -0.5124602 0.8240018 0.2416724 255 255 255 255 0.470560 0.227824
0.005669 0.000208 0.000386 -0.497751 0.5975431 -0.6286384 255 255 255 255 0.470560 0.227824
0.006033 0.001042 0.000906 -0.2614241 0.9349678 -0.2397765 255 255 255 255 0.470560 0.227824
0.00799 -0.000523 -2.1e-05 0.423434 0.5529054 -0.7176345 255 255 255 255 0.470560 0.227824
0.009542 -0.000523 0.001996 0.7654811 0.6375288 -0.08715357 255 255 255 255 0.470560 0.227824
0.007964 0.000676 0.003654 0.5189485 0.6871217 0.5084844 255 255 255 255 0.470560 0.227824
0.003925 -0.000523 0.002029 -0.7296129 0.6830775 -0.03271187 255 255 255 255 0.470560 0.227824
0.008432 -0.000523 0.004527 0.3175689 0.6851095 0.6555723 255 255 255 255 0.470560 0.227824
0.007659 0.001196 0.002993 0.2107888 0.9693279 0.126378 255 255 255 255 0.470560 0.227824
0.005666 -0.000523 -0.000291 -0.2224867 0.5641674 -0.7951194 255 255 255 255 0.470560 0.227824
0.009489 -0.000523 0.004342 -0.533555 0.7224196 0.4398056 255 255 255 255 0.470560 0.227824
0.010302 0.000564 0.003388 -0.309334 0.7651052 0.5647359 255 255 255 255 0.470560 0.227824
0.011699 0.000565 0.001511 0.5262349 0.6697177 -0.5239801 255 255 255 255 0.470560 0.227824
0.01216 0.000564 0.002742 0.4888909 0.8708917 -0.05033294 255 255 255 255 0.470560 0.227824
0.009831 0.000565 0.002405 -0.5619093 0.8239811 0.0728914 255 255 255 255 0.470560 0.227824
0.010497 6.4e-05 0.000919 -0.2807897 0.5973603 -0.7512109 255 255 255 255 0.470560 0.227824
0.010647 0.000733 0.001405 -0.1752204 0.9350221 -0.3082721 255 255 255 255 0.470560 0.227824
0.01237 -0.000523 0.001179 0.6229479 0.5530176 -0.5532699 255 255 255 255 0.470560 0.227824
0.013059 -0.000523 0.003101 0.7551219 0.637715 0.1520212 255 255 255 255 0.470560 0.227824
0.011445 0.000439 0.003979 0.3378791 0.6871653 0.6431499 255 255 255 255 0.470560 0.227824
0.008761 -0.000523 0.001744 -0.6844621 0.6830332 -0.2549063 255 255 255 255 0.470560 0.227824
0.011587 -0.000523 0.004761 0.1012413 0.6851617 0.7213208 255 255 255 255 0.470560 0.227824
0.011375 0.000856 0.003399 0.1618224 0.9693145 0.1850487 255 255 255 255 0.470560 0.227824
0.010661 -0.000523 0.000401 0.03203801 0.5642153 -0.8250059 255 255 255 255 0.470560 0.227824
0.009625 -0.000523 0.000488 -0.6553445 0.5532838 0.5141991 255 255 255 255 0.470560 0.227824
0.012493 0.00085 -0.003267 0.5348268 0.7409139 -0.4062105 255 255 255 255 0.470560 0.227824
0.012719 0.000968 -0.001265 0.4022588 0.5721856 0.7146968 255 255 255 255 0.470560 0.227824
0.009572 0.001115 -0.002341 -0.5370267 0.8388781 -0.08880291 255 255 255 255 0.470560 0.227824
0.010726 -0.000523 -0.004743 -0.2991105 0.5907273 -0.7493826 255 255 255 255 0.470560 0.227824
0.013214 -0.000523 -0.004523 0.5635332 0.6988656 -0.4404739 255 255 255 255 0.470560 0.227824
0.013883 -0.000523 -0.000704 0.4022619 0.5721779 0.7147012 255 255 255 255 0.470560 0.227824
0.011894 -0.000523 0.000393 0.402257 0.5721767 0.714705 255 255 255 255 0.470560 0.227824
0.008782 -0.000523 -0.002522 -0.8770971 0.4434192 -0.1846079 255 255 255 255 0.470560 0.227824
0.010279 0.000873 -0.000422 -0.2250015 0.7396668 0.6342456 255 255 255 255 0.470560 0.227824
0.010978 0.001055 -0.003625 -0.0353942 0.9257132 -0.3765664 255 255 255 255 0.470560 0.227824
0.011494 0.000873 -0.000477 0.4022578 0.5721786 0.714703 255 255 255 255 0.470560 0.227824
0.013657 -0.000523 0.005357 -0.6636212 0.5564706 0.4999474 255 255 255 255 0.470560 0.227824
0.016075 0.000526 0.002315 0.5268699 0.7509088 -0.398176 255 255 255 255 0.470560 0.227824
0.016228 0.000823 0.003964 0.3739793 0.5522601 0.7450828 255 255 255 255 0.470560 0.227824
0.013658 0.000824 0.00303 -0.5213943 0.8457659 -0.1132612 255 255 255 255 0.470560 0.227824
0.014645 -0.000523 0.001073 -0.2793216 0.6228909 -0.7307438 255 255 255 255 0.470560 0.227824
0.016688 -0.000523 0.001294 0.5510398 0.7246952 -0.4137295 255 255 255 255 0.470560 0.227824
0.017176 -0.000523 0.004444 0.373981 0.5522544 0.7450861 255 255 255 255 0.470560 0.227824
0.015524 -0.000523 0.005315 0.3739776 0.5522535 0.7450885 255 255 255 255 0.470560 0.227824
0.013012 -0.000523 0.002868 -0.8735166 0.4431532 -0.2014553 255 255 255 255 0.470560 0.227824
0.014209 0.000608 0.004618 -0.2323895 0.7429318 0.627732 255 255 255 255 0.470560 0.227824
0.014835 0.000575 0.001996 -0.01129125 0.908853 -0.4169637 255 255 255 255 0.470560 0.227824
0.015209 0.000608 0.004593 0.373978 0.5522547 0.7450874 255 255 255 255 0.470560 0.227824
3 9 3 0 
3 8 0 3 
3 8 3 4 
3 10 2 1 
3 4 10 1 
3 2 6 1 
3 5 1 6 
3 7 9 0 
3 9 7 11 
3 9 11 3 
3 5 4 1 
3 4 3 10 
3 3 2 10 
3 11 7 6 
3 11 6 2 
3 3 11 2 
3 21 15 12 
3 20 12 15 
3 20 15 16 
3 22 14 13 
3 16 22 13 
3 14 18 13 
3 17 13 18 
3 19 21 12 
3 21 19 23 
3 21 23 15 
3 17 16 13 
3 16 15 22 
3 15 14 22 
3 23 19 18 
3 23 18 14 
3 15 23 14 
3 25 28 24 
3 34 24 28 
3 28 30 34 
3 34 30 29 
3 30 27 26 
3 29 30 26 
3 27 32 26 
3 31 26 32 
3 35 32 33 
3 33 25 35 
3 35 25 24 
3 33 36 25 
3 33 32 36 
3 36 32 27 
3 36 27 30 
3 25 36 28 
3 28 36 30 
3 37 34 29 
3 31 37 26 
3 26 37 29 
3 39 42 38 
3 48 38 42 
3 42 44 48 
3 48 44 43 
3 44 41 40 
3 43 44 40 
3 41 46 40 
3 45 40 46 
3 49 46 47 
3 47 39 49 
3 49 39 38 
3 47 50 39 
3 47 46 50 
3 50 46 41 
3 50 41 44 
3 39 50 42 
3 42 50 44 
3 51 48 43 
3 45 51 40 
3 40 51 43 
3 61 55 52 
3 60 52 55 
3 60 55 56 
3 62 54 53 
3 56 62 53 
3 54 58 53 
3 57 53 58 
3 59 61 52 
3 61 59 63 
3 61 63 55 
3 57 56 53 
3 56 55 62 
3 55 54 62 
3 63 59 58 
3 63 58 54 
3 55 63 54 
3 65 68 64 
3 74 64 68 
3 68 70 74 
3 74 70 69 
3 70 67 66 
3 69 70 66 
3 67 72 66 
3 71 66 72 
3 75 72 73 
3 73 65 75 
3 75 65 64 
3 73 76 65 
3 73 72 76 
3 76 72 67 
3 76 67 70 
3 65 76 68 
3 68 76 70 
3 77 74 69 
3 71 77 66 
3 66 77 69 
3 79 82 78 
3 88 78 82 
3 82 84 88 
3 88 84 83 
3 84 81 80 
3 83 84 80 
3 81 86 80 
3 85 80 86 
3 89 86 87 
3 87 79 89 
3 89 79 78 
3 87 90 79 
3 87 86 90 
3 90 86 81 
3 90 81 84 
3 79 90 82 
3 82 90 84 
3 91 88 83 
3 85 91 80 
3 80 91 83 
3 93 96 92 
3 102 92 96 
3 96 98 102 
3 102 98 97 
3 98 95 94 
3 97 98 94 
3 95 100 94 
3 99 94 100 
3 103 100 101 
3 101 93 103 
3 103 93 92 
3 101 104 93 
3 101 100 104 
3 104 100 95 
3 104 95 98 
3 93 104 96 
3 96 104 98 
3 105 102 97 
3 99 105 94 
3 94 105 97 
3 115 109 106 
3 114 106 109 
3 114 109 110 
3 116 108 107 
3 110 116 107 
3 108 112 107 
3 111 107 112 
3 113 115 106 
3 115 113 117 
3 115 117 109 
3 111 110 107 
3 110 109 116 
3 109 108 116 
3 117 113 112 
3 117 112 108 
3 109 117 108 
3 127 121 118 
3 126 118 121 
3 126 121 122 
3 128 120 119 
3 122 128 119 
3 120 124 119 
3 123 119 124 
3 125 127 118 
3 127 125 129 
3 127 129 121 
3 123 122 119 
3 122 121 128 
3 121 120 128 
3 129 125 124 
3 129 124 120 
3 121 129 120 
