ply
format ascii 1.0
comment VCGLIB generated
comment TextureFile Textures//Combined_Texture//Texture_01_A.png
element vertex 177
property float x
property float y
property float z
property float nx
property float ny
property float nz
property uchar red
property uchar green
property uchar blue
property uchar alpha
property float texture_u
property float texture_v
element face 350
property list uchar int vertex_indices
end_header
-0.019004 0.017776 -0.010649 -0.49673 0.8260761 -0.2661912 255 255 255 255 0.352623 0.189374
-0.00575 0.005833 0.022993 -0.257401 0.8803801 0.3983413 255 255 255 255 0.352623 0.189374
0.01289 0.009516 0.025938 0.1197036 0.8245606 0.5529656 255 255 255 255 0.352623 0.189374
0.003707 0.034589 -0.002164 -0.2319246 0.9122576 -0.3376348 255 255 255 255 0.352623 0.189374
0.027335 0.002319 0.003598 0.6804522 -0.6913527 0.2429325 255 255 255 255 0.352623 0.189374
-0.018388 0.010525 0.014734 -0.3745487 0.4062272 0.8334823 255 255 255 255 0.352623 0.189374
0.018687 0.013184 0.008729 0.8000799 0.5173888 0.3036134 255 255 255 255 0.352623 0.189374
-0.002581 0.018033 0.019235 -0.1865506 0.5581319 0.8085096 255 255 255 255 0.352623 0.189374
0.010223 0.018991 -0.013119 0.5137987 0.4147876 -0.7509742 255 255 255 255 0.352623 0.189374
-0.020014 0.0208 -0.001677 -0.8377177 0.5433185 -0.05508273 255 255 255 255 0.352623 0.189374
-0.013947 0.029026 0.00082 -0.2683857 0.963009 0.02414258 255 255 255 255 0.352623 0.189374
0.014058 0.033193 0.004762 0.9069329 0.3923508 -0.1534068 255 255 255 255 0.352623 0.189374
0.00973 0.02679 -0.011268 0.4741666 0.4177577 -0.7750127 255 255 255 255 0.352623 0.189374
0.001245 0.027663 -0.01473 0.1679116 0.6496729 -0.7414384 255 255 255 255 0.352623 0.189374
-0.017216 0.027784 -0.001776 -0.6795169 0.729241 -0.08040196 255 255 255 255 0.352623 0.189374
-0.002109 0.001756 0.029582 -0.3206158 -0.6739812 0.6655486 255 255 255 255 0.352623 0.189374
0.031516 0.002425 -0.003659 0.9391128 -0.2200613 0.2638943 255 255 255 255 0.352623 0.189374
0.000386 0.002458 -0.030765 0.2900714 -0.20653 -0.9344538 255 255 255 255 0.352623 0.189374
0.015717 0.006617 0.028981 0.4157768 0.6414458 0.6447302 255 255 255 255 0.352623 0.189374
-0.019672 0.008496 -0.027383 -0.4470609 0.6298049 -0.6352026 255 255 255 255 0.352623 0.189374
-0.000377 0.008136 0.017499 -0.3132485 0.2104128 0.9260679 255 255 255 255 0.352623 0.189374
-0.020567 0.012103 0.011915 -0.8040697 0.2794953 0.5247421 255 255 255 255 0.352623 0.189374
0.027008 0.005938 0.003624 0.888105 0.4153433 0.1968743 255 255 255 255 0.352623 0.189374
-0.023223 0.007738 -0.02165 -0.8188439 0.4840442 -0.3085383 255 255 255 255 0.352623 0.189374
0.028586 0.01005 -0.009942 0.6701114 0.7413617 -0.03651835 255 255 255 255 0.352623 0.189374
0.016462 0.019922 -0.021345 0.2200729 0.7483423 -0.6257411 255 255 255 255 0.352623 0.189374
0.019221 0.016244 -0.005941 0.5936505 0.7875974 0.165135 255 255 255 255 0.352623 0.189374
0.013064 0.001522 0.02759 0.1334027 -0.985928 0.1007461 255 255 255 255 0.352623 0.189374
0.016985 0.003071 0.030007 0.4639087 -0.3837185 0.7984666 255 255 255 255 0.352623 0.189374
-0.023955 0.016689 -0.002974 -0.8128366 0.5801907 -0.05172499 255 255 255 255 0.352623 0.189374
0.002531 0.019061 -0.019424 -0.1243985 0.8714185 -0.4745049 255 255 255 255 0.352623 0.189374
-0.012376 0.027398 -0.011784 -0.5071005 0.6918605 -0.5139826 255 255 255 255 0.352623 0.189374
0.000848 0.034758 0.007196 -0.2396825 0.9504209 0.1981224 255 255 255 255 0.352623 0.189374
0.000886 0.000272 0.013864 0.02016897 -0.9985037 0.05082956 255 255 255 255 0.352623 0.189374
-0.023103 0.00106 0.020776 -0.1749662 -0.9620385 0.2094487 255 255 255 255 0.352623 0.189374
-0.027451 0.001024 0.002269 -0.7806152 -0.5890117 0.2090582 255 255 255 255 0.352623 0.189374
-0.002997 0.001493 -0.028316 -0.05906687 -0.9830944 -0.1733105 255 255 255 255 0.352623 0.189374
0.001269 0.001625 -0.02935 0.2527256 -0.8629352 -0.4375758 255 255 255 255 0.352623 0.189374
-0.026486 0.001342 0.012938 -0.8904057 -0.4431854 0.1037521 255 255 255 255 0.352623 0.189374
-0.008696 0.002153 0.024876 -0.298098 -0.6221136 0.7239559 255 255 255 255 0.352623 0.189374
0.011855 0.001691 -0.0209 0.1152183 -0.9628963 -0.2440399 255 255 255 255 0.352623 0.189374
0.030966 0.002212 -0.011045 0.8336015 -0.5438803 -0.09645134 255 255 255 255 0.352623 0.189374
0.012662 0.003298 -0.023691 0.2806009 -0.3953734 -0.8746102 255 255 255 255 0.352623 0.189374
-0.002328 0.004071 0.029548 -0.4285928 0.5012482 0.7517037 255 255 255 255 0.352623 0.189374
0.023381 0.003284 0.018356 0.8347271 -0.202112 0.5122319 255 255 255 255 0.352623 0.189374
0.006656 0.003419 -0.026501 0.4187487 0.3338388 -0.8445124 255 255 255 255 0.352623 0.189374
-0.014188 0.008494 -0.028492 -0.01556052 0.677468 -0.7353876 255 255 255 255 0.352623 0.189374
-0.018192 0.007698 -0.028863 -0.1980631 0.5233438 -0.8287836 255 255 255 255 0.352623 0.189374
-0.026273 0.007386 0.006007 -0.9207123 0.3343115 0.2013077 255 255 255 255 0.352623 0.189374
-0.019554 0.003203 0.023921 -0.1516977 0.299593 0.9419299 255 255 255 255 0.352623 0.189374
-0.014269 0.015192 -0.020021 -0.1569976 0.7390856 -0.6550605 255 255 255 255 0.352623 0.189374
-0.014479 0.016517 0.018845 -0.4183176 0.7185904 0.5555522 255 255 255 255 0.352623 0.189374
0.008038 0.010604 0.02359 -0.2120671 0.2061394 0.9552665 255 255 255 255 0.352623 0.189374
0.013131 0.014132 0.019099 0.4653365 0.5411776 0.7004204 255 255 255 255 0.352623 0.189374
0.021215 0.014366 -0.016723 0.8678846 0.4774871 -0.1370486 255 255 255 255 0.352623 0.189374
0.019726 0.020495 -0.018264 0.5407272 0.8042231 -0.2466563 255 255 255 255 0.352623 0.189374
0.010842 0.013925 -0.024241 0.02813228 0.1664413 -0.98565 255 255 255 255 0.352623 0.189374
-0.026016 0.010974 -0.011338 -0.9873235 0.06904407 -0.1429174 255 255 255 255 0.352623 0.189374
-0.022893 0.011652 -0.019988 -0.7397929 0.5142207 -0.4339164 255 255 255 255 0.352623 0.189374
0.013646 0.019387 -0.008306 0.2977785 0.9534724 -0.04710038 255 255 255 255 0.352623 0.189374
-0.009444 0.018593 -0.018171 -0.382433 0.5475852 -0.7442415 255 255 255 255 0.352623 0.189374
-0.022884 0.015667 -0.012766 -0.6501603 0.7227686 -0.2343013 255 255 255 255 0.352623 0.189374
0.013931 0.033101 0.007316 0.8023993 0.5560131 0.2168059 255 255 255 255 0.352623 0.189374
0.014918 0.015508 0.015935 0.8556796 0.3593069 0.3724392 255 255 255 255 0.352623 0.189374
0.014904 0.023153 0.003662 0.9623995 0.2339952 -0.137962 255 255 255 255 0.352623 0.189374
0.012305 0.023304 -0.002427 0.9468598 0.2305399 -0.224294 255 255 255 255 0.352623 0.189374
-0.0196 0.019784 0.004778 -0.7027865 0.5991061 0.3836184 255 255 255 255 0.352623 0.189374
0.001744 0.030232 0.013351 -0.3740959 0.5856504 0.7190729 255 255 255 255 0.352623 0.189374
-0.013911 0.025367 0.008011 -0.5821015 0.5245003 0.6213351 255 255 255 255 0.352623 0.189374
0.01261 0.034717 0.003195 0.5847234 0.7969319 -0.1516513 255 255 255 255 0.352623 0.189374
-0.004597 0.03188 0.006786 -0.4513757 0.7929142 0.4093253 255 255 255 255 0.352623 0.189374
-0.010546 0.029738 0.003039 -0.3153183 0.9485187 -0.02977674 255 255 255 255 0.352623 0.189374
0.031114 0.001819 -0.003949 0.5230361 -0.8467512 0.09718928 255 255 255 255 0.352623 0.189374
0.020859 0.008218 0.010753 0.6476478 0.7017875 0.2967266 255 255 255 255 0.352623 0.189374
-0.016998 0.027406 0.002504 -0.7024212 0.6531157 0.2829209 255 255 255 255 0.352623 0.189374
-0.008041 0.000932 0.021973 -0.05110167 -0.9815549 0.1842241 255 255 255 255 0.352623 0.189374
-0.002297 0.000234 -0.013157 0.0006460149 -0.9982504 -0.05912524 255 255 255 255 0.352623 0.189374
-0.007776 -0 0.005651 -0.01389615 -0.9997708 0.01628965 255 255 255 255 0.352623 0.189374
-0.016001 0.000335 -0.005244 -0.07221118 -0.9956282 -0.05924551 255 255 255 255 0.352623 0.189374
-0.026365 0.003253 -0.015018 -0.4151426 -0.8827467 -0.220034 255 255 255 255 0.352623 0.189374
-0.029336 0.00178 -0.004342 -0.3814029 -0.9209701 -0.07966107 255 255 255 255 0.352623 0.189374
-0.004254 0.00215 -0.030443 -0.1237452 -0.5937646 -0.7950665 255 255 255 255 0.352623 0.189374
-0.023331 0.002116 -0.013334 -0.1781361 -0.9748064 -0.1342391 255 255 255 255 0.352623 0.189374
-0.025536 0.000667 0.006736 -0.168242 -0.9853706 0.0271906 255 255 255 255 0.352623 0.189374
-0.026232 0.003285 0.00255 -0.9270629 0.04874745 0.3717231 255 255 255 255 0.352623 0.189374
-0.024559 0.002051 0.022756 -0.6172828 -0.3349875 0.7118605 255 255 255 255 0.352623 0.189374
-0.021271 0.003354 -0.026769 -0.3081357 -0.8974509 -0.3156491 255 255 255 255 0.352623 0.189374
0.013133 0.000512 -0.000538 0.07233513 -0.9973238 0.01063176 255 255 255 255 0.352623 0.189374
0.029799 0.001881 -0.014772 0.5862935 -0.7766063 -0.2305271 255 255 255 255 0.352623 0.189374
0.004792 5.7e-05 -0.004698 0.05724129 -0.9972594 -0.04687463 255 255 255 255 0.352623 0.189374
-0.031516 0.003337 -0.00508 -0.9848039 -0.167574 -0.04560978 255 255 255 255 0.352623 0.189374
-0.02097 0.004729 -0.029152 -0.3643199 -0.2636517 -0.8931735 255 255 255 255 0.352623 0.189374
-0.023103 0.005033 -0.027799 -0.7721467 -0.03397764 -0.6345353 255 255 255 255 0.352623 0.189374
0.02353 0.002244 -0.019804 0.1495133 -0.8745495 -0.4613122 255 255 255 255 0.352623 0.189374
-0.024711 0.00442 0.021321 -0.6519418 0.5741289 0.495326 255 255 255 255 0.352623 0.189374
6.8e-05 0.003036 0.030765 -0.1389943 -0.04454507 0.9892908 255 255 255 255 0.352623 0.189374
-0.008718 0.003502 0.02497 -0.3325438 0.4786706 0.8125818 255 255 255 255 0.352623 0.189374
0.013494 0.001786 0.029511 0.1459483 -0.8438784 0.5163025 255 255 255 255 0.352623 0.189374
0.026273 0.002848 0.013837 0.7658718 -0.5369857 0.3536762 255 255 255 255 0.352623 0.189374
-0.003727 0.006472 -0.029861 0.1124465 0.5292693 -0.8409695 255 255 255 255 0.352623 0.189374
-0.023088 0.010533 0.005088 -0.8945938 0.4076204 0.1831602 255 255 255 255 0.352623 0.189374
-0.03006 0.00536 -0.004596 -0.744184 0.6679492 -0.005843007 255 255 255 255 0.352623 0.189374
-0.024853 0.007351 0.013837 -0.8296338 0.5114725 0.2238387 255 255 255 255 0.352623 0.189374
0.011512 0.006385 0.029892 -0.02769403 0.5653685 0.8243734 255 255 255 255 0.352623 0.189374
0.030151 0.007567 -0.004261 0.7607866 0.5760604 0.2989285 255 255 255 255 0.352623 0.189374
0.031505 0.006288 -0.007302 0.949341 0.3135345 0.02116144 255 255 255 255 0.352623 0.189374
0.028858 0.003676 -0.019658 0.5635263 -0.3881675 -0.7292216 255 255 255 255 0.352623 0.189374
0.030609 0.00489 -0.01753 0.9181485 0.03223842 -0.3949229 255 255 255 255 0.352623 0.189374
-0.025318 0.008731 -0.009114 -0.9565871 0.2867028 -0.05237038 255 255 255 255 0.352623 0.189374
-0.024379 0.005397 -0.025352 -0.9096463 0.07911514 -0.40778 255 255 255 255 0.352623 0.189374
-0.023041 0.007934 0.01515 -0.356346 0.8423631 0.4042798 255 255 255 255 0.352623 0.189374
0.006657 0.008173 0.021895 -0.3976176 0.3990191 0.826247 255 255 255 255 0.352623 0.189374
0.005892 0.006501 0.028996 -0.117073 0.8395043 0.5305908 255 255 255 255 0.352623 0.189374
0.018982 0.003425 0.028233 0.8156636 -0.2515041 0.5209976 255 255 255 255 0.352623 0.189374
0.023163 0.005176 0.016093 0.5684834 0.7389768 0.3615798 255 255 255 255 0.352623 0.189374
0.027053 0.005482 0.011128 0.8485195 0.4624068 0.2572833 255 255 255 255 0.352623 0.189374
0.02748 0.009636 -0.016677 0.6724548 0.6843152 -0.2819882 255 255 255 255 0.352623 0.189374
0.015345 0.00986 -0.024162 0.1541832 -0.3394268 -0.92791 255 255 255 255 0.352623 0.189374
0.026207 0.008058 -0.020373 0.5087658 0.347216 -0.7877807 255 255 255 255 0.352623 0.189374
-0.016339 0.011651 0.015789 -0.4285749 -0.4186651 0.8006517 255 255 255 255 0.352623 0.189374
0.016286 0.012493 0.017784 0.7780367 0.4618729 0.4258315 255 255 255 255 0.352623 0.189374
-0.002037 0.009675 -0.025078 0.1258884 0.7166697 -0.6859567 255 255 255 255 0.352623 0.189374
-0.016729 0.014828 0.017694 -0.6668754 -0.03382935 0.744401 255 255 255 255 0.352623 0.189374
0.023479 0.011958 -0.003535 0.6623347 0.7260002 0.1850313 255 255 255 255 0.352623 0.189374
0.021548 0.013451 0.00292 0.7910919 0.5489544 0.269857 255 255 255 255 0.352623 0.189374
0.00494 0.013665 0.021997 0.06306834 0.3429738 0.9372254 255 255 255 255 0.352623 0.189374
0.000931 0.011142 0.021804 -0.1807572 -0.4614603 0.8685513 255 255 255 255 0.352623 0.189374
-0.005618 0.013444 0.022426 -0.1781797 -0.4916655 0.8523597 255 255 255 255 0.352623 0.189374
-0.00752 0.01659 -0.020241 -0.1087664 0.4694284 -0.8762459 255 255 255 255 0.352623 0.189374
-0.023196 0.016791 0.005134 -0.8660046 0.409917 0.2863638 255 255 255 255 0.352623 0.189374
-0.025952 0.012298 -0.006499 -0.9926686 0.1094055 0.05137669 255 255 255 255 0.352623 0.189374
0.021256 0.011444 -0.021396 0.6078585 0.5371952 -0.5847473 255 255 255 255 0.352623 0.189374
0.016928 0.012891 -0.023643 0.3139716 0.1987974 -0.9283864 255 255 255 255 0.352623 0.189374
0.007805 0.018096 -0.023228 -0.1309562 0.59653 -0.7918348 255 255 255 255 0.352623 0.189374
-0.000187 0.012193 -0.022985 -0.05157474 0.4903269 -0.8700113 255 255 255 255 0.352623 0.189374
0.005153 0.018183 0.019948 0.09908975 0.3835377 0.9181939 255 255 255 255 0.352623 0.189374
0.020141 0.020489 -0.015083 0.5358688 0.8425022 0.05508808 255 255 255 255 0.352623 0.189374
0.014076 0.020148 -0.001771 0.8018907 0.549224 -0.2352115 255 255 255 255 0.352623 0.189374
0.020977 0.014616 -0.006491 0.7013762 0.7030805 0.1172574 255 255 255 255 0.352623 0.189374
-0.021558 0.016298 0.010679 -0.7422332 0.5545394 0.3762659 255 255 255 255 0.352623 0.189374
0.017182 0.017882 0.00319 0.8040625 0.5895602 0.07682671 255 255 255 255 0.352623 0.189374
-0.011766 0.015676 0.02126 -0.3884682 0.2179633 0.8953125 255 255 255 255 0.352623 0.189374
-0.008661 0.017681 0.017071 -0.2954322 0.7864364 0.5424368 255 255 255 255 0.352623 0.189374
-0.005774 0.01485 0.022769 -0.1055083 0.2648303 0.9585056 255 255 255 255 0.352623 0.189374
0.013939 0.021262 0.016192 0.7523673 0.2773777 0.597499 255 255 255 255 0.352623 0.189374
0.010677 0.02216 0.017375 0.3037902 0.3575699 0.8830942 255 255 255 255 0.352623 0.189374
0.012322 0.019612 -0.009751 0.7089565 0.6191651 -0.3376616 255 255 255 255 0.352623 0.189374
-0.018855 0.016773 -0.016113 -0.3915591 0.8272047 -0.4030061 255 255 255 255 0.352623 0.189374
-0.01389 0.018055 0.012927 -0.4494559 0.7577004 0.473159 255 255 255 255 0.352623 0.189374
0.000712 0.02254 0.019136 -0.1635932 0.3948261 0.904074 255 255 255 255 0.352623 0.189374
-0.016693 0.026569 -0.006571 -0.7388189 0.5720086 -0.3563046 255 255 255 255 0.352623 0.189374
-0.014585 0.019355 -0.013681 -0.5355746 0.6519366 -0.5367855 255 255 255 255 0.352623 0.189374
0.008012 0.033071 0.013456 0.1021934 0.6882877 0.7182037 255 255 255 255 0.352623 0.189374
0.007105 0.017757 -0.01547 0.2558823 0.9121212 -0.3202486 255 255 255 255 0.352623 0.189374
0.006984 0.033358 -0.005465 0.005920538 0.8350998 -0.5500666 255 255 255 255 0.352623 0.189374
0.007407 0.030389 -0.008714 0.1816942 0.7610908 -0.622678 255 255 255 255 0.352623 0.189374
0.004026 0.024922 -0.014933 0.3966805 0.3594383 -0.844659 255 255 255 255 0.352623 0.189374
0.010989 0.02538 -0.010918 0.7544586 0.2544473 -0.6050197 255 255 255 255 0.352623 0.189374
0.00026 0.029211 -0.011708 -0.0374573 0.9543469 -0.2963428 255 255 255 255 0.352623 0.189374
-0.007166 0.027644 -0.014928 -0.2420295 0.6510265 -0.7194347 255 255 255 255 0.352623 0.189374
-0.013538 0.028141 0.005261 -0.4507449 0.784192 0.4264644 255 255 255 255 0.352623 0.189374
0.010273 0.034769 -0.000857 0.2353861 0.94618 -0.2221188 255 255 255 255 0.352623 0.189374
0.014031 0.018365 -0.011603 -0.1228639 0.9736072 -0.192337 255 255 255 255 0.352623 0.189374
0.011594 0.032474 -0.004596 0.7266577 0.5496799 -0.412093 255 255 255 255 0.352623 0.189374
-0.002302 0.034059 0.002903 -0.3991244 0.9029484 -0.1593235 255 255 255 255 0.352623 0.189374
-0.004788 0.031691 0.001834 -0.3968686 0.7361611 -0.5482355 255 255 255 255 0.352623 0.189374
-0.003423 0.029082 -0.003814 -0.2307553 0.9439088 -0.2361953 255 255 255 255 0.352623 0.189374
0.004427 0.031344 -0.006843 -0.2405095 0.8424678 -0.4820823 255 255 255 255 0.352623 0.189374
-0.005332 0.028997 -0.01309 -0.07643233 0.9438261 -0.3214817 255 255 255 255 0.352623 0.189374
0.024918 0.009009 -0.000337 0.6531366 0.6919143 0.3076805 255 255 255 255 0.352623 0.189374
0.004762 0.008344 -0.024203 0.1700623 0.34252 -0.9239907 255 255 255 255 0.352623 0.189374
-0.005902 0.008922 0.017205 -0.2024332 0.1011573 0.9740575 255 255 255 255 0.352623 0.189374
-0.019168 0.019774 -0.006826 -0.7632222 0.5306097 -0.3687077 255 255 255 255 0.352623 0.189374
0.000517 0.019986 -0.017987 0.1375078 0.5246568 -0.8401351 255 255 255 255 0.352623 0.189374
0.011927 0.032932 0.011178 0.6078501 0.5909004 0.5304292 255 255 255 255 0.352623 0.189374
0.002169 0.033433 0.011282 -0.3115847 0.7596375 0.5708467 255 255 255 255 0.352623 0.189374
0.009949 0.034775 0.009901 0.2287453 0.931111 0.2840913 255 255 255 255 0.352623 0.189374
3 34 33 75 
3 33 15 75 
3 39 75 15 
3 78 76 77 
3 77 76 89 
3 34 77 33 
3 33 77 89 
3 34 83 77 
3 77 83 78 
3 79 82 80 
3 79 80 90 
3 82 35 80 
3 97 27 28 
3 27 44 28 
3 98 27 87 
3 72 4 87 
3 98 87 4 
3 76 36 37 
3 17 37 81 
3 36 81 37 
3 15 27 97 
3 95 15 97 
3 33 27 15 
3 87 27 33 
3 83 35 78 
3 76 78 36 
3 86 36 82 
3 79 86 82 
3 35 82 78 
3 82 36 78 
3 94 102 84 
3 38 34 85 
3 39 34 75 
3 83 38 35 
3 34 38 83 
3 35 38 84 
3 84 38 94 
3 96 49 39 
3 39 49 85 
3 36 91 81 
3 36 86 91 
3 86 92 91 
3 87 33 89 
3 88 72 87 
3 89 76 87 
3 40 88 76 
3 88 87 76 
3 42 93 40 
3 93 106 88 
3 72 88 41 
3 41 88 106 
3 40 93 88 
3 37 40 76 
3 90 80 35 
3 39 85 34 
3 38 85 94 
3 86 79 92 
3 90 109 79 
3 79 109 92 
3 101 109 90 
3 42 106 93 
3 107 41 106 
3 72 41 16 
3 107 16 41 
3 107 105 16 
3 22 4 16 
3 105 104 16 
3 170 42 45 
3 42 40 37 
3 42 37 45 
3 45 37 17 
3 1 171 96 
3 171 49 96 
3 85 49 94 
3 95 43 15 
3 96 39 15 
3 96 15 43 
3 96 43 1 
3 98 44 27 
3 44 113 28 
3 28 113 18 
3 103 28 18 
3 103 95 28 
3 97 28 95 
3 72 16 4 
3 17 99 45 
3 45 99 170 
3 121 99 46 
3 170 99 121 
3 17 47 99 
3 47 46 99 
3 17 81 47 
3 81 91 47 
3 101 100 108 
3 90 48 101 
3 48 84 102 
3 20 1 112 
3 1 43 112 
3 103 112 43 
3 103 43 95 
3 169 22 104 
3 16 104 22 
3 106 42 118 
3 170 118 42 
3 107 106 118 
3 35 84 90 
3 23 19 109 
3 108 23 109 
3 46 47 19 
3 50 46 19 
3 108 109 101 
3 92 109 47 
3 91 92 47 
3 19 47 109 
3 84 48 90 
3 5 102 110 
3 110 102 94 
3 49 110 94 
3 5 110 171 
3 49 171 110 
3 103 2 111 
3 103 111 112 
3 111 20 112 
3 1 20 171 
3 18 113 114 
3 113 44 114 
3 115 114 44 
3 4 115 98 
3 44 98 115 
3 4 22 115 
3 121 46 50 
3 5 21 102 
3 101 48 100 
3 100 48 21 
3 48 102 21 
3 108 100 130 
3 73 63 120 
3 6 63 73 
3 103 18 2 
3 73 2 18 
3 115 169 73 
3 18 114 73 
3 73 114 115 
3 115 22 169 
3 169 104 123 
3 123 104 24 
3 105 24 104 
3 107 116 105 
3 131 118 132 
3 131 116 118 
3 132 118 117 
3 56 117 170 
3 116 107 118 
3 170 117 118 
3 108 57 23 
3 23 58 19 
3 58 23 57 
3 108 130 57 
3 139 129 130 
3 100 139 130 
3 21 139 100 
3 171 119 5 
3 122 119 127 
3 171 20 127 
3 119 171 127 
3 5 119 21 
3 122 21 119 
3 111 126 20 
3 127 20 126 
3 73 120 2 
3 124 6 169 
3 73 169 6 
3 50 134 121 
3 121 134 170 
3 61 57 29 
3 29 57 130 
3 141 127 143 
3 122 127 141 
3 51 122 141 
3 123 124 169 
3 140 124 123 
3 63 6 140 
3 6 124 140 
3 120 53 2 
3 2 53 52 
3 125 52 53 
3 125 143 126 
3 2 52 111 
3 111 52 126 
3 125 126 52 
3 143 127 126 
3 116 24 105 
3 50 128 134 
3 50 60 128 
3 19 147 50 
3 147 60 50 
3 58 147 19 
3 130 129 29 
3 9 29 129 
3 51 139 122 
3 21 122 139 
3 120 63 53 
3 53 63 144 
3 132 25 131 
3 131 25 55 
3 56 132 117 
3 133 25 56 
3 25 132 56 
3 173 134 128 
3 56 170 133 
3 170 134 133 
3 173 30 134 
3 30 133 134 
3 25 133 30 
3 58 57 61 
3 58 61 147 
3 125 135 143 
3 149 135 145 
3 140 138 26 
3 140 26 59 
3 136 59 26 
3 136 26 138 
3 123 138 140 
3 140 59 137 
3 116 138 24 
3 131 54 116 
3 123 24 138 
3 138 116 54 
3 136 54 55 
3 138 54 136 
3 131 55 54 
3 51 129 139 
3 129 51 148 
3 142 148 51 
3 0 61 29 
3 9 172 29 
3 51 141 142 
3 7 142 141 
3 135 7 143 
3 7 141 143 
3 142 7 149 
3 7 135 149 
3 53 145 125 
3 53 144 145 
3 135 125 145 
3 144 63 62 
3 62 63 64 
3 140 64 63 
3 0 151 147 
3 60 147 151 
3 152 145 144 
3 152 149 145 
3 62 174 144 
3 152 144 174 
3 62 64 11 
3 140 137 64 
3 64 137 65 
3 146 65 137 
3 59 146 137 
3 159 60 151 
3 61 0 147 
3 0 29 172 
3 66 129 148 
3 68 148 142 
3 74 148 68 
3 74 66 148 
3 74 9 66 
3 172 9 150 
3 129 66 9 
3 0 172 151 
3 150 9 14 
3 74 14 9 
3 10 14 74 
3 160 10 74 
3 149 67 68 
3 142 149 68 
3 67 149 152 
3 65 11 64 
3 55 30 153 
3 55 25 30 
3 173 153 30 
3 8 162 153 
3 62 69 174 
3 11 69 62 
3 176 174 69 
3 152 174 176 
3 32 152 176 
3 11 65 69 
3 13 12 157 
3 163 157 12 
3 154 155 167 
3 163 12 155 
3 163 155 154 
3 161 163 154 
3 13 155 12 
3 173 13 156 
3 173 156 153 
3 13 157 156 
3 8 153 156 
3 8 156 157 
3 13 158 155 
3 158 13 168 
3 159 168 13 
3 173 128 13 
3 159 13 128 
3 60 159 128 
3 151 31 159 
3 151 172 150 
3 151 150 31 
3 14 31 150 
3 71 160 70 
3 67 70 160 
3 160 68 67 
3 160 74 68 
3 67 152 175 
3 161 69 163 
3 146 59 162 
3 55 162 136 
3 55 153 162 
3 136 162 59 
3 146 162 8 
3 69 65 163 
3 65 146 163 
3 8 157 146 
3 157 163 146 
3 32 70 175 
3 175 70 67 
3 69 161 176 
3 176 161 3 
3 160 71 10 
3 154 3 161 
3 32 176 3 
3 175 152 32 
3 164 32 3 
3 31 14 168 
3 31 168 159 
3 71 70 32 
3 71 32 164 
3 164 165 71 
3 3 165 164 
3 10 71 166 
3 14 10 168 
3 10 166 168 
3 165 166 71 
3 155 158 167 
3 158 166 167 
3 165 167 166 
3 168 166 158 
3 167 165 3 
3 154 167 3 
