ply
format ascii 1.0
comment VCGLIB generated
comment TextureFile T://3111_3D//2020//SAM//Textures//Combined_Texture//Texture_01_A.png
element vertex 151
property float x
property float y
property float z
property float nx
property float ny
property float nz
property uchar red
property uchar green
property uchar blue
property uchar alpha
property float texture_u
property float texture_v
element face 282
property list uchar int vertex_indices
end_header
-0.001975 0.001401 -0.000129 -0.1982883 -0.3190136 0.9267752 255 255 255 255 0.482196 0.204346
-0.001058 0.001344 -0.00015 -0.3982707 -0.8162633 -0.4184431 255 255 255 255 0.482196 0.204346
-0.001034 0.001476 -0.000276 0.8030926 0.5166028 -0.296924 255 255 255 255 0.482196 0.204346
-0.002268 0.0012 -0.000563 0.3281368 -0.8855244 -0.3288963 255 255 255 255 0.482196 0.204346
-0.001212 0.001816 0.002495 0.1627709 0.2296154 0.9595741 255 255 255 255 0.482196 0.204346
-0.000338 0.000264 0.000216 0.528545 -0.7853812 -0.3222059 255 255 255 255 0.482196 0.204346
-0.00187 0.00154 0.002936 -0.5202058 0.003423881 0.8540341 255 255 255 255 0.482196 0.204346
-0.001173 0.001963 0.001613 -0.1986304 -0.9790267 -0.04530624 255 255 255 255 0.482196 0.204346
-0.001387 0.001899 0.000985 -0.7314827 -0.5484017 -0.4052021 255 255 255 255 0.482196 0.204346
-0.000762 0.00184 0.000964 0.2139042 -0.6799142 0.7013999 255 255 255 255 0.482196 0.204346
-0.000757 0.002042 0.000906 0.4222192 0.7916471 -0.4416173 255 255 255 255 0.482196 0.204346
-0.000771 0.001136 0.000385 -0.8861195 -0.4469682 0.122522 255 255 255 255 0.482196 0.204346
-0.000334 0.001237 0.000649 -0.362993 -0.4613384 0.8095697 255 255 255 255 0.482196 0.204346
-0.000237 0.001281 0.00052 0.8022195 0.2876425 -0.5231689 255 255 255 255 0.482196 0.204346
-0.000687 0.001171 0.000258 -0.1603043 0.264255 -0.9510372 255 255 255 255 0.482196 0.204346
-0.001528 0.001866 0.002341 0.1210159 0.7758694 0.6191785 255 255 255 255 0.482196 0.204346
-0.001496 0.001628 0.002299 0.293154 -0.9518391 -0.08979549 255 255 255 255 0.482196 0.204346
-0.001804 0.002002 0.001978 -0.7129388 0.5902819 -0.3785309 255 255 255 255 0.482196 0.204346
-0.000212 0.000375 0.000176 -0.5788648 -0.7398801 0.3427724 255 255 255 255 0.482196 0.204346
0.000985 0.001702 0.001119 0.2281506 -0.8994104 -0.3728383 255 255 255 255 0.482196 0.204346
0.000329 0.001601 0.000557 -0.02123149 -0.7726286 0.6345032 255 255 255 255 0.482196 0.204346
0.001481 0.001672 -0.000916 0.5087695 0.8567382 0.08457709 255 255 255 255 0.482196 0.204346
0.000612 0.001396 -0.000484 0.03218388 -0.8521087 -0.5223744 255 255 255 255 0.482196 0.204346
-0.001179 0.001336 -0.003243 -0.301478 -0.003467041 -0.9534669 255 255 255 255 0.482196 0.204346
-0.000791 0.001702 -0.001881 0.1445018 -0.9884442 -0.04579707 255 255 255 255 0.482196 0.204346
-0.000166 0.001641 -0.001237 0.7622589 -0.5029139 -0.4074787 255 255 255 255 0.482196 0.204346
-0.000574 0.001602 -0.000904 -0.4487398 -0.8267062 -0.3393956 255 255 255 255 0.482196 0.204346
-0.000623 0.00111 -0.000299 -0.360392 0.2635384 0.894799 255 255 255 255 0.482196 0.204346
-0.001029 0.001615 -0.002622 -0.3627557 0.8734139 -0.3248946 255 255 255 255 0.482196 0.204346
-0.000189 0.001043 -0.000491 0.5935817 -0.4923576 -0.6365884 255 255 255 255 0.482196 0.204346
0.000149 0.001171 -0.000593 -0.393973 0.2195249 -0.8925213 255 255 255 255 0.482196 0.204346
0.000573 0.001532 -0.000608 -0.8318074 0.5203846 -0.1931227 255 255 255 255 0.482196 0.204346
0.000556 0.001389 -0.000122 -0.4410201 0.7554426 0.4845696 255 255 255 255 0.482196 0.204346
0.000323 0.001074 -0.000296 0.7073861 -0.5964665 -0.3792528 255 255 255 255 0.482196 0.204346
-4.1e-05 0.000311 -4.1e-05 -0.3093401 -0.9291579 0.2024212 255 255 255 255 0.482196 0.204346
0.001844 0.00156 -0.001134 0.2395808 0.9528052 -0.1864493 255 255 255 255 0.482196 0.204346
0.002522 0.001376 -0.001172 0.8262236 0.441887 0.3494146 255 255 255 255 0.482196 0.204346
0.001254 0.001641 -0.001157 -0.1334094 0.9036523 -0.4069576 255 255 255 255 0.482196 0.204346
0.000661 0.001493 -0.000856 -0.7548285 -0.4239251 -0.5005213 255 255 255 255 0.482196 0.204346
0.000788 0.001604 -0.000993 -0.5711126 0.5272622 -0.6291463 255 255 255 255 0.482196 0.204346
0.001258 0.001439 -0.001167 -0.1396781 -0.9801891 -0.1404256 255 255 255 255 0.482196 0.204346
0.00266 0.001146 -0.00169 0.4824515 -0.0631164 -0.8736457 255 255 255 255 0.482196 0.204346
0.002183 0.001334 -0.001433 -0.0754062 0.3027951 -0.9500679 255 255 255 255 0.482196 0.204346
-0.000798 0.001591 -0.002914 0.5176778 0.4800884 -0.7081842 255 255 255 255 0.482196 0.204346
-0.000604 0.001579 -0.002609 0.9897635 -0.0001485308 -0.1427173 255 255 255 255 0.482196 0.204346
-0.001251 0.001514 -0.002776 -0.926459 0.3226793 0.1937829 255 255 255 255 0.482196 0.204346
-0.000757 0.001456 -0.002635 0.4720787 -0.868106 0.153407 255 255 255 255 0.482196 0.204346
-0.001262 0.001526 -0.002631 -0.7180483 -0.1310811 -0.6835381 255 255 255 255 0.482196 0.204346
-0.001282 0.001584 -0.002109 -0.7640471 -0.614827 0.195499 255 255 255 255 0.482196 0.204346
-0.000655 0.001661 -0.001314 -0.07226717 -0.9912532 -0.1104288 255 255 255 255 0.482196 0.204346
-0.000189 0.001822 -0.001223 0.6462033 0.7503038 0.1395186 255 255 255 255 0.482196 0.204346
-0.00047 0.001887 -0.001296 0.1539758 0.9777843 0.1422298 255 255 255 255 0.482196 0.204346
-0.000454 0.001231 -0.000584 -0.1900154 -0.5767845 -0.7944897 255 255 255 255 0.482196 0.204346
-0.000913 0.001531 -0.000736 -0.9058827 -0.1422144 -0.3989381 255 255 255 255 0.482196 0.204346
-0.000413 0.00134 -0.000461 0.2122412 0.6413822 0.7372806 255 255 255 255 0.482196 0.204346
-0.000905 0.001526 -0.000629 -0.8456984 0.1290647 0.517819 255 255 255 255 0.482196 0.204346
-9.9e-05 0.001604 -0.000962 0.935197 0.2924682 0.1996721 255 255 255 255 0.482196 0.204346
-0.000291 0.000357 -0.000171 0.4428239 -0.865164 0.2353687 255 255 255 255 0.482196 0.204346
-0.000473 0.000375 -0.000154 -0.4453216 -0.8272296 0.3426075 255 255 255 255 0.482196 0.204346
-0.000789 0.001918 -0.001854 0.06661657 0.9750934 -0.2115541 255 255 255 255 0.482196 0.204346
-0.001024 0.00184 -0.001198 -0.6239811 0.6314865 0.4602959 255 255 255 255 0.482196 0.204346
-0.001084 0.001678 -0.001286 -0.7441028 -0.5856141 0.3215075 255 255 255 255 0.482196 0.204346
-0.001172 0.001666 -0.001724 -0.6069086 -0.7664455 0.2102934 255 255 255 255 0.482196 0.204346
-0.001149 0.001201 -0.003121 -0.1620339 -0.9207932 -0.3548027 255 255 255 255 0.482196 0.204346
-0.001014 0.001411 -0.002574 -0.1191615 -0.9366488 0.3293777 255 255 255 255 0.482196 0.204346
-0.000573 0.001668 -0.00211 -0.04159363 -0.4161699 -0.9083351 255 255 255 255 0.482196 0.204346
-0.000698 0.001753 -0.000849 -0.3906445 0.7437903 0.5423771 255 255 255 255 0.482196 0.204346
-0.002012 0.001395 -0.000881 -0.2052984 0.07207415 -0.976042 255 255 255 255 0.482196 0.204346
-0.002651 0.001038 -0.000656 -0.7561325 -0.6232704 -0.1994939 255 255 255 255 0.482196 0.204346
-0.002295 0.00127 -0.000226 -0.3301941 -0.5737172 0.7495468 255 255 255 255 0.482196 0.204346
-0.001281 0.00141 -0.000644 0.3860052 -0.5482931 -0.7418725 255 255 255 255 0.482196 0.204346
-0.001354 0.001373 0.000251 -0.4380698 -0.4896095 0.7539081 255 255 255 255 0.482196 0.204346
-0.000706 0.001128 -0.000366 0.3777469 0.04179779 -0.924965 255 255 255 255 0.482196 0.204346
-0.000736 0.001125 -6e-06 0.7982478 0.5572067 0.2287381 255 255 255 255 0.482196 0.204346
-0.00101 0.001174 0.000306 -0.03586513 -0.102056 0.9941319 255 255 255 255 0.482196 0.204346
-0.000824 0.001034 -4.3e-05 -0.7768502 -0.5332141 -0.3349427 255 255 255 255 0.482196 0.204346
-0.000493 0.000315 -7e-05 0.3689055 -0.8824445 -0.2918912 255 255 255 255 0.482196 0.204346
-0.000695 0.000901 0.000257 0.613018 0.1573308 0.7742454 255 255 255 255 0.482196 0.204346
-0.000588 0.000443 0.000147 0.06328867 -0.7590537 0.6479446 255 255 255 255 0.482196 0.204346
-0.001221 0.001546 -0.000587 0.5534554 0.628391 -0.5466369 255 255 255 255 0.482196 0.204346
-0.001604 0.001399 -0.000721 0.3179443 -0.7183707 -0.6187528 255 255 255 255 0.482196 0.204346
-0.002508 0.00124 -0.000792 -0.2712351 0.2378295 -0.9326675 255 255 255 255 0.482196 0.204346
-0.000561 0.002057 0.001677 0.8484508 0.2986026 0.4369987 255 255 255 255 0.482196 0.204346
-0.00176 0.001795 0.001977 -0.5070423 -0.5789566 -0.6385275 255 255 255 255 0.482196 0.204346
-0.000893 0.001827 0.00209 0.6511309 -0.7161104 0.2514251 255 255 255 255 0.482196 0.204346
-0.00095 0.001916 0.001258 -0.02592128 -0.9753118 0.2193057 255 255 255 255 0.482196 0.204346
-0.001646 0.001908 0.001436 -0.8427803 -0.5364594 0.04396315 255 255 255 255 0.482196 0.204346
-0.000944 0.002174 0.001232 0.09024096 0.9777508 -0.1893673 255 255 255 255 0.482196 0.204346
-0.001628 0.002029 0.001567 -0.7675723 0.2140316 0.6041715 255 255 255 255 0.482196 0.204346
-0.001083 0.001644 0.000719 -0.7320253 -0.6796092 0.04764662 255 255 255 255 0.482196 0.204346
-0.000309 0.001766 0.001047 0.363753 0.106636 0.9253716 255 255 255 255 0.482196 0.204346
-0.000794 0.001593 0.000496 0.01170494 0.5356056 -0.8443872 255 255 255 255 0.482196 0.204346
-0.000233 0.00176 0.000955 0.9247762 0.3693293 0.09156939 255 255 255 255 0.482196 0.204346
-0.000517 0.000251 0.000256 -0.5177712 -0.8550617 -0.02797312 255 255 255 255 0.482196 0.204346
-0.000263 0.00064 0.000394 0.8031499 -0.2815244 0.5250659 255 255 255 255 0.482196 0.204346
-0.000394 0.000845 0.000274 0.455002 0.1941564 -0.8690665 255 255 255 255 0.482196 0.204346
-0.001968 0.001835 0.002441 -0.8900904 0.430577 0.1494741 255 255 255 255 0.482196 0.204346
-0.000801 0.00217 0.001714 0.2377119 0.9220217 0.3055634 255 255 255 255 0.482196 0.204346
-0.000549 0.001936 0.001534 0.7502097 -0.6610622 0.01349723 255 255 255 255 0.482196 0.204346
-0.001802 0.001385 0.002819 -0.1753243 -0.9491151 0.2616142 255 255 255 255 0.482196 0.204346
-0.000547 0.002122 0.001448 0.8017128 0.5828762 -0.1323331 255 255 255 255 0.482196 0.204346
-0.001159 0.002212 0.001599 -0.2058623 0.9690362 0.1363437 255 255 255 255 0.482196 0.204346
0.001793 0.001306 0.001738 0.5966713 -0.795319 -0.1070097 255 255 255 255 0.482196 0.204346
0.001835 0.001367 0.001896 0.5782803 -0.143772 0.8030701 255 255 255 255 0.482196 0.204346
0.001543 0.001512 0.001307 0.4611861 -0.5574306 -0.6903467 255 255 255 255 0.482196 0.204346
0.001248 0.001759 0.000926 0.9200675 0.2869889 -0.2666704 255 255 255 255 0.482196 0.204346
0.001252 0.001668 0.001047 0.7753569 -0.4356101 0.4572369 255 255 255 255 0.482196 0.204346
0.000412 0.001432 0.000298 0.6705216 -0.6678987 0.3229738 255 255 255 255 0.482196 0.204346
0.000716 0.00181 0.000389 0.3080168 0.6969373 -0.6476142 255 255 255 255 0.482196 0.204346
0.00051 0.001544 0.000185 0.5365127 -0.05276563 -0.842241 255 255 255 255 0.482196 0.204346
0.000165 0.000979 6.8e-05 0.8542501 -0.4541597 -0.2529739 255 255 255 255 0.482196 0.204346
-8.7e-05 0.001344 0.000546 -0.7828246 -0.02798967 0.6216126 255 255 255 255 0.482196 0.204346
0.000362 0.001594 0.000243 -0.3792836 0.66597 -0.6423612 255 255 255 255 0.482196 0.204346
-0.000124 0.000357 4.5e-05 -0.1030223 -0.9194506 -0.3794695 255 255 255 255 0.482196 0.204346
0.000364 0.00184 0.001019 -0.7163528 0.6349927 0.2891767 255 255 255 255 0.482196 0.204346
0.001498 0.001721 0.00126 0.5924686 0.5999925 -0.537578 255 255 255 255 0.482196 0.204346
0.000912 0.001789 0.001543 -0.3174579 0.5299565 0.786363 255 255 255 255 0.482196 0.204346
0.000268 0.001758 0.000651 -0.8403545 0.5402063 0.04451493 255 255 255 255 0.482196 0.204346
0.000407 0.001678 0.0011 -0.6486628 -0.593839 0.4760167 255 255 255 255 0.482196 0.204346
0.000605 0.001661 0.000786 0.02990581 -0.984496 0.1728391 255 255 255 255 0.482196 0.204346
0.002647 0.001061 -0.001542 0.5492529 -0.8343951 -0.04589444 255 255 255 255 0.482196 0.204346
0.002288 0.001438 -0.000926 0.5320764 0.3507003 0.7706517 255 255 255 255 0.482196 0.204346
0.002121 0.001245 -0.001314 -0.2626114 -0.9531689 -0.1500145 255 255 255 255 0.482196 0.204346
0.002161 0.001338 -0.000935 0.01823967 -0.646621 0.7625933 255 255 255 255 0.482196 0.204346
0.001772 0.001448 -0.00156 -0.0469825 0.08218079 -0.9955094 255 255 255 255 0.482196 0.204346
0.0009860001 0.001448 -0.00066 0.01988585 -0.9948393 -0.09949596 255 255 255 255 0.482196 0.204346
0.000955 0.001564 -0.000143 0.08563908 0.6544181 0.7512676 255 255 255 255 0.482196 0.204346
0.001012 0.001645 -0.000477 -0.1190114 0.9824706 0.1434848 255 255 255 255 0.482196 0.204346
0.001062 0.001438 -0.0002 0.4629321 -0.6272078 0.6263421 255 255 255 255 0.482196 0.204346
0.000457 0.001156 3.3e-05 0.3042933 -0.113165 0.9458326 255 255 255 255 0.482196 0.204346
-0.001719 0.001569 -1.3e-05 -0.3858443 0.7557349 0.52914 255 255 255 255 0.482196 0.204346
-0.001335 0.001521 0.000229 0.04815252 0.7179583 0.6944187 255 255 255 255 0.482196 0.204346
-0.002297 0.001363 -0.000568 -0.3289836 0.7956418 -0.5086492 255 255 255 255 0.482196 0.204346
-0.001752 0.001611 -0.000345 -0.160887 0.9865063 -0.03034128 255 255 255 255 0.482196 0.204346
-0.002244 0.001445 -0.000205 -0.5134599 0.6365101 0.5755119 255 255 255 255 0.482196 0.204346
-0.001345 0.002102 0.000972 -0.4856372 0.673991 -0.5566801 255 255 255 255 0.482196 0.204346
-0.001569 0.001619 0.002844 0.7073953 0.1550374 0.6896052 255 255 255 255 0.482196 0.204346
-0.001182 0.001678 0.002414 0.3681069 -0.7795228 0.5067953 255 255 255 255 0.482196 0.204346
0.001237 0.00152 0.001694 -0.1051338 -0.465991 0.8785211 255 255 255 255 0.482196 0.204346
0.000966 0.001918 0.001107 0.2270034 0.9730109 0.04146427 255 255 255 255 0.482196 0.204346
8.5e-05 0.001073 1.1e-05 -0.2857535 0.1947016 -0.9383156 255 255 255 255 0.482196 0.204346
0.001445 0.001623 0.001598 0.1784902 0.6831875 0.7080933 255 255 255 255 0.482196 0.204346
0.001418 0.001429 0.001579 -0.5250936 -0.829521 0.1901887 255 255 255 255 0.482196 0.204346
0.001463 0.001629 -0.00056 0.4264448 0.8497418 0.3099738 255 255 255 255 0.482196 0.204346
0.001619 0.001443 -0.000484 0.8558609 -0.3467948 0.3837128 255 255 255 255 0.482196 0.204346
5e-06 0.000943 -0.000371 -0.9536993 0.1866203 -0.2358613 255 255 255 255 0.482196 0.204346
0.00016 0.000911 4.3e-05 -0.4557896 0.2427838 0.8563364 255 255 255 255 0.482196 0.204346
-0.000451 0.001759 -0.002041 0.6768753 0.2774826 -0.6817942 255 255 255 255 0.482196 0.204346
-0.000184 0.001371 -0.000791 0.1222994 -0.7438623 -0.6570478 255 255 255 255 0.482196 0.204346
-0.000163 0.001016 -0.000316 0.789647 0.1556578 0.5934882 255 255 255 255 0.482196 0.204346
-0.001264 0.001789 -0.002039 -0.7593058 0.649354 -0.04235801 255 255 255 255 0.482196 0.204346
3 69 134 68 
3 134 69 0 
3 3 67 80 
3 3 80 69 
3 0 69 80 
3 0 70 71 
3 1 71 70 
3 131 130 0 
3 133 130 131 
3 71 131 0 
3 74 71 75 
3 1 75 71 
3 1 2 72 
3 1 72 75 
3 72 73 77 
3 2 73 72 
3 131 74 2 
3 77 73 74 
3 2 74 73 
3 131 71 74 
3 76 78 75 
3 74 75 78 
3 72 76 75 
3 72 77 76 
3 74 78 77 
3 77 78 76 
3 133 79 67 
3 132 134 67 
3 133 67 134 
3 69 68 3 
3 79 131 2 
3 133 131 79 
3 80 67 79 
3 70 80 79 
3 0 80 70 
3 134 81 68 
3 132 81 134 
3 68 81 3 
3 3 81 132 
3 0 130 133 
3 79 2 70 
3 1 70 2 
3 0 133 134 
3 3 132 67 
3 82 4 84 
3 84 4 137 
3 99 96 83 
3 6 96 99 
3 17 83 96 
3 101 83 17 
3 16 84 137 
3 16 83 84 
3 7 84 83 
3 7 86 85 
3 8 85 86 
3 7 88 86 
3 101 135 88 
3 135 87 10 
3 101 87 135 
3 86 135 8 
3 88 135 86 
3 9 89 11 
3 85 89 9 
3 8 89 85 
3 90 11 12 
3 9 11 90 
3 94 92 12 
3 12 92 90 
3 13 92 94 
3 10 90 92 
3 10 92 91 
3 13 91 92 
3 91 135 10 
3 135 91 14 
3 8 135 89 
3 12 11 94 
3 11 93 94 
3 5 94 93 
3 13 94 5 
3 91 95 14 
3 5 95 13 
3 13 95 91 
3 11 14 93 
3 93 14 5 
3 5 14 95 
3 15 4 101 
3 96 101 17 
3 15 101 96 
3 16 99 83 
3 10 87 100 
3 101 97 87 
3 100 87 97 
3 100 97 82 
3 4 97 101 
3 82 97 4 
3 100 82 98 
3 84 98 82 
3 7 98 84 
3 7 85 98 
3 9 98 85 
3 15 96 136 
3 96 6 136 
3 6 99 136 
3 16 136 99 
3 16 15 136 
3 7 101 88 
3 9 90 10 
3 89 135 14 
3 11 89 14 
3 9 10 100 
3 9 100 98 
3 7 83 101 
3 15 16 4 
3 16 137 4 
3 104 103 102 
3 115 103 104 
3 141 103 115 
3 142 138 104 
3 19 104 118 
3 118 104 138 
3 105 106 109 
3 106 119 109 
3 109 119 107 
3 19 119 106 
3 20 107 119 
3 108 139 105 
3 117 108 112 
3 109 108 105 
3 20 111 110 
3 20 110 107 
3 117 112 111 
3 111 112 140 
3 108 109 112 
3 140 112 109 
3 110 109 107 
3 140 109 110 
3 111 18 110 
3 140 113 111 
3 111 113 18 
3 18 113 110 
3 110 113 140 
3 116 138 141 
3 139 114 116 
3 141 115 116 
3 139 116 115 
3 104 102 142 
3 142 102 103 
3 114 108 117 
3 139 108 114 
3 138 116 118 
3 118 116 114 
3 19 118 119 
3 20 119 118 
3 142 103 141 
3 19 106 139 
3 105 139 106 
3 20 117 111 
3 114 117 118 
3 20 118 117 
3 19 139 104 
3 115 104 139 
3 138 142 141 
3 121 120 36 
3 121 123 120 
3 42 36 41 
3 120 41 36 
3 122 123 40 
3 122 40 124 
3 22 125 129 
3 40 144 125 
3 129 125 128 
3 128 125 144 
3 21 143 144 
3 144 143 126 
3 127 143 21 
3 127 126 143 
3 128 144 126 
3 22 33 31 
3 33 30 31 
3 22 129 33 
3 32 145 146 
3 31 30 32 
3 32 30 145 
3 127 32 126 
3 31 32 127 
3 126 129 128 
3 126 32 129 
3 146 129 32 
3 30 33 34 
3 145 34 146 
3 30 34 145 
3 33 129 34 
3 146 34 129 
3 21 35 37 
3 42 124 35 
3 37 35 124 
3 36 35 121 
3 121 35 21 
3 42 35 36 
3 120 123 122 
3 21 37 127 
3 31 127 39 
3 39 127 37 
3 124 39 37 
3 38 39 124 
3 38 124 40 
3 22 38 125 
3 125 38 40 
3 122 41 120 
3 122 42 41 
3 40 21 144 
3 22 31 38 
3 39 38 31 
3 40 123 21 
3 121 21 123 
3 122 124 42 
3 48 150 47 
3 44 63 23 
3 23 43 44 
3 43 23 45 
3 28 43 45 
3 24 46 44 
3 64 48 47 
3 48 46 62 
3 64 46 48 
3 24 62 46 
3 24 65 49 
3 25 49 65 
3 147 25 65 
3 51 147 59 
3 51 50 147 
3 50 51 56 
3 66 56 51 
3 25 147 50 
3 25 50 56 
3 29 52 148 
3 49 148 26 
3 26 148 52 
3 25 148 49 
3 52 53 26 
3 55 53 52 
3 27 55 58 
3 53 55 66 
3 66 55 54 
3 27 54 55 
3 54 56 66 
3 56 54 149 
3 25 56 148 
3 29 148 56 
3 29 57 52 
3 58 52 57 
3 27 58 149 
3 55 52 58 
3 58 57 149 
3 27 149 54 
3 29 149 57 
3 60 59 150 
3 47 150 28 
3 28 150 59 
3 43 59 44 
3 28 59 43 
3 46 63 44 
3 64 63 46 
3 59 60 51 
3 66 51 60 
3 150 61 60 
3 48 62 150 
3 150 62 61 
3 24 49 62 
3 26 61 49 
3 49 61 62 
3 23 63 45 
3 64 45 63 
3 28 45 64 
3 147 65 59 
3 24 59 65 
3 26 53 66 
3 56 149 29 
3 26 66 61 
3 60 61 66 
3 24 44 59 
3 28 64 47 
