ply
format ascii 1.0
comment VCGLIB generated
comment TextureFile Textures/Combined_Texture/Texture_01_A.png
element vertex 20
property float x
property float y
property float z
property float nx
property float ny
property float nz
property uchar red
property uchar green
property uchar blue
property uchar alpha
property float texture_u
property float texture_v
element face 36
property list uchar int vertex_indices
end_header
0.001271 -0 0.001799 0.3618877 0.01515183 0.9320986 255 255 255 255 0.470560 0.227824
0.00051 0.002066 0.001107 0.592663 0.6065017 0.5300059 255 255 255 255 0.470560 0.227824
-0.001326 0.002068 -0.001388 -0.5820275 0.5812119 -0.5687149 255 255 255 255 0.470560 0.227824
0.000955 0.002066 -0.001349 0.347643 0.7991835 -0.4903571 255 255 255 255 0.470560 0.227824
-0.000953 0.002068 0.001349 -0.1888991 0.7010904 0.6875968 255 255 255 255 0.470560 0.227824
-0.001901 0.001115 1.3e-05 -0.9119496 0.3613981 0.1942658 255 255 255 255 0.470560 0.227824
-0.001271 0.002387 0 -0.546585 0.8314457 0.09971415 255 255 255 255 0.470560 0.227824
-0.001868 0 -0.002113 -0.4251339 -0.07531564 -0.9019915 255 255 255 255 0.470560 0.227824
0.001271 0 -0.001799 0.6883281 0.09187529 -0.7195578 255 255 255 255 0.470560 0.227824
0.001657 0.001111 -0.000205 0.8765277 0.4782356 -0.05467893 255 255 255 255 0.470560 0.227824
-0.001273 -0 0.001799 -0.7359396 0.01220665 0.6769371 255 255 255 255 0.470560 0.227824
0.002185 0 -0 0.9866272 0.05209385 0.154444 255 255 255 255 0.470560 0.227824
0.000868 0.002384 -8.6e-05 0.5374069 0.8428075 0.02948483 255 255 255 255 0.470560 0.227824
-0.002292 0 -0.000315 -0.9996808 -0.02279921 0.01088533 255 255 255 255 0.470560 0.227824
-0.001544 -0.001085 -0.001764 -0.5848709 -0.6624611 -0.4680506 255 255 255 255 0.470560 0.227824
0.001035 -0.001085 -0.001506 0.189511 -0.884429 -0.4264632 255 255 255 255 0.470560 0.227824
0.001035 -0.001085 0.00145 0.4385085 -0.7660046 0.4700503 255 255 255 255 0.470560 0.227824
-0.001055 -0.001085 0.00145 -0.2242578 -0.7630695 0.6061628 255 255 255 255 0.470560 0.227824
0.001786 -0.001085 -2.8e-05 0.7902334 -0.597737 -0.1350619 255 255 255 255 0.470560 0.227824
-0.001893 -0.001085 -0.000286 -0.6574036 -0.7378691 0.1528711 255 255 255 255 0.470560 0.227824
3 1 4 0 
3 10 0 4 
3 4 6 10 
3 10 6 5 
3 6 3 2 
3 5 6 2 
3 3 8 2 
3 7 2 8 
3 11 8 9 
3 9 1 11 
3 11 1 0 
3 9 12 1 
3 9 8 12 
3 12 8 3 
3 12 3 6 
3 1 12 4 
3 4 12 6 
3 13 10 5 
3 7 13 2 
3 2 13 5 
3 7 8 15 
3 7 15 14 
3 0 10 17 
3 0 17 16 
3 8 11 18 
3 8 18 15 
3 11 0 16 
3 11 16 18 
3 13 7 14 
3 13 14 19 
3 10 13 19 
3 10 19 17 
3 15 18 16 
3 15 16 17 
3 15 17 19 
3 15 19 14 
