ply
format ascii 1.0
comment VCGLIB generated
comment TextureFile T://3111_3D//2020//SAM//Textures//Combined_Texture//Texture_01_A.png
element vertex 236
property float x
property float y
property float z
property float nx
property float ny
property float nz
property uchar red
property uchar green
property uchar blue
property uchar alpha
property float texture_u
property float texture_v
element face 384
property list uchar int vertex_indices
end_header
-0.000343 -0 4.2e-05 -0.2876997 -0.3454383 0.8932532 255 255 255 255 0.496314 0.224364
0.000189 -0 4.2e-05 0.7186584 -0.6563514 0.2296369 255 255 255 255 0.496314 0.224364
4.2e-05 0.027775 -0.000185 0.5037749 0.707454 -0.4957013 255 255 255 255 0.496314 0.224364
-8.5e-05 0.027772 -5.9e-05 -0.6266519 0.5206192 -0.579882 255 255 255 255 0.496314 0.224364
0.000168 0.02777 -5.8e-05 0.6800166 0.3351831 0.6520963 255 255 255 255 0.496314 0.224364
4.1e-05 0.027772 6.8e-05 -0.519541 0.6671419 0.5338529 255 255 255 255 0.496314 0.224364
-0.000343 0 -0.00049 -0.7052134 -0.6721467 -0.2255948 255 255 255 255 0.496314 0.224364
0.000189 0 -0.00049 0.2722333 -0.4587443 -0.8458385 255 255 255 255 0.496314 0.224364
-0.000351 0.006099 -0.000841 -0.927467 -0.07396477 -0.3665162 255 255 255 255 0.496314 0.224364
-0.000199 0.006099 -0.000388 -0.3622966 -0.01109202 0.9319969 255 255 255 255 0.496314 0.224364
0.000253 0.006099 -0.00054 0.9261433 0.09064312 0.3661179 255 255 255 255 0.496314 0.224364
0.000101 0.006099 -0.000993 0.3643981 0.02612668 -0.9308767 255 255 255 255 0.496314 0.224364
-0.000579 0.013003 -0.000315 -0.1529904 0.1576308 -0.975575 255 255 255 255 0.496314 0.224364
-0.000186 0.012372 -0.000145 0.9860402 0.007026101 -0.1663594 255 255 255 255 0.496314 0.224364
-0.000356 0.012576 0.000249 0.1652706 -0.1296944 0.9776835 255 255 255 255 0.496314 0.224364
-0.00075 0.013279 7.8e-05 -0.9867398 0.01378724 0.1617237 255 255 255 255 0.496314 0.224364
0.000166 0.016792 0.000105 0.7249706 -0.1181959 -0.6785627 255 255 255 255 0.496314 0.224364
9.1e-05 0.016798 0.000479 0.6800885 -0.0771182 0.7290627 255 255 255 255 0.496314 0.224364
-0.000284 0.016888 0.000405 -0.7239345 0.1484894 0.6736986 255 255 255 255 0.496314 0.224364
-0.000209 0.016851 3e-05 -0.6711111 0.09949023 -0.7346507 255 255 255 255 0.496314 0.224364
0.000372 0.02215 -0.00056 0.06102497 -0.1492989 -0.9869072 255 255 255 255 0.496314 0.224364
0.000607 0.022002 -0.000319 0.9938449 0.09570682 0.05579103 255 255 255 255 0.496314 0.224364
0.000366 0.021988 -8.4e-05 -0.06042643 0.1616058 0.9850037 255 255 255 255 0.496314 0.224364
0.000131 0.02215 -0.000325 -0.9952578 -0.07927608 -0.05636828 255 255 255 255 0.496314 0.224364
-0.000248 0.025447 -0.000479 -0.6902065 0.06600259 -0.7205961 255 255 255 255 0.496314 0.224364
5.7e-05 0.025555 -0.000498 0.7135258 0.1834038 -0.6761983 255 255 255 255 0.496314 0.224364
7.6e-05 0.025586 -0.000192 0.6877739 -0.01011216 0.7258546 255 255 255 255 0.496314 0.224364
-0.000229 0.025487 -0.000173 -0.7196181 -0.1311724 0.6818678 255 255 255 255 0.496314 0.224364
0.001173 0 -0.000129 0.4356093 -0.3453216 -0.8312626 255 255 255 255 0.496314 0.224364
0.000649 0 -0.00022 -0.6691574 -0.6565523 -0.3480912 255 255 255 255 0.496314 0.224364
0.000281 0.028375 0.000255 -0.5819142 0.6989829 0.4156908 255 255 255 255 0.496314 0.224364
0.000427 0.028372 0.000152 0.4757462 0.5327444 0.6998921 255 255 255 255 0.496314 0.224364
0.000178 0.028376 0.000109 -0.5291323 0.3445228 -0.7754502 255 255 255 255 0.496314 0.224364
0.000324 0.028377 6e-06 0.6221421 0.6603071 -0.4206348 255 255 255 255 0.496314 0.224364
0.001083 -0 0.000395 0.6567734 -0.672193 0.3417681 255 255 255 255 0.496314 0.224364
0.000559 -0 0.000305 -0.4116502 -0.4586952 0.7874915 255 255 255 255 0.496314 0.224364
0.001032 0.006099 0.000742 0.8688343 -0.05825158 0.4916643 255 255 255 255 0.496314 0.224364
0.000959 0.006099 0.00027 0.4944066 -0.04607024 -0.868009 255 255 255 255 0.496314 0.224364
0.000487 0.006099 0.000343 -0.8664618 0.06930268 -0.4944099 255 255 255 255 0.496314 0.224364
0.00056 0.006099 0.000815 -0.4934607 0.05758002 0.8678601 255 255 255 255 0.496314 0.224364
0.001036 0.012475 -2.2e-05 0.05173581 0.2046967 0.9774573 255 255 255 255 0.496314 0.224364
0.000676 0.012353 -0.000257 -0.9902912 -0.1235197 0.06376703 255 255 255 255 0.496314 0.224364
0.000911 0.012149 -0.000616 -0.05212941 -0.1865784 -0.9810561 255 255 255 255 0.496314 0.224364
0.00127 0.012221 -0.000381 0.9883496 0.1356616 -0.0690003 255 255 255 255 0.496314 0.224364
-0.000585 0.017851 -0.000399 -0.8015467 -0.2038982 0.5620929 255 255 255 255 0.496314 0.224364
-0.000448 0.017661 -0.000755 -0.5678487 0.009650421 -0.8230764 255 255 255 255 0.496314 0.224364
-9.2e-05 0.017502 -0.000618 0.7945536 0.2194158 -0.5661637 255 255 255 255 0.496314 0.224364
-0.000229 0.017629 -0.000262 0.5646138 0.005762957 0.8253351 255 255 255 255 0.496314 0.224364
-0.000471 0.022632 0.000406 -0.2549731 -0.1729933 0.9513475 255 255 255 255 0.496314 0.224364
-0.000661 0.022809 0.000129 -0.9547447 0.1970448 -0.2227913 255 255 255 255 0.496314 0.224364
-0.000384 0.02283 -6.2e-05 0.2522075 0.1990816 -0.946973 255 255 255 255 0.496314 0.224364
-0.000193 0.022644 0.000216 0.9563748 -0.1805033 0.229708 255 255 255 255 0.496314 0.224364
0.000517 0.026235 0.000594 0.5445538 0.05040053 0.8372103 255 255 255 255 0.496314 0.224364
0.000213 0.026137 0.000561 -0.8058871 0.2480896 0.537585 255 255 255 255 0.496314 0.224364
0.000246 0.026153 0.000256 -0.5483562 0.01669619 -0.8360782 255 255 255 255 0.496314 0.224364
0.00055 0.026252 0.000289 0.816746 -0.1840868 -0.5468438 255 255 255 255 0.496314 0.224364
0.001998 0.016317 -0.000602 -0.8552201 0.3804411 -0.3519422 255 255 255 255 0.446358 0.281840
0.002674 0.017998 -0.000203 -0.8352163 0.3601411 0.4155867 255 255 255 255 0.446358 0.281840
0.00102 0.012098 -0.000149 0.3647931 -0.1614763 0.9169796 255 255 255 255 0.446358 0.281840
0.000749 0.012357 -0.000366 -0.9720715 0.2346229 -0.005388092 255 255 255 255 0.446358 0.281840
0.00102 0.011959 -0.000426 0.6653083 -0.346469 -0.661305 255 255 255 255 0.446358 0.281840
0.004122 0.019648 -0.000681 0.4636861 0.2601909 -0.8469332 255 255 255 255 0.446358 0.281840
0.002435 0.016045 -0.000602 0.9302632 -0.3628258 0.05447778 255 255 255 255 0.446358 0.281840
0.002846 0.017836 7e-06 0.6717842 -0.2263098 0.7053297 255 255 255 255 0.446358 0.281840
0.002217 0.016164 -0.001075 -0.06925148 -0.01735245 -0.9974483 255 255 255 255 0.446358 0.281840
-0.001939 0.028837 -0.000426 -0.03057053 0.9801655 0.1958091 255 255 255 255 0.446358 0.281840
-0.002579 0.028738 -0.001088 0.241583 0.8286458 -0.5049593 255 255 255 255 0.446358 0.281840
2.7e-05 0.027686 -0.000233 0.2557116 -0.4340666 -0.8638274 255 255 255 255 0.446358 0.281840
7e-06 0.028063 1e-05 0.4843809 0.8748573 0.0001467961 255 255 255 255 0.446358 0.281840
-7e-05 0.027672 2.7e-05 -0.2311114 -0.7486127 0.6214231 255 255 255 255 0.446358 0.281840
-0.004146 0.028171 -0.001179 -0.9166671 -0.1152671 0.3826682 255 255 255 255 0.446358 0.281840
-0.002008 0.028275 -0.000484 -0.1486232 -0.9888917 0.00212248 255 255 255 255 0.446358 0.281840
-0.002533 0.028553 -0.001307 0.05611502 -0.7660795 -0.6402916 255 255 255 255 0.446358 0.281840
-0.002138 0.028537 -1.3e-05 -0.2647739 -0.02651933 0.9639458 255 255 255 255 0.446358 0.281840
4.5e-05 0.028495 0.002096 0.03772371 0.9936714 0.1058026 255 255 255 255 0.446358 0.281840
-0.000371 0.028235 0.002889 -0.6931032 0.7201835 0.03071974 255 255 255 255 0.446358 0.281840
-0.000162 0.02765 -3.5e-05 -0.7783082 -0.6250366 -0.05971272 255 255 255 255 0.446358 0.281840
-1.7e-05 0.028072 -2e-06 -0.2807665 0.9087117 -0.3088904 255 255 255 255 0.446358 0.281840
0.00011 0.027687 -1.8e-05 0.8119039 -0.5738057 -0.1075139 255 255 255 255 0.446358 0.281840
0.000131 0.027608 0.004303 0.6625728 -0.1293072 0.7377512 255 255 255 255 0.446358 0.281840
0.000161 0.027942 0.002036 0.2099901 -0.9776965 0.003693232 255 255 255 255 0.446358 0.281840
-0.000532 0.028017 0.002853 -0.4548804 -0.8902782 0.0221041 255 255 255 255 0.446358 0.281840
0.000568 0.028284 0.002094 0.971886 0.2341901 -0.02434571 255 255 255 255 0.446358 0.281840
0.002229 0.029172 0.000736 0.1761278 0.9217973 -0.3453532 255 255 255 255 0.446358 0.281840
0.002689 0.02914 0.001511 -0.2667074 0.9179681 0.2936015 255 255 255 255 0.446358 0.281840
0.000281 0.02812 0.000295 -0.5297958 -0.1282456 0.8383732 255 255 255 255 0.446358 0.281840
0.000394 0.028434 -1.5e-05 -0.3845036 0.8804893 -0.2773003 255 255 255 255 0.446358 0.281840
0.000437 0.028035 7.9e-05 0.2974113 -0.8756618 -0.3804772 255 255 255 255 0.446358 0.281840
0.004146 0.028505 0.002088 0.9559548 -0.2667442 -0.1224658 255 255 255 255 0.446358 0.281840
0.002223 0.028632 0.000959 0.04537732 -0.9792705 0.197409 255 255 255 255 0.446358 0.281840
0.002568 0.029001 0.001763 -0.3017707 -0.5608876 0.7709342 255 255 255 255 0.446358 0.281840
0.002492 0.028791 0.000479 0.4693656 -0.2949122 -0.8322997 255 255 255 255 0.446358 0.281840
0.00102 0.029227 -0.001768 -0.1111049 0.9866356 -0.1191891 255 255 255 255 0.446358 0.281840
0.001783 0.029037 -0.002285 0.5241861 0.8028014 0.284146 255 255 255 255 0.446358 0.281840
0.000426 0.02823 0.000166 0.7702254 -0.4731809 0.427613 255 255 255 255 0.446358 0.281840
0.000214 0.028638 9.3e-05 -0.008815754 0.9016131 0.4324538 255 255 255 255 0.446358 0.281840
0.000186 0.028233 2.6e-05 -0.6412371 -0.7111623 -0.2882069 255 255 255 255 0.446358 0.281840
0.002118 0.028382 -0.003801 -0.2300788 -0.1322377 -0.9641457 255 255 255 255 0.446358 0.281840
0.001048 0.028656 -0.001807 -0.05409588 -0.9940514 -0.09452743 255 255 255 255 0.446358 0.281840
0.001976 0.028844 -0.002195 0.552012 -0.8083779 0.2044697 255 255 255 255 0.446358 0.281840
0.000626 0.028938 -0.002026 -0.9030739 0.02248529 -0.4288962 255 255 255 255 0.446358 0.281840
0.000689 0.030106 -0.000478 -0.1593779 0.8701527 0.4662971 255 255 255 255 0.446358 0.281840
0.001395 0.030168 -0.000845 0.5089008 0.4832329 0.7123946 255 255 255 255 0.446358 0.281840
0.000402 0.028139 0.000168 0.7890918 -0.611812 -0.05495643 255 255 255 255 0.446358 0.281840
0.000141 0.028447 0.000394 -0.124956 0.355074 0.9264494 255 255 255 255 0.446358 0.281840
0.000152 0.028202 6.6e-05 -0.6109632 -0.4168401 -0.6730292 255 255 255 255 0.446358 0.281840
0.001626 0.030123 -0.002226 -0.1031435 0.7112268 -0.6953545 255 255 255 255 0.446358 0.281840
0.000787 0.029717 -0.000979 0.005175564 -0.7367066 -0.6761928 255 255 255 255 0.446358 0.281840
0.001623 0.03001 -0.000964 0.6102572 -0.7345341 -0.2967251 255 255 255 255 0.446358 0.281840
0.000311 0.03 -0.000902 -0.9162776 0.2399657 -0.3207053 255 255 255 255 0.446358 0.281840
-4e-06 0.028729 -0.001954 0.07403495 0.9965107 -0.03853834 255 255 255 255 0.446358 0.281840
0.000401 0.028472 -0.002763 0.7773064 0.6284522 0.02902902 255 255 255 255 0.446358 0.281840
6.2e-05 0.02767 8.1e-05 0.6643773 -0.7473879 0.003752081 255 255 255 255 0.446358 0.281840
-3e-05 0.028112 9.6e-05 0.393618 0.8321002 0.3907354 255 255 255 255 0.446358 0.281840
-0.000202 0.027758 6.7e-05 -0.8790649 -0.473505 0.05511776 255 255 255 255 0.446358 0.281840
-0.000134 0.027952 -0.004241 -0.6438674 0.07263594 -0.7616816 255 255 255 255 0.446358 0.281840
-0.0002 0.028187 -0.001971 -0.3220773 -0.9437675 -0.07462569 255 255 255 255 0.446358 0.281840
0.000525 0.02824 -0.002759 0.342969 -0.9362151 -0.07663937 255 255 255 255 0.446358 0.281840
-0.000554 0.028573 -0.001986 -0.9315551 0.3623894 0.02964941 255 255 255 255 0.446358 0.281840
-0.000306 0.029671 -0.000837 0.2091061 0.8574545 0.4701558 255 255 255 255 0.446358 0.281840
-0.000115 0.029785 -0.001608 0.8536725 0.5062958 0.122098 255 255 255 255 0.446358 0.281840
5e-05 0.027642 -0.000172 0.516362 -0.5748087 -0.6347955 255 255 255 255 0.446358 0.281840
3e-05 0.027938 0.00017 0.5854071 0.3708125 0.7209693 255 255 255 255 0.446358 0.281840
-0.000196 0.0277 -5.7e-05 -0.8975492 -0.4404156 -0.02096574 255 255 255 255 0.446358 0.281840
-0.001003 0.029774 -0.002719 -0.6330251 0.6767311 -0.3759181 255 255 255 255 0.446358 0.281840
-0.000594 0.029277 -0.001244 -0.4734801 -0.7361625 -0.4836129 255 255 255 255 0.446358 0.281840
-4.1e-05 0.029627 -0.001855 0.2257756 -0.6990518 -0.6784924 255 255 255 255 0.446358 0.281840
-0.000871 0.029551 -0.000845 -0.8587824 0.2004219 0.4715124 255 255 255 255 0.446358 0.281840
-4.6e-05 0.030145 0.000743 0.2274952 0.9064043 -0.3559173 255 255 255 255 0.446358 0.281840
-0.000751 0.030208 0.001102 -0.435464 0.6056904 -0.6659656 255 255 255 255 0.446358 0.281840
0.000165 0.028264 -0.00012 -0.8378719 -0.5378609 -0.09314708 255 255 255 255 0.446358 0.281840
0.000462 0.028576 -0.000288 0.2010928 0.4542831 -0.8678644 255 255 255 255 0.446358 0.281840
0.000408 0.028288 9e-06 0.5248429 -0.5374501 0.6600662 255 255 255 255 0.446358 0.281840
-0.001055 0.030068 0.002542 0.1044684 0.6067255 0.7880169 255 255 255 255 0.446358 0.281840
-0.000214 0.02972 0.001181 -0.08682597 -0.8129346 0.575846 255 255 255 255 0.446358 0.281840
-0.001002 0.030054 0.001176 -0.6761286 -0.7156679 0.1751274 255 255 255 255 0.446358 0.281840
0.000285 0.029979 0.001181 0.9100448 0.1078717 0.4002275 255 255 255 255 0.446358 0.281840
0.000537 0.015447 0.001063 0.4768194 0.4748614 -0.7396958 255 255 255 255 0.446358 0.281840
-9.4e-05 0.017019 0.001704 -0.20317 0.4110518 -0.8886835 255 255 255 255 0.446358 0.281840
0.000788 0.011208 -0.000409 -0.9101086 -0.3056714 0.2797632 255 255 255 255 0.446358 0.281840
0.000976 0.011573 -0.000546 0.1975728 0.3401864 -0.9193683 255 255 255 255 0.446358 0.281840
0.001051 0.011235 -0.000339 0.5418348 -0.3506397 0.76385 255 255 255 255 0.446358 0.281840
-5.8e-05 0.01861 0.003305 0.6908326 0.2703611 0.6705633 255 255 255 255 0.446358 0.281840
0.000575 0.015112 0.001363 -0.2258954 -0.448094 0.8649758 255 255 255 255 0.446358 0.281840
-0.000279 0.016799 0.001769 -0.7519639 -0.3622775 0.5507316 255 255 255 255 0.446358 0.281840
0.001005 0.015336 0.001332 0.9898943 0.1414146 -0.01054364 255 255 255 255 0.446358 0.281840
-0.0011 0.020145 0.000323 0.829615 0.5213061 0.1999474 255 255 255 255 0.446358 0.281840
-0.001847 0.0213 -6.6e-05 0.6945362 0.4165417 -0.5866111 255 255 255 255 0.446358 0.281840
1e-05 0.016512 2.1e-05 -0.4954411 -0.2929508 -0.8177518 255 255 255 255 0.446358 0.281840
0.000271 0.016851 0.000175 0.9339535 0.3139044 -0.1708652 255 255 255 255 0.446358 0.281840
3.3e-05 0.016547 0.000294 -0.5010936 -0.3651362 0.7845896 255 255 255 255 0.446358 0.281840
-0.003292 0.022405 0.000478 -0.4267913 0.3525372 0.8328066 255 255 255 255 0.446358 0.281840
-0.001488 0.0198 0.000424 -0.8713942 -0.4782763 0.1091966 255 255 255 255 0.446358 0.281840
-0.002017 0.021113 -0.000234 -0.7294501 -0.363808 -0.5792636 255 255 255 255 0.446358 0.281840
-0.001255 0.02001 0.000841 0.2292302 0.08235414 0.9698821 255 255 255 255 0.446358 0.281840
0.000897 0.021134 0.00111 0.0504713 0.5576376 -0.8285487 255 255 255 255 0.446358 0.281840
0.000859 0.022203 0.001933 -0.6443582 0.5644577 -0.5159361 255 255 255 255 0.446358 0.281840
-0.000142 0.018219 0.000218 -0.7449054 -0.1838677 0.6413335 255 255 255 255 0.446358 0.281840
-1.6e-05 0.018491 -8.9e-05 -0.3155832 0.3874401 -0.8661972 255 255 255 255 0.446358 0.281840
0.000111 0.018007 0.000105 0.8020104 -0.5389439 0.2575243 255 255 255 255 0.446358 0.281840
0.001931 0.023059 0.003104 0.9517542 0.1961116 0.2360173 255 255 255 255 0.446358 0.281840
0.001009 0.020756 0.001459 0.2404629 -0.5492597 0.8003071 255 255 255 255 0.446358 0.281840
0.000712 0.022042 0.002155 -0.4269793 -0.3211626 0.8453067 255 255 255 255 0.446358 0.281840
0.001383 0.020906 0.001092 0.8888231 -0.07220973 -0.4525255 255 255 255 255 0.446358 0.281840
-0.000993 0.025083 0.000883 0.7402137 0.6515349 -0.1660906 255 255 255 255 0.446358 0.281840
-0.001768 0.025753 0.00093 0.2414245 0.5727876 -0.7833445 255 255 255 255 0.446358 0.281840
-0.000478 0.022639 0 -0.7813433 -0.277432 -0.5590475 255 255 255 255 0.446358 0.281840
-0.000127 0.022802 1.7e-05 0.7457272 0.3735037 -0.5517119 255 255 255 255 0.446358 0.281840
-0.00032 0.022485 0.000228 -0.05463718 -0.5346704 0.8432925 255 255 255 255 0.446358 0.281840
-0.002677 0.026239 0.002135 -0.05425967 0.4000128 0.914902 255 255 255 255 0.446358 0.281840
-0.001359 0.024707 0.001145 -0.6577131 -0.6138132 0.4366315 255 255 255 255 0.446358 0.281840
-0.002032 0.025603 0.00086 -0.8852318 -0.3962218 -0.2436658 255 255 255 255 0.446358 0.281840
-0.000906 0.024894 0.001402 0.6366105 -0.01680422 0.7710025 255 255 255 255 0.446358 0.281840
0.000877 0.024747 8.1e-05 -0.5958414 0.7145628 -0.3665693 255 255 255 255 0.446358 0.281840
0.001557 0.025382 0.00056 -0.6293495 0.5958888 0.4988345 255 255 255 255 0.446358 0.281840
-0.000368 0.02218 0.000383 0.1832378 -0.3012186 0.9357839 255 255 255 255 0.446358 0.281840
-0.000578 0.02267 0.000144 -0.8851047 0.462795 0.04909812 255 255 255 255 0.446358 0.281840
-0.000338 0.022292 0.000108 0.4607689 -0.5201928 -0.7190908 255 255 255 255 0.446358 0.281840
0.003099 0.025792 0.000253 0.6964366 0.3021601 -0.6509035 255 255 255 255 0.446358 0.281840
0.001249 0.024327 0.000116 0.7336132 -0.678758 0.0331559 255 255 255 255 0.446358 0.281840
0.00168 0.025215 0.000783 0.5024837 -0.4558716 0.7346368 255 255 255 255 0.446358 0.281840
0.001114 0.024535 -0.000371 0.0223484 -0.007666552 -0.9997209 255 255 255 255 0.446358 0.281840
-0.00148 0.026966 -0.001412 0.2051746 0.9547203 0.2154359 255 255 255 255 0.446358 0.281840
-0.00187 0.027084 -0.002246 0.643419 0.6558676 -0.3947782 255 255 255 255 0.446358 0.281840
-7e-05 0.025327 -0.00043 0.3021292 -0.632511 -0.7131955 255 255 255 255 0.446358 0.281840
-3.8e-05 0.025722 -0.000266 0.6670439 0.7181136 0.1984068 255 255 255 255 0.446358 0.281840
-0.000232 0.025345 -0.000217 -0.6199845 -0.5113506 0.5950964 255 255 255 255 0.446358 0.281840
-0.003391 0.027011 -0.002785 -0.9567294 0.2784778 0.08437394 255 255 255 255 0.446358 0.281840
-0.001729 0.026463 -0.001391 -0.4411165 -0.894354 -0.07447854 255 255 255 255 0.446358 0.281840
-0.001846 0.026861 -0.002399 0.007299127 -0.8085098 -0.5884374 255 255 255 255 0.446358 0.281840
-0.001881 0.026814 -0.001039 -0.4815956 0.295487 0.8250776 255 255 255 255 0.446358 0.281840
-0.001748 0.015081 -0.001332 -0.3012466 0.4455613 0.8430454 255 255 255 255 0.446358 0.281840
-0.001755 0.016775 -0.002201 0.3175521 0.5893624 0.742841 255 255 255 255 0.446358 0.281840
-0.00036 0.012541 -0.000159 0.8703181 -0.07998586 -0.4859514 255 255 255 255 0.446358 0.281840
-0.000582 0.012976 9.7e-05 0.1789443 0.524205 0.8325792 255 255 255 255 0.446358 0.281840
-0.000607 0.013004 -5.5e-05 -0.6955648 -0.6745683 -0.2472796 255 255 255 255 0.446358 0.281840
-0.002774 0.018192 -0.003443 -0.8909369 -0.05891992 -0.4502888 255 255 255 255 0.446358 0.281840
-0.001689 0.014741 -0.001604 -0.1038874 -0.556127 -0.8245788 255 255 255 255 0.446358 0.281840
-0.001544 0.016621 -0.002387 0.5753781 -0.213097 -0.7896389 255 255 255 255 0.446358 0.281840
-0.00214 0.014791 -0.00129 -0.9397551 -0.3076837 0.1489671 255 255 255 255 0.446358 0.281840
0.000246 0.022112 -0.002018 -0.3674001 0.8020723 0.4708473 255 255 255 255 0.446358 0.281840
0.000876 0.022774 -0.002691 0.4228673 0.6223832 0.6586519 255 255 255 255 0.446358 0.281840
-0.000187 0.019945 -0.000325 0.8264803 -0.5588199 -0.0681954 255 255 255 255 0.446358 0.281840
-0.000314 0.020451 -0.00024 0.02272351 0.644983 0.763859 255 255 255 255 0.446358 0.281840
-0.000442 0.020249 -0.000397 -0.7876605 -0.4354085 -0.4359017 255 255 255 255 0.446358 0.281840
0.00081 0.023351 -0.004303 -0.544117 0.2820872 -0.7901667 255 255 255 255 0.446358 0.281840
0.000114 0.021672 -0.002233 0.01851162 -0.7634898 -0.6455545 255 255 255 255 0.446358 0.281840
0.001017 0.022541 -0.002721 0.688068 -0.6273463 -0.3646905 255 255 255 255 0.446358 0.281840
-0.000256 0.021996 -0.002249 -0.9389718 0.3437448 -0.01309958 255 255 255 255 0.446358 0.281840
-0.001146 0.022663 -0.001041 -0.0464925 0.5591532 0.8277597 255 255 255 255 0.446358 0.281840
-0.001091 0.023632 -0.0018 0.7157379 0.5423842 0.4399302 255 255 255 255 0.446358 0.281840
-0.000266 0.020071 -0.000448 0.7211655 -0.2252179 -0.6551314 255 255 255 255 0.446358 0.281840
-0.000351 0.020471 -9.6e-05 0.4954289 0.3798249 0.7812063 255 255 255 255 0.446358 0.281840
-0.000516 0.020349 -0.000328 -0.8493177 -0.51864 -0.09834657 255 255 255 255 0.446358 0.281840
-0.002161 0.024433 -0.002874 -0.9348363 0.3225332 -0.1485039 255 255 255 255 0.446358 0.281840
-0.001323 0.022321 -0.001458 -0.3458586 -0.5665184 -0.7479565 255 255 255 255 0.446358 0.281840
-0.000971 0.023488 -0.002055 0.4151926 -0.2977273 -0.8596357 255 255 255 255 0.446358 0.281840
-0.00166 0.022467 -0.001045 -0.8756031 -0.07224738 0.4775977 255 255 255 255 0.446358 0.281840
0.00083 0.026216 0.00165 0.2328672 0.8231141 -0.5179344 255 255 255 255 0.446358 0.281840
0.000665 0.02663 0.002495 -0.5787611 0.7677929 -0.2748266 255 255 255 255 0.446358 0.281840
-0.000112 0.024325 0.000396 -0.8618854 -0.2889546 0.416724 255 255 255 255 0.446358 0.281840
8e-05 0.024762 0.000152 -0.3058867 0.6545516 -0.6913723 255 255 255 255 0.446358 0.281840
0.000155 0.024442 0.000327 0.7287618 -0.6823133 0.05792122 255 255 255 255 0.446358 0.281840
0.001522 0.026686 0.003858 0.8550265 0.1359404 0.5004496 255 255 255 255 0.446358 0.281840
0.000853 0.02574 0.001947 0.1298854 -0.8399786 0.5268452 255 255 255 255 0.446358 0.281840
0.000472 0.026466 0.002664 -0.5896405 -0.5101143 0.6261849 255 255 255 255 0.446358 0.281840
0.001297 0.025939 0.001681 0.9411858 -0.1049881 -0.3211648 255 255 255 255 0.446358 0.281840
-0.001119 0.012237 -0.000216 0.8722567 0.2988641 0.3871028 255 255 255 255 0.446358 0.281840
-0.001762 0.014413 -0.000636 0.8824502 0.2852613 -0.3740425 255 255 255 255 0.446358 0.281840
-0.000196 0.007052 -0.000649 -0.3533875 -0.1315159 -0.9261862 255 255 255 255 0.446358 0.281840
7.7e-05 0.007333 -0.00042 0.9829068 0.1833784 0.01633179 255 255 255 255 0.446358 0.281840
-0.000206 0.00705 -0.000372 -0.7236138 -0.2788703 0.6313592 255 255 255 255 0.446358 0.281840
-0.003207 0.016643 -0.000208 -0.4467012 0.2316957 0.8641615 255 255 255 255 0.446358 0.281840
-0.001573 0.012031 -0.000236 -0.9547813 -0.2870486 -0.07743238 255 255 255 255 0.446358 0.281840
-0.001933 0.014251 -0.000853 -0.6633981 -0.1748137 -0.7275597 255 255 255 255 0.446358 0.281840
-0.001364 0.012109 0.000246 0.02014908 -0.02011207 0.9995947 255 255 255 255 0.446358 0.281840
3 9 10 13 
3 9 13 14 
3 2 3 5 
3 2 5 4 
3 15 12 11 
3 15 11 8 
3 6 7 1 
3 6 1 0 
3 10 11 12 
3 10 12 13 
3 8 9 14 
3 8 14 15 
3 6 0 9 
3 6 9 8 
3 0 1 10 
3 0 10 9 
3 1 7 11 
3 1 11 10 
3 8 11 7 
3 8 7 6 
3 13 12 19 
3 13 19 16 
3 14 13 16 
3 14 16 17 
3 15 14 17 
3 15 17 18 
3 18 19 12 
3 18 12 15 
3 17 16 20 
3 17 20 21 
3 18 17 21 
3 18 21 22 
3 22 23 19 
3 22 19 18 
3 16 19 23 
3 16 23 20 
3 21 20 24 
3 21 24 25 
3 22 21 25 
3 22 25 26 
3 26 27 23 
3 26 23 22 
3 20 23 27 
3 20 27 24 
3 25 24 3 
3 25 3 2 
3 26 25 2 
3 26 2 4 
3 4 5 27 
3 4 27 26 
3 24 27 5 
3 24 5 3 
3 37 38 41 
3 37 41 42 
3 30 31 33 
3 30 33 32 
3 43 40 39 
3 43 39 36 
3 34 35 29 
3 34 29 28 
3 38 39 40 
3 38 40 41 
3 36 37 42 
3 36 42 43 
3 34 28 37 
3 34 37 36 
3 28 29 38 
3 28 38 37 
3 29 35 39 
3 29 39 38 
3 36 39 35 
3 36 35 34 
3 41 40 47 
3 41 47 44 
3 42 41 44 
3 42 44 45 
3 43 42 45 
3 43 45 46 
3 46 47 40 
3 46 40 43 
3 45 44 48 
3 45 48 49 
3 46 45 49 
3 46 49 50 
3 50 51 47 
3 50 47 46 
3 44 47 51 
3 44 51 48 
3 49 48 52 
3 49 52 53 
3 50 49 53 
3 50 53 54 
3 54 55 51 
3 54 51 50 
3 48 51 55 
3 48 55 52 
3 53 52 31 
3 53 31 30 
3 54 53 30 
3 54 30 32 
3 32 33 55 
3 32 55 54 
3 52 55 33 
3 52 33 31 
3 58 63 57 
3 58 62 63 
3 60 64 62 
3 58 60 62 
3 59 57 56 
3 59 58 57 
3 59 60 58 
3 56 64 59 
3 64 60 59 
3 63 62 61 
3 56 57 61 
3 64 61 62 
3 57 63 61 
3 64 56 61 
3 67 72 66 
3 67 71 72 
3 69 73 71 
3 67 69 71 
3 68 66 65 
3 68 67 66 
3 68 69 67 
3 65 73 68 
3 73 69 68 
3 72 71 70 
3 65 66 70 
3 73 70 71 
3 66 72 70 
3 73 65 70 
3 76 81 75 
3 76 80 81 
3 78 82 80 
3 76 78 80 
3 77 75 74 
3 77 76 75 
3 77 78 76 
3 74 82 77 
3 82 78 77 
3 81 80 79 
3 74 75 79 
3 82 79 80 
3 75 81 79 
3 82 74 79 
3 85 90 84 
3 85 89 90 
3 87 91 89 
3 85 87 89 
3 86 84 83 
3 86 85 84 
3 86 87 85 
3 83 91 86 
3 91 87 86 
3 90 89 88 
3 83 84 88 
3 91 88 89 
3 84 90 88 
3 91 83 88 
3 94 99 93 
3 94 98 99 
3 96 100 98 
3 94 96 98 
3 95 93 92 
3 95 94 93 
3 95 96 94 
3 92 100 95 
3 100 96 95 
3 99 98 97 
3 92 93 97 
3 100 97 98 
3 93 99 97 
3 100 92 97 
3 103 108 102 
3 103 107 108 
3 105 109 107 
3 103 105 107 
3 104 102 101 
3 104 103 102 
3 104 105 103 
3 101 109 104 
3 109 105 104 
3 108 107 106 
3 101 102 106 
3 109 106 107 
3 102 108 106 
3 109 101 106 
3 112 117 111 
3 112 116 117 
3 114 118 116 
3 112 114 116 
3 113 111 110 
3 113 112 111 
3 113 114 112 
3 110 118 113 
3 118 114 113 
3 117 116 115 
3 110 111 115 
3 118 115 116 
3 111 117 115 
3 118 110 115 
3 121 126 120 
3 121 125 126 
3 123 127 125 
3 121 123 125 
3 122 120 119 
3 122 121 120 
3 122 123 121 
3 119 127 122 
3 127 123 122 
3 126 125 124 
3 119 120 124 
3 127 124 125 
3 120 126 124 
3 127 119 124 
3 130 135 129 
3 130 134 135 
3 132 136 134 
3 130 132 134 
3 131 129 128 
3 131 130 129 
3 131 132 130 
3 128 136 131 
3 136 132 131 
3 135 134 133 
3 128 129 133 
3 136 133 134 
3 129 135 133 
3 136 128 133 
3 139 144 138 
3 139 143 144 
3 141 145 143 
3 139 141 143 
3 140 138 137 
3 140 139 138 
3 140 141 139 
3 137 145 140 
3 145 141 140 
3 144 143 142 
3 137 138 142 
3 145 142 143 
3 138 144 142 
3 145 137 142 
3 148 153 147 
3 148 152 153 
3 150 154 152 
3 148 150 152 
3 149 147 146 
3 149 148 147 
3 149 150 148 
3 146 154 149 
3 154 150 149 
3 153 152 151 
3 146 147 151 
3 154 151 152 
3 147 153 151 
3 154 146 151 
3 157 162 156 
3 157 161 162 
3 159 163 161 
3 157 159 161 
3 158 156 155 
3 158 157 156 
3 158 159 157 
3 155 163 158 
3 163 159 158 
3 162 161 160 
3 155 156 160 
3 163 160 161 
3 156 162 160 
3 163 155 160 
3 166 171 165 
3 166 170 171 
3 168 172 170 
3 166 168 170 
3 167 165 164 
3 167 166 165 
3 167 168 166 
3 164 172 167 
3 172 168 167 
3 171 170 169 
3 164 165 169 
3 172 169 170 
3 165 171 169 
3 172 164 169 
3 175 180 174 
3 175 179 180 
3 177 181 179 
3 175 177 179 
3 176 174 173 
3 176 175 174 
3 176 177 175 
3 173 181 176 
3 181 177 176 
3 180 179 178 
3 173 174 178 
3 181 178 179 
3 174 180 178 
3 181 173 178 
3 184 189 183 
3 184 188 189 
3 186 190 188 
3 184 186 188 
3 185 183 182 
3 185 184 183 
3 185 186 184 
3 182 190 185 
3 190 186 185 
3 189 188 187 
3 182 183 187 
3 190 187 188 
3 183 189 187 
3 190 182 187 
3 193 198 192 
3 193 197 198 
3 195 199 197 
3 193 195 197 
3 194 192 191 
3 194 193 192 
3 194 195 193 
3 191 199 194 
3 199 195 194 
3 198 197 196 
3 191 192 196 
3 199 196 197 
3 192 198 196 
3 199 191 196 
3 202 207 201 
3 202 206 207 
3 204 208 206 
3 202 204 206 
3 203 201 200 
3 203 202 201 
3 203 204 202 
3 200 208 203 
3 208 204 203 
3 207 206 205 
3 200 201 205 
3 208 205 206 
3 201 207 205 
3 208 200 205 
3 211 216 210 
3 211 215 216 
3 213 217 215 
3 211 213 215 
3 212 210 209 
3 212 211 210 
3 212 213 211 
3 209 217 212 
3 217 213 212 
3 216 215 214 
3 209 210 214 
3 217 214 215 
3 210 216 214 
3 217 209 214 
3 220 225 219 
3 220 224 225 
3 222 226 224 
3 220 222 224 
3 221 219 218 
3 221 220 219 
3 221 222 220 
3 218 226 221 
3 226 222 221 
3 225 224 223 
3 218 219 223 
3 226 223 224 
3 219 225 223 
3 226 218 223 
3 229 234 228 
3 229 233 234 
3 231 235 233 
3 229 231 233 
3 230 228 227 
3 230 229 228 
3 230 231 229 
3 227 235 230 
3 235 231 230 
3 234 233 232 
3 227 228 232 
3 235 232 233 
3 228 234 232 
3 235 227 232 
