ply
format ascii 1.0
comment VCGLIB generated
comment TextureFile Textures//Combined_Texture//Texture_01_A.png
element vertex 238
property float x
property float y
property float z
property float nx
property float ny
property float nz
property uchar red
property uchar green
property uchar blue
property uchar alpha
property float texture_u
property float texture_v
element face 448
property list uchar int vertex_indices
end_header
0.003915 -0.00146 -0.004214 0.4797302 0.004151893 -0.8774063 255 255 255 255 0.012087 0.138280
0.002266 -0.001749 -0.005307 0.6376576 -0.09500066 -0.7644395 255 255 255 255 0.012087 0.138280
-0.001256 -0.001975 -0.004492 0.005407744 -0.7953948 -0.6060675 255 255 255 255 0.012087 0.138280
-0.003798 -0.001525 -0.004983 -0.6918511 -0.3584794 -0.6267651 255 255 255 255 0.012087 0.138280
-0.004789 -0.002179 -0.002398 -0.5335661 -0.4868717 -0.6915658 255 255 255 255 0.012087 0.138280
-0.005251 -0.002179 -0.000673 -0.4377107 -0.8949248 -0.08671252 255 255 255 255 0.012087 0.138280
-0.006643 -0.001706 0.003701 -0.8182831 0.009835109 0.5747314 255 255 255 255 0.012087 0.138280
-0.005753 -0.001706 0.005826 -0.828307 -0.2458049 0.5034755 255 255 255 255 0.012087 0.138280
-0.00249 -0.003093 0.005501 0.1667842 -0.6522825 0.7393988 255 255 255 255 0.012087 0.138280
0.002203 -0.002084 0.005341 0.6485149 0.04275371 0.7600004 255 255 255 255 0.012087 0.138280
0.00413 -0.001755 0.003942 0.5802904 -0.6429381 0.4998935 255 255 255 255 0.012087 0.138280
0.003451 -0.002586 -0.000452 0.4367619 -0.8967416 -0.07137028 255 255 255 255 0.012087 0.138280
0.003069 0.005827 -0.002183 0.6499347 0.3103149 -0.6937504 255 255 255 255 0.012087 0.138280
0.001299 0.005124 -0.003541 0.6731806 0.2531702 -0.6947898 255 255 255 255 0.012087 0.138280
-0.000769 0.006258 -0.004759 0.07214243 0.3747665 -0.9243082 255 255 255 255 0.012087 0.138280
-0.003143 0.005124 -0.003847 -0.7256199 0.2653902 -0.6348574 255 255 255 255 0.012087 0.138280
-0.004807 0.005124 -0.002183 -0.6747916 0.2147631 -0.7060688 255 255 255 255 0.012087 0.138280
-0.005416 0.00671 9e-05 -0.8780388 0.4632354 -0.1202532 255 255 255 255 0.012087 0.138280
-0.004807 0.005875 0.002363 -0.7731324 0.2892906 0.5644265 255 255 255 255 0.012087 0.138280
-0.003662 0.005875 0.003914 -0.7911397 0.3356064 0.5113378 255 255 255 255 0.012087 0.138280
-0.000869 0.007937 0.004637 -0.08858626 0.4561494 0.885483 255 255 255 255 0.012087 0.138280
0.001404 0.005901 0.004028 0.5814064 0.2336035 0.7793562 255 255 255 255 0.012087 0.138280
0.003069 0.006604 0.002363 0.6240884 0.3207053 0.7125039 255 255 255 255 0.012087 0.138280
0.003678 0.007355 9e-05 0.923739 0.3827752 -0.01376333 255 255 255 255 0.012087 0.138280
-0.000869 -0.002435 9e-05 -0.01540633 -0.9982068 -0.05784333 255 255 255 255 0.012087 0.138280
0.002671 0.009127 -0.001957 0.8195621 0.08931366 -0.5659869 255 255 255 255 0.012087 0.138280
0.001072 0.009127 -0.003153 0.5674701 0.07152309 -0.8202818 255 255 255 255 0.012087 0.138280
-0.000717 0.008074 -0.00445 0.09187553 0.08934509 -0.9917542 255 255 255 255 0.012087 0.138280
-0.002859 0.008074 -0.003606 -0.6280325 0.09611746 -0.7722284 255 255 255 255 0.012087 0.138280
-0.004041 0.009127 -0.001664 -0.8396171 0.1120618 -0.5314935 255 255 255 255 0.012087 0.138280
-0.004957 0.009127 8.7e-05 -0.9818802 0.1025901 -0.1593316 255 255 255 255 0.012087 0.138280
-0.004672 0.010597 0.00165 -0.8923979 0.06835337 0.4460423 255 255 255 255 0.012087 0.138280
-0.002731 0.010597 0.003637 -0.5170276 0.09090461 0.851128 255 255 255 255 0.012087 0.138280
-0.000869 0.009127 0.004175 -0.06402983 0.09208997 0.9936899 255 255 255 255 0.012087 0.138280
0.000874 0.009127 0.00403 0.481892 0.07977059 0.872592 255 255 255 255 0.012087 0.138280
0.00245 0.010401 0.002197 0.8645195 0.07973216 0.4962347 255 255 255 255 0.012087 0.138280
0.002998 0.010401 0.000153 0.9950892 0.09562196 0.02557193 255 255 255 255 0.012087 0.138280
-0.00561 0.00078 0.007604 -0.6902996 -0.6036349 -0.3988877 255 255 255 255 0.012087 0.138280
-0.002191 -0.000566 0.009245 -0.07565766 -0.9968876 0.02215705 255 255 255 255 0.012087 0.138280
-0.00289 0.004412 0.0078 -0.0004411962 0.6790147 0.7341245 255 255 255 255 0.012087 0.138280
-0.004728 0.003269 0.007425 -0.7586363 0.6296754 0.1672719 255 255 255 255 0.012087 0.138280
-0.000464 0.00078 0.007396 0.8637766 -0.3335886 0.3776357 255 255 255 255 0.012087 0.138280
-0.000893 0.003269 0.007217 0.7357984 0.4099498 0.5390194 255 255 255 255 0.012087 0.138280
-0.00275 -0.001446 0.010771 -0.8196831 -0.5448207 0.1768901 255 255 255 255 0.012087 0.138280
-0.000765 -0.002803 0.011252 -0.03620002 -0.8308741 -0.5552817 255 255 255 255 0.012087 0.138280
-0.000713 0.000321 0.012762 0.04875854 0.6987094 0.7137421 255 255 255 255 0.012087 0.138280
-0.002178 -0.00016 0.011557 -0.7258303 0.198697 0.6585515 255 255 255 255 0.012087 0.138280
0.000386 -0.001558 0.010834 0.8091754 -0.2810186 -0.5160075 255 255 255 255 0.012087 0.138280
0.000161 -0.000225 0.011577 0.9056522 0.4163445 0.08032063 255 255 255 255 0.012087 0.138280
-0.000239 -0.006042 0.015798 -0.800697 -0.3405739 0.4928425 255 255 255 255 0.012087 0.138280
0.000636 -0.006639 0.01601 0.1614052 -0.9819189 0.09891209 255 255 255 255 0.012087 0.138280
0.000649 -0.005453 0.016759 0.1453292 0.04376643 0.9884149 255 255 255 255 0.012087 0.138280
1.3e-05 -0.005475 0.016144 -0.7224629 0.08523492 0.6861359 255 255 255 255 0.012087 0.138280
0.001143 -0.006091 0.015825 0.8556371 -0.4689417 -0.2190406 255 255 255 255 0.012087 0.138280
0.001044 -0.005503 0.016153 0.932458 0.02938145 0.3600817 255 255 255 255 0.012087 0.138280
0.004783 -0.001039 0.001956 0.5206901 -0.8489063 0.09077406 255 255 255 255 0.012087 0.138280
0.005448 -0.001675 -0.000413 0.1127707 -0.9923339 0.05056015 255 255 255 255 0.012087 0.138280
0.006878 0.002661 -0.000622 0.7238666 0.6887587 -0.04035554 255 255 255 255 0.012087 0.138280
0.006363 0.002229 0.001217 0.8488464 0.3711854 0.3764057 255 255 255 255 0.012087 0.138280
0.005107 -0.001474 -0.002924 0.1143376 -0.5682523 -0.8148719 255 255 255 255 0.012087 0.138280
0.006614 0.001891 -0.002571 0.398214 0.5001228 -0.7689621 255 255 255 255 0.012087 0.138280
0.01006 -0.00224 0.00013 -0.1787765 -0.5573857 0.8107775 255 255 255 255 0.012087 0.138280
0.010445 -0.002609 -0.001241 -0.3960432 -0.9140099 0.08795328 255 255 255 255 0.012087 0.138280
0.011273 0.000291 -0.001362 0.7280778 0.6845688 -0.03561322 255 255 255 255 0.012087 0.138280
0.010974 -0.000349 -0.000298 0.4882693 0.4003436 0.7754471 255 255 255 255 0.012087 0.138280
0.010248 -0.002492 -0.002694 -0.03209537 -0.6609064 -0.7497817 255 255 255 255 0.012087 0.138280
0.01112 -0.000545 -0.00249 0.5357295 0.3040446 -0.7877505 255 255 255 255 0.012087 0.138280
-0.006841 -0.000782 -0.002297 0.06056995 -0.7108768 -0.7007035 255 255 255 255 0.012087 0.138280
-0.006977 -0.001795 -0.000936 -0.1926142 -0.9756489 -0.1049234 255 255 255 255 0.012087 0.138280
-0.009921 0.003026 -0.000649 -0.6116295 0.7891442 0.05622032 255 255 255 255 0.012087 0.138280
-0.009818 0.00223 -0.001717 -0.1527473 0.6807592 -0.7164044 255 255 255 255 0.012087 0.138280
-0.007345 -0.001 0.00147 -0.4106893 -0.5059942 0.7584881 255 255 255 255 0.012087 0.138280
-0.009403 0.001697 0.000447 -0.4530547 0.4202662 0.7862047 255 255 255 255 0.012087 0.138280
-0.000748 -0.002622 -0.010628 0.8144512 -0.5782567 -0.04783841 255 255 255 255 0.012087 0.138280
-0.002796 -0.002958 -0.010679 0.0416764 -0.8787376 0.4754822 255 255 255 255 0.012087 0.138280
-0.002872 -0.000671 -0.012336 -0.05606188 0.7969855 -0.6013911 255 255 255 255 0.012087 0.138280
-0.001678 -0.00104 -0.011716 0.6892269 0.4415207 -0.5744786 255 255 255 255 0.012087 0.138280
-0.004569 -0.002823 -0.010627 -0.787442 -0.4761499 0.3914289 255 255 255 255 0.012087 0.138280
-0.003889 -0.001221 -0.012015 -0.7836341 0.5703512 -0.2462054 255 255 255 255 0.012087 0.138280
-0.012962 -0.001284 -0.000872 0.1183932 -0.5460562 -0.8293405 255 255 255 255 0.012087 0.138280
-0.013024 -0.001749 0.000486 0.3883035 -0.9094067 -0.1489961 255 255 255 255 0.012087 0.138280
-0.014142 5e-05 0.000216 -0.6694811 0.7409388 0.05296067 255 255 255 255 0.012087 0.138280
-0.013771 -0.000295 -0.000725 -0.5202952 0.3264222 -0.7891397 255 255 255 255 0.012087 0.138280
-0.01272 -0.001595 0.001882 0.1892316 -0.5215989 0.8319411 255 255 255 255 0.012087 0.138280
-0.013581 -0.000539 0.001435 -0.2555593 0.4825934 0.8377309 255 255 255 255 0.012087 0.138280
-0.001962 -0.004512 -0.013822 0.5881172 -0.4998975 -0.6357834 255 255 255 255 0.012087 0.138280
-0.003316 -0.00463 -0.013676 0.02569938 -0.9698285 -0.2424297 255 255 255 255 0.012087 0.138280
-0.003418 -0.003156 -0.014648 -0.1433146 0.08173378 -0.9862964 255 255 255 255 0.012087 0.138280
-0.002398 -0.003291 -0.014549 0.5029396 0.2861 -0.8155971 255 255 255 255 0.012087 0.138280
-0.004341 -0.004595 -0.013626 -0.4580181 -0.8876192 0.04849412 255 255 255 255 0.012087 0.138280
-0.004473 -0.003495 -0.014378 -0.7319027 -0.03652086 -0.6804298 255 255 255 255 0.012087 0.138280
-0.016267 -0.005226 -1.4e-05 -0.4223953 -0.5598899 -0.7128153 255 255 255 255 0.012087 0.138280
-0.016303 -0.005498 0.000781 -0.0326013 -0.9938958 -0.1053962 255 255 255 255 0.012087 0.138280
-0.017416 -0.003924 0.000823 -0.9897485 -0.08123118 0.1174708 255 255 255 255 0.012087 0.138280
-0.017065 -0.004419 0.000325 -0.7276986 0.077549 -0.6814991 255 255 255 255 0.012087 0.138280
-0.016125 -0.005408 0.001597 0.2697896 -0.8642069 0.4246883 255 255 255 255 0.012087 0.138280
-0.016954 -0.004562 0.001588 -0.6481187 -0.1339206 0.7496716 255 255 255 255 0.012087 0.138280
0.012043 -0.004167 -0.000908 0.5658453 -0.4172857 0.7111201 255 255 255 255 0.012087 0.138280
0.012237 -0.004353 -0.0016 0.1805954 -0.9833885 0.01823147 255 255 255 255 0.012087 0.138280
0.012655 -0.003356 -0.001662 0.9986599 0.004729925 0.05153662 255 255 255 255 0.012087 0.138280
0.012505 -0.003212 -0.001124 0.8448221 0.08264322 0.5286263 255 255 255 255 0.012087 0.138280
0.012138 -0.004295 -0.002334 -0.1316612 -0.8559714 -0.4999783 255 255 255 255 0.012087 0.138280
0.012578 -0.003311 -0.002231 0.7658427 -0.09066064 -0.6366048 255 255 255 255 0.012087 0.138280
-0.003669 0.001268 0.009892 -0.3357299 0.438682 0.8335728 255 255 255 255 0.012087 0.138280
-0.00204 0.002155 0.010565 0.03163578 0.7223563 0.6907971 255 255 255 255 0.012087 0.138280
-0.000706 0.00123 0.009817 0.8657588 0.4834435 0.129399 255 255 255 255 0.012087 0.138280
-0.000397 -0.000585 0.009458 0.7356218 -0.3460577 -0.5823269 255 255 255 255 0.012087 0.138280
-0.001787 -0.001871 0.010472 -0.02310682 -0.784452 -0.619759 255 255 255 255 0.012087 0.138280
-0.00437 -0.000519 0.009508 -0.1179855 -0.9830635 0.1402342 255 255 255 255 0.012087 0.138280
-0.006882 -6.5e-05 0.009738 -0.5220155 -0.3504991 -0.7775926 255 255 255 255 0.012087 0.138280
-0.006825 0.001357 0.010296 -0.6732633 0.7118278 0.2000447 255 255 255 255 0.012087 0.138280
-0.005571 -0.000743 0.010903 0.6534774 -0.7527826 0.07928208 255 255 255 255 0.012087 0.138280
-0.005758 0.000506 0.01152 0.3904314 0.3156542 0.864827 255 255 255 255 0.012087 0.138280
-0.008049 -0.002737 0.011055 -0.2878134 0.09651856 -0.9528104 255 255 255 255 0.012087 0.138280
-0.008468 -0.002328 0.012995 -0.9451656 0.2405882 0.2208606 255 255 255 255 0.012087 0.138280
-0.006548 -0.003165 0.012576 0.8649861 -0.5008665 -0.03052743 255 255 255 255 0.012087 0.138280
-0.007569 -0.002838 0.01371 0.1344238 -0.2264747 0.9646966 255 255 255 255 0.012087 0.138280
-0.007502 -0.005756 0.010607 -0.6287222 -0.3154546 -0.710772 255 255 255 255 0.012087 0.138280
-0.007948 -0.005629 0.010809 -0.719777 -0.6906264 0.07040063 255 255 255 255 0.012087 0.138280
-0.007182 -0.005909 0.010961 0.5355697 -0.7433825 -0.400684 255 255 255 255 0.012087 0.138280
-0.00749 -0.005889 0.011173 0.02435095 -0.828555 0.559378 255 255 255 255 0.012087 0.138280
0.005363 -0.000233 0.004497 -0.7606475 -0.4164633 0.4979696 255 255 255 255 0.012087 0.138280
0.006034 0.002325 0.004535 0.03457442 0.771576 0.6351969 255 255 255 255 0.012087 0.138280
0.005738 -0.000672 0.00264 0.5919715 -0.7268295 -0.3482654 255 255 255 255 0.012087 0.138280
0.007153 0.001494 0.003278 0.9756353 0.1112046 -0.1891273 255 255 255 255 0.012087 0.138280
0.007255 -0.001716 0.006475 -0.5121453 -0.7231688 0.4633942 255 255 255 255 0.012087 0.138280
0.008849 -0.000301 0.00718 0.001604973 0.6999274 0.7142123 255 255 255 255 0.012087 0.138280
0.008697 -0.001206 0.004466 0.3485279 -0.631981 -0.6921911 255 255 255 255 0.012087 0.138280
0.009903 -0.000789 0.00552 0.6520587 0.6733091 -0.3485318 255 255 255 255 0.012087 0.138280
0.010214 -0.004017 0.00863 -0.4559523 -0.6027671 0.6548125 255 255 255 255 0.012087 0.138280
0.010668 -0.003542 0.008997 0.6250457 -0.1553449 0.7649744 255 255 255 255 0.012087 0.138280
0.010889 -0.00397 0.007625 0.2132139 -0.9542977 -0.2094178 255 255 255 255 0.012087 0.138280
0.011116 -0.003749 0.008293 0.9581528 -0.2049557 -0.1998408 255 255 255 255 0.012087 0.138280
0.008989 0.001094 -0.001506 0.4809883 0.8767004 -0.006829617 255 255 255 255 0.012087 0.138280
0.008781 0.000291 -0.00304 0.2242843 0.5001349 -0.836398 255 255 255 255 0.012087 0.138280
0.007594 -0.002359 -0.003318 -0.08640546 -0.6625555 -0.7440123 255 255 255 255 0.012087 0.138280
0.007862 -0.002517 -0.001341 -0.1645143 -0.9836666 0.07304201 255 255 255 255 0.012087 0.138280
0.007339 -0.002016 0.000524 0.1702782 -0.625877 0.7611067 255 255 255 255 0.012087 0.138280
0.008583 0.000557 -5.8e-05 0.4597933 0.4476974 0.7669141 255 255 255 255 0.012087 0.138280
0.006552 0.000461 0.006464 0.1187493 0.6060846 0.7864859 255 255 255 255 0.012087 0.138280
0.007632 -0.000161 0.004961 0.7395428 0.5348766 -0.4086362 255 255 255 255 0.012087 0.138280
0.006345 -0.00126 0.004069 -0.09863023 -0.4594952 -0.882687 255 255 255 255 0.012087 0.138280
0.005319 -0.0014 0.006019 -0.7662588 -0.5555463 0.3228247 255 255 255 255 0.012087 0.138280
0.002596 0.016301 -0.001856 0.8460062 0.007823764 -0.5331157 255 255 255 255 0.012087 0.138280
0.001091 0.016301 -0.002982 0.5613366 0.01274309 -0.8274894 255 255 255 255 0.012087 0.138280
-0.000776 0.017619 -0.004048 0.08396093 0.02020502 -0.9962642 255 255 255 255 0.012087 0.138280
-0.002773 0.018629 -0.003154 -0.6495125 0.02027664 -0.7600805 255 255 255 255 0.012087 0.138280
-0.003768 0.018629 -0.00147 -0.866442 0.01674075 -0.498997 255 255 255 255 0.012087 0.138280
-0.00465 0.017619 7.8e-05 -0.9758648 0.01666184 -0.2177389 255 255 255 255 0.012087 0.138280
-0.004641 0.016647 0.001628 -0.911628 0.01142484 0.4108576 255 255 255 255 0.012087 0.138280
-0.002814 0.016647 0.003498 -0.4960323 0.008541538 0.8682621 255 255 255 255 0.012087 0.138280
-0.000869 0.017619 0.003925 -0.04250428 0.01620625 0.9989648 255 255 255 255 0.012087 0.138280
0.000851 0.018657 0.003732 0.4225295 0.01757529 0.9061788 255 255 255 255 0.012087 0.138280
0.002542 0.018657 0.001946 0.8715709 0.008886708 0.490189 255 255 255 255 0.012087 0.138280
0.002978 0.017619 7.8e-05 0.9998596 0.003386602 0.01641643 255 255 255 255 0.012087 0.138280
0.002314 0.07285 -0.001766 0.8964922 0.004390862 -0.4430377 255 255 255 255 0.015797 0.263364
0.000876 0.07218 -0.002841 0.5701711 0.004037842 -0.8215161 255 255 255 255 0.015797 0.263364
-0.000869 0.07529 7.2e-05 0.03144204 0.9994805 -0.00707098 255 255 255 255 0.015797 0.263364
-0.00078 0.07218 -0.003869 0.2343995 0.003359902 -0.9721346 255 255 255 255 0.015797 0.263364
-0.002706 0.07304 -0.003111 -0.5670171 0.001798021 -0.8237041 255 255 255 255 0.015797 0.263364
-0.00372 0.074213 -0.001502 -0.8617958 0.0009814657 -0.5072545 255 255 255 255 0.015797 0.263364
-0.004544 0.074192 7.2e-05 -0.9482574 0.001638239 -0.3174982 255 255 255 255 0.015797 0.263364
-0.004451 0.073421 0.001468 -0.9618422 0.00345286 0.2735832 255 255 255 255 0.015797 0.263364
-0.002706 0.072307 0.003255 -0.5751297 0.004402496 0.8180504 255 255 255 255 0.015797 0.263364
-0.000869 0.072307 0.003747 -0.09595366 0.00468934 0.9953748 255 255 255 255 0.015797 0.263364
0.000219 0.072583 0.003382 0.3553744 0.006725447 0.9346999 255 255 255 255 0.015797 0.263364
0.002314 0.074189 0.001909 0.7902787 0.006668911 0.6127113 255 255 255 255 0.015797 0.263364
0.002806 0.074061 7.2e-05 0.9961714 0.003833081 0.0873381 255 255 255 255 0.015799 0.263364
-0.000883 0.002939 -0.007065 -0.02407395 0.6913295 -0.7221385 255 255 255 255 0.012087 0.138280
-0.002177 0.002018 -0.00674 -0.7449265 0.560992 -0.3610715 255 255 255 255 0.012087 0.138280
-0.00333 -0.000665 -0.006875 -0.9745811 -0.1457079 -0.1701792 255 255 255 255 0.012087 0.138280
-0.00094 -0.000695 -0.006544 -0.02590518 -0.9987381 -0.0430244 255 255 255 255 0.012087 0.138280
0.002086 -0.000489 -0.006106 0.4267082 -0.8826592 0.1970607 255 255 255 255 0.012087 0.138280
0.000908 0.002061 -0.006581 0.7234063 0.6464543 -0.2424464 255 255 255 255 0.012087 0.138280
-0.012219 0.001049 -0.001213 -0.6285799 0.5078114 -0.5890798 255 255 255 255 0.012087 0.138280
-0.011558 0.001894 -0.000486 -0.5311723 0.8306891 0.1667684 255 255 255 255 0.012087 0.138280
-0.011133 0.001044 0.00061 -0.1658068 0.5305519 0.8312778 255 255 255 255 0.012087 0.138280
-0.009287 -0.001239 0.001299 0.08058156 -0.4519574 0.8883924 255 255 255 255 0.012087 0.138280
-0.009142 -0.001822 -0.000773 0.03632383 -0.9927946 -0.1141906 255 255 255 255 0.012087 0.138280
-0.009776 -0.001423 -0.001793 -0.2937504 -0.9335559 -0.2053877 255 255 255 255 0.012087 0.138280
-0.010174 -0.001868 -0.00552 0.787352 -0.5043721 -0.3545218 255 255 255 255 0.012087 0.138280
-0.011516 -0.000254 -0.005616 -0.03599591 0.6838405 -0.7287431 255 255 255 255 0.012087 0.138280
-0.011829 -0.001757 -0.004701 -0.1362455 -0.7324887 0.6670064 255 255 255 255 0.012087 0.138280
-0.012702 -0.000562 -0.004698 -0.8811438 0.3851125 0.2743611 255 255 255 255 0.012087 0.138280
-0.012991 -0.003642 -0.006503 0.7726933 -0.5736114 -0.2718732 255 255 255 255 0.012087 0.138280
-0.014437 -0.00218 -0.006935 -0.2564607 0.3542626 -0.899292 255 255 255 255 0.012087 0.138280
-0.014225 -0.002925 -0.005325 0.04872074 -0.3350149 0.9409524 255 255 255 255 0.012087 0.138280
-0.015156 -0.001817 -0.005634 -0.8133755 0.3762901 0.4436508 255 255 255 255 0.012087 0.138280
-0.015005 -0.005771 -0.006056 -0.02815424 -0.7372128 -0.6750738 255 255 255 255 0.012087 0.138280
-0.015736 -0.005031 -0.006275 -0.7345442 -0.2822824 -0.6170588 255 255 255 255 0.012087 0.138280
-0.015629 -0.005408 -0.005461 -0.1782025 -0.688382 0.7031174 255 255 255 255 0.012087 0.138280
-0.0161 -0.004848 -0.005617 -0.8481612 -0.1259376 0.5145506 255 255 255 255 0.012087 0.138280
-0.00031 0.000794 -0.00873 0.4497309 0.5429404 -0.7091953 255 255 255 255 0.012087 0.138280
-0.001707 0.001355 -0.00913 -0.04897921 0.8338732 -0.5497786 255 255 255 255 0.012087 0.138280
-0.002884 0.000682 -0.008917 -0.7758681 0.6154276 -0.1388438 255 255 255 255 0.012087 0.138280
-0.003598 -0.001449 -0.008329 -0.8010002 -0.378567 0.4637734 255 255 255 255 0.012087 0.138280
-0.001706 -0.001629 -0.00825 -0.002815997 -0.8857802 0.4640965 255 255 255 255 0.012087 0.138280
0.000258 -0.001824 -0.00925 0.122295 -0.9694718 -0.2125284 255 255 255 255 0.012087 0.138280
0.003339 -0.001086 -0.00671 -0.001747243 -0.5649535 0.825121 255 255 255 255 0.012087 0.138280
0.003603 0.000399 -0.007584 0.1862388 0.9775333 0.09871062 255 255 255 255 0.012087 0.138280
0.002322 -0.003363 -0.009756 -0.6964462 -0.6717077 -0.2525304 255 255 255 255 0.012087 0.138280
0.002641 -0.00089 -0.009682 -0.2004411 0.5433198 -0.8152466 255 255 255 255 0.012087 0.138280
0.006488 -0.002465 -0.010685 0.635065 -0.4763502 0.6080979 255 255 255 255 0.012087 0.138280
0.006262 -0.000624 -0.010903 0.587413 0.7893399 -0.1785737 255 255 255 255 0.012087 0.138280
0.004099 -0.003039 -0.011717 -0.5148538 -0.6212378 -0.5907531 255 255 255 255 0.012087 0.138280
0.005261 -0.001579 -0.011993 -0.3692782 0.5847051 -0.7223251 255 255 255 255 0.012087 0.138280
0.007161 -0.004013 -0.012562 0.9239812 -0.3608573 0.126652 255 255 255 255 0.012087 0.138280
0.006955 -0.003051 -0.013125 0.7115009 0.1304635 -0.6904678 255 255 255 255 0.012087 0.138280
0.005268 -0.00453 -0.013535 0.1956221 -0.9503897 -0.24185 255 255 255 255 0.012087 0.138280
0.006252 -0.003721 -0.01389 -0.1593777 0.3044942 -0.9390858 255 255 255 255 0.012087 0.138280
0.004797 -0.000361 -0.009177 0.4431822 0.8670543 -0.2276105 255 255 255 255 0.012087 0.138280
0.003816 -0.001486 -0.010779 -0.5086449 0.5811607 -0.6352422 255 255 255 255 0.012087 0.138280
0.003082 -0.00346 -0.010681 -0.5399386 -0.7251847 -0.4272864 255 255 255 255 0.012087 0.138280
0.005749 -0.002661 -0.009617 0.6681466 -0.7438959 -0.01410913 255 255 255 255 0.012087 0.138280
0.006203 -0.001894 -0.005344 -0.1360723 -0.4593066 0.8777937 255 255 255 255 0.012087 0.138280
0.006468 -0.000409 -0.006219 0.5113044 0.778649 0.3636944 255 255 255 255 0.012087 0.138280
0.007059 -0.003268 -0.008618 -0.4290238 -0.6685588 -0.6074272 255 255 255 255 0.012087 0.138280
0.006469 -0.001137 -0.007903 0.3377603 0.7147106 -0.6124597 255 255 255 255 0.012087 0.138280
0.009096 -0.003397 -0.008248 0.008322633 -0.6157202 0.787921 255 255 255 255 0.012087 0.138280
0.009732 -0.002033 -0.008202 0.7452355 0.5220305 0.4148594 255 255 255 255 0.012087 0.138280
0.008424 -0.0036 -0.009635 -0.4911017 -0.5439994 -0.6803556 255 255 255 255 0.012087 0.138280
0.00896 -0.002402 -0.009319 0.154903 0.5944355 -0.7890828 255 255 255 255 0.012087 0.138280
0.010258 -0.005625 -0.009925 0.2671779 -0.7249072 0.6349217 255 255 255 255 0.012087 0.138280
0.01096 -0.005097 -0.009555 0.9176875 0.09961309 -0.3846128 255 255 255 255 0.012087 0.138280
0.009884 -0.00531 -0.010761 0.08960834 -0.6195156 -0.7798531 255 255 255 255 0.012087 0.138280
0.010518 -0.004494 -0.009957 0.4437513 0.3645633 -0.8186443 255 255 255 255 0.012087 0.138280
0.000876 0.07218 -0.002841 0.5701711 0.004037842 -0.8215161 255 255 255 255 0.012087 0.138280
0.002314 0.07285 -0.001766 0.8964922 0.004390862 -0.4430377 255 255 255 255 0.012087 0.138280
-0.00078 0.07218 -0.003869 0.2343995 0.003359902 -0.9721346 255 255 255 255 0.012087 0.138280
-0.002706 0.07304 -0.003111 -0.5670171 0.001798021 -0.8237041 255 255 255 255 0.012087 0.138280
-0.00372 0.074213 -0.001502 -0.8617958 0.0009814657 -0.5072545 255 255 255 255 0.012087 0.138280
-0.004544 0.074192 7.2e-05 -0.9482574 0.001638239 -0.3174982 255 255 255 255 0.012087 0.138280
-0.004451 0.073421 0.001468 -0.9618422 0.00345286 0.2735832 255 255 255 255 0.012087 0.138280
-0.002706 0.072307 0.003255 -0.5751297 0.004402496 0.8180504 255 255 255 255 0.012087 0.138280
-0.000869 0.072307 0.003747 -0.09595366 0.00468934 0.9953748 255 255 255 255 0.012087 0.138280
0.000219 0.072583 0.003382 0.3553744 0.006725447 0.9346999 255 255 255 255 0.012087 0.138280
0.002314 0.074189 0.001909 0.7902787 0.006668911 0.6127113 255 255 255 255 0.012087 0.138280
0.002806 0.074061 7.2e-05 0.9961714 0.003833081 0.0873381 255 255 255 255 0.012087 0.138280
3 0 1 13 
3 0 13 12 
3 85 86 87 
3 85 87 88 
3 86 89 90 
3 86 90 87 
3 3 4 16 
3 3 16 15 
3 91 92 93 
3 91 93 94 
3 92 95 96 
3 92 96 93 
3 6 7 19 
3 6 19 18 
3 49 50 51 
3 49 51 52 
3 50 53 54 
3 50 54 51 
3 9 10 22 
3 9 22 21 
3 97 98 99 
3 97 99 100 
3 98 101 102 
3 98 102 99 
3 1 0 24 
3 2 1 24 
3 3 2 24 
3 4 3 24 
3 5 4 24 
3 6 5 24 
3 7 6 24 
3 8 7 24 
3 9 8 24 
3 10 9 24 
3 11 10 24 
3 0 11 24 
3 155 156 157 
3 156 158 157 
3 158 159 157 
3 159 160 157 
3 160 161 157 
3 161 162 157 
3 162 163 157 
3 163 164 157 
3 164 165 157 
3 165 166 157 
3 166 167 157 
3 167 155 157 
3 12 13 26 
3 12 26 25 
3 13 14 27 
3 13 27 26 
3 14 15 28 
3 14 28 27 
3 15 16 29 
3 15 29 28 
3 16 17 30 
3 16 30 29 
3 17 18 31 
3 17 31 30 
3 18 19 32 
3 18 32 31 
3 19 20 33 
3 19 33 32 
3 20 21 34 
3 20 34 33 
3 21 22 35 
3 21 35 34 
3 22 23 36 
3 22 36 35 
3 23 12 25 
3 23 25 36 
3 7 8 38 
3 7 38 37 
3 20 19 40 
3 20 40 39 
3 19 7 37 
3 19 37 40 
3 8 9 41 
3 8 41 38 
3 9 21 42 
3 9 42 41 
3 21 20 39 
3 21 39 42 
3 37 38 107 
3 37 107 108 
3 39 40 103 
3 39 103 104 
3 118 117 119 
3 118 119 120 
3 38 41 106 
3 38 106 107 
3 41 42 105 
3 41 105 106 
3 42 39 104 
3 42 104 105 
3 43 44 50 
3 43 50 49 
3 45 46 52 
3 45 52 51 
3 46 43 49 
3 46 49 52 
3 44 47 53 
3 44 53 50 
3 47 48 54 
3 47 54 53 
3 48 45 51 
3 48 51 54 
3 10 11 56 
3 10 56 55 
3 23 22 58 
3 23 58 57 
3 130 129 131 
3 130 131 132 
3 11 0 59 
3 11 59 56 
3 0 12 60 
3 0 60 59 
3 12 23 57 
3 12 57 60 
3 55 56 136 
3 55 136 137 
3 57 58 138 
3 57 138 133 
3 58 55 137 
3 58 137 138 
3 56 59 135 
3 56 135 136 
3 59 60 134 
3 59 134 135 
3 60 57 133 
3 60 133 134 
3 14 13 173 
3 14 173 168 
3 13 1 172 
3 13 172 173 
3 15 14 168 
3 15 168 169 
3 4 5 68 
3 4 68 67 
3 17 16 70 
3 17 70 69 
3 16 4 67 
3 16 67 70 
3 5 6 71 
3 5 71 68 
3 6 18 72 
3 6 72 71 
3 18 17 69 
3 18 69 72 
3 2 171 172 
3 2 172 1 
3 3 170 171 
3 3 171 2 
3 15 169 170 
3 15 170 3 
3 67 68 178 
3 67 178 179 
3 69 70 174 
3 69 174 175 
3 189 188 190 
3 189 190 191 
3 68 71 177 
3 68 177 178 
3 71 72 176 
3 71 176 177 
3 72 69 175 
3 72 175 176 
3 73 74 86 
3 73 86 85 
3 75 76 88 
3 75 88 87 
3 76 73 85 
3 76 85 88 
3 74 77 89 
3 74 89 86 
3 77 78 90 
3 77 90 89 
3 78 75 87 
3 78 87 90 
3 79 80 92 
3 79 92 91 
3 81 82 94 
3 81 94 93 
3 82 79 91 
3 82 91 94 
3 80 83 95 
3 80 95 92 
3 83 84 96 
3 83 96 95 
3 84 81 93 
3 84 93 96 
3 61 62 98 
3 61 98 97 
3 63 64 100 
3 63 100 99 
3 64 61 97 
3 64 97 100 
3 62 65 101 
3 62 101 98 
3 65 66 102 
3 65 102 101 
3 66 63 99 
3 66 99 102 
3 104 103 46 
3 104 46 45 
3 105 104 45 
3 105 45 48 
3 106 105 48 
3 106 48 47 
3 107 106 47 
3 107 47 44 
3 108 107 44 
3 108 44 43 
3 103 108 43 
3 103 43 46 
3 40 37 109 
3 40 109 110 
3 37 108 111 
3 37 111 109 
3 108 103 112 
3 108 112 111 
3 103 40 110 
3 103 110 112 
3 110 109 113 
3 110 113 114 
3 109 111 115 
3 109 115 113 
3 111 112 116 
3 111 116 115 
3 112 110 114 
3 112 114 116 
3 114 113 117 
3 114 117 118 
3 113 115 119 
3 113 119 117 
3 115 116 120 
3 115 120 119 
3 116 114 118 
3 116 118 120 
3 22 10 121 
3 22 121 122 
3 10 55 123 
3 10 123 121 
3 55 58 124 
3 55 124 123 
3 58 22 122 
3 58 122 124 
3 122 121 142 
3 122 142 139 
3 121 123 141 
3 121 141 142 
3 123 124 140 
3 123 140 141 
3 124 122 139 
3 124 139 140 
3 126 125 129 
3 126 129 130 
3 125 127 131 
3 125 131 129 
3 127 128 132 
3 127 132 131 
3 128 126 130 
3 128 130 132 
3 134 133 63 
3 134 63 66 
3 135 134 66 
3 135 66 65 
3 136 135 65 
3 136 65 62 
3 137 136 62 
3 137 62 61 
3 138 137 61 
3 138 61 64 
3 133 138 64 
3 133 64 63 
3 140 139 126 
3 140 126 128 
3 141 140 128 
3 141 128 127 
3 142 141 127 
3 142 127 125 
3 139 142 125 
3 139 125 126 
3 25 26 144 
3 25 144 143 
3 26 27 145 
3 26 145 144 
3 27 28 146 
3 27 146 145 
3 28 29 147 
3 28 147 146 
3 29 30 148 
3 29 148 147 
3 30 31 149 
3 30 149 148 
3 31 32 150 
3 31 150 149 
3 32 33 151 
3 32 151 150 
3 33 34 152 
3 33 152 151 
3 34 35 153 
3 34 153 152 
3 35 36 154 
3 35 154 153 
3 36 25 143 
3 36 143 154 
3 143 144 226 
3 143 226 227 
3 144 145 228 
3 144 228 226 
3 145 146 229 
3 145 229 228 
3 146 147 230 
3 146 230 229 
3 147 148 231 
3 147 231 230 
3 148 149 232 
3 148 232 231 
3 149 150 233 
3 149 233 232 
3 150 151 234 
3 150 234 233 
3 151 152 235 
3 151 235 234 
3 152 153 236 
3 152 236 235 
3 153 154 237 
3 153 237 236 
3 154 143 227 
3 154 227 237 
3 169 168 193 
3 169 193 194 
3 170 169 194 
3 170 194 195 
3 171 170 195 
3 171 195 196 
3 172 171 196 
3 172 196 197 
3 207 206 208 
3 207 208 209 
3 168 173 192 
3 168 192 193 
3 175 174 82 
3 175 82 81 
3 176 175 81 
3 176 81 84 
3 177 176 84 
3 177 84 83 
3 178 177 83 
3 178 83 80 
3 179 178 80 
3 179 80 79 
3 174 179 79 
3 174 79 82 
3 70 67 180 
3 70 180 181 
3 67 179 182 
3 67 182 180 
3 179 174 183 
3 179 183 182 
3 174 70 181 
3 174 181 183 
3 181 180 184 
3 181 184 185 
3 180 182 186 
3 180 186 184 
3 182 183 187 
3 182 187 186 
3 183 181 185 
3 183 185 187 
3 185 184 188 
3 185 188 189 
3 184 186 190 
3 184 190 188 
3 186 187 191 
3 186 191 190 
3 187 185 189 
3 187 189 191 
3 193 192 76 
3 193 76 75 
3 194 193 75 
3 194 75 78 
3 195 194 78 
3 195 78 77 
3 196 195 77 
3 196 77 74 
3 197 196 74 
3 197 74 73 
3 192 197 73 
3 192 73 76 
3 173 172 198 
3 173 198 199 
3 172 197 200 
3 172 200 198 
3 197 192 201 
3 197 201 200 
3 192 173 199 
3 192 199 201 
3 223 222 224 
3 223 224 225 
3 198 200 212 
3 198 212 213 
3 200 201 211 
3 200 211 212 
3 201 199 210 
3 201 210 211 
3 203 202 206 
3 203 206 207 
3 202 204 208 
3 202 208 206 
3 204 205 209 
3 204 209 208 
3 205 203 207 
3 205 207 209 
3 211 210 203 
3 211 203 205 
3 212 211 205 
3 212 205 204 
3 213 212 204 
3 213 204 202 
3 210 213 202 
3 210 202 203 
3 199 198 214 
3 199 214 215 
3 198 213 216 
3 198 216 214 
3 213 210 217 
3 213 217 216 
3 210 199 215 
3 210 215 217 
3 215 214 218 
3 215 218 219 
3 214 216 220 
3 214 220 218 
3 216 217 221 
3 216 221 220 
3 217 215 219 
3 217 219 221 
3 219 218 222 
3 219 222 223 
3 218 220 224 
3 218 224 222 
3 220 221 225 
3 220 225 224 
3 221 219 223 
3 221 223 225 
