ply
format ascii 1.0
comment VCGLIB generated
comment TextureFile Textures//Combined_Texture//Texture_01_A.png
element vertex 112
property float x
property float y
property float z
property float nx
property float ny
property float nz
property uchar red
property uchar green
property uchar blue
property uchar alpha
property float texture_u
property float texture_v
element face 202
property list uchar int vertex_indices
end_header
0.003076 0.005179 -0.003515 0.8759773 -0.3666231 -0.3134506 255 255 255 255 0.484202 0.227030
0.003465 0.006082 0.000739 0.8726853 0.1061737 0.4766001 255 255 255 255 0.484202 0.227030
0.003382 0.007295 -0.00367 0.7936333 0.2893204 -0.5352008 255 255 255 255 0.484202 0.227030
0.00221 0.008722 2.9e-05 0.768295 0.5497479 0.3278721 255 255 255 255 0.484202 0.227030
0.001541 0.008191 0.001555 0.09258074 0.5612612 0.8224444 255 255 255 255 0.484202 0.227030
0.00107 0.009135 -0.002335 0.1682526 0.48978 -0.8554569 255 255 255 255 0.484202 0.227030
0.000452 0.007918 0.001427 -0.1429092 0.3789422 0.9143193 255 255 255 255 0.484202 0.227030
0.000576 0.012627 -0.00095 0.7532672 0.6544786 -0.06516426 255 255 255 255 0.484202 0.227030
0.001483 0.003939 -0.001978 -0.006817785 -0.9854202 -0.170002 255 255 255 255 0.484202 0.227030
-0.001829 0.00506 -0.003036 -0.4328637 -0.6632706 -0.6104926 255 255 255 255 0.484202 0.227030
-0.001736 0.004067 0.000531 -0.5707577 -0.7970064 0.1975256 255 255 255 255 0.484202 0.227030
0.002471 0.00449 0.001286 0.4209853 -0.8372324 0.3490176 255 255 255 255 0.484202 0.227030
-0.003048 0.006287 -0.001721 -0.9928409 0.1193696 -0.004220338 255 255 255 255 0.484202 0.227030
-0.000307 0.004072 0.001929 -0.04476996 -0.7628595 0.6450126 255 255 255 255 0.484202 0.227030
0.004098 0.005917 -0.000265 0.9915454 -0.1272942 0.02517797 255 255 255 255 0.484202 0.227030
0.003355 0.004551 -0.001993 0.8959274 -0.3885421 -0.2152887 255 255 255 255 0.484202 0.227030
0.001792 0.007748 -0.004458 0.01525919 0.4721734 -0.8813736 255 255 255 255 0.484202 0.227030
0.002054 0.005468 0.002605 0.2268058 -0.4413553 0.8681962 255 255 255 255 0.484202 0.227030
-0.000809 0.006711 0.001892 -0.02257613 0.267853 0.9631953 255 255 255 255 0.484202 0.227030
-0.001673 0.00871 -0.000895 -0.8814381 0.3660957 -0.298397 255 255 255 255 0.484202 0.227030
0.001603 0.005529 -0.004438 0.03302256 -0.4970078 -0.8671175 255 255 255 255 0.484202 0.227030
0.001524 0.006433 0.002916 -0.06854313 0.3115028 0.9477699 255 255 255 255 0.484202 0.227030
0.003359 0.008146 -0.000927 0.6875433 0.6973071 0.2026009 255 255 255 255 0.484202 0.227030
-0.002011 0.007662 0.000452 -0.9095279 0.3575203 0.2119863 255 255 255 255 0.484202 0.227030
0.002591 0.007272 0.001878 0.7355157 0.3915163 0.5529302 255 255 255 255 0.484202 0.227030
0.000631 0.007549 -0.00355 -0.2509493 0.7046342 -0.6637132 255 255 255 255 0.484202 0.227030
-0.001045 0.008654 0.000995 -0.4633233 0.4201077 0.7802827 255 255 255 255 0.484202 0.227030
0.001732 0.009494 -0.000644 0.8732562 0.4847575 0.04933309 255 255 255 255 0.484202 0.227030
0.002211 0.008675 -0.001767 0.7023802 0.6434869 -0.3042806 255 255 255 255 0.484202 0.227030
0.002615 0.00787 -0.003258 0.3357022 0.8329754 -0.4398365 255 255 255 255 0.484202 0.227030
-0.00017 0.00778 -0.002707 -0.1842119 0.5795487 -0.7938447 255 255 255 255 0.484202 0.227030
-0.000192 0.010365 -0.001937 -0.5034091 0.2897793 -0.8140069 255 255 255 255 0.484202 0.227030
-0.000317 0.012128 -0.001143 -0.8308863 0.4011867 -0.3855869 255 255 255 255 0.484202 0.227030
0.001396 0.010686 0.000469 0.6039226 0.4604947 0.6505553 255 255 255 255 0.484202 0.227030
0.000748 0.011778 0.000201 0.5908508 0.4722401 0.654129 255 255 255 255 0.484202 0.227030
-0.000109 0.011551 0.000532 -0.03510528 0.3947362 0.9181236 255 255 255 255 0.484202 0.227030
0.003516 0.004745 -0.000425 0.6830485 -0.7222821 0.1084122 255 255 255 255 0.484202 0.227030
0.002759 0.004218 -0.002771 0.3542153 -0.8262221 -0.4380511 255 255 255 255 0.484202 0.227030
0.001152 0.004161 0.001313 0.2075152 -0.9345672 0.2890011 255 255 255 255 0.484202 0.227030
0.000338 0.004565 -0.003338 -0.1057736 -0.7862402 -0.6088008 255 255 255 255 0.484202 0.227030
-0.000258 0.004154 -0.002434 -0.1566129 -0.9509453 -0.2667872 255 255 255 255 0.484202 0.227030
-0.001736 0.004223 -0.001444 -0.3489727 -0.9094219 -0.2262078 255 255 255 255 0.484202 0.227030
-0.000267 0.003884 0.000257 -0.1057817 -0.9928908 -0.05457203 255 255 255 255 0.484202 0.227030
-0.000764 0.004126 0.00117 -0.2372038 -0.9395121 0.2470856 255 255 255 255 0.484202 0.227030
0.003579 0.006214 -0.002814 0.9466476 -0.1512012 -0.284599 255 255 255 255 0.484202 0.227030
-0.000398 0.006815 -0.003723 -0.1353632 0.4638074 -0.8755338 255 255 255 255 0.484202 0.227030
-0.00236 0.00617 -0.003239 -0.5895916 -0.1863826 -0.7859029 255 255 255 255 0.484202 0.227030
0.003459 0.005044 0.000287 0.8337411 -0.4767582 0.2785272 255 255 255 255 0.484202 0.227030
0.002899 0.005817 -0.00425 0.5327749 -0.2266978 -0.8153276 255 255 255 255 0.484202 0.227030
-0.000105 0.005626 -0.004022 -0.2860169 -0.2850386 -0.9148483 255 255 255 255 0.484202 0.227030
-0.002499 0.005587 -0.00234 -0.8121582 -0.405752 -0.4192427 255 255 255 255 0.484202 0.227030
-0.002582 0.004813 -0.00142 -0.8331673 -0.5486895 -0.06908126 255 255 255 255 0.484202 0.227030
0.003374 0.007304 -0.00295 0.8636408 0.4339784 -0.2564901 255 255 255 255 0.484202 0.227030
0.001236 0.006621 -0.004502 -0.3470354 0.2022028 -0.915795 255 255 255 255 0.484202 0.227030
-0.002275 0.006672 -0.002796 -0.7601591 0.4831348 -0.4344409 255 255 255 255 0.484202 0.227030
0.002978 0.005456 0.001646 0.7163455 -0.02516452 0.6972918 255 255 255 255 0.484202 0.227030
0.003835 0.006763 -0.00187 0.9909319 0.1194597 -0.06150848 255 255 255 255 0.484202 0.227030
-0.002576 0.007008 -0.001478 -0.8092316 0.5868199 -0.02804543 255 255 255 255 0.484202 0.227030
-0.002027 0.007132 -5.4e-05 -0.9335915 0.3308758 0.1375801 255 255 255 255 0.484202 0.227030
-0.0012 0.004723 0.002044 -0.577809 -0.3030328 0.7578312 255 255 255 255 0.484202 0.227030
0.002387 0.007336 -0.004197 0.4962864 0.4324079 -0.7528103 255 255 255 255 0.484202 0.227030
-0.001199 0.007763 -0.002148 -0.6119236 0.6185909 -0.4928435 255 255 255 255 0.484202 0.227030
-7.3e-05 0.008083 0.001273 0.07958271 0.2848718 0.9552563 255 255 255 255 0.484202 0.227030
-4.4e-05 0.005621 0.002295 -0.2255671 0.04723606 0.9730818 255 255 255 255 0.484202 0.227030
0.003633 0.007199 -3.1e-05 0.8721741 0.4093035 0.2679237 255 255 255 255 0.484202 0.227030
0.003032 0.007268 0.000906 0.6790325 0.5722204 0.4598682 255 255 255 255 0.484202 0.227030
0.002554 0.004011 -0.001029 0.3000163 -0.9504424 0.08154411 255 255 255 255 0.484202 0.227030
0.00047 0.003821 0.000346 0.09875061 -0.98896 0.1104831 255 255 255 255 0.484202 0.227030
-0.001272 0.0073 -0.003969 -0.3501239 0.5613084 -0.7498974 255 255 255 255 0.484202 0.227030
-0.002628 0.005425 3.1e-05 -0.947076 -0.114345 0.2999539 255 255 255 255 0.484202 0.227030
0.003663 0.005516 0.001164 0.8306357 -0.3782151 0.4086536 255 255 255 255 0.484202 0.227030
-0.002275 0.007407 -0.002334 -0.6348034 0.7015449 -0.3238199 255 255 255 255 0.484202 0.227030
0.00113 0.004505 0.002084 0.1030589 -0.5927044 0.7987994 255 255 255 255 0.484202 0.227030
0.003772 0.007032 0.000649 0.8268455 0.2295781 0.5134399 255 255 255 255 0.484202 0.227030
0.0038 0.007803 -0.001403 0.8153826 0.5413311 -0.2052119 255 255 255 255 0.484202 0.227030
0.002007 0.007138 0.002377 0.5300683 0.3048314 0.7912682 255 255 255 255 0.484202 0.227030
0.00192 0.008263 0.001039 0.7416585 0.498604 0.4487056 255 255 255 255 0.484202 0.227030
-0.002032 0.007128 0.001974 -0.733729 0.1647832 0.6591573 255 255 255 255 0.484202 0.227030
0.002569 0.008929 -0.001097 0.5746801 0.7582588 -0.307874 255 255 255 255 0.484202 0.227030
0.000158 0.007687 -0.003498 -0.406362 0.7063043 -0.5796586 255 255 255 255 0.484202 0.227030
-0.000597 0.009083 -0.002302 -0.4654913 0.2490207 -0.8492976 255 255 255 255 0.484202 0.227030
0.001387 0.010107 -0.001807 0.5300146 0.3763673 -0.7598897 255 255 255 255 0.484202 0.227030
0.000205 0.012712 -0.00155 0.04367672 0.3870498 -0.9210238 255 255 255 255 0.484202 0.227030
-0.000633 0.011813 -8.1e-05 -0.8885887 0.4465011 0.1051051 255 255 255 255 0.484202 0.227030
-0.000537 0.011236 0.000557 -0.6733367 0.315556 0.6686121 255 255 255 255 0.484202 0.227030
0.00144 -0.002586 0.00015 0.4419308 0.02689545 0.8966459 255 255 255 255 0.495422 0.175340
0.001562 -0.002586 -2.7e-05 0.4982055 -0.01675652 -0.8668971 255 255 255 255 0.495422 0.175340
0.00144 0.004281 0.00015 -0.3663264 -0.0210605 0.930248 255 255 255 255 0.495422 0.175340
0.001562 0.004281 -2.7e-05 0.9954057 -0.04892608 0.08230273 255 255 255 255 0.495422 0.175340
0.001294 0.004281 -2.7e-05 -0.4911109 0.1062986 -0.8645871 255 255 255 255 0.495422 0.175340
0.001294 -0.002586 -2.7e-05 -0.9845369 -0.02726221 0.1730431 255 255 255 255 0.495422 0.175340
0.001132 0.002368 -0.00017 -0.9046443 0.01792382 -0.4257905 255 255 255 255 0.495422 0.175340
0.001321 0.002368 6e-05 0.04077929 -0.03351329 0.998606 255 255 255 255 0.495422 0.175340
0.00148 0.002368 -0.00017 0.8851845 0.03687866 -0.4637761 255 255 255 255 0.495422 0.175340
0.000645 -0.002586 -0.001261 0.3289006 -0.1555635 -0.9314636 255 255 255 255 0.495422 0.175340
0.000433 -0.002586 -0.001223 -0.9634456 -0.03082354 0.2661249 255 255 255 255 0.495422 0.175340
0.000393 0.004281 -0.0022 0.9168142 -0.04693937 -0.3965457 255 255 255 255 0.495422 0.175340
0.000181 0.004281 -0.002162 -0.6411246 0.05715766 -0.7653053 255 255 255 255 0.495422 0.175340
0.00037 0.004281 -0.001972 -0.2699757 0.04269451 0.9619201 255 255 255 255 0.495422 0.175340
0.000622 -0.002586 -0.001032 0.8053563 0.1609921 0.5705111 255 255 255 255 0.495422 0.175340
0.000259 0.002368 -0.001918 0.3328494 0.07375786 0.940091 255 255 255 255 0.495422 0.175340
0.000289 0.002368 -0.002214 0.681344 -0.01062142 -0.7318864 255 255 255 255 0.495422 0.175340
1.4e-05 0.002368 -0.002165 -0.9545333 -0.06638083 -0.2906197 255 255 255 255 0.495422 0.175340
-4.2e-05 -0.002586 -0.000692 -0.1033346 0.09010478 0.990557 255 255 255 255 0.495422 0.175340
0.000155 -0.002586 -0.000777 0.8832908 -0.04025061 -0.4670946 255 255 255 255 0.495422 0.175340
-4.2e-05 0.004281 -0.000692 -0.8073955 -0.1019248 0.5811402 255 255 255 255 0.495422 0.175340
0.000155 0.004281 -0.000777 0.7925572 -0.1619169 0.5879081 255 255 255 255 0.495422 0.175340
-7.2e-05 0.004281 -0.00092 0.03430084 0.2642183 -0.9638528 255 255 255 255 0.495422 0.175340
-7.2e-05 -0.002586 -0.00092 -0.9257866 -0.05819387 -0.3735409 255 255 255 255 0.495422 0.175340
-0.00017 0.002368 -0.001448 -0.5459598 0.02681983 -0.837382 255 255 255 255 0.495422 0.175340
-0.000132 0.002368 -0.001152 -0.5035331 -0.1028168 0.8578364 255 255 255 255 0.495422 0.175340
0.000124 0.002368 -0.001262 0.991794 0.09928925 0.08053759 255 255 255 255 0.495422 0.175340
3 37 66 8 
3 15 36 37 
3 37 36 66 
3 11 66 36 
3 8 66 67 
3 38 67 11 
3 11 67 66 
3 13 67 38 
3 8 39 37 
3 48 37 20 
3 20 37 39 
3 0 37 48 
3 9 40 41 
3 8 42 40 
3 10 41 42 
3 42 41 40 
3 10 42 43 
3 8 67 42 
3 13 43 67 
3 67 43 42 
3 8 40 39 
3 9 39 40 
3 37 44 15 
3 0 44 37 
3 45 49 68 
3 9 46 49 
3 49 46 68 
3 11 36 47 
3 15 14 36 
3 14 47 36 
3 9 49 39 
3 20 39 49 
3 9 41 50 
3 50 41 51 
3 10 51 41 
3 50 51 12 
3 12 51 69 
3 59 69 10 
3 10 69 51 
3 11 72 38 
3 13 38 72 
3 74 44 52 
3 0 48 44 
3 52 44 2 
3 2 44 48 
3 49 53 20 
3 20 53 16 
3 45 53 49 
3 12 54 50 
3 50 54 46 
3 68 46 54 
3 50 46 9 
3 11 17 72 
3 21 17 55 
3 17 11 55 
3 1 55 70 
3 47 70 11 
3 11 70 55 
3 14 1 47 
3 47 1 70 
3 14 44 56 
3 15 44 14 
3 74 56 44 
3 69 58 12 
3 12 58 57 
3 57 58 19 
3 10 43 59 
3 13 59 43 
3 20 16 48 
3 16 60 48 
3 2 48 60 
3 57 71 12 
3 12 71 54 
3 19 61 57 
3 57 61 71 
3 68 54 61 
3 61 54 71 
3 18 77 59 
3 69 59 77 
3 59 63 18 
3 18 63 62 
3 13 63 59 
3 6 62 63 
3 63 72 17 
3 63 13 72 
3 14 64 1 
3 1 64 73 
3 3 65 64 
3 64 65 73 
3 65 1 73 
3 3 64 22 
3 22 64 74 
3 14 56 64 
3 64 56 74 
3 19 58 83 
3 83 58 23 
3 69 23 58 
3 55 75 21 
3 1 24 55 
3 55 24 75 
3 4 75 24 
3 4 24 76 
3 1 65 24 
3 24 65 76 
3 3 76 65 
3 45 25 53 
3 53 25 16 
3 63 17 21 
3 6 63 21 
3 26 77 18 
3 26 23 77 
3 69 77 23 
3 7 27 28 
3 28 27 78 
3 3 22 27 
3 27 22 78 
3 74 28 22 
3 22 28 78 
3 52 29 74 
3 74 29 28 
3 2 29 52 
3 5 28 29 
3 5 29 25 
3 2 60 29 
3 25 29 16 
3 16 29 60 
3 68 30 45 
3 45 30 79 
3 5 25 30 
3 30 25 79 
3 45 79 25 
3 19 31 61 
3 61 31 80 
3 5 30 31 
3 31 30 80 
3 68 61 30 
3 30 61 80 
3 6 21 4 
3 4 21 75 
3 28 81 7 
3 7 81 5 
3 5 81 28 
3 19 32 31 
3 31 32 82 
3 5 82 7 
3 7 82 32 
3 31 82 5 
3 7 32 83 
3 19 83 32 
3 76 33 4 
3 3 33 76 
3 6 4 33 
3 3 27 33 
3 34 27 7 
3 6 33 34 
3 34 33 27 
3 18 35 26 
3 26 35 84 
3 84 35 83 
3 7 83 35 
3 26 84 23 
3 23 84 83 
3 34 35 6 
3 6 35 62 
3 7 35 34 
3 18 62 35 
3 92 93 88 
3 92 88 87 
3 89 88 93 
3 89 93 91 
3 91 92 87 
3 91 87 89 
3 90 85 92 
3 90 92 91 
3 85 86 93 
3 85 93 92 
3 91 93 86 
3 91 86 90 
3 101 102 97 
3 101 97 96 
3 98 97 102 
3 98 102 100 
3 100 101 96 
3 100 96 98 
3 99 94 101 
3 99 101 100 
3 94 95 102 
3 94 102 101 
3 100 102 95 
3 100 95 99 
3 110 111 106 
3 110 106 105 
3 107 106 111 
3 107 111 109 
3 109 110 105 
3 109 105 107 
3 108 103 110 
3 108 110 109 
3 103 104 111 
3 103 111 110 
3 109 111 104 
3 109 104 108 
