ply
format ascii 1.0
comment VCGLIB generated
comment TextureFile T://3111_3D//2020//SAM//Textures//Combined_Texture//Texture_01_A.png
element vertex 202
property float x
property float y
property float z
property float nx
property float ny
property float nz
property uchar red
property uchar green
property uchar blue
property uchar alpha
property float texture_u
property float texture_v
element face 330
property list uchar int vertex_indices
end_header
-0.003256 0 -0.015323 -0.3509751 0.4666458 -0.811824 255 255 255 255 0.329697 0.162912
-0.010831 0.000921 -0.005591 -0.7758488 0.576441 -0.2564653 255 255 255 255 0.329697 0.162912
0.010227 0.003988 0.009314 0.1409982 0.9830784 0.1169465 255 255 255 255 0.329697 0.162912
0.011463 0 -0.00989 0.7438115 -0.5654419 -0.3563985 255 255 255 255 0.329697 0.162912
-0.013763 0 -0.002744 -0.7526955 0.6479313 0.1167673 255 255 255 255 0.329697 0.162912
-0.005728 -0 0.015279 -0.6413926 0.4453295 0.6247377 255 255 255 255 0.329697 0.162912
0.005994 0 -0.015644 0.1876828 0.7692585 -0.6107509 255 255 255 255 0.329697 0.162912
0.010464 0.003656 0.006582 0.2175467 0.9463116 0.239098 255 255 255 255 0.329697 0.162912
-0.010128 0.001769 -0.008679 -0.8184852 0.42951 -0.3815798 255 255 255 255 0.329697 0.162912
0.006174 0.003824 0.013648 0.2004756 0.9029111 0.3802119 255 255 255 255 0.329697 0.162912
-0.002736 0.004952 0.004799 -0.2049508 0.9364709 0.2846355 255 255 255 255 0.329697 0.162912
-0.007324 0.002046 0.010867 -0.6082261 0.7351354 0.2993945 255 255 255 255 0.329697 0.162912
0.00623 0.002683 -0.014061 0.07342923 0.8211702 -0.5659396 255 255 255 255 0.329697 0.162912
0.003745 0 -0.016069 -0.03037521 0.482633 -0.8752959 255 255 255 255 0.329697 0.162912
0.013864 5.1e-05 0.002025 0.9858298 -0.1114877 0.1253397 255 255 255 255 0.329697 0.162912
0.014331 0 -0.002085 0.9751094 0.0546907 -0.2148734 255 255 255 255 0.329697 0.162912
0.005318 3e-05 0.015235 0.3828156 0.09381912 0.9190485 255 255 255 255 0.329697 0.162912
0.013381 -0 0.005387 0.911885 0.3617368 0.1939394 255 255 255 255 0.329697 0.162912
-0.006095 0.004505 -0.009398 -0.4756914 0.8487669 -0.2308951 255 255 255 255 0.329697 0.162912
-0.009825 0.001596 0.004543 -0.6701236 0.7001764 0.2463483 255 255 255 255 0.329697 0.162912
0.011306 0.00298 -0.009708 0.3878181 0.911235 -0.1387371 255 255 255 255 0.329697 0.162912
0.012603 0.003053 -0.004757 0.2815401 0.9507465 -0.1296778 255 255 255 255 0.329697 0.162912
-0.01044 0.003366 -0.002803 -0.3883836 0.9174866 -0.08588707 255 255 255 255 0.329697 0.162912
0.012856 0.003655 -0.001394 0.3378948 0.9197761 -0.1995971 255 255 255 255 0.329697 0.162912
-0.001003 0.003221 0.012952 -0.1332393 0.9374096 0.3217306 255 255 255 255 0.329697 0.162912
0.004758 0.003823 0.012781 -0.08449037 0.9670373 0.2402092 255 255 255 255 0.329697 0.162912
0.010069 0.005293 0.004201 0.3026537 0.9423595 0.1426862 255 255 255 255 0.329697 0.162912
0.002598 0.004214 0.008566 0.07306799 0.9511789 0.2998663 255 255 255 255 0.329697 0.162912
0.005784 0.003935 -0.003928 0.2026445 0.9511752 -0.2328109 255 255 255 255 0.329697 0.162912
-0.007361 0.003165 0.006344 -0.5654554 0.8078725 0.1661388 255 255 255 255 0.329697 0.162912
-0.008704 0.003339 0.001018 -0.5010045 0.8308801 0.2421421 255 255 255 255 0.329697 0.162912
0.006596 0.003495 -0.011371 0.2253539 0.8780153 -0.4222616 255 255 255 255 0.329697 0.162912
0.012226 0.0037 0.002554 0.6627071 0.7437661 0.08735728 255 255 255 255 0.329697 0.162912
-0.005879 0.001462 0.014267 -0.309129 0.7311152 0.6082022 255 255 255 255 0.329697 0.162912
-0.007777 0.001827 -0.011122 -0.4712842 0.6727321 -0.5703708 255 255 255 255 0.329697 0.162912
0.00055 -0 0.016627 -0.05653512 0.4073483 0.9115214 255 255 255 255 0.329697 0.162912
-0.010369 0 -0.009929 -0.662955 0.5088271 -0.5491683 255 255 255 255 0.329697 0.162912
-0.012688 0 -0.005854 -0.4134245 0.8893491 -0.1952906 255 255 255 255 0.329697 0.162912
0.012003 0.001814 -0.011641 0.7546404 0.2909046 -0.5881262 255 255 255 255 0.329697 0.162912
0.001713 0.003096 -0.010947 0.1495977 0.9101804 -0.386254 255 255 255 255 0.329697 0.162912
0.008999 0 -0.013213 0.554962 0.3564951 -0.7516173 255 255 255 255 0.329697 0.162912
-0.011838 0.002425 -0.001534 -0.67639 0.7332327 0.06976074 255 255 255 255 0.329697 0.162912
0.005467 0.002395 0.014951 0.4111162 0.3714143 0.8324872 255 255 255 255 0.329697 0.162912
-0.000289 0.006935 -0.00199 -0.001679768 0.9785143 -0.2061726 255 255 255 255 0.329697 0.162912
0.002417 0.001859 0.015839 0.02343879 0.71881 0.6948114 255 255 255 255 0.329697 0.162912
0.011138 0.003324 0.010602 0.716742 0.5868307 0.3767102 255 255 255 255 0.329697 0.162912
0.00077 0.002866 0.015236 0.0187728 0.9126457 0.4083203 255 255 255 255 0.329697 0.162912
-0.002032 0.001232 0.015444 -0.2196541 0.7251937 0.652569 255 255 255 255 0.329697 0.162912
-0.010502 0.003429 -0.005784 -0.4513883 0.8559467 -0.2521984 255 255 255 255 0.329697 0.162912
0.012031 3e-05 0.011539 0.699503 0.2850081 0.6553365 255 255 255 255 0.329697 0.162912
-0.009458 -0 0.008932 -0.7805833 0.5287234 0.3333787 255 255 255 255 0.329697 0.162912
0.003335 0.003949 -0.008577 0.1388381 0.9737215 -0.180528 255 255 255 255 0.329697 0.162912
0.00504 0.006399 -2.9e-05 0.2357965 0.9641028 -0.1220897 255 255 255 255 0.329697 0.162912
-0.004576 0.003227 0.011172 -0.2128801 0.9225682 0.3217918 255 255 255 255 0.329697 0.162912
0.001103 0.007392 0.001558 -0.01343127 0.9911091 0.1323719 255 255 255 255 0.329697 0.162912
-0.006478 0.003575 -0.006214 -0.3680765 0.9208919 -0.1283661 255 255 255 255 0.329697 0.162912
-0.004585 0.00583 0.001789 -0.3840392 0.9055655 0.1801804 255 255 255 255 0.329697 0.162912
0.005158 0.004749 0.005833 0.1138293 0.9666494 0.2294164 255 255 255 255 0.329697 0.162912
0.007448 0.003541 0.011185 0.08156309 0.9862784 0.1435358 255 255 255 255 0.329697 0.162912
0.014456 0.00175 -0.00112 0.9293581 0.3691702 -0.002641956 255 255 255 255 0.329697 0.162912
-0.000785 0.003226 -0.014133 0.01597699 0.8339216 -0.5516517 255 255 255 255 0.329697 0.162912
-0.003709 0.004765 -0.010204 -0.02906672 0.9563085 -0.2909109 255 255 255 255 0.329697 0.162912
-0.000301 0.003579 0.006734 -0.1189747 -0.4211186 0.8991686 255 255 255 255 0.330410 0.185127
0.014692 -0.000436 0.006704 -0.1967171 -0.1623229 0.96693 255 255 255 255 0.330410 0.185127
-0.001133 0.003887 0.006303 -0.6373727 0.7030456 0.3154094 255 255 255 255 0.330410 0.185127
0.015571 -0.000509 0.006505 0.9061084 0.3685066 0.207775 255 255 255 255 0.330410 0.185127
-0.000872 0.00391 0.005417 0.136062 0.4297379 -0.8926436 255 255 255 255 0.330410 0.185127
0.015285 -0.000349 0.005641 0.1955778 0.16615 -0.9665111 255 255 255 255 0.330410 0.185127
-5.9e-05 0.003607 0.005843 0.6617007 -0.6810835 -0.3134924 255 255 255 255 0.330410 0.185127
0.014394 -0.000274 0.005845 -0.908414 -0.3660751 -0.2019235 255 255 255 255 0.330410 0.185127
0.009175 0.006933 0.008582 0.2243193 0.7201759 -0.656527 255 255 255 255 0.330410 0.185127
0.009191 0.006836 0.009501 0.2791719 0.6146961 0.7377071 255 255 255 255 0.330410 0.185127
0.009038 0.006005 0.009439 -0.2366716 -0.715482 0.6573219 255 255 255 255 0.330410 0.185127
0.008997 0.006108 0.008522 -0.3051353 -0.6073182 -0.7335238 255 255 255 255 0.330410 0.185127
0.003126 0.006736 0.00743 -0.1318727 0.8835582 -0.4493713 255 255 255 255 0.330410 0.185127
0.002975 0.006683 0.00834 -0.3941951 0.3695834 0.8414383 255 255 255 255 0.330410 0.185127
0.003184 0.006127 0.008342 0.1287058 -0.8832842 0.4508258 255 255 255 255 0.330410 0.185127
0.003335 0.00618 0.007432 0.3947875 -0.3665733 -0.8424767 255 255 255 255 0.330410 0.185127
0.012612 0.003861 0.006199 -0.6551105 -0.4503797 -0.6066204 255 255 255 255 0.330410 0.185127
0.012982 0.003683 0.007026 -0.3011706 -0.4947661 0.8151705 255 255 255 255 0.330410 0.185127
0.013564 0.004308 0.0069 0.6478249 0.4549228 0.6110386 255 255 255 255 0.330410 0.185127
0.013194 0.004486 0.006073 0.2965969 0.5054512 -0.8102773 255 255 255 255 0.330410 0.185127
-0.002622 0.005431 0.00084 0.8861548 -0.3635528 -0.287331 255 255 255 255 0.330410 0.185127
-0.00925 -0.00028 -0.011981 0.9576693 -0.09430649 -0.2719852 255 255 255 255 0.330410 0.185127
-0.002642 0.005813 0.001749 0.5076078 0.7854815 0.3540526 255 255 255 255 0.330410 0.185127
-0.009827 -0.000462 -0.012651 -0.2733968 0.2707954 -0.9229974 255 255 255 255 0.330410 0.185127
-0.003545 0.005764 0.001938 -0.8892439 0.3702656 0.2686051 255 255 255 255 0.330410 0.185127
-0.01047 -0.00031 -0.012005 -0.9571666 0.09808049 0.2724195 255 255 255 255 0.330410 0.185127
-0.003521 0.00539 0.001047 -0.519368 -0.766424 -0.3779565 255 255 255 255 0.330410 0.185127
-0.009882 -0.000124 -0.011326 0.2799809 -0.2680362 0.9218283 255 255 255 255 0.330410 0.185127
-0.005725 0.007753 -0.008618 -0.7502086 0.6588365 0.05587088 255 255 255 255 0.330410 0.185127
-0.004914 0.007697 -0.009058 0.4609742 0.6115013 -0.6430933 255 255 255 255 0.330410 0.185127
-0.004819 0.006887 -0.008828 0.7561832 -0.6527544 -0.04581302 255 255 255 255 0.330410 0.185127
-0.005617 0.006952 -0.008367 -0.445906 -0.600973 0.6633245 255 255 255 255 0.330410 0.185127
-0.003903 0.008201 -0.002748 -0.4178393 0.8712143 0.2576742 255 255 255 255 0.330410 0.185127
-0.003027 0.008208 -0.003042 0.8891086 0.4503452 -0.08170147 255 255 255 255 0.330410 0.185127
-0.00307 0.007632 -0.003182 0.4204646 -0.8705834 -0.255527 255 255 255 255 0.330410 0.185127
-0.003946 0.007625 -0.002889 -0.8905136 -0.4476016 0.08147598 255 255 255 255 0.330410 0.185127
-0.009132 0.004201 -0.01026 -0.1860932 -0.399143 0.8978052 255 255 255 255 0.330410 0.185127
-0.008559 0.004019 -0.010962 0.9042512 -0.4191182 -0.08166932 255 255 255 255 0.330410 0.185127
-0.009 0.004566 -0.011463 0.1931136 0.4045369 -0.8938999 255 255 255 255 0.330410 0.185127
-0.009573 0.004748 -0.010761 -0.8987634 0.4306491 0.08225439 255 255 255 255 0.330410 0.185127
0.013755 -0.000233 -0.010293 -0.6308494 -0.2733144 -0.7261738 255 255 255 255 0.330410 0.185127
0.003872 0.004151 -0.00407 -0.6298244 -0.4229452 -0.6514896 255 255 255 255 0.330410 0.185127
0.014524 -0.00041 -0.010369 0.5390881 0.3546532 -0.7639406 255 255 255 255 0.330410 0.185127
0.003441 0.004519 -0.003616 -0.4833626 0.8738469 -0.05246036 255 255 255 255 0.330410 0.185127
0.014772 -0.00025 -0.009688 0.6255307 0.2842717 0.726568 255 255 255 255 0.330410 0.185127
0.004037 0.004512 -0.003173 0.6181025 0.4181557 0.6656539 255 255 255 255 0.330410 0.185127
0.014018 -7.9e-05 -0.009616 -0.5435913 -0.3372563 0.7686135 255 255 255 255 0.330410 0.185127
0.004473 0.00414 -0.003635 0.4575735 -0.8852352 0.08357682 255 255 255 255 0.330410 0.185127
0.008624 0.005089 -0.008852 0.4235469 0.7949008 0.434443 255 255 255 255 0.330410 0.185127
0.008179 0.005009 -0.009441 -0.2651042 0.6249884 -0.7342407 255 255 255 255 0.330410 0.185127
0.007974 0.004396 -0.009227 -0.4148344 -0.7967125 -0.4395016 255 255 255 255 0.330410 0.185127
0.008434 0.004468 -0.008649 0.2873733 -0.6346723 0.7173616 255 255 255 255 0.330410 0.185127
0.012855 0.003227 -0.009527 0.6682997 0.7399944 0.07605154 255 255 255 255 0.330410 0.185127
0.012524 0.003099 -0.010178 0.01004919 0.1387911 -0.9902707 255 255 255 255 0.330410 0.185127
0.012193 0.002834 -0.009958 -0.6560384 -0.7499086 -0.08515076 255 255 255 255 0.330410 0.185127
0.012525 0.002962 -0.009306 -0.005220959 -0.1397262 0.9901764 255 255 255 255 0.330410 0.185127
0.006463 0.004935 -0.006159 0.5388671 -0.7087291 0.4553299 255 255 255 255 0.330410 0.185127
0.005828 0.00497 -0.006544 -0.521792 -0.6712426 -0.5264661 255 255 255 255 0.330410 0.185127
0.005797 0.005653 -0.006429 -0.5452402 0.7069903 -0.4504197 255 255 255 255 0.330410 0.185127
0.006431 0.005618 -0.006044 0.5109516 0.6684446 0.5404724 255 255 255 255 0.330410 0.185127
-0.009803 -6.9e-05 0.009135 -0.8040833 -0.3114396 0.5064144 255 255 255 255 0.330410 0.185127
-0.001675 -0.000254 0.016622 -0.9027756 -0.2301972 0.3633256 255 255 255 255 0.330410 0.185127
-0.010005 -1.9e-05 0.008222 -0.5729336 0.6328527 -0.5208115 255 255 255 255 0.330410 0.185127
-0.001027 -0.000113 0.017267 0.2242774 0.4688942 0.8543055 255 255 255 255 0.330410 0.185127
-0.009103 -1.9e-05 0.008023 0.8051906 0.3166584 -0.5013937 255 255 255 255 0.330410 0.185127
-0.000375 -0.000113 0.016612 0.9008642 0.2343677 -0.3653978 255 255 255 255 0.330410 0.185127
-0.008901 -6.9e-05 0.008936 0.5751492 -0.6224116 0.5308551 255 255 255 255 0.330410 0.185127
-0.001024 -0.000254 0.015967 -0.2283361 -0.4602782 -0.8579082 255 255 255 255 0.330410 0.185127
-0.006295 0.004021 0.013292 0.4492498 0.6596038 -0.6025756 255 255 255 255 0.330410 0.185127
-0.007066 0.004021 0.0138 -0.3809042 0.7504066 0.5401869 255 255 255 255 0.330410 0.185127
-0.007094 0.003176 0.013913 -0.4818012 -0.6701143 0.5646366 255 255 255 255 0.330410 0.185127
-0.006316 0.003176 0.013413 0.3373175 -0.7423589 -0.5788957 255 255 255 255 0.330410 0.185127
-0.008372 0.003369 0.011336 0.2726483 0.7297104 -0.6270452 255 255 255 255 0.330410 0.185127
-0.009274 0.003369 0.011535 -0.8503053 0.4847345 0.2049717 255 255 255 255 0.330410 0.185127
-0.0092 0.002822 0.011871 -0.2989599 -0.7449892 0.5963339 255 255 255 255 0.330410 0.185127
-0.008298 0.002822 0.011672 0.8361305 -0.4950066 -0.236335 255 255 255 255 0.330410 0.185127
-0.002297 0.002741 0.014699 0.2421992 -0.5974177 -0.7644814 255 255 255 255 0.330410 0.185127
-0.002949 0.002741 0.015354 -0.7428256 -0.5732803 0.3457744 255 255 255 255 0.330410 0.185127
-0.002627 0.003553 0.015675 -0.2504649 0.6009533 0.7590273 255 255 255 255 0.330410 0.185127
-0.001975 0.003553 0.01502 0.7312496 0.5823011 -0.3552457 255 255 255 255 0.330410 0.185127
-0.005624 0.003277 0.0074 0.4042877 -0.09584886 0.9095958 255 255 255 255 0.330410 0.185127
0.003973 0.005874 0.002575 0.06065504 0.01278045 0.998077 255 255 255 255 0.330410 0.185127
-0.006502 0.002958 0.007457 -0.8280832 0.3974688 0.3953441 255 255 255 255 0.330410 0.185127
0.00475 0.006151 0.002154 0.6442651 0.764006 -0.03489362 255 255 255 255 0.330410 0.185127
-0.00653 0.002869 0.006538 -0.4010747 0.1020662 -0.9103415 255 255 255 255 0.330410 0.185127
0.004415 0.005862 0.001344 -0.06548511 -0.007467112 -0.9978257 255 255 255 255 0.330410 0.185127
-0.005651 0.003188 0.00648 0.8321012 -0.3845728 -0.3996391 255 255 255 255 0.330410 0.185127
0.003638 0.005585 0.001764 -0.6549892 -0.7548134 0.03529864 255 255 255 255 0.330410 0.185127
-0.002147 0.008328 0.004743 -0.5518804 0.3910739 -0.7365388 255 255 255 255 0.330410 0.185127
-0.001954 0.008529 0.005622 0.08920738 0.9007841 0.425006 255 255 255 255 0.330410 0.185127
-0.001635 0.007869 0.005803 0.5245759 -0.4120715 0.7449948 255 255 255 255 0.330410 0.185127
-0.001824 0.007689 0.004921 -0.1264971 -0.9025065 -0.4116801 255 255 255 255 0.330410 0.185127
-0.004574 0.007191 0.006148 -0.7162381 0.4709198 -0.5150123 255 255 255 255 0.330410 0.185127
-0.004631 0.007311 0.007063 -0.194607 0.5359946 0.8214852 255 255 255 255 0.330410 0.185127
-0.004125 0.006932 0.007133 0.6978051 -0.4907644 0.5217455 255 255 255 255 0.330410 0.185127
-0.004074 0.006819 0.006218 0.1748462 -0.5482762 -0.8178154 255 255 255 255 0.330410 0.185127
0.001177 0.007728 0.001889 -0.3468987 -0.8622514 -0.369031 255 255 255 255 0.330410 0.185127
0.001513 0.008017 0.0027 0.1929945 -0.3436461 0.9190542 255 255 255 255 0.330410 0.185127
0.001684 0.008743 0.002333 0.3389386 0.8654844 0.3688597 255 255 255 255 0.330410 0.185127
0.001348 0.008454 0.001523 -0.2078491 0.3475434 -0.9143372 255 255 255 255 0.330410 0.185127
0.002503 0.002817 -0.004708 0.9484957 -0.2851055 -0.138097 255 255 255 255 0.330410 0.185127
0.004341 -9.8e-05 -0.016411 0.8973584 0.1885167 0.3990106 255 255 255 255 0.330410 0.185127
0.002225 0.00288 -0.003763 0.4530474 0.8120474 0.3678683 255 255 255 255 0.330410 0.185127
0.004274 -9.8e-05 -0.017267 0.2568205 0.3340683 -0.9068857 255 255 255 255 0.330410 0.185127
0.001306 0.002916 -0.003854 -0.9478003 0.2764179 0.1589584 255 255 255 255 0.330410 0.185127
0.003351 -6.1e-05 -0.017001 -0.9003759 -0.1585553 -0.4051956 255 255 255 255 0.330410 0.185127
0.001583 0.002853 -0.004778 -0.4585963 -0.8256602 -0.3285949 255 255 255 255 0.330410 0.185127
0.003365 -5.9e-05 -0.016155 -0.2825269 -0.3358741 0.8985361 255 255 255 255 0.330410 0.185127
0.00226 0.00588 -0.013613 -0.7044435 0.5375527 -0.4634615 255 255 255 255 0.330410 0.185127
0.002961 0.005758 -0.014133 0.7108226 0.6905527 -0.1336726 255 255 255 255 0.330410 0.185127
0.003082 0.005006 -0.013544 0.7179789 -0.5430372 0.4354503 255 255 255 255 0.330410 0.185127
0.002398 0.005151 -0.013064 -0.7204582 -0.682098 0.1252294 255 255 255 255 0.330410 0.185127
0.001319 0.006006 -0.010286 -0.3907992 0.9121171 0.1237675 255 255 255 255 0.330410 0.185127
0.002236 0.00588 -0.0103 0.8432853 0.4985895 0.2006953 255 255 255 255 0.330410 0.185127
0.002162 0.005123 -0.010462 0.3779434 -0.9157355 -0.1363351 255 255 255 255 0.330410 0.185127
0.001245 0.005249 -0.010449 -0.8285729 -0.5081971 -0.2349528 255 255 255 255 0.330410 0.185127
0.002334 0.003405 -0.015246 -0.6168146 -0.5462331 0.566718 255 255 255 255 0.330410 0.185127
0.003252 0.002978 -0.015445 0.8006155 -0.1347115 0.5838387 255 255 255 255 0.330410 0.185127
0.003043 0.003679 -0.01618 0.5997788 0.5763577 -0.555047 255 255 255 255 0.330410 0.185127
0.002135 0.004103 -0.015976 -0.8144054 0.1517773 -0.560096 255 255 255 255 0.330410 0.185127
-0.014644 -6.9e-05 0.001098 0.3664942 0.08731254 0.9263145 255 255 255 255 0.330410 0.185127
-0.006425 0.003869 -0.000539 -0.1050093 -0.5576932 0.823378 255 255 255 255 0.330410 0.185127
-0.015571 -1.9e-05 0.000974 -0.8533528 0.417697 0.3119588 255 255 255 255 0.330410 0.185127
-0.005768 0.004521 -0.000523 0.3394936 0.7586609 0.5560377 255 255 255 255 0.330410 0.185127
-0.015448 -1.9e-05 5.8e-05 -0.3563105 -0.04752224 -0.9331583 255 255 255 255 0.330410 0.185127
-0.00593 0.004705 -0.001414 0.103802 0.5578322 -0.8234369 255 255 255 255 0.330410 0.185127
-0.014521 -6.9e-05 0.000183 0.8871256 -0.3413435 -0.3106329 255 255 255 255 0.330410 0.185127
-0.006588 0.004053 -0.001429 -0.3415729 -0.7584221 -0.5550891 255 255 255 255 0.330410 0.185127
-0.012064 0.004594 0.000334 -0.2639826 0.8015385 -0.536516 255 255 255 255 0.330410 0.185127
-0.012057 0.004302 0.00121 -0.173507 0.5704116 0.8028238 255 255 255 255 0.330410 0.185127
-0.011513 0.003657 0.001081 0.2101046 -0.8200119 0.5323877 255 255 255 255 0.330410 0.185127
-0.011511 0.003955 0.000206 0.1067976 -0.5955423 -0.7961932 255 255 255 255 0.330410 0.185127
-0.01413 0.003167 -0.000556 -0.6497911 0.5847349 -0.4856508 255 255 255 255 0.330410 0.185127
-0.014277 0.003159 0.000356 -0.450687 0.2582744 0.8545031 255 255 255 255 0.330410 0.185127
-0.013771 0.002764 0.000434 0.642168 -0.5841005 0.4964342 255 255 255 255 0.330410 0.185127
-0.013624 0.002772 -0.000478 0.4394606 -0.2505444 -0.8626134 255 255 255 255 0.330410 0.185127
-0.008822 0.004872 -0.001214 -0.1190857 -0.5685001 -0.8140185 255 255 255 255 0.330410 0.185127
-0.00866 0.004688 -0.000324 0.09844229 -0.7935801 0.6004497 255 255 255 255 0.330410 0.185127
-0.008754 0.005591 -0.00012 0.09129347 0.5635586 0.821016 255 255 255 255 0.330410 0.185127
-0.008916 0.005776 -0.00101 -0.1236238 0.7902426 -0.6001948 255 255 255 255 0.330410 0.185127
3 48 34 8 
3 31 51 20 
3 24 47 46 
3 20 15 38 
3 45 49 17 
3 19 4 50 
3 14 15 59 
3 41 4 19 
3 35 16 44 
3 47 35 44 
3 18 60 34 
3 46 47 44 
3 39 6 60 
3 44 42 25 
3 32 26 7 
3 55 18 34 
3 22 48 1 
3 33 53 11 
3 54 24 27 
3 22 30 56 
3 57 54 27 
3 24 10 53 
3 54 10 24 
3 55 48 22 
3 59 32 17 
3 11 50 5 
3 8 36 1 
3 9 42 45 
3 38 31 20 
3 7 2 45 
3 39 12 6 
3 1 41 22 
3 11 56 29 
3 28 23 21 
3 7 52 54 
3 57 27 25 
3 57 7 54 
3 54 52 28 
3 54 43 22 
3 43 28 51 
3 54 28 43 
3 54 56 10 
3 54 22 56 
3 43 55 22 
3 57 2 7 
3 53 56 11 
3 18 55 43 
3 27 24 46 
3 28 20 51 
3 34 48 55 
3 60 43 39 
3 24 53 47 
3 30 22 41 
3 20 28 21 
3 56 19 29 
3 23 59 21 
3 23 52 32 
3 2 57 58 
3 9 58 25 
3 51 12 39 
3 45 32 7 
3 23 32 59 
3 58 9 45 
3 30 19 56 
3 21 59 20 
3 0 34 60 
3 60 6 13 
3 38 40 31 
3 59 15 20 
3 42 49 45 
3 11 19 50 
3 36 34 0 
3 45 17 32 
3 30 41 19 
3 12 40 6 
3 31 40 12 
3 40 38 3 
3 42 44 16 
3 47 33 35 
3 13 0 60 
3 17 14 59 
3 33 5 35 
3 4 1 37 
3 16 49 42 
3 1 36 37 
3 41 1 4 
3 38 15 3 
3 34 36 8 
3 1 48 8 
3 11 5 33 
3 53 33 47 
3 45 2 58 
3 12 51 31 
3 25 42 9 
3 19 11 29 
3 46 44 27 
3 26 32 52 
3 18 43 61 
3 26 52 7 
3 25 58 57 
3 52 23 28 
3 10 56 53 
3 51 39 43 
3 44 25 27 
3 61 43 60 
3 61 60 18 
3 71 72 79 
3 71 79 80 
3 70 71 80 
3 70 80 81 
3 73 70 81 
3 73 81 78 
3 72 73 78 
3 72 78 79 
3 74 75 71 
3 74 71 70 
3 75 76 72 
3 75 72 71 
3 76 77 73 
3 76 73 72 
3 77 74 70 
3 77 70 73 
3 64 75 74 
3 64 74 66 
3 62 76 75 
3 62 75 64 
3 68 77 76 
3 68 76 62 
3 66 74 77 
3 66 77 68 
3 79 78 69 
3 79 69 63 
3 80 79 63 
3 80 63 65 
3 81 80 65 
3 81 65 67 
3 78 81 67 
3 78 67 69 
3 91 92 99 
3 91 99 100 
3 90 91 100 
3 90 100 101 
3 93 90 101 
3 93 101 98 
3 92 93 98 
3 92 98 99 
3 94 95 91 
3 94 91 90 
3 95 96 92 
3 95 92 91 
3 96 97 93 
3 96 93 92 
3 97 94 90 
3 97 90 93 
3 84 95 94 
3 84 94 86 
3 82 96 95 
3 82 95 84 
3 88 97 96 
3 88 96 82 
3 86 94 97 
3 86 97 88 
3 99 98 89 
3 99 89 83 
3 100 99 83 
3 100 83 85 
3 101 100 85 
3 101 85 87 
3 98 101 87 
3 98 87 89 
3 111 112 119 
3 111 119 120 
3 110 111 120 
3 110 120 121 
3 113 110 121 
3 113 121 118 
3 112 113 118 
3 112 118 119 
3 114 115 111 
3 114 111 110 
3 115 116 112 
3 115 112 111 
3 116 117 113 
3 116 113 112 
3 117 114 110 
3 117 110 113 
3 104 115 114 
3 104 114 106 
3 102 116 115 
3 102 115 104 
3 108 117 116 
3 108 116 102 
3 106 114 117 
3 106 117 108 
3 119 118 109 
3 119 109 103 
3 120 119 103 
3 120 103 105 
3 121 120 105 
3 121 105 107 
3 118 121 107 
3 118 107 109 
3 131 132 139 
3 131 139 140 
3 130 131 140 
3 130 140 141 
3 133 130 141 
3 133 141 138 
3 132 133 138 
3 132 138 139 
3 134 135 131 
3 134 131 130 
3 135 136 132 
3 135 132 131 
3 136 137 133 
3 136 133 132 
3 137 134 130 
3 137 130 133 
3 124 135 134 
3 124 134 126 
3 122 136 135 
3 122 135 124 
3 128 137 136 
3 128 136 122 
3 126 134 137 
3 126 137 128 
3 139 138 129 
3 139 129 123 
3 140 139 123 
3 140 123 125 
3 141 140 125 
3 141 125 127 
3 138 141 127 
3 138 127 129 
3 151 152 159 
3 151 159 160 
3 150 151 160 
3 150 160 161 
3 153 150 161 
3 153 161 158 
3 152 153 158 
3 152 158 159 
3 154 155 151 
3 154 151 150 
3 155 156 152 
3 155 152 151 
3 156 157 153 
3 156 153 152 
3 157 154 150 
3 157 150 153 
3 144 155 154 
3 144 154 146 
3 142 156 155 
3 142 155 144 
3 148 157 156 
3 148 156 142 
3 146 154 157 
3 146 157 148 
3 159 158 149 
3 159 149 143 
3 160 159 143 
3 160 143 145 
3 161 160 145 
3 161 145 147 
3 158 161 147 
3 158 147 149 
3 171 172 179 
3 171 179 180 
3 170 171 180 
3 170 180 181 
3 173 170 181 
3 173 181 178 
3 172 173 178 
3 172 178 179 
3 174 175 171 
3 174 171 170 
3 175 176 172 
3 175 172 171 
3 176 177 173 
3 176 173 172 
3 177 174 170 
3 177 170 173 
3 164 175 174 
3 164 174 166 
3 162 176 175 
3 162 175 164 
3 168 177 176 
3 168 176 162 
3 166 174 177 
3 166 177 168 
3 179 178 169 
3 179 169 163 
3 180 179 163 
3 180 163 165 
3 181 180 165 
3 181 165 167 
3 178 181 167 
3 178 167 169 
3 191 192 199 
3 191 199 200 
3 190 191 200 
3 190 200 201 
3 193 190 201 
3 193 201 198 
3 192 193 198 
3 192 198 199 
3 194 195 191 
3 194 191 190 
3 195 196 192 
3 195 192 191 
3 196 197 193 
3 196 193 192 
3 197 194 190 
3 197 190 193 
3 184 195 194 
3 184 194 186 
3 182 196 195 
3 182 195 184 
3 188 197 196 
3 188 196 182 
3 186 194 197 
3 186 197 188 
3 199 198 189 
3 199 189 183 
3 200 199 183 
3 200 183 185 
3 201 200 185 
3 201 185 187 
3 198 201 187 
3 198 187 189 
