ply
format ascii 1.0
comment VCGLIB generated
comment TextureFile Textures//Combined_Texture//Texture_01_A.png
element vertex 414
property float x
property float y
property float z
property float nx
property float ny
property float nz
property uchar red
property uchar green
property uchar blue
property uchar alpha
property float texture_u
property float texture_v
element face 756
property list uchar int vertex_indices
end_header
0.000825 0.002186 -0.002179 0.2291926 0.4171255 -0.8794755 255 255 255 255 0.187302 0.030907
-0.001747 0.002212 -0.001347 -0.7360041 0.5096805 -0.4455601 255 255 255 255 0.187308 0.030941
-0.001765 0.002213 0.001347 -0.6470315 0.478256 0.5938194 255 255 255 255 0.187308 0.030941
0.000774 0.002189 0.002179 0.3924305 0.3791927 0.8379805 255 255 255 255 0.187302 0.030907
0.00237 0.002172 0 0.9325981 0.3465276 -0.1008932 255 255 255 255 0.187298 0.030885
0.034505 0.04089 -0.000749 0.23173 -0.51623 -0.8245046 255 255 255 255 0.495925 0.152008
0.033732 0.040707 -0.000186 -0.5358405 -0.6600851 -0.5264624 255 255 255 255 0.495926 0.152008
0.03407 0.040785 0.000678 -0.5325741 -0.6941701 0.4842446 255 255 255 255 0.495926 0.152008
0.035067 0.04101 0.00065 0.4004887 -0.4790407 0.7811074 255 255 255 255 0.495925 0.152008
0.035333 0.04107 -0.000232 0.8461309 -0.5329443 -0.005731353 255 255 255 255 0.495926 0.152008
0.03405 0.041712 -0.002364 0.02967674 -0.4472353 -0.8939239 255 255 255 255 0.495926 0.152008
0.031443 0.041122 -0.000605 -0.7863687 -0.5758539 -0.2236437 255 255 255 255 0.495926 0.152008
0.032548 0.041382 0.002099 -0.2789998 -0.5444724 0.7910177 255 255 255 255 0.495926 0.152008
0.035862 0.04206 0.002011 0.6299211 -0.4687633 0.6192417 255 255 255 255 0.495926 0.152008
0.0368 0.04221 -0.000747 0.8205197 -0.4565139 -0.3440094 255 255 255 255 0.495925 0.152008
0.035121 0.049352 -0.001135 0.1666287 0.13664 -0.9765062 255 255 255 255 0.495925 0.152008
0.03391 0.049184 -0.00029 -0.8253318 0.2714082 -0.4951415 255 255 255 255 0.495926 0.152008
0.035153 0.049353 3.8e-05 -0.1289316 0.9916533 -0.0007024149 255 255 255 255 0.495926 0.152008
0.034409 0.049257 0.001008 -0.708604 0.25992 0.6559893 255 255 255 255 0.495926 0.152008
0.035944 0.049456 0.000966 0.3790815 0.1250001 0.9168818 255 255 255 255 0.495925 0.152008
0.036369 0.049504 -0.000359 0.9938327 0.06012511 -0.09317487 255 255 255 255 0.495925 0.152008
0.00038 0.010851 -0.000208 -0.7359357 0.4515746 -0.5044592 255 255 255 255 0.211700 0.030936
0.001138 0.01111 0.000972 -0.6277752 0.313138 0.712631 255 255 255 255 0.211700 0.030936
0.002081 0.009721 0.000955 0.3509387 -0.1329681 0.9269097 255 255 255 255 0.211695 0.030905
0.002152 0.009278 -0.000382 0.9370278 -0.3184626 -0.1433895 255 255 255 255 0.211692 0.030885
0.000915 0.009266 -0.000955 0.2151148 0.03984748 -0.9757755 255 255 255 255 0.211695 0.030905
0.007152 0.015905 -0.000954 0.1515047 -0.1095012 -0.9823726 255 255 255 255 0.238668 0.030903
0.007161 0.014991 5.6e-05 0.6690223 -0.7374177 -0.0928674 255 255 255 255 0.238665 0.030885
0.006294 0.016018 0.000954 0.2425953 -0.3075573 0.9200848 255 255 255 255 0.238668 0.030903
0.006056 0.017432 0.000568 -0.4487239 0.4802784 0.7536442 255 255 255 255 0.238672 0.030932
0.006244 0.017482 -0.000681 -0.539107 0.6912274 -0.4812156 255 255 255 255 0.238672 0.030932
0.019624 0.024556 -0.000982 0.04074731 -0.06183239 -0.9972545 255 255 255 255 0.267666 0.030901
0.020269 0.023593 -0.000364 0.5415533 -0.8132353 -0.2129984 255 255 255 255 0.267663 0.030885
0.019313 0.023236 0.000632 0.3150529 -0.4702891 0.8243603 255 255 255 255 0.267666 0.030901
0.019426 0.024239 0.000998 -0.2815682 0.4801584 0.8307631 255 255 255 255 0.267670 0.030927
0.019171 0.024906 -0.00014 -0.5124002 0.8016405 -0.3079262 255 255 255 255 0.267670 0.030927
0.035301 0.034998 -0.000812 0.03846845 -0.08663981 -0.9954967 255 255 255 255 0.295000 0.030899
0.03624 0.034628 0 0.8189008 -0.4816856 -0.3120584 255 255 255 255 0.294998 0.030885
0.034396 0.033486 0.000812 0.3352681 -0.1500992 0.930089 255 255 255 255 0.295000 0.030899
0.032983 0.034083 0.000502 -0.4644734 0.3203962 0.8255972 255 255 255 255 0.295004 0.030922
0.03397 0.035597 -0.000502 -0.736055 0.3730131 -0.5648755 255 255 255 255 0.295004 0.030922
0.001234 2.6e-05 -0.003887 0.3324989 0.236203 -0.9130458 255 255 255 255 0.494311 0.174894
-0.003353 7.1e-05 -0.002403 -0.7649436 0.2491392 -0.5939621 255 255 255 255 0.494311 0.174894
-0.003386 7.4e-05 0.002403 -0.7969435 0.2408383 0.5539657 255 255 255 255 0.494311 0.174894
0.001145 3e-05 0.003887 0.2904193 0.2175951 0.931831 255 255 255 255 0.494311 0.174894
0.00399 -0 0 0.976128 0.2157826 0.02473956 255 255 255 255 0.494311 0.174894
0.000666 -0.009399 -0.001517 0.07769078 -0.2475471 -0.965756 255 255 255 255 0.494311 0.174894
-0.001124 -0.009381 -0.000938 -0.8888285 -0.2672892 -0.3722101 255 255 255 255 0.494311 0.174894
0.000122 -0.009392 0 -0.009900314 -0.9999509 0.000522494 255 255 255 255 0.494311 0.174894
-0.001137 -0.00938 0.000938 -0.628065 -0.262915 0.7324002 255 255 255 255 0.494311 0.174894
0.000631 -0.009397 0.001517 0.5070128 -0.2360669 0.8289815 255 255 255 255 0.494311 0.174894
0.001741 -0.009409 0 0.9486567 -0.2267189 -0.2205654 255 255 255 255 0.494311 0.174894
0.039676 0.046709 0.002187 -0.2599816 -0.8893623 0.3760908 255 255 255 255 0.484084 0.278556
0.054746 0.042071 -0.001582 0.5585124 -0.6851858 0.46753 255 255 255 255 0.484084 0.278556
0.040206 0.048047 0.002209 0.1100809 0.7218208 0.6832694 255 255 255 255 0.484084 0.278556
0.040725 0.046928 -0.004514 -0.125367 0.6588985 -0.7417115 255 255 255 255 0.484084 0.278556
0.052769 0.041836 -0.007299 -0.01908113 -0.3229337 -0.9462292 255 255 255 255 0.484084 0.278556
0.040527 0.046457 -0.004457 -0.03046252 -0.9884217 0.1486425 255 255 255 255 0.484084 0.278556
0.0336 0.047425 5.4e-05 -0.6643968 -0.7261285 0.1769583 255 255 255 255 0.484084 0.278556
0.034592 0.049174 -8.6e-05 -0.2471872 0.9525476 -0.1776275 255 255 255 255 0.484084 0.278556
0.055338 0.037789 -0.005142 0.4918871 -0.840848 -0.2258801 255 255 255 255 0.484084 0.278556
0.044532 0.045918 -0.002355 -0.1572019 -0.9871106 0.03000462 255 255 255 255 0.484084 0.278556
0.045794 0.04666 -0.004889 -0.1978277 -0.9024447 -0.3826982 255 255 255 255 0.484084 0.278556
0.04594 0.047541 -0.005316 0.02854852 0.8433564 -0.5365956 255 255 255 255 0.484084 0.278556
0.044929 0.048611 -0.002432 0.1140525 0.9929866 -0.03113856 255 255 255 255 0.484084 0.278556
0.047986 0.046534 0.000363 0.6381843 -0.1428618 0.7565126 255 255 255 255 0.484084 0.278556
0.040104 0.047008 -0.001386 -0.125784 -0.9746144 -0.1852167 255 255 255 255 0.484084 0.278556
0.040639 0.04893 -0.001502 -0.005153852 0.9925693 0.1215715 255 255 255 255 0.484084 0.278556
0.042058 0.047074 0.000634 0.2022959 0.7542163 0.6246873 255 255 255 255 0.484084 0.278556
0.041905 0.045451 0.001127 -0.01455241 -0.9954938 0.09370289 255 255 255 255 0.484084 0.278556
0.049821 0.045615 -0.003979 -0.3568975 -0.9229019 -0.144486 255 255 255 255 0.484084 0.278556
0.052208 0.044748 -0.001844 0.2574861 -0.5385925 0.8022587 255 255 255 255 0.484084 0.278556
0.050604 0.047137 -0.003939 0.4148859 0.9077466 -0.06217627 255 255 255 255 0.484084 0.278556
0.050839 0.045216 -0.007586 -0.3244657 0.2650876 -0.9079926 255 255 255 255 0.484084 0.278556
0.054076 0.044283 -0.004757 0.847629 0.4892361 -0.205361 255 255 255 255 0.484084 0.278556
0.052576 0.043308 -0.004394 -0.7866501 -0.5847093 0.1982337 255 255 255 255 0.484084 0.278556
0.03749 0.047596 -0.000735 -0.144327 -0.9895288 0.001584296 255 255 255 255 0.484084 0.278556
0.037772 0.048351 -0.000786 0.1084999 0.9892216 -0.09832875 255 255 255 255 0.484084 0.278556
0.054449 0.041337 -0.001783 0.241676 -0.01055908 0.9702995 255 255 255 255 0.484084 0.278556
0.050258 0.045758 -0.007043 0.2106795 -0.2342939 -0.949063 255 255 255 255 0.484084 0.278556
0.048444 0.046989 -0.000354 0.4065075 0.8255559 0.3914195 255 255 255 255 0.484084 0.278556
0.048221 0.046421 4.6e-05 -0.3062551 -0.4493302 0.8392319 255 255 255 255 0.484084 0.278556
0.04244 0.046876 -0.004972 -0.4969236 0.0327689 -0.8671754 255 255 255 255 0.484084 0.278556
0.039181 0.046705 -0.001207 0.2351492 -0.663813 0.7099699 255 255 255 255 0.484084 0.278556
0.048962 0.044775 -0.011935 0.8937064 -0.328294 0.3057974 255 255 255 255 0.484084 0.278556
0.039639 0.047884 -0.00098 0.3590081 0.5229086 0.7730976 255 255 255 255 0.484084 0.278556
0.036423 0.048937 -0.006388 -0.4672609 0.8696845 -0.1591106 255 255 255 255 0.484084 0.278556
0.043794 0.045963 -0.016082 -0.7585084 0.1433828 -0.6356936 255 255 255 255 0.484084 0.278556
0.034044 0.047451 -0.005224 -0.6441396 -0.6441413 -0.4125121 255 255 255 255 0.484084 0.278556
0.034015 0.048383 5.7e-05 -0.1861456 0.9200827 0.3446702 255 255 255 255 0.484084 0.278556
0.047664 0.042624 -0.016856 0.3835012 -0.6436439 -0.6623061 255 255 255 255 0.484084 0.278556
0.040584 0.048687 -0.006997 -0.138776 -0.9902153 0.01466254 255 255 255 255 0.484084 0.278556
0.040035 0.048833 -0.012285 -0.3993734 -0.8305752 -0.388131 255 255 255 255 0.484084 0.278556
0.040339 0.050179 -0.012625 -0.1980174 0.9722792 -0.1243477 255 255 255 255 0.484084 0.278556
0.04077 0.050063 -0.006911 0.2248278 0.9724584 0.06145857 255 255 255 255 0.484084 0.278556
0.044388 0.049196 -0.005844 0.4211071 0.8074924 0.4130679 255 255 255 255 0.484084 0.278556
0.043951 0.047646 -0.005429 0.1673524 -0.8547397 0.4913383 255 255 255 255 0.484084 0.278556
0.037442 0.047316 -0.003952 0.1069122 -0.9863406 -0.125308 255 255 255 255 0.484084 0.278556
0.037741 0.048903 -0.003851 0.0018365 0.9725892 0.232523 255 255 255 255 0.484084 0.278556
0.040997 0.047806 -0.002795 0.9016498 -0.1735726 0.3961064 255 255 255 255 0.484084 0.278556
0.043729 0.04815 -0.011047 -0.154897 -0.983699 0.09134089 255 255 255 255 0.484084 0.278556
0.046356 0.046879 -0.010545 -0.2977629 -0.9444386 0.1391869 255 255 255 255 0.484084 0.278556
0.046565 0.047588 -0.010946 0.6542416 0.7526184 0.07438713 255 255 255 255 0.484084 0.278556
0.044096 0.049113 -0.0111 0.2091621 0.9568484 -0.2017232 255 255 255 255 0.484084 0.278556
0.043046 0.04846 -0.015052 0.3516335 0.8529356 -0.385817 255 255 255 255 0.484084 0.278556
0.042408 0.047224 -0.014604 -0.1735498 -0.9845001 -0.02530077 255 255 255 255 0.484084 0.278556
0.046112 0.047478 -0.013916 0.5274722 0.699876 -0.4816085 255 255 255 255 0.484084 0.278556
0.045446 0.046436 -0.013289 -0.4932987 -0.7752931 0.3944327 255 255 255 255 0.484084 0.278556
0.033495 0.046822 6.2e-05 -0.1231414 -0.9923864 -0.002346682 255 255 255 255 0.484084 0.278556
0.04349 0.048121 -0.005453 0.949488 -0.1753806 0.2602195 255 255 255 255 0.484084 0.278556
0.030714 0.047661 0.003043 -0.1424886 -0.9896701 -0.01581619 255 255 255 255 0.484084 0.278556
0.0285 0.052739 0.018633 -0.6481455 -0.47798 0.592826 255 255 255 255 0.484084 0.278556
0.030977 0.049056 0.002825 -0.7669013 0.3841143 -0.5141193 255 255 255 255 0.484084 0.278556
0.037434 0.052658 0.006214 0.5986071 0.7801273 -0.1818543 255 255 255 255 0.484084 0.278556
0.035008 0.054069 0.018837 0.8666365 0.06871864 0.4941852 255 255 255 255 0.484084 0.278556
0.037605 0.051437 0.006462 0.5793836 -0.7272424 0.3680126 255 255 255 255 0.484084 0.278556
0.035438 0.047962 -0.001191 0.5876685 -0.7162675 -0.3763067 255 255 255 255 0.484084 0.278556
0.035315 0.049488 -0.001596 0.00740021 0.6781576 -0.7348793 255 255 255 255 0.484084 0.278556
0.032316 0.051227 0.022149 0.07718249 -0.3824809 0.9207341 255 255 255 255 0.484084 0.278556
0.033595 0.052111 0.008432 0.2235987 -0.8485733 0.4795071 255 255 255 255 0.484084 0.278556
0.035594 0.053736 0.010201 0.3243194 -0.7797129 0.5355976 255 255 255 255 0.484084 0.278556
0.035088 0.054416 0.009878 0.3911799 0.8806036 -0.2674242 255 255 255 255 0.484084 0.278556
0.03322 0.054251 0.007428 -0.1383357 0.8613281 -0.4888529 255 255 255 255 0.484084 0.278556
0.02955 0.052646 0.010023 -0.867747 0.06473855 0.4927719 255 255 255 255 0.484084 0.278556
0.034466 0.050069 0.004503 0.3018512 -0.7333384 0.6091803 255 255 255 255 0.484084 0.278556
0.034218 0.052108 0.003706 -0.288224 0.7918475 -0.5384279 255 255 255 255 0.484084 0.278556
0.031111 0.050221 0.004965 -0.7529487 0.5111951 -0.4144247 255 255 255 255 0.484084 0.278556
0.03119 0.048463 0.00573 0.03597438 -0.8071038 0.5893127 255 255 255 255 0.484084 0.278556
0.032428 0.05509 0.013137 0.3575179 -0.889909 0.283272 255 255 255 255 0.484084 0.278556
0.030213 0.05423 0.01487 -0.6605254 -0.6316614 0.405845 255 255 255 255 0.484084 0.278556
0.031966 0.056652 0.013005 -0.2343527 0.9581642 -0.1643176 255 255 255 255 0.484084 0.278556
0.035736 0.056178 0.015463 0.919281 0.3749472 -0.1197377 255 255 255 255 0.484084 0.278556
0.031698 0.055446 0.017474 -0.2890467 0.8388631 0.46126 255 255 255 255 0.484084 0.278556
0.032128 0.054151 0.0169 0.2894244 -0.8907417 -0.3504464 255 255 255 255 0.484084 0.278556
0.034817 0.048514 0.002145 0.3319641 -0.8800036 0.3396963 255 255 255 255 0.484084 0.278556
0.034656 0.050801 0.001421 -0.2950996 0.8402529 -0.4548531 255 255 255 255 0.484084 0.278556
0.029719 0.052501 0.018629 -0.9568771 -0.2669935 -0.1144591 255 255 255 255 0.484084 0.278556
0.035254 0.056104 0.014683 0.7421875 0.4255241 0.5177711 255 255 255 255 0.484084 0.278556
0.029628 0.053731 0.010201 -0.725112 0.624019 -0.2912265 255 255 255 255 0.484084 0.278556
0.029555 0.052616 0.01036 -0.4396559 -0.8799182 -0.1801294 255 255 255 255 0.484084 0.278556
0.037859 0.052785 0.007271 0.983461 0.1228432 -0.1330937 255 255 255 255 0.484084 0.278556
0.033754 0.047179 -0.005042 0.4419569 -0.8036279 -0.398568 255 255 255 255 0.484084 0.278556
0.0227 0.049449 -0.013767 0.2201291 -0.04313314 -0.9745167 255 255 255 255 0.484084 0.278556
0.033719 0.048749 -0.004412 0.6942487 0.6921037 -0.1975131 255 255 255 255 0.484084 0.278556
0.027921 0.048902 -0.000998 -0.2136519 0.6312704 0.7455539 255 255 255 255 0.484084 0.278556
0.017447 0.047343 -0.009119 -0.6676192 0.05885792 0.7421727 255 255 255 255 0.484084 0.278556
0.028322 0.045912 0.000459 -0.3742545 -0.7426346 0.5553625 255 255 255 255 0.484084 0.278556
0.034707 0.047852 0.000666 0.3065578 0.779184 0.5467125 255 255 255 255 0.484084 0.278556
0.01665 0.04548 -0.014469 -0.6006328 -0.2065269 -0.7723904 255 255 255 255 0.484084 0.278556
0.027438 0.048784 -0.005502 0.07611472 -0.9534259 -0.2918659 255 255 255 255 0.484084 0.278556
0.022118 0.049448 -0.004863 -0.5317045 -0.8068995 0.2573005 255 255 255 255 0.484084 0.278556
0.022044 0.051077 -0.004552 -0.1463962 0.8689656 0.4727229 255 255 255 255 0.484084 0.278556
0.028078 0.051229 -0.004886 0.03846881 0.9814849 0.1876366 255 255 255 255 0.484084 0.278556
0.029331 0.051893 -0.008453 0.6099331 0.7911409 0.04558171 255 255 255 255 0.484084 0.278556
0.029464 0.050373 -0.008575 0.6248479 -0.5253906 -0.5775203 255 255 255 255 0.484084 0.278556
0.030157 0.046763 -0.003019 0.02016167 -0.8956739 -0.4442543 255 255 255 255 0.484084 0.278556
0.030795 0.048991 -0.002504 0.2102745 0.9230006 0.3222649 255 255 255 255 0.484084 0.278556
0.031706 0.04916 -0.005299 0.5004652 -0.07914986 -0.862131 255 255 255 255 0.484084 0.278556
0.023657 0.050162 -0.00842 0.04991045 -0.972414 -0.2278598 255 255 255 255 0.484084 0.278556
0.024777 0.04989 -0.011558 0.250763 -0.9211328 -0.2977117 255 255 255 255 0.484084 0.278556
0.024329 0.051518 -0.011353 0.08111703 0.9260067 -0.3686892 255 255 255 255 0.484084 0.278556
0.023986 0.051706 -0.008405 -0.3163438 0.9126728 0.2587568 255 255 255 255 0.484084 0.278556
0.020168 0.050021 -0.007507 -0.4209426 0.9064832 -0.03309946 255 255 255 255 0.484084 0.278556
0.019627 0.048615 -0.007543 -0.09911554 -0.9664688 -0.2368844 255 255 255 255 0.484084 0.278556
0.021085 0.050525 -0.010878 -0.5396463 0.8157371 -0.2082183 255 255 255 255 0.484084 0.278556
0.021276 0.049143 -0.010657 0.4297251 -0.8931541 0.1327103 255 255 255 255 0.484084 0.278556
0.034256 0.04669 0.000335 0.1320859 -0.9793652 -0.1529615 255 255 255 255 0.484084 0.278556
0.029611 0.050443 -0.007717 0.3924668 0.1166526 -0.9123387 255 255 255 255 0.484084 0.278556
0.027591 0.044859 -0.000431 0.01198549 -0.5899459 -0.8073539 255 255 255 255 0.484084 0.278556
0.014794 0.041974 0.008125 -0.8749843 0.06168452 -0.4802057 255 255 255 255 0.484084 0.278556
0.028138 0.046382 -7.5e-05 -0.3027571 0.5613304 -0.7702249 255 255 255 255 0.484084 0.278556
0.030631 0.04864 0.005639 0.3837753 0.8529533 0.3538179 255 255 255 255 0.484084 0.278556
0.019099 0.043735 0.012498 0.60713 -0.1396689 0.7822313 255 255 255 255 0.484084 0.278556
0.033155 0.046833 0.005314 0.5808473 -0.6615244 0.4743438 255 255 255 255 0.484084 0.278556
0.034553 0.048673 -0.000388 0.1533263 0.9016943 -0.4042752 255 255 255 255 0.484084 0.278556
0.01318 0.038006 0.013068 -0.6122845 -0.309673 0.7274684 255 255 255 255 0.484084 0.278556
0.025984 0.047655 0.00518 0.1666591 -0.9827136 0.08061489 255 255 255 255 0.484084 0.278556
0.025582 0.047462 0.010617 0.3295555 -0.8037158 0.495413 255 255 255 255 0.484084 0.278556
0.02542 0.049162 0.010626 0.07815506 0.9679834 0.2385372 255 255 255 255 0.484084 0.278556
0.026286 0.049356 0.005104 -0.2768713 0.9470268 -0.1627345 255 255 255 255 0.484084 0.278556
0.022495 0.047303 0.003787 -0.3217769 0.7360461 -0.5955635 255 255 255 255 0.484084 0.278556
0.022315 0.046115 0.003244 -0.1094396 -0.5761656 -0.8099731 255 255 255 255 0.484084 0.278556
0.029195 0.046185 0.002852 -0.0216647 -0.9940124 0.1070982 255 255 255 255 0.484084 0.278556
0.02972 0.048433 0.002758 -0.1031438 0.9467321 -0.3050569 255 255 255 255 0.484084 0.278556
0.026263 0.046356 0.001182 -0.6120034 -0.03384765 -0.7901305 255 255 255 255 0.484084 0.278556
0.02156 0.047254 0.008253 0.3869456 -0.9204128 0.0557977 255 255 255 255 0.484084 0.278556
0.01796 0.043947 0.006787 0.4015237 -0.90535 -0.1382759 255 255 255 255 0.484084 0.278556
0.018136 0.046022 0.007402 -0.6000158 0.7161012 -0.3566233 255 255 255 255 0.484084 0.278556
0.02153 0.048153 0.008373 -0.1943118 0.9548829 0.2245921 255 255 255 255 0.484084 0.278556
0.021965 0.046956 0.011759 -0.3832181 0.832865 0.3993492 255 255 255 255 0.484084 0.278556
0.021795 0.045371 0.012085 0.08358296 -0.9950008 -0.05465693 255 255 255 255 0.484084 0.278556
0.018077 0.046407 0.010734 -0.6287992 0.6754723 0.3851608 255 255 255 255 0.484084 0.278556
0.018495 0.043572 0.009879 0.6248786 -0.7425985 -0.240986 255 255 255 255 0.484084 0.278556
0.034212 0.046775 -0.000272 0.3058479 -0.9519576 0.01529091 255 255 255 255 0.484084 0.278556
0.022176 0.046188 0.00276 -0.8591345 0.1644021 -0.4846236 255 255 255 255 0.484084 0.278556
0.034846 0.046477 0.004616 -0.6901966 -0.6695264 -0.2745235 255 255 255 255 0.484084 0.278556
0.043428 0.041241 0.017582 -0.3988369 -0.6294773 0.6668489 255 255 255 255 0.484084 0.278556
0.03509 0.048103 0.005164 -0.5634326 0.7162483 0.411743 255 255 255 255 0.484084 0.278556
0.042577 0.047224 0.003436 0.7265165 0.6588197 -0.1952698 255 255 255 255 0.484084 0.278556
0.047908 0.041451 0.013764 0.8680877 -0.3859777 -0.3121617 255 255 255 255 0.484084 0.278556
0.042291 0.046243 0.003159 0.1267956 -0.8770322 -0.4633977 255 255 255 255 0.484084 0.278556
0.035931 0.048718 -0.000455 -0.3066189 -0.4897583 -0.8161628 255 255 255 255 0.484084 0.278556
0.036075 0.049638 -0.000499 0.06277727 0.972827 -0.2228603 255 255 255 255 0.484084 0.278556
0.047008 0.037052 0.016451 0.3706563 -0.8702767 0.3243955 255 255 255 255 0.484084 0.278556
0.041257 0.046309 0.007482 -0.1497591 -0.97456 -0.166749 255 255 255 255 0.484084 0.278556
0.044569 0.045631 0.007419 0.147881 -0.9272281 -0.3440629 255 255 255 255 0.484084 0.278556
0.044709 0.047397 0.007797 0.5772142 0.793637 -0.1922608 255 255 255 255 0.484084 0.278556
0.041578 0.047998 0.007772 -0.001898305 0.9953578 0.09622578 255 255 255 255 0.484084 0.278556
0.039436 0.046295 0.01077 -0.2788272 -0.1297523 0.9515355 255 255 255 255 0.484084 0.278556
0.038747 0.046888 0.003779 0.1817845 -0.9757921 -0.121591 255 255 255 255 0.484084 0.278556
0.039229 0.048782 0.004129 -0.007215124 0.9829152 0.183918 255 255 255 255 0.484084 0.278556
0.037235 0.047023 0.006316 -0.385384 0.7683638 0.510976 255 255 255 255 0.484084 0.278556
0.036636 0.045258 0.006211 -0.1039139 -0.9935383 0.04564534 255 255 255 255 0.484084 0.278556
0.044521 0.045207 0.011855 -0.1494781 -0.9190998 -0.3645709 255 255 255 255 0.484084 0.278556
0.043478 0.044454 0.014493 -0.6879934 -0.524119 0.5019607 255 255 255 255 0.484084 0.278556
0.044966 0.047133 0.012873 0.2392646 0.8978885 0.369525 255 255 255 255 0.484084 0.278556
0.048584 0.044705 0.011371 0.8044023 0.1750088 -0.5677226 255 255 255 255 0.484084 0.278556
0.046657 0.043764 0.015743 0.4883038 0.4205679 0.764645 255 255 255 255 0.484084 0.278556
0.04574 0.042846 0.014328 -0.4472835 -0.5631407 -0.6948453 255 255 255 255 0.484084 0.278556
0.037179 0.047401 0.001624 -0.08505949 -0.9167317 -0.3903435 255 255 255 255 0.484084 0.278556
0.037722 0.049163 0.001992 0.1215245 0.9727309 0.197551 255 255 255 255 0.484084 0.278556
0.043754 0.040806 0.01678 -0.8428533 0.01267244 0.5379942 255 255 255 255 0.484084 0.278556
0.047084 0.04509 0.010777 0.9889762 -0.144535 -0.03218416 255 255 255 255 0.484084 0.278556
0.040543 0.046907 0.011895 -0.2912021 0.8098032 0.509333 255 255 255 255 0.484084 0.278556
0.039729 0.045958 0.011747 -0.8290966 -0.556005 -0.05880015 255 255 255 255 0.484084 0.278556
0.043144 0.046863 0.004652 0.5592347 0.03069766 -0.8284408 255 255 255 255 0.484084 0.278556
0.032241 0.049755 -0.003266 0.2676593 -0.5747139 -0.773345 255 255 255 255 0.484084 0.278556
0.019399 0.055774 -0.005946 -0.5158114 0.06698671 -0.8540792 255 255 255 255 0.484084 0.278556
0.032593 0.0504 -0.003184 0.7072752 0.3524912 -0.6127902 255 255 255 255 0.484084 0.278556
0.030529 0.052022 0.002191 0.4968832 0.5203876 0.694481 255 255 255 255 0.484084 0.278556
0.018832 0.055775 0.000523 -0.144005 0.03789862 0.988851 255 255 255 255 0.484084 0.278556
0.031386 0.049679 0.002617 -0.3771502 -0.7801927 0.4990562 255 255 255 255 0.484084 0.278556
0.035782 0.048745 0.00024 0.7921937 0.5940927 0.1395821 255 255 255 255 0.484084 0.278556
0.015216 0.054874 -0.002572 -0.9947497 -0.05359731 -0.08718039 255 255 255 255 0.484084 0.278556
0.028479 0.053778 -0.000778 -0.4193996 -0.8986434 -0.1286233 255 255 255 255 0.484084 0.278556
0.024359 0.054831 0.002958 -0.5792987 -0.7757558 0.250232 255 255 255 255 0.484084 0.278556
0.025013 0.056748 0.002761 0.4577399 0.7742565 0.4370367 255 255 255 255 0.484084 0.278556
0.029002 0.054712 -0.000703 0.4902726 0.8714968 0.01123156 255 255 255 255 0.484084 0.278556
0.027923 0.055306 -0.004056 0.6546296 0.6657177 -0.3581621 255 255 255 255 0.484084 0.278556
0.027775 0.053844 -0.004559 0.007307716 -0.675827 -0.7370241 255 255 255 255 0.484084 0.278556
0.031359 0.050724 -0.000358 -0.6272639 -0.7393091 -0.2448716 255 255 255 255 0.484084 0.278556
0.031896 0.051595 -0.000286 0.6621574 0.7475726 0.05179772 255 255 255 255 0.484084 0.278556
0.030943 0.051711 -0.003639 -0.3334565 0.00919529 -0.9427207 255 255 255 255 0.484084 0.278556
0.023685 0.055712 -0.001262 -0.3730321 -0.9270926 0.03669562 255 255 255 255 0.484084 0.278556
0.022593 0.055533 -0.004317 -0.2440928 -0.9552166 -0.1672722 255 255 255 255 0.484084 0.278556
0.022834 0.057475 -0.004224 0.2120838 0.8768834 -0.4313885 255 255 255 255 0.484084 0.278556
0.024267 0.057128 -0.00133 0.2146206 0.9321254 0.2916852 255 255 255 255 0.484084 0.278556
0.02164 0.056961 0.001366 0.005915805 0.9913664 0.1309873 255 255 255 255 0.484084 0.278556
0.021819 0.056183 0.001294 -0.448258 -0.8866675 -0.1135141 255 255 255 255 0.484084 0.278556
0.020518 0.057119 -0.001843 -0.2882592 0.956963 0.03359258 255 255 255 255 0.484084 0.278556
0.020558 0.056388 -0.00185 0.06897543 -0.9974034 0.02070791 255 255 255 255 0.484084 0.278556
0.035519 0.047193 0.000212 -0.4978944 -0.8643743 -0.07041407 255 255 255 255 0.484084 0.278556
0.028355 0.05391 -0.003834 -0.2158448 0.2149509 -0.9524742 255 255 255 255 0.484084 0.278556
0.038672 0.048878 -0.002672 0.3772925 -0.9139932 0.1492205 255 255 255 255 0.483261 0.301304
0.036269 0.042905 -0.015726 0.5795181 -0.7106495 -0.3989186 255 255 255 255 0.483261 0.301304
0.038187 0.050331 -0.002826 0.7139322 0.6505983 0.2588877 255 255 255 255 0.483261 0.301304
0.030777 0.05001 -0.004509 -0.7043681 0.6954647 0.1421074 255 255 255 255 0.483261 0.301304
0.029914 0.042181 -0.014437 -0.9804477 -0.1491419 -0.1283703 255 255 255 255 0.483261 0.301304
0.030745 0.048577 -0.00414 -0.1457381 -0.9873354 -0.0626848 255 255 255 255 0.483261 0.301304
0.034934 0.048389 0.001231 -0.08398993 -0.7953901 0.6002502 255 255 255 255 0.483261 0.301304
0.035157 0.049638 0.001852 -0.1843681 0.713852 0.6755914 255 255 255 255 0.483261 0.301304
0.030794 0.03586 -0.015993 -0.0692196 -0.8563198 -0.5117861 255 255 255 255 0.483261 0.301304
0.034219 0.049854 -0.007131 0.03370734 -0.9810447 0.1908278 255 255 255 255 0.483261 0.301304
0.031215 0.048754 -0.008301 -0.07198998 -0.9565719 0.282467 255 255 255 255 0.483261 0.301304
0.031688 0.050174 -0.008702 -0.5475553 0.8210936 -0.16121 255 255 255 255 0.483261 0.301304
0.034387 0.051049 -0.007365 -0.03326209 0.99907 -0.02743389 255 255 255 255 0.483261 0.301304
0.037526 0.049687 -0.009129 0.5510913 -0.1048122 -0.8278362 255 255 255 255 0.483261 0.301304
0.034299 0.048781 -0.003467 -0.1292138 -0.9643158 -0.2310818 255 255 255 255 0.483261 0.301304
0.034765 0.050963 -0.003318 0.01621624 0.9983558 0.05497957 255 255 255 255 0.483261 0.301304
0.037121 0.050151 -0.004667 0.5399121 0.8391386 -0.06589023 255 255 255 255 0.483261 0.301304
0.037397 0.048425 -0.004776 0.3428534 -0.9315789 -0.1208818 255 255 255 255 0.483261 0.301304
0.033413 0.048246 -0.012087 0.009587427 -0.7521546 0.658917 255 255 255 255 0.483261 0.301304
0.035757 0.046473 -0.013704 0.8398131 -0.5423309 -0.0243156 255 255 255 255 0.483261 0.301304
0.033619 0.049753 -0.013174 -0.110398 0.8048979 -0.5830538 255 255 255 255 0.483261 0.301304
0.028803 0.04645 -0.01309 -0.9272043 0.3401947 0.1567161 255 255 255 255 0.483261 0.301304
0.03284 0.045309 -0.015868 -0.118886 0.2522693 -0.9603261 255 255 255 255 0.483261 0.301304
0.032752 0.044018 -0.013696 0.1277352 -0.3431543 0.930553 255 255 255 255 0.483261 0.301304
0.034809 0.049204 -0.001188 0.04114958 -0.9986293 -0.03234583 255 255 255 255 0.483261 0.301304
0.034952 0.050524 -0.00102 -0.05945912 0.9789785 0.1951044 255 255 255 255 0.483261 0.301304
0.035906 0.042167 -0.015224 0.9740273 -0.2097793 -0.08522639 255 255 255 255 0.483261 0.301304
0.030208 0.047496 -0.012516 -0.8951136 -0.01880224 -0.4454416 255 255 255 255 0.483261 0.301304
0.037599 0.05041 -0.010565 0.4558077 0.7655238 -0.4541065 255 255 255 255 0.483261 0.301304
0.037685 0.049235 -0.009966 0.6366703 -0.5533661 0.5370632 255 255 255 255 0.483261 0.301304
0.030537 0.049546 -0.005281 -0.8726129 0.262576 0.411826 255 255 255 255 0.483261 0.301304
0.035891 0.049019 0.003972 0.01685455 -0.9893197 0.1447841 255 255 255 255 0.483261 0.301304
0.04789 0.045374 0.010672 0.1082862 -0.8184681 0.5642554 255 255 255 255 0.483261 0.301304
0.035185 0.049972 0.004753 -0.7385063 0.5458104 0.395853 255 255 255 255 0.483261 0.301304
0.041456 0.051864 0.000345 0.01985184 0.711643 -0.7022609 255 255 255 255 0.483261 0.301304
0.050365 0.046302 0.006229 0.6694969 -0.07439265 -0.7390803 255 255 255 255 0.483261 0.301304
0.041159 0.050847 0.00022 0.4541323 -0.8683297 0.1994174 255 255 255 255 0.483261 0.301304
0.034249 0.047796 -0.000782 0.03185499 -0.9478275 -0.317188 255 255 255 255 0.483261 0.301304
0.034041 0.049039 -0.000765 -0.5266352 0.7297806 -0.4359766 255 255 255 255 0.483261 0.301304
0.05156 0.040852 0.008092 0.5897484 -0.8072848 -0.02209257 255 255 255 255 0.483261 0.301304
0.041647 0.050481 0.004281 0.03271737 -0.9487286 -0.314394 255 255 255 255 0.483261 0.301304
0.044034 0.051393 0.003514 0.2197459 -0.840221 -0.495722 255 255 255 255 0.483261 0.301304
0.044413 0.052645 0.003432 0.3337731 0.9368215 -0.1046956 255 255 255 255 0.483261 0.301304
0.041334 0.052768 0.004853 -0.1680151 0.9641669 0.2053121 255 255 255 255 0.483261 0.301304
0.041359 0.050295 0.007677 -0.04640714 -0.1950021 0.9797043 255 255 255 255 0.483261 0.301304
0.038335 0.050607 0.002153 0.4218977 -0.8917311 -0.1637621 255 255 255 255 0.483261 0.301304
0.038067 0.0521 0.002283 -0.4382689 0.8918084 0.1122414 255 255 255 255 0.483261 0.301304
0.037834 0.050209 0.004806 -0.4973702 0.6803118 0.5383295 255 255 255 255 0.483261 0.301304
0.037892 0.048688 0.004889 0.345515 -0.9372889 0.04592363 255 255 255 255 0.483261 0.301304
0.046028 0.050162 0.006987 -0.09649057 -0.8160649 -0.5698488 255 255 255 255 0.483261 0.301304
0.04615 0.048018 0.009575 -0.05374359 -0.8975602 0.437604 255 255 255 255 0.483261 0.301304
0.046351 0.050965 0.007538 0.3496179 0.8061182 0.4774315 255 255 255 255 0.483261 0.301304
0.049264 0.049795 0.005112 0.4566582 0.4030101 -0.7931243 255 255 255 255 0.483261 0.301304
0.048993 0.047551 0.008352 0.6864675 0.4233571 0.5912117 255 255 255 255 0.483261 0.301304
0.048473 0.047183 0.007918 -0.6515508 -0.4885897 -0.5803118 255 255 255 255 0.483261 0.301304
0.036562 0.049431 0.000896 0.4143559 -0.9063357 0.08285528 255 255 255 255 0.483261 0.301304
0.036393 0.050354 0.00091 -0.4126348 0.9005413 -0.1369596 255 255 255 255 0.483261 0.301304
0.048178 0.0446 0.010041 -0.5214473 -0.2316875 0.821227 255 255 255 255 0.483261 0.301304
0.048331 0.050443 0.005074 0.8453761 -0.1734833 -0.5052156 255 255 255 255 0.483261 0.301304
0.041959 0.050994 0.00912 -0.02381356 0.6925667 0.7209607 255 255 255 255 0.483261 0.301304
0.041662 0.049667 0.00863 -0.7532433 -0.6472197 0.1171807 255 255 255 255 0.483261 0.301304
0.042225 0.05166 0.000867 0.1986614 0.2184829 -0.9554051 255 255 255 255 0.483261 0.301304
0.029353 0.042807 -0.000717 0.5033156 -0.4840537 -0.7157971 255 255 255 255 0.483041 0.252569
0.027195 0.02998 0.006003 -0.08978736 -0.9784679 0.1858466 255 255 255 255 0.483041 0.252569
0.028912 0.043425 -0.000266 -0.7863522 0.5917087 -0.1775698 255 255 255 255 0.483041 0.252569
0.035279 0.046188 0.006601 -0.2723136 0.6062729 0.7471803 255 255 255 255 0.483041 0.252569
0.031484 0.0337 0.010152 0.6960301 -0.08101788 0.7134271 255 255 255 255 0.483041 0.252569
0.035947 0.045297 0.005727 0.7967304 -0.5594357 -0.228588 255 255 255 255 0.483041 0.252569
0.034193 0.047962 0.000447 0.7520701 0.01123248 -0.6589875 255 255 255 255 0.483041 0.252569
0.033943 0.04862 0.000597 -0.4247028 0.9048454 0.02970659 255 255 255 255 0.483041 0.252569
0.031917 0.027392 0.008899 0.2839342 -0.8120157 0.5099136 255 255 255 255 0.483041 0.252569
0.030879 0.041522 0.004223 0.6785693 -0.5105066 -0.5281353 255 255 255 255 0.483041 0.252569
0.03321 0.042219 0.006972 0.8751988 -0.4687289 -0.119667 255 255 255 255 0.483041 0.252569
0.032358 0.043974 0.007619 -0.4192786 0.5614199 0.7134516 255 255 255 255 0.483041 0.252569
0.029792 0.04343 0.004929 -0.7218615 0.6551017 0.2230646 255 255 255 255 0.483041 0.252569
0.026859 0.038981 0.001819 -0.8193405 -0.3611892 -0.4452229 255 255 255 255 0.483041 0.252569
0.032413 0.044564 0.002559 0.620973 -0.7285913 -0.2890455 255 255 255 255 0.483041 0.252569
0.031979 0.045201 0.002866 -0.7041771 0.6745693 0.2215645 255 255 255 255 0.483041 0.252569
0.029158 0.042199 0.001248 -0.8003968 0.4837294 0.3540775 255 255 255 255 0.483041 0.252569
0.029405 0.041972 0.001131 0.5925088 -0.7337314 -0.3325232 255 255 255 255 0.483041 0.252569
0.030113 0.037941 0.006929 0.8082894 -0.3816046 -0.4483817 255 255 255 255 0.483041 0.252569
0.027026 0.033699 0.005707 -0.1997797 -0.5281936 -0.8252876 255 255 255 255 0.483041 0.252569
0.029062 0.038919 0.007365 -0.7281969 0.3423185 0.5937571 255 255 255 255 0.483041 0.252569
0.03194 0.03732 0.010004 0.6332883 0.4719329 0.6133721 255 255 255 255 0.483041 0.252569
0.028118 0.034263 0.009204 -0.6429737 -0.0208177 0.7656053 255 255 255 255 0.483041 0.252569
0.029919 0.033753 0.007389 0.6701527 -0.06371745 -0.7394832 255 255 255 255 0.483041 0.252569
0.033546 0.04587 0.001339 0.6658298 -0.6204891 -0.4143236 255 255 255 255 0.483041 0.252569
0.032573 0.047149 0.00205 -0.691826 0.6065835 0.3917056 255 255 255 255 0.483041 0.252569
0.02733 0.030076 0.006694 -0.7099938 -0.3658481 -0.6017177 255 255 255 255 0.483041 0.252569
0.032052 0.040283 0.009538 0.2498904 -0.2013117 0.9471158 255 255 255 255 0.483041 0.252569
0.025989 0.038077 0.003388 -0.8626381 0.2789375 0.4219592 255 255 255 255 0.483041 0.252569
0.026211 0.037342 0.002579 0.269939 -0.1527371 -0.9506862 255 255 255 255 0.483041 0.252569
0.034871 0.04521 0.006279 0.8593867 0.5026747 -0.09366181 255 255 255 255 0.483041 0.252569
0.038083 0.045734 -0.00071 -0.1763226 -0.324314 0.9293712 255 255 255 255 0.484000 0.205604
0.04053 0.03521 -0.003168 0.3091067 -0.8015088 0.5118952 255 255 255 255 0.484000 0.205604
0.039246 0.046838 -0.001013 0.6158693 0.7253318 0.3075691 255 255 255 255 0.484000 0.205604
0.034308 0.044338 -0.006617 -0.2280574 0.4796335 -0.8473144 255 255 255 255 0.484000 0.205604
0.037225 0.033041 -0.006691 -0.7621403 -0.5063967 -0.4033666 255 255 255 255 0.484000 0.205604
0.033042 0.043007 -0.005849 -0.7437459 -0.59577 0.3031503 255 255 255 255 0.484000 0.205604
0.034099 0.047127 -0.00114 -0.7949204 0.1522789 0.5872927 255 255 255 255 0.484000 0.205604
0.034667 0.047504 -0.001587 -0.322755 0.9370046 -0.1336098 255 255 255 255 0.484000 0.205604
0.038948 0.028812 -0.003896 -0.08421592 -0.9597164 0.2680524 255 255 255 255 0.484000 0.205604
0.037379 0.043158 -0.004869 -0.5681816 -0.4622059 0.6808344 255 255 255 255 0.484000 0.205604
0.035875 0.041657 -0.0066 -0.7837723 -0.3280592 0.5273312 255 255 255 255 0.484000 0.205604
0.036478 0.042499 -0.007716 0.1144311 0.3559314 -0.9274796 255 255 255 255 0.484000 0.205604
0.038131 0.043882 -0.005384 0.477817 0.5977802 -0.6437001 255 255 255 255 0.484000 0.205604
0.040205 0.042158 -0.003445 0.8145645 -0.5793651 0.02864881 255 255 255 255 0.484000 0.205604
0.035544 0.04431 -0.003131 -0.2595575 -0.918559 0.2981263 255 255 255 255 0.484000 0.205604
0.037193 0.046756 -0.004196 0.5204906 0.6372688 -0.5683117 255 255 255 255 0.484000 0.205604
0.038451 0.04504 -0.002365 0.8979278 0.4278336 -0.1033648 255 255 255 255 0.484000 0.205604
0.037946 0.043915 -0.001531 -0.02558467 -0.6536832 0.7563358 255 255 255 255 0.484000 0.205604
0.037822 0.03904 -0.006049 -0.7161598 -0.1060608 0.6898306 255 255 255 255 0.484000 0.205604
0.040126 0.036932 -0.004029 0.4253925 -0.2866342 0.8584184 255 255 255 255 0.484000 0.205604
0.039289 0.039635 -0.007171 0.6372482 0.07283074 -0.7672095 255 255 255 255 0.484000 0.205604
0.035855 0.036795 -0.008074 -0.6959859 0.04727289 -0.7164977 255 255 255 255 0.484000 0.205604
0.039099 0.034915 -0.006567 0.7161517 -0.1973384 -0.6694657 255 255 255 255 0.484000 0.205604
0.037993 0.035419 -0.00511 -0.7025057 0.05979498 0.7091618 255 255 255 255 0.484000 0.205604
0.035074 0.045613 -0.002232 -0.3828316 -0.5989537 0.7033452 255 255 255 255 0.484000 0.205604
0.03608 0.047544 -0.003001 0.1069671 0.8893909 -0.4444568 255 255 255 255 0.484000 0.205604
0.040507 0.033749 -0.003125 0.8122223 0.2169037 0.5415236 255 255 255 255 0.484000 0.205604
0.035836 0.037905 -0.008054 -0.4322574 -0.522238 -0.7351334 255 255 255 255 0.484000 0.205604
0.041631 0.042378 -0.003858 0.9180679 0.1963949 -0.3443553 255 255 255 255 0.484000 0.205604
0.040278 0.04158 -0.003425 -0.206784 0.1297089 0.9697505 255 255 255 255 0.484000 0.205604
0.034216 0.043617 -0.006475 -0.7729834 0.3849553 -0.5042877 255 255 255 255 0.484000 0.205604
0.033314 0.045514 0.003195 -0.9424629 0.06417334 -0.3280936 255 255 255 255 0.494120 0.253263
0.037957 0.034047 0.003472 -0.6283559 -0.5619906 0.5378993 255 255 255 255 0.494120 0.253263
0.0338 0.045726 0.003345 0.2310842 0.4241352 0.8756195 255 255 255 255 0.494120 0.253263
0.038778 0.046029 -0.000727 0.8652118 0.5004331 -0.03123041 255 255 255 255 0.494120 0.253263
0.039983 0.035942 -0.001404 0.6529918 0.2382469 -0.718916 255 255 255 255 0.494120 0.253263
0.037558 0.046739 -0.00221 -0.4078798 -0.06963293 -0.9103765 255 255 255 255 0.494120 0.253263
0.035736 0.049368 0.000689 0.5029779 0.6636627 0.5536832 255 255 255 255 0.494120 0.253263
0.039056 0.031308 0.000484 -0.006692225 -0.9311208 -0.3646497 255 255 255 255 0.494120 0.253263
0.035935 0.042333 0.001311 -0.7928737 -0.2658192 -0.5483533 255 255 255 255 0.494120 0.253263
0.039656 0.041262 -0.000849 -0.3448507 -0.1495482 -0.9266679 255 255 255 255 0.494120 0.253263
0.041353 0.041786 -0.000841 0.9170128 0.3198413 0.2383048 255 255 255 255 0.494120 0.253263
0.038547 0.044311 0.002655 0.6695955 0.1906692 0.7178349 255 255 255 255 0.494120 0.253263
0.036274 0.041626 0.003972 -0.1200474 0.4609947 0.8792455 255 255 255 255 0.494120 0.253263
0.035659 0.04148 0.003745 -0.9279386 -0.3518974 0.1228747 255 255 255 255 0.494120 0.253263
0.035846 0.045568 0.000941 -0.7514943 -0.271034 -0.6014956 255 255 255 255 0.494120 0.253263
0.036732 0.046191 0.001427 0.545745 0.5186808 0.6581281 255 255 255 255 0.494120 0.253263
0.03441 0.044281 0.003503 -0.5180515 -0.06014668 0.8532321 255 255 255 255 0.494120 0.253263
0.037716 0.039224 0.001682 -0.7632344 -0.4914589 -0.4194538 255 255 255 255 0.494120 0.253263
0.037744 0.037441 0.003088 -0.8998372 -0.3573958 -0.2501227 255 255 255 255 0.494120 0.253263
0.038146 0.037494 0.00415 0.4263223 0.00619963 0.9045501 255 255 255 255 0.494120 0.253263
0.038534 0.039811 0.002613 0.9564701 0.1472112 0.25198 255 255 255 255 0.494120 0.253263
0.039993 0.038492 -0.000425 0.834009 -0.307746 0.4579535 255 255 255 255 0.494120 0.253263
0.039473 0.038269 -0.00093 -0.6112014 -0.3181936 -0.7246969 255 255 255 255 0.494120 0.253263
0.039681 0.036224 0.002296 0.9385509 -0.04161212 0.3426232 255 255 255 255 0.494120 0.253263
0.038905 0.036481 0.001654 -0.9184008 -0.0897935 -0.3853273 255 255 255 255 0.494120 0.253263
0.035074 0.048853 0.000297 -0.753619 -0.1610714 -0.6372712 255 255 255 255 0.494120 0.253263
0.03473 0.042114 0.004272 -0.3714618 -0.156802 0.9151116 255 255 255 255 0.494120 0.253263
0.034505 0.04089 -0.000749 0.23173 -0.51623 -0.8245046 255 255 255 255 0.313193 0.030898
0.035333 0.04107 -0.000232 0.8461309 -0.5329443 -0.005731353 255 255 255 255 0.313190 0.030885
0.035067 0.04101 0.00065 0.4004887 -0.4790407 0.7811074 255 255 255 255 0.313193 0.030898
0.03407 0.040785 0.000678 -0.5325741 -0.6941701 0.4842446 255 255 255 255 0.313196 0.030919
0.033732 0.040707 -0.000186 -0.5358405 -0.6600851 -0.5264624 255 255 255 255 0.313196 0.030919
-0.001747 0.002212 -0.001347 -0.7360041 0.5096805 -0.4455601 255 255 255 255 0.494311 0.174894
0.000825 0.002186 -0.002179 0.2291926 0.4171255 -0.8794755 255 255 255 255 0.494311 0.174894
-0.001765 0.002213 0.001347 -0.6470315 0.478256 0.5938194 255 255 255 255 0.494311 0.174894
0.000774 0.002189 0.002179 0.3924305 0.3791927 0.8379805 255 255 255 255 0.494311 0.174894
0.00237 0.002172 0 0.9325981 0.3465276 -0.1008932 255 255 255 255 0.494311 0.174894
3 25 21 30 
3 25 30 26 
3 21 22 29 
3 21 29 30 
3 22 23 28 
3 22 28 29 
3 23 24 27 
3 23 27 28 
3 24 25 26 
3 24 26 27 
3 47 46 48 
3 49 47 48 
3 50 49 48 
3 51 50 48 
3 46 51 48 
3 15 16 17 
3 16 18 17 
3 18 19 17 
3 19 20 17 
3 20 15 17 
3 5 6 11 
3 5 11 10 
3 6 7 12 
3 6 12 11 
3 7 8 13 
3 7 13 12 
3 8 9 14 
3 8 14 13 
3 9 5 10 
3 9 10 14 
3 10 11 16 
3 10 16 15 
3 11 12 18 
3 11 18 16 
3 12 13 19 
3 12 19 18 
3 13 14 20 
3 13 20 19 
3 14 10 15 
3 14 15 20 
3 1 2 22 
3 1 22 21 
3 2 3 23 
3 2 23 22 
3 3 4 24 
3 3 24 23 
3 4 0 25 
3 4 25 24 
3 0 1 21 
3 0 21 25 
3 27 26 31 
3 27 31 32 
3 28 27 32 
3 28 32 33 
3 29 28 33 
3 29 33 34 
3 30 29 34 
3 30 34 35 
3 26 30 35 
3 26 35 31 
3 32 31 36 
3 32 36 37 
3 33 32 37 
3 33 37 38 
3 34 33 38 
3 34 38 39 
3 35 34 39 
3 35 39 40 
3 31 35 40 
3 31 40 36 
3 37 36 404 
3 37 404 405 
3 38 37 405 
3 38 405 406 
3 39 38 406 
3 39 406 407 
3 40 39 407 
3 40 407 408 
3 36 40 408 
3 36 408 404 
3 409 410 41 
3 409 41 42 
3 411 409 42 
3 411 42 43 
3 412 411 43 
3 412 43 44 
3 413 412 44 
3 413 44 45 
3 410 413 45 
3 410 45 41 
3 42 41 46 
3 42 46 47 
3 43 42 47 
3 43 47 49 
3 44 43 49 
3 44 49 50 
3 45 44 50 
3 45 50 51 
3 41 45 51 
3 41 51 46 
3 80 81 71 
3 64 72 63 
3 63 72 79 
3 62 63 79 
3 61 62 70 
3 62 79 70 
3 57 58 55 
3 55 58 59 
3 59 58 54 
3 54 58 52 
3 71 72 80 
3 64 80 72 
3 70 71 61 
3 81 61 71 
3 68 65 67 
3 67 65 64 
3 69 65 68 
3 69 66 65 
3 65 66 61 
3 76 57 66 
3 59 77 55 
3 54 77 59 
3 52 69 54 
3 54 69 68 
3 52 76 69 
3 69 76 66 
3 72 71 74 
3 74 71 53 
3 72 74 73 
3 73 74 56 
3 75 56 60 
3 74 78 60 
3 56 74 60 
3 70 75 71 
3 71 75 53 
3 70 73 75 
3 75 73 56 
3 58 76 52 
3 57 76 58 
3 54 68 77 
3 77 68 67 
3 55 77 67 
3 78 75 60 
3 67 64 82 
3 82 64 63 
3 62 82 63 
3 66 82 61 
3 61 82 62 
3 64 65 61 
3 67 66 55 
3 55 66 57 
3 72 73 70 
3 74 53 75 
3 74 75 78 
3 72 70 79 
3 80 64 81 
3 81 64 61 
3 67 82 66 
3 95 96 102 
3 102 96 101 
3 103 104 94 
3 93 94 104 
3 93 104 92 
3 92 104 105 
3 100 91 105 
3 91 92 105 
3 108 89 88 
3 88 89 86 
3 108 83 89 
3 89 83 85 
3 103 94 102 
3 94 95 102 
3 100 101 91 
3 96 91 101 
3 88 92 97 
3 97 92 91 
3 88 86 92 
3 92 86 93 
3 86 98 93 
3 93 98 94 
3 108 88 97 
3 83 99 85 
3 83 108 99 
3 99 108 97 
3 84 107 90 
3 102 101 84 
3 103 102 106 
3 106 102 84 
3 107 87 90 
3 106 84 90 
3 87 106 90 
3 100 107 101 
3 101 107 84 
3 85 99 89 
3 89 99 98 
3 86 89 98 
3 87 103 106 
3 100 87 107 
3 99 109 98 
3 98 109 94 
3 99 97 109 
3 109 97 91 
3 94 91 95 
3 95 91 96 
3 103 100 104 
3 104 100 105 
3 103 87 100 
3 94 109 91 
3 138 139 129 
3 122 130 121 
3 121 130 137 
3 120 121 137 
3 119 120 128 
3 120 137 128 
3 115 116 113 
3 113 116 117 
3 117 116 112 
3 112 116 110 
3 129 130 138 
3 122 138 130 
3 128 129 119 
3 139 119 129 
3 126 123 125 
3 125 123 122 
3 127 123 126 
3 127 124 123 
3 123 124 119 
3 134 115 124 
3 117 135 113 
3 112 135 117 
3 110 127 112 
3 112 127 126 
3 110 134 127 
3 127 134 124 
3 130 129 132 
3 132 129 111 
3 130 132 131 
3 131 132 114 
3 133 114 118 
3 132 136 118 
3 114 132 118 
3 128 133 129 
3 129 133 111 
3 128 131 133 
3 133 131 114 
3 116 134 110 
3 115 134 116 
3 112 126 135 
3 135 126 125 
3 113 135 125 
3 136 133 118 
3 125 122 140 
3 140 122 121 
3 120 140 121 
3 124 140 119 
3 119 140 120 
3 122 123 119 
3 125 124 113 
3 113 124 115 
3 130 131 128 
3 132 111 133 
3 132 133 136 
3 130 128 137 
3 138 122 139 
3 139 122 119 
3 125 140 124 
3 153 154 160 
3 160 154 159 
3 161 162 152 
3 151 152 162 
3 151 162 150 
3 150 162 163 
3 158 149 163 
3 149 150 163 
3 166 147 146 
3 146 147 144 
3 166 141 147 
3 147 141 143 
3 161 152 160 
3 152 153 160 
3 158 159 149 
3 154 149 159 
3 146 150 155 
3 155 150 149 
3 146 144 150 
3 150 144 151 
3 144 156 151 
3 151 156 152 
3 166 146 155 
3 141 157 143 
3 141 166 157 
3 157 166 155 
3 142 165 148 
3 160 159 142 
3 161 160 164 
3 164 160 142 
3 165 145 148 
3 164 142 148 
3 145 164 148 
3 158 165 159 
3 159 165 142 
3 143 157 147 
3 147 157 156 
3 144 147 156 
3 145 161 164 
3 158 145 165 
3 157 167 156 
3 156 167 152 
3 157 155 167 
3 167 155 149 
3 152 149 153 
3 153 149 154 
3 161 158 162 
3 162 158 163 
3 161 145 158 
3 152 167 149 
3 180 181 187 
3 187 181 186 
3 188 189 179 
3 178 179 189 
3 178 189 177 
3 177 189 190 
3 185 176 190 
3 176 177 190 
3 193 174 173 
3 173 174 171 
3 193 168 174 
3 174 168 170 
3 188 179 187 
3 179 180 187 
3 185 186 176 
3 181 176 186 
3 173 177 182 
3 182 177 176 
3 173 171 177 
3 177 171 178 
3 171 183 178 
3 178 183 179 
3 193 173 182 
3 168 184 170 
3 168 193 184 
3 184 193 182 
3 169 192 175 
3 187 186 169 
3 188 187 191 
3 191 187 169 
3 192 172 175 
3 191 169 175 
3 172 191 175 
3 185 192 186 
3 186 192 169 
3 170 184 174 
3 174 184 183 
3 171 174 183 
3 172 188 191 
3 185 172 192 
3 184 194 183 
3 183 194 179 
3 184 182 194 
3 194 182 176 
3 179 176 180 
3 180 176 181 
3 188 185 189 
3 189 185 190 
3 188 172 185 
3 179 194 176 
3 223 224 214 
3 207 215 206 
3 206 215 222 
3 205 206 222 
3 204 205 213 
3 205 222 213 
3 200 201 198 
3 198 201 202 
3 202 201 197 
3 197 201 195 
3 214 215 223 
3 207 223 215 
3 213 214 204 
3 224 204 214 
3 211 208 210 
3 210 208 207 
3 212 208 211 
3 212 209 208 
3 208 209 204 
3 219 200 209 
3 202 220 198 
3 197 220 202 
3 195 212 197 
3 197 212 211 
3 195 219 212 
3 212 219 209 
3 215 214 217 
3 217 214 196 
3 215 217 216 
3 216 217 199 
3 218 199 203 
3 217 221 203 
3 199 217 203 
3 213 218 214 
3 214 218 196 
3 213 216 218 
3 218 216 199 
3 201 219 195 
3 200 219 201 
3 197 211 220 
3 220 211 210 
3 198 220 210 
3 221 218 203 
3 210 207 225 
3 225 207 206 
3 205 225 206 
3 209 225 204 
3 204 225 205 
3 207 208 204 
3 210 209 198 
3 198 209 200 
3 215 216 213 
3 217 196 218 
3 217 218 221 
3 215 213 222 
3 223 207 224 
3 224 207 204 
3 210 225 209 
3 238 239 245 
3 245 239 244 
3 246 247 237 
3 236 237 247 
3 236 247 235 
3 235 247 248 
3 243 234 248 
3 234 235 248 
3 251 232 231 
3 231 232 229 
3 251 226 232 
3 232 226 228 
3 246 237 245 
3 237 238 245 
3 243 244 234 
3 239 234 244 
3 231 235 240 
3 240 235 234 
3 231 229 235 
3 235 229 236 
3 229 241 236 
3 236 241 237 
3 251 231 240 
3 226 242 228 
3 226 251 242 
3 242 251 240 
3 227 250 233 
3 245 244 227 
3 246 245 249 
3 249 245 227 
3 250 230 233 
3 249 227 233 
3 230 249 233 
3 243 250 244 
3 244 250 227 
3 228 242 232 
3 232 242 241 
3 229 232 241 
3 230 246 249 
3 243 230 250 
3 242 252 241 
3 241 252 237 
3 242 240 252 
3 252 240 234 
3 237 234 238 
3 238 234 239 
3 246 243 247 
3 247 243 248 
3 246 230 243 
3 237 252 234 
3 281 282 272 
3 265 273 264 
3 264 273 280 
3 263 264 280 
3 262 263 271 
3 263 280 271 
3 258 259 256 
3 256 259 260 
3 260 259 255 
3 255 259 253 
3 272 273 281 
3 265 281 273 
3 271 272 262 
3 282 262 272 
3 269 266 268 
3 268 266 265 
3 270 266 269 
3 270 267 266 
3 266 267 262 
3 277 258 267 
3 260 278 256 
3 255 278 260 
3 253 270 255 
3 255 270 269 
3 253 277 270 
3 270 277 267 
3 273 272 275 
3 275 272 254 
3 273 275 274 
3 274 275 257 
3 276 257 261 
3 275 279 261 
3 257 275 261 
3 271 276 272 
3 272 276 254 
3 271 274 276 
3 276 274 257 
3 259 277 253 
3 258 277 259 
3 255 269 278 
3 278 269 268 
3 256 278 268 
3 279 276 261 
3 268 265 283 
3 283 265 264 
3 263 283 264 
3 267 283 262 
3 262 283 263 
3 265 266 262 
3 268 267 256 
3 256 267 258 
3 273 274 271 
3 275 254 276 
3 275 276 279 
3 273 271 280 
3 281 265 282 
3 282 265 262 
3 268 283 267 
3 312 313 303 
3 296 304 295 
3 295 304 311 
3 294 295 311 
3 293 294 302 
3 294 311 302 
3 289 290 287 
3 287 290 291 
3 291 290 286 
3 286 290 284 
3 303 304 312 
3 296 312 304 
3 302 303 293 
3 313 293 303 
3 300 297 299 
3 299 297 296 
3 301 297 300 
3 301 298 297 
3 297 298 293 
3 308 289 298 
3 291 309 287 
3 286 309 291 
3 284 301 286 
3 286 301 300 
3 284 308 301 
3 301 308 298 
3 304 303 306 
3 306 303 285 
3 304 306 305 
3 305 306 288 
3 307 288 292 
3 306 310 292 
3 288 306 292 
3 302 307 303 
3 303 307 285 
3 302 305 307 
3 307 305 288 
3 290 308 284 
3 289 308 290 
3 286 300 309 
3 309 300 299 
3 287 309 299 
3 310 307 292 
3 299 296 314 
3 314 296 295 
3 294 314 295 
3 298 314 293 
3 293 314 294 
3 296 297 293 
3 299 298 287 
3 287 298 289 
3 304 305 302 
3 306 285 307 
3 306 307 310 
3 304 302 311 
3 312 296 313 
3 313 296 293 
3 299 314 298 
3 343 344 334 
3 327 335 326 
3 326 335 342 
3 325 326 342 
3 324 325 333 
3 325 342 333 
3 320 321 318 
3 318 321 322 
3 322 321 317 
3 317 321 315 
3 334 335 343 
3 327 343 335 
3 333 334 324 
3 344 324 334 
3 331 328 330 
3 330 328 327 
3 332 328 331 
3 332 329 328 
3 328 329 324 
3 339 320 329 
3 322 340 318 
3 317 340 322 
3 315 332 317 
3 317 332 331 
3 315 339 332 
3 332 339 329 
3 335 334 337 
3 337 334 316 
3 335 337 336 
3 336 337 319 
3 338 319 323 
3 337 341 323 
3 319 337 323 
3 333 338 334 
3 334 338 316 
3 333 336 338 
3 338 336 319 
3 321 339 315 
3 320 339 321 
3 317 331 340 
3 340 331 330 
3 318 340 330 
3 341 338 323 
3 330 327 345 
3 345 327 326 
3 325 345 326 
3 329 345 324 
3 324 345 325 
3 327 328 324 
3 330 329 318 
3 318 329 320 
3 335 336 333 
3 337 316 338 
3 337 338 341 
3 335 333 342 
3 343 327 344 
3 344 327 324 
3 330 345 329 
3 374 375 365 
3 358 366 357 
3 357 366 373 
3 356 357 373 
3 355 356 364 
3 356 373 364 
3 351 352 349 
3 349 352 353 
3 353 352 348 
3 348 352 346 
3 365 366 374 
3 358 374 366 
3 364 365 355 
3 375 355 365 
3 362 359 361 
3 361 359 358 
3 363 359 362 
3 363 360 359 
3 359 360 355 
3 370 351 360 
3 353 371 349 
3 348 371 353 
3 346 363 348 
3 348 363 362 
3 346 370 363 
3 363 370 360 
3 366 365 368 
3 368 365 347 
3 366 368 367 
3 367 368 350 
3 369 350 354 
3 368 372 354 
3 350 368 354 
3 364 369 365 
3 365 369 347 
3 364 367 369 
3 369 367 350 
3 352 370 346 
3 351 370 352 
3 348 362 371 
3 371 362 361 
3 349 371 361 
3 372 369 354 
3 361 358 376 
3 376 358 357 
3 356 376 357 
3 360 376 355 
3 355 376 356 
3 358 359 355 
3 361 360 349 
3 349 360 351 
3 366 367 364 
3 368 347 369 
3 368 369 372 
3 366 364 373 
3 374 358 375 
3 375 358 355 
3 361 376 360 
3 389 390 396 
3 396 390 395 
3 397 398 388 
3 387 388 398 
3 387 398 386 
3 386 398 399 
3 394 385 399 
3 385 386 399 
3 402 383 382 
3 382 383 380 
3 402 377 383 
3 383 377 379 
3 397 388 396 
3 388 389 396 
3 394 395 385 
3 390 385 395 
3 382 386 391 
3 391 386 385 
3 382 380 386 
3 386 380 387 
3 380 392 387 
3 387 392 388 
3 402 382 391 
3 377 393 379 
3 377 402 393 
3 393 402 391 
3 378 401 384 
3 396 395 378 
3 397 396 400 
3 400 396 378 
3 401 381 384 
3 400 378 384 
3 381 400 384 
3 394 401 395 
3 395 401 378 
3 379 393 383 
3 383 393 392 
3 380 383 392 
3 381 397 400 
3 394 381 401 
3 393 403 392 
3 392 403 388 
3 393 391 403 
3 403 391 385 
3 388 385 389 
3 389 385 390 
3 397 394 398 
3 398 394 399 
3 397 381 394 
3 388 403 385 
