ply
format ascii 1.0
comment VCGLIB generated
comment TextureFile T://3111_3D//2020//SAM//Textures//Combined_Texture//Texture_01_A.png
element vertex 278
property float x
property float y
property float z
property float nx
property float ny
property float nz
property uchar red
property uchar green
property uchar blue
property uchar alpha
property float texture_u
property float texture_v
element face 552
property list uchar int vertex_indices
end_header
-0.055821 0.00723 -0.093177 -0.582832 0.2950047 -0.757152 255 255 255 255 0.351704 0.187790
0.076823 0.071277 0.102258 0.4585426 0.7542819 0.469891 255 255 255 255 0.351704 0.187790
-0.06291 0.121139 0.02091 -0.5731811 0.6900253 0.4419599 255 255 255 255 0.351704 0.187790
-0.15623 0.041608 0.087124 -0.9353939 0.3504901 -0.04685092 255 255 255 255 0.351704 0.187790
0.021065 0.120878 0.10062 -0.1967805 0.5612312 0.803926 255 255 255 255 0.351704 0.187790
-0.125717 0.037815 -0.040089 -0.884373 0.2510105 -0.3935457 255 255 255 255 0.351704 0.187790
0.065761 0.115498 -0.005479 0.6460083 0.7468492 0.1577646 255 255 255 255 0.351704 0.187790
0.155837 0.026705 0.00229 0.8689727 0.493021 -0.0426249 255 255 255 255 0.351704 0.187790
0.089985 0.108286 -0.112339 0.5151958 0.3310783 -0.7905444 255 255 255 255 0.351704 0.187790
0.097578 0.127604 -0.08973 0.6062152 0.7269692 -0.3225198 255 255 255 255 0.351704 0.187790
0.101241 0.063166 0.019955 0.6466311 0.7409226 0.1813891 255 255 255 255 0.351704 0.187790
0.029169 0.15617 -0.000294 0.4482108 0.8134332 0.3707202 255 255 255 255 0.351704 0.187790
0.103127 0.090416 -0.018424 0.9461608 0.2437781 0.2129601 255 255 255 255 0.351704 0.187790
0.102973 0.127577 -0.015875 0.6794015 0.6729067 0.2925923 255 255 255 255 0.351704 0.187790
-0.112044 0.075488 0.100919 0.04401973 0.6182889 0.7847172 255 255 255 255 0.351704 0.187790
0.116096 0.002551 -0.114441 0.5425482 -0.2044753 -0.8147585 255 255 255 255 0.351704 0.187790
-0.101139 0.046692 -0.069396 -0.436678 0.4924797 -0.7528453 255 255 255 255 0.351704 0.187790
-0.110336 0.055433 -0.048284 -0.3829611 0.4177161 -0.823926 255 255 255 255 0.351704 0.187790
-0.018057 0.049848 -0.126689 -0.4317182 0.7234781 -0.538701 255 255 255 255 0.351704 0.187790
0.116962 0.059324 0.079464 0.840865 0.4302216 0.3284136 255 255 255 255 0.351704 0.187790
0.067406 0.063921 -0.128318 0.3626392 0.3691045 -0.8557189 255 255 255 255 0.351704 0.187790
-0.019154 0.101663 -0.093711 -0.790332 0.1949273 -0.5808431 255 255 255 255 0.351704 0.187790
0.035318 0.147546 -0.11066 0.4111914 0.7160674 -0.5640647 255 255 255 255 0.351704 0.187790
-0.065049 0.080714 -0.0379 -0.3610926 0.8082983 -0.4650441 255 255 255 255 0.351704 0.187790
0.015299 0.179512 -0.02524 0.47982 0.877246 -0.01457028 255 255 255 255 0.351704 0.187790
0.023495 0.130436 0.085809 0.2825197 0.85567 0.433603 255 255 255 255 0.351704 0.187790
0.105423 0.028152 0.081749 0.6881308 0.3762114 0.6204361 255 255 255 255 0.351704 0.187790
0.12749 0.041659 0.048514 0.8547552 0.1914376 0.4824368 255 255 255 255 0.351704 0.187790
0.149255 0.030529 0.022381 0.9082102 0.3220991 0.26722 255 255 255 255 0.351704 0.187790
0.122297 0.046163 -0.047638 0.7368118 0.6559261 -0.1639186 255 255 255 255 0.351704 0.187790
0.07429 0.063215 -0.122584 0.7420802 0.2419428 -0.6251245 255 255 255 255 0.351704 0.187790
-0.033314 0.078887 0.089813 -0.4498264 0.7750342 0.4438221 255 255 255 255 0.351704 0.187790
-0.044926 0.079204 -0.053798 -0.6667206 0.4063503 -0.6247904 255 255 255 255 0.351704 0.187790
-0.018584 0.153077 -0.029041 -0.7246406 0.6270199 -0.2859056 255 255 255 255 0.351704 0.187790
0.140868 0.011469 0.044099 0.9118121 0.1407103 0.3857452 255 255 255 255 0.351704 0.187790
-0.054466 0.000621 0.084999 -0.01316608 -0.9987971 0.04723532 255 255 255 255 0.351704 0.187790
0.102203 0.022841 0.117413 0.7745133 0.4335541 0.4606082 255 255 255 255 0.351704 0.187790
-0.064073 0.120499 -0.008556 -0.6564724 0.563313 -0.5017195 255 255 255 255 0.351704 0.187790
-0.050504 0.126653 0.032128 -0.3042575 0.7324466 0.6090562 255 255 255 255 0.351704 0.187790
0.076701 0.113221 -0.11223 0.3080772 0.3336493 -0.8909358 255 255 255 255 0.351704 0.187790
-0.056456 0.083773 -0.027081 -0.6263832 0.7022046 -0.3384567 255 255 255 255 0.351704 0.187790
0.113854 0.062755 0.009059 0.4441372 0.8770475 0.1831113 255 255 255 255 0.351704 0.187790
-0.152142 0.044254 0.065025 -0.9148807 0.2614608 -0.3076224 255 255 255 255 0.351704 0.187790
0.125299 0.058707 0.000756 0.5746263 0.8144144 -0.08083262 255 255 255 255 0.351704 0.187790
0.108617 0.05458 -0.046683 0.8573084 0.4302214 -0.2827223 255 255 255 255 0.351704 0.187790
0.01027 0.077731 0.121342 0.002346282 0.6676005 0.744516 255 255 255 255 0.351704 0.187790
-0.079435 0.027888 0.097703 0.1603459 -0.248703 0.9552152 255 255 255 255 0.351704 0.187790
-0.072431 0.052374 -0.069893 -0.1347261 0.6705981 -0.7294841 255 255 255 255 0.351704 0.187790
-0.005784 0.038129 0.126056 -0.5740343 0.6252994 0.5286638 255 255 255 255 0.351704 0.187790
-0.03028 0.004471 0.107078 -0.660297 0.02468984 0.7505986 255 255 255 255 0.351704 0.187790
-0.142458 0.003603 0.114099 -0.05462146 -0.6402189 0.7662482 255 255 255 255 0.351704 0.187790
0.044516 0.001002 -0.143206 0.1779721 -0.7283115 -0.6617313 255 255 255 255 0.351704 0.187790
0.088169 0.005811 -0.12898 0.5737965 0.3357049 -0.7470341 255 255 255 255 0.351704 0.187790
-0.025375 0.052006 -0.094067 -0.5414588 0.7365311 -0.405394 255 255 255 255 0.351704 0.187790
-0.087847 0.093562 0.005472 -0.7207009 0.5584924 -0.4107024 255 255 255 255 0.351704 0.187790
0.035335 0.136236 0.056117 0.357496 0.8948135 0.2674051 255 255 255 255 0.351704 0.187790
-0.123966 0.041698 -0.018659 -0.805213 0.5670794 -0.173358 255 255 255 255 0.351704 0.187790
-0.098013 0.090965 0.024546 -0.4423592 0.8953858 -0.05101731 255 255 255 255 0.351704 0.187790
-0.083838 0.08869 -0.005042 -0.6553748 0.5261242 -0.5419201 255 255 255 255 0.351704 0.187790
-0.048012 0.126414 -0.01681 -0.6801246 0.517815 -0.5189395 255 255 255 255 0.351704 0.187790
-0.177072 0.004496 0.045932 -0.8979998 -0.3766532 -0.2274395 255 255 255 255 0.351704 0.187790
0.140981 0.036182 0.009583 0.7111222 0.5941635 -0.3758657 255 255 255 255 0.351704 0.187790
0.00933 0.125015 0.08735 -0.6455085 0.4154924 0.6408471 255 255 255 255 0.351704 0.187790
-0.008176 0.077892 -0.106033 -0.7323896 0.2053439 -0.6491836 255 255 255 255 0.351704 0.187790
0.017415 0.083037 0.10517 -0.4208366 0.6232432 0.6591392 255 255 255 255 0.351704 0.187790
-0.114442 0.008663 -0.065541 -0.5384538 -0.2485348 -0.8051696 255 255 255 255 0.351704 0.187790
0.091265 0.04846 -0.117756 0.8242328 0.3586272 -0.4382088 255 255 255 255 0.351704 0.187790
0.060926 0.005028 0.139287 0.3370026 -0.8265772 0.4507765 255 255 255 255 0.351704 0.187790
-0.030767 0.078705 0.047579 -0.2284902 0.6835162 0.6932517 255 255 255 255 0.351704 0.187790
-0.150277 0.001758 0.097351 -0.08743553 -0.9925985 0.08428049 255 255 255 255 0.351704 0.187790
-0.011723 0.00401 -0.139299 -0.5019684 -0.6582624 -0.5609977 255 255 255 255 0.351704 0.187790
0.086666 0.039876 -0.125254 0.7190536 0.02204794 -0.6946048 255 255 255 255 0.351704 0.187790
0.130498 0.057097 -0.008684 0.7237306 0.6826039 0.1013211 255 255 255 255 0.351704 0.187790
-0.088181 0.058848 -0.042842 -0.0833764 0.686785 -0.7220629 255 255 255 255 0.351704 0.187790
0.095312 0.000269 -0.001845 0.01624634 -0.999868 -0.0002475891 255 255 255 255 0.351704 0.187790
0.109142 0.098357 -0.066924 0.9857528 0.09340265 -0.1398835 255 255 255 255 0.351704 0.187790
0.120994 0.006857 0.111842 0.8098605 -0.1579644 0.5649542 255 255 255 255 0.351704 0.187790
0.094433 0.024076 0.124353 0.5143979 0.1591507 0.8426541 255 255 255 255 0.351704 0.187790
0.141101 0.03666 -0.003137 0.6550608 0.7408197 0.148599 255 255 255 255 0.351704 0.187790
-0.050435 0.101902 -0.026328 -0.7998459 0.3390926 -0.4952401 255 255 255 255 0.351704 0.187790
0.078863 0.085608 -0.117669 0.3161992 0.1917568 -0.9291111 255 255 255 255 0.351704 0.187790
0.071789 0.122803 -0.111537 0.2801179 0.6714322 -0.6860852 255 255 255 255 0.351704 0.187790
0.050754 0.153248 0.012044 0.4375585 0.6808496 0.5873554 255 255 255 255 0.351704 0.187790
-0.078846 0.014711 -0.081111 -0.4278987 0.07856453 -0.9004056 255 255 255 255 0.351704 0.187790
-0.058597 0.065237 0.082811 0.007120369 0.7845913 0.6199724 255 255 255 255 0.351704 0.187790
-0.10088 0.074168 0.004423 -0.7463142 0.6131715 -0.258913 255 255 255 255 0.351704 0.187790
-0.122739 0.083835 0.077889 -0.1060307 0.9540493 0.2802631 255 255 255 255 0.351704 0.187790
-0.098412 0.095073 0.056136 -0.3473169 0.9200792 0.1811774 255 255 255 255 0.351704 0.187790
0.068748 0.129325 -0.080977 0.2476991 0.9569792 -0.1511159 255 255 255 255 0.351704 0.187790
0.011648 0.171491 0.009466 0.4016326 0.7030477 0.586869 255 255 255 255 0.351704 0.187790
0.028715 0.163202 -0.083166 0.441817 0.8611352 -0.2514834 255 255 255 255 0.351704 0.187790
-0.034016 0.140894 -0.027247 -0.7323326 0.611663 -0.2992613 255 255 255 255 0.351704 0.187790
-0.002057 0.178766 -0.030873 -0.4765075 0.8211765 -0.3140221 255 255 255 255 0.351704 0.187790
0.044494 0.124745 -0.116538 0.3548367 0.6022846 -0.7150835 255 255 255 255 0.351704 0.187790
0.024523 0.086754 -0.130518 -0.1522391 0.3006335 -0.9415109 255 255 255 255 0.351704 0.187790
0.013405 0.120563 -0.126117 -0.3477762 0.3167137 -0.8824648 255 255 255 255 0.351704 0.187790
0.093164 0.079449 0.047295 0.942618 0.3307863 0.0452963 255 255 255 255 0.351704 0.187790
0.062954 0.101351 0.059646 0.6841332 0.6730703 0.2809592 255 255 255 255 0.351704 0.187790
0.055945 0.114154 0.032225 0.8250797 0.5650117 -0.002320134 255 255 255 255 0.351704 0.187790
-0.149106 0.076095 0.083559 -0.7032498 0.5580298 0.4405026 255 255 255 255 0.351704 0.187790
-0.148375 0.079883 0.060816 -0.7561744 0.5990579 -0.2633057 255 255 255 255 0.351704 0.187790
0.05975 0.063356 0.120714 0.1166182 0.7730723 0.6235058 255 255 255 255 0.351704 0.187790
-0.052351 0.06132 -0.062751 -0.4261375 0.6272039 -0.6519371 255 255 255 255 0.351704 0.187790
0.100614 0.048802 -0.083841 0.477665 0.8633553 -0.1626458 255 255 255 255 0.351704 0.187790
0.107743 0.04761 -0.083894 0.7170284 0.6371511 -0.2826814 255 255 255 255 0.351704 0.187790
0.12253 0.030683 -0.071974 0.8281934 0.4512106 -0.3324225 255 255 255 255 0.351704 0.187790
0.097672 0.010648 -0.094838 0.4172032 0.2692011 -0.8680278 255 255 255 255 0.351704 0.187790
0.104694 0.026404 -0.107952 0.613381 -0.1149335 -0.7813796 255 255 255 255 0.351704 0.187790
0.116121 0.034739 0.072483 0.848718 0.1835736 0.4959622 255 255 255 255 0.351704 0.187790
0.049421 0.006682 0.154908 0.3553309 -0.4209508 0.83459 255 255 255 255 0.351704 0.187790
-0.062752 0.001563 0.090849 0.006540888 -0.7518203 0.6593357 255 255 255 255 0.351704 0.187790
0.136482 0.001529 -0.029127 0.1950769 -0.9762791 -0.0939376 255 255 255 255 0.351704 0.187790
-0.097508 0.00264 -0.068767 -0.3056981 -0.7192378 -0.6238956 255 255 255 255 0.351704 0.187790
-0.049099 0.001605 -0.101568 -0.53249 -0.6335854 -0.56127 255 255 255 255 0.351704 0.187790
0.037588 0.036845 0.149489 0.1535642 0.6230898 0.766927 255 255 255 255 0.351704 0.187790
-0.040522 0.05876 0.091121 -0.3312486 0.3927423 0.8579206 255 255 255 255 0.351704 0.187790
-0.015974 0.044776 0.109427 -0.5660853 0.2593426 0.7824888 255 255 255 255 0.351704 0.187790
0.079729 0.105294 -0.000863 0.5125064 0.8120216 0.27921 255 255 255 255 0.351704 0.187790
-0.028786 0.14973 -0.002481 -0.7388192 0.644138 0.1980722 255 255 255 255 0.351704 0.187790
0.024494 0.077688 0.111805 0.02623379 0.6819556 0.7309229 255 255 255 255 0.351704 0.187790
0.007248 0.003015 -0.150184 -0.05178461 -0.808625 -0.5860409 255 255 255 255 0.351704 0.187790
0.091883 0.127447 -0.010753 -0.1917411 0.8312668 0.5217576 255 255 255 255 0.351704 0.187790
0.054991 0.127635 0.005603 0.8980242 0.3036273 0.3183756 255 255 255 255 0.351704 0.187790
-0.019243 0.134271 -0.058396 -0.7367957 0.49582 -0.459668 255 255 255 255 0.351704 0.187790
-0.084575 0.069949 0.085639 0.2256124 0.9365185 0.268388 255 255 255 255 0.351704 0.187790
0.028037 0.041483 0.132772 -0.2947536 0.7536009 0.5875424 255 255 255 255 0.351704 0.187790
0.127907 0.056976 -0.02128 0.4558158 0.6707398 -0.5850984 255 255 255 255 0.351704 0.187790
0.140715 0.03516 -0.013073 0.7357822 0.5373659 -0.4121439 255 255 255 255 0.351704 0.187790
0.120948 0.014353 -0.095635 0.7307838 0.3865708 -0.5625994 255 255 255 255 0.351704 0.187790
-0.007968 0.005255 0.129035 -0.6467568 -0.3119939 0.6959638 255 255 255 255 0.351704 0.187790
-0.000825 0.034126 0.138207 -0.623208 0.4295457 0.6535306 255 255 255 255 0.351704 0.187790
-0.128832 0.003277 -0.049833 -0.6711513 -0.5605474 -0.4851211 255 255 255 255 0.351704 0.187790
-0.135448 0.001248 -0.022301 -0.6824405 -0.709063 -0.177496 255 255 255 255 0.351704 0.187790
-0.158229 0.003707 0.102395 -0.5329769 -0.7662903 0.3587964 255 255 255 255 0.351704 0.187790
0.035192 0.000904 0.12421 0.02402792 -0.9983333 0.05247287 255 255 255 255 0.351704 0.187790
0.138873 0.00577 -0.04222 0.8541436 -0.3916152 -0.3421642 255 255 255 255 0.351704 0.187790
-0.155162 0.008733 0.11085 -0.5501983 -0.2888988 0.7834663 255 255 255 255 0.351704 0.187790
0.144872 0.001607 0.027126 0.4303731 -0.8783933 0.2078563 255 255 255 255 0.351704 0.187790
0.018462 0.006005 -0.150793 0.1547093 -0.267183 -0.9511458 255 255 255 255 0.351704 0.187790
0.002066 0.006613 -0.152238 -0.2754055 -0.2862229 -0.91773 255 255 255 255 0.351704 0.187790
0.001045 0.029153 -0.142535 -0.252208 0.3236157 -0.9119562 255 255 255 255 0.351704 0.187790
-0.015227 0.024303 -0.144636 -0.4829528 0.188303 -0.85516 255 255 255 255 0.351704 0.187790
-0.104648 0.076099 -0.011499 -0.5968515 0.7308649 0.3310662 255 255 255 255 0.351704 0.187790
-0.1557 0.003755 0.00892 -0.7462801 -0.4942439 -0.4458576 255 255 255 255 0.351704 0.187790
-0.037513 0.018215 0.09755 -0.3413724 -0.1272154 0.9312793 255 255 255 255 0.351704 0.187790
0.100848 0.005613 0.124655 0.4670606 -0.3240623 0.8227017 255 255 255 255 0.351704 0.187790
0.069474 0.013374 0.136801 0.4629921 0.03290892 0.8857513 255 255 255 255 0.351704 0.187790
0.07945 0.054647 -0.128013 0.5518245 0.4001362 -0.7316972 255 255 255 255 0.351704 0.187790
0.080664 0.028452 -0.13048 0.5904714 0.06450652 -0.8044765 255 255 255 255 0.351704 0.187790
-0.111869 0.027081 -0.064275 -0.7364633 0.2005285 -0.6460729 255 255 255 255 0.351704 0.187790
-0.136034 0.041872 0.026 -0.714764 0.6611356 -0.2280619 255 255 255 255 0.351704 0.187790
-0.175453 0.012509 0.056643 -0.9464862 0.3227269 -0.003336842 255 255 255 255 0.351704 0.187790
0.058785 0.060946 0.12967 -0.1202651 0.7340698 0.6683396 255 255 255 255 0.351704 0.187790
0.021075 0.059514 -0.143028 -0.0243957 0.317479 -0.9479515 255 255 255 255 0.351704 0.187790
-0.064187 0.029693 -0.079874 -0.4333182 0.3884353 -0.8132364 255 255 255 255 0.351704 0.187790
-0.047738 0.048504 0.096734 -0.1182697 0.5136773 0.8497929 255 255 255 255 0.351704 0.187790
0.024503 0.062625 0.123443 0.001189499 0.2569585 0.9664217 255 255 255 255 0.351704 0.187790
0.138155 0.055524 0.01045 0.6783285 0.4792198 -0.5569729 255 255 255 255 0.351704 0.187790
0.033741 0.049539 0.12958 -0.1310978 0.5537161 0.8223211 255 255 255 255 0.351704 0.187790
0.095791 0.058066 0.118393 0.6304006 0.5045268 0.5899557 255 255 255 255 0.351704 0.187790
0.129961 0.041096 0.002475 0.8406955 0.5326846 -0.09735657 255 255 255 255 0.351704 0.187790
0.012704 0.041302 -0.147051 -0.2369222 0.2104476 -0.9484617 255 255 255 255 0.351704 0.187790
-0.035574 0.072451 -0.067385 -0.7244338 0.2862873 -0.6270847 255 255 255 255 0.351704 0.187790
0.144735 0.057295 0.024393 0.7761869 0.6202338 0.113331 255 255 255 255 0.351704 0.187790
0.09397 0.083466 -0.110907 0.7552978 -0.1552244 -0.6367345 255 255 255 255 0.351704 0.187790
0.098121 0.08942 0.000907 0.6264051 0.3869962 0.6766466 255 255 255 255 0.351704 0.187790
0.092124 0.104286 0.043849 0.5900808 0.7365164 0.3306784 255 255 255 255 0.351704 0.187790
-0.062465 0.12849 0.011735 -0.5597523 0.8231102 0.09574433 255 255 255 255 0.351704 0.187790
-0.018439 0.092865 0.053912 -0.7592948 0.2533666 0.5993969 255 255 255 255 0.351704 0.187790
-0.032572 0.122531 -0.051884 -0.7846484 0.4590724 -0.4166287 255 255 255 255 0.351704 0.187790
-0.030735 0.129525 0.035095 -0.4897903 0.6458114 0.5856903 255 255 255 255 0.351704 0.187790
0.050046 0.140904 -0.051451 0.4838241 0.8604591 -0.1597635 255 255 255 255 0.351704 0.187790
0.032777 0.151373 -0.083322 0.7933475 0.5992778 -0.1070792 255 255 255 255 0.351704 0.187790
0.019647 0.139068 0.043343 0.1459755 0.9826531 0.1143857 255 255 255 255 0.351704 0.187790
0.013506 0.142298 0.022167 0.3517038 0.8343235 0.4245101 255 255 255 255 0.351704 0.187790
0.024554 0.139281 -0.111015 -0.2447078 0.7159684 -0.6538405 255 255 255 255 0.351704 0.187790
0.015131 0.13621 -0.114023 -0.3869845 0.5988645 -0.701145 255 255 255 255 0.351704 0.187790
0.044801 0.138622 0.018265 0.5336732 0.6916459 0.4866405 255 255 255 255 0.351704 0.187790
0.043541 0.153384 -0.010597 0.1914205 0.9728588 -0.1300155 255 255 255 255 0.351704 0.187790
-0.006067 0.167827 0.01421 -0.2940408 0.5912778 0.7509531 255 255 255 255 0.351704 0.187790
0.059361 0.117445 0.011054 0.6388331 0.7427902 0.2003871 255 255 255 255 0.351704 0.187790
-0.046708 0.104471 -0.041016 -0.859519 0.4194622 -0.292025 255 255 255 255 0.351704 0.187790
0.112831 0.076151 -0.02626 0.9457313 0.3233244 0.0324618 255 255 255 255 0.351704 0.187790
-0.083568 0.08335 -0.013866 -0.3048543 0.9189667 -0.2501284 255 255 255 255 0.351704 0.187790
-0.123019 0.074563 0.033654 -0.7367036 0.2209356 -0.639105 255 255 255 255 0.351704 0.187790
0.105673 0.042265 -0.088675 0.8589711 0.270703 -0.4346132 255 255 255 255 0.351704 0.187790
-0.115425 0.078283 -0.028324 -0.5832933 0.7881267 0.1965333 255 255 255 255 0.351704 0.187790
-0.049822 0.049304 -0.086986 -0.5544572 0.7640571 -0.3298396 255 255 255 255 0.351704 0.187790
0.013577 0.002277 0.146577 -0.3708403 -0.6796697 0.6328717 255 255 255 255 0.351704 0.187790
-0.014862 0.000994 0.118574 -0.3216226 -0.8781412 0.3541568 255 255 255 255 0.351704 0.187790
-0.053137 0.024501 -0.090127 -0.6684271 0.2439164 -0.702645 255 255 255 255 0.351704 0.187790
0.052631 0.026546 0.146548 0.5282717 0.3498259 0.7736607 255 255 255 255 0.351704 0.187790
-0.155474 0.034619 0.063145 -0.7755986 0.5768045 -0.2564049 255 255 255 255 0.351704 0.187790
-0.062125 0.106573 0.042845 -0.01400858 0.7237822 0.6898863 255 255 255 255 0.351704 0.187790
0.054189 0.143793 0.009793 0.6354904 -0.03829442 0.7711586 255 255 255 255 0.351704 0.187790
-0.045095 0.13516 -0.003151 -0.5590732 0.8288715 -0.0202295 255 255 255 255 0.351704 0.187790
-0.001038 0.174682 0.005153 -0.06160071 0.9149665 0.3988003 255 255 255 255 0.351704 0.187790
0.004101 0.135673 0.072891 -0.5235598 0.6854405 0.5060202 255 255 255 255 0.351704 0.187790
0.008646 0.126168 -0.116225 -0.6333448 0.5154936 -0.5771835 255 255 255 255 0.351704 0.187790
0.056521 0.132798 0.033254 0.8292535 0.550262 -0.09772576 255 255 255 255 0.351704 0.187790
-0.031164 0.101545 0.040899 -0.2602867 0.303143 0.9167089 255 255 255 255 0.351704 0.187790
0.098895 0.089165 -0.101038 0.9276668 -0.02962771 -0.3722318 255 255 255 255 0.351704 0.187790
-0.0047 0.083082 0.085205 -0.5270686 0.7469674 0.4052634 255 255 255 255 0.351704 0.187790
-0.149851 0.055812 0.086793 -0.7787185 0.4709261 0.414519 255 255 255 255 0.351704 0.187790
-0.056258 0.048014 -0.07194 -0.3523934 0.6227444 -0.6985759 255 255 255 255 0.351704 0.187790
0.11617 0.062847 -0.010944 0.7031693 0.710996 0.006142106 255 255 255 255 0.351704 0.187790
0.125591 0.058288 0.043513 0.5461346 0.7877246 0.2850038 255 255 255 255 0.351704 0.187790
-0.072062 0.05596 0.094325 0.2451357 0.6854845 0.6855797 255 255 255 255 0.351704 0.187790
-0.161012 0.013875 0.105616 -0.8414857 0.001613865 0.5402769 255 255 255 255 0.351704 0.187790
-0.154597 0.050942 0.097682 -0.7822119 0.5787452 0.230648 255 255 255 255 0.351704 0.187790
0.04186 0.059545 -0.139911 0.1801388 0.5282571 -0.8297557 255 255 255 255 0.351704 0.187790
-0.040368 0.001479 0.099224 -0.4492207 -0.5346469 0.7157887 255 255 255 255 0.351704 0.187790
-0.172328 0.012675 0.075896 -0.9668732 -0.01253317 0.2549492 255 255 255 255 0.351704 0.187790
0.030072 0.002529 0.15379 -0.1023068 -0.6589987 0.7451537 255 255 255 255 0.351704 0.187790
-0.122232 0.000463 -0.023551 -0.04463587 -0.998441 -0.03351358 255 255 255 255 0.351704 0.187790
-0.136011 0.010459 -0.034944 -0.9822474 0.03187759 -0.1848617 255 255 255 255 0.351704 0.187790
-0.104669 0.016284 0.102543 0.3238777 -0.05483714 0.9445084 255 255 255 255 0.351704 0.187790
0.031046 0.135484 -0.117844 0.06263568 0.475131 -0.877683 255 255 255 255 0.351704 0.187790
-0.120578 0.053102 0.102435 -0.1355743 0.8075532 0.5740012 255 255 255 255 0.351704 0.187790
-0.170114 0.002153 0.058623 -0.3282028 -0.9416109 0.07517918 255 255 255 255 0.351704 0.187790
0.022096 0.029382 -0.14914 0.09095214 0.1885745 -0.9778382 255 255 255 255 0.351704 0.187790
0.014257 0.067791 -0.137397 -0.4882005 0.4175511 -0.7663624 255 255 255 255 0.351704 0.187790
-0.097108 0.078543 -0.036846 0.01153244 0.8163337 -0.5774655 255 255 255 255 0.351704 0.187790
0.070542 0.108558 0.03157 0.251537 0.9262962 0.2805434 255 255 255 255 0.351704 0.187790
0.015562 0.166985 -0.063208 -0.202746 0.9056619 -0.372385 255 255 255 255 0.351704 0.187790
0.01277 0.150821 -0.094715 -0.5215067 0.6847448 -0.5090731 255 255 255 255 0.351704 0.187790
-0.128704 0.032254 -0.024025 -0.9272048 0.3451931 -0.1453721 255 255 255 255 0.351704 0.187790
0.095308 0.002314 0.123865 0.1898183 -0.884477 0.4262271 255 255 255 255 0.351704 0.187790
0.011041 0.13746 0.075133 -0.02960567 0.9146259 0.4032159 255 255 255 255 0.351704 0.187790
0.120367 0.049267 -0.027598 0.7498366 0.4914783 -0.4429381 255 255 255 255 0.351704 0.187790
0.018531 0.03773 0.150811 -0.2266528 0.6222246 0.7493098 255 255 255 255 0.351704 0.187790
-0.011479 0.001524 -0.132296 -0.1323492 -0.9761165 -0.1722796 255 255 255 255 0.351704 0.187790
0.101333 0.003062 -0.123753 0.5910059 -0.04655891 -0.8053226 255 255 255 255 0.351704 0.187790
-0.14842 0.024958 0.010565 -0.784025 0.5076535 -0.3572014 255 255 255 255 0.351704 0.187790
-0.116019 0.073632 -0.04464 -0.3851586 0.5457864 -0.7441574 255 255 255 255 0.351704 0.187790
0.004972 0.041422 0.126827 -0.3328166 0.6496252 0.6835352 255 255 255 255 0.351704 0.187790
-0.003941 0.054853 -0.12363 -0.553095 0.6081692 -0.5693998 255 255 255 255 0.351704 0.187790
-0.1065 0.085528 0.074015 0.09476475 0.7840586 0.6134101 255 255 255 255 0.351704 0.187790
-0.013601 0.173079 0.000329 -0.6371227 0.7349525 0.2322057 255 255 255 255 0.351704 0.187790
0.003026 0.182023 -0.021481 -0.07154979 0.997325 0.01495026 255 255 255 255 0.351704 0.187790
-0.007954 0.15111 0.022718 -0.3273869 0.7160951 0.6164623 255 255 255 255 0.351704 0.187790
-0.031789 0.048307 -0.113289 -0.5956318 0.6781997 -0.4304276 255 255 255 255 0.351704 0.187790
0.132216 0.032453 -0.022406 0.7154416 0.4908067 -0.4972445 255 255 255 255 0.351704 0.187790
0.075126 0.058493 0.129813 0.2577655 0.6025295 0.7553245 255 255 255 255 0.351704 0.187790
0.136206 0.020763 -0.039728 0.8438667 0.4190613 -0.3350771 255 255 255 255 0.351704 0.187790
-0.100367 0.002695 0.102277 0.2415059 -0.5412885 0.8054078 255 255 255 255 0.351704 0.187790
0.057661 0.039558 0.134468 0.2265728 0.3690215 0.9013811 255 255 255 255 0.351704 0.187790
0.09066 0.091908 0.014018 0.8090969 0.1347485 -0.5720183 255 255 255 255 0.351704 0.187790
0.134504 0.003346 0.072085 0.8217859 -0.5018285 0.2698817 255 255 255 255 0.351704 0.187790
-0.129498 0.048529 0.118736 -0.08538238 -0.01583792 0.9962224 255 255 255 255 0.351704 0.187790
0.043559 0.142755 -0.088469 0.5037249 0.8007391 -0.3241577 255 255 255 255 0.351704 0.187790
-0.115944 0.051813 0.120783 0.05766631 0.3662534 0.9287266 255 255 255 255 0.351704 0.187790
0.068889 0.128492 -0.048937 0.5092219 0.8536162 0.1096921 255 255 255 255 0.351704 0.187790
0.101061 0.128843 -0.04636 0.590264 0.806825 -0.02494064 255 255 255 255 0.351704 0.187790
0.093715 0.073875 0.07712 0.6128506 0.7230077 0.3188636 255 255 255 255 0.351704 0.187790
-0.001808 0.076845 0.11985 -0.3940037 0.5788026 0.7139669 255 255 255 255 0.351704 0.187790
0.077263 0.003654 -0.134247 0.3284705 -0.4038698 -0.8538129 255 255 255 255 0.351704 0.187790
-0.166345 0.006302 0.089337 -0.8676527 -0.3885661 0.3101537 255 255 255 255 0.351704 0.187790
-0.140303 0.033594 0.116236 -0.1616005 -0.05740105 0.9851855 255 255 255 255 0.351704 0.187790
0.129913 0.003932 -0.077621 0.8679178 -0.4233981 -0.2597169 255 255 255 255 0.351704 0.187790
0.127814 0.00184 -0.066589 0.2560764 -0.965269 -0.0517743 255 255 255 255 0.351704 0.187790
0.112325 0.001279 0.105304 0.2060951 -0.965137 0.1613547 255 255 255 255 0.351704 0.187790
0.155625 0.004805 -0.013663 0.7976925 -0.5666984 -0.2062514 255 255 255 255 0.351704 0.187790
-0.103342 0.001387 0.0995 0.03405998 -0.9808832 0.1915938 255 255 255 255 0.351704 0.187790
0.053264 0.099167 0.106637 0.4955225 0.5835063 0.6434111 255 255 255 255 0.351704 0.187790
0.024387 0.142815 0.011314 0.2660639 0.7359036 0.6226202 255 255 255 255 0.351704 0.187790
-0.024644 0.139832 0.013449 -0.5531467 0.7316096 0.3984673 255 255 255 255 0.351704 0.187790
-0.14096 0.051577 0.114909 -0.3797789 0.6489659 0.6592505 255 255 255 255 0.351704 0.187790
0.15252 0.017794 -0.020217 0.8383753 0.3260563 -0.4368228 255 255 255 255 0.351704 0.187790
0.096348 0.104601 0.021771 0.8064813 0.572098 -0.1493045 255 255 255 255 0.351704 0.187790
0.156916 0.007648 0.01636 0.8989264 -0.3705951 0.2336461 255 255 255 255 0.351704 0.187790
0.044169 0.029536 -0.142819 0.2756447 0.09948836 -0.9560973 255 255 255 255 0.351704 0.187790
-0.119221 0.075845 -0.03583 -0.732964 0.6692719 -0.1218156 255 255 255 255 0.351704 0.187790
-0.153004 0.054661 0.078172 -0.9747695 0.221943 -0.02378785 255 255 255 255 0.351704 0.187790
-0.054972 0.087824 -0.040759 -0.7469659 0.5375624 -0.3912399 255 255 255 255 0.351704 0.187790
0.096602 0.119807 -0.00526 0.347376 0.3998581 0.8482001 255 255 255 255 0.351704 0.187790
0.056414 0.150345 -0.009572 0.6963775 0.7176754 0.0006259679 255 255 255 255 0.351704 0.187790
0.00309 7.2e-05 -0.04582 -0.002759167 -0.999985 -0.004742007 255 255 255 255 0.351704 0.187790
3 67 227 145 
3 59 79 37 
3 4 25 228 
3 88 253 9 
3 71 147 66 
3 66 147 30 
3 29 105 185 
3 3 257 209 
3 15 260 51 
3 10 247 269 
3 174 265 89 
3 4 264 25 
3 209 208 267 
3 15 51 232 
3 268 244 242 
3 148 52 256 
3 101 152 243 
3 57 100 86 
3 264 101 1 
3 117 121 252 
3 85 184 58 
3 74 111 261 
3 49 189 129 
3 15 232 106 
3 57 87 2 
3 6 252 122 
3 221 236 63 
3 40 23 183 
3 46 251 249 
3 60 257 151 
3 85 183 142 
3 66 30 103 
3 101 156 158 
3 110 216 245 
3 74 214 277 
3 134 67 213 
3 249 251 267 
3 163 27 28 
3 218 207 14 
3 10 206 163 
3 10 19 206 
3 43 72 205 
3 204 53 187 
3 183 23 186 
3 31 202 68 
3 32 23 274 
3 79 40 37 
3 59 37 195 
3 58 37 40 
3 223 166 269 
3 2 87 193 
3 203 218 99 
3 35 189 211 
3 207 155 84 
3 56 85 142 
3 54 184 100 
3 58 184 54 
3 6 122 180 
3 21 123 198 
3 238 179 196 
3 55 177 173 
3 55 199 177 
3 37 167 195 
3 198 123 176 
3 93 172 250 
3 24 172 90 
3 88 171 276 
3 21 181 169 
3 200 168 170 
3 38 200 170 
3 63 53 162 
3 30 20 164 
3 182 205 229 
3 43 160 72 
3 152 101 158 
3 28 61 157 
3 154 204 187 
3 102 204 47 
3 190 241 141 
3 190 187 241 
3 246 152 158 
3 56 233 150 
3 272 234 5 
3 16 149 17 
3 146 145 77 
3 144 48 116 
3 49 48 144 
3 132 143 233 
3 131 215 5 
3 50 258 136 
3 74 261 134 
3 35 110 263 
3 69 133 219 
3 113 214 112 
3 70 231 113 
3 256 51 138 
3 112 214 131 
3 271 256 220 
3 258 208 136 
3 45 64 255 
3 86 124 237 
3 86 14 124 
3 64 119 4 
3 195 266 118 
3 21 198 95 
3 12 13 165 
3 121 117 275 
3 51 231 120 
3 24 239 196 
3 109 114 230 
3 70 113 0 
3 137 111 262 
3 213 109 230 
3 76 34 108 
3 71 107 106 
3 128 105 244 
3 44 29 103 
3 102 23 162 
3 73 23 102 
3 1 101 159 
3 63 21 94 
3 33 92 225 
3 221 94 153 
3 178 82 276 
3 97 98 199 
3 161 220 140 
3 9 253 75 
3 211 110 35 
3 248 261 137 
3 248 76 261 
3 159 77 36 
3 243 77 159 
3 146 77 243 
3 78 7 127 
3 72 78 127 
3 220 161 271 
3 40 79 181 
3 94 80 20 
3 80 94 81 
3 93 81 95 
3 217 93 95 
3 82 178 11 
3 26 159 36 
3 26 36 76 
3 154 83 47 
3 7 61 28 
3 14 84 124 
3 86 87 57 
3 89 179 174 
3 123 91 225 
3 81 93 88 
3 59 91 79 
3 168 202 62 
3 168 68 202 
3 58 54 37 
3 94 21 95 
3 80 39 8 
3 253 121 13 
3 202 64 62 
3 96 254 19 
3 10 96 19 
3 254 96 166 
3 223 97 1 
3 223 98 97 
3 166 223 1 
3 237 124 68 
3 99 273 203 
3 42 99 100 
3 42 273 99 
3 54 100 57 
3 162 23 32 
3 73 102 47 
3 103 104 66 
3 103 29 104 
3 48 235 116 
3 116 235 31 
3 18 140 141 
3 161 18 236 
3 140 18 161 
3 271 153 210 
3 244 105 29 
3 268 7 262 
3 106 107 128 
3 65 149 16 
3 138 139 220 
3 208 209 257 
3 143 219 60 
3 219 214 69 
3 143 214 219 
3 0 113 112 
3 115 116 31 
3 155 116 115 
3 121 275 13 
3 195 118 91 
3 238 239 92 
3 196 239 238 
3 101 119 45 
3 229 244 29 
3 120 70 139 
3 120 231 70 
3 138 120 139 
3 51 120 138 
3 215 132 226 
3 180 269 6 
3 223 180 98 
3 98 180 177 
3 117 252 6 
3 275 117 165 
3 165 13 275 
3 177 265 174 
3 196 89 24 
3 197 228 240 
3 123 169 91 
3 4 119 101 
3 86 99 14 
3 237 87 86 
3 274 23 40 
3 119 64 45 
3 255 202 31 
3 255 64 202 
3 125 114 158 
3 161 153 271 
3 72 127 126 
3 141 0 190 
3 212 257 3 
3 151 3 192 
3 220 256 138 
3 15 106 128 
3 130 129 188 
3 129 130 49 
3 230 130 188 
3 143 132 214 
3 69 214 35 
3 69 263 50 
3 263 69 35 
3 131 214 132 
3 113 231 51 
3 219 257 60 
3 219 133 257 
3 133 69 50 
3 136 133 50 
3 133 208 257 
3 136 208 133 
3 263 245 50 
3 263 110 245 
3 227 134 261 
3 67 134 227 
3 259 260 15 
3 260 135 111 
3 259 135 260 
3 232 256 52 
3 137 270 34 
3 135 244 268 
3 244 259 128 
3 135 259 244 
3 112 65 16 
3 149 65 5 
3 5 65 131 
3 5 215 226 
3 139 140 220 
3 140 139 141 
3 0 141 70 
3 142 226 56 
3 233 143 60 
3 146 246 191 
3 145 146 67 
3 77 76 36 
3 77 145 76 
3 229 126 242 
3 147 71 148 
3 71 106 148 
3 256 271 210 
3 53 241 187 
3 53 18 241 
3 17 149 5 
3 234 17 5 
3 272 5 226 
3 150 233 151 
3 114 235 230 
3 114 125 235 
3 146 243 246 
3 158 114 246 
3 243 152 246 
3 153 20 210 
3 141 241 18 
3 162 204 102 
3 204 154 47 
3 17 73 47 
3 17 47 16 
3 155 46 116 
3 155 251 46 
3 156 45 235 
3 235 255 31 
3 235 45 255 
3 158 156 235 
3 160 157 61 
3 28 157 163 
3 159 108 19 
3 159 26 108 
3 3 42 192 
3 273 42 3 
3 157 43 163 
3 163 43 41 
3 30 164 44 
3 164 20 80 
3 254 159 19 
3 159 254 1 
3 10 166 96 
3 269 166 10 
3 205 165 41 
3 162 32 21 
3 269 247 117 
3 269 117 6 
3 63 162 21 
3 12 182 75 
3 39 9 8 
3 32 181 21 
3 54 57 167 
3 2 167 57 
3 168 200 68 
3 170 168 62 
3 199 55 97 
3 169 123 21 
3 79 91 169 
3 250 171 88 
3 22 172 93 
3 90 172 22 
3 9 81 88 
3 9 39 81 
3 217 95 198 
3 176 123 225 
3 173 174 228 
3 173 228 25 
3 175 176 225 
3 176 217 198 
3 175 217 176 
3 240 118 266 
3 197 240 266 
3 195 197 266 
3 170 197 195 
3 173 177 174 
3 178 171 250 
3 178 250 11 
3 276 171 178 
3 265 82 11 
3 92 224 225 
3 224 239 24 
3 92 239 224 
3 196 179 89 
3 89 265 11 
3 175 22 217 
3 175 225 22 
3 240 179 118 
3 118 179 238 
3 179 240 174 
3 118 33 91 
3 253 252 121 
3 88 252 253 
3 264 1 55 
3 1 97 55 
3 180 122 177 
3 274 181 32 
3 99 86 100 
3 94 20 153 
3 182 44 75 
3 44 182 229 
3 165 205 182 
3 40 183 58 
3 58 183 85 
3 192 184 85 
3 42 184 192 
3 84 155 115 
3 84 115 31 
3 207 84 14 
3 66 185 71 
3 185 104 29 
3 66 104 185 
3 186 222 272 
3 183 186 142 
3 249 216 46 
3 249 258 216 
3 151 233 60 
3 154 187 190 
3 83 154 190 
3 116 110 144 
3 46 110 116 
3 106 52 148 
3 211 189 49 
3 83 190 0 
3 226 132 233 
3 150 85 56 
3 192 85 150 
3 99 218 14 
3 193 38 2 
3 193 87 237 
3 194 252 276 
3 194 122 252 
3 82 194 276 
3 59 195 91 
3 250 24 11 
3 228 62 4 
3 228 197 62 
3 38 195 167 
3 38 167 2 
3 195 38 170 
3 98 177 199 
3 75 253 13 
3 200 193 237 
3 68 200 237 
3 38 193 200 
3 4 62 64 
3 170 62 197 
3 68 84 31 
3 80 8 164 
3 44 201 75 
3 164 201 44 
3 186 23 222 
3 267 203 209 
3 218 203 267 
3 204 162 53 
3 205 72 126 
3 43 205 41 
3 234 73 17 
3 222 73 234 
3 53 236 18 
3 160 7 78 
3 160 78 72 
3 206 27 163 
3 27 108 34 
3 28 27 34 
3 235 130 230 
3 235 48 130 
3 256 147 148 
3 210 147 256 
3 268 127 7 
3 268 242 127 
3 146 109 67 
3 144 211 49 
3 144 110 211 
3 151 212 3 
3 7 270 262 
3 83 16 47 
3 134 189 35 
3 134 213 189 
3 214 134 35 
3 134 214 74 
3 277 214 113 
3 132 215 131 
3 216 110 46 
3 245 258 50 
3 245 216 258 
3 103 30 44 
3 117 247 10 
3 8 201 164 
3 201 9 75 
3 8 9 201 
3 217 22 93 
3 101 45 156 
3 221 153 161 
3 28 34 270 
3 89 11 24 
3 151 257 212 
3 243 159 101 
3 19 108 27 
3 206 19 27 
3 267 207 218 
3 267 251 207 
3 203 3 209 
3 63 236 53 
3 54 167 37 
3 172 24 250 
3 191 246 114 
3 106 232 52 
3 109 213 67 
3 188 189 213 
3 129 189 188 
3 261 111 137 
3 112 83 0 
3 267 258 249 
3 186 226 142 
3 272 226 186 
3 222 234 272 
3 251 155 207 
3 42 100 184 
3 177 82 265 
3 240 228 174 
3 79 169 181 
3 41 117 10 
3 41 165 117 
3 254 166 1 
3 157 160 43 
3 163 41 10 
3 236 221 161 
3 44 229 29 
3 125 158 235 
3 150 151 192 
3 226 233 56 
3 139 70 141 
3 191 114 109 
3 259 15 128 
3 83 112 16 
3 135 262 111 
3 131 65 112 
3 232 51 256 
3 130 48 49 
3 213 230 188 
3 191 109 146 
3 267 208 258 
3 242 126 127 
3 229 205 126 
3 25 264 55 
3 264 4 101 
3 173 25 55 
3 122 82 177 
3 194 82 122 
3 12 75 13 
3 269 180 223 
3 274 40 181 
3 242 244 229 
3 108 26 76 
3 124 84 68 
3 51 111 74 
3 51 260 111 
3 262 270 137 
3 270 7 28 
3 268 262 135 
3 185 107 71 
3 107 105 128 
3 185 105 107 
3 20 147 210 
3 30 147 20 
3 273 3 203 
3 80 81 39 
3 93 250 88 
3 118 92 33 
3 118 238 92 
3 33 225 91 
3 225 90 22 
3 90 224 24 
3 225 224 90 
3 276 252 88 
3 73 222 23 
3 160 61 7 
3 248 34 76 
3 248 137 34 
3 63 94 221 
3 12 165 182 
3 95 81 94 
3 277 51 74 
3 277 113 51 
3 76 227 261 
3 145 227 76 
