ply
format ascii 1.0
comment VCGLIB generated
element vertex 72
property float x
property float y
property float z
property float nx
property float ny
property float nz
property uchar red
property uchar green
property uchar blue
property uchar alpha
property float texture_u
property float texture_v
element face 36
property list uchar int vertex_indices
end_header
-1.5 -0.0710784 0.0710784 -9 0 0 142 129 142 255 0.800001 0.142157
-1.5 0.0710784 -0.0710784 -9 0 0 142 129 142 255 0.990952 0.094771
-1.5 -0.0710784 -0.0710784 -9 0 0 107 118 178 255 0.990952 0.142157
-1.5 0.0710784 0.0710784 0 9 0 120 142 142 255 0.800001 0.094771
1.5 0.0710784 -0.0710784 0 9 0 120 142 142 255 0.990952 0.047386
-1.5 0.0710784 -0.0710784 0 9 0 112 178 107 255 0.990952 0.094771
1.5 0.0710784 0.0710784 9 0 0 142 142 129 255 0.990952 0.047386
1.5 -0.0710784 -0.0710784 9 0 0 142 142 129 255 0.800001 0.000000
1.5 0.0710784 -0.0710784 9 0 0 178 107 124 255 0.990952 0.000000
1.5 -0.0710784 0.0710784 0 -9 0 162 176 107 255 0.800001 0.142157
-1.5 -0.0710784 -0.0710784 0 -9 0 162 176 107 255 0.990952 0.189542
1.5 -0.0710784 -0.0710784 0 -9 0 178 175 107 255 0.800001 0.189542
1.5 0.0710784 -0.0710784 0 0 -9 171 107 168 255 0.800001 0.189542
-1.5 -0.0710784 -0.0710784 0 0 -9 171 107 168 255 0.990952 0.236928
-1.5 0.0710784 -0.0710784 0 0 -9 164 107 178 255 0.800001 0.236928
-1.5 0.0710784 0.0710784 0 0 9 107 165 173 255 0.800001 0.284314
1.5 -0.0710784 0.0710784 0 0 9 107 165 173 255 0.990952 0.236928
1.5 0.0710784 0.0710784 0 0 9 107 178 169 255 0.990952 0.284314
-1.5 0.0710784 0.0710784 -9 0 0 178 141 107 255 0.800001 0.094771
1.5 0.0710784 0.0710784 0 9 0 129 107 178 255 0.800001 0.047386
1.5 -0.0710784 0.0710784 9 0 0 107 178 135 255 0.800001 0.047386
-1.5 -0.0710784 0.0710784 0 -9 0 147 178 107 255 0.990952 0.142157
1.5 -0.0710784 -0.0710784 0 0 -9 178 107 158 255 0.990952 0.189542
-1.5 -0.0710784 0.0710784 0 0 9 107 152 178 255 0.800001 0.236928
0.0710784 -1.5 -0.0710784 0 -9 0 178 141 107 255 0.990952 0.094771
-0.0710784 -1.5 0.0710784 0 -9 0 178 141 107 255 1.000000 0.047386
-0.0710784 -1.5 -0.0710784 0 -9 0 178 124 107 255 1.000000 0.094771
0.0710784 -1.5 0.0710784 0 0 9 129 107 178 255 0.800001 0.000000
-0.0710784 1.5 0.0710784 0 0 9 129 107 178 255 0.790952 1.000000
-0.0710784 -1.5 0.0710784 0 0 9 112 107 178 255 0.790952 0.000000
0.0710784 1.5 0.0710784 0 9 0 107 178 135 255 1.000000 0.094771
-0.0710784 1.5 -0.0710784 0 9 0 107 178 135 255 0.990952 0.142157
-0.0710784 1.5 0.0710784 0 9 0 107 178 118 255 0.990952 0.094771
0.0710784 1.5 -0.0710784 0 0 -9 146 178 107 255 0.772854 0.000000
-0.0710784 -1.5 -0.0710784 0 0 -9 146 178 107 255 0.763807 1.000000
-0.0710784 1.5 -0.0710784 0 0 -9 164 178 107 255 0.763806 0.000000
-0.0710784 1.5 0.0710784 -9 0 0 178 107 158 255 0.572855 0.000000
-0.0710784 -1.5 -0.0710784 -9 0 0 178 107 158 255 0.763806 1.000000
-0.0710784 -1.5 0.0710784 -9 0 0 178 107 175 255 0.572855 1.000000
0.0710784 -1.5 0.0710784 9 0 0 107 152 178 255 0.381904 0.000000
0.0710784 1.5 -0.0710784 9 0 0 107 152 178 255 0.572854 1.000000
0.0710784 1.5 0.0710784 9 0 0 107 169 178 255 0.381903 1.000000
0.0710784 -1.5 0.0710784 0 -9 0 178 158 107 255 0.990952 0.047386
0.0710784 1.5 0.0710784 0 0 9 147 107 178 255 0.800000 1.000000
0.0710784 1.5 -0.0710784 0 9 0 107 178 152 255 1.000000 0.142157
0.0710784 -1.5 -0.0710784 0 0 -9 129 178 107 255 0.772855 1.000000
-0.0710784 1.5 -0.0710784 -9 0 0 178 107 141 255 0.763806 0.000000
0.0710784 -1.5 -0.0710784 9 0 0 107 135 178 255 0.572855 0.000000
0.0710784 -0.0710784 1.5 0 0 9 142 146 142 255 1.000000 0.142157
-0.0710784 0.0710784 1.5 0 0 9 142 146 142 255 0.990952 0.189542
-0.0710784 -0.0710784 1.5 0 0 9 178 115 107 255 0.990952 0.142157
0.0710784 0.0710784 1.5 0 9 0 142 129 142 255 0.790952 0.000000
-0.0710784 0.0710784 -1.5 0 9 0 142 129 142 255 0.781904 1.000000
-0.0710784 0.0710784 1.5 0 9 0 107 109 178 255 0.781904 0.000000
0.0710784 0.0710784 -1.5 0 0 -9 122 142 143 255 1.000000 0.000000
-0.0710784 -0.0710784 -1.5 0 0 -9 122 142 143 255 0.990952 0.047386
-0.0710784 0.0710784 -1.5 0 0 -9 107 178 109 255 0.990952 0.000000
0.0710784 -0.0710784 -1.5 0 -9 0 142 142 129 255 0.772855 1.000000
-0.0710784 -0.0710784 1.5 0 -9 0 142 142 129 255 0.781903 0.000000
-0.0710784 -0.0710784 -1.5 0 -9 0 178 107 115 255 0.781904 1.000000
-0.0710784 0.0710784 -1.5 -9 0 0 155 178 107 255 0.381903 1.000000
-0.0710784 -0.0710784 1.5 -9 0 0 155 178 107 255 0.190952 0.000000
-0.0710784 0.0710784 1.5 -9 0 0 172 178 107 255 0.381903 0.000000
0.0710784 0.0710784 1.5 9 0 0 175 107 163 255 0.190952 1.000000
0.0710784 -0.0710784 -1.5 9 0 0 175 107 163 255 0.000000 0.000000
0.0710784 0.0710784 -1.5 9 0 0 172 107 178 255 0.190951 0.000000
0.0710784 0.0710784 1.5 0 0 9 107 178 178 255 1.000000 0.189542
0.0710784 0.0710784 -1.5 0 9 0 178 149 107 255 0.790952 1.000000
0.0710784 -0.0710784 -1.5 0 0 -9 138 107 178 255 1.000000 0.047386
0.0710784 -0.0710784 1.5 0 -9 0 107 178 144 255 0.772855 0.000000
-0.0710784 -0.0710784 -1.5 -9 0 0 138 178 107 255 0.190952 1.000000
0.0710784 -0.0710784 1.5 9 0 0 178 107 149 255 0.000001 1.000000
3 0 1 2 
3 3 4 5 
3 6 7 8 
3 9 10 11 
3 12 13 14 
3 15 16 17 
3 0 18 1 
3 3 19 4 
3 6 20 7 
3 9 21 10 
3 12 22 13 
3 15 23 16 
3 24 25 26 
3 27 28 29 
3 30 31 32 
3 33 34 35 
3 36 37 38 
3 39 40 41 
3 24 42 25 
3 27 43 28 
3 30 44 31 
3 33 45 34 
3 36 46 37 
3 39 47 40 
3 48 49 50 
3 51 52 53 
3 54 55 56 
3 57 58 59 
3 60 61 62 
3 63 64 65 
3 48 66 49 
3 51 67 52 
3 54 68 55 
3 57 69 58 
3 60 70 61 
3 63 71 64 
